<svg width="200" height="142" viewBox="0 0 200 142" fill="none" xmlns="http://www.w3.org/2000/svg">
<path d="M44.7594 66.9021L43.0742 67.972L46.9261 75.2588L48.6113 74.189C52.4816 71.7466 57.315 74.7946 57.315 79.6794V81.7988H65.0187V79.6794C65.0187 74.8147 69.852 71.7668 73.7224 74.189L75.4076 75.2588L79.2594 67.972L77.5742 66.9021C73.7038 64.4597 73.7038 58.3638 77.5742 55.9416L79.2594 54.8718L75.4076 47.5849L73.7224 48.6547C69.852 51.0971 65.0187 48.0492 65.0187 43.1644V41.0449H57.315V43.1644C57.315 48.029 52.4816 51.077 48.6113 48.6547L46.9261 47.5849L43.0742 54.8718L44.7594 55.9416C48.6298 58.3638 48.6298 64.4597 44.7594 66.9021ZM53.9261 61.4118C53.9261 57.0518 57.1668 53.4992 61.1853 53.4992C65.1853 53.4992 68.4446 57.0316 68.4446 61.4118C68.4446 65.7718 65.2038 69.3244 61.1853 69.3244C57.1668 69.3244 53.9261 65.7718 53.9261 61.4118Z" fill="white" stroke="#0E152C" stroke-miterlimit="10" stroke-linecap="round" stroke-linejoin="round"/>
<path d="M69.3516 49.2802C69.833 49.1389 70.296 48.937 70.759 48.6343L72.4442 47.5645H75.4442L73.759 48.6343C72.3145 49.5426 70.759 49.7041 69.3516 49.2802Z" fill="#DFE6F2" stroke="#0E152C" stroke-miterlimit="10" stroke-linecap="round" stroke-linejoin="round"/>
<path d="M61.1855 69.3239C60.667 69.3239 60.167 69.2633 59.6855 69.1624C62.9818 68.4155 65.4448 65.2263 65.4448 61.4315C65.4448 57.6367 62.9818 54.4474 59.6855 53.7005C60.167 53.5996 60.667 53.5391 61.1855 53.5391C65.1855 53.5391 68.4448 57.0715 68.4448 61.4517C68.4448 65.7713 65.1855 69.3239 61.1855 69.3239Z" fill="#DFE6F2" stroke="#0E152C" stroke-miterlimit="10" stroke-linecap="round" stroke-linejoin="round"/>
<path d="M50.0195 49.2805C52.4084 48.574 54.3343 46.2325 54.3343 43.1644V41.0449H57.3343V43.1644C57.3343 47.4638 53.5566 50.3503 50.0195 49.2805Z" fill="#DFE6F2" stroke="#0E152C" stroke-miterlimit="10" stroke-linecap="round" stroke-linejoin="round"/>
<path d="M73.759 74.1678L75.4442 75.2377H72.4442L70.759 74.1678C70.296 73.8853 69.833 73.6632 69.3516 73.5219C70.759 73.1182 72.3145 73.2797 73.759 74.1678Z" fill="#DFE6F2" stroke="#0E152C" stroke-miterlimit="10" stroke-linecap="round" stroke-linejoin="round"/>
<path d="M57.3343 79.6601V81.7796H54.3343V79.6601C54.3343 76.592 52.4084 74.2505 50.0195 73.544C53.5566 72.4742 57.3343 75.3607 57.3343 79.6601Z" fill="#DFE6F2" stroke="#0E152C" stroke-miterlimit="10" stroke-linecap="round" stroke-linejoin="round"/>
<path d="M41.7594 55.9211L40.0742 54.8513L43.9261 47.5645H46.9261L43.0742 54.8715L44.7594 55.9413C48.6298 58.3837 48.6298 64.4796 44.7594 66.9019L43.0742 67.9717L46.9261 75.2585H43.9261L40.0742 67.9717L41.7594 66.9019C45.6298 64.4594 45.6298 58.3635 41.7594 55.9211Z" fill="#DFE6F2" stroke="#0E152C" stroke-miterlimit="10" stroke-linecap="round" stroke-linejoin="round"/>
<path d="M43.0742 54.8711H40.0742" stroke="#0E152C" stroke-miterlimit="10" stroke-linecap="round" stroke-linejoin="round"/>
<path d="M168.5 18.1543H135.574V54.0436H168.5V18.1543Z" fill="#2BD67B"/>
<path d="M148.279 45.5053L141.445 37.3101L141.593 37.1284L148.279 45.1621L162.482 26.7129L162.612 26.8946L148.279 45.5053Z" fill="white" stroke="white" stroke-width="0.75" stroke-miterlimit="10"/>
<path d="M150.925 107.029C150.925 107.009 152.962 106.706 152.962 106.665C148.703 77.5383 129.925 55.7988 104.018 55.7988C78.1103 55.7988 61.4807 78.4264 57.0918 106.928C57.0918 106.948 57.0918 106.988 57.0918 107.009C87.9807 111.712 119.24 111.813 150.925 107.029Z" fill="#4A70F6"/>
<path d="M111.259 57.0907C111.259 57.7972 108.203 58.3825 104.444 58.3825C100.684 58.3825 97.6289 57.7972 97.6289 57.0907C97.6289 56.3842 100.684 55.7988 104.444 55.7988C108.203 55.7988 111.259 56.3842 111.259 57.0907Z" fill="#0E152C"/>
<path d="M78.6484 87.834L75.1484 109.21L78.6484 109.533V87.834Z" fill="#0E152C"/>
<path d="M131.277 85.0684L135.203 109.028L131.703 109.331L131.277 85.0684Z" fill="#0E152C"/>
<path d="M152.759 106.686C152.759 106.686 154.722 114.437 154.704 116.516C154.648 122.572 148.852 127.82 143.555 128.789C142.907 128.91 142.241 128.97 141.555 128.97C134.111 128.89 129.074 123.218 125.018 118.656C122.722 116.072 117.055 107.998 115.055 107.594C108.926 106.343 104.889 99.9038 106.037 93.2225C107.185 86.5412 113.092 82.1409 119.222 83.3923C128.296 85.2494 134.333 92.0316 138.741 96.9972C139.611 97.966 146.685 106.726 147.481 107.493" fill="white"/>
<path d="M152.759 106.686C152.759 106.686 154.722 114.437 154.704 116.516C154.648 122.572 148.852 127.82 143.555 128.789C142.907 128.91 142.241 128.97 141.555 128.97C134.111 128.89 129.074 123.218 125.018 118.656C122.722 116.072 117.055 107.998 115.055 107.594C108.926 106.343 104.889 99.9038 106.037 93.2225C107.185 86.5412 113.092 82.1409 119.222 83.3923C128.296 85.2494 134.333 92.0316 138.741 96.9972C139.611 97.966 146.685 106.726 147.481 107.493" stroke="#0C152E" stroke-miterlimit="10"/>
<path d="M57.1849 107.029C56.9442 108.3 53.4998 122.551 61.1849 126.75C66.1849 129.495 71.1849 129.01 79.6109 129.091C80.6849 129.111 81.7775 129.111 82.8701 129.111C90.296 129.111 97.8331 128.869 99.1849 128.344C103.74 126.548 107.592 124.509 110.352 122.45C116.389 117.848 117.592 112.64 117.555 109.067C117.481 102.689 112.685 97.5619 106.852 97.5619C106.796 97.5619 106.759 97.5619 106.703 97.5619C102.759 97.6224 99.1849 100.024 97.3516 103.819C95.4072 105.01 91.5368 106.787 86.4442 108.22C85.3886 108.502 83.722 109.067 81.9627 109.653C79.222 110.561 76.1294 111.591 74.9442 111.752M87.5553 92.9597L87.4998 92.7578L87.5368 92.8587L87.5553 92.9597Z" stroke="#0E152C" stroke-miterlimit="10"/>
<path d="M75.1477 109.209C75.1477 109.209 74.8885 111.651 74.9255 111.651C77.0181 111.288 81.3514 109.754 81.3514 109.754L75.1477 109.209Z" fill="#000D2B"/>
<path d="M127.481 129.093H81.2217C81.1662 129.093 81.1291 129.052 81.1291 128.992L79.2402 95.0606C79.2402 95.0404 79.2402 95 79.2588 94.9798C79.2773 94.9596 79.2958 94.9395 79.3328 94.9395H129.148C129.166 94.9395 129.203 94.9596 129.222 94.9798C129.24 95 129.24 95.0202 129.24 95.0606L127.574 128.992C127.574 129.052 127.537 129.093 127.481 129.093Z" fill="#F7F9FB" stroke="#0C152E" stroke-miterlimit="10"/>
<path d="M106.871 112.036C106.871 113.61 105.704 114.882 104.26 114.882C102.815 114.882 101.648 113.61 101.648 112.036C101.648 110.461 102.815 109.19 104.26 109.19C105.685 109.17 106.871 110.441 106.871 112.036Z" stroke="#0C152E" stroke-miterlimit="10"/>
<path d="M102.89 51.9635C110.928 51.9635 117.445 44.8603 117.445 36.098C117.445 27.3357 110.928 20.2324 102.89 20.2324C94.8507 20.2324 88.334 27.3357 88.334 36.098C88.334 44.8603 94.8507 51.9635 102.89 51.9635Z" fill="white" stroke="#0E152C" stroke-miterlimit="10"/>
<path d="M111.908 23.9062C114.112 26.6716 115.445 30.2646 115.445 34.2209C115.445 42.9005 108.982 49.925 101.038 49.925C97.5935 49.925 94.4268 48.6129 91.9453 46.4127C94.5935 49.7231 98.4824 51.8224 102.816 51.8224C110.779 51.8224 117.223 44.7777 117.223 36.1183C117.242 31.1931 115.168 26.7927 111.908 23.9062Z" fill="#DFE5F0"/>
<path d="M33.3516 129.092H167.926" stroke="#0C152E" stroke-miterlimit="10"/>
</svg>
