<svg width="284" height="219" viewBox="0 0 284 219" fill="none" xmlns="http://www.w3.org/2000/svg">
<g clip-path="url(#clip0_4728_294790)">
<path d="M232.564 26.6926H101.688V98.0871H232.564V26.6926Z" stroke="white" stroke-miterlimit="10" stroke-linecap="round" stroke-linejoin="round"/>
<path d="M101.688 26.6926V93.2486" stroke="white" stroke-miterlimit="10" stroke-linecap="round" stroke-linejoin="round"/>
<path d="M113.573 26.6926V98.0871" stroke="white" stroke-miterlimit="10" stroke-linecap="round" stroke-linejoin="round"/>
<path d="M125.486 26.6926V98.0871" stroke="white" stroke-miterlimit="10" stroke-linecap="round" stroke-linejoin="round"/>
<path d="M137.372 26.6926V98.0871" stroke="white" stroke-miterlimit="10" stroke-linecap="round" stroke-linejoin="round"/>
<path d="M149.258 26.6926V98.0871" stroke="white" stroke-miterlimit="10" stroke-linecap="round" stroke-linejoin="round"/>
<path d="M232.538 26.6926H101.688" stroke="white" stroke-miterlimit="10" stroke-linecap="round" stroke-linejoin="round"/>
<path d="M232.538 38.5785H101.688" stroke="white" stroke-miterlimit="10" stroke-linecap="round" stroke-linejoin="round"/>
<path d="M232.538 50.4907H101.688" stroke="white" stroke-miterlimit="10" stroke-linecap="round" stroke-linejoin="round"/>
<path d="M232.538 62.3767H101.688" stroke="white" stroke-miterlimit="10" stroke-linecap="round" stroke-linejoin="round"/>
<path d="M232.538 74.2889H101.688" stroke="white" stroke-miterlimit="10" stroke-linecap="round" stroke-linejoin="round"/>
<path d="M232.538 86.1748H101.688" stroke="white" stroke-miterlimit="10" stroke-linecap="round" stroke-linejoin="round"/>
<path d="M232.538 98.087H101.688" stroke="white" stroke-miterlimit="10" stroke-linecap="round" stroke-linejoin="round"/>
<path d="M161.17 26.6926V98.0871" stroke="white" stroke-miterlimit="10" stroke-linecap="round" stroke-linejoin="round"/>
<path d="M173.056 26.6926V98.0871" stroke="white" stroke-miterlimit="10" stroke-linecap="round" stroke-linejoin="round"/>
<path d="M184.968 26.6926V98.0871" stroke="white" stroke-miterlimit="10" stroke-linecap="round" stroke-linejoin="round"/>
<path d="M196.854 26.6926V98.0871" stroke="white" stroke-miterlimit="10" stroke-linecap="round" stroke-linejoin="round"/>
<path d="M208.767 26.6926V98.0871" stroke="white" stroke-miterlimit="10" stroke-linecap="round" stroke-linejoin="round"/>
<path d="M220.652 26.6926V98.0871" stroke="white" stroke-miterlimit="10" stroke-linecap="round" stroke-linejoin="round"/>
<path d="M210.765 86.8585H23.1406V201.169H210.765V86.8585Z" fill="#C5CFE4" stroke="#0C152E" stroke-miterlimit="10" stroke-linecap="round" stroke-linejoin="round"/>
<path d="M210.765 86.8585H23.1406V95.4837H210.765V86.8585Z" fill="#F7F9FB" stroke="#0C152E" stroke-miterlimit="10" stroke-linecap="round" stroke-linejoin="round"/>
<path d="M29.6096 92.9067C30.5681 92.9067 31.3451 92.1296 31.3451 91.1711C31.3451 90.2126 30.5681 89.4355 29.6096 89.4355C28.6511 89.4355 27.874 90.2126 27.874 91.1711C27.874 92.1296 28.6511 92.9067 29.6096 92.9067Z" fill="#FF4557"/>
<path d="M35.4738 92.9067C36.4323 92.9067 37.2094 92.1296 37.2094 91.1711C37.2094 90.2126 36.4323 89.4355 35.4738 89.4355C34.5153 89.4355 33.7383 90.2126 33.7383 91.1711C33.7383 92.1296 34.5153 92.9067 35.4738 92.9067Z" fill="#F4E47F"/>
<path d="M41.3117 92.9067C42.2702 92.9067 43.0473 92.1296 43.0473 91.1711C43.0473 90.2126 42.2702 89.4355 41.3117 89.4355C40.3532 89.4355 39.5762 90.2126 39.5762 91.1711C39.5762 92.1296 40.3532 92.9067 41.3117 92.9067Z" fill="#2BD67B"/>
<path d="M169.085 113.286H62.1377V185.733H169.085V113.286Z" fill="#DEE4EF"/>
<path d="M67.7914 113.286H62.1377V185.733H67.7914V113.286Z" fill="#C5CDE0"/>
<path d="M169.059 141.45H139.791V159.699H169.059V141.45Z" fill="#C5CDE0"/>
<path d="M169.085 113.286H62.1377V185.733H169.085V113.286Z" stroke="#0C152E" stroke-miterlimit="10"/>
<path d="M141.974 141.45H167.928C172.372 141.45 176.001 145.052 176.001 149.523C176.001 153.967 172.398 157.596 167.928 157.596H141.974V141.45Z" fill="#4B6FEA"/>
<path d="M147.548 145.631H145.603V153.388H147.548V145.631Z" fill="#DEE4EF"/>
<path d="M256.099 70.5278C249.525 76.0763 240.164 88.1989 240.164 88.1989H235.22C235.22 88.1989 228.909 81.7826 225.753 78.5745C223.755 80.573 221.046 88.3041 221.046 88.3041H216.102C216.102 88.3041 209.686 81.8615 206.241 78.3904C204.821 79.9682 203.559 81.3882 202.244 82.7556C200.43 84.5963 198.826 87.0419 196.617 87.9885C194.461 88.9089 191.621 88.2515 189.096 88.2515C183.863 88.2515 178.63 88.2778 173.371 88.2252C172.266 88.2252 171.688 88.5407 171.109 89.4874C163.746 101.689 149.757 107.974 135.978 105.318C122.014 102.609 111.312 91.5122 109.024 77.3648C105.711 56.8011 122.435 37.8941 143.288 38.7093C155.463 39.2089 164.719 44.81 171.162 55.0919C171.767 56.0648 172.424 56.3015 173.476 56.3015C195.065 56.2752 216.628 56.3015 238.218 56.2489C239.48 56.2489 240.426 56.5645 241.373 57.4322C245.765 61.4819 250.235 65.4526 254.679 69.4233C255.021 69.8178 255.521 70.107 256.099 70.5278ZM131.086 62.6915C125.801 62.6652 121.488 66.8989 121.436 72.1845C121.409 77.47 125.617 81.7826 130.929 81.8352C136.293 81.8878 140.658 77.6015 140.658 72.2633C140.658 66.9778 136.398 62.7178 131.086 62.6915Z" fill="#DFE6F2" stroke="black" stroke-miterlimit="10"/>
<path d="M261.069 70.5278C253.916 76.5759 247.105 82.3611 240.19 88.1989C237.034 84.9907 233.878 81.7826 230.723 78.5745C227.331 81.993 224.228 85.1222 221.072 88.3041C217.785 84.9907 214.656 81.8615 211.211 78.3904C209.791 79.9682 208.529 81.3882 207.214 82.7556C205.4 84.5963 203.796 87.0419 201.587 87.9885C199.431 88.9089 196.591 88.2515 194.066 88.2515C188.833 88.2515 183.6 88.2778 178.341 88.2252C177.236 88.2252 176.658 88.5407 176.079 89.4874C168.716 101.689 154.727 107.974 140.948 105.318C126.984 102.609 116.281 91.5122 113.994 77.3648C110.68 56.8011 127.405 37.8941 148.258 38.7093C160.433 39.2089 169.689 44.81 176.132 55.0919C176.737 56.0648 177.394 56.3015 178.446 56.3015C200.035 56.2752 221.598 56.3015 243.188 56.2489C244.45 56.2489 245.396 56.5645 246.343 57.4322C250.735 61.4819 255.205 65.4526 259.649 69.4233C259.991 69.8178 260.464 70.107 261.069 70.5278ZM136.056 62.6915C130.771 62.6652 126.458 66.8989 126.405 72.1845C126.379 77.47 130.587 81.7826 135.899 81.8352C141.263 81.8878 145.628 77.6015 145.628 72.2633C145.628 66.9778 141.342 62.7178 136.056 62.6915Z" fill="#F7F9FB" stroke="black" stroke-miterlimit="10"/>
</g>
<defs>
<clipPath id="clip0_4728_294790">
<rect width="284" height="284" fill="white" transform="translate(0 -33)"/>
</clipPath>
</defs>
</svg>
