<svg width="200" height="142" viewBox="0 0 200 142" fill="none" xmlns="http://www.w3.org/2000/svg">
<path d="M44.7594 66.9002L43.0742 67.97L46.9261 75.2569L48.6113 74.187C52.4816 71.7446 57.315 74.7926 57.315 79.6774V81.7969H65.0187V79.6774C65.0187 74.8128 69.852 71.7648 73.7224 74.187L75.4076 75.2569L79.2594 67.97L77.5742 66.9002C73.7038 64.4578 73.7038 58.3619 77.5742 55.9396L79.2594 54.8698L75.4076 47.583L73.7224 48.6528C69.852 51.0952 65.0187 48.0472 65.0187 43.1624V41.043H57.315V43.1624C57.315 48.027 52.4816 51.075 48.6113 48.6528L46.9261 47.583L43.0742 54.8698L44.7594 55.9396C48.6298 58.3619 48.6298 64.4578 44.7594 66.9002ZM53.9261 61.4098C53.9261 57.0498 57.1668 53.4972 61.1853 53.4972C65.1853 53.4972 68.4446 57.0296 68.4446 61.4098C68.4446 65.7698 65.2038 69.3224 61.1853 69.3224C57.1668 69.3224 53.9261 65.7698 53.9261 61.4098Z" fill="white" stroke="#0E152C" stroke-miterlimit="10" stroke-linecap="round" stroke-linejoin="round"/>
<path d="M69.3525 49.2782C69.834 49.1369 70.297 48.9351 70.7599 48.6323L72.4451 47.5625H75.4451L73.7599 48.6323C72.3155 49.5407 70.7599 49.7021 69.3525 49.2782Z" fill="#DFE6F2" stroke="#0E152C" stroke-miterlimit="10" stroke-linecap="round" stroke-linejoin="round"/>
<path d="M61.1855 69.3239C60.667 69.3239 60.167 69.2633 59.6855 69.1624C62.9818 68.4155 65.4448 65.2263 65.4448 61.4315C65.4448 57.6367 62.9818 54.4474 59.6855 53.7005C60.167 53.5996 60.667 53.5391 61.1855 53.5391C65.1855 53.5391 68.4448 57.0715 68.4448 61.4517C68.4448 65.7713 65.1855 69.3239 61.1855 69.3239Z" fill="#DFE6F2" stroke="#0E152C" stroke-miterlimit="10" stroke-linecap="round" stroke-linejoin="round"/>
<path d="M50.0186 49.2785C52.4074 48.572 54.3334 46.2306 54.3334 43.1624V41.043H57.3334V43.1624C57.3334 47.4619 53.5556 50.3483 50.0186 49.2785Z" fill="#DFE6F2" stroke="#0E152C" stroke-miterlimit="10" stroke-linecap="round" stroke-linejoin="round"/>
<path d="M73.7599 74.1678L75.4451 75.2377H72.4451L70.7599 74.1678C70.297 73.8853 69.834 73.6632 69.3525 73.5219C70.7599 73.1182 72.3155 73.2797 73.7599 74.1678Z" fill="#DFE6F2" stroke="#0E152C" stroke-miterlimit="10" stroke-linecap="round" stroke-linejoin="round"/>
<path d="M57.3334 79.6562V81.7757H54.3334V79.6562C54.3334 76.5881 52.4074 74.2466 50.0186 73.5401C53.5556 72.4703 57.3334 75.3568 57.3334 79.6562Z" fill="#DFE6F2" stroke="#0E152C" stroke-miterlimit="10" stroke-linecap="round" stroke-linejoin="round"/>
<path d="M41.7594 55.9192L40.0742 54.8494L43.9261 47.5625H46.9261L43.0742 54.8695L44.7594 55.9394C48.6298 58.3818 48.6298 64.4777 44.7594 66.8999L43.0742 67.9697L46.9261 75.2566H43.9261L40.0742 67.9697L41.7594 66.8999C45.6298 64.4575 45.6298 58.3616 41.7594 55.9192Z" fill="#DFE6F2" stroke="#0E152C" stroke-miterlimit="10" stroke-linecap="round" stroke-linejoin="round"/>
<path d="M43.0742 54.8711H40.0742" stroke="#0E152C" stroke-miterlimit="10" stroke-linecap="round" stroke-linejoin="round"/>
<path d="M168.499 18.1523H135.573V54.0416H168.499V18.1523Z" fill="#2BD67B"/>
<path d="M148.277 45.5033L141.443 37.3082L141.592 37.1265L148.277 45.1602L162.48 26.7109L162.61 26.8926L148.277 45.5033Z" fill="white" stroke="white" stroke-width="0.75" stroke-miterlimit="10"/>
<path d="M150.925 107.027C150.925 107.007 152.962 106.704 152.962 106.664C148.703 77.5363 129.925 55.7969 104.018 55.7969C78.1103 55.7969 61.4807 78.4245 57.0918 106.926C57.0918 106.946 57.0918 106.987 57.0918 107.007C87.9807 111.71 119.24 111.811 150.925 107.027Z" fill="#4A70F6"/>
<path d="M111.259 57.0887C111.259 57.7952 108.203 58.3806 104.444 58.3806C100.684 58.3806 97.6289 57.7952 97.6289 57.0887C97.6289 56.3822 100.684 55.7969 104.444 55.7969C108.203 55.7969 111.259 56.3822 111.259 57.0887Z" fill="#0E152C"/>
<path d="M78.6475 87.832L75.1475 109.208L78.6475 109.531V87.832Z" fill="#0E152C"/>
<path d="M131.277 85.0664L135.203 109.026L131.703 109.329L131.277 85.0664Z" fill="#0E152C"/>
<path d="M152.759 106.686C152.759 106.686 154.722 114.437 154.704 116.516C154.648 122.572 148.852 127.82 143.555 128.789C142.907 128.91 142.241 128.97 141.555 128.97C134.111 128.89 129.074 123.218 125.018 118.656C122.722 116.072 117.055 107.998 115.055 107.594C108.926 106.343 104.889 99.9038 106.037 93.2225C107.185 86.5412 113.092 82.1409 119.222 83.3923C128.296 85.2494 134.333 92.0316 138.741 96.9972C139.611 97.966 146.685 106.726 147.481 107.493" fill="white"/>
<path d="M152.759 106.686C152.759 106.686 154.722 114.437 154.704 116.516C154.648 122.572 148.852 127.82 143.555 128.789C142.907 128.91 142.241 128.97 141.555 128.97C134.111 128.89 129.074 123.218 125.018 118.656C122.722 116.072 117.055 107.998 115.055 107.594C108.926 106.343 104.889 99.9038 106.037 93.2225C107.185 86.5412 113.092 82.1409 119.222 83.3923C128.296 85.2494 134.333 92.0316 138.741 96.9972C139.611 97.966 146.685 106.726 147.481 107.493" stroke="#0C152E" stroke-miterlimit="10"/>
<path d="M57.1849 107.029C56.9442 108.3 53.4998 122.551 61.1849 126.75C66.1849 129.495 71.1849 129.01 79.6109 129.091C80.6849 129.111 81.7775 129.111 82.8701 129.111C90.296 129.111 97.8331 128.869 99.1849 128.344C103.74 126.548 107.592 124.509 110.352 122.45C116.389 117.848 117.592 112.64 117.555 109.067C117.481 102.689 112.685 97.5619 106.852 97.5619C106.796 97.5619 106.759 97.5619 106.703 97.5619C102.759 97.6224 99.1849 100.024 97.3516 103.819C95.4072 105.01 91.5368 106.787 86.4442 108.22C85.3886 108.502 83.722 109.067 81.9627 109.653C79.222 110.561 76.1294 111.591 74.9442 111.752M87.5553 92.9597L87.4998 92.7578L87.5368 92.8587L87.5553 92.9597Z" stroke="#0E152C" stroke-miterlimit="10"/>
<path d="M75.1477 109.207C75.1477 109.207 74.8885 111.649 74.9255 111.649C77.0181 111.286 81.3514 109.752 81.3514 109.752L75.1477 109.207Z" fill="#000D2B"/>
<path d="M127.481 129.091H81.2217C81.1662 129.091 81.1291 129.05 81.1291 128.99L79.2402 95.0586C79.2402 95.0384 79.2402 94.9981 79.2588 94.9779C79.2773 94.9577 79.2958 94.9375 79.3328 94.9375H129.148C129.166 94.9375 129.203 94.9577 129.222 94.9779C129.24 94.9981 129.24 95.0182 129.24 95.0586L127.574 128.99C127.574 129.05 127.537 129.091 127.481 129.091Z" fill="#F7F9FB" stroke="#0C152E" stroke-miterlimit="10"/>
<path d="M106.871 112.034C106.871 113.608 105.704 114.88 104.26 114.88C102.815 114.88 101.648 113.608 101.648 112.034C101.648 110.459 102.815 109.188 104.26 109.188C105.685 109.168 106.871 110.439 106.871 112.034Z" stroke="#0C152E" stroke-miterlimit="10"/>
<path d="M102.889 51.9616C110.927 51.9616 117.444 44.8583 117.444 36.096C117.444 27.3337 110.927 20.2305 102.889 20.2305C94.8497 20.2305 88.333 27.3337 88.333 36.096C88.333 44.8583 94.8497 51.9616 102.889 51.9616Z" fill="white" stroke="#0E152C" stroke-miterlimit="10"/>
<path d="M111.907 23.9062C114.111 26.6716 115.444 30.2646 115.444 34.2209C115.444 42.9005 108.981 49.925 101.037 49.925C97.5925 49.925 94.4258 48.6129 91.9443 46.4127C94.5925 49.7231 98.4814 51.8224 102.815 51.8224C110.778 51.8224 117.222 44.7777 117.222 36.1183C117.241 31.1931 115.167 26.7927 111.907 23.9062Z" fill="#DFE5F0"/>
<path d="M33.3516 129.09H167.926" stroke="#0C152E" stroke-miterlimit="10"/>
</svg>
