<svg width="276" height="219" viewBox="0 0 276 219" fill="none" xmlns="http://www.w3.org/2000/svg">
<g clip-path="url(#clip0_4728_294830)">
<path d="M157.575 81.7245H236.695" stroke="#131C3B" stroke-miterlimit="10"/>
<path d="M236.695 81.7245V135.11" stroke="#131C3B" stroke-miterlimit="10"/>
<path d="M98.8486 196.443H150.445" stroke="#131C3B" stroke-miterlimit="10"/>
<path d="M129.516 81.7245H43.5723" stroke="#131C3B" stroke-miterlimit="10"/>
<path d="M43.5723 81.7245V135.442" stroke="#131C3B" stroke-miterlimit="10"/>
<path d="M236.695 37.5645V81.9033" stroke="#131C3B" stroke-miterlimit="10"/>
<path d="M98.8486 156.398V196.443" stroke="#131C3B" stroke-miterlimit="10"/>
<path d="M100.229 155.094H97.1367V158.187H100.229V155.094Z" fill="#131C3B"/>
<path d="M58.2158 156.653H98.1847" stroke="#131C3B" stroke-miterlimit="10"/>
<path d="M45.2846 79.9355H42.1924V83.0278H45.2846V79.9355Z" fill="#131C3B"/>
<path d="M238.126 79.9355H235.034V83.0278H238.126V79.9355Z" fill="#131C3B"/>
<path d="M146.894 156.602L146.97 101.913" stroke="#131C3B" stroke-miterlimit="10"/>
<path d="M98.8486 156.551L146.868 156.653" stroke="#131C3B" stroke-miterlimit="10"/>
<path d="M148.503 155.094H145.411V158.187H148.503V155.094Z" fill="#131C3B"/>
<path d="M43.7002 80.6V49.1666" stroke="#131C3B" stroke-miterlimit="10"/>
<path d="M43.5723 49.1666L0.587891 49.09" stroke="#131C3B" stroke-miterlimit="10"/>
<path d="M45.2846 47.5566H42.1924V50.6489H45.2846V47.5566Z" fill="#131C3B"/>
<path d="M122.897 198.922H113.646C112.291 198.922 111.192 197.823 111.192 196.469C111.192 195.115 112.291 194.016 113.646 194.016H122.897C124.251 194.016 125.35 195.115 125.35 196.469C125.35 197.823 124.251 198.922 122.897 198.922Z" fill="#65D994"/>
<path d="M95.6029 84.05H58.9563C57.6018 84.05 56.5029 82.9511 56.5029 81.5966C56.5029 80.2422 57.6018 79.1433 58.9563 79.1433H95.6029C96.9574 79.1433 98.0563 80.2422 98.0563 81.5966C98.0563 82.9511 96.9574 84.05 95.6029 84.05Z" fill="#65D994"/>
<path d="M239.149 49.1922V63.5289C239.149 64.8833 238.05 65.9822 236.696 65.9822C235.341 65.9822 234.242 64.8833 234.242 63.5289V49.1922C234.242 47.8378 235.341 46.7389 236.696 46.7389C238.05 46.7389 239.149 47.8378 239.149 49.1922Z" fill="#65D994"/>
<path d="M251.927 152.488H276" stroke="#131C3B" stroke-miterlimit="10"/>
<path d="M212.316 160.589L209.581 162.173L215.842 173.009L218.577 171.424C224.863 167.796 232.709 172.319 232.709 179.577V182.746H245.206V179.577C245.206 172.319 253.051 167.796 259.338 171.424L262.072 173.009L268.333 162.173L265.599 160.589C259.312 156.96 259.312 147.888 265.599 144.284L268.333 142.7L262.072 131.864L259.338 133.449C253.051 137.078 245.206 132.554 245.206 125.297V122.128H232.709V125.297C232.709 132.554 224.863 137.078 218.577 133.449L215.842 131.864L209.556 142.7L212.29 144.284C218.577 147.888 218.577 156.96 212.316 160.589ZM227.163 152.437C227.163 145.946 232.428 140.681 238.919 140.681C245.41 140.681 250.675 145.946 250.675 152.437C250.675 158.928 245.41 164.192 238.919 164.192C232.428 164.192 227.163 158.928 227.163 152.437Z" fill="#F7F9FB" stroke="#0E152C" stroke-miterlimit="10" stroke-linecap="round" stroke-linejoin="round"/>
<path d="M252.183 134.395C252.949 134.19 253.716 133.883 254.457 133.449L257.192 131.865H262.047L259.313 133.449C256.987 134.778 254.457 135.008 252.183 134.395Z" fill="#0C152E" stroke="#0E152C" stroke-miterlimit="10" stroke-linecap="round" stroke-linejoin="round"/>
<path d="M238.944 164.192C238.101 164.192 237.309 164.116 236.517 163.937C241.858 162.812 245.844 158.084 245.844 152.411C245.844 146.738 241.832 142.01 236.517 140.886C237.309 140.732 238.101 140.63 238.944 140.63C245.435 140.63 250.7 145.894 250.7 152.386C250.7 158.928 245.435 164.192 238.944 164.192Z" fill="#0C152E" stroke="#0E152C" stroke-miterlimit="10" stroke-linecap="round" stroke-linejoin="round"/>
<path d="M220.826 134.394C224.711 133.347 227.828 129.871 227.828 125.297V122.128H232.684V125.297C232.684 131.686 226.576 135.953 220.826 134.394Z" fill="#0C152E" stroke="#0E152C" stroke-miterlimit="10" stroke-linecap="round" stroke-linejoin="round"/>
<path d="M259.313 171.424L262.047 173.009H257.192L254.457 171.424C253.716 170.99 252.949 170.683 252.183 170.479C254.457 169.866 256.987 170.07 259.313 171.424Z" fill="#0C152E" stroke="#0E152C" stroke-miterlimit="10" stroke-linecap="round" stroke-linejoin="round"/>
<path d="M232.684 179.577V182.746H227.828V179.577C227.828 175.002 224.711 171.527 220.826 170.479C226.576 168.894 232.684 173.188 232.684 179.577Z" fill="#0C152E" stroke="#0E152C" stroke-miterlimit="10" stroke-linecap="round" stroke-linejoin="round"/>
<path d="M207.435 144.259L204.7 142.7L210.961 131.865H215.817L209.556 142.7L212.29 144.285C218.577 147.913 218.577 156.986 212.29 160.589L209.556 162.173L215.817 173.009H210.961L204.7 162.173L207.435 160.589C213.721 156.96 213.721 147.888 207.435 144.259Z" fill="#0C152E" stroke="#0E152C" stroke-miterlimit="10" stroke-linecap="round" stroke-linejoin="round"/>
<path d="M209.556 142.7H204.7" stroke="#0E152C" stroke-miterlimit="10" stroke-linecap="round" stroke-linejoin="round"/>
<path d="M18.6041 165.061L15.793 166.697L22.233 177.864L25.0441 176.229C31.5096 172.498 39.6107 177.174 39.6107 184.637V187.908H52.5163V184.637C52.5163 177.149 60.6174 172.498 67.083 176.229L69.8941 177.864L76.3341 166.697L73.523 165.061C67.0574 161.33 67.0574 151.977 73.523 148.246L76.3341 146.61L69.8941 135.442L67.083 137.078C60.6174 140.809 52.5163 136.132 52.5163 128.67V125.399H39.6107V128.67C39.6107 136.158 31.5096 140.809 25.0441 137.078L22.233 135.442L15.793 146.61L18.6041 148.246C25.0952 151.977 25.0952 161.33 18.6041 165.061ZM33.9374 156.653C33.9374 149.958 39.3807 144.514 46.0763 144.514C52.7719 144.514 58.2152 149.958 58.2152 156.653C58.2152 163.349 52.7719 168.792 46.0763 168.792C39.3807 168.792 33.9374 163.349 33.9374 156.653Z" fill="#F7F9FB" stroke="#0E152C" stroke-miterlimit="10" stroke-linecap="round" stroke-linejoin="round"/>
<path d="M59.7227 138.049C60.5149 137.844 61.3071 137.512 62.0738 137.078L64.8849 135.442H69.8938L67.0827 137.078C64.706 138.458 62.0738 138.688 59.7227 138.049Z" fill="#0C152E" stroke="#0E152C" stroke-miterlimit="10" stroke-linecap="round" stroke-linejoin="round"/>
<path d="M46.0767 168.792C45.2078 168.792 44.39 168.69 43.5723 168.537C49.0667 167.387 53.2067 162.506 53.2067 156.653C53.2067 150.801 49.0667 145.946 43.5723 144.77C44.39 144.591 45.2078 144.515 46.0767 144.515C52.7723 144.515 58.2156 149.958 58.2156 156.653C58.2156 163.349 52.7723 168.792 46.0767 168.792Z" fill="#0C152E" stroke="#0E152C" stroke-miterlimit="10" stroke-linecap="round" stroke-linejoin="round"/>
<path d="M27.3955 138.049C31.4077 136.976 34.6277 133.372 34.6277 128.67V125.399H39.6366V128.67C39.6366 135.263 33.3244 139.659 27.3955 138.049Z" fill="#0C152E" stroke="#0E152C" stroke-miterlimit="10" stroke-linecap="round" stroke-linejoin="round"/>
<path d="M67.0835 176.229L69.8946 177.864H64.9112L62.1001 176.229C61.3335 175.794 60.5412 175.462 59.749 175.258C62.0746 174.619 64.7068 174.849 67.0835 176.229Z" fill="#0C152E" stroke="#0E152C" stroke-miterlimit="10" stroke-linecap="round" stroke-linejoin="round"/>
<path d="M39.6366 184.637V187.908H34.6277V184.637C34.6277 179.909 31.4077 176.331 27.3955 175.258C33.3244 173.622 39.6366 178.043 39.6366 184.637Z" fill="#0C152E" stroke="#0E152C" stroke-miterlimit="10" stroke-linecap="round" stroke-linejoin="round"/>
<path d="M13.5953 148.246L10.7842 146.61L17.2242 135.442H22.2331L15.7931 146.61L18.6042 148.246C25.0697 151.977 25.0697 161.33 18.6042 165.061L15.7931 166.697L22.2331 177.864H17.2242L10.7842 166.697L13.5953 165.061C20.0608 161.33 20.0608 151.977 13.5953 148.246Z" fill="#0C152E" stroke="#0E152C" stroke-miterlimit="10" stroke-linecap="round" stroke-linejoin="round"/>
<path d="M15.7931 146.61H10.7842" stroke="#0E152C" stroke-miterlimit="10" stroke-linecap="round" stroke-linejoin="round"/>
<path d="M140.863 33.6289L134.346 44.8223C134.295 44.8989 134.295 45.0267 134.346 45.1034L141.118 56.7056L159.033 87.4745C159.084 87.5767 159.084 87.7045 159.007 87.8067L149.552 98.4123L139.431 109.759C139.278 109.938 139.406 110.219 139.636 110.219H154.714C154.79 110.219 154.867 110.193 154.918 110.117L173.523 89.2378C173.599 89.1356 173.625 89.0078 173.548 88.9056L146.792 33.6289H141.374C141.246 33.4245 140.99 33.4245 140.863 33.6289Z" fill="#0C152E" stroke="#0E152C" stroke-miterlimit="10"/>
<path d="M136.109 110.168L144.031 98.8978C144.185 98.7189 144.057 98.4378 143.827 98.4378H132.812C132.736 98.4378 132.659 98.4123 132.608 98.3356L123.255 87.8323C123.178 87.73 123.152 87.6023 123.229 87.5L138.869 60.6667C138.92 60.59 140.99 49.2689 140.939 49.1923H132.352C132.25 49.0134 131.969 49.0134 131.867 49.1923L108.688 88.9823C108.637 89.0845 108.637 89.2123 108.714 89.3145L127.318 110.193C127.369 110.244 127.446 110.296 127.522 110.296H135.93C135.981 110.244 136.058 110.219 136.109 110.168Z" fill="#0C152E" stroke="#0E152C" stroke-miterlimit="10"/>
<path d="M139.917 110.168L149.935 98.8979C150.088 98.719 149.961 98.4379 149.731 98.4379H138.716C138.639 98.4379 138.563 98.4123 138.512 98.3356L129.158 87.8323C129.082 87.7301 129.056 87.6023 129.133 87.5001L144.773 60.6668C144.824 60.5901 144.824 60.4623 144.773 60.3856L138.205 49.1668C138.103 48.9879 137.822 48.9879 137.719 49.1668L114.541 88.9568C114.489 89.059 114.489 89.1868 114.566 89.289L133.17 110.168C133.222 110.219 133.298 110.27 133.375 110.27H139.687C139.789 110.245 139.866 110.219 139.917 110.168Z" fill="#F7F9FB" stroke="#0E152C" stroke-miterlimit="10"/>
<path d="M146.791 33.6289L140.275 44.8223C140.224 44.8989 140.224 45.0267 140.275 45.1034L147.047 56.7056L164.961 87.4745C165.012 87.5767 165.012 87.7045 164.936 87.8067L155.48 98.4123L145.36 109.759C145.207 109.938 145.335 110.219 145.565 110.219H160.642C160.719 110.219 160.796 110.193 160.847 110.117L179.451 89.2378C179.528 89.1356 179.554 89.0078 179.477 88.9056L147.277 33.6289C147.149 33.4245 146.894 33.4245 146.791 33.6289Z" fill="#F7F9FB" stroke="#0E152C" stroke-miterlimit="10"/>
<path d="M140.275 45.1034H134.346" stroke="#0E152C" stroke-miterlimit="10"/>
<path d="M164.961 87.4745H159.032" stroke="#0E152C" stroke-miterlimit="10"/>
</g>
<defs>
<clipPath id="clip0_4728_294830">
<rect width="276" height="276" fill="white" transform="translate(0 -16)"/>
</clipPath>
</defs>
</svg>
