<svg width="370" height="120" viewBox="0 0 370 120" fill="none" xmlns="http://www.w3.org/2000/svg">
<g clip-path="url(#clip0_1146_166549)">
<path d="M277.078 17.0215H112.773V115.5H277.078V17.0215Z" fill="#DFE6F2"/>
<path d="M270.357 0.211914H101.328V108.454H270.357V0.211914Z" fill="#F7F9FB" stroke="#0C152E" stroke-width="0.685185" stroke-miterlimit="10"/>
<path d="M101.375 13.1157H270.404" stroke="#0C152E" stroke-width="0.685185" stroke-miterlimit="10"/>
<path d="M260.132 9.63508C261.807 9.63508 263.165 8.30476 263.165 6.66373C263.165 5.0227 261.807 3.69238 260.132 3.69238C258.456 3.69238 257.098 5.0227 257.098 6.66373C257.098 8.30476 258.456 9.63508 260.132 9.63508Z" stroke="#0C152E" stroke-width="0.685185" stroke-miterlimit="10"/>
<path d="M170.082 34.6943L163.953 40.6973L209.31 85.1192L215.439 79.1163L170.082 34.6943Z" fill="#4070F4"/>
<path d="M209.325 34.6723L163.969 79.0942L170.098 85.0972L215.454 40.6752L209.325 34.6723Z" fill="#4070F4"/>
<path d="M80.657 30.5195H45.9844V39.0091H80.657V30.5195Z" fill="#4070F4"/>
<path d="M327.741 98.9453H288.734V107.435H327.741V98.9453Z" fill="#4070F4"/>
<path d="M355.18 78.061H337.844V86.5506H355.18V78.061Z" fill="#4070F4"/>
<path d="M369.999 78.061H359.164V86.5506H369.999V78.061Z" fill="#4070F4"/>
<path d="M21.0223 111.51H9.32031V119.999H21.0223V111.51Z" fill="#4070F4"/>
<path d="M4.33407 111.51H0V119.999H4.33407V111.51Z" fill="#4070F4"/>
</g>
<defs>
<clipPath id="clip0_1146_166549">
<rect width="370" height="120" fill="white"/>
</clipPath>
</defs>
</svg>
