<svg width="384" height="116" viewBox="0 0 384 116" fill="none" xmlns="http://www.w3.org/2000/svg">
<g clip-path="url(#clip0_4728_298216)">
<path d="M53.591 107.124C83.1043 107.124 107.03 83.1771 107.03 53.6377C107.03 24.0982 83.1043 0.151733 53.591 0.151733C24.0776 0.151733 0.152344 24.0982 0.152344 53.6377C0.152344 83.1771 24.0776 107.124 53.591 107.124Z" fill="#F7F9FB" stroke="#0C152E" stroke-width="0.5" stroke-miterlimit="10"/>
<mask id="mask0_4728_298216" style="mask-type:luminance" maskUnits="userSpaceOnUse" x="25" y="90" width="57" height="26">
<path d="M81.1055 90.8123V110.158L48.436 116L25.4688 110.158V90.5847" fill="white"/>
</mask>
<g mask="url(#mask0_4728_298216)">
<path d="M53.591 107.124C83.1043 107.124 107.03 83.1771 107.03 53.6377C107.03 24.0982 83.1043 0.151733 53.591 0.151733C24.0776 0.151733 0.152344 24.0982 0.152344 53.6377C0.152344 83.1771 24.0776 107.124 53.591 107.124Z" fill="#0C152E"/>
</g>
<path d="M105.059 93.1641C104.301 93.1641 103.543 93.0882 102.785 92.8606C102.634 92.7847 83.9869 88.081 69.3576 90.8881C68.827 90.9639 68.2206 91.0398 67.69 91.0398C63.4453 91.0398 59.7311 88.081 58.8973 83.7566C57.9877 78.9012 61.1713 74.1974 66.0224 73.287C84.6691 69.7213 106.348 75.3354 107.257 75.563C112.033 76.7769 114.913 81.7082 113.624 86.4878C112.639 90.5087 109.077 93.1641 105.059 93.1641Z" fill="#DFE6F2" stroke="#0C152E" stroke-width="0.5" stroke-miterlimit="10"/>
<path d="M72.8438 55.3826C72.8438 55.3826 82.0155 58.0379 85.5023 72.6802L80.7269 74.9561" fill="#4070F4"/>
<path d="M26.4552 90.8123C26.4552 90.8123 17.2835 44.6095 54.2736 46.5062C88.535 48.6304 81.1066 90.8123 81.1066 90.8123" fill="#4070F4"/>
<path d="M50.9387 50.6788C53.6598 50.6788 55.8656 50.0674 55.8656 49.3132C55.8656 48.559 53.6598 47.9476 50.9387 47.9476C48.2176 47.9476 46.0117 48.559 46.0117 49.3132C46.0117 50.0674 48.2176 50.6788 50.9387 50.6788Z" fill="#0C152E"/>
<path d="M33.353 90.5847C33.353 90.5847 32.974 65.0176 33.9594 62.2106C33.9594 62.2106 24.7876 90.5847 27.4406 90.5847C30.0936 90.5847 33.353 90.5847 33.353 90.5847Z" fill="#0C152E"/>
<path d="M55.5612 110.158C54.1968 110.158 52.8324 109.855 51.5438 109.248L48.3602 107.73C42.0689 106.289 36.3081 106.744 31.6843 107.124C28.425 107.351 25.5446 107.579 22.8158 107.199C15.3117 106.137 12.6587 100.902 11.9007 98.6265C10.8395 95.6677 10.0057 90.5088 12.6587 77.1562C13.9473 70.6317 19.1774 70.9352 19.2532 70.7076C20.6176 65.7763 20.466 64.7141 25.393 66.0797C30.3199 67.4453 32.6697 67.4453 31.2295 72.3767C31.2295 72.5284 32.0633 74.5768 30.9263 80.115C30.1683 83.9842 29.7136 86.7154 29.562 88.688C29.7894 88.688 30.0167 88.688 30.2441 88.6121C35.9291 88.1569 41.6899 87.7776 47.3748 88.4604C51.847 88.9914 55.5612 90.5846 59.5785 92.4813C64.2023 94.6814 66.0973 100.22 63.8991 104.848C62.3073 108.262 58.9721 110.158 55.5612 110.158Z" fill="#F7F9FB" stroke="#0C152E" stroke-width="0.5" stroke-miterlimit="10"/>
<path d="M10.8398 81.86C10.8398 81.86 15.5394 58.7207 37.2939 50.6788C34.7167 60.3139 32.3669 70.48 31.4573 85.3499C24.7869 85.0464 16.2974 83.6049 10.8398 81.86Z" fill="#4070F4"/>
<path d="M62.9902 48.327C62.9902 48.327 75.4971 51.3617 79.8935 66.3074" stroke="#0C152E" stroke-width="0.5" stroke-miterlimit="10"/>
<path d="M34.4894 61.5277C34.4894 61.5277 33.125 70.0248 33.125 72.6801" stroke="#0C152E" stroke-width="0.5" stroke-miterlimit="10"/>
<path d="M51.6962 38.3885C58.1849 38.3885 63.4451 33.1237 63.4451 26.6292C63.4451 20.1347 58.1849 14.8699 51.6962 14.8699C45.2074 14.8699 39.9473 20.1347 39.9473 26.6292C39.9473 33.1237 45.2074 38.3885 51.6962 38.3885Z" fill="white"/>
<path d="M55.562 36.4918C49.0432 36.4918 43.813 31.1811 43.813 24.7325C43.813 20.8633 45.708 17.4493 48.5884 15.2491C43.5856 16.6147 39.9473 21.1667 39.9473 26.6291C39.9473 33.1537 45.2532 38.3885 51.6962 38.3885C54.3492 38.3885 56.7747 37.5539 58.7455 36.0366C57.6843 36.3401 56.6231 36.4918 55.562 36.4918Z" fill="#DFE6F2"/>
<path d="M51.6962 38.3885C58.1849 38.3885 63.4451 33.1237 63.4451 26.6292C63.4451 20.1347 58.1849 14.8699 51.6962 14.8699C45.2074 14.8699 39.9473 20.1347 39.9473 26.6292C39.9473 33.1237 45.2074 38.3885 51.6962 38.3885Z" stroke="#0C152E" stroke-width="0.5" stroke-miterlimit="10"/>
<path d="M299.787 55.0791H107.029" stroke="#0C152E" stroke-width="0.5" stroke-miterlimit="10"/>
<path d="M330.411 107.124C359.925 107.124 383.85 83.1771 383.85 53.6377C383.85 24.0982 359.925 0.151733 330.411 0.151733C300.898 0.151733 276.973 24.0982 276.973 53.6377C276.973 83.1771 300.898 107.124 330.411 107.124Z" fill="#F7F9FB" stroke="#0C152E" stroke-width="0.5" stroke-miterlimit="10"/>
<path d="M343.903 46.5062C350.183 46.5062 355.273 41.4112 355.273 35.1262C355.273 28.8412 350.183 23.7462 343.903 23.7462C337.624 23.7462 332.533 28.8412 332.533 35.1262C332.533 41.4112 337.624 46.5062 343.903 46.5062Z" fill="#0C152E"/>
<mask id="mask1_4728_298216" style="mask-type:luminance" maskUnits="userSpaceOnUse" x="302" y="90" width="57" height="26">
<path d="M302.973 90.8123V110.158L335.566 116L358.534 110.158V90.5847" fill="white"/>
</mask>
<g mask="url(#mask1_4728_298216)">
<path d="M330.411 107.124C359.925 107.124 383.85 83.1771 383.85 53.6377C383.85 24.0982 359.925 0.151733 330.411 0.151733C300.898 0.151733 276.973 24.0982 276.973 53.6377C276.973 83.1771 300.898 107.124 330.411 107.124Z" fill="#0C152E"/>
</g>
<path d="M278.943 93.1641C279.701 93.1641 280.459 93.0882 281.217 92.8606C281.369 92.7847 300.016 88.081 314.645 90.8881C315.175 90.9639 315.782 91.0398 316.312 91.0398C320.557 91.0398 324.271 88.081 325.105 83.7566C326.015 78.9012 322.831 74.1974 317.98 73.287C299.333 69.7213 277.655 75.3354 276.745 75.563C271.97 76.7769 269.089 81.7082 270.378 86.4878C271.363 90.5087 275.002 93.1641 278.943 93.1641Z" fill="#DFE6F2" stroke="#0C152E" stroke-width="0.5" stroke-miterlimit="10"/>
<path d="M311.159 55.3826C311.159 55.3826 301.987 58.0379 298.5 72.6802L303.275 74.9561" fill="#4070F4"/>
<path d="M357.548 90.8123C357.548 90.8123 366.72 44.6095 329.729 46.5062C295.468 48.6304 302.896 90.8123 302.896 90.8123" fill="#4070F4"/>
<path d="M333.064 50.6788C335.785 50.6788 337.991 50.0674 337.991 49.3132C337.991 48.559 335.785 47.9476 333.064 47.9476C330.343 47.9476 328.137 48.559 328.137 49.3132C328.137 50.0674 330.343 50.6788 333.064 50.6788Z" fill="#0C152E"/>
<path d="M350.649 90.5847C350.649 90.5847 351.028 65.0176 350.043 62.2106C350.043 62.2106 359.215 90.5847 356.562 90.5847C353.833 90.5847 350.649 90.5847 350.649 90.5847Z" fill="#0C152E"/>
<path d="M320.103 104.923C317.905 100.296 319.8 94.7574 324.424 92.5572C328.441 90.6606 332.155 89.0674 336.627 88.5363C342.312 87.8535 348.073 88.2328 353.758 88.688C353.986 88.688 354.213 88.688 354.44 88.7639C354.213 86.7914 353.834 84.0602 353.076 80.191C351.939 74.7286 352.849 72.6043 352.773 72.4526C351.408 67.5213 353.682 67.5212 358.609 66.1557C363.536 64.7901 363.385 65.8522 364.749 70.7835C364.825 71.0111 369.979 70.7076 371.344 77.2322C373.997 90.5847 373.163 95.6678 372.102 98.7024C371.344 100.903 368.691 106.213 361.187 107.275C358.458 107.655 355.577 107.427 352.318 107.199C347.694 106.82 341.933 106.365 335.642 107.806L332.459 109.324C331.17 109.931 329.806 110.234 328.441 110.234C325.03 110.158 321.695 108.262 320.103 104.923Z" fill="#F7F9FB" stroke="#0C152E" stroke-width="0.5" stroke-miterlimit="10"/>
<path d="M373.237 81.86C373.237 81.86 368.538 58.7207 346.783 50.6788C349.36 60.3139 351.71 70.48 352.62 85.3499C359.214 85.0464 367.704 83.6049 373.237 81.86Z" fill="#4070F4"/>
<path d="M321.013 48.327C321.013 48.327 308.506 51.3617 304.109 66.3074" stroke="#0C152E" stroke-width="0.5" stroke-miterlimit="10"/>
<path d="M349.512 61.5277C349.512 61.5277 350.876 70.0248 350.876 72.6801" stroke="#0C152E" stroke-width="0.5" stroke-miterlimit="10"/>
<path d="M332.306 38.3884C338.794 38.3884 344.054 33.1236 344.054 26.6291C344.054 20.1346 338.794 14.8698 332.306 14.8698C325.817 14.8698 320.557 20.1346 320.557 26.6291C320.557 33.1236 325.817 38.3884 332.306 38.3884Z" fill="white"/>
<path d="M328.439 36.4917C334.958 36.4917 340.188 31.181 340.188 24.7323C340.188 20.8631 338.293 17.4492 335.413 15.249C340.416 16.6146 344.054 21.1666 344.054 26.629C344.054 33.1535 338.748 38.3883 332.305 38.3883C329.652 38.3883 327.227 37.5538 325.256 36.0365C326.317 36.3399 327.378 36.4917 328.439 36.4917Z" fill="#DFE6F2"/>
<path d="M332.306 14.7939C338.825 14.7939 344.055 20.1046 344.055 26.5533C344.055 27.0843 344.055 27.5395 343.979 28.0706C343.297 27.3119 342.084 26.7809 340.265 26.7809C330.866 28.0706 328.971 17.3734 328.971 17.3734C326.545 22.6841 321.694 23.0634 321.088 23.0634C322.604 18.2838 327.076 14.7939 332.306 14.7939Z" fill="#0C152E"/>
<path d="M332.306 38.3884C338.794 38.3884 344.054 33.1236 344.054 26.6291C344.054 20.1346 338.794 14.8698 332.306 14.8698C325.817 14.8698 320.557 20.1346 320.557 26.6291C320.557 33.1236 325.817 38.3884 332.306 38.3884Z" stroke="#0C152E" stroke-width="0.5" stroke-miterlimit="10"/>
<path d="M195.944 26.3257H189.349C173.507 26.3257 160.621 39.223 160.621 55.0791C160.621 70.9352 173.507 83.8326 189.349 83.8326H195.944" fill="#101C3D"/>
<path d="M195.944 26.3257H189.349C173.507 26.3257 160.621 39.223 160.621 55.0791C160.621 70.9352 173.507 83.8326 189.349 83.8326H195.944" stroke="#101C3D" stroke-width="0.5" stroke-miterlimit="10"/>
<path d="M180.403 79.5082H172.672" stroke="#4070F4" stroke-width="0.5" stroke-miterlimit="10"/>
<path d="M173.659 72.756H165.396" stroke="#4070F4" stroke-width="0.5" stroke-miterlimit="10"/>
<path d="M168.806 65.3212H161.15" stroke="#4070F4" stroke-width="0.5" stroke-miterlimit="10"/>
<path d="M167.594 56.9758H159.332" stroke="#4070F4" stroke-width="0.5" stroke-miterlimit="10"/>
<path d="M168.2 48.6305H160.014" stroke="#4070F4" stroke-width="0.5" stroke-miterlimit="10"/>
<path d="M183.436 29.6638H174.871" stroke="#4070F4" stroke-width="0.5" stroke-miterlimit="10"/>
<path d="M176.841 34.8228H167.594" stroke="#4070F4" stroke-width="0.5" stroke-miterlimit="10"/>
<path d="M171.232 41.4231H162.742" stroke="#4070F4" stroke-width="0.5" stroke-miterlimit="10"/>
<path d="M195.943 83.7566C211.809 83.7566 224.671 70.9172 224.671 55.0791C224.671 39.2409 211.809 26.4015 195.943 26.4015C180.077 26.4015 167.215 39.2409 167.215 55.0791C167.215 70.9172 180.077 83.7566 195.943 83.7566Z" fill="#2BD67B"/>
<path d="M195.943 77.915C208.543 77.915 218.758 67.691 218.758 55.0791C218.758 42.4672 208.543 32.2433 195.943 32.2433C183.342 32.2433 173.127 42.4672 173.127 55.0791C173.127 67.691 183.342 77.915 195.943 77.915Z" stroke="#101C3D" stroke-width="0.5" stroke-miterlimit="10"/>
<path d="M196.095 48.0994L203.144 55.0791L196.095 62.1347L189.121 55.0791L196.095 48.0994Z" fill="#101C3D"/>
<path d="M133.407 62.8934C137.928 62.8934 141.593 59.225 141.593 54.6998C141.593 50.1746 137.928 46.5062 133.407 46.5062C128.886 46.5062 125.221 50.1746 125.221 54.6998C125.221 59.225 128.886 62.8934 133.407 62.8934Z" fill="#0C152E"/>
<path d="M132.421 59.6311L133.785 58.1138V58.0379H132.269L130.981 56.5964C130.981 56.5964 130.981 56.5964 130.981 56.5206L133.103 52.879C133.103 52.879 133.103 52.879 133.103 52.8031L132.193 51.2858H132.118L129.01 56.6723C129.01 56.6723 129.01 56.6723 129.01 56.7482L131.511 59.5552L132.421 59.6311Z" fill="#F7F9FB"/>
<path d="M133.406 49.3132L132.496 50.8306C132.496 50.8306 132.496 50.8306 132.496 50.9064L133.406 52.4996L135.831 56.6723C135.831 56.6723 135.831 56.6723 135.831 56.7482L134.543 58.1896L133.178 59.707V59.7828H135.225L137.726 56.9758C137.726 56.9758 137.726 56.9758 137.726 56.8999L133.406 49.3132Z" fill="#F7F9FB"/>
<path d="M250.063 62.8934C254.584 62.8934 258.25 59.225 258.25 54.6998C258.25 50.1746 254.584 46.5062 250.063 46.5062C245.542 46.5062 241.877 50.1746 241.877 54.6998C241.877 59.225 245.542 62.8934 250.063 62.8934Z" fill="#0C152E"/>
<path d="M249.077 59.6311L250.441 58.1138V58.0379H248.925L247.637 56.5964C247.637 56.5964 247.637 56.5964 247.637 56.5206L249.759 52.879C249.759 52.879 249.759 52.879 249.759 52.8031L248.85 51.2858H248.774L245.666 56.6723C245.666 56.6723 245.666 56.6723 245.666 56.7482L248.167 59.5552L249.077 59.6311Z" fill="#F7F9FB"/>
<path d="M249.986 49.3132L249.076 50.8306C249.076 50.8306 249.076 50.8306 249.076 50.9064L249.986 52.4996L252.411 56.6723C252.411 56.6723 252.411 56.6723 252.411 56.7482L251.123 58.1896L249.758 59.707V59.7828H251.805L254.306 56.9758C254.306 56.9758 254.306 56.9758 254.306 56.8999L249.986 49.3132Z" fill="#F7F9FB"/>
</g>
<defs>
<clipPath id="clip0_4728_298216">
<rect width="384" height="116" fill="white"/>
</clipPath>
</defs>
</svg>
