<?xml version="1.0" encoding="UTF-8"?>
<svg width="55px" height="70px" viewBox="0 0 55 70" version="1.1" xmlns="http://www.w3.org/2000/svg" xmlns:xlink="http://www.w3.org/1999/xlink">
    <!-- Generator: sketchtool 55.1 (78136) - https://sketchapp.com -->
    <title>79C96662-E320-4DDE-B2D1-0FDE839E81DC</title>
    <desc>Created with sketchtool.</desc>
    <g id="👫-9.0-Bookmarks" stroke="none" stroke-width="1" fill="none" fill-rule="evenodd">
        <g id="9.2.1-Bookmarks-page---Filtering-no-results" transform="translate(-655.000000, -401.000000)">
            <g id="Group-9" transform="translate(655.000000, 401.000000)">
                <polygon id="Fill-1" fill="#DFE6F1" points="0 0.000178832117 0 61.5150506 0 70.0001788 54.9502555 70.0001788 54.9502555 0.000178832117"></polygon>
                <polygon id="Fill-2" fill="#4070F4" points="38.0424453 12.2926829 48.6098905 12.2926829 48.6098905 -5.68434189e-14 38.0424453 -5.68434189e-14"></polygon>
                <polygon id="Fill-3" fill="#4070F4" points="38.0423686 11.8354927 38.0423686 14.7943978 45.0873321 11.8354927"></polygon>
                <polygon id="Fill-4" fill="#4070F4" points="48.6098905 11.8354927 48.6098905 14.7943978 41.564927 11.8354927"></polygon>
                <polygon id="Fill-5" fill="#4070F4" points="0 57.0637956 54.9502555 57.0637956 54.9502555 54.9502555 0 54.9502555"></polygon>
                <polygon id="Fill-6" fill="#4070F4" points="0 63.4506569 54.9502555 63.4506569 54.9502555 61.3371168 0 61.3371168"></polygon>
                <polygon id="Fill-7" fill="#4070F4" points="0 69.8375182 54.9502555 69.8375182 54.9502555 67.7239781 0 67.7239781"></polygon>
                <polygon id="Fill-8" fill="#4070F4" points="0 69.7445255 2.11354015 69.7445255 2.11354015 54.95 0 54.95"></polygon>
            </g>
        </g>
    </g>
</svg>
