<svg width="385" height="54" viewBox="0 0 385 54" fill="none" xmlns="http://www.w3.org/2000/svg">
<path d="M384.192 2.67725H123.26V52.9998H384.192V2.67725Z" fill="#DFE6F2" stroke="#254898" stroke-miterlimit="10" stroke-linecap="round" stroke-linejoin="round"/>
<path fill-rule="evenodd" clip-rule="evenodd" d="M384.192 52.9998H258.758C244.78 52.9998 233.597 41.817 233.597 27.8385C233.597 13.86 244.78 2.67725 258.758 2.67725H384.192V52.9998Z" fill="#F7F9FB" stroke="#254898" stroke-miterlimit="10" stroke-linecap="round" stroke-linejoin="round"/>
<path d="M257.453 41.4444C264.968 41.4444 271.059 35.3529 271.059 27.8386C271.059 20.3244 264.968 14.2329 257.453 14.2329C249.939 14.2329 243.848 20.3244 243.848 27.8386C243.848 35.3529 249.939 41.4444 257.453 41.4444Z" fill="#4070F4" stroke="#254898" stroke-miterlimit="10" stroke-linecap="round" stroke-linejoin="round"/>
<path d="M212.163 17.2148H145.625V38.4622H212.163V17.2148Z" fill="#C5CFE4" stroke="#254898" stroke-miterlimit="10" stroke-linecap="round" stroke-linejoin="round"/>
<path d="M145.625 1H163.704" stroke="#254898" stroke-miterlimit="10" stroke-linecap="round" stroke-linejoin="round"/>
<path d="M193.898 1H212.163" stroke="#254898" stroke-miterlimit="10" stroke-linecap="round" stroke-linejoin="round"/>
<path d="M122.887 39.3943H96.2347C92.1344 39.3943 88.7795 36.0395 88.7795 31.9391V23.7384C88.7795 19.638 92.1344 16.2832 96.2347 16.2832H123.073L122.887 39.3943Z" fill="#DFE6F2" stroke="#254898" stroke-miterlimit="10" stroke-linecap="round" stroke-linejoin="round"/>
<path d="M0.808228 24.4839H88.7796V31.1936H0.808228" fill="#F7F9FB"/>
<path d="M0.808228 24.4839H88.7796V31.1936H0.808228" stroke="#254898" stroke-miterlimit="10" stroke-linecap="round" stroke-linejoin="round"/>
<path d="M75.1738 24.4839V31.1936" stroke="#254898" stroke-miterlimit="10" stroke-linecap="round" stroke-linejoin="round"/>
<path d="M36.7796 41.4444C44.2938 41.4444 50.3853 35.3529 50.3853 27.8386C50.3853 20.3244 44.2938 14.2329 36.7796 14.2329C29.2654 14.2329 23.1738 20.3244 23.1738 27.8386C23.1738 35.3529 29.2654 41.4444 36.7796 41.4444Z" fill="#4070F4"/>
<path d="M35.2886 20.0107L38.2707 22.0609L36.2205 25.043" stroke="#F7F9FB" stroke-miterlimit="10" stroke-linecap="round" stroke-linejoin="round"/>
<path d="M42.5574 28.0249C42.5574 31.1933 39.9481 33.8027 36.7796 33.8027C33.6112 33.8027 31.0018 31.1933 31.0018 28.0249C31.0018 24.8564 33.6112 22.2471 36.7796 22.2471" stroke="#F7F9FB" stroke-miterlimit="10" stroke-linecap="round" stroke-linejoin="round"/>
</svg>
