<svg width="385" height="54" viewBox="0 0 385 54" fill="none" xmlns="http://www.w3.org/2000/svg">
<path d="M384 2.67773H123.329V53.0003H384V2.67773Z" fill="#DFE6F2" stroke="#0C152E" stroke-miterlimit="10" stroke-linecap="round" stroke-linejoin="round"/>
<path fill-rule="evenodd" clip-rule="evenodd" d="M384 53.0003H258.692C244.727 53.0003 233.556 41.8175 233.556 27.839C233.556 13.8605 244.727 2.67773 258.692 2.67773H384V53.0003Z" fill="#F7F9FB" stroke="#0C152E" stroke-miterlimit="10" stroke-linecap="round" stroke-linejoin="round"/>
<path d="M257.389 41.4448C264.895 41.4448 270.981 35.3534 270.981 27.8391C270.981 20.3249 264.895 14.2334 257.389 14.2334C249.882 14.2334 243.796 20.3249 243.796 27.8391C243.796 35.3534 249.882 41.4448 257.389 41.4448Z" fill="#4070F4" stroke="#0C152E" stroke-miterlimit="10" stroke-linecap="round" stroke-linejoin="round"/>
<path d="M212.143 17.2148H145.672V38.4622H212.143V17.2148Z" fill="#C5CFE4" stroke="#0C152E" stroke-miterlimit="10" stroke-linecap="round" stroke-linejoin="round"/>
<path d="M145.672 1H163.733" stroke="#0C152E" stroke-miterlimit="10" stroke-linecap="round" stroke-linejoin="round"/>
<path d="M193.896 1H212.143" stroke="#0C152E" stroke-miterlimit="10" stroke-linecap="round" stroke-linejoin="round"/>
<path d="M122.957 39.3943H96.331C92.2348 39.3943 88.8833 36.0395 88.8833 31.9391V23.7384C88.8833 19.638 92.2348 16.2832 96.331 16.2832H123.143V39.3943H122.957Z" fill="#DFE6F2" stroke="#0C152E" stroke-miterlimit="10" stroke-linecap="round" stroke-linejoin="round"/>
<path d="M1 24.4834H88.8833V31.1931H1" fill="#F7F9FB"/>
<path d="M1 24.4834H88.8833V31.1931H1" stroke="#0C152E" stroke-miterlimit="10" stroke-linecap="round" stroke-linejoin="round"/>
<path d="M75.291 24.4834V31.1931" stroke="#0C152E" stroke-miterlimit="10" stroke-linecap="round" stroke-linejoin="round"/>
<path d="M36.9354 41.4448C44.4421 41.4448 50.5275 35.3534 50.5275 27.8391C50.5275 20.3249 44.4421 14.2334 36.9354 14.2334C29.4287 14.2334 23.3433 20.3249 23.3433 27.8391C23.3433 35.3534 29.4287 41.4448 36.9354 41.4448Z" fill="#4070F4"/>
<path d="M35.4458 20.0107L38.4249 22.0609L36.3768 25.043" stroke="#F7F9FB" stroke-miterlimit="10" stroke-linecap="round" stroke-linejoin="round"/>
<path d="M42.7076 28.0248C42.7076 31.1933 40.1009 33.8026 36.9356 33.8026C33.7703 33.8026 31.1636 31.1933 31.1636 28.0248C31.1636 24.8564 33.7703 22.2471 36.9356 22.2471" stroke="#F7F9FB" stroke-miterlimit="10" stroke-linecap="round" stroke-linejoin="round"/>
</svg>
