<svg width="294" height="219" viewBox="0 0 294 219" fill="none" xmlns="http://www.w3.org/2000/svg">
<path d="M258.121 177.609V190.521C258.121 195.364 255.314 199.258 251.876 199.258H251.209H204.016V177.609" fill="#F7F9FB"/>
<path d="M244.963 188.451V71.398C244.963 58.8365 234.788 48.6611 222.226 48.6611H219.805C207.244 48.6611 197.068 58.8365 197.068 71.398V188.451" fill="#2D4793"/>
<path d="M244.963 188.451V71.398C244.963 58.8365 234.788 48.6611 222.226 48.6611H219.805C207.244 48.6611 197.068 58.8365 197.068 71.398V188.451" stroke="#0C152E" stroke-miterlimit="10"/>
<path d="M258.12 63.9946H89.2422V110.907H258.12V63.9946Z" fill="#DFE6F2" stroke="#0C152E" stroke-miterlimit="10"/>
<path d="M258.12 48.6611H89.2422V95.5737H258.12V48.6611Z" fill="#F7F9FB" stroke="#0C152E" stroke-miterlimit="10"/>
<path d="M165.771 58.7314H107.314V82.6611H165.771V58.7314Z" fill="#2BD67B"/>
<path d="M258.122 190.135V73.0821C258.122 60.5207 247.946 50.3453 235.385 50.3453H232.964C220.402 50.3453 210.227 60.5207 210.227 73.0821V190.135" fill="#F7F9FB"/>
<path d="M258.122 190.135V73.0821C258.122 60.5207 247.946 50.3453 235.385 50.3453H232.964C220.402 50.3453 210.227 60.5207 210.227 73.0821V190.135" stroke="#0C152E" stroke-miterlimit="10"/>
<path d="M197.139 177.609V190.521C197.139 195.364 199.946 199.258 203.384 199.258H204.051C207.49 199.258 210.297 195.328 210.297 190.521V177.609" fill="#2D4793"/>
<path d="M197.139 177.609V190.521C197.139 195.364 199.946 199.258 203.384 199.258H204.051C207.49 199.258 210.297 195.328 210.297 190.521V177.609" stroke="#0C152E" stroke-miterlimit="10"/>
<path d="M258.121 177.609V190.521C258.121 195.364 255.314 199.258 251.876 199.258H251.209H204.016" stroke="#0C152E" stroke-miterlimit="10"/>
<path d="M234.19 87.8894C242.756 87.8894 249.699 80.9458 249.699 72.3803C249.699 63.8151 242.756 56.8716 234.19 56.8716C225.625 56.8716 218.682 63.8151 218.682 72.3803C218.682 80.9458 225.625 87.8894 234.19 87.8894Z" fill="#DFE6F2"/>
<path d="M125.174 99.2229H107.314V106.24H125.174V99.2229Z" stroke="#0C152E" stroke-miterlimit="10"/>
<path d="M165.77 99.2229H147.91V106.24H165.77V99.2229Z" stroke="#0C152E" stroke-miterlimit="10"/>
<path d="M89.2438 83.8894H79.1387V90.521H89.2438V83.8894Z" fill="#DFE6F2" stroke="#0C152E" stroke-miterlimit="10"/>
<path d="M89.2438 65.3982H79.1387V83.8543H89.2438V65.3982Z" fill="#F7F9FB" stroke="#0C152E" stroke-miterlimit="10"/>
<path d="M22.0508 85.293H79.1388V72.1349H22.0508" fill="white"/>
<path d="M22.0508 85.293H79.1388V72.1349H22.0508" stroke="#0C152E" stroke-miterlimit="10"/>
<mask id="mask0_4728_295422" style="mask-type:luminance" maskUnits="userSpaceOnUse" x="128" y="83" width="64" height="65">
<path d="M159.805 147.012C177.246 147.012 191.385 132.874 191.385 115.433C191.385 97.9927 177.246 83.8542 159.805 83.8542C142.365 83.8542 128.227 97.9927 128.227 115.433C128.227 132.874 142.365 147.012 159.805 147.012Z" fill="white"/>
</mask>
<g mask="url(#mask0_4728_295422)">
<path d="M278.295 70.1699H80.7168V125.047H278.295V70.1699Z" fill="#DFE6F2" stroke="#0C152E" stroke-miterlimit="10"/>
<path d="M278.295 52.2048H80.7168V107.082H278.295V52.2048Z" fill="#F7F9FB" stroke="#0C152E" stroke-miterlimit="10"/>
<path d="M170.226 63.9594H101.84V91.9593H170.226V63.9594Z" fill="#2BD67B"/>
<path d="M170.227 111.363H149.35V119.574H170.227V111.363Z" stroke="#0C152E" stroke-miterlimit="10"/>
</g>
<path d="M159.805 147.012C177.246 147.012 191.385 132.874 191.385 115.433C191.385 97.9927 177.246 83.8542 159.805 83.8542C142.365 83.8542 128.227 97.9927 128.227 115.433C128.227 132.874 142.365 147.012 159.805 147.012Z" stroke="white" stroke-miterlimit="10"/>
</svg>
