<svg width="316" height="224" viewBox="0 0 316 224" fill="none" xmlns="http://www.w3.org/2000/svg">
<rect x="133.52" y="50.7002" width="42.59" height="4.94" fill="#4070F4"/>
<rect x="211.73" y="50.7002" width="42.59" height="4.94" fill="#9999A0"/>
<path d="M107.81 112.16H307.83V58.3501H80.01V99.6601H106.96" stroke="#254898" stroke-linejoin="round"/>
<rect x="121.26" y="67.3901" width="127.35" height="35.74" fill="#1B1B1B" stroke="#254898" stroke-linejoin="round"/>
<path fill-rule="evenodd" clip-rule="evenodd" d="M207 95H227V75H207V95Z" fill="#FF4557"/>
<path fill-rule="evenodd" clip-rule="evenodd" d="M223.872 79.2878C224.172 79.0019 224.172 78.5384 223.872 78.2525C223.572 77.9666 223.086 77.9666 222.786 78.2525L216.797 83.9646L211.35 78.7694C211.051 78.4836 210.565 78.4836 210.265 78.7694C209.965 79.0553 209.965 79.5188 210.265 79.8047L215.712 84.9999L210.265 90.195C209.965 90.4809 209.965 90.9444 210.265 91.2303C210.565 91.5162 211.051 91.5162 211.35 91.2303L216.797 86.0351L222.786 91.7472C223.086 92.0331 223.572 92.0331 223.872 91.7472C224.172 91.4614 224.172 90.9979 223.872 90.712L217.883 84.9999L223.872 79.2878Z" fill="white"/>
<rect x="131" y="88" width="65" height="8" fill="#9999A0"/>
<path d="M144.298 185.429L260.214 69.5127C270.465 59.2614 287.085 59.2614 297.337 69.5127V69.5127C302.263 74.4349 305.031 81.1127 305.032 88.0763C305.034 95.04 302.268 101.719 297.344 106.643L181.428 222.559L144.298 185.429Z" fill="black" stroke="#254898" stroke-linejoin="round"/>
<path fill-rule="evenodd" clip-rule="evenodd" d="M278.83 103.13C286.728 103.13 293.13 96.7275 293.13 88.8298C293.13 80.9321 286.728 74.5298 278.83 74.5298C270.932 74.5298 264.53 80.9321 264.53 88.8298C264.53 96.7275 270.932 103.13 278.83 103.13Z" stroke="#254898" stroke-linejoin="round"/>
<path d="M64.63 32.78C73.5439 32.78 80.77 25.5539 80.77 16.64C80.77 7.72612 73.5439 0.5 64.63 0.5C55.7161 0.5 48.49 7.72612 48.49 16.64C48.49 25.5539 55.7161 32.78 64.63 32.78Z" fill="white" stroke="#0C152E" stroke-linejoin="round"/>
<path d="M21.52 101.44V120.81H33.18C27.6824 115.471 23.6647 108.797 21.52 101.44L21.52 101.44Z" fill="#05DD8F"/>
<path d="M47.81 85H21.52V100.32L32.24 102.85L34.22 97.59L47.81 85V85Z" fill="#101C3D"/>
<path d="M53.4701 79.7598L47.8101 84.9998H51.5501L53.4701 79.7598V79.7598Z" fill="#101C3D"/>
<path d="M51.55 85H47.81L34.22 97.59L32.22 102.85L38.22 104.26C40.15 104.71 42.1 105.11 44.05 105.46L45.63 101.15L51.55 85Z" fill="#00B071"/>
<path d="M21.68 96.52L13.2 149.66H71.03L72.15 142.44" stroke="#9999A0" stroke-linejoin="round"/>
<path d="M120.18 88.3298C113.39 88.3298 103.18 84.0398 84.18 74.9998C81.69 73.8098 78.65 72.3698 77.33 71.7998C72.1245 70.4653 68.5013 65.7512 68.551 60.3775C68.6008 55.0039 72.3107 50.3577 77.54 49.1198C81.96 48.1198 84.07 49.1198 94.22 53.9098C99.53 56.4298 112.55 62.6298 118.56 64.4898C121.56 61.7998 126.73 55.7598 130.01 51.9098C140.14 39.9998 146.84 32.1198 155.66 32.1198C161.593 32.0077 166.667 36.3616 167.457 42.2425C168.247 48.1234 164.502 53.6621 158.75 55.1198C156.29 57.1198 151.24 63.0598 147.8 67.1198C136.23 80.6398 129.24 88.3298 120.18 88.3298Z" fill="black" stroke="#9999A0" stroke-linejoin="round"/>
<path fill-rule="evenodd" clip-rule="evenodd" d="M120.18 88.3298C113.39 88.3298 103.18 84.0398 84.18 74.9998C81.69 73.8098 78.65 72.3698 77.33 71.7998C72.1245 70.4653 68.5013 65.7512 68.551 60.3775C68.6008 55.0039 72.3107 50.3577 77.54 49.1198C81.96 48.1198 84.07 49.1198 94.22 53.9098C99.53 56.4298 112.55 62.6298 118.56 64.4898C121.56 61.7998 126.73 55.7598 130.01 51.9098C140.14 39.9998 146.84 32.1198 155.66 32.1198C161.593 32.0077 166.667 36.3616 167.457 42.2425C168.247 48.1234 164.502 53.6621 158.75 55.1198C156.29 57.1198 151.24 63.0598 147.8 67.1198C136.23 80.6398 129.24 88.3298 120.18 88.3298Z" stroke="#9999A0" stroke-linejoin="round"/>
<path d="M109.28 149.66L105.96 99.6602" stroke="#9999A0" stroke-linejoin="round"/>
<path d="M79.9299 45.3301L111.29 61.1401L109.93 89.1801L100.92 88.0201" fill="#05DD8F"/>
<path d="M106.62 85C106.62 84.94 106.62 84.89 106.62 84.83C106.264 61.5819 87.3159 42.9224 64.065 42.9224C40.8141 42.9224 21.8664 61.5819 21.51 84.83V85H106.62Z" fill="#05DD8F"/>
<path d="M38.22 104.26C55.4688 108.319 73.4284 108.281 90.66 104.15L106.66 100.32V85H21.52V100.32L38.22 104.26Z" fill="#05DD8F"/>
<path d="M106.62 85.0002C106.62 84.9402 106.62 84.8902 106.62 84.8302C106.644 72.1303 100.983 60.0861 91.19 52.0002C87.9004 49.687 84.3106 47.8333 80.52 46.4902L100.92 88.0002L106.63 88.7402V85.0002H106.62Z" fill="#05DD8F"/>
<path d="M109.88 83.2998C109.88 83.3598 109.88 83.4198 109.88 83.4698V83.4698L110.09 85.2898L111.26 61.1398L86.23 48.5098C87.9795 49.5644 89.6505 50.7442 91.23 52.0398C101.625 59.319 108.412 70.6949 109.88 83.2998V83.2998Z" fill="#05DD8F"/>
<path d="M21.52 84.8301C21.52 83.4901 21.59 82.1701 21.71 80.8301C20.9626 85.093 20.8413 89.4421 21.35 93.7401V93.9201L21.49 95.1201V84.8301H21.52Z" fill="#254898"/>
<path d="M109.9 83.47C109.9 83.47 109.9 83.36 109.9 83.3C108.428 70.6705 101.617 59.2763 91.1899 52C100.976 60.075 106.64 72.1024 106.63 84.79C106.63 84.85 106.63 84.9 106.63 84.96V84.96V88.72L109.93 89.14L110.12 85.25L109.91 83.43L109.9 83.47Z" fill="#00B071"/>
<path d="M21.52 129.16H25.55L21.52 95.1602V129.16V129.16Z" fill="#05DD8F"/>
<path d="M60.38 44.2801C67.1769 43.4606 74.0714 44.2308 80.52 46.5301L79.93 45.3401C67.4672 40.3407 53.3759 41.516 41.9137 48.5111C30.4514 55.5062 22.9626 67.5005 21.71 80.8701C25.0968 61.4676 40.82 46.5902 60.38 44.2801Z" fill="#05DD8F"/>
<path d="M80 45.3701L86.22 48.5101C84.2369 47.2935 82.1565 46.2433 80 45.3701V45.3701Z" fill="#05DD8F"/>
<path d="M91.1899 52.0001C89.6105 50.7045 87.9395 49.5248 86.1899 48.4701L79.9999 45.3701H79.9199L80.5099 46.5601C84.3003 47.8805 87.8932 49.7106 91.1899 52.0001Z" fill="#05DD8F"/>
<path d="M61.4 0.819824C55.0268 4.43353 51.8872 11.8865 53.7534 18.9712C55.6196 26.0558 62.0236 30.9948 69.35 30.9998C70.4346 31.0008 71.5166 30.8936 72.58 30.6798C67.0334 33.8187 60.1591 33.3999 55.0347 29.6108C49.9103 25.8216 47.4954 19.3719 48.8712 13.149C50.247 6.92613 55.1558 2.09552 61.4 0.819824Z" fill="#EDF0F5"/>
<path d="M63.6201 45.3301C68.5962 45.3301 72.6301 44.5421 72.6301 43.5701C72.6301 42.598 68.5962 41.8101 63.6201 41.8101C58.644 41.8101 54.6101 42.598 54.6101 43.5701C54.6101 44.5421 58.644 45.3301 63.6201 45.3301Z" fill="#00B071"/>
<path d="M34.5699 154.12C34.1858 154.12 33.802 154.1 33.4199 154.06C27.4692 153.481 22.9185 148.499 22.8799 142.52C22.1999 139.76 18.6199 132.15 16.4399 127.52C11.2699 116.52 8.56995 110.52 8.56995 105.45C8.56995 101.18 10.2599 95.7601 18.8799 80.7201C23.3299 72.9401 27.7199 66.0101 27.8799 65.7201C30.1129 62.1939 34.0574 60.1268 38.2276 60.2974C42.3978 60.4681 46.1603 62.8505 48.0976 66.5474C50.0349 70.2443 49.8529 74.6939 47.6199 78.2201C41.3899 88.0601 34.2299 100.57 32.2299 105.59C33.2299 108.42 35.7899 113.8 37.5599 117.59C43.6199 130.47 46.7599 137.48 46.1599 143.59C45.5699 149.554 40.5625 154.103 34.5699 154.12Z" fill="black" stroke="#9999A0" stroke-linejoin="round"/>
<path fill-rule="evenodd" clip-rule="evenodd" d="M34.5699 154.12C34.1858 154.12 33.802 154.1 33.4199 154.06C27.4692 153.481 22.9185 148.499 22.8799 142.52C22.1999 139.76 18.6199 132.15 16.4399 127.52C11.2699 116.52 8.56995 110.52 8.56995 105.45C8.56995 101.18 10.2599 95.7601 18.8799 80.7201C23.3299 72.9401 27.7199 66.0101 27.8799 65.7201C30.1129 62.1939 34.0574 60.1268 38.2276 60.2974C42.3978 60.4681 46.1603 62.8505 48.0976 66.5474C50.0349 70.2443 49.8529 74.6939 47.6199 78.2201C41.3899 88.0601 34.2299 100.57 32.2299 105.59C33.2299 108.42 35.7899 113.8 37.5599 117.59C43.6199 130.47 46.7599 137.48 46.1599 143.59C45.5699 149.554 40.5625 154.103 34.5699 154.12Z" stroke="#9999A0" stroke-linejoin="round"/>
<path d="M34.56 54.3501L12.79 81.4901L38.5 98.9501L59.74 69.4901" fill="#05DD8F"/>
<path fill-rule="evenodd" clip-rule="evenodd" d="M64.63 32.78C73.5439 32.78 80.77 25.5539 80.77 16.64C80.77 7.72612 73.5439 0.5 64.63 0.5C55.7161 0.5 48.49 7.72612 48.49 16.64C48.49 25.5539 55.7161 32.78 64.63 32.78Z" stroke="#0C152E" stroke-linejoin="round"/>
<path d="M43.74 149.66H162.72" stroke="#9999A0" stroke-linejoin="round"/>
<path d="M0 149.66H25.28" stroke="#9999A0" stroke-linejoin="round"/>
</svg>
