<svg xmlns="http://www.w3.org/2000/svg" width="257" height="205" viewBox="0 0 257 205">
    <g fill="none" fill-rule="evenodd">
        <path stroke="#0C152E" stroke-linejoin="round" d="M112.29 108.05V7.65A7.15 7.15 0 0 1 119.44.5h129.08a7.15 7.15 0 0 1 7.15 7.15v108.58A80.66 80.66 0 0 1 239 165.36l-29.81 38.83h-50.4L129 165.36a80.87 80.87 0 0 1-8.57-13.87c-.27-.55-.53-1.1-.78-1.66"/>
        <path fill="#FFF" stroke="#0C152E" stroke-linejoin="round" d="M130.28 22.3h106.8v103.12h-106.8z"/>
        <path fill="#FF4557" fill-rule="nonzero" d="M141.51 91.4h38.71v11.24h-38.71z"/>
        <path fill="#05DD8F" fill-rule="nonzero" d="M187.14 91.4h38.71v11.24h-38.71z"/>
        <path fill="#EDF0F5" fill-rule="nonzero" d="M79.33 91.06c1.93-6.15 29 6 29 6l15.61 5.62s24.17-5.76 29-7.4C165.21 91 174 88 181 89.73c-6.86-1.8-15.71.78-28 4.39-4.86 1.42-28.84 4-28.84 4l-13.47-5.25S82 80.64 79.75 86.7c-1.07 3-2.19 7.4-1.79 10.86a34.36 34.36 0 0 1 1.37-6.5z"/>
        <path fill="#FFF" fill-rule="nonzero" stroke="#101C3D" stroke-linejoin="round" d="M138.92 119.21c-5.63 1.11-14.15 3.14-19.39.78-13.53-6.1-39.53-17.86-40.11-18.74-2.83-3.11-1.2-10.33.33-14.55 2.2-6.06 31 6.18 31 6.18l13.47 5.25s24-2.59 28.84-4c14.66-4.31 19.94-7.84 27.27-3.47a11.68 11.68 0 0 1-9.47 21.22c-2.3.22-18.07 4.59-31.94 7.33z"/>
        <path fill="#EDF0F5" fill-rule="nonzero" d="M79.33 91.06c1.93-6.15 29 6 29 6l15.61 5.62s24.17-5.76 29-7.4C165.21 91 174 88 181 89.73c-6.86-1.8-15.71.78-28 4.39-4.86 1.42-28.84 4-28.84 4l-13.47-5.25S82 80.64 79.75 86.7c-1.07 3-2.19 7.4-1.79 10.86a34.36 34.36 0 0 1 1.37-6.5z"/>
        <path stroke="#101C3D" stroke-linejoin="round" d="M138.92 119.21c-5.63 1.11-14.15 3.14-19.39.78-13.53-6.1-39.53-17.86-40.11-18.74-2.83-3.11-1.2-10.33.33-14.55 2.2-6.06 31 6.18 31 6.18l13.47 5.25s24-2.59 28.84-4c14.66-4.31 19.94-7.84 27.27-3.47a11.68 11.68 0 0 1-9.47 21.22c-2.3.22-18.07 4.59-31.94 7.33z"/>
        <path fill="#05DD8F" fill-rule="nonzero" d="M79.96 75.82l31.36 15.81-1.36 28.04-9.01-1.16M80 75.82h.08z"/>
        <path fill="#05DD8F" fill-rule="nonzero" d="M106.65 115.49v-.17a42.46 42.46 0 0 0-15.43-32.79A44.6 44.6 0 0 0 80.55 77L101 118.51l5.7.74v-3.76h-.05z"/>
        <path fill="#05DD8F" fill-rule="nonzero" d="M109.91 113.79v.17l.22 1.82 1.17-24.15L86.26 79a42.4 42.4 0 0 1 5 3.53 44.44 44.44 0 0 1 18.65 31.26z"/>
        <path fill="#101C3D" fill-rule="nonzero" d="M109.93 114v-.17a44.44 44.44 0 0 0-18.71-31.3 42.46 42.46 0 0 1 15.43 32.79V119.25l3.31.42.19-3.89-.22-1.82v.04z"/>
        <path fill="#05DD8F" fill-rule="nonzero" d="M80 75.86L86.26 79A42.14 42.14 0 0 0 80 75.86zM91.22 82.53a42.4 42.4 0 0 0-5-3.53L80 75.86h-.08l.63 1.14a44.6 44.6 0 0 1 10.67 5.53z"/>
        <path stroke="#101C3D" stroke-linejoin="round" d="M0 180.15h125.72"/>
        <path fill="#EDF0F5" fill-rule="nonzero" d="M141.51 32.84h84.33v3.84h-84.33zM141.51 39.91h29.72v3.84h-29.72zM176 112.65h-.06c1.057.28 2.147.41 3.24.39a11.52 11.52 0 0 1-3.18-.39zM179.47 113.06h.56-.56z"/>
        <circle cx="65.62" cy="47.13" r="16.14" fill="#FFF" fill-rule="nonzero" stroke="#0C152E" stroke-linejoin="round"/>
        <path fill="#05DD8F" fill-rule="nonzero" d="M39.21 134.75a113.46 113.46 0 0 0 52.44-.11l16-3.83v-15.32H22.51v15.32l16.7 3.94zM22.51 131.93v19.37h11.66a44.27 44.27 0 0 1-11.66-19.37z"/>
        <path fill="#101C3D" fill-rule="nonzero" d="M48.8 115.49H22.51v15.32l10.72 2.53 1.97-5.26zM54.46 110.25l-5.66 5.24h3.74z"/>
        <path fill="#101C3D" fill-rule="nonzero" d="M52.54 115.49H48.8l-13.6 12.59-2 5.26 6 1.41a125.1 125.1 0 0 0 5.82 1.2l1.59-4.31 5.93-16.15z"/>
        <path stroke="#101C3D" stroke-linejoin="round" d="M22.67 127.01l-8.48 53.14h57.83l1.12-7.22"/>
        <path fill="#05DD8F" fill-rule="nonzero" d="M107.61 115.49v-.17c-.356-23.248-19.304-41.908-42.555-41.908-23.25 0-42.199 18.66-42.555 41.908v.17h85.11z"/>
        <path d="M107.61 119.25l-5.7-.74L81.5 77a44.59 44.59 0 0 0-58.81 34.34c-.12 1.3-.19 2.62-.19 4v10.33l4 34h81.08l.03-40.42z"/>
        <path fill="#05DD8F" fill-rule="nonzero" d="M80.92 75.82H81zM107.61 115.49v-.17a42.46 42.46 0 0 0-15.43-32.79A44.48 44.48 0 0 0 81.5 77l20.41 41.49 5.7.74v-3.76.02z"/>
        <path fill="#254898" fill-rule="nonzero" d="M22.5 115.32c0-1.34.07-2.66.19-4a44.84 44.84 0 0 0-.35 12.91 1.1 1.1 0 0 1 0 .18l.15 1.2v-10.12c.02-.06.01-.11.01-.17z"/>
        <path fill="#05DD8F" fill-rule="nonzero" d="M22.51 159.65h4.02l-4.02-34zM61.36 74.77A44.19 44.19 0 0 1 81.5 77l-.58-1.19a42.57 42.57 0 0 0-58.23 35.53c3.4-19.391 19.12-34.256 38.67-36.57zM81 75.86L87.22 79A42.14 42.14 0 0 0 81 75.86z"/>
        <path fill="#05DD8F" fill-rule="nonzero" d="M92.18 82.53a42.4 42.4 0 0 0-5-3.53L81 75.86h-.08L81.5 77a44.48 44.48 0 0 1 10.68 5.53z"/>
        <path stroke="#101C3D" stroke-linejoin="round" d="M89.14 180.15h22.13l-3.32-50"/>
        <path fill="#EDF0F5" fill-rule="nonzero" d="M62.39 31.31a16.15 16.15 0 0 0 11.18 29.87 16.14 16.14 0 1 1-11.18-29.87z"/>
        <ellipse cx="64.61" cy="74.06" fill="#101C3D" fill-rule="nonzero" rx="9.01" ry="1.76"/>
        <path fill="#FFF" fill-rule="nonzero" stroke="#101C3D" stroke-linejoin="round" d="M35.56 184.61c-.384 0-.768-.02-1.15-.06A11.69 11.69 0 0 1 23.86 173c-.67-2.76-4.26-10.37-6.43-15-5.17-11-7.87-17-7.87-22.07 0-4.27 1.69-9.69 10.31-24.73 4.45-7.78 8.83-14.71 9-15a11.682 11.682 0 1 1 19.74 12.5c-6.23 9.84-13.39 22.35-15.4 27.37 1 2.83 3.56 8.21 5.34 12 6.06 12.88 9.2 19.89 8.6 26a11.68 11.68 0 0 1-11.59 10.54z"/>
        <path fill="#EDF0F5" fill-rule="nonzero" d="M45 92.6a11.41 11.41 0 0 0-2.81-1.28 11.66 11.66 0 0 1 3 15.65c-6.23 9.84-13.39 22.35-15.39 27.38 1 2.83 3.56 8.21 5.33 12 6.06 12.88 9.2 19.89 8.6 26a11.68 11.68 0 0 1-11.61 10.54c-.384 0-.768-.02-1.15-.06a11.57 11.57 0 0 1-2.3-.46 11.63 11.63 0 0 0 5.77 2.21c.382.04.766.06 1.15.06a11.68 11.68 0 0 0 11.61-10.55c.6-6.1-2.54-13.11-8.6-26-1.78-3.77-4.31-9.15-5.34-12 2-5 9.17-17.53 15.4-27.37A11.68 11.68 0 0 0 45 92.6z"/>
        <path stroke="#101C3D" stroke-linejoin="round" d="M35.56 184.61c-.384 0-.768-.02-1.15-.06A11.69 11.69 0 0 1 23.86 173c-.67-2.76-4.26-10.37-6.43-15-5.17-11-7.87-17-7.87-22.07 0-4.27 1.69-9.69 10.31-24.73 4.45-7.78 8.83-14.71 9-15a11.682 11.682 0 1 1 19.74 12.5c-6.23 9.84-13.39 22.35-15.4 27.37 1 2.83 3.56 8.21 5.34 12 6.06 12.88 9.2 19.89 8.6 26a11.68 11.68 0 0 1-11.59 10.54z"/>
        <path fill="#05DD8F" fill-rule="nonzero" d="M35.55 84.84l-21.77 27.14 25.71 17.46 21.23-29.46"/>
        <circle cx="65.62" cy="47.13" r="16.14" stroke="#0C152E" stroke-linejoin="round"/>
    </g>
</svg>
