<svg width="212" height="70" viewBox="0 0 212 70" fill="none" xmlns="http://www.w3.org/2000/svg">
<g clip-path="url(#clip0)">
<path d="M158.852 67.5068H65.1061V63.3426H155.014V9.85352H158.852V67.5068Z" fill="#9999A0"/>
<path d="M155.016 0.148438H58.0908V63.3426H155.016V0.148438Z" fill="#F7F9FB"/>
<path d="M155.165 7.90267H57.9419V0H155.165V7.90267ZM58.2397 7.60557H154.867V0.297093H58.2397V7.60557Z" fill="#9999A0"/>
<path d="M149.029 5.8773C148.594 5.8773 148.169 5.74866 147.807 5.50763C147.445 5.2666 147.163 4.92401 146.997 4.5232C146.83 4.12238 146.787 3.68134 146.872 3.25583C146.957 2.83033 147.166 2.43948 147.474 2.13271C147.781 1.82593 148.173 1.61702 148.6 1.53238C149.026 1.44775 149.469 1.49118 149.871 1.65721C150.272 1.82323 150.616 2.10438 150.858 2.46511C151.099 2.82583 151.228 3.24993 151.228 3.68377C151.228 4.26553 150.997 4.82346 150.584 5.23483C150.172 5.6462 149.612 5.8773 149.029 5.8773ZM149.029 1.78733C148.653 1.78733 148.285 1.89855 147.972 2.10694C147.66 2.31532 147.416 2.6115 147.272 2.95803C147.128 3.30456 147.09 3.68587 147.164 4.05375C147.237 4.42162 147.418 4.75953 147.684 5.02476C147.95 5.28998 148.289 5.4706 148.658 5.54377C149.027 5.61695 149.409 5.57939 149.757 5.43585C150.104 5.29232 150.401 5.04924 150.61 4.73738C150.819 4.42551 150.93 4.05885 150.93 3.68377C150.93 3.181 150.729 2.69902 150.373 2.34351C150.016 1.988 149.533 1.78798 149.029 1.78733Z" fill="#9999A0"/>
<path d="M187.871 57.7969H165.445V62.7831H187.871V57.7969Z" fill="#1C1C1E"/>
<path d="M203.652 45.6162H193.228V50.6024H203.652V45.6162Z" fill="#1C1C1E"/>
<path d="M12.087 65.0137H5.28015V69.9999H12.087V65.0137Z" fill="#1C1C1E"/>
<path d="M2.5296 65.0137H0V69.9999H2.5296V65.0137Z" fill="#1C1C1E"/>
<path d="M45.9148 17.8481H26.8299V22.8344H45.9148V17.8481Z" fill="#1C1C1E"/>
<path d="M123.458 46.2077L112.247 35.0246L123.458 23.844L119.947 20.3408L108.734 31.5239L97.5238 20.3408L94.0112 23.844L105.224 35.0246L94.0112 46.2077L97.5238 49.7084L108.734 38.5254L119.947 49.7084L123.458 46.2077Z" fill="#4070F4"/>
<path d="M212.003 45.6162H205.6V50.6024H212.003V45.6162Z" fill="#1C1C1E"/>
</g>
<defs>
<clipPath id="clip0">
<rect width="212" height="70" fill="white"/>
</clipPath>
</defs>
</svg>
