<svg width="379" height="187" viewBox="0 0 379 187" fill="none" xmlns="http://www.w3.org/2000/svg">
<path d="M255.531 95.1885C255.635 94.7876 255.395 94.3782 254.994 94.2741L248.46 92.5773C248.06 92.4732 247.65 92.7138 247.546 93.1147C247.442 93.5156 247.683 93.9251 248.083 94.0292L253.891 95.5374L252.383 101.345C252.278 101.746 252.519 102.155 252.92 102.259C253.321 102.363 253.73 102.123 253.834 101.722L255.531 95.1885ZM199.009 127.79L198.549 128.383L198.951 128.694L199.389 128.437L199.009 127.79ZM178 111.5L178.46 110.907L178.049 110.589L177.607 110.861L178 111.5ZM131.996 138.906L123.732 139.784L128.268 147.162L132.782 140.184L131.996 138.906ZM128.993 142.513L130.726 141.448L129.941 140.17L128.207 141.236L128.993 142.513ZM132.459 140.382L134.193 139.316L133.407 138.038L131.674 139.104L132.459 140.382ZM135.926 138.25L137.659 137.184L136.874 135.907L135.141 136.972L135.926 138.25ZM139.393 136.119L141.126 135.053L140.34 133.775L138.607 134.841L139.393 136.119ZM142.859 133.987L144.593 132.921L143.807 131.644L142.074 132.709L142.859 133.987ZM146.326 131.856L148.059 130.79L147.274 129.512L145.54 130.578L146.326 131.856ZM149.793 129.724L151.526 128.658L150.74 127.381L149.007 128.446L149.793 129.724ZM153.259 127.593L154.993 126.527L154.207 125.249L152.474 126.315L153.259 127.593ZM156.726 125.461L158.459 124.395L157.674 123.117L155.94 124.183L156.726 125.461ZM160.193 123.329L161.926 122.264L161.14 120.986L159.407 122.052L160.193 123.329ZM163.659 121.198L165.393 120.132L164.607 118.854L162.874 119.92L163.659 121.198ZM167.126 119.066L168.859 118.001L168.074 116.723L166.34 117.789L167.126 119.066ZM170.593 116.935L172.326 115.869L171.54 114.591L169.807 115.657L170.593 116.935ZM174.059 114.803L175.793 113.738L175.007 112.46L173.274 113.526L174.059 114.803ZM177.526 112.672L178.393 112.139L177.607 110.861L176.74 111.394L177.526 112.672ZM177.54 112.093L178.291 112.674L179.21 111.489L178.46 110.907L177.54 112.093ZM179.791 113.838L181.292 115.002L182.211 113.816L180.711 112.653L179.791 113.838ZM182.793 116.165L184.293 117.329L185.212 116.143L183.712 114.98L182.793 116.165ZM185.794 118.492L187.294 119.656L188.214 118.47L186.713 117.307L185.794 118.492ZM188.795 120.819L190.296 121.983L191.215 120.798L189.714 119.634L188.795 120.819ZM191.796 123.147L193.297 124.31L194.216 123.125L192.715 121.961L191.796 123.147ZM194.798 125.474L196.298 126.637L197.217 125.452L195.717 124.288L194.798 125.474ZM197.799 127.801L198.549 128.383L199.468 127.197L198.718 126.615L197.799 127.801ZM199.389 128.437L200.261 127.924L199.501 126.631L198.629 127.143L199.389 128.437ZM202.004 126.9L203.748 125.875L202.988 124.582L201.244 125.606L202.004 126.9ZM205.491 124.85L207.235 123.825L206.475 122.532L204.731 123.557L205.491 124.85ZM208.979 122.801L210.722 121.776L209.962 120.483L208.219 121.508L208.979 122.801ZM212.466 120.751L214.21 119.727L213.45 118.434L211.706 119.458L212.466 120.751ZM215.953 118.702L217.697 117.677L216.937 116.384L215.193 117.409L215.953 118.702ZM219.441 116.653L221.184 115.628L220.424 114.335L218.681 115.359L219.441 116.653ZM222.928 114.603L224.672 113.579L223.912 112.285L222.168 113.31L222.928 114.603ZM226.415 112.554L228.159 111.529L227.399 110.236L225.655 111.261L226.415 112.554ZM229.902 110.505L231.646 109.48L230.886 108.187L229.142 109.211L229.902 110.505ZM233.39 108.455L235.133 107.43L234.373 106.137L232.63 107.162L233.39 108.455ZM236.877 106.406L238.621 105.381L237.861 104.088L236.117 105.113L236.877 106.406ZM240.364 104.356L242.108 103.332L241.348 102.039L239.604 103.063L240.364 104.356ZM243.852 102.307L245.595 101.282L244.835 99.9892L243.092 101.014L243.852 102.307ZM247.339 100.258L249.082 99.233L248.323 97.9398L246.579 98.9645L247.339 100.258ZM250.826 98.2083L252.57 97.1836L251.81 95.8904L250.066 96.9151L250.826 98.2083ZM254.313 96.1589L255.185 95.6466L254.425 94.3534L253.553 94.8657L254.313 96.1589Z" fill="black"/>
<mask id="path-2-inside-1_8409_225900" fill="white">
<path d="M118.047 138.985V153.549L58.6836 187L0 153.094V138.576"/>
</mask>
<path d="M118.047 138.985V153.549L58.6836 187L0 153.094V138.576" fill="white"/>
<path d="M118.047 153.549L118.538 154.42L119.047 154.133V153.549H118.047ZM58.6836 187L58.1834 187.865L58.6774 188.151L59.1745 187.871L58.6836 187ZM0 153.094H-1V153.671L-0.500275 153.96L0 153.094ZM117.047 138.985V153.549H119.047V138.985H117.047ZM117.557 152.678L58.1927 186.128L59.1745 187.871L118.538 154.42L117.557 152.678ZM59.1839 186.134L0.500275 152.228L-0.500275 153.96L58.1834 187.865L59.1839 186.134ZM1 153.094V138.576H-1V153.094H1Z" fill="black" mask="url(#path-2-inside-1_8409_225900)"/>
<path d="M58.6836 185.594V171.076" stroke="black" stroke-miterlimit="10"/>
<path d="M117.03 138.986L58.6866 171.906L1.00945 138.582L58.7287 106.109L117.03 138.986Z" fill="#8A8CA2" stroke="black" stroke-miterlimit="10"/>
<mask id="path-6-inside-2_8409_225900" fill="white">
<path d="M118.047 116.275V130.793L58.6836 164.244L0 130.338V115.82"/>
</mask>
<path d="M118.047 116.275V130.793L58.6836 164.244L0 130.338V115.82" fill="#F7F9FB"/>
<path d="M118.047 130.793L118.538 131.665L119.047 131.378V130.793H118.047ZM58.6836 164.244L58.1834 165.11L58.6774 165.396L59.1745 165.115L58.6836 164.244ZM0 130.338H-1V130.916L-0.500275 131.204L0 130.338ZM117.047 116.275V130.793H119.047V116.275H117.047ZM117.557 129.922L58.1927 163.373L59.1745 165.115L118.538 131.665L117.557 129.922ZM59.1839 163.378L0.500275 129.473L-0.500275 131.204L58.1834 165.11L59.1839 163.378ZM1 130.338V115.82H-1V130.338H1Z" fill="black" mask="url(#path-6-inside-2_8409_225900)"/>
<path d="M58.6836 162.838V148.32" stroke="black" stroke-miterlimit="10"/>
<path d="M117.029 116.275L58.6867 149.151L1.00997 115.826L58.7285 83.3985L117.029 116.275Z" fill="#8A8CA2" stroke="black" stroke-miterlimit="10"/>
<mask id="path-10-inside-3_8409_225900" fill="white">
<path d="M118.047 93.8838V108.402L58.6836 141.898L0 107.992V93.4287"/>
</mask>
<path d="M118.047 93.8838V108.402L58.6836 141.898L0 107.992V93.4287" fill="white"/>
<path d="M118.047 108.402L118.539 109.273L119.047 108.986V108.402H118.047ZM58.6836 141.898L58.1834 142.764L58.6778 143.05L59.175 142.769L58.6836 141.898ZM0 107.992H-1V108.569L-0.500275 108.858L0 107.992ZM117.047 93.8838V108.402H119.047V93.8838H117.047ZM117.556 107.531L58.1922 141.027L59.175 142.769L118.539 109.273L117.556 107.531ZM59.1839 141.032L0.500275 107.126L-0.500275 108.858L58.1834 142.764L59.1839 141.032ZM1 107.992V93.4287H-1V107.992H1Z" fill="black" mask="url(#path-10-inside-3_8409_225900)"/>
<path d="M58.6836 140.492V125.928" stroke="black" stroke-miterlimit="10"/>
<path d="M117.029 93.8837L58.6867 126.759L1.00997 93.4348L58.7285 61.0069L117.029 93.8837Z" fill="white" stroke="black" stroke-miterlimit="10"/>
<mask id="path-14-inside-4_8409_225900" fill="white">
<path d="M379 78.5977V93.1158L319.636 126.567L260.952 92.6607V78.1426"/>
</mask>
<path d="M379 78.5977V93.1158L319.636 126.567L260.952 92.6607V78.1426" fill="white"/>
<path d="M379 93.1158L379.491 93.987L380 93.7001V93.1158H379ZM319.636 126.567L319.136 127.432L319.63 127.718L320.127 127.438L319.636 126.567ZM260.952 92.6607H259.952V93.2378L260.452 93.5265L260.952 92.6607ZM378 78.5977V93.1158H380V78.5977H378ZM378.509 92.2446L319.145 125.695L320.127 127.438L379.491 93.987L378.509 92.2446ZM320.136 125.701L261.452 91.7948L260.452 93.5265L319.136 127.432L320.136 125.701ZM261.952 92.6607V78.1426H259.952V92.6607H261.952Z" fill="black" mask="url(#path-14-inside-4_8409_225900)"/>
<path d="M319.636 125.161V110.643" stroke="black" stroke-miterlimit="10"/>
<path d="M377.981 78.5976L319.639 111.473L261.962 78.1487L319.681 45.7207L377.981 78.5976Z" fill="#2BD67B" stroke="black" stroke-miterlimit="10"/>
<mask id="path-18-inside-5_8409_225900" fill="white">
<path d="M379 55.8423V70.3604L319.636 103.811L260.952 69.9053V55.3872"/>
</mask>
<path d="M379 55.8423V70.3604L319.636 103.811L260.952 69.9053V55.3872" fill="#F7F9FB"/>
<path d="M379 70.3604L379.491 71.2316L380 70.9447V70.3604H379ZM319.636 103.811L319.136 104.677L319.63 104.962L320.127 104.682L319.636 103.811ZM260.952 69.9053H259.952V70.4824L260.452 70.7712L260.952 69.9053ZM378 55.8423V70.3604H380V55.8423H378ZM378.509 69.4892L319.145 102.94L320.127 104.682L379.491 71.2316L378.509 69.4892ZM320.136 102.945L261.452 69.0394L260.452 70.7712L319.136 104.677L320.136 102.945ZM261.952 69.9053V55.3872H259.952V69.9053H261.952Z" fill="black" mask="url(#path-18-inside-5_8409_225900)"/>
<path d="M319.636 102.405V87.8867" stroke="black" stroke-miterlimit="10"/>
<path d="M377.981 55.8422L319.639 88.7175L261.962 55.3933L319.681 22.9654L377.981 55.8422Z" fill="#2BD67B" stroke="black" stroke-miterlimit="10"/>
<mask id="path-22-inside-6_8409_225900" fill="white">
<path d="M379 33.4961V48.0142L319.636 81.465L260.952 47.5591V33.041"/>
</mask>
<path d="M379 33.4961V48.0142L319.636 81.465L260.952 47.5591V33.041" fill="white"/>
<path d="M379 48.0142L379.491 48.8854L380 48.5985V48.0142H379ZM319.636 81.465L319.136 82.3308L319.63 82.6163L320.127 82.3362L319.636 81.465ZM260.952 47.5591H259.952V48.1362L260.452 48.425L260.952 47.5591ZM378 33.4961V48.0142H380V33.4961H378ZM378.509 47.143L319.145 80.5937L320.127 82.3362L379.491 48.8854L378.509 47.143ZM320.136 80.5991L261.452 46.6932L260.452 48.425L319.136 82.3308L320.136 80.5991ZM261.952 47.5591V33.041H259.952V47.5591H261.952Z" fill="black" mask="url(#path-22-inside-6_8409_225900)"/>
<path d="M319.636 80.0591V65.541" stroke="black" stroke-miterlimit="10"/>
<path d="M377.982 33.4958L319.639 66.3714L261.962 33.0469L319.681 0.573955L377.982 33.4958Z" fill="white" stroke="black" stroke-miterlimit="10"/>
<rect x="140.95" y="7.06885" width="73.4592" height="28.276" rx="10" fill="black"/>
<path d="M158.38 25.207V16.807H159.424V24.247H163.48V25.207H158.38ZM165.361 17.899C164.893 17.899 164.665 17.623 164.665 17.191C164.665 16.771 164.893 16.495 165.361 16.495C165.817 16.495 166.057 16.771 166.057 17.191C166.057 17.623 165.817 17.899 165.361 17.899ZM164.857 25.207V19.075H165.865V25.207H164.857ZM169.932 25.315C168.48 25.315 167.46 24.523 167.424 23.179H168.432C168.432 23.995 169.056 24.415 169.932 24.415C170.796 24.415 171.336 24.127 171.336 23.539C171.336 23.131 171.06 22.807 170.4 22.663L169.176 22.435C168.168 22.231 167.616 21.619 167.616 20.719C167.616 19.699 168.492 18.967 169.848 18.967C171.228 18.967 172.212 19.723 172.212 20.947H171.228C171.192 20.167 170.616 19.819 169.848 19.819C169.104 19.819 168.588 20.119 168.588 20.719C168.588 21.199 168.984 21.475 169.656 21.583L170.616 21.763C171.768 22.027 172.356 22.483 172.356 23.539C172.356 24.667 171.252 25.315 169.932 25.315ZM174.033 16.327H175.041V25.207H174.033V16.327ZM176.337 21.763L178.893 25.087V25.207H177.729L175.041 21.763L177.633 19.075H178.821V19.195L176.337 21.763ZM186.171 25.207L183.087 16.927V16.807H184.179L186.699 23.803H186.747L189.231 16.807H190.335V16.927L187.239 25.207H186.171ZM195.063 25.207V23.431H191.235V22.375L194.631 16.807H196.083V22.519H197.211V23.431H196.083V25.207H195.063ZM192.219 22.519H195.063V17.827H195.015L192.219 22.471V22.519Z" fill="white"/>
<path d="M177.68 116.188L182.01 111.857L177.68 107.527L173.35 111.857L177.68 116.188ZM178.43 111.857V33.8301H176.93V111.857H178.43Z" fill="black"/>
</svg>
