<svg width="283" height="142" viewBox="0 0 283 142" fill="none" xmlns="http://www.w3.org/2000/svg">
<g clip-path="url(#clip0_4728_297580)">
<path d="M0.181641 141.729L75.914 57.4698L120.484 138.199L218.229 7.42131L244.772 38.464L282.819 0.18103" stroke="#0C152E" stroke-width="0.5" stroke-miterlimit="10" stroke-linecap="round" stroke-linejoin="round"/>
<path d="M185.165 14.2996H89.4121V125.347H185.165V14.2996Z" fill="#0C152E" stroke="#0C152E" stroke-width="0.5" stroke-miterlimit="10" stroke-linecap="round" stroke-linejoin="round"/>
<path d="M189.876 9.59338H94.123V120.641H189.876V9.59338Z" fill="white" stroke="#0C152E" stroke-width="0.5" stroke-miterlimit="10" stroke-linecap="round" stroke-linejoin="round"/>
<path d="M184.44 14.8426C185.291 14.8426 185.98 14.1538 185.98 13.3041C185.98 12.4543 185.291 11.7655 184.44 11.7655C183.59 11.7655 182.9 12.4543 182.9 13.3041C182.9 14.1538 183.59 14.8426 184.44 14.8426Z" fill="#2BD67B" stroke="#0C152E" stroke-width="0.5" stroke-miterlimit="10" stroke-linecap="round" stroke-linejoin="round"/>
<path d="M94.123 17.2861H189.876" stroke="#0C152E" stroke-width="0.5" stroke-miterlimit="10" stroke-linecap="round" stroke-linejoin="round"/>
<path d="M204.823 51.406C205.924 51.406 206.816 50.5145 206.816 49.4149C206.816 48.3153 205.924 47.4238 204.823 47.4238C203.722 47.4238 202.83 48.3153 202.83 49.4149C202.83 50.5145 203.722 51.406 204.823 51.406Z" fill="#3D71FF"/>
<path d="M212.796 51.406C213.896 51.406 214.789 50.5145 214.789 49.4149C214.789 48.3153 213.896 47.4238 212.796 47.4238C211.695 47.4238 210.803 48.3153 210.803 49.4149C210.803 50.5145 211.695 51.406 212.796 51.406Z" fill="#3D71FF"/>
<path d="M220.677 51.4964C221.777 51.4964 222.67 50.605 222.67 49.5054C222.67 48.4057 221.777 47.5143 220.677 47.5143C219.576 47.5143 218.684 48.4057 218.684 49.5054C218.684 50.605 219.576 51.4964 220.677 51.4964Z" fill="#3D71FF"/>
<path d="M60.0603 128.787C60.9608 128.787 61.6909 128.057 61.6909 127.158C61.6909 126.258 60.9608 125.528 60.0603 125.528C59.1597 125.528 58.4297 126.258 58.4297 127.158C58.4297 128.057 59.1597 128.787 60.0603 128.787Z" fill="#2BD67B"/>
<path d="M66.4919 128.787C67.3925 128.787 68.1225 128.057 68.1225 127.158C68.1225 126.258 67.3925 125.528 66.4919 125.528C65.5914 125.528 64.8613 126.258 64.8613 127.158C64.8613 128.057 65.5914 128.787 66.4919 128.787Z" fill="#2BD67B"/>
<path d="M72.7419 128.877C73.6425 128.877 74.3725 128.148 74.3725 127.248C74.3725 126.348 73.6425 125.619 72.7419 125.619C71.8414 125.619 71.1113 126.348 71.1113 127.248C71.1113 128.148 71.8414 128.877 72.7419 128.877Z" fill="#2BD67B"/>
<path d="M276.478 50.682H263.252L250.66 63.262H263.705L276.478 50.682Z" fill="#05DC8E"/>
<path d="M266.061 74.4844H201.471V141.728H266.061V74.4844Z" fill="#DEE5F1" stroke="#0C152E" stroke-width="0.5" stroke-miterlimit="10" stroke-linecap="round" stroke-linejoin="round"/>
<path d="M262.075 79.7335C263.025 79.7335 263.796 78.9231 263.796 77.9235C263.796 76.9238 263.025 76.1134 262.075 76.1134C261.124 76.1134 260.354 76.9238 260.354 77.9235C260.354 78.9231 261.124 79.7335 262.075 79.7335Z" fill="#FF4557" stroke="#0C152E" stroke-width="0.5" stroke-miterlimit="10" stroke-linecap="round" stroke-linejoin="round"/>
<path d="M201.471 81.5437H266.061" stroke="#0C152E" stroke-width="0.5" stroke-miterlimit="10" stroke-linecap="round" stroke-linejoin="round"/>
<path d="M231.636 109.328H224.842V131.954H231.636V109.328Z" fill="#3D71FF"/>
<path d="M222.577 119.012H215.783V131.954H222.577V119.012Z" fill="#3D71FF"/>
<path d="M241.511 100.278H234.717V131.954H241.511V100.278Z" fill="#3D71FF"/>
<path d="M251.656 93.3091H244.861V131.954H251.656V93.3091Z" fill="#3D71FF"/>
<path d="M145.124 39.8215H138.964C124.198 39.8215 112.24 51.768 112.24 66.5201C112.24 81.2721 124.198 93.2186 138.964 93.2186H145.124" fill="#101C3D"/>
<path d="M145.124 39.8215H138.964C124.198 39.8215 112.24 51.768 112.24 66.5201C112.24 81.2721 124.198 93.2186 138.964 93.2186H145.124" stroke="#101C3D" stroke-width="0.5" stroke-miterlimit="10" stroke-linecap="round" stroke-linejoin="round"/>
<path d="M131.082 89.2365H123.926" stroke="#F7F9FB" stroke-width="0.5" stroke-miterlimit="10" stroke-linecap="round" stroke-linejoin="round"/>
<path d="M124.833 82.9917H117.133" stroke="#F7F9FB" stroke-width="0.5" stroke-miterlimit="10" stroke-linecap="round" stroke-linejoin="round"/>
<path d="M120.302 76.0229H113.236" stroke="#F7F9FB" stroke-width="0.5" stroke-miterlimit="10" stroke-linecap="round" stroke-linejoin="round"/>
<path d="M119.216 68.3302H111.516" stroke="#F7F9FB" stroke-width="0.5" stroke-miterlimit="10" stroke-linecap="round" stroke-linejoin="round"/>
<path d="M119.216 60.6373H112.15" stroke="#F7F9FB" stroke-width="0.5" stroke-miterlimit="10" stroke-linecap="round" stroke-linejoin="round"/>
<path d="M133.982 42.8987H126.01" stroke="#F7F9FB" stroke-width="0.5" stroke-miterlimit="10" stroke-linecap="round" stroke-linejoin="round"/>
<path d="M127.821 47.6953H119.215" stroke="#F7F9FB" stroke-width="0.5" stroke-miterlimit="10" stroke-linecap="round" stroke-linejoin="round"/>
<path d="M121.933 53.8496H114.686" stroke="#F7F9FB" stroke-width="0.5" stroke-miterlimit="10" stroke-linecap="round" stroke-linejoin="round"/>
<path d="M145.124 93.3091C159.883 93.3091 171.848 81.3557 171.848 66.6105C171.848 51.8653 159.883 39.912 145.124 39.912C130.365 39.912 118.4 51.8653 118.4 66.6105C118.4 81.3557 130.365 93.3091 145.124 93.3091Z" fill="#F6E26D" stroke="#101C3D" stroke-width="0.5" stroke-miterlimit="10" stroke-linecap="round" stroke-linejoin="round"/>
<path d="M145.124 87.7884C156.882 87.7884 166.413 78.2662 166.413 66.52C166.413 54.7739 156.882 45.2517 145.124 45.2517C133.367 45.2517 123.836 54.7739 123.836 66.52C123.836 78.2662 133.367 87.7884 145.124 87.7884Z" fill="#F6E26D" stroke="#101C3D" stroke-width="0.5" stroke-miterlimit="10" stroke-linecap="round" stroke-linejoin="round"/>
<path d="M145.322 60.7733L138.66 67.4288L145.322 74.0843L151.984 67.4288L145.322 60.7733Z" fill="#101C3D"/>
<path d="M6.16016 27.4226H17.3932L27.9921 38.102H17.0308L6.16016 27.4226Z" fill="#3D71FF"/>
<path d="M69.7532 44.7087H22.8281V99.1013H69.7532V44.7087Z" fill="white" stroke="#0C152E" stroke-width="0.5" stroke-miterlimit="10" stroke-linecap="round" stroke-linejoin="round"/>
<path d="M66.4006 48.9624C67.2011 48.9624 67.85 48.3141 67.85 47.5143C67.85 46.7146 67.2011 46.0663 66.4006 46.0663C65.6001 46.0663 64.9512 46.7146 64.9512 47.5143C64.9512 48.3141 65.6001 48.9624 66.4006 48.9624Z" stroke="#0C152E" stroke-width="0.5" stroke-miterlimit="10" stroke-linecap="round" stroke-linejoin="round"/>
<path d="M22.8281 50.4105H69.7532" stroke="#0C152E" stroke-width="0.5" stroke-miterlimit="10" stroke-linecap="round" stroke-linejoin="round"/>
<path d="M46.291 60.4563V66.52" stroke="#0C152E" stroke-width="0.5" stroke-miterlimit="10" stroke-linecap="round" stroke-linejoin="round"/>
<path d="M51.0935 60.9993L49.4629 66.7915" stroke="#0C152E" stroke-width="0.5" stroke-miterlimit="10" stroke-linecap="round" stroke-linejoin="round"/>
<path d="M41.4902 60.9993L43.1208 66.7915" stroke="#0C152E" stroke-width="0.5" stroke-miterlimit="10" stroke-linecap="round" stroke-linejoin="round"/>
<path d="M57.7054 92.0421H32.9746V99.1014H57.7054V92.0421Z" fill="#2BD67B"/>
<path d="M61.2386 84.9829H36.5078V92.0422H61.2386V84.9829Z" fill="#2BD67B"/>
<path d="M56.9808 77.9236H32.25V84.9829H56.9808V77.9236Z" fill="#2BD67B"/>
<path d="M57.7056 92.0421H36.5078V92.9471H57.7056V92.0421Z" fill="#0C152E"/>
<path d="M56.9809 84.9829H36.5078V85.8879H56.9809V84.9829Z" fill="#0C152E"/>
<path d="M58.6117 69.8688H33.8809V76.9281H58.6117V69.8688Z" fill="#2BD67B"/>
<path d="M56.8905 77.0186H33.8809V77.9236H56.8905V77.0186Z" fill="#0C152E"/>
<path d="M69.7532 44.7087H22.8281V99.1013H69.7532V44.7087Z" stroke="#0C152E" stroke-width="0.5" stroke-miterlimit="10" stroke-linecap="round" stroke-linejoin="round"/>
<path d="M66.4006 48.9624C67.2011 48.9624 67.85 48.3141 67.85 47.5143C67.85 46.7146 67.2011 46.0663 66.4006 46.0663C65.6001 46.0663 64.9512 46.7146 64.9512 47.5143C64.9512 48.3141 65.6001 48.9624 66.4006 48.9624Z" fill="#F7E36D" stroke="#0C152E" stroke-width="0.5" stroke-miterlimit="10" stroke-linecap="round" stroke-linejoin="round"/>
<path d="M22.8281 50.4105H69.7532" stroke="#0C152E" stroke-width="0.5" stroke-miterlimit="10" stroke-linecap="round" stroke-linejoin="round"/>
</g>
<defs>
<clipPath id="clip0_4728_297580">
<rect width="283" height="142" fill="white"/>
</clipPath>
</defs>
</svg>
