<svg width="283" height="219" viewBox="0 0 283 219" fill="none" xmlns="http://www.w3.org/2000/svg">
<path d="M159.555 143.494L176.875 153.242L219.876 125.911L223.859 128.217" stroke="black" stroke-miterlimit="10"/>
<path d="M223.675 84.2213L203.55 95.0696L188.902 86.7107L148.365 112.548" stroke="black" stroke-miterlimit="10"/>
<path d="M75.6758 84.2213L104.159 101.228L126.983 114.88" stroke="black" stroke-miterlimit="10"/>
<path d="M56.8887 136.865L111.471 105.604" stroke="black" stroke-miterlimit="10"/>
<path d="M72.2168 146.245L135.525 182.38" stroke="black" stroke-miterlimit="10"/>
<path d="M55.5527 153.976L69.3359 146.245" stroke="black" stroke-miterlimit="10"/>
<path d="M176.56 94.5717L126.092 67.1888" stroke="black" stroke-miterlimit="10"/>
<path d="M70.4871 148.63L67.6309 147.136V143.73L70.4871 145.223V148.63Z" fill="white" stroke="black" stroke-miterlimit="10"/>
<path d="M70.4883 148.63L73.3707 147.136V143.73L70.4883 145.223V148.63Z" fill="white" stroke="black" stroke-miterlimit="10"/>
<path d="M67.6309 143.73L70.4871 141.922L73.3695 143.73" fill="white"/>
<path d="M67.6309 143.73L70.4871 141.922L73.3695 143.73" stroke="black" stroke-miterlimit="10"/>
<path d="M225.379 168.623L178.553 197.605" stroke="black" stroke-miterlimit="10"/>
<path d="M93.1535 69.5997V77.9587L58.8529 97.2184L24.9453 77.6966V69.3376" fill="white"/>
<path d="M93.1536 69.5997V77.9587L58.8529 97.2184L24.9453 77.6966V69.3376" stroke="black" stroke-miterlimit="10"/>
<path d="M58.8535 97.2184V88.8594" stroke="black" stroke-miterlimit="10"/>
<path d="M58.8791 50.34L24.9453 69.3377L58.8529 88.8594L93.1535 69.5997L58.8791 50.34Z" fill="#0C152E" stroke="black" stroke-miterlimit="10"/>
<path d="M93.1535 56.4978V64.8567L58.8529 84.1427L24.9453 64.5947V56.2357" fill="#F7F9FB"/>
<path d="M93.1536 56.4978V64.8567L58.8529 84.1427L24.9453 64.5947V56.2357" stroke="black" stroke-miterlimit="10"/>
<path d="M58.8535 84.1426V75.7574" stroke="black" stroke-miterlimit="10"/>
<path d="M58.8791 37.238L24.9453 56.2357L58.8529 75.7575L93.1535 56.4978L58.8791 37.238Z" fill="#0C152E" stroke="black" stroke-miterlimit="10"/>
<path d="M93.1535 43.6318V51.9908L58.8529 71.2505L24.9453 51.7287V43.3698" fill="white"/>
<path d="M93.1536 43.6318V51.9908L58.8529 71.2505L24.9453 51.7287V43.3698" stroke="black" stroke-miterlimit="10"/>
<path d="M58.8535 71.2505V62.8915" stroke="black" stroke-miterlimit="10"/>
<path d="M58.8791 24.3721L24.9453 43.3698L58.8529 62.8915L93.1535 43.6318L58.8791 24.3721Z" fill="white" stroke="black" stroke-miterlimit="10"/>
<path d="M76.095 164.143V172.502L41.7943 191.761L7.88672 172.24V163.881" fill="white"/>
<path d="M76.095 164.143V172.502L41.7943 191.761L7.88672 172.24V163.881" stroke="black" stroke-miterlimit="10"/>
<path d="M41.7949 191.761V183.402" stroke="black" stroke-miterlimit="10"/>
<path d="M41.8205 144.857L7.88672 163.881L41.7943 183.402L76.095 164.143L41.8205 144.857Z" fill="#0C152E" stroke="black" stroke-miterlimit="10"/>
<path d="M76.095 151.041V159.4L41.7943 178.659L7.88672 159.138V150.779" fill="#F7F9FB"/>
<path d="M76.095 151.041V159.4L41.7943 178.659L7.88672 159.138V150.779" stroke="black" stroke-miterlimit="10"/>
<path d="M41.7949 178.659V170.3" stroke="black" stroke-miterlimit="10"/>
<path d="M41.8205 131.781L7.88672 150.779L41.7943 170.3L76.095 151.041L41.8205 131.781Z" fill="#0C152E" stroke="black" stroke-miterlimit="10"/>
<path d="M76.095 138.149V146.534L41.7943 165.793L7.88672 146.272V137.886" fill="white"/>
<path d="M76.095 138.149V146.534L41.7943 165.793L7.88672 146.272V137.886" stroke="black" stroke-miterlimit="10"/>
<path d="M41.7949 165.793V157.434" stroke="black" stroke-miterlimit="10"/>
<path d="M41.8205 118.889L7.88672 137.886L41.7943 157.434L76.095 138.149L41.8205 118.889Z" fill="white" stroke="black" stroke-miterlimit="10"/>
<path d="M175.775 137.179V145.564L141.474 164.824L107.566 145.302V136.943" fill="white"/>
<path d="M175.775 137.179V145.564L141.474 164.824L107.566 145.302V136.943" stroke="black" stroke-miterlimit="10"/>
<path d="M141.475 164.824V156.465" stroke="black" stroke-miterlimit="10"/>
<path d="M141.5 117.919L107.566 136.943L141.474 156.465L175.775 137.179L141.5 117.919Z" fill="#0C152E" stroke="black" stroke-miterlimit="10"/>
<path d="M175.775 124.103V132.462L141.474 151.722L107.566 132.2V123.841" fill="#F7F9FB"/>
<path d="M175.775 124.103V132.462L141.474 151.722L107.566 132.2V123.841" stroke="black" stroke-miterlimit="10"/>
<path d="M141.475 151.722V143.363" stroke="black" stroke-miterlimit="10"/>
<path d="M141.5 104.844L107.566 123.841L141.474 143.363L175.775 124.103L141.5 104.844Z" fill="#0C152E" stroke="black" stroke-miterlimit="10"/>
<path d="M175.775 111.211V119.57L141.474 138.856L107.566 119.334V110.949" fill="white"/>
<path d="M175.775 111.211V119.57L141.474 138.856L107.566 119.334V110.949" stroke="black" stroke-miterlimit="10"/>
<path d="M141.475 138.856V130.471" stroke="black" stroke-miterlimit="10"/>
<path d="M141.5 91.9514L107.566 110.949L141.474 130.471L175.775 111.211L141.5 91.9514Z" fill="white" stroke="black" stroke-miterlimit="10"/>
<path d="M275.113 151.617V160.002L240.812 179.262L206.904 159.74V151.355" fill="white"/>
<path d="M275.113 151.617V160.002L240.812 179.262L206.904 159.74V151.355" stroke="black" stroke-miterlimit="10"/>
<path d="M240.812 179.262V170.903" stroke="black" stroke-miterlimit="10"/>
<path d="M240.838 132.358L206.904 151.355L240.812 170.903L275.113 151.617L240.838 132.358Z" fill="#0C152E" stroke="black" stroke-miterlimit="10"/>
<path d="M275.113 138.542V146.901L240.812 166.16L206.904 146.639V138.28" fill="#F7F9FB"/>
<path d="M275.113 138.542V146.901L240.812 166.16L206.904 146.639V138.28" stroke="black" stroke-miterlimit="10"/>
<path d="M240.812 166.16V157.801" stroke="black" stroke-miterlimit="10"/>
<path d="M240.838 119.282L206.904 138.28L240.812 157.801L275.113 138.542L240.838 119.282Z" fill="#0C152E" stroke="black" stroke-miterlimit="10"/>
<path d="M275.113 125.649V134.008L240.812 153.294L206.904 133.746V125.387" fill="white"/>
<path d="M275.113 125.649V134.008L240.812 153.294L206.904 133.746V125.387" stroke="black" stroke-miterlimit="10"/>
<path d="M240.812 153.294V144.909" stroke="black" stroke-miterlimit="10"/>
<path d="M240.838 106.39L206.904 125.387L240.812 144.909L275.113 125.649L240.838 106.39Z" fill="white" stroke="black" stroke-miterlimit="10"/>
<path d="M273.07 69.3114V77.6703L238.769 96.9301L204.861 77.4083V69.0493" fill="white"/>
<path d="M273.07 69.3114V77.6703L238.769 96.9301L204.861 77.4083V69.0493" stroke="black" stroke-miterlimit="10"/>
<path d="M238.77 96.93V88.571" stroke="black" stroke-miterlimit="10"/>
<path d="M238.795 50.0516L204.861 69.0493L238.769 88.5711L273.07 69.3114L238.795 50.0516Z" fill="#0C152E" stroke="black" stroke-miterlimit="10"/>
<path d="M273.07 56.2095V64.5685L238.769 83.8282L204.861 64.3065V55.9475" fill="#F7F9FB"/>
<path d="M273.07 56.2095V64.5685L238.769 83.8282L204.861 64.3065V55.9475" stroke="black" stroke-miterlimit="10"/>
<path d="M238.77 83.8282V75.4692" stroke="black" stroke-miterlimit="10"/>
<path d="M238.795 36.9498L204.861 55.9475L238.769 75.4693L273.07 56.2096L238.795 36.9498Z" fill="#0C152E" stroke="black" stroke-miterlimit="10"/>
<path d="M273.07 43.3436V51.7026L238.769 70.9623L204.861 51.4405V43.0815" fill="white"/>
<path d="M273.07 43.3436V51.7026L238.769 70.9623L204.861 51.4405V43.0815" stroke="black" stroke-miterlimit="10"/>
<path d="M238.77 70.9623V62.6033" stroke="black" stroke-miterlimit="10"/>
<path d="M238.795 24.0576L204.861 43.0815L238.769 62.6033L273.07 43.3435L238.795 24.0576Z" fill="white" stroke="black" stroke-miterlimit="10"/>
</svg>
