<svg width="198" height="103" viewBox="0 0 198 103" fill="none" xmlns="http://www.w3.org/2000/svg">
<g clip-path="url(#clip0_4430_324508)">
<path d="M41.016 49.8633H35.6719V53.2009H41.016V49.8633Z" fill="#DFE6F2" stroke="#0C152E" stroke-miterlimit="10"/>
<path d="M162.461 49.8633H157.117V53.2009H162.461V49.8633Z" fill="#DFE6F2" stroke="#0C152E" stroke-miterlimit="10"/>
<path d="M149.302 59.612H129.595C125.119 59.612 121.445 56.0073 121.445 51.4681C121.445 46.9956 125.053 43.3242 129.595 43.3242H149.302C153.777 43.3242 157.451 46.9289 157.451 51.4681C157.385 56.0073 153.777 59.612 149.302 59.612Z" fill="#0C152E" stroke="#0C152E" stroke-miterlimit="10"/>
<path d="M137.21 59.612H117.503C113.028 59.612 109.354 56.0073 109.354 51.4681C109.354 46.9956 112.961 43.3242 117.503 43.3242H137.21C141.685 43.3242 145.36 46.9289 145.36 51.4681C145.293 56.0073 141.685 59.612 137.21 59.612Z" fill="#F7F9FB" stroke="#0C152E" stroke-miterlimit="10"/>
<path d="M116.903 49.8633H100.87V53.2009H116.903V49.8633Z" fill="#0C152E"/>
<path d="M136.008 49.8633H119.976V53.2009H136.008V49.8633Z" fill="#0C152E"/>
<path d="M49.0316 59.612H68.7381C73.2138 59.612 76.8879 56.0073 76.8879 51.4681C76.8879 46.9956 73.2806 43.3242 68.7381 43.3242H49.0316C44.5559 43.3242 40.8818 46.9289 40.8818 51.4681C40.9486 56.0073 44.5559 59.612 49.0316 59.612Z" fill="#0C152E" stroke="#0C152E" stroke-miterlimit="10"/>
<path d="M61.1225 59.612H80.8289C85.3046 59.612 88.9787 56.0073 88.9787 51.4681C88.9787 46.9956 85.3714 43.3242 80.8289 43.3242H61.1225C56.6467 43.3242 52.9727 46.9289 52.9727 51.4681C52.9727 56.0073 56.6467 59.612 61.1225 59.612Z" fill="#F7F9FB" stroke="#0C152E" stroke-miterlimit="10"/>
<path d="M76.8878 53.2048C77.8102 53.2048 78.5579 52.4577 78.5579 51.536C78.5579 50.6143 77.8102 49.8672 76.8878 49.8672C75.9655 49.8672 75.2178 50.6143 75.2178 51.536C75.2178 52.4577 75.9655 53.2048 76.8878 53.2048Z" fill="#F7F9FB" stroke="#0C152E" stroke-miterlimit="10"/>
<path d="M65.0636 53.2048C65.9859 53.2048 66.7336 52.4577 66.7336 51.536C66.7336 50.6143 65.9859 49.8672 65.0636 49.8672C64.1413 49.8672 63.3936 50.6143 63.3936 51.536C63.3936 52.4577 64.1413 53.2048 65.0636 53.2048Z" fill="#F7F9FB" stroke="#0C152E" stroke-miterlimit="10"/>
<path d="M162.528 51.5352H171.947C177.692 51.5352 182.368 56.2079 182.368 61.9486C182.368 67.6894 177.692 72.3621 171.947 72.3621H93.7892C88.0443 72.3621 83.3682 77.0348 83.3682 82.7756V103.002" stroke="#0C152E" stroke-miterlimit="10"/>
<path d="M35.4713 51.5334H25.9855C20.2406 51.5334 15.5645 46.8607 15.5645 41.1199C15.5645 35.3791 20.2406 30.7064 25.9855 30.7064H104.143C109.888 30.7064 114.564 26.0337 114.564 20.2929V0" stroke="#0C152E" stroke-miterlimit="10"/>
</g>
<defs>
<clipPath id="clip0_4430_324508">
<rect width="198" height="103" fill="white"/>
</clipPath>
</defs>
</svg>
