<svg width="367" height="204" viewBox="0 0 367 204" fill="none" xmlns="http://www.w3.org/2000/svg">
<g clip-path="url(#clip0_5342_308853)">
<path d="M233.812 108.544H296.996" stroke="#0C152E" stroke-width="0.5" stroke-miterlimit="10"/>
<path d="M8.13184 105.263H40.3494C43.4773 105.263 45.9797 107.763 45.9797 110.887V133.54C45.9797 136.665 48.482 139.165 51.6099 139.165H168.125" stroke="#0C152E" stroke-width="0.5" stroke-miterlimit="10"/>
<path d="M121.988 33.5537V79.0165H80.3869C80.2305 77.7666 80.2305 76.5168 80.2305 75.4232C80.2305 52.3012 98.998 33.5537 121.988 33.5537Z" stroke="#0C152E" stroke-width="0.5" stroke-miterlimit="10"/>
<path d="M297.308 160.725L338.441 160.256L296.839 203.688H255.707L297.308 160.725Z" fill="#4070F4"/>
<path d="M25.3358 54.176L2.50195 53.8635L25.4922 77.7666L48.326 77.9229L25.3358 54.176Z" fill="#2BD67B" stroke="#2BD67B" stroke-width="0.5" stroke-miterlimit="10"/>
<path d="M234.437 -33H101.188V111.825H234.437V-33Z" fill="url(#paint0_linear_5342_308853)"/>
<path d="M163.12 42.1462C128.87 42.1462 101.188 69.7988 101.188 104.013C101.188 138.227 128.87 165.88 163.12 165.88H172.348V42.1462H163.12Z" fill="#DFE6F2" stroke="#0C152E" stroke-width="0.5" stroke-miterlimit="10" stroke-linecap="round" stroke-linejoin="round"/>
<path d="M172.348 60.7375V42.1462H163.12C145.76 42.1462 130.121 49.1766 118.86 60.7375H172.348Z" fill="#F7F9FB" stroke="#0C152E" stroke-width="0.5" stroke-miterlimit="10" stroke-linecap="round" stroke-linejoin="round"/>
<path d="M106.349 128.697C115.889 150.569 137.784 165.88 163.12 165.88H172.348V128.697H106.349Z" fill="#C5CFE4" stroke="#0C152E" stroke-width="0.5" stroke-miterlimit="10" stroke-linecap="round" stroke-linejoin="round"/>
<path d="M172.348 165.88C206.552 165.88 234.281 138.181 234.281 104.013C234.281 69.845 206.552 42.1462 172.348 42.1462C138.143 42.1462 110.415 69.845 110.415 104.013C110.415 138.181 138.143 165.88 172.348 165.88Z" fill="white" stroke="#0C152E" stroke-width="0.5" stroke-miterlimit="10" stroke-linecap="round" stroke-linejoin="round"/>
<path d="M172.348 152.288C199.038 152.288 220.674 130.675 220.674 104.013C220.674 77.3517 199.038 55.7383 172.348 55.7383C145.658 55.7383 124.021 77.3517 124.021 104.013C124.021 130.675 145.658 152.288 172.348 152.288Z" fill="#DFE6F2" stroke="#F7F9FB" stroke-width="0.5" stroke-miterlimit="10"/>
<path d="M172.348 55.7383C171.566 55.7383 170.628 55.7383 169.846 55.7383C195.338 56.9881 215.67 78.0791 215.67 103.857C215.67 129.635 195.338 150.726 169.846 151.976C170.628 151.976 171.566 151.976 172.348 151.976C199.092 151.976 220.674 130.416 220.674 103.701C220.674 76.9855 199.092 55.7383 172.348 55.7383Z" fill="#C5CFE4"/>
<path d="M174.694 89.0151L189.708 104.013L174.694 119.011L159.68 104.013L174.694 89.0151Z" fill="#101C3D"/>
<path d="M307.631 119.167C313.505 119.167 318.266 114.411 318.266 108.544C318.266 102.677 313.505 97.9202 307.631 97.9202C301.758 97.9202 296.996 102.677 296.996 108.544C296.996 114.411 301.758 119.167 307.631 119.167Z" stroke="#0C152E" stroke-width="0.5" stroke-miterlimit="10"/>
<path d="M310.042 107.805C310.423 106.478 309.654 105.094 308.326 104.714C306.997 104.333 305.612 105.101 305.231 106.428C304.85 107.755 305.618 109.139 306.947 109.519C308.275 109.9 309.661 109.133 310.042 107.805Z" stroke="#0C152E" stroke-width="0.5" stroke-miterlimit="10"/>
<path d="M307.631 119.011C304.816 119.011 302.001 117.761 299.968 115.73C301.688 111.512 306.693 109.481 310.916 111.356C312.949 112.137 314.513 113.699 315.295 115.73C313.261 117.918 310.603 119.011 307.631 119.011Z" stroke="#0C152E" stroke-width="0.5" stroke-miterlimit="10"/>
<path d="M73.0371 139.165V153.85C73.0371 156.35 71.004 158.225 68.6581 158.225H29.0898" stroke="#0C152E" stroke-width="0.5" stroke-miterlimit="10"/>
<path d="M8.13221 101.982H2.50195V107.606H8.13221V101.982Z" stroke="#0C152E" stroke-width="0.5" stroke-miterlimit="10"/>
<path d="M367.53 60.1128H355.957V71.6738H367.53V60.1128Z" stroke="#0C152E" stroke-width="0.5" stroke-miterlimit="10"/>
<path d="M29.0894 148.695H0.3125V166.349H29.0894V148.695Z" stroke="#0C152E" stroke-width="0.5" stroke-miterlimit="10"/>
<path d="M14.7009 157.6L0.3125 148.695H29.0894L14.7009 157.6Z" stroke="#0C152E" stroke-width="0.5" stroke-miterlimit="10" stroke-linecap="round" stroke-linejoin="round"/>
<path d="M255.081 166.036H105.254V184.94H255.081V166.036Z" fill="#F7F9FB" stroke="#0C152E" stroke-width="0.5" stroke-miterlimit="10" stroke-linecap="round" stroke-linejoin="round"/>
<path d="M201.281 166.036H105.254V184.94H201.281V166.036Z" fill="#DFE6F2" stroke="#0C152E" stroke-width="0.5" stroke-miterlimit="10" stroke-linecap="round" stroke-linejoin="round"/>
<path d="M146.542 166.036H105.254V184.94H146.542V166.036Z" fill="#C5CFE4" stroke="#0C152E" stroke-width="0.5" stroke-miterlimit="10" stroke-linecap="round" stroke-linejoin="round"/>
<path d="M231.779 184.784H81.9512V203.687H231.779V184.784Z" fill="#F7F9FB" stroke="#0C152E" stroke-width="0.5" stroke-miterlimit="10" stroke-linecap="round" stroke-linejoin="round"/>
<path d="M177.978 184.784H81.9512V203.687H177.978V184.784Z" fill="#DFE6F2" stroke="#0C152E" stroke-width="0.5" stroke-miterlimit="10" stroke-linecap="round" stroke-linejoin="round"/>
<path d="M123.24 184.784H81.9512V203.687H123.24V184.784Z" fill="#C5CFE4" stroke="#0C152E" stroke-width="0.5" stroke-miterlimit="10" stroke-linecap="round" stroke-linejoin="round"/>
<path d="M231.935 188.846H111.823L105.098 184.784H231.935V188.846Z" fill="#0C152E" stroke="#0C152E" stroke-width="0.5" stroke-miterlimit="10" stroke-linecap="round" stroke-linejoin="round"/>
<path d="M265.404 108.544V75.2671C265.404 70.1115 269.627 65.8933 274.788 65.8933H355.958" stroke="#0C152E" stroke-width="0.5" stroke-miterlimit="10"/>
<path d="M283.233 42.3025H253.361V75.5794H283.233V42.3025Z" fill="white" stroke="#0C152E" stroke-width="0.5" stroke-miterlimit="10" stroke-linecap="round" stroke-linejoin="round"/>
<path d="M253.361 42.3025H250.077V75.5794H253.361V42.3025Z" fill="#DFE6F2" stroke="#0C152E" stroke-width="0.5" stroke-miterlimit="10" stroke-linecap="round" stroke-linejoin="round"/>
<path d="M268.375 57.9254C270.189 57.9254 271.659 56.4565 271.659 54.6446C271.659 52.8326 270.189 51.3638 268.375 51.3638C266.561 51.3638 265.091 52.8326 265.091 54.6446C265.091 56.4565 266.561 57.9254 268.375 57.9254Z" fill="#101C3D"/>
<path d="M269.47 56.2068H267.28V66.5179H269.47V56.2068Z" fill="#101C3D"/>
<path d="M276.508 42.3025H258.21V33.085C258.21 28.0856 262.276 23.8674 267.437 23.8674C272.442 23.8674 276.665 27.9294 276.665 33.085V42.3025H276.508Z" fill="white" stroke="#0C152E" stroke-width="0.5" stroke-miterlimit="10" stroke-linecap="round" stroke-linejoin="round"/>
</g>
<defs>
<linearGradient id="paint0_linear_5342_308853" x1="167.752" y1="-58.3706" x2="167.752" y2="200.24" gradientUnits="userSpaceOnUse">
<stop offset="0.2" stop-color="white" stop-opacity="0"/>
<stop offset="1" stop-color="white"/>
</linearGradient>
<clipPath id="clip0_5342_308853">
<rect width="368" height="237" fill="white" transform="translate(0 -33)"/>
</clipPath>
</defs>
</svg>
