<svg xmlns="http://www.w3.org/2000/svg" width="644" height="374" viewBox="0 0 644 374">
  <defs>
    <linearGradient id="send-lsk-tokens-a" x1="0%" x2="100%" y1="50%" y2="50%">
      <stop offset="0%" stop-color="#1A2A58" stop-opacity="0"/>
      <stop offset="100%" stop-color="#1A2A58"/>
    </linearGradient>
  </defs>
  <g fill="none" fill-rule="evenodd" transform="translate(-124 38)">
    <path fill="#254898" fill-rule="nonzero" d="M673.907,263.146 L673.907,336.583 L768.014,336.583 L768.014,276.042 C767.999646,249.228788 746.259215,227.5 719.446,227.5 L638.3,227.5 C657.965567,227.535829 673.892699,243.480405 673.907,263.146 L673.907,263.146 Z"/>
    <rect width="195.403" height="139.893" x="520.325" y="28.379" fill="url(#send-lsk-tokens-a)" fill-rule="nonzero"/>
    <path stroke="#254898" stroke-width="1.3" d="M673.907,336.583 L673.907,263.146 C673.892699,243.480405 657.965567,227.535829 638.3,227.5 L345.917,227.5 C328.563661,227.5 314.496,241.567661 314.496,258.921 L314.496,336.609"/>
    <rect width="155.454" height="94.354" x="541.073" y="54.236" fill="#DFE6F2" fill-rule="nonzero"/>
    <rect width="155.454" height="9.828" x="541.073" y="47.515" fill="#C3CFE6" fill-rule="nonzero"/>
    <rect width="195.403" height="139.893" x="520.325" y="28.392" stroke="#254898" stroke-width="1.3" transform="rotate(180 618.027 98.338)"/>
    <polyline stroke="#254898" stroke-width="1.3" points="633.75 203.19 633.75 177.255 585.806 177.255 585.806 207.766"/>
    <polygon fill="#254898" fill-rule="nonzero" stroke="#254898" stroke-width="1.3" points="650.26 203.255 650.26 177.255 633.75 177.255 633.75 203.19"/>
    <rect width="23.647" height="6.721" x="441.64" y="203.386" stroke="#254898" stroke-width="1.3" transform="rotate(.25 453.463 206.746)"/>
    <rect width="8.06" height="6.721" x="457.227" y="203.407" fill="#254898" fill-rule="nonzero" stroke="#254898" stroke-width="1.3" transform="rotate(.25 461.257 206.767)"/>
    <rect width="23.647" height="6.721" x="473.954" y="203.45" stroke="#254898" stroke-width="1.3"/>
    <rect width="8.06" height="6.721" x="489.541" y="203.45" fill="#254898" fill-rule="nonzero" stroke="#254898" stroke-width="1.3"/>
    <rect width="23.647" height="6.721" x="505.362" y="203.45" stroke="#254898" stroke-width="1.3"/>
    <rect width="8.06" height="6.721" x="520.949" y="203.45" fill="#254898" fill-rule="nonzero" stroke="#254898" stroke-width="1.3"/>
    <rect width="23.647" height="6.721" x="535.887" y="203.797" stroke="#254898" stroke-width="1.3" transform="rotate(.25 547.71 207.157)"/>
    <rect width="8.06" height="6.721" x="551.474" y="203.818" fill="#254898" fill-rule="nonzero" stroke="#254898" stroke-width="1.3" transform="rotate(.25 555.504 207.178)"/>
    <rect width="23.647" height="6.721" x="567.294" y="203.934" stroke="#254898" stroke-width="1.3" transform="rotate(.25 579.118 207.294)"/>
    <rect width="8.06" height="6.721" x="582.881" y="203.968" fill="#254898" fill-rule="nonzero" stroke="#254898" stroke-width="1.3" transform="rotate(.25 586.911 207.328)"/>
    <rect width="23.647" height="6.721" x="598.714" y="204.058" stroke="#254898" stroke-width="1.3" transform="rotate(.25 610.538 207.419)"/>
    <rect width="8.06" height="6.721" x="614.301" y="204.105" fill="#254898" fill-rule="nonzero" stroke="#254898" stroke-width="1.3" transform="rotate(.25 618.331 207.466)"/>
    <rect width="23.647" height="6.721" x="630.121" y="204.208" stroke="#254898" stroke-width="1.3" transform="rotate(.25 641.945 207.569)"/>
    <rect width="8.06" height="6.721" x="645.708" y="204.229" fill="#254898" fill-rule="nonzero" stroke="#254898" stroke-width="1.3" transform="rotate(.25 649.738 207.59)"/>
    <path fill="#254898" fill-rule="nonzero" stroke="#254898" stroke-width="1.3" d="M669.5,227.43051 L598.208,227.643 L598.273,210.743 L667.017,211.054651 C667.683481,211.024029 668.333479,211.285392 668.821958,211.780422 C669.310437,212.275452 669.596746,212.962953 669.617,213.689521 L669.5,227.43051 Z"/>
    <polygon stroke="#254898" stroke-width="1.3" points="599.222 227.474 425.022 227.448 425.1 209.937 599.3 210.678"/>
    <rect width="8.294" height="139.893" x="715.741" y="28.379" fill="#254898" fill-rule="nonzero" stroke="#254898" stroke-width="1.3"/>
    <path fill="#DFE6F2" fill-rule="nonzero" d="M235.859,201.981 C237.871291,201.86178 239.86176,201.499479 241.787,200.902 L267.787,122.902 L272.285,163.917 C274.001,160.459 275.769,156.741 277.628,152.711 C286.273,133.939 293.319,115.583 293.618,114.816 C297.213431,104.232999 291.802314,92.7005284 281.365022,88.7017805 C270.927731,84.7030326 259.196179,89.6677825 254.8,99.944 C246.636,121.251 236.6,143.234 229.84,155.337 C227.708,153.621 225.524,151.801 223.704,150.28 C210.6,139.373 198.198,129.064 183.755,128.7 C172.622211,128.449118 163.266684,137.010585 162.531734,148.121921 C161.796784,159.233256 169.943156,168.952373 181.012,170.17 C184.548,171.821 192.296,178.269 197.015,182.208 C209.729,192.803 220.779,202.02 233.974,202.02 C234.598,202.046 235.222,202.02 235.859,201.981 Z"/>
    <path fill="#C3CFE6" fill-rule="nonzero" d="M241.579,201.5 L264.16,133.718 L254.124,135.889 L250.991,148.109 C247.496599,161.700156 242.708054,174.925247 236.691,187.603 L229.918,201.903 C233.802786,202.364632 237.735353,202.228724 241.579,201.5 Z"/>
    <polygon fill="#C3CFE6" fill-rule="nonzero" points="268.879 132.964 268.879 132.717 268.814 132.717"/>
    <path stroke="#254898" stroke-width="1.3" d="M267.8 122.902L204.659 312.325C201.705692 320.060086 200.331007 328.308197 200.616 336.583M284.466 336.583C286.065 331.799 287.794 326.794 289.666 321.62"/>
    <circle cx="334.126" cy="14.547" r="14.547" fill="#3D71FF" fill-rule="nonzero"/>
    <path fill="#254898" fill-rule="nonzero" d="M344.253,24.96 C342.592916,14.5215632 334.827843,6.10043204 324.558,3.601 C320.547919,7.07008226 318.74527,12.4476994 319.854356,17.6327943 C320.963442,22.8178892 324.808237,26.9875248 329.886563,28.5126073 C334.96489,30.0376898 340.470757,28.6761703 344.253,24.96 L344.253,24.96 Z"/>
    <path fill="#2BD67B" fill-rule="nonzero" d="M388.167,179.296 L324.792,176.878 C315.468119,176.523466 306.187198,175.428013 297.037,173.602 L253.591,164.918 L256.477,120.64 L394.875,140.049 L388.167,179.296 Z"/>
    <polygon fill="#254898" fill-rule="nonzero" points="372.255 178.698 353.548 177.983 349.284 157.625 255.047 142.584 255.775 131.365 367.367 144.313"/>
    <path stroke="#254898" stroke-width="1.3" d="M290.953 336.583L283.036 248.04M384.878 176.345C390.325 190.554 393.328 208.429 394.771 227.279"/>
    <circle cx="180.447" cy="72.814" r="16.913" stroke="#254898" stroke-width=".65" transform="rotate(-36.3 180.447 72.814)"/>
    <rect width="6.201" height="6.201" x="177.814" y="69.372" fill="#3D71FF" fill-rule="nonzero" transform="rotate(-81.3 180.915 72.473)"/>
    <path fill="#254898" fill-rule="nonzero" d="M190.463,86.463 C185.586325,90.0392286 179.172196,90.7421247 173.636753,88.3069143 C168.101311,85.8717039 164.28552,80.6683533 163.626753,74.6569143 C162.967986,68.6454753 165.566325,62.7392286 170.443,59.163 L170.937,58.812 L170.937,58.812 C170.937,58.812 152.737,70.109 163.969,84.916 C175.201,99.723 190.957,86.073 190.957,86.073 L190.957,86.073 L190.463,86.463 Z"/>
    <path fill="#DFE6F2" fill-rule="nonzero" d="M338,14.872 C329.429569,3.81440138 313.687626,1.43275243 302.229756,9.46020535 C290.771886,17.4876583 287.634189,33.0964981 295.1,44.928 C295.386,45.37 295.685,45.799 295.997,46.228 C304.820405,57.303967 320.843996,59.3731609 332.191609,50.9019626 C343.539221,42.4307642 346.110634,26.480063 338,14.872 Z"/>
    <path fill="#3D71FF" fill-rule="nonzero" d="M297.037,18.33 C302.611864,14.1712321 309.610618,12.3977454 316.493232,13.3997838 C323.375847,14.4018222 329.578378,18.0972813 333.736,23.673 C335.036,25.454 338.442,24.791 342.173,23.556 C339.022218,12.135142 328.60126,4.24834207 316.75396,4.31833639 C304.90666,4.38833071 294.579617,12.3977107 291.564,23.855 C293.103713,21.7516553 294.948309,19.8895331 297.037,18.33 L297.037,18.33 Z"/>
    <path fill="#DFE6F2" fill-rule="nonzero" d="M328.991,263.9 C317.63419,263.9 308.375548,254.79331 308.191,243.438 C308.009,231.738 312.663,210.119 345.891,197.145 C349.44,195.767 352.95,194.61 356.291,193.661 L352.209,133.354 C351.549046,125.853271 354.994377,118.58153 361.216962,114.341729 C367.439546,110.101928 375.467663,109.556157 382.206808,112.914788 C388.945953,116.273418 393.343738,123.011965 393.705,130.533 L399.022,208.845 C399.790032,219.937223 391.698672,229.67205 380.653,230.945 C366.496,232.661 351.715,238.992 349.804,242.853 C349.941408,254.315809 340.778355,263.728869 329.316,263.9 L328.991,263.9 Z"/>
    <circle cx="619.138" cy="101.309" r="16.263" fill="#DFE6F2" fill-rule="nonzero" stroke="#4070F4" stroke-width="1.3"/>
    <rect width="5.967" height="5.967" x="615.569" y="98.334" fill="#3D71FF" fill-rule="nonzero" transform="rotate(-135 618.552 101.318)"/>
    <path fill="#3D71FF" fill-rule="nonzero" stroke="#4070F4" stroke-width="1.3" d="M619.138,117.572 C625.162922,117.912957 630.881975,114.892451 633.997193,109.724148 C637.112411,104.555846 637.112411,98.0881544 633.997193,92.9198515 C630.881975,87.7515487 625.162922,84.7310426 619.138,85.072 L618.566,85.072 L618.566,85.072 C618.566,85.072 639.093,83.473 638.833,101.348 C638.573,119.223 618.566,117.611 618.566,117.611 L619.138,117.611 L619.138,117.572 Z"/>
    <path fill="#2BD67B" fill-rule="nonzero" d="M328.185,66.768 C349.527687,69.9001942 368.750266,81.3870404 381.619584,98.6989312 C394.488902,116.010822 399.949552,137.728015 396.799,159.068 L235.963,135.395 C239.089589,114.064004 250.563032,94.8491508 267.858611,81.9786458 C285.15419,69.1081409 306.854711,63.6365895 328.185,66.768 Z"/>
    <ellipse cx="325.605" cy="69.869" fill="#254898" fill-rule="nonzero" rx="3.419" ry="16.783" transform="rotate(-83.38 325.605 69.869)"/>
    <circle cx="547.95" cy="52.52" r="3.25" fill="#254898"/>
    <polyline stroke="#3D71FF" stroke-width="1.3" points="601.887 88.569 601.887 81.445 594.776 81.445"/>
    <path stroke="#3D71FF" stroke-width="1.3" d="M601.484 81.653C591.363737 91.8039892 590.494003 107.941035 599.464601 119.120959 608.435198 130.300882 624.377332 132.948347 636.48 125.268M641.42 121.16C651.235698 111.33581 652.413861 95.8187901 644.193982 84.6252104 635.974103 73.4316306 620.815889 69.9110453 608.504 76.336"/>
    <polyline stroke="#3D71FF" stroke-width="1.3" points="641.03 114.244 641.03 121.368 648.141 121.368"/>
    <ellipse cx="183.443" cy="130.026" fill="#C5CFE4" fill-rule="nonzero" rx="7.501" ry="1.742"/>
  </g>
</svg>
