<svg width="183" height="96" viewBox="0 0 183 96" fill="none" xmlns="http://www.w3.org/2000/svg">
<g clip-path="url(#clip0)">
<path d="M117.394 43.2528H131.797V42.6919H117.505L117.394 43.2528Z" fill="#9999A0"/>
<path d="M170.364 43.0049H131.55V95.7023H170.364V43.0049Z" fill="#254898"/>
<path d="M137.281 35.2642L126.911 42.943H146.81L157.18 35.2642H137.281Z" fill="#F7F9FB"/>
<path d="M146.893 43.1948H126.161L137.203 35.0156H157.93L146.893 43.1948ZM127.665 42.6986H146.728L156.43 35.5118H137.363L127.665 42.6986Z" fill="#9999A0"/>
<path d="M131.917 32.5347L121.547 42.9427H141.442L151.816 32.5347H131.917Z" fill="#F7F9FB"/>
<path d="M141.545 43.195H120.945L131.81 32.2866H152.409L141.545 43.195ZM122.144 42.6987H141.343L151.231 32.7746H132.032L122.144 42.6987Z" fill="#9999A0"/>
<path d="M114.407 73.6437H11.7048V2.60498H114.407V73.6437ZM12.1992 73.1475H113.913V3.10119H12.1992V73.1475Z" fill="#9999A0"/>
<path d="M114.156 2.85303H29.6554V61.9723H114.156V2.85303Z" fill="#9999A0"/>
<path d="M12.1992 72.8765H6.6496V2.60498H12.1992V72.8765ZM7.14399 72.3803H11.7048V3.10119H7.14399V72.3803Z" fill="#9999A0"/>
<path d="M78.7817 91.7504H46.7408V73.1475L78.7817 73.1475V91.7504ZM47.2352 91.2541H78.2873V73.6437L47.2352 73.6437V91.2541Z" fill="#9999A0"/>
<path d="M40.9408 91.2544H46.7895V73.6439H40.9408V91.2544Z" fill="#1C1C1E"/>
<path d="M86.0988 96.0001L38.8513 96.0001V91.2544H86.0988V96.0001ZM39.3457 95.5039L85.6044 95.5039V91.7506L39.3457 91.7506V95.5039Z" fill="#9999A0"/>
<path d="M38.814 91.2544H29.2434V95.5236H38.814V91.2544Z" fill="#1C1C1E"/>
<path d="M118.131 5.92139H34.2203V59.3714H118.131V5.92139Z" fill="#F7F9FB"/>
<path d="M118.374 59.6196H33.9731V5.67334H118.374V59.6196ZM34.4675 59.1234H117.88V6.16955H34.4675V59.1234Z" fill="black"/>
<path d="M118.131 0.248047H34.2203V5.92138H118.131V0.248047Z" fill="#F7F9FB"/>
<path d="M118.374 6.16954H33.9731V0H118.374V6.16954ZM34.4675 5.67333H117.88V0.496208H34.4675V5.67333Z" fill="black"/>
<path d="M38.5463 4.58597C39.2698 4.58597 39.8564 3.99724 39.8564 3.27101C39.8564 2.54478 39.2698 1.95605 38.5463 1.95605C37.8227 1.95605 37.2361 2.54478 37.2361 3.27101C37.2361 3.99724 37.8227 4.58597 38.5463 4.58597Z" fill="#254898"/>
<path d="M55.8283 51.3755H43.0676V38.5679H55.8283V51.3755ZM43.5598 50.8815H55.3361V39.0619H43.5598V50.8815Z" fill="#231F20"/>
<path d="M73.331 27.3329C72.3968 27.3337 71.4722 27.1435 70.6137 26.7738C69.7552 26.4041 68.9807 25.8627 68.3376 25.1826C68.757 24.2024 69.4535 23.3671 70.341 22.7802C71.2286 22.1932 72.2681 21.8804 73.331 21.8804C74.3939 21.8804 75.4334 22.1932 76.321 22.7802C77.2085 23.3671 77.905 24.2024 78.3244 25.1826C77.6812 25.8627 76.9068 26.4041 76.0483 26.7738C75.1898 27.1435 74.2652 27.3337 73.331 27.3329Z" fill="#C5CFE4"/>
<path d="M73.331 27.5811C71.9164 27.5811 70.5336 27.1601 69.3574 26.3713C68.1813 25.5825 67.2645 24.4614 66.7232 23.1497C66.1819 21.838 66.0402 20.3947 66.3162 19.0022C66.5922 17.6097 67.2734 16.3306 68.2736 15.3267C69.2739 14.3227 70.5483 13.639 71.9357 13.3621C73.3231 13.0851 74.7611 13.2272 76.068 13.7706C77.3749 14.3139 78.492 15.234 79.2779 16.4145C80.0638 17.595 80.4832 18.9828 80.4832 20.4026C80.4821 22.3061 79.7283 24.1314 78.3872 25.4774C77.0461 26.8234 75.2276 27.58 73.331 27.5811ZM73.331 13.7245C72.014 13.7245 70.7266 14.1165 69.6317 14.8509C68.5367 15.5854 67.6834 16.6292 67.1796 17.8505C66.6758 19.0718 66.5442 20.4156 66.8014 21.7119C67.0586 23.0083 67.6931 24.1989 68.6247 25.1333C69.5562 26.0677 70.7429 26.7038 72.0347 26.9612C73.3264 27.2185 74.6652 27.0856 75.8817 26.5792C77.0982 26.0728 78.1377 25.2157 78.8688 24.1162C79.5999 23.0168 79.9897 21.7244 79.9888 20.4026C79.9877 18.6311 79.2858 16.9325 78.0373 15.6802C76.7889 14.4279 75.0961 13.7245 73.331 13.7245Z" fill="black"/>
<path d="M73.331 21.1883C74.2503 21.1883 74.9955 20.4404 74.9955 19.5177C74.9955 18.5951 74.2503 17.8472 73.331 17.8472C72.4118 17.8472 71.6666 18.5951 71.6666 19.5177C71.6666 20.4404 72.4118 21.1883 73.331 21.1883Z" fill="#C5CFE4"/>
<path d="M73.331 21.4403C72.9521 21.4403 72.5817 21.3276 72.2666 21.1163C71.9516 20.905 71.7061 20.6047 71.5611 20.2534C71.4161 19.902 71.3781 19.5154 71.452 19.1424C71.526 18.7694 71.7084 18.4268 71.9763 18.1579C72.2443 17.889 72.5856 17.7059 72.9573 17.6317C73.3289 17.5575 73.7141 17.5956 74.0641 17.7411C74.4142 17.8866 74.7134 18.1331 74.9239 18.4493C75.1344 18.7655 75.2468 19.1372 75.2468 19.5175C75.2468 20.0275 75.0449 20.5166 74.6857 20.8772C74.3264 21.2378 73.8391 21.4403 73.331 21.4403ZM73.331 18.0951C73.0495 18.0943 72.7741 18.1773 72.5398 18.3338C72.3054 18.4902 72.1226 18.713 72.0145 18.9738C71.9064 19.2347 71.8779 19.5219 71.9326 19.799C71.9873 20.0761 72.1228 20.3307 72.3218 20.5304C72.5208 20.7302 72.7745 20.8661 73.0506 20.9211C73.3267 20.976 73.6128 20.9474 73.8727 20.8389C74.1326 20.7304 74.3546 20.5469 74.5104 20.3117C74.6663 20.0764 74.7491 19.8 74.7483 19.5175C74.745 19.142 74.5944 18.783 74.3291 18.5182C74.0637 18.2535 73.7051 18.1044 73.331 18.1033V18.0951Z" fill="#C5CFE4"/>
<path d="M73.331 51.9284C72.3972 51.929 71.473 51.7391 70.6146 51.3701C69.7563 51.0012 68.9815 50.461 68.3376 49.7822C68.757 48.802 69.4535 47.9667 70.341 47.3798C71.2286 46.7928 72.2681 46.48 73.331 46.48C74.3939 46.48 75.4334 46.7928 76.321 47.3798C77.2085 47.9667 77.905 48.802 78.3244 49.7822C77.6804 50.461 76.9057 51.0012 76.0474 51.3701C75.189 51.7391 74.2648 51.929 73.331 51.9284Z" fill="#C5CFE4"/>
<path d="M73.331 52.1763C71.9162 52.1763 70.5333 51.7552 69.357 50.9663C68.1807 50.1773 67.264 49.0559 66.7228 47.744C66.1816 46.432 66.0402 44.9885 66.3165 43.5959C66.5928 42.2033 67.2744 40.9242 68.2751 39.9204C69.2757 38.9166 70.5505 38.2333 71.9382 37.9568C73.3259 37.6803 74.7641 37.823 76.0709 38.367C77.3777 38.9109 78.4945 39.8316 79.2799 41.0127C80.0653 42.1937 80.4841 43.582 80.4832 45.002C80.4811 46.9048 79.7267 48.729 78.3857 50.0741C77.0448 51.4192 75.2268 52.1753 73.331 52.1763ZM73.331 38.3197C72.0142 38.3197 70.727 38.7116 69.6321 39.4459C68.5372 40.1801 67.6839 41.2237 67.18 42.4448C66.6761 43.6658 66.5442 45.0094 66.8011 46.3056C67.058 47.6019 67.6921 48.7925 68.6232 49.7271C69.5543 50.6616 70.7406 51.298 72.0321 51.5559C73.3236 51.8137 74.6623 51.6814 75.8788 51.1756C77.0954 50.6698 78.1352 49.8134 78.8668 48.7145C79.5984 47.6156 79.9888 46.3236 79.9888 45.002C79.9877 43.2301 79.2859 41.531 78.0376 40.2781C76.7892 39.0252 75.0964 38.3208 73.331 38.3197Z" fill="black"/>
<path d="M73.331 45.7879C74.2503 45.7879 74.9955 45.04 74.9955 44.1174C74.9955 43.1947 74.2503 42.4468 73.331 42.4468C72.4118 42.4468 71.6666 43.1947 71.6666 44.1174C71.6666 45.04 72.4118 45.7879 73.331 45.7879Z" fill="#C5CFE4"/>
<path d="M73.331 46.0361C72.9519 46.0361 72.5814 45.9232 72.2662 45.7117C71.9511 45.5003 71.7055 45.1997 71.5607 44.8481C71.4158 44.4965 71.3781 44.1097 71.4523 43.7366C71.5266 43.3635 71.7095 43.0209 71.9778 42.7521C72.2461 42.4834 72.5879 42.3006 72.9598 42.2269C73.3317 42.1531 73.717 42.1918 74.067 42.338C74.417 42.4842 74.7159 42.7312 74.9259 43.048C75.1359 43.3647 75.2476 43.7369 75.2468 44.1174C75.2468 44.3697 75.1972 44.6195 75.1009 44.8526C75.0045 45.0856 74.8634 45.2973 74.6854 45.4756C74.5075 45.6538 74.2962 45.795 74.0638 45.8912C73.8314 45.9874 73.5824 46.0366 73.331 46.0361ZM73.331 42.6908C73.0497 42.69 72.7745 42.7729 72.5402 42.9292C72.3059 43.0854 72.1231 43.308 72.0149 43.5686C71.9067 43.8292 71.8779 44.1161 71.9323 44.3932C71.9867 44.6702 72.1217 44.9247 72.3203 45.1247C72.519 45.3246 72.7722 45.4609 73.0481 45.5163C73.3239 45.5716 73.6099 45.5436 73.8699 45.4358C74.1298 45.3279 74.3521 45.1451 74.5084 44.9104C74.6648 44.6757 74.7483 44.3997 74.7483 44.1174C74.7483 43.7397 74.5991 43.3775 74.3334 43.1101C74.0677 42.8427 73.7073 42.6919 73.331 42.6908Z" fill="#C5CFE4"/>
<path d="M99.3732 18.1406H89.2917V18.6368H99.3732V18.1406Z" fill="black"/>
<path d="M109.632 22.1724H89.2917V22.6686H109.632V22.1724Z" fill="black"/>
<path d="M99.3732 42.7358H89.2917V43.2321H99.3732V42.7358Z" fill="black"/>
<path d="M109.632 46.7676H89.2917V47.2638H109.632V46.7676Z" fill="black"/>
<path d="M43.0676 26.1489H55.8283V13.3413L43.0676 13.3413V26.1489Z" fill="#2BD67B"/>
<path d="M126.952 75.5522C124.341 75.5506 121.755 76.0654 119.343 77.0671C116.93 78.0688 114.738 79.5379 112.891 81.3904C111.044 83.2428 109.579 85.4424 108.579 87.8634C107.58 90.2843 107.065 92.8793 107.065 95.4999H146.814C146.814 90.2116 144.722 85.1397 140.998 81.3992C137.273 77.6586 132.221 75.5555 126.952 75.5522Z" fill="#4070F4"/>
<path d="M114.543 86.4684H109.418V85.9722H114.543C115.428 85.9711 116.276 85.6178 116.901 84.9899C117.527 84.362 117.879 83.5107 117.88 82.6227V77.6606H118.374V82.6227C118.373 83.6423 117.969 84.6198 117.251 85.3408C116.533 86.0618 115.559 86.4673 114.543 86.4684Z" fill="black"/>
<path d="M183 95.5039H0V96.0001H183V95.5039Z" fill="#9999A0"/>
<path fill-rule="evenodd" clip-rule="evenodd" d="M52.8577 16.8591C53.0303 17.0323 53.0303 17.3125 52.8577 17.4857L48.5671 21.7921C48.4889 21.8705 48.3619 21.8705 48.2837 21.7921L46.0383 19.5384C45.8657 19.3652 45.8657 19.085 46.0383 18.9117C46.2117 18.7376 46.4937 18.7376 46.6672 18.9117L48.4254 20.6764L52.2287 16.8591C52.4022 16.685 52.6842 16.685 52.8577 16.8591Z" fill="white"/>
</g>
<defs>
<clipPath id="clip0">
<rect width="183" height="96" fill="white"/>
</clipPath>
</defs>
</svg>
