<svg xmlns="http://www.w3.org/2000/svg" width="644" height="374" viewBox="0 0 644 374">
  <g fill="none" fill-rule="evenodd" transform="translate(1 39)">
    <rect width="108.49" height="268.34" x="149.57" y="13.49" stroke="#254898"/>
    <circle cx="217.36" cy="186.44" r="16.43" fill="#4070F4" fill-rule="nonzero"/>
    <path fill="#254898" fill-rule="nonzero" d="M207.55,199.6 L206.28,192.19 C205.63,183.29 210.76,175.42 218.18,170.04 C217.41306,170.006773 216.644771,170.023412 215.88,170.09 C208.36,175.47 203.15,183.4 203.8,192.37 L204.54,196.68 C205.413417,197.778879 206.425121,198.760333 207.55,199.6 L207.55,199.6 Z"/>
    <path fill="#4070F4" fill-rule="nonzero" d="M258.06,169.31 C253.668853,165.821311 248.347455,163.703186 242.76,163.22 L242.76,163.22 C227.02,161.86 208.35,171.59 206.99,187.32 L205.59,212.78 L258.06,212.78 L258.06,169.31 Z"/>
    <path fill="#2BD67B" fill-rule="nonzero" d="M258.06,108.44 C248.035893,102.926485 235.508153,105.314479 228.215189,114.128913 C220.922226,122.943347 220.922226,135.696653 228.215189,144.511087 C235.508153,153.325521 248.035893,155.713515 258.06,150.2 L258.06,108.44 Z"/>
    <path fill="#254898" fill-rule="nonzero" d="M245.74,137.92 C245.55034,135.569863 244.799299,133.299592 243.55,131.3 C243.322889,130.882725 243.062018,130.484731 242.77,130.11 C243.09,129.87 243.4,129.63 243.72,129.37 C243.72,129.37 240.38,119.91 228.82,120.85 C227.137503,120.968854 225.482387,121.339654 223.91,121.95 C219.915647,134.239525 226.439726,147.473959 238.62,151.79 C243.431737,148.891143 246.189206,143.519499 245.74,137.92 L245.74,137.92 Z"/>
    <circle cx="228.71" cy="139.66" r="14.82" fill="#FFF" fill-rule="nonzero"/>
    <path fill="#254898" fill-rule="nonzero" d="M214.82,134.76 C214.82,134.76 230.58,141.37 241.47,131.76 L239.67,129.76 L215.47,132 L214.82,134.76 Z"/>
    <path fill="#2BD67B" fill-rule="nonzero" d="M213.54,132.17 C213.54,132.17 226.91,141.9 241.47,129.92 C241.47,129.92 238.12,120.46 226.56,121.39 C215,122.32 213.54,132.17 213.54,132.17 Z"/>
    <ellipse cx="233.811" cy="166.149" fill="#254898" fill-rule="nonzero" rx="10.28" ry="2.36" transform="rotate(-10.5 233.811 166.15)"/>
    <path fill="#254898" fill-rule="nonzero" d="M258.06,173.28 C257.085629,173.261231 256.11158,173.331523 255.15,173.49 C246.673367,174.886303 240.708348,182.583972 241.472164,191.140814 C242.23598,199.697657 249.470075,206.217123 258.06,206.09 L258.06,173.28 Z"/>
    <path stroke="#254898" d="M258.06,212.78 L170.35,212.78 C171.19,212.78 218.47,212.78 258.06,212.78 Z"/>
    <polygon fill="#254898" fill-rule="nonzero" points="252.88 212.81 248.38 190.51 243.88 212.81"/>
    <path fill="#DFE6F2" fill-rule="nonzero" d="M258.06,177.33 C251.534587,178.381918 246.904529,184.259701 247.41,190.85 L247.87,212.85 L258.06,212.85 L258.06,177.33 Z"/>
    <path fill="#4070F4" fill-rule="nonzero" d="M258.06,173.61 L257.4,173.68 C249.367438,175.034682 243.54031,182.070487 243.705702,190.214801 C243.871095,198.359115 249.979063,205.152546 258.06,206.18 L258.06,173.61 Z"/>
    <rect width="20.02" height="20.02" x="170.35" y="234.67" stroke="#254898"/>
    <path stroke="#254898" d="M178.03 30.93L211.87 30.57M178.11 39.51L228.11 38.99M170.35 28.16L170.55 42.67"/>
    <rect width="119.86" height="268.34" x="458.4" y="13.49" stroke="#254898"/>
    <path fill="#FFF" fill-rule="nonzero" d="M506.76,159.24 C506.171853,151.008556 499.322429,144.631071 491.07,144.631071 C482.817571,144.631071 475.968147,151.008556 475.38,159.24 L475.33,159.24 L475.33,198.51 L506.82,198.51 L506.82,159.24 L506.76,159.24 Z"/>
    <path fill="#FFF" fill-rule="nonzero" stroke="#254898" d="M499.19,168.18 C499.19,168.18 503.39,172.24 506.82,172.24"/>
    <rect width="66.19" height="28.14" x="458.4" y="184.78" fill="#3D71FF" fill-rule="nonzero"/>
    <path fill="#254898" fill-rule="nonzero" d="M458.4,184.77 L458.4,199.77 L468.92,213.24 L508.36,213.44 C516.43,200.97 524.59,188.51 524.59,188.51 L524.59,184.51 L458.4,184.77 Z"/>
    <polygon fill="#2BD67B" fill-rule="nonzero" points="491.28 177.88 458.39 183.59 458.39 189.42 477.3 213.26 506.8 213.26 527.81 182.31"/>
    <polygon fill="#FFF" fill-rule="nonzero" stroke="#254898" points="508.8 186.24 491.28 196.14 473.77 186.24 491.28 178.63"/>
    <path fill="#FFF" fill-rule="nonzero" stroke="#254898" d="M491.28 196.14L491.28 178.63M491.07 144.62L491.07 129.13"/>
    <circle cx="491.03" cy="123.81" r="5.58" fill="#FFF" fill-rule="nonzero"/>
    <path fill="#FFF" fill-rule="nonzero" stroke="#254898" d="M491.03 118.23L491.03 111.16M494.04 119.12L499.19 113.97M487.52 119.12L482.57 114.17"/>
    <circle cx="491.03" cy="123.71" r="1.68" fill="#3D71FF" fill-rule="nonzero"/>
    <polygon fill="#254898" fill-rule="nonzero" points="473.97 185.73 464.59 189.5 491.28 196.14"/>
    <path stroke="#254898" d="M458.4,212.78 L458.4,212.78 C499.98,212.78 557.47,212.78 557.47,212.78 L458.4,212.78 Z"/>
    <polygon fill="#FFD0D1" fill-rule="nonzero" points="581.56 224.58 620.12 224.58 579.92 264.78 541.36 264.78"/>
    <polyline stroke="#254898" points="619.33 119.34 642.47 142.48 616.46 168.48"/>
    <polyline stroke="#254898" points="99.84 119.34 76.71 142.48 102.71 168.48"/>
    <polygon fill="#4070F4" fill-rule="nonzero" points="37.34 56.74 73.17 56.74 35.83 19.4 0 19.4"/>
    <rect width="200.34" height="294.33" x="258.06" y=".5" stroke="#254898"/>
    <path fill="#4070F4" fill-rule="nonzero" d="M422.53,219.09 C422.59,217.96 422.64,216.83 422.64,215.69 C423.388766,193.777962 412.126091,173.202218 393.264679,162.024327 C374.403268,150.846436 350.946732,150.846436 332.085321,162.024327 C313.223909,173.202218 301.961234,193.777962 302.71,215.69 C302.71,216.83 302.71,217.96 302.81,219.09 L422.53,219.09 Z"/>
    <path fill="#FFF" fill-rule="nonzero" d="M344.08,127.44 C344.08,137.706973 352.403027,146.03 362.67,146.03 C372.936973,146.03 381.260104,137.706973 381.260104,127.44 C381.264208,126.193918 381.140222,124.950708 380.89,123.73 L344.45,123.73 C344.204691,124.951449 344.080755,126.194161 344.08,127.44 Z"/>
    <path stroke="#254898" d="M363.71,156.91 C335.777387,162.611721 315.713684,187.181396 315.71,215.69 C315.71,216.83 315.71,217.96 315.81,219.09"/>
    <path fill="#254898" fill-rule="nonzero" d="M363,160.54 C369.57,160.54 375,159.02 375.65,157.07 C367.316071,155.270131 358.693929,155.270131 350.36,157.07 C351,159 356.43,160.54 363,160.54 Z"/>
    <circle cx="356.24" cy="129.81" r="5.22" fill="#254898" fill-rule="nonzero"/>
    <path fill="#FFD0D1" fill-rule="nonzero" d="M382.72,121.53 C380.217055,112.524462 372.016895,106.292576 362.67,106.292576 C353.323105,106.292576 345.122945,112.524462 342.62,121.53 L382.72,121.53 Z"/>
    <path stroke="#254898" d="M284.38,219.09 C285.98,219.17 439.13,219.09 439.13,219.09"/>
    <rect width="6.19" height="268.34" x="458.4" y="13.49" fill="#254898" fill-rule="nonzero"/>
    <rect width="28.14" height="28.14" x="288.95" y="244.21" stroke="#254898"/>
    <polyline stroke="#254898" points="296.01 261.38 301.23 267.66 312.85 252.33"/>
    <path stroke="#254898" d="M287.35 52.31L347.25 51.68M287.44 32.38L327.99 31.96M287.55 42.67L347.45 42.05M278.24 29.07L278.49 52.82"/>
  </g>
</svg>
