<svg width="299" height="219" viewBox="0 0 299 219" fill="none" xmlns="http://www.w3.org/2000/svg">
<path d="M115.247 195.464L109.92 202.556L105.474 202.589L68.6055 202.72L73.5409 195.693L91.6812 154.934L94.0999 149.476L115.247 195.464Z" fill="#F7F9FB"/>
<path d="M115.248 195.464L109.92 202.556L105.475 202.589L110.508 196.085L91.6816 154.934L94.1003 149.476L115.248 195.464Z" fill="#DFE6F2"/>
<path d="M76.1231 190.169L73.5409 195.693L68.6055 202.72L120.804 202.328L114.365 189.973L76.1231 190.169Z" fill="#0C152E"/>
<path d="M107.861 189.973L110.705 195.627L105.639 202.328H120.805L114.366 189.973H107.861Z" fill="#0C152E"/>
<path d="M184.833 77.9279C164.732 77.9279 147.082 91.5903 146.134 111.463L113.056 114.927C96.7792 115.549 86.3526 132.512 93.1184 147.318L115.181 195.562L109.821 202.524H164.699L148.095 152.189L182.741 152.973C182.741 152.973 184.114 153.006 184.8 153.006C205.523 153.006 222.356 136.14 222.356 115.418C222.356 94.6954 205.555 77.9279 184.833 77.9279Z" fill="#F7F9FB" stroke="#0C142E" stroke-miterlimit="10" stroke-linecap="round" stroke-linejoin="round"/>
<path d="M160.417 189.875L164.667 202.524H109.854L115.312 195.562L112.73 189.973L160.417 189.875Z" fill="#0C152E"/>
<path d="M132.44 39.3266C140.256 39.3266 146.592 32.9902 146.592 25.1739C146.592 17.3576 140.256 11.0212 132.44 11.0212C124.623 11.0212 118.287 17.3576 118.287 25.1739C118.287 32.9902 124.623 39.3266 132.44 39.3266Z" fill="#F7F9FB" stroke="#0C152E" stroke-miterlimit="10"/>
<path d="M132.439 11.0212C131.426 11.0212 130.413 11.1193 129.465 11.3481C135.838 12.7209 140.643 18.3754 140.643 25.1739C140.643 31.9724 135.871 37.627 129.465 38.9998C130.413 39.1959 131.426 39.3266 132.439 39.3266C140.251 39.3266 146.592 32.9857 146.592 25.1739C146.592 17.3622 140.251 11.0212 132.439 11.0212Z" fill="#DFE6F2"/>
<path d="M117.274 92.9957L96.3232 92.3093L75.3066 69.8219H95.4407L117.274 92.9957Z" fill="#F7F9FB" stroke="#0C152E" stroke-miterlimit="10"/>
<path d="M131.917 96.395C139.174 96.395 145.056 90.5122 145.056 83.2555C145.056 75.9988 139.174 70.1161 131.917 70.1161C124.66 70.1161 118.777 75.9988 118.777 83.2555C118.777 90.5122 124.66 96.395 131.917 96.395Z" fill="#DFE6F2" stroke="#0C152E" stroke-miterlimit="10"/>
<path d="M80.2421 69.8546L102.01 92.5054L96.4213 92.3093L75.3066 69.8219L80.2421 69.8546Z" fill="#0C152E" stroke="#0C152E" stroke-miterlimit="10"/>
<path d="M163.947 87.3085L152.998 103.259L148.553 110.711L163.915 109.632L163.947 87.3085Z" fill="#0C142E"/>
<path d="M132.44 39.3266C140.256 39.3266 146.592 32.9902 146.592 25.1739C146.592 17.3576 140.256 11.0212 132.44 11.0212C124.623 11.0212 118.287 17.3576 118.287 25.1739C118.287 32.9902 124.623 39.3266 132.44 39.3266Z" stroke="#0C152E" stroke-miterlimit="10"/>
<path d="M213.989 152.973H182.121V202.328H213.989V152.973Z" fill="#F7F9FB" stroke="#0C152E" stroke-miterlimit="10"/>
<path d="M144.598 113.98L222.258 114.764C222.258 114.764 221.767 108.619 220.623 104.828C219.643 101.625 146.167 110.711 146.167 110.711L144.598 113.98Z" fill="#DFE6F2"/>
<path d="M184.833 77.9279C164.732 77.9279 147.082 91.5903 146.134 111.463L113.056 114.927C96.7792 115.549 86.3526 132.512 93.1184 147.318L115.181 195.562L109.821 202.524H164.699L148.095 152.189L182.741 152.973C182.741 152.973 184.114 153.006 184.8 153.006C205.523 153.006 222.356 136.14 222.356 115.418C222.356 94.6954 205.555 77.9279 184.833 77.9279Z" stroke="#0C142E" stroke-miterlimit="10" stroke-linecap="round" stroke-linejoin="round"/>
<path d="M94.0999 149.476L73.5409 195.693L68.6055 202.72L109.92 202.556L115.247 195.464L94.0999 149.476Z" stroke="#0C142E" stroke-miterlimit="10" stroke-linecap="round" stroke-linejoin="round"/>
<path d="M222.292 105.841C222.292 105.841 215.493 80.6733 198.105 60.9642L198.072 60.9969C190.914 52.4987 179.801 47.0403 167.315 47.0403C145.743 47.0403 128.289 63.3175 128.289 83.4189C128.289 83.7784 128.289 84.138 128.322 84.4975L128.616 112.247L152.084 110.45L196.568 107.573L222.292 105.841Z" fill="#2BD67B"/>
<path d="M127.242 119.7C121.032 119.7 113.809 118.784 108.023 117.575C102.009 116.3 96.8122 114.601 92.5958 112.509C85.2416 108.848 80.4696 103.815 78.4104 97.5716C75.8283 89.6618 80.1428 81.1637 88.0526 78.5815C94.9818 76.3263 102.369 79.366 105.833 85.4454C107.337 86.1972 110.736 87.5373 116.619 88.5505C120.346 89.2042 123.712 89.4984 126.065 89.5638C127.7 87.3085 130.576 82.8633 135.021 74.594C139.172 66.8476 142.473 59.8203 142.506 59.7549C146.036 52.2373 155.025 49.0015 162.542 52.5315C170.06 56.0615 173.296 65.0499 169.766 72.5675C169.569 72.9597 165.222 82.2423 159.895 91.8844C156.659 97.7678 153.684 102.638 151.102 106.299C147.376 111.626 142.604 117.281 135.642 118.915C133.322 119.471 130.413 119.7 127.242 119.7Z" fill="#F7F9FB" stroke="#0C152E" stroke-miterlimit="10"/>
<path d="M129.76 84.3014L128.387 86.4913L151.397 105.547L154.829 100.415L129.76 84.3014Z" fill="#DFE6F2"/>
<path d="M138.486 64.4942C138.486 64.4942 129.465 73.1231 128.713 84.2687L159.208 105.122C161.463 104.599 175.257 69.5604 175.257 69.5604C175.257 69.5604 174.864 50.08 166.072 48.7726C157.28 47.4652 146.036 53.6427 146.036 53.6427L138.486 64.4942Z" fill="#2BD67B"/>
<path d="M150.423 54.0894C153.337 52.7347 155.496 51.1986 155.244 50.6584C154.993 50.1183 152.428 50.7785 149.514 52.1332C146.6 53.4879 144.442 55.024 144.693 55.5641C144.944 56.1043 147.51 55.4441 150.423 54.0894Z" fill="#0C152E" stroke="#0C152E" stroke-miterlimit="10"/>
<path d="M252.23 152.254C258.211 143.298 272.135 148.299 278.803 136.271C285.013 125.125 273.377 115.254 262.591 121.759C251.576 128.426 250.792 144.017 252.23 152.254Z" fill="#2CD67B" stroke="#2CD67B" stroke-miterlimit="10" stroke-linecap="round" stroke-linejoin="round"/>
<path d="M244.353 159.673C245.268 153.202 246.02 142.971 238.829 138.003C233.142 134.048 225.363 139.114 227.618 146.24C230.396 154.803 241.117 154.052 244.353 159.673Z" fill="#2CD67B" stroke="#2CD67B" stroke-miterlimit="10" stroke-linecap="round" stroke-linejoin="round"/>
<path d="M249.582 169.512C249.811 147.515 261.055 134.146 270.206 129.505" stroke="#0C152E" stroke-miterlimit="10" stroke-linecap="round" stroke-linejoin="round"/>
<path d="M236.018 146.142C241.901 151.47 245.758 159.935 245.856 169.544" stroke="#0C142E" stroke-miterlimit="10" stroke-linecap="round" stroke-linejoin="round"/>
<path d="M254.943 163.824C255.107 160.033 256.414 154.542 259.552 152.254C263.67 149.247 268.181 153.594 265.533 157.516C262.788 161.536 257.231 160.85 254.943 163.824Z" fill="#2CD67B" stroke="#2CD67B" stroke-miterlimit="10" stroke-linecap="round" stroke-linejoin="round"/>
<path d="M260.565 156.634C256.904 159.02 254.126 163.269 253.799 169.512" stroke="#0C142E" stroke-miterlimit="10" stroke-linecap="round" stroke-linejoin="round"/>
<path d="M255.858 202.556H243.438C238.96 202.556 235.169 199.255 234.58 194.81L231.148 169.512H268.148L264.749 194.81C264.128 199.255 260.336 202.556 255.858 202.556Z" fill="#DFE6F2" stroke="#0C152E" stroke-miterlimit="10" stroke-linecap="round" stroke-linejoin="round"/>
<path d="M254.715 194.81L255.859 169.512H268.149L264.749 194.81C264.161 199.255 260.37 202.556 255.892 202.556H251.773C253.244 202.556 254.519 199.255 254.715 194.81Z" fill="#0C152E" stroke="#0C152E" stroke-miterlimit="10" stroke-linecap="round" stroke-linejoin="round"/>
<path d="M53.9629 202.72H295.18" stroke="#0C152E" stroke-miterlimit="10" stroke-linecap="round" stroke-linejoin="round"/>
</svg>
