<?xml version="1.0" encoding="UTF-8"?>
<svg width="128px" height="107px" viewBox="0 0 128 107" version="1.1" xmlns="http://www.w3.org/2000/svg" xmlns:xlink="http://www.w3.org/1999/xlink">
    <!-- Generator: sketchtool 55.1 (78136) - https://sketchapp.com -->
    <title>29C78659-A653-4F95-B580-7147EA371309</title>
    <desc>Created with sketchtool.</desc>
    <g id="🔄--4.0-Transactions" stroke="none" stroke-width="1" fill="none" fill-rule="evenodd">
        <g id="4.2.7-Transaction---Failed" transform="translate(-609.000000, -189.000000)">
            <g id="tx-failed" transform="translate(610.000000, 190.000000)">
                <polygon id="Fill-1" fill="#DFE6F2" points="31.4049245 97.1992936 101.521669 97.1992936 101.521669 94.591017 28.7109457 94.3970596"></polygon>
                <g id="Group-4" transform="translate(0.000000, 105.016117)" stroke="#101C3D" stroke-linecap="round">
                    <path d="M0.281971277,0.282140426 L126.186854,0.282140426" id="Stroke-2"></path>
                </g>
                <polygon id="Stroke-5" stroke="#101C3D" stroke-linecap="round" points="28.7107766 94.3969468 114.482819 94.3969468 114.482819 83.4958617 28.7107766 83.4958617"></polygon>
                <path d="M84.2741723,83.4961436 L84.2741723,93.9303777" id="Stroke-6" stroke="#0C152E" stroke-linecap="round"></path>
                <path d="M70.2562926,83.4961436 L70.2562926,93.9303777" id="Stroke-7" stroke="#0C152E" stroke-linecap="round"></path>
                <path d="M99.1434915,83.4961436 L99.1434915,93.9303777" id="Stroke-8" stroke="#0C152E" stroke-linecap="round"></path>
                <g id="Group-26" transform="translate(15.223404, 0.143777)">
                    <polygon id="Stroke-9" stroke="#101C3D" stroke-linecap="round" points="0.525489362 105.154255 86.2980957 105.154255 86.2980957 94.2531702 0.525489362 94.2531702"></polygon>
                    <path d="M19.4992638,94.7203596 L19.4992638,105.154594" id="Stroke-11" stroke="#0C152E" stroke-linecap="round"></path>
                    <path d="M33.0377755,94.7203596 L33.0377755,105.154594" id="Stroke-12" stroke="#0C152E" stroke-linecap="round"></path>
                    <path d="M58.4577596,73.1918723 C38.3087383,73.1918723 21.9745894,56.8565957 21.9745894,36.7064468 C21.9745894,16.5562979 38.3087383,0.220457447 58.4577596,0.220457447 C58.8930362,0.220457447 59.3266213,0.231170213 59.7579511,0.246393617 L59.7579511,0.220457447 C59.7579511,0.220457447 13.7060255,-3.36775532 14.3042489,36.7064468 C14.9019085,76.7806489 59.7579511,73.1918723 59.7579511,73.1918723 L59.7579511,73.1665 C59.3266213,73.1811596 58.8930362,73.1918723 58.4577596,73.1918723" id="Fill-13" fill="#DFE6F2"></path>
                    <path d="M58.4577596,73.1918723 C38.3087383,73.1918723 21.9745894,56.8565957 21.9745894,36.7064468 C21.9745894,16.5562979 38.3087383,0.220457447 58.4577596,0.220457447 C58.8930362,0.220457447 59.3266213,0.231170213 59.7579511,0.246393617 L59.7579511,0.220457447 C59.7579511,0.220457447 13.7060255,-3.36775532 14.3042489,36.7064468 C14.9019085,76.7806489 59.7579511,73.1918723 59.7579511,73.1918723 L59.7579511,73.1665 C59.3266213,73.1811596 58.8930362,73.1918723 58.4577596,73.1918723 Z" id="Stroke-14" stroke="#101C3D"></path>
                    <path d="M94.9406479,36.7064468 C94.9406479,56.8565957 78.6064989,73.1918723 58.4574777,73.1918723 C38.3090202,73.1918723 21.9748713,56.8565957 21.9748713,36.7064468 C21.9748713,16.5562979 38.3090202,0.220457447 58.4574777,0.220457447 C78.6064989,0.220457447 94.9406479,16.5562979 94.9406479,36.7064468 Z" id="Stroke-15" stroke="#0C152E"></path>
                    <path d="M58.4577596,5.13970319 C58.0162809,5.13970319 57.5776213,5.15154362 57.1406532,5.16958617 C73.9613872,5.86027766 87.3867383,19.7147032 87.3867383,36.7062777 C87.3867383,53.698416 73.9613872,67.5522777 57.1406532,68.243533 C57.5776213,68.2610117 58.0162809,68.2728521 58.4577596,68.2728521 C75.8896851,68.2728521 90.0220787,54.1398947 90.0220787,36.7062777 C90.0220787,19.2726606 75.8896851,5.13970319 58.4577596,5.13970319" id="Fill-16" fill="#DFE6F2"></path>
                    <path d="M90.0220223,36.7064468 C90.0220223,54.1400638 75.8901926,68.2724574 58.4577032,68.2724574 C41.0257777,68.2724574 26.8939479,54.1400638 26.8939479,36.7064468 C26.8939479,19.2728298 41.0257777,5.14043617 58.4577032,5.14043617 C75.8901926,5.14043617 90.0220223,19.2728298 90.0220223,36.7064468 Z" id="Stroke-17" stroke="#101C3D" stroke-linecap="round"></path>
                    <path d="M94.9406479,36.7064468 C94.9406479,56.8565957 78.6064989,73.1918723 58.4574777,73.1918723 C38.3090202,73.1918723 21.9748713,56.8565957 21.9748713,36.7064468 C21.9748713,16.5562979 38.3090202,0.220457447 58.4574777,0.220457447 C78.6064989,0.220457447 94.9406479,16.5562979 94.9406479,36.7064468 Z" id="Stroke-18" stroke="#101C3D" stroke-linecap="round"></path>
                    <polygon id="Fill-19" fill="#3D71FF" points="50.8298191 35.5363872 57.6087447 42.3147489 64.3876702 35.5363872 57.6087447 28.7580255"></polygon>
                    <path d="M16.4150021,49.7912447 L24.3734596,49.7912447" id="Stroke-20" stroke="#101C3D" stroke-linecap="round"></path>
                    <path d="M17.9822798,20.2860319 L25.9311521,20.2860319" id="Stroke-21" stroke="#101C3D" stroke-linecap="round"></path>
                    <path d="M23.4278606,61.0331649 L31.2493074,61.0331649" id="Stroke-22" stroke="#101C3D" stroke-linecap="round"></path>
                    <polygon id="Fill-23" fill="#EC6868" points="80.4579468 27.4393404 100.83983 27.4393404 100.83983 7.05745745 80.4579468 7.05745745"></polygon>
                    <path d="M86.6924383,21.7335521 L94.6052255,12.7641479" id="Stroke-24" stroke="#FFFFFF"></path>
                    <path d="M86.6924383,12.7640351 L94.6052255,21.7334394" id="Stroke-25" stroke="#FFFFFF"></path>
                </g>
            </g>
        </g>
    </g>
</svg>