<svg width="281" height="205" viewBox="0 0 281 205" fill="none" xmlns="http://www.w3.org/2000/svg">
<path d="M78.341 58.3155C117.088 20.2723 179.91 20.2723 218.658 58.3155L223.321 62.8939C225.258 64.7963 225.258 67.8801 223.321 69.7825L207.369 85.4447C206.4 86.3959 204.83 86.3959 203.861 85.4447L197.444 79.1443C170.412 52.6042 126.586 52.6042 99.5549 79.1443L92.6824 85.8914C91.7141 86.8426 90.1437 86.8426 89.1747 85.8914L73.2227 70.2292C71.2848 68.3268 71.2848 65.243 73.2227 63.3406L78.341 58.3155ZM251.649 90.707L265.846 104.646C267.784 106.549 267.784 109.632 265.846 111.535L201.829 174.39C199.891 176.292 196.75 176.292 194.813 174.39L149.377 129.78C148.892 129.304 148.107 129.304 147.622 129.78L102.188 174.39C100.25 176.292 97.1089 176.292 95.1716 174.39L31.1522 111.534C29.2149 109.632 29.2149 106.548 31.1522 104.645L45.3498 90.7057C47.2872 88.804 50.4283 88.804 52.3657 90.7057L97.8026 135.317C98.2864 135.792 99.0716 135.792 99.5561 135.317L144.99 90.7057C146.928 88.804 150.069 88.804 152.006 90.7057L197.443 135.317C197.927 135.792 198.713 135.792 199.197 135.317L244.633 90.707C246.57 88.8046 249.711 88.8046 251.649 90.707Z" fill="url(#paint0_linear_4728_295966)"/>
<path d="M78.341 58.3156C117.088 20.2724 179.91 20.2724 218.658 58.3156L223.321 62.894C225.258 64.7964 225.258 67.8802 223.321 69.7826L207.369 85.4448C206.4 86.396 204.83 86.396 203.861 85.4448L197.444 79.1444C170.412 52.6043 126.586 52.6043 99.5549 79.1444L92.6824 85.8915C91.7141 86.8427 90.1437 86.8427 89.1747 85.8915L73.2227 70.2293C71.2848 68.3269 71.2848 65.2431 73.2227 63.3407L78.341 58.3156ZM251.649 90.7071L265.846 104.646C267.784 106.549 267.784 109.632 265.846 111.535L201.829 174.39C199.891 176.292 196.75 176.292 194.813 174.39L149.377 129.78C148.892 129.304 148.107 129.304 147.622 129.78L102.188 174.39C100.25 176.292 97.1089 176.292 95.1716 174.39L31.1522 111.534C29.2149 109.632 29.2149 106.548 31.1522 104.646L45.3498 90.7059C47.2872 88.8041 50.4283 88.8041 52.3657 90.7059L97.8026 135.317C98.2864 135.793 99.0716 135.793 99.5561 135.317L144.99 90.7059C146.928 88.8041 150.069 88.8041 152.006 90.7059L197.443 135.317C197.927 135.793 198.713 135.793 199.197 135.317L244.633 90.7071C246.57 88.8047 249.711 88.8047 251.649 90.7071Z" fill="url(#paint1_linear_4728_295966)"/>
<defs>
<linearGradient id="paint0_linear_4728_295966" x1="148.499" y1="53.9999" x2="148.499" y2="98.9999" gradientUnits="userSpaceOnUse">
<stop stop-color="white" stop-opacity="0"/>
<stop offset="1" stop-color="white"/>
</linearGradient>
<linearGradient id="paint1_linear_4728_295966" x1="148.499" y1="53.5" x2="148.499" y2="65" gradientUnits="userSpaceOnUse">
<stop stop-color="#254898"/>
<stop offset="1" stop-color="#254898" stop-opacity="0"/>
</linearGradient>
</defs>
</svg>
