<svg width="385" height="116" viewBox="0 0 385 116" fill="none" xmlns="http://www.w3.org/2000/svg">
<g clip-path="url(#clip0_4728_298868)">
<path d="M53.6383 107.124C83.1778 107.124 107.124 83.1771 107.124 53.6377C107.124 24.0982 83.1778 0.151733 53.6383 0.151733C24.0988 0.151733 0.152344 24.0982 0.152344 53.6377C0.152344 83.1771 24.0988 107.124 53.6383 107.124Z" fill="#F7F9FB" stroke="#0C152E" stroke-width="0.5" stroke-miterlimit="10"/>
<mask id="mask0_4728_298868" style="mask-type:luminance" maskUnits="userSpaceOnUse" x="25" y="90" width="57" height="26">
<path d="M81.1783 90.8123V110.158L48.4798 116L25.4922 110.158V90.5847" fill="white"/>
</mask>
<g mask="url(#mask0_4728_298868)">
<path d="M53.6383 107.124C83.1778 107.124 107.124 83.1771 107.124 53.6377C107.124 24.0982 83.1778 0.151733 53.6383 0.151733C24.0988 0.151733 0.152344 24.0982 0.152344 53.6377C0.152344 83.1771 24.0988 107.124 53.6383 107.124Z" fill="#0C152E"/>
</g>
<path d="M105.151 93.1641C104.392 93.1641 103.634 93.0882 102.875 92.8606C102.723 92.7847 84.06 88.081 69.4178 90.8881C68.8867 90.9639 68.2798 91.0398 67.7487 91.0398C63.5002 91.0398 59.7827 88.081 58.9482 83.7566C58.0378 78.9012 61.2242 74.1974 66.0797 73.287C84.7428 69.7213 106.441 75.3354 107.351 75.563C112.131 76.7769 115.014 81.7082 113.724 86.4878C112.738 90.5087 109.172 93.1641 105.151 93.1641Z" fill="#DFE6F2" stroke="#0C152E" stroke-width="0.5" stroke-miterlimit="10"/>
<path d="M72.9082 55.3826C72.9082 55.3826 82.0881 58.0379 85.5779 72.6802L80.7983 74.9561" fill="#4070F4"/>
<path d="M26.4776 90.8123C26.4776 90.8123 17.2977 44.6095 54.3206 46.5062C88.6123 48.6304 81.1774 90.8123 81.1774 90.8123" fill="#4070F4"/>
<path d="M50.9821 50.6788C53.7056 50.6788 55.9134 50.0674 55.9134 49.3132C55.9134 48.559 53.7056 47.9476 50.9821 47.9476C48.2586 47.9476 46.0508 48.559 46.0508 49.3132C46.0508 50.0674 48.2586 50.6788 50.9821 50.6788Z" fill="#0C152E"/>
<path d="M33.3821 90.5847C33.3821 90.5847 33.0028 65.0176 33.989 62.2106C33.989 62.2106 24.8092 90.5847 27.4645 90.5847C30.1198 90.5847 33.3821 90.5847 33.3821 90.5847Z" fill="#0C152E"/>
<path d="M55.6105 110.158C54.2449 110.158 52.8793 109.855 51.5896 109.248L48.4032 107.73C42.1062 106.289 36.3404 106.744 31.7125 107.124C28.4503 107.351 25.5673 107.579 22.8361 107.199C15.3253 106.137 12.67 100.902 11.9113 98.6265C10.8492 95.6677 10.0147 90.5088 12.67 77.1562C13.9597 70.6317 19.1945 70.9352 19.2704 70.7076C20.636 65.7763 20.4843 64.7141 25.4156 66.0797C30.3469 67.4453 32.6988 67.4453 31.2573 72.3767C31.2573 72.5284 32.0919 74.5768 30.9539 80.115C30.1952 83.9842 29.74 86.7154 29.5883 88.688C29.8159 88.688 30.0435 88.688 30.2711 88.6121C35.9611 88.1569 41.7269 87.7776 47.4169 88.4604C51.893 88.9914 55.6105 90.5846 59.6314 92.4813C64.2593 94.6814 66.156 100.22 63.9558 104.848C62.3626 108.262 59.0245 110.158 55.6105 110.158Z" fill="#F7F9FB" stroke="#0C152E" stroke-width="0.5" stroke-miterlimit="10"/>
<path d="M10.8496 81.86C10.8496 81.86 15.5533 58.7207 37.327 50.6788C34.7476 60.3139 32.3957 70.48 31.4853 85.3499C24.8091 85.0464 16.312 83.6049 10.8496 81.86Z" fill="#4070F4"/>
<path d="M63.0449 48.327C63.0449 48.327 75.5629 51.3617 79.9632 66.3074" stroke="#0C152E" stroke-width="0.5" stroke-miterlimit="10"/>
<path d="M34.5199 61.5277C34.5199 61.5277 33.1543 70.0248 33.1543 72.6801" stroke="#0C152E" stroke-width="0.5" stroke-miterlimit="10"/>
<path d="M51.7417 38.3885C58.2362 38.3885 63.5011 33.1237 63.5011 26.6292C63.5011 20.1347 58.2362 14.8699 51.7417 14.8699C45.2472 14.8699 39.9824 20.1347 39.9824 26.6292C39.9824 33.1237 45.2472 38.3885 51.7417 38.3885Z" fill="white"/>
<path d="M55.6109 36.4918C49.0864 36.4918 43.8516 31.1811 43.8516 24.7325C43.8516 20.8633 45.7483 17.4493 48.6312 15.2491C43.624 16.6147 39.9824 21.1667 39.9824 26.6291C39.9824 33.1537 45.2931 38.3885 51.7417 38.3885C54.3971 38.3885 56.8248 37.5539 58.7973 36.0366C57.7352 36.3401 56.6731 36.4918 55.6109 36.4918Z" fill="#DFE6F2"/>
<path d="M51.7417 38.3885C58.2362 38.3885 63.5011 33.1237 63.5011 26.6292C63.5011 20.1347 58.2362 14.8699 51.7417 14.8699C45.2472 14.8699 39.9824 20.1347 39.9824 26.6292C39.9824 33.1237 45.2472 38.3885 51.7417 38.3885Z" stroke="#0C152E" stroke-width="0.5" stroke-miterlimit="10"/>
<path d="M300.054 55.0791H107.125" stroke="#0C152E" stroke-width="0.5" stroke-miterlimit="10"/>
<path d="M330.703 107.124C360.242 107.124 384.189 83.1771 384.189 53.6377C384.189 24.0982 360.242 0.151733 330.703 0.151733C301.163 0.151733 277.217 24.0982 277.217 53.6377C277.217 83.1771 301.163 107.124 330.703 107.124Z" fill="#F7F9FB" stroke="#0C152E" stroke-width="0.5" stroke-miterlimit="10"/>
<path d="M347.697 18.8149C349.666 18.8149 351.262 17.2185 351.262 15.2492C351.262 13.2799 349.666 11.6835 347.697 11.6835C345.727 11.6835 344.131 13.2799 344.131 15.2492C344.131 17.2185 345.727 18.8149 347.697 18.8149Z" fill="#0C152E"/>
<mask id="mask1_4728_298868" style="mask-type:luminance" maskUnits="userSpaceOnUse" x="303" y="90" width="56" height="26">
<path d="M303.238 90.8123V110.158L335.861 116L358.848 110.158V90.5847" fill="white"/>
</mask>
<g mask="url(#mask1_4728_298868)">
<path d="M330.703 107.124C360.242 107.124 384.189 83.1771 384.189 53.6377C384.189 24.0982 360.242 0.151733 330.703 0.151733C301.163 0.151733 277.217 24.0982 277.217 53.6377C277.217 83.1771 301.163 107.124 330.703 107.124Z" fill="#0C152E"/>
</g>
<path d="M279.189 93.1641C279.948 93.1641 280.707 93.0882 281.465 92.8606C281.617 92.7847 300.28 88.081 314.923 90.8881C315.454 90.9639 316.061 91.0398 316.592 91.0398C320.84 91.0398 324.558 88.081 325.392 83.7566C326.303 78.9012 323.116 74.1974 318.261 73.287C299.598 69.7213 277.9 75.3354 276.989 75.563C272.21 76.7769 269.327 81.7082 270.617 86.4878C271.603 90.5087 275.244 93.1641 279.189 93.1641Z" fill="#DFE6F2" stroke="#0C152E" stroke-width="0.5" stroke-miterlimit="10"/>
<path d="M311.433 55.3826C311.433 55.3826 302.254 58.0379 298.764 72.6802L303.543 74.9561" fill="#F7E36D"/>
<path d="M357.862 90.8123C357.862 90.8123 367.042 44.6095 330.019 46.5062C295.728 48.6304 303.163 90.8123 303.163 90.8123" fill="#F7E36D"/>
<path d="M333.359 50.6788C336.083 50.6788 338.29 50.0674 338.29 49.3132C338.29 48.559 336.083 47.9476 333.359 47.9476C330.636 47.9476 328.428 48.559 328.428 49.3132C328.428 50.0674 330.636 50.6788 333.359 50.6788Z" fill="#0C152E"/>
<path d="M350.959 90.5847C350.959 90.5847 351.338 65.0176 350.352 62.2106C350.352 62.2106 359.531 90.5847 356.876 90.5847C354.145 90.5847 350.959 90.5847 350.959 90.5847Z" fill="#0C152E"/>
<path d="M320.385 104.923C318.185 100.296 320.082 94.7574 324.71 92.5572C328.731 90.6606 332.448 89.0674 336.924 88.5363C342.614 87.8535 348.38 88.2328 354.07 88.688C354.298 88.688 354.525 88.688 354.753 88.7639C354.525 86.7914 354.146 84.0602 353.387 80.191C352.249 74.7286 353.16 72.6043 353.084 72.4526C351.718 67.5213 353.994 67.5212 358.925 66.1557C363.857 64.7901 363.705 65.8522 365.071 70.7835C365.147 71.0111 370.305 70.7076 371.671 77.2322C374.326 90.5847 373.492 95.6678 372.43 98.7024C371.671 100.903 369.016 106.213 361.505 107.275C358.774 107.655 355.891 107.427 352.629 107.199C348.001 106.82 342.235 106.365 335.938 107.806L332.752 109.324C331.462 109.931 330.096 110.234 328.731 110.234C325.317 110.158 321.978 108.262 320.385 104.923Z" fill="#F7F9FB" stroke="#0C152E" stroke-width="0.5" stroke-miterlimit="10"/>
<path d="M373.567 81.86C373.567 81.86 368.864 58.7207 347.09 50.6788C349.669 60.3139 352.021 70.48 352.932 85.3499C359.532 85.0464 368.029 83.6049 373.567 81.86Z" fill="#F7E36D"/>
<path d="M321.295 48.327C321.295 48.327 308.777 51.3617 304.377 66.3074" stroke="#0C152E" stroke-width="0.5" stroke-miterlimit="10"/>
<path d="M349.82 61.5277C349.82 61.5277 351.186 70.0248 351.186 72.6801" stroke="#0C152E" stroke-width="0.5" stroke-miterlimit="10"/>
<path d="M332.599 38.3884C339.094 38.3884 344.358 33.1236 344.358 26.6291C344.358 20.1346 339.094 14.8698 332.599 14.8698C326.105 14.8698 320.84 20.1346 320.84 26.6291C320.84 33.1236 326.105 38.3884 332.599 38.3884Z" fill="white"/>
<path d="M328.729 36.4917C335.254 36.4917 340.489 31.181 340.489 24.7323C340.489 20.8631 338.592 17.4492 335.709 15.249C340.716 16.6146 344.358 21.1666 344.358 26.629C344.358 33.1535 339.047 38.3883 332.599 38.3883C329.943 38.3883 327.515 37.5538 325.543 36.0365C326.605 36.3399 327.667 36.4917 328.729 36.4917Z" fill="#DFE6F2"/>
<path d="M332.599 14.7939C339.124 14.7939 344.359 20.1046 344.359 26.5533C344.359 27.0843 344.359 27.5395 344.283 28.0706C343.6 27.3119 342.386 26.7809 340.565 26.7809C331.158 28.0706 329.261 17.3734 329.261 17.3734C326.833 22.6841 321.978 23.0634 321.371 23.0634C322.888 18.2838 327.365 14.7939 332.599 14.7939Z" fill="#0C152E"/>
<path d="M332.599 38.3884C339.094 38.3884 344.358 33.1236 344.358 26.6291C344.358 20.1346 339.094 14.8698 332.599 14.8698C326.105 14.8698 320.84 20.1346 320.84 26.6291C320.84 33.1236 326.105 38.3884 332.599 38.3884Z" stroke="#0C152E" stroke-width="0.5" stroke-miterlimit="10"/>
<path d="M196.116 26.3257H189.515C173.659 26.3257 160.762 39.223 160.762 55.0791C160.762 70.9352 173.659 83.8326 189.515 83.8326H196.116" fill="#101C3D"/>
<path d="M196.116 26.3257H189.515C173.659 26.3257 160.762 39.223 160.762 55.0791C160.762 70.9352 173.659 83.8326 189.515 83.8326H196.116" stroke="#101C3D" stroke-width="0.5" stroke-miterlimit="10"/>
<path d="M180.563 79.5082H172.824" stroke="#4070F4" stroke-width="0.5" stroke-miterlimit="10"/>
<path d="M173.81 72.756H165.541" stroke="#4070F4" stroke-width="0.5" stroke-miterlimit="10"/>
<path d="M168.955 65.3212H161.293" stroke="#4070F4" stroke-width="0.5" stroke-miterlimit="10"/>
<path d="M167.742 56.9758H159.473" stroke="#4070F4" stroke-width="0.5" stroke-miterlimit="10"/>
<path d="M168.35 48.6305H160.156" stroke="#4070F4" stroke-width="0.5" stroke-miterlimit="10"/>
<path d="M183.598 29.6638H175.025" stroke="#4070F4" stroke-width="0.5" stroke-miterlimit="10"/>
<path d="M176.998 34.8228H167.742" stroke="#4070F4" stroke-width="0.5" stroke-miterlimit="10"/>
<path d="M171.384 41.4231H162.887" stroke="#4070F4" stroke-width="0.5" stroke-miterlimit="10"/>
<path d="M196.117 83.7566C211.997 83.7566 224.87 70.9172 224.87 55.0791C224.87 39.2409 211.997 26.4015 196.117 26.4015C180.237 26.4015 167.363 39.2409 167.363 55.0791C167.363 70.9172 180.237 83.7566 196.117 83.7566Z" fill="#2BD67B"/>
<path d="M196.117 77.915C208.729 77.915 218.953 67.691 218.953 55.0791C218.953 42.4672 208.729 32.2433 196.117 32.2433C183.505 32.2433 173.281 42.4672 173.281 55.0791C173.281 67.691 183.505 77.915 196.117 77.915Z" stroke="#101C3D" stroke-width="0.5" stroke-miterlimit="10"/>
<path d="M196.269 48.0994L203.324 55.0791L196.269 62.1347L189.289 55.0791L196.269 48.0994Z" fill="#101C3D"/>
<path d="M133.526 62.8934C138.051 62.8934 141.719 59.225 141.719 54.6998C141.719 50.1746 138.051 46.5062 133.526 46.5062C129 46.5062 125.332 50.1746 125.332 54.6998C125.332 59.225 129 62.8934 133.526 62.8934Z" fill="#F7F9FB"/>
<path d="M132.539 59.6311L133.905 58.1138V58.0379H132.387L131.098 56.5964C131.098 56.5964 131.098 56.5964 131.098 56.5206L133.222 52.879C133.222 52.879 133.222 52.879 133.222 52.8031L132.311 51.2858H132.236L129.125 56.6723C129.125 56.6723 129.125 56.6723 129.125 56.7482L131.629 59.5552L132.539 59.6311Z" fill="#0C152E"/>
<path d="M133.526 49.3132L132.615 50.8306C132.615 50.8306 132.615 50.8306 132.615 50.9064L133.526 52.4996L135.953 56.6723C135.953 56.6723 135.953 56.6723 135.953 56.7482L134.664 58.1896L133.298 59.707V59.7828H135.346L137.85 56.9758C137.85 56.9758 137.85 56.9758 137.85 56.8999L133.526 49.3132Z" fill="#0C152E"/>
<path d="M250.283 62.8934C254.809 62.8934 258.477 59.225 258.477 54.6998C258.477 50.1746 254.809 46.5062 250.283 46.5062C245.758 46.5062 242.09 50.1746 242.09 54.6998C242.09 59.225 245.758 62.8934 250.283 62.8934Z" fill="#F7F9FB"/>
</g>
<defs>
<clipPath id="clip0_4728_298868">
<rect width="384.34" height="116" fill="white"/>
</clipPath>
</defs>
</svg>
