<?xml version="1.0" encoding="UTF-8"?>
<svg width="18px" height="10px" viewBox="0 0 18 10" version="1.1" xmlns="http://www.w3.org/2000/svg" xmlns:xlink="http://www.w3.org/1999/xlink">
    <!-- Generator: Sketch 47.1 (45422) - http://www.bohemiancoding.com/sketch -->
    <title>icons/angle-down/darkblue</title>
    <desc>Created with Sketch.</desc>
    <defs></defs>
    <g id="03_Wallet-✅" stroke="none" stroke-width="1" fill="none" fill-rule="evenodd">
        <g id="Wallet-Dashboard-Logged-Own-Dropdown-Lisk-XL" transform="translate(-1768.000000, -503.000000)" fill-rule="nonzero" fill="#74869B">
            <g id="Group-30-Copy-21" transform="translate(1768.000000, 503.000000)">
                <g id="icons/angle-down/darkblue">
                    <g id="angle-down">
                        <path d="M18,1.42611684 C18,1.57502864 17.9398798,1.7067583 17.8196393,1.82130584 L9.41482966,9.82817869 C9.29458918,9.94272623 9.15631263,10 9,10 C8.84368737,10 8.70541082,9.94272623 8.58517034,9.82817869 L0.180360721,1.82130584 C0.0601202405,1.7067583 0,1.57502864 0,1.42611684 C0,1.27720504 0.0601202405,1.14547537 0.180360721,1.03092784 L1.08216433,0.171821306 C1.20240481,0.0572737686 1.34068136,0 1.49699399,0 C1.65330661,0 1.79158317,0.0572737686 1.91182365,0.171821306 L9,6.92439863 L16.0881764,0.171821306 C16.2084168,0.0572737686 16.3466934,0 16.503006,0 C16.6593186,0 16.7975952,0.0572737686 16.9178357,0.171821306 L17.8196393,1.03092784 C17.9398798,1.14547537 18,1.27720504 18,1.42611684 Z" id="Shape"></path>
                    </g>
                </g>
            </g>
        </g>
    </g>
</svg>