<?xml version="1.0" encoding="UTF-8"?>
<svg width="10px" height="13px" viewBox="0 0 10 13" version="1.1" xmlns="http://www.w3.org/2000/svg" xmlns:xlink="http://www.w3.org/1999/xlink">
    <!-- Generator: Sketch 47.1 (45422) - http://www.bohemiancoding.com/sketch -->
    <title>icons/lock-open/black</title>
    <desc>Created with Sketch.</desc>
    <defs></defs>
    <g id="03_Wallet-✅" stroke="none" stroke-width="1" fill="none" fill-rule="evenodd">
        <g id="Wallet-Dashboard-Logged-Own-Dropdown-Lisk-XL" transform="translate(-1547.000000, -112.000000)" fill-rule="nonzero" fill="#74869B">
            <g id="Group-9" transform="translate(1540.000000, 59.000000)">
                <g id="Group-3">
                    <g id="Group-11" transform="translate(0.000000, 2.000000)">
                        <g id="Group-22" transform="translate(7.000000, 48.000000)">
                            <g id="Group-23">
                                <g id="Group-19" transform="translate(0.000000, 3.000000)">
                                    <g id="icons/lock-open/black">
                                        <g id="lock-open">
                                            <path d="M9.14285714,5.05555556 L7.85714286,5.05555556 L7.85714286,3.32222222 C7.85714286,1.22994444 6.90357143,0 5,0 C3.09571429,0 2.14285714,1.22994444 2.14285714,3.32222222 L2.14285714,3.61111111 L3.57142857,3.61111111 L3.57142857,3.03261111 C3.57142857,1.989 4.14071429,1.44444444 5,1.44444444 C5.85928571,1.44444444 6.42857143,1.989 6.42857143,3.03261111 L6.42857143,5.05555556 L0.714285714,5.05555556 C0.319285714,5.05555556 0,5.52211111 0,5.9215 L0,11.5555556 C0,11.9520556 0.305714286,12.3781667 0.679285714,12.4995 L1.53428571,12.779 C1.90857143,12.8996111 2.53571429,13 2.92857143,13 L7.07142857,13 C7.46357143,13 8.09142857,12.8996111 8.465,12.7782778 L9.31928571,12.4987778 C9.69357143,12.3781667 10,11.9520556 10,11.5555556 L10,5.9215 C10,5.52211111 9.53714286,5.05555556 9.14285714,5.05555556 Z" id="Shape"></path>
                                        </g>
                                    </g>
                                </g>
                            </g>
                        </g>
                    </g>
                </g>
            </g>
        </g>
    </g>
</svg>