<svg xmlns="http://www.w3.org/2000/svg" width="727" height="569" viewBox="0 0 727 569">
  <metadata><?xpacket begin="﻿" id="W5M0MpCehiHzreSzNTczkc9d"?>
<x:xmpmeta xmlns:x="adobe:ns:meta/" x:xmptk="Adobe XMP Core 5.6-c140 79.160451, 2017/05/06-01:08:21        ">
   <rdf:RDF xmlns:rdf="http://www.w3.org/1999/02/22-rdf-syntax-ns#">
      <rdf:Description rdf:about=""/>
   </rdf:RDF>
</x:xmpmeta>
                                                                                                    
                                                                                                    
                                                                                                    
                                                                                                    
                                                                                                    
                                                                                                    
                                                                                                    
                                                                                                    
                                                                                                    
                                                                                                    
                                                                                                    
                                                                                                    
                                                                                                    
                                                                                                    
                                                                                                    
                                                                                                    
                                                                                                    
                                                                                                    
                                                                                                    
                                                                                                    
                           
<?xpacket end="w"?></metadata>
<defs>
    <style>
      .cls-1 {
        fill: #74869b;
        fill-rule: evenodd;
      }
    </style>
  </defs>
  <path id="beta" class="cls-1" d="M489.656,494.449c-9.379,0-16.239,3.22-20.859,8.54v-34.58s-21,22.614-21,23.7v74.3h21v-6.58c4.62,5.32,11.48,8.54,20.859,8.54,18.34,0,33.46-16.1,33.46-36.96S508,494.449,489.656,494.449Zm-4.2,54.04c-9.659,0-16.659-6.58-16.659-17.08s7-17.08,16.659-17.08,16.66,6.58,16.66,17.08S495.116,548.489,485.456,548.489Zm64.819-8.68h49.7a40.7,40.7,0,0,0,.84-8.4c0-21.14-15.12-36.96-35.559-36.96-22.12,0-37.24,16.1-37.24,36.96s14.84,36.96,38.78,36.96c13.3,0,23.659-4.9,30.519-14.42l-16.8-9.66c-2.8,3.08-7.7,5.32-13.439,5.32C559.375,549.609,552.935,547.089,550.275,539.809Zm-0.42-15.68c1.96-7.14,7.28-11.06,15.26-11.06,6.3,0,12.6,2.94,14.839,11.06h-30.1Zm98.278-7.56v-20.16h-14.42v-19.6l-21,6.3v13.3h-11.2v20.16h11.2v24.78c0,19.6,7.98,27.86,35.42,25.06v-19.04c-9.24.56-14.42,0-14.42-6.02v-24.78h14.42Zm57.819-20.16v6.58c-4.62-5.32-11.48-8.54-20.86-8.54-18.34,0-33.46,16.1-33.46,36.96s15.12,36.96,33.46,36.96c9.38,0,16.24-3.22,20.86-8.54v6.58h21v-70h-21Zm-16.66,52.08c-9.66,0-16.66-6.58-16.66-17.08s7-17.08,16.66-17.08,16.66,6.58,16.66,17.08S698.952,548.489,689.292,548.489Z"/>
  <path class="cls-1" d="M190,85L239,0h3L481,411,342,568H229l-2-2L374,401Z"/>
  <path class="cls-1" d="M262,484l-75,84H139L0,413v-3L172,115h3l49,84v2L107,400l1,2,71,78h82l2,2Z"/>
</svg>
