<svg xmlns="http://www.w3.org/2000/svg" width="18" height="12" viewBox="0 3 18 12">
  <path fill-rule="evenodd" fill="#74869b" d="M7.9086996,14.973607 C7.90002806,14.9824047 7.88268496,14.9912023 7.87401342,15 L6.9028002,15 C6.88545711,15 6.87678556,14.9912023 6.86811402,14.9824047 L4.00650366,11.7184751 C3.99783211,11.7008798 3.99783211,11.6832845 4.00650366,11.6656891 L7.57050929,5.45454545 C7.58785238,5.42815249 7.63121011,5.42815249 7.64855321,5.45454545 L8.64578106,7.19648094 C8.6544526,7.20527859 8.6544526,7.2228739 8.64578106,7.24046921 L6.23509112,11.4369501 C6.22641957,11.4545455 6.23509112,11.4721408 6.24376267,11.4897361 L7.68323939,13.1260997 C7.69191094,13.1348974 7.70925403,13.143695 7.71792558,13.143695 L9.4175487,13.143695 C9.46090643,13.143695 9.47824953,13.1876833 9.45223489,13.2140762 L7.9086996,14.973607 Z M8.96662828,3.02639296 C8.98397137,2.99120235 9.02732911,2.99120235 9.03600065,3.02639296 L14.0047968,11.6480938 C14.0134684,11.6656891 14.0047968,11.6832845 13.9961253,11.7008798 L11.1345149,14.9648094 C11.1258434,14.973607 11.1085003,14.9824047 11.0998287,14.9824047 L8.77585426,14.9824047 C8.73249652,14.9824047 8.71515343,14.9384164 8.74116807,14.9120235 L10.2933749,13.1348974 L11.7501947,11.4809384 C11.7675378,11.4633431 11.7675378,11.4457478 11.7588663,11.4281525 L9.00131447,6.62463343 L7.96072888,4.81231672 C7.95205733,4.80351906 7.95205733,4.78592375 7.96072888,4.76832845 L8.96662828,3.02639296 Z M12.2557476,3.44837077 L12.7564316,3.44837077 C12.9887009,3.44837077 13.1565552,3.48287254 13.2599997,3.55187713 C13.3634441,3.62088172 13.4151655,3.72987598 13.4151655,3.87886316 C13.4151655,3.97923347 13.3897855,4.06274346 13.3390247,4.12939562 C13.2882638,4.19604778 13.2152001,4.23799881 13.1198312,4.25524995 L13.1198312,4.26701204 C13.2382732,4.28975219 13.3253729,4.33464371 13.3811329,4.40168794 C13.4368929,4.46873217 13.4647725,4.55949537 13.4647725,4.67398026 C13.4647725,4.82845644 13.4118974,4.9494087 13.3061457,5.03684065 C13.2003939,5.1242726 13.053305,5.16798792 12.8648747,5.16798792 L12.2557476,5.16798792 L12.2557476,3.44837077 Z M12.5314699,4.15880084 L12.7968093,4.15880084 C12.9121749,4.15880084 12.9963905,4.14017772 13.0494586,4.10293092 C13.1025268,4.06568413 13.1290604,4.00236552 13.1290604,3.91297321 C13.1290604,3.83220648 13.1004118,3.77378869 13.0431135,3.73771811 C12.9858153,3.70164753 12.8948702,3.68361251 12.7702754,3.68361251 L12.5314699,3.68361251 L12.5314699,4.15880084 Z M12.5314699,4.38698533 L12.5314699,4.93156997 L12.8244969,4.93156997 C12.9398625,4.93156997 13.0269621,4.9090262 13.0857986,4.86393797 C13.144635,4.81884974 13.1740528,4.74768983 13.1740528,4.65045608 C13.1740528,4.56106377 13.1440582,4.49480468 13.0840681,4.45167681 C13.024078,4.40854894 12.9329406,4.38698533 12.8106531,4.38698533 L12.5314699,4.38698533 Z M14.887684,5.16798792 L13.9336157,5.16798792 L13.9336157,3.44837077 L14.887684,3.44837077 L14.887684,3.68596493 L14.209338,3.68596493 L14.209338,4.154096 L14.8449989,4.154096 L14.8449989,4.38933775 L14.209338,4.38933775 L14.209338,4.92921755 L14.887684,4.92921755 L14.887684,5.16798792 Z M15.9529641,5.16798792 L15.6772418,5.16798792 L15.6772418,3.68949356 L15.1811724,3.68949356 L15.1811724,3.44837077 L16.4490334,3.44837077 L16.4490334,3.68949356 L15.9529641,3.68949356 L15.9529641,5.16798792 Z M17.706973,5.16798792 L17.5385401,4.69044718 L16.89365,4.69044718 L16.7286781,5.16798792 L16.4379584,5.16798792 L17.0690047,3.44131351 L17.3689536,3.44131351 L18,5.16798792 L17.706973,5.16798792 Z M17.4658602,4.44814818 L17.3078102,3.98001711 C17.2962737,3.94865139 17.280315,3.89925112 17.2599337,3.83181481 C17.2395525,3.76437851 17.2255166,3.71497823 17.2178255,3.68361251 C17.1970597,3.78006211 17.1666806,3.88552777 17.1266872,4.00001266 L16.9744055,4.44814818 L17.4658602,4.44814818 Z"/>
</svg>
