<svg width="313" height="195" viewBox="0 0 313 195" fill="none" xmlns="http://www.w3.org/2000/svg">
<path d="M1.01416 121.085L1.11334 121.028C42.8793 101.25 60.7021 83.909 77.8873 67.1346C95.0726 50.4169 112.853 33.0758 154.562 13.3404C165.372 8.16929 175.077 4.21655 183.875 1.05718" stroke="#C5CFE4" stroke-width="0.2" stroke-miterlimit="10" stroke-linecap="round" stroke-linejoin="round"/>
<path d="M1.01416 138.638L1.11334 138.582C42.8793 118.804 60.7021 101.463 77.8873 84.6882C95.0726 67.9705 112.853 50.6294 154.562 30.894C196.271 11.1161 220.895 8.3818 244.739 5.63329C254.656 4.52823 264.672 3.42315 276.006 1.043" stroke="#C5CFE4" stroke-width="0.2" stroke-miterlimit="10" stroke-linecap="round" stroke-linejoin="round"/>
<path d="M1.01416 173.816L1.11334 173.76C42.8793 153.982 60.7021 136.641 77.8873 119.866C95.0726 103.149 112.853 85.8075 154.562 66.0721C196.271 46.2941 220.895 43.5598 244.739 40.8113C262.929 38.7565 281.615 36.6439 308 26.9866" stroke="#C5CFE4" stroke-width="0.2" stroke-miterlimit="10" stroke-linecap="round" stroke-linejoin="round"/>
<path d="M28.4426 194.444C51.8049 180.475 64.9807 167.596 77.9015 155.058C95.0867 138.34 112.867 120.999 154.576 101.264C196.286 81.4859 220.909 78.7515 244.753 76.003C263.622 73.8715 283.025 71.6778 311 61.0655" stroke="#C5CFE4" stroke-width="0.2" stroke-miterlimit="10" stroke-linecap="round" stroke-linejoin="round"/>
<path d="M1.01416 156.206L1.11334 156.149C42.8793 136.371 60.7021 119.03 77.8873 102.256C95.0726 85.5378 112.853 68.1967 154.562 48.4613C196.271 28.6834 220.895 25.9491 244.739 23.2006C261.534 21.3134 278.737 19.3712 302 11.4829C303.636 10.9281 305.302 10.3439 307 9.72827" stroke="#C5CFE4" stroke-width="0.2" stroke-miterlimit="10" stroke-linecap="round" stroke-linejoin="round"/>
<path d="M73.5373 194.387C75.0107 192.97 76.4417 191.539 77.9151 190.165C95.1004 173.447 112.881 156.106 154.59 136.371C196.299 116.593 220.922 113.859 244.766 111.11C263.857 108.954 283.493 106.734 312 95.7963" stroke="#C5CFE4" stroke-width="0.2" stroke-miterlimit="10" stroke-linecap="round" stroke-linejoin="round"/>
<path d="M1.11279 191.327C42.8787 171.549 60.7015 154.208 77.8868 137.434C95.072 120.716 112.852 103.375 154.562 83.6394C196.271 63.8615 220.894 61.1271 244.738 58.3786C261.519 56.483 278.721 54.5383 302 46.6669" stroke="#C5CFE4" stroke-width="0.2" stroke-miterlimit="10" stroke-linecap="round" stroke-linejoin="round"/>
<path d="M53.8594 194.43C63.1958 186.935 70.5771 179.724 77.9017 172.597C95.087 155.88 112.867 138.539 154.576 118.803C196.286 99.0253 220.909 96.291 244.753 93.5424C263.735 91.3983 283.256 89.1912 311.5 78.4147" stroke="#C5CFE4" stroke-width="0.2" stroke-miterlimit="10" stroke-linecap="round" stroke-linejoin="round"/>
<path d="M114.128 194.373C124.725 187.048 137.646 179.454 154.52 171.492C196.229 151.714 220.852 148.98 244.696 146.232C263.739 144.081 283.324 141.866 311.715 131" stroke="#C5CFE4" stroke-width="0.2" stroke-miterlimit="10" stroke-linecap="round" stroke-linejoin="round"/>
<path d="M28.4284 1.05753C20.5795 5.76115 11.6115 10.5498 1.09918 15.5509L1 15.6076" stroke="#C5CFE4" stroke-width="0.2" stroke-miterlimit="10" stroke-linecap="round" stroke-linejoin="round"/>
<path d="M53.845 1.05753C41.1933 11.1873 25.1132 21.7421 1.11333 33.1045L1.01414 33.1612" stroke="#C5CFE4" stroke-width="0.2" stroke-miterlimit="10" stroke-linecap="round" stroke-linejoin="round"/>
<path d="M73.5237 1.05753C57.486 16.5143 39.3516 32.5945 1.11333 50.6723L1.01414 50.729" stroke="#C5CFE4" stroke-width="0.2" stroke-miterlimit="10" stroke-linecap="round" stroke-linejoin="round"/>
<path d="M91.984 1.05753C86.912 5.54864 82.3784 10.0256 77.9015 14.4034C60.6596 31.1777 42.8793 48.4763 1.11333 68.2826L1.01414 68.3392" stroke="#C5CFE4" stroke-width="0.2" stroke-miterlimit="10" stroke-linecap="round" stroke-linejoin="round"/>
<path d="M114.128 1.07169C98.572 11.8249 88.1305 22.0113 77.9015 31.9711C60.6596 48.7313 42.8793 66.0866 1.11333 85.8645L1.01414 85.9212" stroke="#C5CFE4" stroke-width="0.2" stroke-miterlimit="10" stroke-linecap="round" stroke-linejoin="round"/>
<path d="M143.766 1.07169C109.651 18.682 93.5141 34.3371 77.9015 49.5814C60.6596 66.2991 42.8793 83.6402 1.11333 103.418L1.01414 103.475" stroke="#C5CFE4" stroke-width="0.2" stroke-miterlimit="10" stroke-linecap="round" stroke-linejoin="round"/>
<path d="M275.964 194.43C284.827 192.592 294.483 190.004 305.5 186.093" stroke="#C5CFE4" stroke-width="0.2" stroke-miterlimit="10" stroke-linecap="round" stroke-linejoin="round"/>
<path d="M183.889 194.43C208.994 185.519 227.072 183.465 244.739 181.453C263.601 179.322 282.995 177.13 310.952 166.528" stroke="#C5CFE4" stroke-width="0.2" stroke-miterlimit="10" stroke-linecap="round" stroke-linejoin="round"/>
<path d="M143.766 194.388C147.195 192.645 150.779 190.86 154.52 189.061C196.229 169.283 220.852 166.549 244.696 163.8C263.568 161.668 282.972 159.475 310.952 148.859" stroke="#C5CFE4" stroke-width="0.2" stroke-miterlimit="10" stroke-linecap="round" stroke-linejoin="round"/>
<path d="M91.984 194.445C106.067 181.793 123.833 168.546 154.576 153.94C196.286 134.162 220.909 131.427 244.753 128.679C263.734 126.535 283.255 124.328 311.5 113.551" stroke="#C5CFE4" stroke-width="0.2" stroke-miterlimit="10" stroke-linecap="round" stroke-linejoin="round"/>
</svg>
