<svg xmlns="http://www.w3.org/2000/svg" width="396" height="314" viewBox="0 0 396 314">
  <defs>
    <linearGradient id="academy-a" x1="50%" y1="128.586%" y2="-48.192%">
      <stop offset="0%" stop-color="#004AFF"/>
      <stop offset="100%" stop-color="#93F4FE"/>
    </linearGradient>
  </defs>
  <g fill="none" fill-rule="evenodd" transform="translate(24 129)">
    <g transform="translate(100)">
      <polygon fill="url(#academy-a)" points="0 0 0 38.737 105 59.5 126 46 105 21"/>
      <path fill="#FFF" d="M18.812,23.488599 C19.748,24.2530487 20.36,25.3364965 20.36,26.6144965 C20.36,28.8464965 18.542,29.9734309 16.292,29.5636961 L11,28.6 L11,16 L15.932,16.8981386 C18.128,17.2980397 19.91,19.0445496 19.91,21.2225496 C19.91,22.2665496 19.496,23.0191584 18.812,23.488599 Z M15.932,19.5981386 L13.88,19.2244605 L13.88,21.4564605 L15.932,21.8301386 C16.58,21.9481422 17.03,21.5620891 17.03,20.9140891 C17.03,20.2660891 16.598,19.7194201 15.932,19.5981386 Z M16.292,26.8636961 C17.012,26.9948112 17.48,26.5760361 17.48,25.8740361 C17.48,25.1720361 17.012,24.5828112 16.292,24.4516961 L13.88,24.0124605 L13.88,26.4244605 L16.292,26.8636961 Z M21.71,30.5503374 L21.71,17.4103374 L24.41,17.9020191 L24.41,31.0420191 L21.71,30.5503374 Z M30.71,32.4412764 C28.064,31.9594283 25.94,29.5026387 25.94,26.8206387 C25.94,24.1386387 28.064,22.4554283 30.71,22.9372764 C33.356,23.4191244 35.48,25.875914 35.48,28.5579141 C35.48,31.239914 33.356,32.9231244 30.71,32.4412764 Z M30.71,29.8132764 C31.88,30.0263385 32.78,29.3442324 32.78,28.0662324 C32.78,26.7882324 31.88,25.7783385 30.71,25.5652764 C29.54,25.3522143 28.64,26.0343204 28.64,27.3123204 C28.64,28.5903204 29.54,29.6002143 30.71,29.8132764 Z M41.33,34.3752244 C38.594,33.8769869 36.56,31.4365867 36.56,28.7545867 C36.56,26.0725867 38.594,24.3729869 41.33,24.8712244 C43.076,25.1891786 44.624,26.3890761 45.398,27.9160248 L43.04,28.8546228 C42.734,28.1688989 42.086,27.6728953 41.294,27.5286686 C40.124,27.3156066 39.26,28.0042684 39.26,29.2462684 C39.26,30.4882684 40.124,31.4916066 41.294,31.7046686 C42.086,31.8488953 42.752,31.5921768 43.04,31.0146228 L45.398,32.7940248 C44.624,34.0570761 43.094,34.6964564 41.33,34.3752244 Z M55.118,36.6340789 L52.058,36.0768397 L49.178,31.5743792 L49.178,35.5523792 L46.478,35.0606975 L46.478,22.4606975 L49.178,22.9523792 L49.178,30.4943792 L51.878,27.0440609 L55.028,27.6176895 L51.752,31.5211157 L55.118,36.6340789 Z M59.888,37.7547166 C57.152,37.2564791 55.118,34.8160789 55.118,32.1340789 C55.118,29.4520789 57.152,27.7524791 59.888,28.2507166 C61.634,28.5686708 63.182,29.7685683 63.956,31.295517 L61.598,32.234115 C61.292,31.5483911 60.644,31.0523875 59.852,30.9081608 C58.682,30.6950988 57.818,31.3837606 57.818,32.6257606 C57.818,33.8677606 58.682,34.8710988 59.852,35.0841608 C60.644,35.2283875 61.31,34.9716689 61.598,34.394115 L63.956,36.173517 C63.182,37.4365683 61.652,38.0759486 59.888,37.7547166 Z M70.31,30.1486079 C72.128,30.4796736 73.676,32.0575711 73.676,34.4875711 L73.676,40.0135711 L70.976,39.5218894 L70.976,34.3918894 C70.976,33.2758894 70.274,32.6260522 69.41,32.468714 C68.42,32.2884307 67.736,32.7398714 67.736,34.0178714 L67.736,38.9318714 L65.036,38.4401897 L65.036,25.8401897 L67.736,26.3318714 L67.736,30.7778714 C68.222,30.2003741 69.122,29.932268 70.31,30.1486079 Z M82.064,32.5410623 L84.764,33.032744 L84.764,42.032744 L82.064,41.5410623 L82.064,40.6950623 C81.47,41.2708923 80.588,41.5242763 79.382,41.3046584 C77.024,40.8752564 75.08,38.4512456 75.08,35.7692456 C75.08,33.0872456 77.024,31.3712564 79.382,31.8006584 C80.588,32.0202763 81.47,32.5948923 82.064,33.3870623 L82.064,32.5410623 Z M79.922,38.8469948 C81.164,39.0731684 82.064,38.3910623 82.064,37.0410623 C82.064,35.6910623 81.164,34.6811684 79.922,34.4549948 C78.68,34.2288212 77.78,34.9109273 77.78,36.2609273 C77.78,37.6109273 78.68,38.6208212 79.922,38.8469948 Z M88.094,32.8471514 C87.212,32.6865354 86.474,31.8141424 86.474,30.9321424 C86.474,30.0501424 87.212,29.4465354 88.094,29.6071514 C88.976,29.7677674 89.714,30.6401604 89.714,31.5221604 C89.714,32.4041604 88.976,33.0077674 88.094,32.8471514 Z M86.744,42.3933105 L86.744,33.3933105 L89.444,33.8849922 L89.444,42.8849922 L86.744,42.3933105 Z M96.698,34.9539771 C98.516,35.2850427 100.064,36.8629402 100.064,39.2929402 L100.064,44.8189402 L97.364,44.3272585 L97.364,39.1972585 C97.364,38.0812585 96.662,37.4314213 95.798,37.2740832 C94.808,37.0937999 94.124,37.5452405 94.124,38.8232405 L94.124,43.7372405 L91.424,43.2455588 L91.424,34.2455588 L94.124,34.7372405 L94.124,35.5832405 C94.61,35.0057432 95.51,34.7376371 96.698,34.9539771 Z"/>
    </g>
    <g transform="translate(100 93)">
      <polygon fill="url(#academy-a)" points="0 0 0 38.737 97 58.5 118 45 97 20"/>
      <path fill="#FFF" d="M13.86,28.8384313 C11.088,28.2758001 9,26.232 9,23.532 L9,15 L11.88,15.5845519 L11.88,23.8645519 C11.88,24.8185519 12.33,25.7198881 13.86,26.0304313 C15.39,26.3409745 15.84,25.6223107 15.84,24.6683107 L15.84,16.3883107 L18.72,16.9728626 L18.72,25.5048626 C18.72,28.2048626 16.632,29.4010625 13.86,28.8384313 Z M23.166,24.1032645 C23.166,25.1292645 27.594,25.344013 27.594,28.674013 C27.594,30.744013 25.794,31.2606681 23.85,30.8660956 C22.05,30.5007507 20.682,29.5390885 19.98,27.938604 L22.32,27.0815524 C22.554,27.8130472 23.058,28.2933438 23.85,28.4540956 C24.498,28.5856197 24.822,28.4533818 24.822,28.0933818 C24.822,27.1033818 20.394,26.7266333 20.394,23.6126333 C20.394,21.6506333 22.05,20.9967507 23.922,21.3767094 C25.38,21.6726388 26.676,22.5836871 27.432,24.015132 L25.128,24.7894905 C24.876,24.2703422 24.516,23.8732732 23.922,23.7527094 C23.454,23.6577197 23.166,23.7792645 23.166,24.1032645 Z M31.266,28.6993166 C31.608,29.7047322 32.436,30.1967908 33.426,30.3977305 C34.164,30.5475219 34.794,30.3873927 35.154,30.0644617 L37.314,31.7448756 C36.432,32.7898565 35.1,33.1495013 33.39,32.8024236 C30.312,32.1776838 28.404,29.7204182 28.404,27.0384182 C28.404,24.3564182 30.348,22.6809907 33.192,23.2582357 C35.82,23.7916393 37.764,26.2202118 37.764,28.9382118 C37.764,29.3162118 37.728,29.6689049 37.656,29.9962911 L31.266,28.6993166 Z M31.212,26.6723563 L35.082,27.4578479 C34.794,26.3553927 33.984,25.8129875 33.174,25.6485822 C32.148,25.4403356 31.464,25.8055046 31.212,26.6723563 Z M49.896,36.1526365 C46.098,35.3817588 43.344,31.978781 43.344,28.270781 C43.344,24.562781 46.098,22.2777588 49.896,23.0486365 C52.182,23.5126246 54.198,25.0558109 55.296,27.0606713 L52.812,27.9964953 C52.254,26.9112384 51.174,26.1160314 49.896,25.8566365 C47.664,25.4036088 46.224,26.6053329 46.224,28.8553329 C46.224,31.1053329 47.664,32.8916088 49.896,33.3446365 C51.174,33.6040314 52.272,33.2508918 52.812,32.3884953 L55.296,34.3326713 C54.216,35.8954643 52.2,36.620278 49.896,36.1526365 Z M63.18,29.596882 L65.88,30.1448994 L65.88,39.1448994 L63.18,38.596882 L63.18,37.750882 C62.586,38.3143182 61.704,38.5492992 60.498,38.3045181 C58.14,37.8259163 56.196,35.3613437 56.196,32.6793437 C56.196,29.9973437 58.14,28.3219163 60.498,28.8005181 C61.704,29.0452992 62.586,29.6383182 63.18,30.442882 L63.18,29.596882 Z M61.038,35.8581216 C62.28,36.1102096 63.18,35.446882 63.18,34.096882 C63.18,32.746882 62.28,31.7182096 61.038,31.4661216 C59.796,31.2140336 58.896,31.8773611 58.896,33.2273611 C58.896,34.5773611 59.796,35.6060336 61.038,35.8581216 Z M70.326,33.6753013 C70.326,34.7013013 74.754,34.9160498 74.754,38.2460498 C74.754,40.3160498 72.954,40.8327049 71.01,40.4381324 C69.21,40.0727875 67.842,39.1111254 67.14,37.5106408 L69.48,36.6535892 C69.714,37.3850841 70.218,37.8653807 71.01,38.0261324 C71.658,38.1576566 71.982,38.0254187 71.982,37.6654187 C71.982,36.6754187 67.554,36.2986702 67.554,33.1846702 C67.554,31.2226702 69.21,30.5687875 71.082,30.9487462 C72.54,31.2446756 73.836,32.1557239 74.592,33.5871688 L72.288,34.3615273 C72.036,33.842379 71.676,33.44531 71.082,33.3247462 C70.614,33.2297565 70.326,33.3513013 70.326,33.6753013 Z M78.426,38.2713535 C78.768,39.276769 79.596,39.7688277 80.586,39.9697674 C81.324,40.1195588 81.954,39.9594295 82.314,39.6364985 L84.474,41.3169124 C83.592,42.3618934 82.26,42.7215381 80.55,42.3744605 C77.472,41.7497207 75.564,39.2924551 75.564,36.6104551 C75.564,33.9284551 77.508,32.2530276 80.352,32.8302725 C82.98,33.3636761 84.924,35.7922486 84.924,38.5102486 C84.924,38.8882486 84.888,39.2409417 84.816,39.5683279 L78.426,38.2713535 Z M78.372,36.2443931 L82.242,37.0298847 C81.954,35.9274295 81.144,35.3850243 80.334,35.2206191 C79.308,35.0123725 78.624,35.3775414 78.372,36.2443931 Z M88.65,37.3945126 C88.65,38.4205126 93.078,38.6352611 93.078,41.9652611 C93.078,44.0352611 91.278,44.5519162 89.334,44.1573437 C87.534,43.7919988 86.166,42.8303366 85.464,41.2298521 L87.804,40.3728005 C88.038,41.1042953 88.542,41.5845919 89.334,41.7453437 C89.982,41.8768678 90.306,41.7446299 90.306,41.3846299 C90.306,40.3946299 85.878,40.0178814 85.878,36.9038814 C85.878,34.9418814 87.534,34.2879988 89.406,34.6679575 C90.864,34.9638869 92.16,35.8749352 92.916,37.3063801 L90.612,38.0807386 C90.36,37.5615903 90,37.1645213 89.406,37.0439575 C88.938,36.9489678 88.65,37.0705126 88.65,37.3945126 Z"/>
    </g>
    <g transform="translate(0 66)">
      <polygon fill="url(#academy-a)" points="0 0 0 38.737 70 51.5 91 38 70 13" transform="matrix(-1 0 0 1 91 0)"/>
      <path fill="#FFF" d="M33.552,35.7950991 C29.754,36.5031133 27,34.1725076 27,30.4645076 C27,26.7565076 29.754,23.3991133 33.552,22.6910991 C35.838,22.2649483 37.854,23.0231303 38.952,24.6004437 L36.468,26.5035052 C35.91,25.6355262 34.83,25.2608573 33.552,25.4990991 C31.32,25.9151833 29.88,27.6776247 29.88,29.9276247 C29.88,32.1776247 31.32,33.4031833 33.552,32.9870991 C34.83,32.7488573 35.928,31.9681707 36.468,30.8955052 L38.952,31.8724437 C37.872,33.8557748 35.856,35.3655928 33.552,35.7950991 Z M43.092,26.3666745 C43.452,25.0935642 44.658,24.2927445 45.792,24.0813469 L45.792,27.1413469 C44.676,27.169389 43.092,27.9146745 43.092,29.6966745 L43.092,33.7646745 L40.392,34.2680022 L40.392,25.2680022 L43.092,24.7646745 L43.092,26.3666745 Z M52.902,22.9359173 L55.782,22.3990344 L52.704,31.702828 C51.696,34.752737 50.094,36.1853781 47.574,36.5291506 L47.574,34.0091506 C48.834,33.7742643 49.428,33.2675322 49.824,32.0957108 L46.242,24.1774589 L49.212,23.6237984 L51.21,28.759336 L52.902,22.9359173 Z M62.154,20.959181 C64.512,20.5196082 66.456,22.2272123 66.456,24.9092123 C66.456,27.5912123 64.512,30.0236082 62.154,30.463181 C60.948,30.6880007 60.066,30.4384211 59.472,29.8651532 L59.472,34.3111532 L56.772,34.8144809 L56.772,22.2144809 L59.472,21.7111532 L59.472,22.5571532 C60.066,21.7624211 60.948,21.1840007 62.154,20.959181 Z M61.614,28.0078466 C62.856,27.7763158 63.756,26.7625399 63.756,25.4125399 C63.756,24.0625399 62.856,23.3843158 61.614,23.6158466 C60.372,23.8473773 59.472,24.8611532 59.472,26.2111532 C59.472,27.5611532 60.372,28.2393773 61.614,28.0078466 Z M73.08,21.7663817 L71.226,22.112 L71.226,25.298 C71.226,26.072 71.892,26.0198458 73.08,25.7263817 L73.08,28.1743817 C69.552,29.1920632 68.526,28.3213277 68.526,25.8013277 L68.526,22.6153277 L67.086,22.8837691 L67.086,20.2917691 L68.526,20.0233277 L68.526,18.3133277 L71.226,17 L71.226,19.52 L73.08,19.1743817 L73.08,21.7663817 Z M78.75,27.3693935 C76.104,27.8626546 73.98,26.1886058 73.98,23.5066058 C73.98,20.8246058 76.104,18.3586546 78.75,17.8653935 C81.396,17.3721324 83.52,19.0461812 83.52,21.7281812 C83.52,24.4101812 81.396,26.8761324 78.75,27.3693935 Z M78.75,24.7413935 C79.92,24.5232848 80.82,23.5095089 80.82,22.2315089 C80.82,20.9535089 79.92,20.2752848 78.75,20.4933935 C77.58,20.7115022 76.68,21.7252781 76.68,23.0032781 C76.68,24.2812781 77.58,24.9595022 78.75,24.7413935 Z"/>
    </g>
    <g transform="translate(100 47)">
      <polygon fill="url(#academy-a)" points="0 0 0 38.737 48 48 69 34.5 48 9.5"/>
      <path fill="#FFF" d="M12.474,28.3092115 L9,15 L12.024,15.6173447 L14.202,24.88198 L16.632,16.5580606 L18.972,17.0357678 L21.402,26.3518484 L23.58,17.9764836 L26.604,18.5938284 L23.13,30.4846168 L19.854,29.8158267 L17.802,21.9629142 L15.75,28.9780017 L12.474,28.3092115 Z M32.688,23.1838672 C34.506,23.555009 36.054,25.1670307 36.054,27.5970307 L36.054,33.1230307 L33.354,32.57183 L33.354,27.44183 C33.354,26.32583 32.652,25.6605179 31.788,25.4841336 C30.798,25.2820267 30.114,25.7183892 30.114,26.9963892 L30.114,31.9103892 L27.414,31.3591886 L27.414,18.7591886 L30.114,19.3103892 L30.114,23.7563892 C30.6,23.1896054 31.5,22.9413389 32.688,23.1838672 Z M43.398,25.6222965 L46.278,26.2102439 L43.2,34.3118751 C42.192,36.9680936 40.59,37.7750478 38.07,37.1345939 L38.07,34.6145939 C39.33,34.8718209 39.924,34.597085 40.32,33.5799278 L36.738,24.2626682 L39.708,24.8689889 L41.706,30.7848774 L43.398,25.6222965 Z"/>
    </g>
    <g transform="translate(22 19)">
      <polygon fill="url(#academy-a)" points="0 0 0 38.737 48 48 69 34.5 48 9.5" transform="matrix(-1 0 0 1 69 0)"/>
      <path fill="#FFF" d="M32.84,20.4504818 L35.72,19.8930462 L35.72,32.4930462 L32.84,33.0504818 L32.84,28.0464818 L28.88,28.8129558 L28.88,33.8169558 L26,34.3743915 L26,21.7743915 L28.88,21.2169558 L28.88,26.0409558 L32.84,25.2744818 L32.84,20.4504818 Z M42.11,31.5082358 C39.464,32.0203798 37.34,30.3614886 37.34,27.6794886 C37.34,24.9974886 39.464,22.5163798 42.11,22.0042358 C44.756,21.4920919 46.88,23.1509831 46.88,25.8329831 C46.88,28.5149831 44.756,30.9960919 42.11,31.5082358 Z M42.11,28.8802358 C43.28,28.6537776 44.18,27.633579 44.18,26.355579 C44.18,25.077579 43.28,24.4057776 42.11,24.6322358 C40.94,24.8586941 40.04,25.8788927 40.04,27.1568927 C40.04,28.4348927 40.94,29.1066941 42.11,28.8802358 Z M57.95,19.1903398 L60.83,18.6329042 L57.95,28.1903398 L55.43,28.678096 L53.99,24.1508138 L52.55,29.2355317 L50.03,29.7232878 L47.15,21.2807235 L50.03,20.7232878 L51.326,25.2964418 L52.73,20.2006919 L55.25,19.7129357 L56.654,24.2651859 L57.95,19.1903398 Z"/>
    </g>
    <g transform="translate(22 113)">
      <polygon fill="url(#academy-a)" points="0 0 0 38.737 48 48 69 34.5 48 9.5" transform="matrix(-1 0 0 1 69 0)"/>
      <path fill="#FFF" d="M30,20.8213702 L32.88,20.2791193 L32.88,32.8791193 L30,33.4213702 L30,20.8213702 Z M41.052,31.5924826 C37.254,32.3075759 34.5,29.9821032 34.5,26.2741032 C34.5,22.5661032 37.254,19.2035759 41.052,18.4884826 C43.338,18.0580709 45.354,18.8124954 46.452,20.3877622 L43.968,22.2954536 C43.41,21.4285147 42.33,21.0558587 41.052,21.2964826 C38.82,21.716727 37.38,23.4818524 37.38,25.7318524 C37.38,27.9818524 38.82,29.204727 41.052,28.7844826 C42.33,28.5438587 43.428,27.7611256 43.968,26.6874536 L46.452,27.6597622 C45.372,29.6451063 43.356,31.1586819 41.052,31.5924826 Z M53.634,29.2235242 C50.016,29.9047268 47.082,27.6131449 47.082,23.9051449 C47.082,20.1971449 50.016,16.8007268 53.634,16.1195242 C57.252,15.4383216 60.186,17.7299035 60.186,21.4379035 C60.186,25.1459035 57.252,28.5423216 53.634,29.2235242 Z M53.634,26.4155242 C55.686,26.0291705 57.306,24.2301544 57.306,21.9801544 C57.306,19.7301544 55.686,18.5411705 53.634,18.9275242 C51.582,19.3138779 49.962,21.112894 49.962,23.362894 C49.962,25.612894 51.582,26.8018779 53.634,26.4155242 Z"/>
    </g>
  </g>
</svg>
