<svg xmlns="http://www.w3.org/2000/svg" width="396" height="314" viewBox="0 0 396 314">
  <defs>
    <linearGradient id="soccer-a" x1="0%" x2="109.251%" y1="100%" y2="-15.701%">
      <stop offset="0%" stop-color="#175BAB"/>
      <stop offset="100%" stop-color="#0098FE"/>
    </linearGradient>
    <linearGradient id="soccer-b" x1="0%" y1="100%" y2="0%">
      <stop offset="0%" stop-color="#FFF"/>
      <stop offset="100%" stop-color="#DFFBFD"/>
    </linearGradient>
    <linearGradient id="soccer-c" x1="100%" x2="0%" y1="100%" y2="0%">
      <stop offset="0%" stop-color="#FFF"/>
      <stop offset="100%" stop-color="#DFFBFD"/>
    </linearGradient>
    <linearGradient id="soccer-d" x1="-23.313%" x2="68.98%" y1="125.971%" y2="50%">
      <stop offset="0%" stop-color="#004AFF"/>
      <stop offset="100%" stop-color="#93F4FE"/>
    </linearGradient>
  </defs>
  <g fill="none" fill-rule="evenodd" transform="rotate(-15 341.213 41.553)">
    <g>
      <polygon fill="url(#soccer-a)" points="0 0 345.172 0 345.172 231.105 0 231.105"/>
      <polygon fill="url(#soccer-b)" fill-rule="nonzero" points="24.217 81.717 3 81.717 3 77.717 28.217 77.717 28.217 155.407 3 155.407 3 151.407 24.217 151.407"/>
      <path fill="url(#soccer-b)" fill-rule="nonzero" d="M69.4566,88.4013498 L71.8084408,85.1657903 C89.0356226,97.6877631 92.9310049,121.873049 80.5107468,139.194001 C78.1118677,142.583801 75.1657521,145.550002 71.7982997,147.965668 L69.4667411,144.715463 C72.4727543,142.559077 75.103421,139.910477 77.2528621,136.873218 C88.3992886,121.328657 84.9044035,99.6299405 69.4566,88.4013498 Z"/>
      <polygon fill="url(#soccer-b)" fill-rule="nonzero" points="68.633 37.302 3 37.302 3 33.302 72.633 33.302 72.633 198.813 3 198.813 3 194.813 68.633 194.813"/>
      <path fill="url(#soccer-b)" fill-rule="nonzero" d="M275.715443,144.722786 L273.363602,147.958345 C256.13642,135.436373 252.241038,111.251087 264.661296,93.9301348 C267.060175,90.5403342 270.00629,87.574134 273.373743,85.1584674 L275.705301,88.4086727 C272.699288,90.5650582 270.068622,93.213659 267.91918,96.2509175 C256.772754,111.795479 260.267639,133.494195 275.715443,144.722786 Z"/>
      <polygon fill="url(#soccer-b)" fill-rule="nonzero" points="342.172 194.813 342.172 198.813 272.54 198.813 272.54 33.302 342.172 33.302 342.172 37.302 276.54 37.302 276.54 194.813"/>
      <polygon fill="url(#soccer-b)" fill-rule="nonzero" points="341.163 151.407 341.163 155.407 317.964 155.407 317.964 77.717 341.163 77.717 341.163 81.717 321.964 81.717 321.964 151.407"/>
      <polygon fill="url(#soccer-b)" fill-rule="nonzero" points="170.586 3 174.586 3 174.586 228.105 170.586 228.105"/>
      <path fill="url(#soccer-b)" fill-rule="nonzero" d="M173.090742,155.40665 C151.637471,155.40665 134.24616,138.015338 134.24616,116.562068 C134.24616,95.1087976 151.637471,77.7174858 173.090742,77.7174858 C194.544012,77.7174858 211.935324,95.1087976 211.935324,116.562068 C211.935324,138.015338 194.544012,155.40665 173.090742,155.40665 Z M173.090742,151.40665 C192.334873,151.40665 207.935324,135.806199 207.935324,116.562068 C207.935324,97.3179366 192.334873,81.7174858 173.090742,81.7174858 C153.84661,81.7174858 138.24616,97.3179366 138.24616,116.562068 C138.24616,135.806199 153.84661,151.40665 173.090742,151.40665 Z"/>
      <path fill="url(#soccer-c)" fill-rule="nonzero" d="M4.54747351e-13,0 L345.172043,0 L345.172043,231.105254 L4.54747351e-13,231.105254 L4.54747351e-13,0 Z M6,6 L6,225.105254 L339.172043,225.105254 L339.172043,6 L6,6 Z"/>
    </g>
    <g fill="url(#soccer-d)" transform="translate(33 13)">
      <path d="M66.8496543 175.614343C62.983661 175.614343 59.8496543 172.480336 59.8496543 168.614343 59.8496543 164.74835 62.983661 161.614343 66.8496543 161.614343 70.7156475 161.614343 73.8496543 164.74835 73.8496543 168.614343 73.8496543 172.480336 70.7156475 175.614343 66.8496543 175.614343zM66.8496543 173.614343C69.611078 173.614343 71.8496543 171.375767 71.8496543 168.614343 71.8496543 165.852919 69.611078 163.614343 66.8496543 163.614343 64.0882305 163.614343 61.8496543 165.852919 61.8496543 168.614343 61.8496543 171.375767 64.0882305 173.614343 66.8496543 173.614343zM66.8496543 171.614343C65.1928 171.614343 63.8496543 170.271197 63.8496543 168.614343 63.8496543 166.957489 65.1928 165.614343 66.8496543 165.614343 68.5065085 165.614343 69.8496543 166.957489 69.8496543 168.614343 69.8496543 170.271197 68.5065085 171.614343 66.8496543 171.614343zM77.0684939 158.954115C73.2025006 158.954115 70.0684939 155.820109 70.0684939 151.954115 70.0684939 148.088122 73.2025006 144.954115 77.0684939 144.954115 80.9344871 144.954115 84.0684939 148.088122 84.0684939 151.954115 84.0684939 155.820109 80.9344871 158.954115 77.0684939 158.954115zM77.0684939 156.954115C79.8299176 156.954115 82.0684939 154.715539 82.0684939 151.954115 82.0684939 149.192692 79.8299176 146.954115 77.0684939 146.954115 74.3070701 146.954115 72.0684939 149.192692 72.0684939 151.954115 72.0684939 154.715539 74.3070701 156.954115 77.0684939 156.954115zM77.0684939 154.954115C75.4116396 154.954115 74.0684939 153.61097 74.0684939 151.954115 74.0684939 150.297261 75.4116396 148.954115 77.0684939 148.954115 78.7253481 148.954115 80.0684939 150.297261 80.0684939 151.954115 80.0684939 153.61097 78.7253481 154.954115 77.0684939 154.954115zM67 54C63.1340068 54 60 50.8659932 60 47 60 43.1340068 63.1340068 40 67 40 70.8659932 40 74 43.1340068 74 47 74 50.8659932 70.8659932 54 67 54zM67 52C69.7614237 52 72 49.7614237 72 47 72 44.2385763 69.7614237 42 67 42 64.2385763 42 62 44.2385763 62 47 62 49.7614237 64.2385763 52 67 52zM67 50C65.3431458 50 64 48.6568542 64 47 64 45.3431458 65.3431458 44 67 44 68.6568542 44 70 45.3431458 70 47 70 48.6568542 68.6568542 50 67 50zM88.5914362 90.9883624C84.7254429 90.9883624 81.5914362 87.8543556 81.5914362 83.9883624 81.5914362 80.1223691 84.7254429 76.9883624 88.5914362 76.9883624 92.4574294 76.9883624 95.5914362 80.1223691 95.5914362 83.9883624 95.5914362 87.8543556 92.4574294 90.9883624 88.5914362 90.9883624zM88.5914362 88.9883624C91.3528599 88.9883624 93.5914362 86.7497861 93.5914362 83.9883624 93.5914362 81.2269386 91.3528599 78.9883624 88.5914362 78.9883624 85.8300124 78.9883624 83.5914362 81.2269386 83.5914362 83.9883624 83.5914362 86.7497861 85.8300124 88.9883624 88.5914362 88.9883624zM88.5914362 86.9883624C86.9345819 86.9883624 85.5914362 85.6452166 85.5914362 83.9883624 85.5914362 82.3315081 86.9345819 80.9883624 88.5914362 80.9883624 90.2482904 80.9883624 91.5914362 82.3315081 91.5914362 83.9883624 91.5914362 85.6452166 90.2482904 86.9883624 88.5914362 86.9883624zM106.394965 139.433711C102.528972 139.433711 99.3949649 136.299704 99.3949649 132.433711 99.3949649 128.567717 102.528972 125.433711 106.394965 125.433711 110.260958 125.433711 113.394965 128.567717 113.394965 132.433711 113.394965 136.299704 110.260958 139.433711 106.394965 139.433711zM106.394965 137.433711C109.156389 137.433711 111.394965 135.195134 111.394965 132.433711 111.394965 129.672287 109.156389 127.433711 106.394965 127.433711 103.633541 127.433711 101.394965 129.672287 101.394965 132.433711 101.394965 135.195134 103.633541 137.433711 106.394965 137.433711zM106.394965 135.433711C104.738111 135.433711 103.394965 134.090565 103.394965 132.433711 103.394965 130.776856 104.738111 129.433711 106.394965 129.433711 108.051819 129.433711 109.394965 130.776856 109.394965 132.433711 109.394965 134.090565 108.051819 135.433711 106.394965 135.433711zM165 67C161.134007 67 158 63.8659932 158 60 158 56.1340068 161.134007 53 165 53 168.865993 53 172 56.1340068 172 60 172 63.8659932 168.865993 67 165 67zM165 65C167.761424 65 170 62.7614237 170 60 170 57.2385763 167.761424 55 165 55 162.238576 55 160 57.2385763 160 60 160 62.7614237 162.238576 65 165 65zM165 63C163.343146 63 162 61.6568542 162 60 162 58.3431458 163.343146 57 165 57 166.656854 57 168 58.3431458 168 60 168 61.6568542 166.656854 63 165 63zM171.882286 14.5111126C168.016292 14.5111126 164.882286 11.3771059 164.882286 7.51111261 164.882286 3.64511936 168.016292.511112606 171.882286.511112606 175.748279.511112606 178.882286 3.64511936 178.882286 7.51111261 178.882286 11.3771059 175.748279 14.5111126 171.882286 14.5111126zM171.882286 12.5111126C174.643709 12.5111126 176.882286 10.2725364 176.882286 7.51111261 176.882286 4.74968886 174.643709 2.51111261 171.882286 2.51111261 169.120862 2.51111261 166.882286 4.74968886 166.882286 7.51111261 166.882286 10.2725364 169.120862 12.5111126 171.882286 12.5111126zM171.882286 10.5111126C170.225431 10.5111126 168.882286 9.16796686 168.882286 7.51111261 168.882286 5.85425836 170.225431 4.51111261 171.882286 4.51111261 173.53914 4.51111261 174.882286 5.85425836 174.882286 7.51111261 174.882286 9.16796686 173.53914 10.5111126 171.882286 10.5111126zM183.345471 78.355608C179.479478 78.355608 176.345471 75.2216012 176.345471 71.355608 176.345471 67.4896147 179.479478 64.355608 183.345471 64.355608 187.211464 64.355608 190.345471 67.4896147 190.345471 71.355608 190.345471 75.2216012 187.211464 78.355608 183.345471 78.355608zM183.345471 76.355608C186.106895 76.355608 188.345471 74.1170317 188.345471 71.355608 188.345471 68.5941842 186.106895 66.355608 183.345471 66.355608 180.584047 66.355608 178.345471 68.5941842 178.345471 71.355608 178.345471 74.1170317 180.584047 76.355608 183.345471 76.355608zM183.345471 74.355608C181.688617 74.355608 180.345471 73.0124622 180.345471 71.355608 180.345471 69.6987537 181.688617 68.355608 183.345471 68.355608 185.002325 68.355608 186.345471 69.6987537 186.345471 71.355608 186.345471 73.0124622 185.002325 74.355608 183.345471 74.355608zM222 145C218.134007 145 215 141.865993 215 138 215 134.134007 218.134007 131 222 131 225.865993 131 229 134.134007 229 138 229 141.865993 225.865993 145 222 145zM222 143C224.761424 143 227 140.761424 227 138 227 135.238576 224.761424 133 222 133 219.238576 133 217 135.238576 217 138 217 140.761424 219.238576 143 222 143zM222 141C220.343146 141 219 139.656854 219 138 219 136.343146 220.343146 135 222 135 223.656854 135 225 136.343146 225 138 225 139.656854 223.656854 141 222 141zM175.515591 178.733376C171.649597 178.733376 168.515591 175.599369 168.515591 171.733376 168.515591 167.867383 171.649597 164.733376 175.515591 164.733376 179.381584 164.733376 182.515591 167.867383 182.515591 171.733376 182.515591 175.599369 179.381584 178.733376 175.515591 178.733376zM175.515591 176.733376C178.277014 176.733376 180.515591 174.4948 180.515591 171.733376 180.515591 168.971952 178.277014 166.733376 175.515591 166.733376 172.754167 166.733376 170.515591 168.971952 170.515591 171.733376 170.515591 174.4948 172.754167 176.733376 175.515591 176.733376zM175.515591 174.733376C173.858736 174.733376 172.515591 173.39023 172.515591 171.733376 172.515591 170.076522 173.858736 168.733376 175.515591 168.733376 177.172445 168.733376 178.515591 170.076522 178.515591 171.733376 178.515591 173.39023 177.172445 174.733376 175.515591 174.733376zM7.8692485 93.3851195C4.00325525 93.3851195.869248501 90.2511127.869248501 86.3851195.869248501 82.5191263 4.00325525 79.3851195 7.8692485 79.3851195 11.7352417 79.3851195 14.8692485 82.5191263 14.8692485 86.3851195 14.8692485 90.2511127 11.7352417 93.3851195 7.8692485 93.3851195zM7.8692485 91.3851195C10.6306723 91.3851195 12.8692485 89.1465432 12.8692485 86.3851195 12.8692485 83.6236958 10.6306723 81.3851195 7.8692485 81.3851195 5.10782475 81.3851195 2.8692485 83.6236958 2.8692485 86.3851195 2.8692485 89.1465432 5.10782475 91.3851195 7.8692485 91.3851195zM7.8692485 89.3851195C6.21239425 89.3851195 4.8692485 88.0419738 4.8692485 86.3851195 4.8692485 84.7282653 6.21239425 83.3851195 7.8692485 83.3851195 9.52610275 83.3851195 10.8692485 84.7282653 10.8692485 86.3851195 10.8692485 88.0419738 9.52610275 89.3851195 7.8692485 89.3851195z"/>
    </g>
  </g>
</svg>
