<svg xmlns="http://www.w3.org/2000/svg" width="396" height="314" viewBox="0 0 396 314">
  <defs>
    <linearGradient id="universe-a" x1="0%" y1="100%" y2="0%">
      <stop offset="0%" stop-color="#88E9FC"/>
      <stop offset="100%" stop-color="#DFFBFD"/>
    </linearGradient>
    <linearGradient id="universe-b" x1="0%" y1="100%" y2="0%">
      <stop offset="0%" stop-color="#175BAB"/>
      <stop offset="100%" stop-color="#0098FE"/>
    </linearGradient>
    <linearGradient id="universe-c" x1="32.724%" x2="102.495%" y1="71.469%" y2="11.986%">
      <stop offset="0%" stop-color="#004AFF"/>
      <stop offset="100%" stop-color="#93F4FE"/>
    </linearGradient>
    <linearGradient id="universe-d" x1="55.718%" y1="115.403%" y2="38.568%">
      <stop offset="0%" stop-color="#004AFF"/>
      <stop offset="100%" stop-color="#93F4FE"/>
    </linearGradient>
    <linearGradient id="universe-e" x1="0%" x2="87.984%" y1="100%" y2="146.289%">
      <stop offset="0%" stop-color="#004AFF"/>
      <stop offset="100%" stop-color="#93F4FE"/>
    </linearGradient>
    <linearGradient id="universe-f" x1="0%" y1="100%" y2="0%">
      <stop offset="0%" stop-color="#004AFF"/>
      <stop offset="100%" stop-color="#93F4FE"/>
    </linearGradient>
    <linearGradient id="universe-g" x1="-33.742%" y1="137.763%" y2="0%">
      <stop offset="0%" stop-color="#004AFF"/>
      <stop offset="100%" stop-color="#93F4FE"/>
    </linearGradient>
    <linearGradient id="universe-h" x1="6.974%" x2="64.013%" y1="108.816%" y2="-18.59%">
      <stop offset="0%" stop-color="#004AFF"/>
      <stop offset="100%" stop-color="#93F4FE"/>
    </linearGradient>
  </defs>
  <g fill="none" fill-rule="evenodd">
    <g fill="url(#universe-a)">
      <circle cx="119" cy="176" r="14"/>
      <circle cx="33" cy="307" r="7"/>
      <circle cx="240" cy="273" r="7"/>
      <circle cx="333" cy="145" r="7"/>
      <circle cx="137" cy="158" r="4"/>
      <circle cx="4" cy="229" r="4"/>
      <circle cx="315" cy="272" r="4"/>
      <circle cx="237" cy="162" r="4"/>
      <circle cx="183" cy="38" r="4"/>
      <circle cx="101" cy="306" r="4"/>
      <circle cx="68" cy="151" r="4"/>
      <circle cx="225" cy="144" r="2"/>
      <circle cx="231" cy="289" r="2"/>
      <circle cx="249" cy="306" r="2"/>
      <circle cx="143" cy="302" r="2"/>
      <circle cx="154" cy="306" r="2"/>
      <circle cx="239" cy="285" r="2"/>
      <circle cx="263" cy="252" r="2"/>
      <circle cx="322" cy="274" r="2"/>
      <circle cx="376" cy="249" r="2"/>
      <circle cx="296" cy="206" r="2"/>
      <circle cx="324" cy="255" r="2"/>
      <circle cx="333" cy="185" r="2"/>
      <circle cx="296" cy="148" r="2"/>
      <circle cx="276" cy="154" r="2"/>
      <circle cx="320" cy="153" r="2"/>
      <circle cx="354" cy="162" r="2"/>
      <circle cx="318" cy="235" r="2"/>
      <circle cx="287" cy="282" r="2"/>
      <circle cx="274" cy="168" r="2"/>
      <circle cx="324" cy="134" r="2"/>
      <circle cx="364" cy="253" r="2"/>
      <circle cx="64" cy="271" r="2"/>
      <circle cx="97" cy="216" r="2"/>
      <circle cx="31" cy="140" r="2"/>
      <circle cx="34" cy="134" r="2"/>
      <circle cx="70" cy="112" r="2"/>
      <circle cx="126" cy="61" r="2"/>
      <circle cx="30" cy="57" r="2"/>
      <circle cx="360" cy="95" r="2"/>
      <circle cx="292" cy="110" r="2"/>
      <circle cx="272" cy="14" r="2"/>
      <circle cx="394" cy="2" r="2"/>
      <circle cx="2" cy="2" r="2"/>
      <circle cx="158" cy="108" r="2"/>
      <circle cx="199" cy="74" r="2"/>
      <circle cx="192" cy="44" r="2"/>
      <circle cx="342" cy="312" r="2"/>
      <circle cx="117" cy="42" r="2"/>
      <circle cx="167" cy="136" r="2"/>
      <circle cx="97" cy="138" r="2"/>
      <circle cx="26" cy="214" r="2"/>
      <circle cx="64" cy="206" r="2"/>
      <circle cx="43" cy="249" r="2"/>
      <circle cx="22" cy="264" r="2"/>
      <circle cx="29" cy="247" r="2"/>
      <circle cx="200" cy="154" r="2"/>
      <circle cx="212" cy="138" r="2"/>
      <circle cx="243" cy="110" r="2"/>
      <circle cx="105" cy="162" r="2"/>
      <circle cx="126" cy="268" r="2"/>
      <circle cx="250" cy="225" r="2"/>
      <circle cx="225" cy="185" r="2"/>
    </g>
    <g fill="url(#universe-b)" transform="rotate(-15 1108.54 41.622)">
      <polygon fill-rule="nonzero" points=".4 0 1.6 0 1.6 13 .4 13"/>
      <rect width="8" height="6" x="1" y="1"/>
    </g>
    <g transform="translate(36 163)">
      <g transform="translate(78 52)">
        <path fill="url(#universe-c)" d="M57.3949965,66.7866242 C87.3740833,66.7866242 111.912032,42.5310573 113.893223,11.8403261 C113.90201,11.7042084 113.91419,11.4997489 113.929764,11.2269475 C88.2602645,5.84333081 65.0007133,3.15152246 44.1511099,3.15152246 C24.8344436,3.15152246 10.5077755,2.3521077 1.1711056,0.753278182 C1.14140924,1.01752229 1.11960997,1.2158545 1.10570779,1.34827479 C0.882323398,3.47604283 0.767676768,5.63784284 0.767676768,7.82752263 C0.767676768,40.3897353 26.1205914,66.7866242 57.3949965,66.7866242 Z"/>
        <path fill="url(#universe-d)" d="M57.3949965,66.7866242 C77.8032291,66.7866242 95.6899343,55.5461295 105.655611,38.6869805 C105.80246,38.4385516 106.018846,38.0631835 106.304766,37.5608762 C69.1200676,29.2997259 44.3706714,25.1691508 32.0565779,25.1691508 C19.7424845,25.1691508 9.55021737,22.5139727 1.47977653,17.2036167 C1.55467495,17.6776193 1.61236979,18.0325793 1.65286106,18.2684967 C6.38683529,45.8504148 29.542655,66.7866242 57.3949965,66.7866242 Z"/>
      </g>
      <path fill="url(#universe-e)" d="M135.725142,97.6237076 C62.9990811,103.986413 2.68674881,93.6428438 1.01377784,74.5206982 C-0.659193126,55.3985525 56.9407173,34.7389983 129.666779,28.3762924 C202.39284,22.0135865 262.705172,32.3571562 264.378143,51.4793018 C266.051114,70.6014475 208.451204,91.2610017 135.725142,97.6237076 Z M47.6045943,91.6947885 C71.0477323,95.0615338 102.314267,95.4181043 135.373058,92.5258349 C168.431849,89.6335655 199.161457,83.8530353 221.663812,76.4665802 C244.896919,68.8402538 257.881279,60.0962133 257.089266,51.0434665 C256.297254,41.9907197 241.991768,35.6342313 217.787327,32.1581527 C194.344189,28.7914073 163.077654,28.4348369 130.018863,31.3271063 C96.9600723,34.2193757 66.2304641,39.9999059 43.7281092,47.386361 C20.4950022,55.0126873 7.51064196,63.7567279 8.30265468,72.8094747 C9.09466739,81.8622215 23.4001528,88.2187099 47.6045943,91.6947885 Z M220.44903,71.6922983 C198.253314,78.9780986 167.812408,84.7043212 135.033584,87.5720967 C102.25476,90.4398722 71.2819714,90.0866517 48.1582915,86.7657847 C25.7959151,83.5542511 12.7389464,77.7525276 12.1828635,71.396471 C11.6267806,65.0404144 23.4779259,57.0595133 44.9428906,50.0135841 C67.1386073,42.7277837 97.5795135,37.0015611 130.358337,34.1337856 C163.137161,31.2660102 194.10995,31.6192307 217.23363,34.9400976 C239.596006,38.1516313 252.652975,43.9533548 253.209058,50.3094114 C253.76514,56.665468 241.913995,64.6463691 220.44903,71.6922983 Z M134.563069,80.0470306 C184.923102,75.6410986 224.912042,62.5146275 223.880867,50.7282368 C222.849691,38.941846 181.188885,32.9588021 130.828852,37.3647341 C80.4688189,41.7706661 40.4798787,54.8971372 41.5110543,66.6835279 C42.5422299,78.4699187 84.2030359,84.4529626 134.563069,80.0470306 Z"/>
      <g transform="translate(79)">
        <path fill="url(#universe-f)" d="M0.221986855,52.8218498 C3.3204991,23.1157474 27.3399503,2.274e-13 56.5112755,2.274e-13 C87.7856806,2.274e-13 113.138595,26.5689098 113.138595,59.3433211 C113.138595,61.1190766 113.064169,62.8766153 112.918408,64.6126982 C112.925905,64.5045952 112.933126,64.3964008 112.940071,64.2881157 C112.948858,64.151111 112.972001,63.8303312 113.009502,63.3257763 C87.4336391,58.3338948 64.220906,55.837954 43.3713026,55.837954 C24.0546363,55.837954 9.67153103,54.832586 0.221986855,52.8218498 Z"/>
        <path fill="url(#universe-g)" d="M113.076136,56.5311862 C113.061457,56.2208791 113.049811,55.9883267 113.041195,55.8335291 C112.608699,48.0626767 110.749366,40.6933276 107.733733,34.0089942 C107.595714,33.7030681 107.383266,33.2474379 107.096388,32.6421037 C103.84565,34.5574693 100.72324,36.9914616 97.7291583,39.9440807 C93.2380363,44.3730093 94.720788,53.7278971 101.802054,55.8335291 C106.522898,57.2372838 110.280925,57.4698361 113.076136,56.5311862 Z"/>
        <path fill="url(#universe-h)" d="M46.7698131,36.5337367 C64.442611,38.2396695 83.4970142,35.0276318 103.933023,26.8976236 C103.630342,26.4184792 103.401526,26.060503 103.246576,25.8236951 C93.0428538,10.2295297 75.9170072,0 56.5112755,0 C36.2886122,0 18.541829,11.1089324 8.52447177,27.8212771 C8.33647984,28.1349114 8.06065594,28.609762 7.69700009,29.245829 C16.0727442,32.3985013 29.0970152,34.8278039 46.7698131,36.5337367 Z"/>
        <path fill="url(#universe-f)" d="M48.651382,20.9632539 C63.4623108,18.2838611 76.1830234,14.363583 86.8135198,9.20241957 C86.4943734,8.9919087 86.2544138,8.83494236 86.0936409,8.73152057 C77.4843483,3.19334455 67.3536669,0 56.5112755,0 C39.6750505,0 24.5549246,7.69989962 14.1824959,19.922697 C13.9882723,20.1515688 13.7007047,20.4984211 13.3197933,20.9632539 C22.0632569,23.6426467 33.8404532,23.6426467 48.651382,20.9632539 Z"/>
      </g>
    </g>
  </g>
</svg>
