<?xml version="1.0" encoding="UTF-8"?>
<svg width="54px" height="40px" viewBox="0 0 54 40" version="1.1" xmlns="http://www.w3.org/2000/svg" xmlns:xlink="http://www.w3.org/1999/xlink">
    <!-- Generator: Sketch 47.1 (45422) - http://www.bohemiancoding.com/sketch -->
    <title>search</title>
    <desc>Created with Sketch.</desc>
    <defs>
        <linearGradient x1="19.4762866%" y1="88.4126955%" x2="86.0468234%" y2="18.4958616%" id="linearGradient-1">
            <stop stop-color="#004AFF" offset="0%"></stop>
            <stop stop-color="#93F4FE" offset="100%"></stop>
        </linearGradient>
        <linearGradient x1="100%" y1="53.8352251%" x2="0%" y2="53.8352273%" id="linearGradient-2">
            <stop stop-color="#CBDDFF" offset="0%"></stop>
            <stop stop-color="#55CDFF" offset="100%"></stop>
        </linearGradient>
    </defs>
    <g id="Design_Ecosystem" stroke="none" stroke-width="1" fill="none" fill-rule="evenodd">
        <g id="search">
            <g id="Group-4">
                <polygon id="Triangle-3" fill="url(#linearGradient-1)" opacity="0.6" transform="translate(6.240506, 20.000000) scale(-1, 1) rotate(90.000000) translate(-6.240506, -20.000000) " points="6.24050633 14 19.4050633 26 -6.92405063 26"></polygon>
                <polygon id="Triangle-3" fill="url(#linearGradient-1)" opacity="0.6" transform="translate(47.759494, 20.000000) scale(1, -1) rotate(90.000000) translate(-47.759494, -20.000000) " points="47.7594937 14 60.9240506 26 34.5949367 26"></polygon>
                <path d="M27.5063291,40 C16.3208152,40 7.25316456,31.045695 7.25316456,20 C7.25316456,8.954305 16.3208152,0 27.5063291,0 C38.691843,0 47.7594937,8.954305 47.7594937,20 C47.7594937,31.045695 38.691843,40 27.5063291,40 Z M27.6904488,31.6363636 C34.0966977,31.6363636 39.2899885,26.507989 39.2899885,20.1818182 C39.2899885,13.8556474 34.0966977,8.72727273 27.6904488,8.72727273 C21.2841999,8.72727273 16.0909091,13.8556474 16.0909091,20.1818182 C16.0909091,26.507989 21.2841999,31.6363636 27.6904488,31.6363636 Z" id="Combined-Shape" fill="url(#linearGradient-2)"></path>
            </g>
        </g>
    </g>
</svg>