<svg xmlns="http://www.w3.org/2000/svg" width="87" height="115" viewBox="0 0 87 115" fill="none">
    <path fill="#ffffff" fill-rule="evenodd" clip-rule="evenodd" d="M85.9847 46.2107C87.7785 34.1325 78.6489 27.6396 66.1655 23.3082L70.2149 6.94678L60.3278 4.46477L56.3854 20.395C53.7862 19.7426 51.1166 19.127 48.4639 18.5172L52.4345 2.48201L42.553 0L38.5008 16.3557C36.3493 15.8621 34.2373 15.3743 32.1872 14.8608L32.1985 14.8098L18.5633 11.3804L15.9331 22.0175C15.9331 22.0175 23.2689 23.711 23.114 23.8159C27.1184 24.8229 27.8421 27.4921 27.721 29.6082L23.1083 48.2474C23.3843 48.3183 23.742 48.4204 24.1362 48.5792C24.0268 48.5519 23.915 48.5237 23.801 48.4949C23.5718 48.437 23.3341 48.377 23.0915 48.3183L16.6258 74.429C16.1359 75.6544 14.894 77.4925 12.0949 76.7947C12.1934 76.9394 4.90834 74.9878 4.90834 74.9878L0 86.388L12.8664 89.6189C14.3033 89.9816 15.7229 90.3545 17.1277 90.7235C18.0631 90.9692 18.992 91.2132 19.915 91.4513L15.8233 108L25.6991 110.482L29.7514 94.1092C32.4491 94.8467 35.068 95.5275 37.6306 96.1685L33.5924 112.465L43.4795 114.947L47.5712 98.4293C64.4308 101.643 77.1086 100.347 82.4449 84.9867C86.745 72.6192 82.2309 65.4853 73.3604 60.8333C79.8204 59.3327 84.6865 55.0523 85.9847 46.2107ZM63.3942 78.1195C60.591 89.4661 42.9592 84.7751 34.8917 82.6288C34.1659 82.4357 33.5174 82.2631 32.9642 82.1248L38.3935 60.2008C39.0671 60.3702 39.8902 60.5562 40.8226 60.767C49.1667 62.6529 66.2666 66.518 63.3942 78.1195ZM42.4993 50.5926C49.2255 52.4007 63.897 56.3447 66.4526 46.032C69.0624 35.4836 54.8027 32.3038 47.8386 30.7509C47.0553 30.5762 46.3642 30.4221 45.7999 30.2804L40.8774 50.1649C41.3424 50.2816 41.888 50.4283 42.4993 50.5926Z"/>
</svg>
