<svg width="20" height="20" viewBox="0 0 20 20" fill="none" xmlns="http://www.w3.org/2000/svg">
<path d="M16.5004 6.02665C16.4395 5.88969 16.3536 5.70989 16.2406 5.50332C15.9888 5.04301 15.597 4.43974 15.0389 3.88155C13.9665 2.80918 12.5721 1.70158 10.2286 1.60463C8.55756 1.5355 6.95458 2.25267 6.1887 2.65548C5.89854 2.80809 5.79811 3.11524 5.85565 3.37317C5.91171 3.6245 6.12004 3.85051 6.42547 3.8879C6.85286 3.94021 7.46337 4.04363 8.03378 4.2399C8.62086 4.4419 9.07898 4.7133 9.30345 5.04651C9.63009 5.53139 9.61362 6.05609 9.49065 6.50216C9.38706 6.87791 9.13133 7.18712 8.85059 7.4575L1.29264 14.7366C0.867689 15.1459 0.887591 15.8322 1.33554 16.2162L3.29086 17.8921C3.69011 18.2344 4.28617 18.2089 4.65479 17.8339L11.879 10.4849C12.2172 10.1409 12.5743 9.80932 12.9978 9.5784C13.0959 9.52488 13.1937 9.48302 13.2856 9.45031L13.2887 9.58116C13.2959 9.88829 13.4212 10.1808 13.6384 10.3981L14.6916 11.4513C15.1583 11.918 15.915 11.918 16.3817 11.4513L18.6501 9.18292C19.1168 8.7162 19.1168 7.9595 18.6501 7.49278L17.5694 6.41209C17.38 6.22271 17.1325 6.10242 16.8666 6.07055L16.5004 6.02665Z" stroke="#0c152e" stroke-width="1.3"/>
</svg>
