<svg width="16" height="16" viewBox="0 0 16 16" fill="none" xmlns="http://www.w3.org/2000/svg">
<path fill-rule="evenodd" clip-rule="evenodd" d="M4.68977 1.32004C4.68977 0.961059 4.39875 0.670044 4.03977 0.670044C3.68078 0.670044 3.38977 0.961059 3.38977 1.32004V2.38871H2.7998C1.69524 2.38871 0.799805 3.28414 0.799805 4.38871V13.1984C0.799805 14.303 1.69524 15.1984 2.79981 15.1984H13.1998C14.3044 15.1984 15.1998 14.303 15.1998 13.1984V4.38871C15.1998 3.28414 14.3044 2.38871 13.1998 2.38871H12.6098V1.32004C12.6098 0.961059 12.3188 0.670044 11.9598 0.670044C11.6008 0.670044 11.3098 0.961059 11.3098 1.32004V2.38871H4.68977V1.32004ZM2.7998 3.68871H13.1998C13.5864 3.68871 13.8998 4.00211 13.8998 4.38871V5.75003H2.0998V4.38871C2.0998 4.00211 2.41321 3.68871 2.7998 3.68871ZM2.0998 7.05003V13.1984C2.0998 13.585 2.41321 13.8984 2.79981 13.8984H13.1998C13.5864 13.8984 13.8998 13.585 13.8998 13.1984V7.05003H2.0998Z" fill="#4070F4"/>
</svg>
