<svg width="20" height="20" viewBox="0 0 20 20" fill="none" xmlns="http://www.w3.org/2000/svg">
<path fill-rule="evenodd" clip-rule="evenodd" d="M9.3959 2.68478C9.38556 2.67906 9.36951 2.67293 9.33982 2.67567C5.4774 3.03261 2.5594 6.33312 2.67853 10.2102C2.79766 14.0872 5.91279 17.2023 9.78984 17.3215C13.6669 17.4406 16.9674 14.5226 17.3243 10.6602C17.3271 10.6305 17.3209 10.6144 17.3152 10.6041C17.3079 10.5909 17.2944 10.576 17.2743 10.5647C17.2541 10.5533 17.2344 10.5495 17.2193 10.5501C17.2075 10.5505 17.1906 10.5536 17.1666 10.5713C14.9642 12.1992 11.9023 11.9709 9.9657 10.0343C8.02913 8.09774 7.80079 5.03577 9.4287 2.83339C9.44643 2.80941 9.4495 2.7925 9.44995 2.78069C9.45053 2.76558 9.4467 2.74587 9.43535 2.72574C9.424 2.7056 9.40913 2.69211 9.3959 2.68478ZM9.21559 1.3314C10.4621 1.21621 11.2584 2.62917 10.5143 3.63584C9.28362 5.30083 9.45625 7.61567 10.9203 9.07971C12.3843 10.5438 14.6992 10.7164 16.3642 9.48568C17.3708 8.74159 18.7838 9.5379 18.6686 10.7844C18.246 15.3572 14.3385 18.8119 9.74837 18.6708C5.15826 18.5298 1.4702 14.8417 1.32916 10.2516C1.18813 5.66152 4.6428 1.75398 9.21559 1.3314Z" fill="#8A8CA2"/>
</svg>
