<svg width="16" height="16" viewBox="0 0 16 16" fill="none" xmlns="http://www.w3.org/2000/svg">
<path fill-rule="evenodd" clip-rule="evenodd" d="M7.40413 8.92414L5.90964 7.50933C5.60884 7.22456 5.12114 7.22456 4.82033 7.50932C4.51953 7.79408 4.51952 8.25577 4.82033 8.54054L7.60945 11.181C7.7539 11.3177 7.94981 11.3945 8.1541 11.3945C8.35838 11.3945 8.5543 11.3177 8.69875 11.181L11.4879 8.54056C11.7887 8.2558 11.7887 7.79411 11.4879 7.50935C11.1871 7.22458 10.6994 7.22458 10.3986 7.50934L8.90413 8.92412V1.85293C8.90413 1.43872 8.56835 1.10293 8.15413 1.10293C7.73992 1.10293 7.40413 1.43872 7.40413 1.85293V8.92414Z" fill="white"/>
<path d="M2.92188 13.5996H13.0844" stroke="white" stroke-width="1.3" stroke-linecap="round"/>
</svg>
