<svg width="47" height="32" viewBox="0 0 47 32" fill="none" xmlns="http://www.w3.org/2000/svg">
<g clip-path="url(#clip0_4:2969)">
<path d="M39.0187 0.945435H5.37973V23.9191H39.0187V0.945435Z" fill="#F7F9FB"/>
<path d="M39.1052 24.0043H5.29147V0.851593H39.1052V24.0043ZM5.46457 23.8305H38.9321V1.02539H5.46457V23.8305Z" fill="#231F20"/>
<path d="M39.0187 1.02191H11.7426V20.4867H39.0187V1.02191Z" fill="#DFE6F2"/>
<path d="M39.1052 24.0043H5.29147V0.851593H39.1052V24.0043ZM5.46457 23.8305H38.9321V1.02539H5.46457V23.8305Z" fill="#231F20"/>
<path d="M3.71631 23.9192H5.37973L5.37973 0.945444H3.71631L3.71631 23.9192Z" fill="#4070F4"/>
<path d="M5.46457 24.0043H3.62805V0.851593H5.46457V24.0043ZM3.80114 23.8305H5.29148V1.02539H3.80114V23.8305Z" fill="#0C152E"/>
<path d="M27.2916 24.3745H16.9095V30.1705H27.2916V24.3745Z" fill="#F7F9FB"/>
<path d="M27.3781 30.2574H16.8195V23.827H27.3781V30.2574ZM16.9926 30.0836H27.2051V24.0008H16.9926V30.0836Z" fill="#231F20"/>
<path d="M14.9241 30.1722H16.9112V23.9191H14.9241V30.1722Z" fill="#4070F4"/>
<path d="M16.996 30.2574H14.8358V23.827H16.996V30.2574ZM15.0089 30.0836H16.8229V24.0008H15.0089V30.0836Z" fill="#0C152E"/>
<path d="M29.8655 30.1722H14.3391V31.533H29.8655V30.1722Z" fill="white"/>
<path d="M29.9503 31.613H14.2508V30.0836H29.9503V31.613ZM14.4239 31.4392H29.7772V30.2574H14.4239V31.4392Z" fill="#231F20"/>
<path d="M14.339 30.1722H11.2061V31.533H14.339V30.1722Z" fill="#4070F4"/>
<path d="M14.4239 31.613H11.1195V30.0836H14.4239V31.613ZM11.2926 31.4392H14.2508V30.2574H11.2926V31.4392Z" fill="#0C152E"/>
<path d="M40.3255 1.95517H12.7085V19.5535H40.3255V1.95517Z" fill="white"/>
<path fill-rule="evenodd" clip-rule="evenodd" d="M26.9457 4.02711C26.9369 3.99096 26.8928 3.99096 26.8752 4.02711L25.8527 5.81636C25.8439 5.83443 25.8439 5.8525 25.8527 5.86154L26.9104 7.72308L29.7134 12.6571C29.7222 12.6751 29.7222 12.6932 29.7046 12.7113L28.2238 14.4102L26.646 16.2356C26.6196 16.2627 26.6372 16.3079 26.6813 16.3079H29.0435C29.0523 16.3079 29.07 16.2988 29.0788 16.2898L31.9876 12.9372C31.9964 12.9191 32.0052 12.9011 31.9964 12.883L26.9457 4.02711ZM25.8345 16.2941C25.841 16.2895 25.8474 16.2849 25.8516 16.2803L27.3726 14.4407C27.3983 14.4132 27.3812 14.3672 27.3385 14.3672H25.6636C25.6551 14.3672 25.638 14.358 25.6295 14.3488L24.211 12.638C24.2025 12.6196 24.1939 12.6012 24.2025 12.5828L26.578 8.19555C26.5865 8.17716 26.5865 8.15876 26.578 8.14957L25.5953 6.32843C25.5782 6.30084 25.5355 6.30084 25.5184 6.32843L22.0064 12.822C21.9979 12.8404 21.9979 12.8588 22.0064 12.8771L24.8262 16.2895C24.8348 16.2987 24.8433 16.3079 24.8604 16.3079H25.8175C25.8217 16.3033 25.8281 16.2987 25.8345 16.2941Z" fill="#4070F4"/>
<path d="M40.412 19.6404H12.6202V1.86829H40.412V19.6404ZM12.7933 19.4666H40.239V2.04208H12.7933V19.4666Z" fill="#231F20"/>
<path d="M40.3255 0.0868835H12.7085V1.95516H40.3255V0.0868835Z" fill="#DFE6F2"/>
<path d="M40.412 2.04207H12.6202V0H40.412V2.04207ZM12.7933 1.86828H40.239V0.173793H12.7933V1.86828Z" fill="#231F20"/>
<path d="M14.1331 1.51548C14.3711 1.51548 14.5641 1.32174 14.5641 1.08274C14.5641 0.84374 14.3711 0.649994 14.1331 0.649994C13.895 0.649994 13.7021 0.84374 13.7021 1.08274C13.7021 1.32174 13.895 1.51548 14.1331 1.51548Z" fill="#4070F4"/>
<path d="M32.8202 3.98506C32.9454 3.98506 33.047 3.88313 33.047 3.75739C33.047 3.63166 32.9454 3.52972 32.8202 3.52972C32.695 3.52972 32.5934 3.63166 32.5934 3.75739C32.5934 3.88313 32.695 3.98506 32.8202 3.98506Z" fill="#DFE6F2"/>
<path d="M39.0187 26.6216C37.7218 26.6216 36.478 27.1389 35.561 28.0596C34.644 28.9804 34.1288 30.2292 34.1288 31.5313H43.9085C43.9085 30.2292 43.3934 28.9804 42.4763 28.0596C41.5593 27.1389 40.3155 26.6216 39.0187 26.6216Z" fill="#4A73EB"/>
<path d="M35.9705 29.3345H34.7086V29.1607H35.9705C36.1814 29.1603 36.3834 29.0758 36.5324 28.926C36.6813 28.7761 36.765 28.573 36.765 28.3613V27.1447H36.9381V28.3613C36.9376 28.619 36.8356 28.866 36.6543 29.0484C36.473 29.2307 36.2271 29.3336 35.9705 29.3345Z" fill="#0E152C"/>
<path d="M46.9983 31.4444H0V31.6182H46.9983V31.4444Z" fill="#0C152E"/>
</g>
<defs>
<clipPath id="clip0_4:2969">
<rect width="47" height="31.6182" fill="white"/>
</clipPath>
</defs>
</svg>
