<svg width="40" height="40" viewBox="0 0 36 36" xmlns="http://www.w3.org/2000/svg" xmlns:xlink="http://www.w3.org/1999/xlink"><defs><circle id="a" cx="18" cy="18" r="18"/></defs><g fill="none" fill-rule="evenodd"><mask id="b" fill="#fff"><use xlink:href="#a"/></mask><use fill="#4070F4" xlink:href="#a"/><path d="M16.566 26.956c-.013.015-.04.03-.054.044h-1.507c-.027 0-.04-.015-.054-.03l-4.44-5.405a.1.1 0 0 1 0-.088l5.53-10.288a.072.072 0 0 1 .122 0l1.547 2.885c.014.015.014.044 0 .073l-3.741 6.951c-.014.03 0 .059.013.088l2.234 2.71c.014.015.04.03.054.03h2.638a.07.07 0 0 1 .054.116l-2.396 2.914zm1.612-19.413c.028-.057.098-.057.112 0l7.954 14.03c.014.03 0 .058-.014.087l-4.58 5.311a.104.104 0 0 1-.056.029h-3.72c-.07 0-.098-.072-.056-.115l2.485-2.892 2.332-2.691c.028-.029.028-.058.014-.086l-4.415-7.817-1.666-2.95c-.014-.014-.014-.043 0-.071l1.61-2.835z" fill="#FFF" fill-rule="nonzero" mask="url(#b)"/></g></svg>