<svg width="21" height="20" viewBox="0 0 21 20" fill="none" xmlns="http://www.w3.org/2000/svg">
<path d="M13.5701 9.45783L12.2207 8.73577C12.402 8.19018 12.5001 7.60664 12.5001 7.00018C12.5001 3.96262 10.0377 1.50018 7.00011 1.50018C6.4054 1.50018 5.83273 1.59457 5.29626 1.76919C6.72818 0.103761 9.17134 -0.407009 11.1884 0.67223C13.0768 1.68268 14.0931 3.58189 13.6748 5.60547L18.5907 8.23577C18.7284 8.30944 18.8375 8.42703 18.9006 8.56983L19.5729 10.0898C19.757 10.5062 19.5009 10.9848 19.0523 11.0626L17.3503 11.3579C17.2382 11.3774 17.1229 11.3588 17.0226 11.3051L16.1474 10.8368L15.9249 10.0447L15.355 10.23C15.0796 10.3196 14.785 10.1621 14.7064 9.88337L14.5435 9.30558L13.9689 9.49301C13.8367 9.53612 13.6927 9.52342 13.5701 9.45783Z" fill="#4070F4"/>
<path d="M5.97972 5.08412C5.704 5.14816 5.5324 5.42359 5.59644 5.6993C5.66048 5.97502 5.9359 6.14662 6.21162 6.08258C6.48733 6.01854 6.65893 5.74312 6.59489 5.4674C6.53086 5.19169 6.25543 5.02009 5.97972 5.08412Z" fill="#4070F4"/>
<path fill-rule="evenodd" clip-rule="evenodd" d="M1.57721 8.50628C2.06478 10.6055 3.66702 12.1604 5.71839 12.4229L6.14535 14.2612C6.1768 14.3966 6.26217 14.5133 6.38168 14.5843L6.96259 14.9293L6.59645 15.4924C6.43859 15.7352 6.51431 16.0606 6.76316 16.2087L7.33939 16.5517L6.85132 17.3008L7.08705 18.3157C7.11279 18.4265 7.17484 18.5256 7.26334 18.597L8.70454 19.7613C9.05871 20.0474 9.58745 19.9246 9.77927 19.5117L10.5322 17.8907C10.598 17.7491 10.6146 17.5896 10.5792 17.4375L9.23201 11.6369C11.1443 10.5648 11.954 8.42937 11.4398 6.2156C10.8073 3.49212 8.08668 1.79708 5.36319 2.42963C2.6397 3.06218 0.94466 5.78279 1.57721 8.50628ZM4.81718 5.88029C4.65319 5.1742 5.09264 4.46886 5.79873 4.30487C6.50481 4.14087 7.21016 4.58033 7.37415 5.28641C7.53815 5.9925 7.09869 6.69784 6.3926 6.86184C5.68652 7.02583 4.98118 6.58638 4.81718 5.88029Z" fill="#4070F4"/>
</svg>
