<?xml version="1.0" encoding="UTF-8"?>
<svg width="40px" height="40px" viewBox="0 0 40 40" version="1.1" xmlns="http://www.w3.org/2000/svg" xmlns:xlink="http://www.w3.org/1999/xlink">
    <!-- Generator: sketchtool 63.1 (101010) - https://sketch.com -->
    <title>921D43A2-E186-4A11-A6E9-C7F3734A26E3</title>
    <desc>Created with sketchtool.</desc>
    <g id="ðŸ -Dashboard" stroke="none" stroke-width="1" fill="none" fill-rule="evenodd">
        <g id="1.1.1-Dashboard---News-feed---Normal-width" transform="translate(-487.000000, -246.000000)">
            <g id="Community-Feed---5-Col" transform="translate(467.000000, 179.000000)">
                <g id="twitter-icon">
                    <g transform="translate(20.000000, 67.000000)">
                        <rect id="Rectangle" fill="#EDF8FE" x="0" y="0" width="40" height="40" rx="20"></rect>
                        <g id="Combined-Shape-2" transform="translate(8.750000, 11.250000)" fill="#1DA1F2" fill-rule="nonzero">
                            <path d="M6.77341538,17.5 C14.9011692,17.5 19.3467077,10.7667023 19.3467077,4.92761695 C19.3467077,4.73636924 19.3467077,4.54598301 19.3337846,4.35645825 C20.1986239,3.73094977 20.9451678,2.9564556 21.5384615,2.06923905 C20.7319573,2.42658089 19.8764068,2.66092556 19.0003692,2.76445031 C19.9228564,2.21222864 20.6132756,1.3436797 20.9431385,0.320442452 C20.0757049,0.835135962 19.1267105,1.19786627 18.1371077,1.39298027 C16.7673328,-0.0634362526 14.5907736,-0.419899317 12.8279194,0.523475091 C11.0650651,1.4668495 10.1543292,3.47544875 10.6064,5.42296574 C7.05332556,5.24485514 3.74293298,3.56676311 1.49907692,0.806315005 C0.326198067,2.82530906 0.925281869,5.40819959 2.8672,6.70484226 C2.16396165,6.68400104 1.47605607,6.49430884 0.861538462,6.15177457 C0.861538462,6.16986557 0.861538462,6.18881804 0.861538462,6.20777052 C0.862114084,8.31114465 2.34489359,10.1227792 4.40676923,10.5392726 C3.75619534,10.7166851 3.07360789,10.7426192 2.41144615,10.6150825 C2.99035514,12.4150705 4.64935655,13.6481539 6.53993846,13.6836606 C4.97515634,14.9133592 3.04214358,15.5809135 1.05193846,15.5789082 C0.70034769,15.5782332 0.349098887,15.556947 0,15.5151589 C2.02085559,16.8119188 4.37223308,17.4997561 6.77341538,17.4965541" id="Path"></path>
                        </g>
                    </g>
                </g>
            </g>
        </g>
    </g>
</svg>