<svg width="20" height="20" viewBox="0 0 20 20" fill="none" xmlns="http://www.w3.org/2000/svg">
<path fill-rule="evenodd" clip-rule="evenodd" d="M10 6.5C11.933 6.5 13.5 8.067 13.5 10C13.5 11.933 11.933 13.5 10 13.5C8.067 13.5 6.5 11.933 6.5 10C6.5 8.067 8.067 6.5 10 6.5ZM10 8.0141C8.90329 8.0141 8.01422 8.90317 8.01422 9.9999C8.01422 11.0966 8.90329 11.9857 10 11.9857C11.0967 11.9857 11.9858 11.0966 11.9858 9.9999C11.9858 8.90317 11.0967 8.0141 10 8.0141Z" fill="#8A8CA2"/>
<path fill-rule="evenodd" clip-rule="evenodd" d="M7.42801 3.21044V2.15385C7.42801 1.51659 7.95492 1 8.60491 1H11.3951C12.0451 1 12.572 1.51659 12.572 2.15385V3.21044C13.4067 3.49982 14.1801 3.92841 14.858 4.47425L15.8611 3.92169C16.4183 3.61473 17.1236 3.79995 17.4497 4.3389L18.8351 6.62823C19.1667 7.17629 18.9824 7.88416 18.4234 8.20931C18.4174 8.21275 18.4144 8.21448 18.4114 8.21617C18.4084 8.21787 18.4054 8.21955 18.3994 8.2229L17.4355 8.75387C17.5099 9.16255 17.5476 9.57905 17.5476 10C17.5476 10.421 17.5099 10.8375 17.4355 11.2461L18.3994 11.7771C18.966 12.0892 19.1673 12.7927 18.8489 13.3482L18.8437 13.3573L18.8351 13.3718L17.4497 15.6611C17.1236 16.2001 16.4183 16.3853 15.8611 16.0783L14.858 15.5258C14.1801 16.0716 13.4067 16.5002 12.572 16.7896V17.8462C12.572 18.4834 12.0451 19 11.3951 19H8.60491C7.95492 19 7.42801 18.4834 7.42801 17.8462V16.7896C6.59332 16.5002 5.8199 16.0716 5.14203 15.5258L4.13892 16.0783C3.58167 16.3853 2.87639 16.2001 2.55026 15.6611L1.16493 13.3718C0.833289 12.8237 1.01761 12.1158 1.57662 11.7907C1.58856 11.7838 1.58856 11.7838 1.60062 11.7771L2.56452 11.2461C2.49014 10.8375 2.4524 10.421 2.4524 10C2.4524 9.57905 2.49014 9.16255 2.56452 8.75387L1.60062 8.2229C1.03396 7.91075 0.832685 7.20733 1.15107 6.65176L1.15793 6.63996L1.16493 6.62823L2.55026 4.3389C2.87639 3.79995 3.58167 3.61473 4.13892 3.92169L5.14203 4.47425C5.8199 3.92841 6.59332 3.49982 7.42801 3.21044ZM8.84028 2.38459V3.71821C8.84028 4.02981 8.62796 4.30301 8.32154 4.3857C7.34016 4.65053 6.44646 5.14571 5.71782 5.82126C5.49314 6.02957 5.15635 6.07032 4.88675 5.92181L3.64756 5.2392L2.5025 7.13148L3.71122 7.79731C3.99057 7.95119 4.12922 8.27018 4.04895 8.57431C3.92699 9.03639 3.86467 9.51399 3.86467 9.99998C3.86467 10.486 3.92699 10.9636 4.04895 11.4256C4.12922 11.7298 3.99057 12.0488 3.71122 12.2026L2.5025 12.8685L3.64756 14.7608L4.88675 14.0781C5.15635 13.9296 5.49314 13.9704 5.71782 14.1787C6.44646 14.8542 7.34016 15.3494 8.32154 15.6143C8.62796 15.6969 8.84028 15.9701 8.84028 16.2817V17.6154H11.1597V16.2817C11.1597 15.9701 11.372 15.6969 11.6785 15.6143C12.6598 15.3494 13.5535 14.8542 14.2822 14.1787C14.5069 13.9704 14.8436 13.9296 15.1132 14.0781L16.3524 14.7608L17.4975 12.8685L16.2888 12.2026C16.0094 12.0488 15.8708 11.7298 15.951 11.4256C16.073 10.9636 16.1353 10.486 16.1353 9.99998C16.1353 9.51399 16.073 9.03639 15.951 8.57431C15.8708 8.27018 16.0094 7.95119 16.2888 7.79731L17.4975 7.13148L16.3524 5.2392L15.1132 5.92181C14.8436 6.07032 14.5069 6.02957 14.2822 5.82126C13.5535 5.14571 12.6598 4.65053 11.6785 4.3857C11.372 4.30301 11.1597 4.02981 11.1597 3.71821V2.38459H8.84028Z" fill="#8A8CA2"/>
</svg>
