<svg width="20" height="20" viewBox="0 0 20 20" fill="none" xmlns="http://www.w3.org/2000/svg">
<path d="M2 4C2 2.89543 2.89543 2 4 2H16C17.1046 2 18 2.89543 18 4V7.33333H12.6667C12.0467 7.33333 11.7367 7.33333 11.4824 7.40148C10.7922 7.58642 10.2531 8.12551 10.0681 8.8157C10 9.07003 10 9.38002 10 10C10 10.62 10 10.93 10.0681 11.1843C10.2531 11.8745 10.7922 12.4136 11.4824 12.5985C11.7367 12.6667 12.0467 12.6667 12.6667 12.6667H18V16C18 17.1046 17.1046 18 16 18H4C2.89543 18 2 17.1046 2 16V4Z" fill="#4070F4"/>
<path fill-rule="evenodd" clip-rule="evenodd" d="M11.2851 9.07062C11.2007 9.26272 11.2007 9.50818 11.2007 9.9991C11.2007 10.49 11.2007 10.7355 11.2851 10.9276C11.3858 11.1572 11.5692 11.3406 11.7988 11.4414C11.9909 11.5257 12.2364 11.5257 12.7273 11.5257H17.2V8.47251H12.7273C12.2364 8.47251 11.9909 8.47251 11.7988 8.55683C11.5692 8.65761 11.3858 8.84099 11.2851 9.07062ZM14.8 9.91111C14.8 10.3529 14.4418 10.7111 14 10.7111C13.5582 10.7111 13.2 10.3529 13.2 9.91111C13.2 9.46928 13.5582 9.11111 14 9.11111C14.4418 9.11111 14.8 9.46928 14.8 9.91111Z" fill="#4070F4"/>
</svg>
