<svg width="24" height="24" viewBox="0 0 24 24" fill="none" xmlns="http://www.w3.org/2000/svg">
<path fill-rule="evenodd" clip-rule="evenodd" d="M14.1772 3.5999C13.2463 1.9999 10.9191 1.9999 9.98824 3.5999L1.61034 17.9999C0.679462 19.5999 1.84306 21.5999 3.70481 21.5999H20.4606C22.3224 21.5999 23.486 19.5999 22.5551 17.9999L14.1772 3.5999Z" fill="#F7E36D"/>
<path fill-rule="evenodd" clip-rule="evenodd" d="M12.0828 8.3999C11.6487 8.3999 11.2967 8.75181 11.2967 9.18591V14.8139C11.2967 15.248 11.6487 15.5999 12.0828 15.5999C12.5169 15.5999 12.8688 15.248 12.8688 14.8139V9.18591C12.8688 8.75181 12.5169 8.3999 12.0828 8.3999ZM12.0826 16.8C11.6519 16.8 11.2966 17.1493 11.2966 17.58C11.2966 18.0108 11.6519 18.36 12.0826 18.36C12.5134 18.36 12.8687 18.0108 12.8687 17.58C12.8687 17.1493 12.5134 16.8 12.0826 16.8Z" fill="#0C152E"/>
</svg>
