<svg xmlns="http://www.w3.org/2000/svg" width="644" height="374" viewBox="0 0 644 374">
  <g fill="none" fill-rule="evenodd" transform="translate(1 7)">
    <polygon fill="#3D71FF" fill-rule="nonzero" points="62.553 222.578 0 222.578 65.197 287.686 127.737 287.686"/>
    <path stroke="#254898" stroke-width="1.34" d="M446.861139,0.18762975 L446.861139,68.5384673 L499.456512,68.5384673 L499.456512,114.454148 L551.635847,114.454148 C551.890838,111.411865 552.051886,108.342779 552.051886,105.233486 C552.051886,77.3735924 540.969321,50.6547679 521.242229,30.9548486 C501.515138,11.2549292 474.75946,0.18762975 446.861139,0.18762975 L446.861139,0.18762975 Z"/>
    <path fill="#2BD67B" fill-rule="nonzero" stroke="#2BD67B" stroke-width="1.34" d="M580.637786,303.571533 L580.637786,241.68052 L518.540621,241.68052 L518.540621,179.776105 L493.269611,179.776105 L493.269611,276.271405 L432.219253,276.271405 L432.219253,322.495334 C435.780731,321.591974 439.442247,321.14167 443.116789,321.155121 C467.550283,321.332171 487.224034,341.2367 487.082709,365.636774 L642.573905,365.636774 L642.573905,303.571533 L580.637786,303.571533 Z"/>
    <ellipse cx="43.308" cy="72.837" stroke="#254898" stroke-width="1.34" rx="43.308" ry="43.249"/>
    <path stroke="#254898" stroke-width="1.34" d="M356.473326,365.368732 L364.659899,365.368732"/>
    <polyline stroke="#254898" stroke-width="1.34" points="364.66 327.146 364.66 290.464 293.074 290.464 293.074 331.287"/>
    <rect width="24.654" height="36.682" x="364.66" y="290.464" fill="#254898" fill-rule="nonzero" stroke="#254898" stroke-width="1.34" transform="rotate(-180 376.987 308.805)"/>
    <polygon stroke="#254898" stroke-width="1.34" points="57.136 325.877 95.331 325.877 95.331 336.719 57.136 336.719" transform="rotate(.25 76.234 331.298)"/>
    <polygon fill="#254898" fill-rule="nonzero" stroke="#254898" stroke-width="1.34" points="82.3 325.932 95.318 325.932 95.318 336.774 82.3 336.774" transform="rotate(.25 88.809 331.353)"/>
    <polygon stroke="#254898" stroke-width="1.34" points="107.865 326.098 146.06 326.098 146.06 336.94 107.865 336.941" transform="rotate(.25 126.962 331.52)"/>
    <polygon fill="#254898" fill-rule="nonzero" stroke="#254898" stroke-width="1.34" points="133.028 326.14 146.046 326.139 146.046 336.982 133.028 336.982" transform="rotate(.25 139.537 331.56)"/>
    <polygon stroke="#254898" stroke-width="1.34" points="158.593 326.319 196.788 326.319 196.788 337.161 158.593 337.162" transform="rotate(.25 177.69 331.74)"/>
    <polygon fill="#254898" fill-rule="nonzero" stroke="#254898" stroke-width="1.34" points="183.757 326.374 196.775 326.374 196.774 337.216 183.756 337.216" transform="rotate(.25 190.266 331.795)"/>
    <polygon stroke="#254898" stroke-width="1.34" points="209.322 326.54 247.517 326.54 247.517 337.382 209.322 337.383" transform="rotate(.25 228.42 331.961)"/>
    <polygon fill="#254898" fill-rule="nonzero" stroke="#254898" stroke-width="1.34" points="234.485 326.595 247.503 326.595 247.503 337.437 234.485 337.437" transform="rotate(.25 240.994 332.016)"/>
    <polygon stroke="#254898" stroke-width="1.34" points="260.064 326.761 298.259 326.761 298.259 337.603 260.064 337.604" transform="rotate(.25 279.161 332.182)"/>
    <polygon fill="#254898" fill-rule="nonzero" stroke="#254898" stroke-width="1.34" points="285.227 326.816 298.245 326.816 298.245 337.658 285.227 337.658" transform="rotate(.25 291.736 332.237)"/>
    <polygon stroke="#254898" stroke-width="1.34" points="310.792 326.982 348.987 326.982 348.987 337.824 310.792 337.825" transform="rotate(.25 329.89 332.403)"/>
    <polygon fill="#254898" fill-rule="nonzero" stroke="#254898" stroke-width="1.34" points="335.955 327.037 348.973 327.037 348.973 337.879 335.955 337.879" transform="rotate(.25 342.464 332.458)"/>
    <polygon stroke="#254898" stroke-width="1.34" points="361.521 327.203 399.716 327.203 399.716 338.046 361.521 338.046" transform="rotate(.25 380.618 332.624)"/>
    <polygon fill="#254898" fill-rule="nonzero" stroke="#254898" stroke-width="1.34" points="386.684 327.258 399.702 327.258 399.702 338.1 386.684 338.1" transform="rotate(.25 393.193 332.68)"/>
    <path fill="#254898" fill-rule="nonzero" stroke="#254898" stroke-width="1.34" d="M399.150868,365.542959 C399.13954,355.613412 402.445512,345.963838 408.545296,338.122212 L309.97091,337.73355 L309.850124,365.971827 L424.985544,365.623372 L424.985544,365.623372 L399.150868,365.542959 Z"/>
    <polygon stroke="#254898" stroke-width="1.34" points="30.328 337.119 311.651 337.118 311.651 365.369 30.328 365.371" transform="rotate(.25 170.99 351.244)"/>
    <ellipse cx="343.415" cy="191.289" fill="#254898" fill-rule="nonzero" rx="6.12" ry="1.193"/>
    <path stroke="#254898" stroke-width="1.34" d="M487.082709 365.556361L568.653181 366.159457C573.369743 366.236729 578.053311 365.361479 582.422728 363.586249 591.253489 359.887263 601.318947 351.149077 592.233194 330.791249 578.356283 299.711721 610.767057 302.888025 610.767057 302.888025M443.116789 321.061307C418.683294 321.238356 399.009543 341.142885 399.150111 365.542959L487.083466 365.542959C487.224034 341.142885 467.550283 321.238356 443.116789 321.061307z"/>
    <path fill="#254898" fill-rule="nonzero" d="M456.483708,323.152038 L456.483708,333.337653 C456.480154,336.037813 457.551772,338.628599 459.462449,340.539159 C461.373127,342.449719 463.966074,343.523268 466.66996,343.523268 L481.325267,343.523268 C475.891651,333.86575 467.026725,326.596097 456.483708,323.152038 L456.483708,323.152038 Z"/>
    <rect width="244" height="147.879" x="223.274" y="106.373" fill="#DFE6F2" fill-rule="nonzero"/>
    <rect width="244" height="15.412" x="223.274" y="95.839" fill="#C3CFE6" fill-rule="nonzero"/>
    <ellipse cx="345.281" cy="180.312" fill="#254898" fill-rule="nonzero" rx="45.952" ry="45.889"/>
    <ellipse cx="345.281" cy="174.469" fill="#DFE6F2" fill-rule="nonzero" rx="11.085" ry="11.07"/>
    <path fill="#2BD67B" fill-rule="nonzero" d="M345.280537,226.201094 C332.715584,226.215068 320.696565,221.073924 312.037684,211.981411 C317.783084,198.75457 330.84302,190.195763 345.280537,190.195763 C359.718054,190.195763 372.77799,198.75457 378.523389,211.981411 C369.860827,221.068634 357.844195,226.208757 345.280537,226.201094 Z"/>
    <path fill="#C3CFE6" fill-rule="nonzero" d="M346.407868,163.505925 C351.244943,165.578388 353.959137,170.758647 352.906269,175.908648 C351.8534,181.058648 347.323056,184.761908 342.05959,184.775097 C341.684098,184.79577 341.307751,184.79577 340.932259,184.775097 C344.938672,186.411155 349.532011,185.572024 352.698948,182.625506 C355.865885,179.678989 357.02857,175.162717 355.67738,171.05624 C354.326191,166.949762 350.707669,164.002361 346.407868,163.505925 Z"/>
    <ellipse cx="234.386" cy="103.598" fill="#254898" rx="4.026" ry="4.021"/>
    <rect width="12.387" height="207.733" x="487.083" y="68.471" fill="#254898" fill-rule="nonzero" stroke="#254898" stroke-width="1.34"/>
    <rect width="291.777" height="207.746" x="195.305" y="68.485" stroke="#254898" stroke-width="1.34" transform="rotate(-180 341.194 172.358)"/>
  </g>
</svg>
