<svg width="207" height="166" viewBox="0 0 207 166" fill="none" xmlns="http://www.w3.org/2000/svg">
<path d="M90.3584 87.5441V6.75352C90.3584 3.57594 92.9343 1 96.1119 1H199.981C203.159 1 205.735 3.57594 205.735 6.75352V94.1265C205.739 108.422 201.023 122.32 192.32 133.661L168.333 164.907H127.776L103.805 133.661C101.136 130.182 98.8254 126.443 96.9086 122.5C96.6913 122.057 96.4821 121.615 96.2809 121.164" stroke="#254898" stroke-linejoin="round"/>
<rect x="104.835" y="18.542" width="85.9406" height="82.9794" fill="#1B1B1B" stroke="#254898" stroke-linejoin="round"/>
<g clip-path="url(#clip0_138_26616)">
<path d="M139.599 51.0756V46.9422L128.874 50.8422L128.538 49.9644L140.559 45.5977V49.731L151.93 45.5977V49.731L163.305 45.5977V50.4033H162.344V46.9422L150.97 51.0756V46.9422L139.599 51.0756Z" fill="#4070F4"/>
<path d="M148.931 62.4892V58.3589L137.557 62.4892V58.3589L126.835 62.2557L126.499 61.3811L138.517 57.0112V61.1446L149.891 57.0112V61.1446L161.266 57.0112V61.8169H160.306V58.3589L148.931 62.4892Z" fill="#4070F4"/>
<path d="M170 52.252H126V52.5632H170V52.252Z" fill="#9999A0"/>
<path d="M160.786 63.4038H126V63.7151H160.786V63.4038Z" fill="#9999A0"/>
</g>
<path fill-rule="evenodd" clip-rule="evenodd" d="M161 90.5977H181V70.5977H161V90.5977Z" fill="#FF4557"/>
<path fill-rule="evenodd" clip-rule="evenodd" d="M177.872 74.8854C178.172 74.5995 178.172 74.136 177.872 73.8502C177.572 73.5643 177.086 73.5643 176.786 73.8502L170.797 79.5623L165.35 74.3671C165.051 74.0812 164.565 74.0812 164.265 74.3671C163.965 74.653 163.965 75.1165 164.265 75.4024L169.712 80.5975L164.265 85.7927C163.965 86.0786 163.965 86.5421 164.265 86.8279C164.565 87.1138 165.051 87.1138 165.35 86.8279L170.797 81.6328L176.786 87.3449C177.086 87.6308 177.572 87.6308 177.872 87.3449C178.172 87.059 178.172 86.5955 177.872 86.3096L171.883 80.5975L177.872 74.8854Z" fill="white"/>
<path d="M63.8359 73.8725C65.389 68.9237 87.1719 78.7006 87.1719 78.7006L99.733 83.223C99.733 83.223 119.182 78.588 123.069 77.2683C132.942 73.8242 140.016 71.4102 145.649 72.8023C140.128 71.3538 133.007 73.4299 123.117 76.3348C119.206 77.4775 99.9101 79.5536 99.9101 79.5536L89.0709 75.329C89.0709 75.329 65.9844 65.4877 64.1739 70.3641C63.3129 72.7781 62.4116 76.3187 62.7335 79.103C62.9312 77.328 63.3004 75.5763 63.8359 73.8725V73.8725Z" fill="#EDF0F5"/>
<path d="M111.787 96.5246C107.257 97.4178 100.401 99.0513 96.1842 97.1523C85.2968 92.2437 64.3749 82.7805 63.9082 82.0724C61.631 79.5698 62.9426 73.76 64.1738 70.3642C65.9441 65.4878 89.1191 75.3372 89.1191 75.3372L99.9582 79.5618C99.9582 79.5618 119.271 77.4777 123.165 76.343C134.962 72.8748 139.211 70.0343 145.109 73.5508C149.285 75.9545 150.967 81.1267 149.003 85.5267C147.04 89.9266 142.067 92.129 137.489 90.6262C135.638 90.8033 122.948 94.3198 111.787 96.5246Z" fill="black" stroke="#9999A0" stroke-linejoin="round"/>
<path fill-rule="evenodd" clip-rule="evenodd" d="M111.787 96.5246C107.257 97.4178 100.401 99.0513 96.1842 97.1523C85.2968 92.2437 64.3749 82.7805 63.9082 82.0724C61.631 79.5698 62.9426 73.76 64.1738 70.3642C65.9441 65.4878 89.1191 75.3372 89.1191 75.3372L99.9582 79.5618C99.9582 79.5618 119.271 77.4777 123.165 76.343C134.962 72.8748 139.211 70.0343 145.109 73.5508C149.285 75.9545 150.967 81.1267 149.003 85.5267C147.04 89.9266 142.067 92.129 137.489 90.6262C135.638 90.8033 122.948 94.3198 111.787 96.5246Z" stroke="#9999A0" stroke-linejoin="round"/>
<path d="M64.3428 61.6089L89.5778 74.331L88.4834 96.8944L81.2332 95.961" fill="#05DD8F"/>
<path d="M85.82 93.531V93.3942C85.8308 83.1857 81.2764 73.5072 73.4036 67.0085C70.7555 65.1446 67.8673 63.6477 64.8176 62.5586L81.2735 95.9612L85.8602 96.5566V93.531H85.82Z" fill="#05DD8F"/>
<path d="M88.4432 92.163C88.4432 92.2113 88.4432 92.2596 88.4432 92.2998V92.2998L88.6202 93.7644L89.5617 74.3312L69.4124 64.168C70.8202 65.0167 72.1648 65.966 73.4358 67.0085C81.8003 72.866 87.2617 82.0201 88.4432 92.163V92.163Z" fill="#4070F4"/>
<path d="M88.4593 92.3318C88.4593 92.3318 88.4593 92.2433 88.4593 92.195C87.275 82.0322 81.7942 72.8634 73.4036 67.0083C81.2763 73.507 85.8307 83.1855 85.8199 93.394V93.5308V93.5308V96.5564L88.4834 96.8944L88.6363 93.7642L88.4593 92.2996V92.3318Z" fill="#254898"/>
<path d="M64.375 61.6411L69.4123 64.1678C67.8062 63.1873 66.1213 62.3421 64.375 61.6411V61.6411Z" fill="#05DD8F"/>
<path d="M73.4035 67.0084C72.1326 65.9658 70.7879 65.0165 69.3801 64.1678L64.3749 61.6411H64.3105L64.8175 62.5585C67.8672 63.6476 70.7554 65.1445 73.4035 67.0084Z" fill="#05DD8F"/>
<path d="M0 145.562H101.165" stroke="#9999A0" stroke-linejoin="round"/>
<path d="M141.625 91.2456H141.577C142.427 91.4701 143.304 91.5758 144.184 91.5594C143.32 91.5745 142.459 91.4689 141.625 91.2456V91.2456Z" fill="#EDF0F5"/>
<path d="M52.8036 51.5105C59.9765 51.5105 65.7912 45.6957 65.7912 38.5228C65.7912 31.3499 59.9765 25.5352 52.8036 25.5352C45.6307 25.5352 39.8159 31.3499 39.8159 38.5228C39.8159 45.6957 45.6307 51.5105 52.8036 51.5105Z" fill="white" stroke="#0C152E" stroke-linejoin="round"/>
<path d="M31.5518 109.03C45.4317 112.296 59.8836 112.265 73.7496 108.941L86.6246 105.859V93.5312H18.1135V105.859L31.5518 109.03Z" fill="#4070F4"/>
<path d="M18.1135 106.76V122.347H27.4962C23.0723 118.051 19.8393 112.68 18.1135 106.76V106.76Z" fill="#05DD8F"/>
<path d="M39.2688 93.5312H18.1135V105.859L26.7398 107.895L28.325 103.662L39.2688 93.5312V93.5312Z" fill="#101C3D"/>
<path d="M43.8233 89.3145L39.2688 93.531H42.2783L43.8233 89.3145V89.3145Z" fill="#101C3D"/>
<path d="M42.2782 93.5312H39.2687L28.325 103.662L26.7156 107.895L31.5437 109.03C33.0994 109.389 34.6605 109.711 36.227 109.995L37.5064 106.527L42.2782 93.5312Z" fill="#254898"/>
<path d="M18.2422 102.801L11.4185 145.562H57.9535L58.8548 139.752" stroke="#9999A0" stroke-linejoin="round"/>
<path d="M86.5924 93.5312V93.3944C86.3056 74.6869 71.0586 59.6719 52.3489 59.6719C33.6393 59.6719 18.3923 74.6869 18.1055 93.3944C18.1055 93.4427 18.1055 93.483 18.1055 93.5312H86.5924Z" fill="#4070F4"/>
<path d="M86.5924 93.531V93.3942C86.6032 83.1857 82.0488 73.5072 74.1761 67.0085C71.5261 65.143 68.635 63.646 65.582 62.5586L82.0057 95.9451L86.5924 96.5405V93.5149V93.531Z" fill="#4070F4"/>
<path d="M18.1055 93.394C18.1055 92.3158 18.1619 91.2536 18.2584 90.1753C17.6637 93.6064 17.5689 97.1055 17.9768 100.564C17.9807 100.612 17.9807 100.66 17.9768 100.709L18.0975 101.674V93.5308C18.1136 93.4826 18.1055 93.4423 18.1055 93.394Z" fill="#254898"/>
<path d="M18.1135 129.066H21.3484L18.1135 101.707V129.066V129.066Z" fill="#05DD8F"/>
<path d="M49.3756 60.7642C54.8438 60.099 60.3917 60.7133 65.582 62.5586L65.1153 61.6011C55.0856 57.5785 43.7459 58.5243 34.5213 64.1529C25.2967 69.7814 19.2688 79.4327 18.2583 90.1916C20.995 74.5876 33.6432 62.6262 49.3756 60.7642V60.7642Z" fill="#4070F4"/>
<path d="M74.176 67.0084C72.9051 65.9658 71.5604 65.0165 70.1526 64.1678L65.1796 61.6411H65.1152L65.582 62.5585C68.6349 63.6459 71.526 65.1428 74.176 67.0084Z" fill="#4070F4"/>
<path d="M71.7297 145.562H89.5375L86.8659 105.328" stroke="#9999A0" stroke-linejoin="round"/>
<path d="M50.2045 25.7925C44.6545 28.9476 42.218 35.6667 44.4559 41.6457C46.6938 47.6248 52.9432 51.0929 59.2009 49.8285C54.7378 52.3426 49.2138 51.9985 45.0972 48.9499C40.9806 45.9013 39.0405 40.7178 40.1437 35.7155C41.2469 30.7132 45.1874 26.8267 50.2045 25.7925V25.7925Z" fill="#EDF0F5"/>
<path d="M51.991 61.6089C55.9952 61.6089 59.2412 60.9748 59.2412 60.1926C59.2412 59.4104 55.9952 58.7764 51.991 58.7764C47.9868 58.7764 44.7407 59.4104 44.7407 60.1926C44.7407 60.9748 47.9868 61.6089 51.991 61.6089Z" fill="#254898"/>
<path d="M28.6147 149.151C28.3057 149.151 27.9968 149.135 27.6894 149.103C22.8982 148.633 19.2346 144.623 19.1999 139.809C18.6608 137.588 15.7719 131.464 14.0258 127.738C9.86553 118.887 7.69287 114.059 7.69287 109.979C7.69287 106.543 9.05279 102.181 15.9892 90.079C19.5701 83.8185 23.0946 78.242 23.2314 78.0087C25.0282 75.1712 28.2023 73.5078 31.558 73.6451C34.9138 73.7824 37.9413 75.6996 39.5003 78.6744C41.0592 81.6492 40.9127 85.2297 39.1159 88.0672C34.1027 95.9854 28.3412 106.052 26.7237 110.092C27.5284 112.369 29.5884 116.698 31.0208 119.748C35.8972 130.112 38.4239 135.753 37.9411 140.67C37.4702 145.472 33.4397 149.137 28.6147 149.151V149.151Z" fill="black" stroke="#9999A0" stroke-linejoin="round"/>
<path fill-rule="evenodd" clip-rule="evenodd" d="M28.6147 149.151C28.3057 149.151 27.9968 149.135 27.6894 149.103C22.8982 148.633 19.2346 144.623 19.1999 139.809C18.6608 137.588 15.7719 131.464 14.0258 127.738C9.86553 118.887 7.69287 114.059 7.69287 109.979C7.69287 106.543 9.05279 102.181 15.9892 90.079C19.5701 83.8185 23.0946 78.242 23.2314 78.0087C25.0282 75.1712 28.2023 73.5078 31.558 73.6451C34.9138 73.7824 37.9413 75.6996 39.5003 78.6744C41.0592 81.6492 40.9127 85.2297 39.1159 88.0672C34.1027 95.9854 28.3412 106.052 26.7237 110.092C27.5284 112.369 29.5884 116.698 31.0208 119.748C35.8972 130.112 38.4239 135.753 37.9411 140.67C37.4702 145.472 33.4397 149.137 28.6147 149.151V149.151Z" stroke="#9999A0" stroke-linejoin="round"/>
<path d="M28.6067 68.8672L11.0886 90.7064L31.7771 104.756L48.8607 81.0502" fill="#4070F4"/>
<path fill-rule="evenodd" clip-rule="evenodd" d="M52.8036 51.5105C59.9765 51.5105 65.7912 45.6957 65.7912 38.5228C65.7912 31.3499 59.9765 25.5352 52.8036 25.5352C45.6307 25.5352 39.8159 31.3499 39.8159 38.5228C39.8159 45.6957 45.6307 51.5105 52.8036 51.5105Z" stroke="#0C152E" stroke-linejoin="round"/>
<defs>
<clipPath id="clip0_138_26616">
<rect width="44" height="18.1176" fill="white" transform="translate(126 45.5977)"/>
</clipPath>
</defs>
</svg>
