<svg width="207" height="166" viewBox="0 0 207 166" fill="none" xmlns="http://www.w3.org/2000/svg">
<path d="M90.3584 87.5441V6.75352C90.3584 3.57594 92.9343 1 96.1119 1H199.981C203.159 1 205.735 3.57594 205.735 6.75352V94.1265C205.739 108.422 201.023 122.32 192.32 133.661L168.333 164.907H127.776L103.805 133.661C101.136 130.182 98.8254 126.443 96.9086 122.5C96.6913 122.057 96.4821 121.615 96.2809 121.164" stroke="#0C152E" stroke-linejoin="round"/>
<rect x="105" y="18.5422" width="85.9406" height="82.9794" fill="white" stroke="#0C152E" stroke-linejoin="round"/>
<g clip-path="url(#clip0_2_2037)">
<path d="M139.599 50.4779V46.3446L128.874 50.2445L128.538 49.3668L140.559 45V49.1334L151.93 45V49.1334L163.305 45V49.8056H162.344V46.3446L150.97 50.4779V46.3446L139.599 50.4779Z" fill="#4070F4"/>
<path d="M148.931 61.8913V57.7611L137.557 61.8913V57.7611L126.835 61.6579L126.499 60.7833L138.517 56.4134V60.5467L149.891 56.4134V60.5467L161.266 56.4134V61.219H160.306V57.7611L148.931 61.8913Z" fill="#4070F4"/>
<path d="M170 51.6544H126V51.9657H170V51.6544Z" fill="#0C152E"/>
<path d="M160.786 62.8063H126V63.1176H160.786V62.8063Z" fill="#0C152E"/>
</g>
<path d="M63.8359 73.8725C65.389 68.9237 87.1719 78.7006 87.1719 78.7006L99.733 83.223C99.733 83.223 119.182 78.588 123.069 77.2683C132.942 73.8242 140.016 71.4102 145.648 72.8023C140.128 71.3538 133.007 73.4299 123.117 76.3348C119.206 77.4775 99.9101 79.5536 99.9101 79.5536L89.0709 75.329C89.0709 75.329 65.9844 65.4877 64.1739 70.3641C63.3129 72.7781 62.4116 76.3187 62.7335 79.103C62.9312 77.328 63.3004 75.5763 63.8359 73.8725Z" fill="#EDF0F5"/>
<path d="M111.787 96.5245C107.257 97.4177 100.401 99.0512 96.1842 97.1521C85.2968 92.2435 64.3749 82.7804 63.9082 82.0723C61.631 79.5697 62.9426 73.7598 64.1738 70.3641C65.9441 65.4877 89.1191 75.337 89.1191 75.337L99.9582 79.5616C99.9582 79.5616 119.271 77.4775 123.165 76.3429C134.962 72.8747 139.211 70.0341 145.109 73.5506C149.285 75.9544 150.967 81.1266 149.003 85.5265C147.04 89.9264 142.067 92.1289 137.489 90.6261C135.638 90.8031 122.948 94.3196 111.787 96.5245Z" fill="white" stroke="#101C3D" stroke-linejoin="round"/>
<path d="M63.8359 73.8725C65.389 68.9237 87.1719 78.7006 87.1719 78.7006L99.733 83.223C99.733 83.223 119.182 78.588 123.069 77.2683C132.942 73.8242 140.016 71.4102 145.648 72.8023C140.128 71.3538 133.007 73.4299 123.117 76.3348C119.206 77.4775 99.9101 79.5536 99.9101 79.5536L89.0709 75.329C89.0709 75.329 65.9844 65.4877 64.1739 70.3641C63.3129 72.7781 62.4116 76.3187 62.7335 79.103C62.9312 77.328 63.3004 75.5763 63.8359 73.8725Z" fill="#EDF0F5"/>
<path fill-rule="evenodd" clip-rule="evenodd" d="M111.787 96.5245C107.257 97.4177 100.401 99.0512 96.1842 97.1521C85.2968 92.2435 64.3749 82.7804 63.9082 82.0723C61.631 79.5697 62.9426 73.7598 64.1738 70.3641C65.9441 65.4877 89.1191 75.337 89.1191 75.337L99.9582 79.5616C99.9582 79.5616 119.271 77.4775 123.165 76.3429C134.962 72.8747 139.211 70.0341 145.109 73.5506C149.285 75.9544 150.967 81.1266 149.003 85.5265C147.04 89.9264 142.067 92.1289 137.489 90.6261C135.638 90.8031 122.948 94.3196 111.787 96.5245Z" stroke="#101C3D" stroke-linejoin="round"/>
<path d="M64.3428 61.6091L89.5778 74.3312L88.4834 96.8946L81.2332 95.9612" fill="#05DD8F"/>
<path d="M85.82 93.531V93.3942C85.8308 83.1857 81.2764 73.5072 73.4036 67.0085C70.7555 65.1446 67.8673 63.6477 64.8176 62.5586L81.2735 95.9612L85.8602 96.5566V93.531H85.82Z" fill="#05DD8F"/>
<path d="M88.4432 92.163C88.4432 92.2113 88.4432 92.2596 88.4432 92.2998L88.6202 93.7644L89.5617 74.3312L69.4124 64.168C70.8202 65.0167 72.1648 65.966 73.4358 67.0085C81.8003 72.866 87.2617 82.0201 88.4432 92.163Z" fill="#05DD8F"/>
<path d="M88.4593 92.332C88.4593 92.332 88.4593 92.2435 88.4593 92.1952C87.275 82.0324 81.7942 72.8637 73.4036 67.0085C81.2763 73.5072 85.8307 83.1857 85.8199 93.3942V93.531V96.5566L88.4834 96.8946L88.6363 93.7644L88.4593 92.2998V92.332Z" fill="#101C3D"/>
<path d="M64.375 61.6412L69.4123 64.168C67.8062 63.1874 66.1213 62.3422 64.375 61.6412V61.6412Z" fill="#05DD8F"/>
<path d="M73.4035 67.0085C72.1326 65.966 70.7879 65.0166 69.3801 64.168L64.3749 61.6412H64.3105L64.8175 62.5586C67.8672 63.6477 70.7554 65.1446 73.4035 67.0085Z" fill="#05DD8F"/>
<path d="M0 145.562H101.165" stroke="#101C3D" stroke-linejoin="round"/>
<path d="M141.625 91.2457H141.577C142.427 91.4703 143.304 91.5759 144.184 91.5595C143.32 91.5746 142.459 91.469 141.625 91.2457Z" fill="#EDF0F5"/>
<path d="M52.8036 51.5102C59.9765 51.5102 65.7912 45.6954 65.7912 38.5226C65.7912 31.3497 59.9765 25.5349 52.8036 25.5349C45.6307 25.5349 39.8159 31.3497 39.8159 38.5226C39.8159 45.6954 45.6307 51.5102 52.8036 51.5102Z" fill="white" stroke="#0C152E" stroke-linejoin="round"/>
<path d="M31.5518 109.029C45.4317 112.295 59.8836 112.265 73.7496 108.941L86.6246 105.859V93.531H18.1135V105.859L31.5518 109.029Z" fill="#05DD8F"/>
<path d="M18.1135 106.76V122.347H27.4962C23.0723 118.051 19.8393 112.68 18.1135 106.76V106.76Z" fill="#05DD8F"/>
<path d="M39.2688 93.531H18.1135V105.859L26.7398 107.895L28.325 103.662L39.2688 93.531Z" fill="#101C3D"/>
<path d="M43.8233 89.3145L39.2688 93.531H42.2783L43.8233 89.3145Z" fill="#101C3D"/>
<path d="M42.2782 93.531H39.2687L28.325 103.662L26.7156 107.895L31.5437 109.029C33.0994 109.389 34.6605 109.711 36.227 109.995L37.5064 106.527L42.2782 93.531Z" fill="#101C3D"/>
<path d="M18.2422 102.801L11.4185 145.562H57.9535L58.8548 139.752" stroke="#101C3D" stroke-linejoin="round"/>
<path d="M86.5924 93.531V93.3942C86.3056 74.6867 71.0586 59.6717 52.3489 59.6717C33.6393 59.6717 18.3923 74.6867 18.1055 93.3942C18.1055 93.4425 18.1055 93.4827 18.1055 93.531H86.5924Z" fill="#05DD8F"/>
<path d="M86.5924 93.531V93.3942C86.6032 83.1857 82.0488 73.5072 74.1761 67.0085C71.5261 65.143 68.635 63.646 65.582 62.5586L82.0057 95.9451L86.5924 96.5405V93.5149V93.531Z" fill="#05DD8F"/>
<path d="M18.1055 93.3942C18.1055 92.3159 18.1619 91.2538 18.2584 90.1755C17.6637 93.6066 17.5689 97.1057 17.9768 100.564C17.9807 100.612 17.9807 100.661 17.9768 100.709L18.0975 101.674V93.531C18.1136 93.4827 18.1055 93.4425 18.1055 93.3942Z" fill="#254898"/>
<path d="M18.1135 129.066H21.3484L18.1135 101.707V129.066Z" fill="#05DD8F"/>
<path d="M49.3756 60.7641C54.8438 60.0989 60.3917 60.7132 65.582 62.5586L65.1152 61.601C55.0856 57.5784 43.7459 58.5243 34.5213 64.1528C25.2967 69.7814 19.2688 79.4327 18.2583 90.1916C20.995 74.5875 33.6432 62.6262 49.3756 60.7641Z" fill="#05DD8F"/>
<path d="M65.1797 61.6412L70.1848 64.168C68.5891 63.189 66.915 62.3439 65.1797 61.6412V61.6412Z" fill="#05DD8F"/>
<path d="M74.176 67.0085C72.9051 65.966 71.5604 65.0166 70.1526 64.168L65.1796 61.6412H65.1152L65.582 62.5586C68.6349 63.646 71.526 65.143 74.176 67.0085Z" fill="#05DD8F"/>
<path d="M71.7297 145.562H89.5375L86.8659 105.328" stroke="#101C3D" stroke-linejoin="round"/>
<path d="M50.2045 25.7924C44.6545 28.9475 42.218 35.6666 44.4559 41.6457C46.6938 47.6247 52.9432 51.0928 59.2009 49.8284C54.7378 52.3426 49.2138 51.9984 45.0972 48.9499C40.9806 45.9013 39.0405 40.7178 40.1437 35.7155C41.2469 30.7132 45.1874 26.8266 50.2045 25.7924V25.7924Z" fill="#EDF0F5"/>
<path d="M51.991 61.6091C55.9952 61.6091 59.2412 60.975 59.2412 60.1928C59.2412 59.4106 55.9952 58.7766 51.991 58.7766C47.9868 58.7766 44.7407 59.4106 44.7407 60.1928C44.7407 60.975 47.9868 61.6091 51.991 61.6091Z" fill="#101C3D"/>
<path d="M28.6147 149.151C28.3057 149.151 27.9968 149.135 27.6894 149.103C22.8982 148.633 19.2346 144.623 19.1999 139.809C18.6608 137.588 15.7719 131.464 14.0258 127.738C9.86553 118.887 7.69287 114.059 7.69287 109.979C7.69287 106.543 9.05279 102.181 15.9892 90.0789C19.5701 83.8184 23.0946 78.2419 23.2314 78.0086C25.0282 75.1711 28.2023 73.5077 31.558 73.645C34.9138 73.7824 37.9413 75.6995 39.5003 78.6743C41.0592 81.6491 40.9127 85.2297 39.1159 88.0672C34.1027 95.9853 28.3412 106.052 26.7237 110.091C27.5284 112.369 29.5884 116.698 31.0208 119.748C35.8972 130.112 38.4239 135.753 37.9411 140.67C37.4702 145.472 33.4397 149.137 28.6147 149.151Z" fill="white" stroke="#101C3D" stroke-linejoin="round"/>
<path d="M36.2109 75.1117C35.5073 74.6675 34.7466 74.321 33.9497 74.0817C37.9447 76.9891 39.0004 82.4965 36.3637 86.6751C31.3505 94.5932 25.589 104.66 23.9796 108.707C24.7843 110.985 26.8443 115.314 28.2686 118.364C33.145 128.728 35.6717 134.369 35.1889 139.286C34.7174 144.094 30.6776 147.761 25.8465 147.767C25.5374 147.767 25.2285 147.751 24.9211 147.719C24.2932 147.658 23.6731 147.534 23.0703 147.349C24.4293 148.349 26.0336 148.964 27.7134 149.127C28.0208 149.159 28.3297 149.175 28.6387 149.175C33.4727 149.169 37.5135 145.497 37.9812 140.686C38.464 135.777 35.9373 130.136 31.0609 119.764C29.6285 116.73 27.5927 112.401 26.7638 110.108C28.3732 106.084 34.1428 96.0014 39.156 88.0833C40.4875 85.9731 40.9252 83.4201 40.3728 80.9869C39.8203 78.5537 38.323 76.44 36.2109 75.1117Z" fill="#EDF0F5"/>
<path fill-rule="evenodd" clip-rule="evenodd" d="M28.6147 149.151C28.3057 149.151 27.9968 149.135 27.6894 149.103C22.8982 148.633 19.2346 144.623 19.1999 139.809C18.6608 137.588 15.7719 131.464 14.0258 127.738C9.86553 118.887 7.69287 114.059 7.69287 109.979C7.69287 106.543 9.05279 102.181 15.9892 90.0789C19.5701 83.8184 23.0946 78.2419 23.2314 78.0086C25.0282 75.1711 28.2023 73.5077 31.558 73.645C34.9138 73.7824 37.9413 75.6995 39.5003 78.6743C41.0592 81.6492 40.9127 85.2297 39.1159 88.0672C34.1027 95.9853 28.3412 106.052 26.7237 110.091C27.5284 112.369 29.5884 116.698 31.0208 119.748C35.8972 130.112 38.4239 135.753 37.9411 140.67C37.4702 145.472 33.4397 149.137 28.6147 149.151V149.151Z" stroke="#101C3D" stroke-linejoin="round"/>
<path d="M28.6067 68.8673L11.0886 90.7066L31.7771 104.756L48.8607 81.0503" fill="#05DD8F"/>
<path fill-rule="evenodd" clip-rule="evenodd" d="M52.8036 51.5102C59.9765 51.5102 65.7912 45.6955 65.7912 38.5226C65.7912 31.3497 59.9765 25.5349 52.8036 25.5349C45.6307 25.5349 39.8159 31.3497 39.8159 38.5226C39.8159 45.6955 45.6307 51.5102 52.8036 51.5102Z" stroke="#0C152E" stroke-linejoin="round"/>
<path fill-rule="evenodd" clip-rule="evenodd" d="M161 90H181V70H161V90Z" fill="#FF4557"/>
<path fill-rule="evenodd" clip-rule="evenodd" d="M177.872 74.2879C178.172 74.002 178.172 73.5385 177.872 73.2526C177.572 72.9667 177.086 72.9667 176.786 73.2526L170.797 78.9647L165.35 73.7696C165.051 73.4837 164.565 73.4837 164.265 73.7696C163.965 74.0554 163.965 74.5189 164.265 74.8048L169.712 80L164.265 85.1952C163.965 85.481 163.965 85.9445 164.265 86.2304C164.565 86.5163 165.051 86.5163 165.35 86.2304L170.797 81.0353L176.786 86.7474C177.086 87.0332 177.572 87.0332 177.872 86.7474C178.172 86.4615 178.172 85.998 177.872 85.7121L171.883 80L177.872 74.2879Z" fill="white"/>
<defs>
<clipPath id="clip0_2_2037">
<rect width="44" height="18.1176" fill="white" transform="translate(126 45)"/>
</clipPath>
</defs>
</svg>
