<svg width="518" height="371" xmlns="http://www.w3.org/2000/svg" xmlns:xlink="http://www.w3.org/1999/xlink">
  <defs>
    <path id="a" d="M0 467.93h609.947V0H0z"/>
  </defs>
  <g transform="translate(-40)" fill="none" fill-rule="evenodd">
    <path d="M372.143 234.97c-1.91 0-3.799-.418-5.923-1.247-12.165-4.734-17.213-17.23-22.558-30.458-3.331-8.243 26.067-21.154 29.748-12.045.88 2.177 1.898 4.696 2.902 7.005l1.792-1.078c34.725-20.917 52.557-29.951 66.013-22.468 7.747 4.308 10.539 14.085 6.237 21.84-3.522 6.346-10.71 9.37-17.441 7.9-8.056 2.057-29.81 15.16-38.265 20.253-11.518 6.938-17.095 10.297-22.505 10.297" fill="#DFE6F2"/>
    <path fill="#C5CFE4" d="M361.57 196.253l.248 3.664 14.484-1.697-4.411-10.766z"/>
    <path d="M372.876 186.7c-7.55-25.678-38.611-50.631-60.617-53.263 14.692 8.244 43.233 35.917 49.147 63.489l11.542-9.964c-.027-.087-.045-.174-.072-.262" fill="#4070F4"/>
    <path d="M325.69 137.608h-3.672c1.153.219 30.259 26.15 27.938 55.985l11.45 3.333 4.243-3.683c-11.343-43.492-35.44-53.497-39.96-55.635" fill="#254898"/>
    <mask id="b" fill="#fff">
      <use xlink:href="#a"/>
    </mask>
    <path d="M279.145 466.638h172.242V277.522H279.145v189.116zm172.882 1.285H278.503a.642.642 0 0 1-.642-.642V276.88c0-.355.286-.643.642-.643h173.524c.356 0 .642.288.642.643v190.4a.642.642 0 0 1-.642.643z" fill="#254898" mask="url(#b)"/>
    <path fill="#4070F4" mask="url(#b)" d="M71.224 261.453H40.615l31.906 31.939h30.609z"/>
    <path fill="#0C152E" mask="url(#b)" d="M187.668 467.28V294.849L1.638 467.281z"/>
    <path d="M3.277 466.638h183.749v-170.32L3.276 466.638zm185.033 1.285H0l188.31-174.546v174.546z" fill="#254898" mask="url(#b)"/>
    <path d="M226.574 318.03c-21.036 0-38.149 17.131-38.149 38.189 0 21.056 17.113 38.187 38.15 38.187 21.035 0 38.148-17.131 38.148-38.187 0-21.058-17.113-38.188-38.149-38.188m0 77.66c-21.742 0-39.433-17.708-39.433-39.472 0-21.766 17.691-39.473 39.433-39.473s39.433 17.707 39.433 39.473c0 21.764-17.691 39.472-39.433 39.472" fill="#254898" mask="url(#b)"/>
    <path fill="#0C152E" mask="url(#b)" d="M314.118 278.99l15.809 61.25-1.874 126.42 65.356.204-10.167-10.285 3.032-116.883-23.384-113.453-95.542-11.007-14.253 251.61h56.54l4.663-194.48"/>
    <path d="M315.518 274.217l-.642 7.154 15.052 58.87-1.874 126.42 1.84-1.843 8.583-110.628a72.032 72.032 0 0 0-4.423-31l-18.536-48.973z" fill="#254898" mask="url(#b)"/>
    <path d="M362.89 226.243c-35.837 0-55.133-2.901-94.961-11.006l5.776-34.623 86.831 9.303 2.354 36.326z" fill="#0C152E" mask="url(#b)"/>
    <path d="M268.663 214.73c39.856 8.1 59.23 10.835 93.543 10.871l-2.275-35.102-85.694-9.182-5.574 33.413zm94.911 12.156h-.684c-35.026 0-54.462-2.752-95.09-11.02l-.607-.124 5.979-35.83 87.97 9.424 2.432 37.55z" fill="#254898" mask="url(#b)"/>
    <path fill="#254898" mask="url(#b)" d="M310.26 467.488h-57.845l14.872-252.29 1.282.076-14.793 250.93h55.235l5.224-192.025 1.284.035z"/>
    <path d="M335.76 140.135l.01.016c.035.011.071.02.107.03l-.117-.046z" fill="#05DD8F" mask="url(#b)"/>
    <path fill="#254898" mask="url(#b)" d="M395.532 467.512L327.4 467.3l2.465-126.984-15.789-61.165 1.244-.321 15.83 61.336v.087l-2.442 125.767 63.74.197-9.275-9.382.007-.272 3.03-116.808-23.947-113.379 1.257-.266 23.976 113.527v.076l-3.026 116.608z"/>
    <path d="M333.25 101.606c1.131 11.941-7.62 22.538-19.548 23.671-11.928 1.134-22.515-7.63-23.646-19.57-1.131-11.94 7.62-22.537 19.548-23.669 11.928-1.132 22.514 7.629 23.647 19.568" fill="#DFE6F2" mask="url(#b)"/>
    <path d="M309.337 82.001c-6.892 3.094-11.975 9.705-12.74 17.77-1.13 11.94 7.622 22.538 19.551 23.67 1.48.14 2.94.129 4.363-.023a21.574 21.574 0 0 1-10.907 1.8c-11.927-1.134-20.679-11.731-19.548-23.672.99-10.458 9.236-18.477 19.281-19.545" fill="#C5CFE4" mask="url(#b)"/>
    <path d="M275.107 295.13c-2.897 0-5.829-.785-8.47-2.43-4.244-2.65-8.494-6.694-17.513-29.483-1.366-3.448-8.216-21.012-8.985-27.985-1.248-11.318 8.165-44.227 16.28-69.84 2.679-8.458 11.704-13.135 20.145-10.455 8.447 2.682 13.122 11.71 10.443 20.165-6.979 22.036-14.47 49.52-14.91 56.678 1.607 6.645 10.377 29.707 14.129 35.688 5.376 5.145 6.603 13.521 2.516 20.091-3.041 4.885-8.278 7.57-13.635 7.57" fill="#DFE6F2" mask="url(#b)"/>
    <path d="M439.56 173.338c-6.79 1.932-11.764 8.176-11.764 15.591 0 7.413 4.793 13.254 11.577 15.188 0 0 1.608-.296 2.358-.654.662-.315 5.283-26.035.777-29.196-.234-.165-2.607-1.087-2.948-.93" fill="#C5CFE4" mask="url(#b)"/>
    <path d="M450.398 181.77v13.871a15.697 15.697 0 0 0 0-13.87" fill="#DFE6F2" mask="url(#b)"/>
    <path d="M450.05 196.352c.129-.234.232-.474.347-.712v-13.87a15.615 15.615 0 0 0-6.447-6.787c-2.743-1.524-5.682-2.342-8.912-2.511l-4.055 32.255c.53-.178 1.473-.506 1.919-.666 6.62 1.48 13.688-1.475 17.147-7.709" fill="#C5CFE4" mask="url(#b)"/>
    <path d="M556.535 101.747c-20.926 11.907-82.627-22.674-111.718.091l7.694-65.726c18.727-6.396 43.743 4.236 66.69 6.158 17.874 1.497 36.084-5.997 36.084-5.997l-17.546 34.41 18.796 31.064z" fill="#254898" mask="url(#b)"/>
    <path d="M472.768 93.25c12.883 0 27.043 2.962 40.248 5.724 17.326 3.623 33.712 7.049 42.621 2.527l-18.632-30.792 16.953-33.246c-4.829 1.752-20.013 6.688-34.811 5.446-7.954-.665-16.224-2.387-24.22-4.052-15.322-3.19-29.801-6.205-41.825-2.264l-7.474 63.84c7.492-5.317 16.914-7.184 27.14-7.184m71.38 11.732c-8.687 0-19.527-2.268-31.395-4.75-23.983-5.016-51.166-10.703-67.541 2.113l-1.21.948 7.92-67.657.383-.13c12.43-4.249 27.225-1.167 42.883 2.094 7.96 1.656 16.189 3.37 24.066 4.03 17.513 1.464 35.607-5.875 35.788-5.95l1.604-.66-18.172 35.636 18.952 31.324-.573.326c-3.369 1.916-7.676 2.676-12.704 2.676" fill="#254898" mask="url(#b)"/>
    <path d="M401.471 466.864L456.711.076" fill="#0C152E" mask="url(#b)"/>
    <path fill="#254898" mask="url(#b)" d="M402.108 466.94l-1.273-.15L456.075 0l1.274.151z"/>
    <path d="M450.05 196.352c4.21-7.586 1.478-17.155-6.1-21.37a20.508 20.508 0 0 0-1.74-.849c-6.944 1.38-12.177 7.51-12.177 14.863 0 7.017 4.768 12.903 11.234 14.63a15.635 15.635 0 0 0 8.782-7.274" fill="#DFE6F2" mask="url(#b)"/>
    <path fill="#254898" mask="url(#b)" d="M361.786 199.919l-79.887-8.015 1.775-5.924 77.711-1.57z"/>
    <path d="M361.406 196.926s-2.947-55.63-48.522-63.387c-32.037-5.453-61.5 18.878-65.183 50.756l.005.006 113.7 12.625z" fill="#4070F4" mask="url(#b)"/>
    <path d="M322.784 137.508c-.156 1.299-5.664 1.706-12.305.912-6.64-.794-11.897-2.491-11.741-3.79.155-1.298 5.663-1.707 12.303-.913 6.639.796 11.897 2.492 11.743 3.79" fill="#254898" mask="url(#b)"/>
    <path fill="#C5CFE4" mask="url(#b)" d="M281.32 193.93l-31.258-7.47.537-1.837 32.405 3.597z"/>
    <path d="M335.185 100.212c-1.422-11.748-11.413-20.852-23.531-20.852-12.12 0-22.11 9.104-23.533 20.852h47.064zM305.665 73.5a6.399 6.399 0 0 1 6.348-5.625 6.4 6.4 0 0 1 6.35 5.625 17.756 17.756 0 0 1-12.698 0" fill="#4070F4" mask="url(#b)"/>
    <path d="M318.65 80.732c0 .758-3.131 1.373-6.996 1.373-3.866 0-6.998-.615-6.998-1.373s3.132-1.37 6.998-1.37c3.865 0 6.997.612 6.997 1.37M283.003 188.22l5.81-23.37-2.792 25.843z" fill="#254898" mask="url(#b)"/>
  </g>
</svg>
