<?xml version="1.0" encoding="UTF-8"?>
<svg width="221px" height="240px" viewBox="0 0 221 240" version="1.1" xmlns="http://www.w3.org/2000/svg" xmlns:xlink="http://www.w3.org/1999/xlink">
    <!-- Generator: sketchtool 53.2 (72643) - https://sketchapp.com -->
    <title>00EF2505-80F2-4B64-8094-C70573D8BACE</title>
    <desc>Created with sketchtool.</desc>
    <defs>
        <polygon id="path-1" points="0 239.609756 219.956293 239.609756 219.956293 0.197853659 0 0.197853659"></polygon>
    </defs>
    <g id="lisk-desktop---Internal-Iterations" stroke="none" stroke-width="1" fill="none" fill-rule="evenodd">
        <g id="Error-404---Go-to-Dashboard" transform="translate(-572.000000, -188.000000)">
            <g id="Group-3" transform="translate(468.000000, 188.000000)">
                <g id="Group-89" transform="translate(105.000000, 0.000000)">
                    <g id="Group-88">
                        <polyline id="Fill-1" fill="#DFE6F2" points="61.2737951 159.466615 62.0492098 149.814322 65.504039 159.160273"></polyline>
                        <g id="Group-87" transform="translate(0.000000, 0.192390)">
                            <path d="M133.845815,33.1633171 C140.39879,31.5438049 145.561327,25.9988293 146.363668,18.8995122 C147.393522,9.78497561 140.839766,1.56058537 131.724449,0.530341463 C124.826107,-0.249365854 115.468449,1.69717073 98.3624976,22.0440976 C74.4393756,50.4999024 77.9761561,62.563122 79.1383024,66.5268293 C80.1513756,69.9820488 83.2772293,74.4979512 86.5724488,78.049561 L86.8081561,78.2169756 C92.0994732,78.8140488 97.3045463,81.0669268 101.617522,85.184 L109.306498,92.524878 L109.445034,94.3223415 L112.550985,96.5322927 L141.451668,76.7090732 C140.740644,76.3426341 131.03801,67.232 130.335961,66.8600976 C124.463571,63.7498537 117.290888,59.7108293 113.75918,57.331122 C115.410302,54.5182439 117.944156,50.7094634 121.514888,46.2060488 C127.066107,39.2046829 131.698693,34.8425366 133.845815,33.1633171" id="Fill-2" fill="#FFFFFF"></path>
                            <path d="M125.973893,64.5489561 C125.973893,64.5489561 110.599844,80.0701268 106.462478,89.8098341 L111.909502,94.7569561 C111.909502,94.7569561 136.336039,69.1530537 136.034771,69.1530537 C135.733893,69.1530537 125.973893,64.5489561 125.973893,64.5489561" id="Fill-4" fill="#DFE6F2"></path>
                            <path d="M126.286946,40.5451707 L90.5585561,40.3562927 C88.2311415,40.3438049 86.7091902,37.9125854 87.7148488,35.8134634 L130.732215,35.6948293 L126.286946,40.5451707 Z" id="Fill-6" fill="#DFE6F2"></path>
                            <path d="M133.845815,33.1633171 C140.39879,31.5438049 145.561327,25.9988293 146.363668,18.8995122 C147.393522,9.78497561 140.839766,1.56058537 131.724449,0.530341463 C124.826107,-0.249365854 115.468449,1.69717073 98.3624976,22.0440976 C74.4393756,50.4999024 77.9761561,62.563122 79.1383024,66.5268293 C80.1513756,69.9820488 83.2772293,74.4979512 86.5724488,78.049561 L86.8081561,78.2169756 C92.0994732,78.8140488 97.3045463,81.0669268 101.617522,85.184 L109.306498,92.524878 L109.445034,94.3223415 L112.550985,96.5322927 L141.451668,76.7090732 C140.740644,76.3426341 131.03801,67.232 130.335961,66.8600976 C124.463571,63.7498537 117.290888,59.7108293 113.75918,57.331122 C115.410302,54.5182439 117.944156,50.7094634 121.514888,46.2060488 C127.066107,39.2046829 131.698693,34.8425366 133.845815,33.1633171 Z" id="Stroke-8" stroke="#0C152E"></path>
                            <polygon id="Fill-10" fill="#DFE6F2" points="53.9072 205.188449 95.5860293 158.967961 104.14798 158.967961 64.5483707 205.188449"></polygon>
                            <path d="M212.63282,223.86759 L217.923356,220.371005 L215.178771,216.852176 L210.179356,220.2512 C209.0336,222.969639 207.6416,225.685737 207.844917,228.415493 C207.937015,229.650615 207.391844,230.845932 206.367063,231.541346 L201.795746,234.615688 L205.282576,237.688468 L208.801405,235.202615 C209.826185,234.50759 210.371356,233.311883 210.279259,232.077151 C210.074771,229.332176 211.483551,226.600859 212.63282,223.86759" id="Fill-12" fill="#DFE6F2"></path>
                            <path d="M168.6608,28.438439 C169.783922,28.2651707 170.673288,28.406439 171.496312,28.6374634 C172.311141,28.8790244 173.026459,29.2548293 173.66958,29.7278049 C174.311141,30.2027317 174.877776,30.779122 175.345678,31.4878049 C175.804995,32.2085854 176.19719,33.0195122 176.352898,34.1492683 C175.226654,34.3272195 174.336507,34.1863415 173.514263,33.9553171 C172.699824,33.7125854 171.984507,33.3367805 171.343727,32.8602927 C170.705288,32.3814634 170.138654,31.8054634 169.671532,31.0952195 C169.212215,30.374439 168.819629,29.5639024 168.6608,28.438439" id="Fill-14" fill="#4070F4"></path>
                            <path d="M172.070283,33.3367024 C172.041405,33.3187512 172.80082,31.2851902 172.870283,29.2145561 C172.870283,29.2145561 171.50638,28.2217756 171.003746,28.3610927 C170.501112,28.5008 170.565112,32.4149463 170.565112,32.4149463 L172.070283,33.3367024 Z" id="Fill-16" fill="#254898"></path>
                            <path d="M177.143102,24.9635902 C176.310712,24.7930537 175.502907,24.7864195 174.713054,24.9034927 C174.225249,24.9780293 173.745249,25.1052488 173.272663,25.281639 C173.717151,26.4215415 174.043395,27.6117854 174.244761,28.8340293 C174.59442,28.8340293 174.940956,28.8121756 175.28359,28.7633951 C176.073444,28.6471024 176.844956,28.4071024 177.592273,28.0028098 C178.337639,27.5852488 179.066224,27.0549073 179.737054,26.1331512 C178.828176,25.4443707 177.977444,25.1481756 177.143102,24.9635902" id="Fill-18" fill="#4070F4"></path>
                            <path d="M172.405268,25.6693854 C171.660293,26.0877268 170.931317,26.6168976 170.259707,27.5339707 C171.167805,28.2172878 172.018537,28.5130927 172.852878,28.6980683 C173.324683,28.795239 173.787512,28.8346537 174.244878,28.8338845 C174.043122,27.6120195 173.717268,26.4217756 173.27239,25.2818732 C172.980488,25.3911415 172.690537,25.5148488 172.405268,25.6693854" id="Fill-20" fill="#254898"></path>
                            <g id="Group-25" transform="translate(137.756098, 14.048780)">
                                <path d="M8.51484878,2.504 C11.0046049,1.02887805 13.9107512,0.18204878 17.0147512,0.18204878 C26.2373854,0.18204878 33.713678,7.65834146 33.713678,16.8809756 C33.713678,26.104 26.2373854,33.5802927 17.0147512,33.5802927 C7.79172683,33.5802927 0.315434146,26.104 0.315434146,16.8809756 C0.315434146,12.6245854 1.90801951,8.73970732 4.52967805,5.79063415" id="Fill-22" fill="#FFFFFF"></path>
                                <path d="M8.51484878,2.504 C11.0046049,1.02887805 13.9107512,0.18204878 17.0147512,0.18204878 C26.2373854,0.18204878 33.713678,7.65834146 33.713678,16.8809756 C33.713678,26.104 26.2373854,33.5802927 17.0147512,33.5802927 C7.79172683,33.5802927 0.315434146,26.104 0.315434146,16.8809756 C0.315434146,12.6245854 1.90801951,8.73970732 4.52967805,5.79063415" id="Stroke-24" stroke="#0C152E"></path>
                            </g>
                            <path d="M159.730732,14.9796293 C164.04761,17.9985561 166.877268,22.998361 166.877268,28.6654829 C166.877268,37.8885073 159.400976,45.3648 150.178341,45.3648 C148.451122,45.3648 146.785561,45.1025561 145.218341,44.6155317 C147.926244,46.5097756 151.21561,47.6289951 154.770732,47.6289951 C163.993366,47.6289951 171.470049,40.1527024 171.470049,30.929678 C171.470049,23.4342634 166.531122,17.0924098 159.730732,14.9796293" id="Fill-26" fill="#DFE6F2"></path>
                            <path d="M147.680234,15.8062049 C149.832429,14.7954732 152.235551,14.2307902 154.770576,14.2307902 C163.9936,14.2307902 171.469893,21.7070829 171.469893,30.9297171 C171.469893,40.1527415 163.9936,47.6290341 154.770576,47.6290341 C145.547941,47.6290341 138.071649,40.1527415 138.071649,30.9297171 C138.071649,27.7461073 138.962576,24.7701073 140.509112,22.2378146" id="Stroke-28" stroke="#0C152E"></path>
                            <polyline id="Fill-30" fill="#DFE6F2" points="94.8953756 100.387005 90.6120585 103.145639 68.919961 82.8002732"></polyline>
                            <path d="M111.492761,157.079454 C111.705444,157.707746 111.913444,158.333307 112.136663,158.967844 L114.443005,158.967844 C113.436176,158.335259 112.45198,157.705405 111.492761,157.079454" id="Fill-32" fill="#4070F4"></path>
                            <path d="M152.972917,58.5299122 C134.419551,60.924839 114.3856,73.6772293 107.240234,98.5623024 C111.705015,99.2538146 115.981307,101.379863 119.3136,104.928351 C121.967259,107.756059 123.686283,111.122693 124.483161,114.650107 C128.112039,117.704546 135.062283,122.7344 145.434185,128.568546 C152.985795,132.81479 159.215649,135.708839 163.776429,137.541034 C164.792624,132.125229 165.445502,123.979668 164.421893,113.887571 L206.474966,113.53401 C207.6176,128.955278 206.517893,145.759571 201.173112,158.967766 L206.880429,158.967766 C224.427356,87.4938146 184.537795,54.4557659 152.972917,58.5299122" id="Fill-34" fill="#4070F4"></path>
                            <path d="M111.492761,157.079454 C111.705444,157.707746 111.913444,158.333307 112.136663,158.967844 L114.443005,158.967844 C113.436176,158.335259 112.45198,157.705405 111.492761,157.079454" id="Fill-36" fill="#4070F4"></path>
                            <path d="M152.972917,58.5299122 C134.419551,60.924839 114.3856,73.6772293 107.240234,98.5623024 C111.705015,99.2538146 115.981307,101.379863 119.3136,104.928351 C121.967259,107.756059 123.686283,111.122693 124.483161,114.650107 C128.112039,117.704546 135.062283,122.7344 145.434185,128.568546 C152.985795,132.81479 159.215649,135.708839 163.776429,137.541034 C164.792624,132.125229 165.445502,123.979668 164.421893,113.887571 L206.474966,113.53401 C207.6176,128.955278 206.517893,145.759571 201.173112,158.967766 L206.880429,158.967766 C224.427356,87.4938146 184.537795,54.4557659 152.972917,58.5299122" id="Fill-38" fill="#4070F4"></path>
                            <path d="M196.400312,168.033366 L207.879727,168.033366" id="Stroke-40" stroke="#0C152E"></path>
                            <path d="M83.4262634,168.033366 L130.118556,168.033366" id="Stroke-42" stroke="#0C152E"></path>
                            <path d="M3.94778537,168.033366 L66.9495415,168.033366" id="Stroke-44" stroke="#0C152E"></path>
                            <path d="M109.30638,92.5249561 L101.617405,85.184078 C92.1754537,76.1698341 78.456039,76.0660293 68.9188683,82.7981268" id="Stroke-46" stroke="#0C152E"></path>
                            <path d="M20.4763707,159.274224 L29.6455415,95.5243707 C35.6970537,77.7097366 58.1907122,72.1924683 71.7985171,85.1844683 L90.6121756,103.145834" id="Stroke-48" stroke="#0C152E"></path>
                            <path d="M166.058849,59.6736 C166.058849,60.4903805 162.521678,61.1526244 158.158751,61.1526244 C153.795434,61.1526244 150.258654,60.4903805 150.258654,59.6736 C150.258654,58.8568195 153.795434,58.1945756 158.158751,58.1945756 C162.521678,58.1945756 166.058849,58.8568195 166.058849,59.6736" id="Fill-50" fill="#254898"></path>
                            <path d="M91.5005659,158.967805 L114.443005,158.967805" id="Stroke-52" stroke="#0C152E"></path>
                            <polyline id="Stroke-54" stroke="#0C152E" points="33.7257756 205.188449 18.9425561 205.188449 0.289287805 158.967961 75.0557268 158.967961"></polyline>
                            <polyline id="Stroke-56" stroke="#0C152E" points="201.17319 158.967805 211.1728 158.967805 194.316995 205.188293 50.3345561 205.188293"></polyline>
                            <path d="M121.396137,107.423961 L127.476527,100.344546 C129.699746,97.8411317 133.531551,97.6140098 136.034966,99.8376195 C138.53838,102.061229 138.765112,105.892644 136.541893,108.396059 L128.218771,117.442302" id="Fill-58" fill="#254898"></path>
                            <path d="M124.463766,114.497132 C125.460839,115.336156 126.524254,116.251278 128.024741,117.364644 L130.752546,114.403083 C126.455571,113.057912 124.173815,104.47918 124.173815,104.47918 L121.506498,107.593717 C122.985522,109.785327 123.902985,112.0144 124.463766,114.497132" id="Fill-60" fill="#0C152E"></path>
                            <path d="M171.09202,26.4388293 C169.263727,19.1990244 162.578459,13.8405854 154.770849,13.8405854 C146.963239,13.8405854 140.408702,19.1990244 138.58041,26.4388293 L171.09202,26.4388293 Z" id="Fill-62" fill="#4070F4"></path>
                            <mask id="mask-2" fill="white">
                                <use xlink:href="#path-1"></use>
                            </mask>
                            <g id="Clip-65"></g>
                            <polygon id="Fill-64" fill="#2BD67B" mask="url(#mask-2)" points="93.6897561 38.1077073 131.412293 38.1077073 131.412293 18.6150244 93.6897561 18.6150244"></polygon>
                            <path d="M103.589346,28.4053073 C103.589346,33.7879415 99.225639,38.1516488 93.8430049,38.1516488 C88.4599805,38.1516488 84.0966634,33.7879415 84.0966634,28.4053073 C84.0966634,23.0222829 88.4599805,18.6585756 93.8430049,18.6585756 C99.225639,18.6585756 103.589346,23.0222829 103.589346,28.4053073" id="Fill-66" fill="#FFFFFF" mask="url(#mask-2)"></path>
                            <path d="M103.589346,28.4053073 C103.589346,33.7879415 99.225639,38.1516488 93.8430049,38.1516488 C88.4599805,38.1516488 84.0966634,33.7879415 84.0966634,28.4053073 C84.0966634,23.0222829 88.4599805,18.6585756 93.8430049,18.6585756 C99.225639,18.6585756 103.589346,23.0222829 103.589346,28.4053073 Z" id="Stroke-67" stroke="#0C152E" mask="url(#mask-2)"></path>
                            <path d="M142.112429,38.1076683 L118.437502,38.1076683 L118.437502,18.6149854 L142.112429,18.6149854 C147.495063,18.6149854 151.858771,22.9783024 151.858771,28.3609366 C151.858771,33.743961 147.495063,38.1076683 142.112429,38.1076683" id="Fill-68" fill="#2BD67B" mask="url(#mask-2)"></path>
                            <path d="M96.5716293,28.4053073 C96.5716293,29.912039 95.3501659,31.1338927 93.8430439,31.1338927 C92.335922,31.1338927 91.1140683,29.912039 91.1140683,28.4053073 C91.1140683,26.8981854 92.335922,25.6763317 93.8430439,25.6763317 C95.3501659,25.6763317 96.5716293,26.8981854 96.5716293,28.4053073 Z" id="Stroke-69" stroke="#0C152E" mask="url(#mask-2)"></path>
                            <polygon id="Fill-70" fill="#DFE6F2" mask="url(#mask-2)" points="216.500176 221.336312 211.742712 214.32441 213.165541 213.358946 217.923005 220.370849"></polygon>
                            <polygon id="Stroke-71" stroke="#0C152E" mask="url(#mask-2)" points="212.63282 223.8672 207.875356 216.855298 213.186966 213.251395 217.944429 220.263688"></polygon>
                            <path d="M205.282576,237.688468 L208.801405,235.202615 C209.826185,234.50759 210.371356,233.312273 210.279259,232.077151 C210.074771,229.332176 211.483551,226.600859 212.63282,223.8672 L207.875356,216.855298 C205.094088,217.336078 202.29721,217.341932 199.452722,215.929639 C198.352624,215.383298 197.042966,215.468761 196.02599,216.159102 L168.743649,234.669932 C168.445502,234.872078 168.193405,235.116761 167.990088,235.389932" id="Stroke-72" stroke="#0C152E" mask="url(#mask-2)"></path>
                            <path d="M218.183688,220.616039 L212.818615,212.708527 C212.550907,212.31438 212.653932,211.777405 213.048078,211.509698 C213.442615,211.24199 213.9792,211.345015 214.246907,211.739551 L219.61198,219.647063 C219.879688,220.04121 219.777054,220.577795 219.382517,220.845893 C218.98798,221.11321 218.451395,221.010576 218.183688,220.616039 Z" id="Stroke-73" stroke="#0C152E" mask="url(#mask-2)"></path>
                            <path d="M201.448937,158.963239 C204.628644,158.910946 207.192546,158.870361 207.192546,158.870361 C207.192546,158.870361 210.639571,145.347239 211.172644,128.669385 L207.013034,128.418068 C206.680937,139.229776 205.120351,149.935337 201.448937,158.963239" id="Fill-74" fill="#254898" mask="url(#mask-2)"></path>
                            <path d="M162.861463,125.526088 L164.378341,104.939551 C160.31239,113.483551 156.682341,123.048429 153.036683,132.629698 C157.24039,134.753405 160.852878,136.366673 163.776195,137.540917 C164.35961,134.432234 164.821268,130.420137 164.916878,125.661112 L162.861463,125.526088 Z" id="Fill-75" fill="#254898" mask="url(#mask-2)"></path>
                            <path d="M127.371746,28.2300098 C127.371746,33.6126439 123.008039,37.9763512 117.625405,37.9763512 C112.242771,37.9763512 107.879063,33.6126439 107.879063,28.2300098 C107.879063,22.8469854 112.242771,18.483278 117.625405,18.483278 C123.008039,18.483278 127.371746,22.8469854 127.371746,28.2300098" id="Fill-76" fill="#FFFFFF" mask="url(#mask-2)"></path>
                            <path d="M127.371746,28.2300098 C127.371746,33.6126439 123.008039,37.9763512 117.625405,37.9763512 C112.242771,37.9763512 107.879063,33.6126439 107.879063,28.2300098 C107.879063,22.8469854 112.242771,18.483278 117.625405,18.483278 C123.008039,18.483278 127.371746,22.8469854 127.371746,28.2300098 Z" id="Stroke-77" stroke="#0C152E" mask="url(#mask-2)"></path>
                            <path d="M120.354224,28.2300098 C120.354224,29.7367415 119.132371,30.9585951 117.625249,30.9585951 C116.118517,30.9585951 114.896663,29.7367415 114.896663,28.2300098 C114.896663,26.7228878 116.118517,25.5010341 117.625249,25.5010341 C119.132371,25.5010341 120.354224,26.7228878 120.354224,28.2300098 Z" id="Stroke-78" stroke="#0C152E" mask="url(#mask-2)"></path>
                            <path d="M150.65241,235.957151 L151.265093,235.344468 C155.866849,230.743102 163.327141,230.743102 167.928898,235.344468 L167.928898,235.34681 L168.54158,235.959102 C173.142946,240.560859 180.603629,240.560859 185.205385,235.959102 L185.817678,235.348761 C190.419434,230.747005 197.880117,230.747005 202.481873,235.348761 L202.481873,235.350712 L203.094166,235.963785 C207.695922,240.565151 215.156605,240.565151 219.757971,235.963785" id="Stroke-79" stroke="#0C152E" stroke-linecap="round" stroke-linejoin="round" mask="url(#mask-2)"></path>
                            <path d="M92.2947902,139.68921 L66.9496195,168.033405 L21.2934244,219.092137 C25.6969366,221.266966 31.175961,220.525112 34.8419122,216.859161 L35.4545951,216.24882 C37.6957659,214.007259 40.6151805,212.861112 43.5525463,212.802966 L83.225522,168.258966 L101.290693,148.45799 L92.2947902,139.68921 Z" id="Fill-80" fill="#254898" mask="url(#mask-2)"></path>
                            <path d="M0.28924878,216.856898 L0.901931707,216.244605 C5.50329756,211.642849 12.9639805,211.642849 17.5657366,216.244605 L17.5657366,216.246556 L18.1780293,216.859239 C22.7797854,221.460605 30.2404683,221.460605 34.8418341,216.859239 L34.8422244,216.859239 L35.4545171,216.248507 C40.0562732,211.647141 47.5169561,211.647141 52.118322,216.248507 L52.118322,216.250849 L52.7310049,216.863532" id="Stroke-81" stroke="#0C152E" stroke-linecap="round" stroke-linejoin="round" mask="url(#mask-2)"></path>
                            <g id="Group-84" mask="url(#mask-2)">
                                <g transform="translate(82.341463, 97.951220)">
                                    <path d="M124.133385,15.5829073 C125.603824,35.4236878 123.365776,57.5575415 113.144898,71.3702244 C107.726361,78.6935415 100.212995,83.1676878 91.9889951,83.968078 C80.7843122,85.0588098 63.995239,79.334322 42.0877268,66.9561756 C20.174361,54.5733463 6.78821463,43.2730537 2.30119024,33.3710049 C-2.06837073,23.728078 -0.102321951,13.0010537 7.30919024,6.04222439 C15.7595317,-1.88987317 29.0395317,-1.47036098 36.9720195,6.97724878 C39.6260683,9.80456585 41.3447024,13.1715902 42.1415805,16.6986146 C45.7708488,19.7534439 52.7207024,24.7832976 63.0926049,30.6170537 C70.6446049,34.8636878 76.8740683,37.7577366 81.4348488,39.5899317 C82.4510439,34.1741268 83.1043122,26.0285659 82.0803122,15.9364683" id="Fill-82" stroke="none" fill="#FFFFFF" fill-rule="evenodd"></path>
                                    <path d="M124.133385,15.5829073 C125.603824,35.4236878 123.365776,57.5575415 113.144898,71.3702244 C107.726361,78.6935415 100.212995,83.1676878 91.9889951,83.968078 C80.7843122,85.0588098 63.995239,79.334322 42.0877268,66.9561756 C20.174361,54.5733463 6.78821463,43.2730537 2.30119024,33.3710049 C-2.06837073,23.728078 -0.102321951,13.0010537 7.30919024,6.04222439 C15.7595317,-1.88987317 29.0395317,-1.47036098 36.9720195,6.97724878 C39.6260683,9.80456585 41.3447024,13.1715902 42.1415805,16.6986146 C45.7708488,19.7534439 52.7207024,24.7832976 63.0926049,30.6170537 C70.6446049,34.8636878 76.8740683,37.7577366 81.4348488,39.5899317 C82.4510439,34.1741268 83.1043122,26.0285659 82.0803122,15.9364683" id="Stroke-83" stroke="#0C152E" stroke-width="1" fill="none"></path>
                                </g>
                            </g>
                            <path d="M206.396527,132.949893 C191.838088,133.104429 177.178576,133.613698 163.776429,137.85682 L165.116917,125.673795 L206.634185,128.393015 L206.396527,132.949893 Z" id="Fill-85" fill="#DFE6F2" mask="url(#mask-2)"></path>
                            <path d="M164.728468,100.189229 L162.861541,125.526205 L211.168663,128.689912 C211.168663,128.689912 212.625054,98.847961 199.213541,81.537522 C195.038712,76.1490341 166.561054,78.8612293 164.728468,100.189229" id="Fill-86" fill="#4070F4" mask="url(#mask-2)"></path>
                        </g>
                    </g>
                </g>
            </g>
        </g>
    </g>
</svg>
