<svg width="286" height="245" viewBox="0 0 286 245" fill="none" xmlns="http://www.w3.org/2000/svg">
<path d="M184.639 234.412C198.663 234.412 210.362 224.693 223.715 213.532C228.591 209.461 236.576 202.806 240.256 201.039C245.985 200.399 251.246 197.571 254.941 193.146C258.635 188.721 260.479 183.04 260.087 177.288C259.694 171.536 257.096 166.158 252.835 162.276C248.573 158.393 242.977 156.306 237.214 156.45C221.881 156.808 208.852 167.633 195.062 179.175C193.317 180.629 191.248 182.351 189.191 184.018C182.1 171.268 171.822 148.621 163.468 126.69C161.347 121.149 157.112 116.678 151.695 114.259C146.277 111.841 140.121 111.674 134.58 113.795C129.04 115.916 124.568 120.151 122.15 125.568C119.732 130.986 119.565 137.142 121.685 142.682C121.999 143.499 129.38 162.735 138.461 182.407C153.906 215.959 164.978 233.17 182.682 234.345C183.297 234.389 183.968 234.412 184.639 234.412Z" fill="#DFE6F2"/>
<path d="M163.535 164.569L166.812 177.363C170.458 191.604 175.465 205.462 181.765 218.743L188.855 233.707C183.441 234.339 177.954 233.906 172.706 232.432C159.341 228.909 148.102 161.248 148.102 161.248L163.535 164.569Z" fill="#C3CFE6"/>
<mask id="path-3-inside-1_2_1094" fill="white">
<path d="M126.371 359.044C129.872 368.997 133.082 378.381 135.654 386.746C137.164 391.51 102.246 546.733 102.246 546.733H182.376L189.526 515.986L218.09 386.399C220.808 374.033 219.848 361.141 215.327 349.314L149.242 150.947"/>
</mask>
<path d="M126.371 359.044C129.872 368.997 133.082 378.381 135.654 386.746C137.164 391.51 102.246 546.733 102.246 546.733H182.376L189.526 515.986L218.09 386.399C220.808 374.033 219.848 361.141 215.327 349.314L149.242 150.947" fill="#254898"/>
<path d="M135.654 386.746L134.701 387.048L134.698 387.04L135.654 386.746ZM102.246 546.733V547.733H100.996L101.27 546.513L102.246 546.733ZM182.376 546.733L183.35 546.959L183.17 547.733H182.376V546.733ZM189.526 515.986L190.503 516.201L190.5 516.212L189.526 515.986ZM218.09 386.399L219.066 386.614L219.066 386.615L218.09 386.399ZM215.327 349.314L214.393 349.671L214.385 349.651L214.378 349.63L215.327 349.314ZM127.315 358.712C130.816 368.668 134.031 378.067 136.61 386.452L134.698 387.04C132.132 378.694 128.928 369.326 125.428 359.376L127.315 358.712ZM136.607 386.444C136.672 386.648 136.69 386.867 136.697 387.037C136.705 387.225 136.701 387.441 136.69 387.674C136.666 388.143 136.608 388.741 136.52 389.451C136.344 390.873 136.043 392.803 135.637 395.158C134.825 399.872 133.582 406.337 132.051 413.951C128.988 429.181 124.764 449.036 120.493 468.738C116.222 488.441 111.904 507.994 108.654 522.622C107.029 529.935 105.671 536.018 104.719 540.272C104.243 542.399 103.868 544.069 103.613 545.207C103.485 545.776 103.387 546.213 103.321 546.506C103.288 546.653 103.263 546.765 103.246 546.839C103.238 546.877 103.232 546.905 103.228 546.924C103.225 546.933 103.224 546.94 103.223 546.945C103.222 546.947 103.222 546.949 103.222 546.95C103.221 546.952 103.221 546.952 102.246 546.733C101.27 546.513 101.27 546.513 101.27 546.511C101.271 546.51 101.271 546.508 101.272 546.506C101.273 546.501 101.274 546.494 101.276 546.485C101.281 546.466 101.287 546.438 101.295 546.401C101.312 546.326 101.337 546.215 101.37 546.068C101.436 545.774 101.534 545.338 101.662 544.769C101.917 543.631 102.291 541.962 102.767 539.835C103.719 535.582 105.077 529.501 106.702 522.188C109.952 507.562 114.269 488.012 118.539 468.314C122.809 448.615 127.031 428.771 130.09 413.557C131.621 405.948 132.859 399.505 133.666 394.818C134.071 392.474 134.365 390.58 134.535 389.205C134.62 388.516 134.672 387.973 134.692 387.574C134.702 387.374 134.704 387.225 134.699 387.12C134.694 386.997 134.683 386.993 134.701 387.048L136.607 386.444ZM102.246 545.733H182.376V547.733H102.246V545.733ZM181.402 546.506L188.552 515.759L190.5 516.212L183.35 546.959L181.402 546.506ZM188.55 515.771L217.113 386.184L219.066 386.615L190.503 516.201L188.55 515.771ZM217.113 386.185C219.789 374.009 218.844 361.316 214.393 349.671L216.261 348.957C220.852 360.967 221.827 374.057 219.066 386.614L217.113 386.185ZM214.378 349.63L148.294 151.263L150.191 150.631L216.276 348.998L214.378 349.63Z" fill="#0C152E" mask="url(#path-3-inside-1_2_1094)"/>
<path d="M69.1441 48.3808C69.9924 43.0342 72.403 38.0579 76.0725 34.0779C79.7421 30.0979 84.5066 27.292 89.7669 26.0133C91.3164 27.3453 92.582 28.9758 93.4879 30.8074C94.3938 32.639 94.9217 34.6342 95.04 36.6742C95.1583 38.7141 94.8646 40.7571 94.1765 42.6811C93.4884 44.6052 92.42 46.371 91.0349 47.8733C89.6498 49.3756 87.9764 50.5836 86.1144 51.4253C84.2525 52.2671 82.2401 52.7253 80.1972 52.7726C78.1544 52.82 76.1229 52.4556 74.2239 51.701C72.3249 50.9465 70.5973 49.8173 69.1441 48.3808Z" fill="#254898"/>
<mask id="path-6-inside-2_2_1094" fill="white">
<path d="M27.3186 207.48C4.36948 267.392 22.1274 389.206 22.1274 389.206L9.62752 546.733H97.0422L124.269 383.089L144.912 199.155"/>
</mask>
<path d="M22.1274 389.206L23.1169 389.062L23.1331 389.173L23.1242 389.286L22.1274 389.206ZM124.269 383.089L125.263 383.2L125.26 383.227L125.255 383.253L124.269 383.089ZM97.0422 546.733L98.0287 546.897L97.8896 547.733H97.0422V546.733ZM9.62752 546.733V547.733H8.54501L8.63065 546.653L9.62752 546.733ZM28.2524 207.838C16.859 237.582 15.5453 282.826 17.1162 320.769C17.9005 339.713 19.4011 356.791 20.7057 369.132C21.358 375.302 21.9612 380.287 22.4011 383.728C22.621 385.449 22.8002 386.784 22.9243 387.688C22.9863 388.14 23.0345 388.484 23.0673 388.715C23.0836 388.83 23.0961 388.918 23.1044 388.976C23.1086 389.005 23.1117 389.026 23.1138 389.041C23.1149 389.048 23.1157 389.054 23.1162 389.057C23.1164 389.059 23.1166 389.06 23.1167 389.061C23.1169 389.062 23.1169 389.062 22.1274 389.206C21.1378 389.351 21.1377 389.35 21.1376 389.349C21.1375 389.348 21.1372 389.347 21.1369 389.345C21.1364 389.341 21.1356 389.335 21.1345 389.327C21.1323 389.312 21.129 389.29 21.1248 389.26C21.1162 389.201 21.1036 389.112 21.087 388.995C21.0539 388.762 21.0053 388.415 20.9428 387.96C20.818 387.05 20.638 385.709 20.4172 383.982C19.9757 380.528 19.3708 375.528 18.7168 369.342C17.409 356.97 15.9044 339.849 15.1179 320.851C13.5471 282.909 14.829 237.29 26.3848 207.123L28.2524 207.838ZM123.275 382.977L143.918 199.043L145.906 199.267L125.263 383.2L123.275 382.977ZM96.0558 546.568L123.282 382.925L125.255 383.253L98.0287 546.897L96.0558 546.568ZM23.1242 389.286L10.6244 546.812L8.63065 546.653L21.1305 389.127L23.1242 389.286ZM9.62752 545.733H97.0422V547.733H9.62752V545.733Z" fill="black" mask="url(#path-6-inside-2_2_1094)"/>
<path d="M23.1564 207.48C23.1564 207.48 50.2129 210.031 65.8227 210.031C81.4324 210.031 108.489 209.562 132.424 205.399C156.359 201.236 164.106 194.967 164.106 194.967L161.075 148.599L23.1564 164.814V207.48Z" fill="#2BD67B"/>
<path d="M230.236 112.707C222.356 106.919 220.66 95.8382 226.449 87.9581C232.237 80.0781 243.318 78.3826 251.198 84.1711C259.078 89.9595 260.773 101.04 254.985 108.92C249.197 116.8 238.116 118.496 230.236 112.707Z" fill="#101C3D"/>
<path d="M227.336 123.74C230.737 126.55 234.668 128.632 238.89 129.858C243.112 131.084 247.537 131.429 251.895 130.871C256.253 130.314 260.454 128.866 264.241 126.616C268.027 124.366 271.322 121.36 273.923 117.782C276.524 114.204 278.377 110.129 279.37 105.804C280.363 101.479 280.474 96.9949 279.698 92.625C278.922 88.255 277.274 84.0905 274.854 80.3848C272.434 76.6791 269.294 73.5099 265.624 71.0699C265.317 70.8426 265.01 70.6152 264.683 70.4084C264.683 70.4084 299.453 92.2785 278.038 120.949C258.278 147.405 226.334 123.182 226.334 123.182C226.763 123.368 227.009 123.595 227.336 123.74Z" fill="#0C152E"/>
<path d="M280.12 106.979C275.766 124.441 258.078 135.069 240.611 130.714C223.152 126.36 212.523 108.673 216.879 91.2114C221.232 73.747 238.92 63.1186 256.381 67.4723C273.847 71.8259 284.474 89.5154 280.12 106.979Z" fill="#F7931A"/>
<path fill-rule="evenodd" clip-rule="evenodd" d="M261.47 94.992C262.013 91.2929 259.251 89.3044 255.475 87.9778L256.7 82.9669L253.709 82.2067L252.517 87.0856C251.73 86.8858 250.923 86.6973 250.12 86.5105L251.322 81.5994L248.333 80.8393L247.107 85.8485C246.456 85.6973 245.817 85.5479 245.197 85.3907L245.2 85.375L241.076 84.3247L240.28 87.5825C240.28 87.5825 242.499 88.1011 242.453 88.1333C243.664 88.4417 243.883 89.2592 243.846 89.9073L242.451 95.6158C242.534 95.6375 242.642 95.6688 242.762 95.7174L242.66 95.6916C242.591 95.6739 242.519 95.6555 242.446 95.6375L240.49 103.634C240.342 104.01 239.966 104.573 239.119 104.359C239.149 104.403 236.946 103.805 236.946 103.805L235.461 107.297L239.353 108.286C239.787 108.398 240.217 108.512 240.642 108.625L240.642 108.625L240.642 108.625C240.925 108.7 241.206 108.775 241.485 108.848L240.247 113.916L243.234 114.676L244.46 109.662C245.276 109.888 246.068 110.096 246.844 110.292L245.622 115.283L248.613 116.044L249.85 110.985C254.95 111.969 258.785 111.572 260.399 106.868C261.7 103.08 260.334 100.895 257.651 99.4704C259.605 99.0109 261.077 97.6999 261.47 94.992ZM254.637 104.765C253.789 108.24 248.455 106.803 246.015 106.146C245.796 106.086 245.599 106.034 245.432 105.991L247.074 99.2767C247.278 99.3286 247.527 99.3856 247.809 99.4501C250.333 100.028 255.506 101.211 254.637 104.765ZM248.317 96.334C250.351 96.8878 254.789 98.0957 255.562 94.9373C256.351 91.7067 252.038 90.7328 249.932 90.2572C249.695 90.2037 249.486 90.1565 249.315 90.1131L247.826 96.203C247.967 96.2388 248.132 96.2837 248.317 96.334Z" fill="white"/>
<path d="M85.1258 299.222C90.9965 299.223 96.6322 296.915 100.817 292.798C105.001 288.68 107.399 283.082 107.493 277.212C107.683 264.787 102.751 241.883 67.6343 228.171C64.0667 226.773 60.5215 225.61 57.1663 224.637L61.4161 161.952C61.818 156.033 59.8521 150.197 55.951 145.728C52.0499 141.258 46.5332 138.521 40.6143 138.12C34.6954 137.718 28.8592 139.683 24.3898 143.585C19.9203 147.486 17.1835 153.002 16.7816 158.921L11.1897 240.932C10.8011 246.668 12.636 252.333 16.3136 256.752C19.9912 261.171 25.2291 264.004 30.9403 264.664C36.7669 265.484 42.5084 266.824 48.0962 268.668C57.9826 272.023 61.9082 275.501 62.7246 276.72C62.6886 282.616 64.9818 288.288 69.1056 292.501C73.2294 296.715 78.8502 299.131 84.7454 299.222H85.1258Z" fill="#DFE6F2"/>
<path d="M102.432 46.5426C95.1805 45.9099 89.8107 39.5701 90.4379 32.3822C91.0651 25.1944 97.4517 19.8804 104.703 20.5131C111.954 21.1458 117.324 27.4856 116.697 34.6734C116.069 41.8613 109.683 47.1753 102.432 46.5426Z" fill="#4070F4"/>
<path d="M51.8141 125.777C23.1979 123.28 2.0064 98.2605 4.48148 69.8942C6.95655 41.5279 32.161 20.5565 60.7771 23.0534C89.3933 25.5502 110.585 50.5698 108.11 78.9362C105.635 107.303 80.4302 128.274 51.8141 125.777Z" fill="#4070F4"/>
<path d="M77.3621 85.3527C61.0193 83.9267 48.9167 69.6379 50.3302 53.4377C51.7437 37.2376 66.1381 25.2607 82.4809 26.6867C98.8238 28.1127 110.926 42.4015 109.513 58.6017C108.099 74.8018 93.7049 86.7787 77.3621 85.3527Z" fill="#254898"/>
<path d="M83.9915 85.7639C67.6486 84.3379 55.546 70.0491 56.9596 53.8489C58.3731 37.6488 72.7675 25.6719 89.1103 27.0979C105.453 28.5239 117.556 42.8127 116.142 59.0128C114.729 75.213 100.334 87.1899 83.9915 85.7639Z" fill="#DFE6F2"/>
<path d="M92.7025 41.0436C96.7665 38.8659 99.8488 35.2457 101.332 30.9075C100.641 30.5126 99.9471 30.151 99.2181 29.803C94.1315 27.4214 88.4702 26.518 82.8912 27.1978C77.3121 27.8776 72.0444 30.1125 67.6996 33.6433C70.0395 37.9011 73.9832 41.0698 78.6686 42.4566C83.3539 43.8433 88.3995 43.3353 92.7025 41.0436Z" fill="#C5CFE4"/>
<path d="M85.8958 38.0244C75.7497 37.1391 68.2361 28.2682 69.1136 18.2107C69.9912 8.15322 78.9276 0.717673 89.0737 1.60296C99.2197 2.48824 106.733 11.3591 105.856 21.4166C104.978 31.4741 96.0418 38.9096 85.8958 38.0244Z" fill="#4070F4"/>
<path d="M85.9756 92.1654C74.9117 93.7871 64.276 97.5733 54.676 103.307C45.0761 109.041 36.7001 116.611 30.027 125.584C23.3538 134.556 18.5143 144.756 15.7849 155.6C13.0554 166.444 12.4896 177.719 14.1198 188.782L182.559 164.066C180.941 153.002 177.159 142.365 171.429 132.763C165.698 123.161 158.133 114.783 149.164 108.106C140.194 101.428 129.997 96.584 119.155 93.849C108.313 91.1139 97.0388 90.5418 85.9756 92.1654Z" fill="#2BD67B"/>
<path d="M71.1937 97.4339C70.9658 95.4705 78.5949 92.9721 88.2337 91.8535C97.8724 90.7348 105.871 91.4195 106.099 93.3829C106.327 95.3462 98.6976 97.8446 89.0588 98.9633C79.42 100.082 71.4215 99.3972 71.1937 97.4339Z" fill="#254898"/>
<path d="M237.538 160.23C233.202 160.23 229.687 159.414 229.687 158.407C229.687 157.4 233.202 156.584 237.538 156.584C241.874 156.584 245.389 157.4 245.389 158.407C245.389 159.414 241.874 160.23 237.538 160.23Z" fill="#C5CFE4"/>
</svg>
