<?xml version="1.0" encoding="UTF-8"?>
<svg width="128px" height="107px" viewBox="0 0 128 107" version="1.1" xmlns="http://www.w3.org/2000/svg" xmlns:xlink="http://www.w3.org/1999/xlink">
    <!-- Generator: sketchtool 55.1 (78136) - https://sketchapp.com -->
    <title>D60C9E13-0FD8-4507-9051-EB0913AD0DA3</title>
    <desc>Created with sketchtool.</desc>
    <g id="🔄--4.0-Transactions" stroke="none" stroke-width="1" fill="none" fill-rule="evenodd">
        <g id="4.2.6-Transaction---Success---Already-Followed" transform="translate(-609.000000, -189.000000)">
            <g id="tx-success" transform="translate(610.000000, 190.000000)">
                <polygon id="Fill-1" fill="#DFE6F2" points="31.4047553 97.1992936 101.5215 97.1992936 101.5215 94.591017 28.7113404 94.3970596"></polygon>
                <g id="Group-4" transform="translate(0.000000, 105.016117)" stroke="#101C3D" stroke-linecap="round">
                    <path d="M0.28202766,0.282140426 L126.186911,0.282140426" id="Stroke-2"></path>
                </g>
                <polygon id="Stroke-5" stroke="#101C3D" stroke-linecap="round" points="28.7113404 94.3969468 114.483383 94.3969468 114.483383 83.4958617 28.7113404 83.4958617"></polygon>
                <path d="M84.2745106,83.4961436 L84.2745106,93.9303777" id="Stroke-6" stroke="#0C152E" stroke-linecap="round"></path>
                <path d="M70.2561234,83.4961436 L70.2561234,93.9303777" id="Stroke-7" stroke="#0C152E" stroke-linecap="round"></path>
                <path d="M99.1433223,83.4961436 L99.1433223,93.9303777" id="Stroke-8" stroke="#0C152E" stroke-linecap="round"></path>
                <g id="Group-25" transform="translate(15.223404, 0.143777)">
                    <polygon id="Stroke-9" stroke="#101C3D" stroke-linecap="round" points="0.526053191 105.154255 86.2980957 105.154255 86.2980957 94.2531702 0.526053191 94.2531702"></polygon>
                    <path d="M19.4993202,94.7203596 L19.4993202,105.154594" id="Stroke-11" stroke="#0C152E" stroke-linecap="round"></path>
                    <path d="M33.0378883,94.7203596 L33.0378883,105.154594" id="Stroke-12" stroke="#0C152E" stroke-linecap="round"></path>
                    <path d="M58.457816,73.1918723 C38.3087947,73.1918723 21.9746457,56.8565957 21.9746457,36.7064468 C21.9746457,16.5562979 38.3087947,0.220457447 58.457816,0.220457447 C58.8930926,0.220457447 59.3266777,0.231170213 59.7580074,0.246393617 L59.7580074,0.220457447 C59.7580074,0.220457447 13.7060819,-3.36775532 14.3037415,36.7064468 C14.9019649,76.7806489 59.7580074,73.1918723 59.7580074,73.1918723 L59.7580074,73.1665 C59.3266777,73.1811596 58.8930926,73.1918723 58.457816,73.1918723" id="Fill-13" fill="#DFE6F2"></path>
                    <path d="M58.457816,73.1918723 C38.3087947,73.1918723 21.9746457,56.8565957 21.9746457,36.7064468 C21.9746457,16.5562979 38.3087947,0.220457447 58.457816,0.220457447 C58.8930926,0.220457447 59.3266777,0.231170213 59.7580074,0.246393617 L59.7580074,0.220457447 C59.7580074,0.220457447 13.7060819,-3.36775532 14.3037415,36.7064468 C14.9019649,76.7806489 59.7580074,73.1918723 59.7580074,73.1918723 L59.7580074,73.1665 C59.3266777,73.1811596 58.8930926,73.1918723 58.457816,73.1918723 Z" id="Stroke-14" stroke="#101C3D"></path>
                    <path d="M94.9407606,36.7064468 C94.9407606,56.8565957 78.6066117,73.1918723 58.4575904,73.1918723 C38.309133,73.1918723 21.974984,56.8565957 21.974984,36.7064468 C21.974984,16.5562979 38.309133,0.220457447 58.4575904,0.220457447 C78.6066117,0.220457447 94.9407606,16.5562979 94.9407606,36.7064468 Z" id="Stroke-15" stroke="#0C152E"></path>
                    <path d="M58.457816,5.13970319 C58.0163372,5.13970319 57.5771138,5.15154362 57.1401457,5.16958617 C73.9614436,5.86027766 87.3867947,19.7147032 87.3867947,36.7062777 C87.3867947,53.698416 73.9614436,67.5522777 57.1401457,68.243533 C57.5771138,68.2610117 58.0163372,68.2728521 58.457816,68.2728521 C75.8903053,68.2728521 90.0215713,54.1398947 90.0215713,36.7062777 C90.0215713,19.2726606 75.8903053,5.13970319 58.457816,5.13970319" id="Fill-16" fill="#DFE6F2"></path>
                    <path d="M90.0218532,36.7064468 C90.0218532,54.1400638 75.8905872,68.2724574 58.4580979,68.2724574 C41.0256085,68.2724574 26.8937787,54.1400638 26.8937787,36.7064468 C26.8937787,19.2728298 41.0256085,5.14043617 58.4580979,5.14043617 C75.8905872,5.14043617 90.0218532,19.2728298 90.0218532,36.7064468 Z" id="Stroke-17" stroke="#101C3D" stroke-linecap="round"></path>
                    <path d="M94.9407606,36.7064468 C94.9407606,56.8565957 78.6066117,73.1918723 58.4575904,73.1918723 C38.309133,73.1918723 21.974984,56.8565957 21.974984,36.7064468 C21.974984,16.5562979 38.309133,0.220457447 58.4575904,0.220457447 C78.6066117,0.220457447 94.9407606,16.5562979 94.9407606,36.7064468 Z" id="Stroke-18" stroke="#101C3D" stroke-linecap="round"></path>
                    <polygon id="Fill-19" fill="#3D71FF" points="50.8298755 35.5363872 57.6088011 42.3147489 64.3871628 35.5363872 57.6088011 28.7580255"></polygon>
                    <path d="M16.4147766,49.7912447 L24.373234,49.7912447" id="Stroke-20" stroke="#101C3D" stroke-linecap="round"></path>
                    <path d="M17.9821106,20.2860319 L25.9315468,20.2860319" id="Stroke-21" stroke="#101C3D" stroke-linecap="round"></path>
                    <path d="M23.4279734,61.0331649 L31.2494202,61.0331649" id="Stroke-22" stroke="#101C3D" stroke-linecap="round"></path>
                    <polygon id="Fill-23" fill="#2BD67B" points="80.9986596 26.6285532 100.958234 26.6285532 100.958234 6.66841489 80.9986596 6.66841489"></polygon>
                    <polyline id="Stroke-24" stroke="#FFFFFF" points="84.9209415 17.5009947 88.6281223 20.8574734 96.3768351 12.074133"></polyline>
                </g>
            </g>
        </g>
    </g>
</svg>