<svg xmlns="http://www.w3.org/2000/svg" width="77" height="32">
  <path fill="#FFF" d="M9.96 31.93c-.022.023-.066.047-.088.07H7.397c-.044 0-.066-.023-.088-.047L.017 23.25a.158.158 0 0 1 0-.14L9.099 6.545a.12.12 0 0 1 .199 0l2.54 4.646c.023.023.023.07 0 .117l-6.142 11.19c-.022.047 0 .094.022.141l3.668 4.364c.022.023.066.047.088.047h4.332c.11 0 .154.117.088.188L9.96 31.93zM12.657.07c.045-.093.155-.093.177 0l12.662 22.992c.022.047 0 .093-.022.14l-7.292 8.704c-.022.024-.066.047-.089.047H12.17c-.11 0-.154-.117-.088-.188l3.955-4.739 3.713-4.41a.115.115 0 0 0 .022-.14l-7.027-12.81-2.652-4.833c-.022-.024-.022-.07 0-.117L12.656.07zm23.755 25.385c0 .07.067.117.11.117h6.32c.067 0 .111.047.111.117v4.575c0 .07-.044.117-.11.117H32.014c-.066 0-.11-.047-.11-.117v-14.64c0-.023 0-.046.022-.07l4.287-5.09c.066-.094.198-.048.198.07v14.92zm12.773 4.809c0 .047-.044.117-.11.117h-4.288c-.066 0-.11-.047-.11-.117v-8.892c0-.023 0-.046.022-.07l4.287-5.09c.066-.095.199-.048.199.07v13.982zm23.202-7.015l4.597 6.945c.044.07 0 .187-.089.187h-4.773c-.022 0-.066-.023-.088-.047l-3.602-5.747c-.066-.094-.199-.047-.199.07v5.607c0 .07-.044.117-.11.117h-4.287c-.067 0-.11-.047-.11-.117V15.6c0-.023 0-.047.021-.07l4.287-5.091c.066-.094.199-.047.199.07v11.027c0 .117.133.164.199.07l3.248-5.584c.022-.023.044-.046.089-.046h4.927c.089 0 .133.117.089.187l-4.398 6.945a.158.158 0 0 0 0 .14zm-15.932 7.414c-2.917 0-4.84-1.033-5.834-3.167-.044-.07-.022-.141.044-.165l3.514-1.876c.066-.024.132 0 .155.07.375.938 1.104 1.408 2.121 1.408 1.105 0 1.326-.493 1.326-.892 0-.61-.818-.845-1.967-1.15-1.967-.54-4.662-1.266-4.662-4.48 0-2.346 1.657-4.716 5.303-4.693 2.52 0 4.331 1.033 5.37 3.05.044.07.022.141-.045.165l-3.403 1.618c-.044.024-.11 0-.132-.047-.398-.727-.972-1.102-1.68-1.102-.685 0-1.104.305-1.104.797 0 .634.883.845 1.988 1.127 2.011.492 4.751 1.15 4.751 4.621 0 3.472-2.96 4.716-5.745 4.716z"/>
</svg>
