<svg xmlns="http://www.w3.org/2000/svg" width="80" height="60" viewBox="0 0 80 60">
  <defs>
    <linearGradient id="search_export-a" x1="157.456%" x2="0%" y1="26.775%" y2="78.719%">
      <stop offset="0%" stop-color="#FFF" stop-opacity="0"/>
      <stop offset="100%" stop-color="#82F0FC"/>
    </linearGradient>
    <linearGradient id="search_export-b" x1="19.476%" x2="86.047%" y1="88.413%" y2="18.496%">
      <stop offset="0%" stop-color="#004AFF"/>
      <stop offset="100%" stop-color="#93F4FE"/>
    </linearGradient>
  </defs>
  <g fill="none" fill-rule="evenodd" transform="translate(5 3)">
    <circle cx="23" cy="23" r="23" fill="url(#search_export-a)"/>
    <path fill="url(#search_export-b)" d="M63.8100122,38.6955609 L69.9676747,49.3609451 L61.1454089,54.4544827 L55.0140926,43.8347312 C52.9268439,44.4772583 50.7095959,44.8231302 48.4115651,44.8231302 C36.0339995,44.8231302 26,34.7891307 26,22.4115651 C26,10.0339995 36.0339995,0 48.4115651,0 C60.7891307,0 70.8231302,10.0339995 70.8231302,22.4115651 C70.8231302,28.8255884 68.1287141,34.6102972 63.8100122,38.6955609 Z M48.6153066,35.4510212 C55.704276,35.4510212 61.4510212,29.704276 61.4510212,22.6153066 C61.4510212,15.5263372 55.704276,9.77959205 48.6153066,9.77959205 C41.5263372,9.77959205 35.779592,15.5263372 35.779592,22.6153066 C35.779592,29.704276 41.5263372,35.4510212 48.6153066,35.4510212 Z" opacity=".7"/>
  </g>
</svg>
