<svg width="11" height="8" viewBox="0 0 11 8" fill="none" xmlns="http://www.w3.org/2000/svg">
<path fill-rule="evenodd" clip-rule="evenodd" d="M9.23584 3.6501L7.08513 1.37828C6.95224 1.2379 6.95224 1.01031 7.08513 0.869932C7.21802 0.729556 7.43348 0.729554 7.56637 0.869928L10.289 3.7459C10.3528 3.81331 10.3887 3.90473 10.3887 4.00007C10.3887 4.0954 10.3528 4.18683 10.289 4.25424L7.56639 7.13027C7.4335 7.27065 7.21805 7.27065 7.08516 7.13028C6.95227 6.9899 6.95226 6.76231 7.08515 6.62193L9.2358 4.3501H0.961588C0.768289 4.3501 0.611588 4.1934 0.611588 4.0001C0.611588 3.8068 0.768289 3.6501 0.961588 3.6501H9.23584Z" fill="#0C152E"/>
</svg>