<svg width="20" height="20" viewBox="0 0 20 20" fill="none" xmlns="http://www.w3.org/2000/svg">
<path fill-rule="evenodd" clip-rule="evenodd" d="M9.75 1.4C9.91 1.33333 10.09 1.33333 10.25 1.4L18.2369 4.7279C18.2798 4.74471 18.3213 4.76622 18.3605 4.79236C18.46 4.85868 18.5376 4.94995 18.5873 5.05482C18.5954 5.07193 18.6028 5.08941 18.6094 5.10722C18.6358 5.17831 18.65 5.25468 18.65 5.33337C18.65 5.33635 18.65 5.33933 18.6499 5.34231V14.6666C18.6499 14.929 18.4922 15.1657 18.2499 15.2666L10.2621 18.5949C10.1932 18.6253 10.1199 18.6432 10.0457 18.6484C10.0252 18.6498 10.0045 18.6503 9.98391 18.6498C9.89968 18.6477 9.81611 18.6293 9.73811 18.5949L1.75025 15.2666C1.50803 15.1657 1.35025 14.929 1.35025 14.6666V5.35122C1.35009 5.34529 1.35001 5.33933 1.35001 5.33337C1.35001 5.10711 1.46731 4.89998 1.65491 4.78252C1.6885 4.76145 1.72364 4.74368 1.75986 4.72926L9.75 1.4ZM16.3098 5.33327L10.0001 7.96233L3.69033 5.33323L10 2.70417L16.3098 5.33327ZM2.65025 6.30848V14.2333L9.34994 17.0249V9.10005L2.65025 6.30848ZM10.6503 9.09997V17.0249L17.3499 14.2333V6.3084L10.6503 9.09997Z" fill="#8A8CA2"/>
</svg>
