<svg width="20" height="19" viewBox="0 0 20 19" fill="none" xmlns="http://www.w3.org/2000/svg">
<path d="M16.2406 5.50332L16.8109 5.19142L16.8109 5.19142L16.2406 5.50332ZM16.5004 6.02665L15.9064 6.29073L16.0564 6.62809L16.423 6.67203L16.5004 6.02665ZM15.0389 3.88155L15.4985 3.42193V3.42193L15.0389 3.88155ZM10.2286 1.60463L10.2018 2.25408L10.2286 1.60463ZM6.1887 2.65548L5.88613 2.0802L5.88613 2.0802L6.1887 2.65548ZM5.85565 3.37317L6.49005 3.23165V3.23165L5.85565 3.37317ZM6.42547 3.8879L6.50444 3.24272L6.50444 3.24272L6.42547 3.8879ZM8.03378 4.2399L8.24527 3.62527L8.03378 4.2399ZM9.30345 5.04651L9.84254 4.68335V4.68335L9.30345 5.04651ZM9.49065 6.50216L8.86403 6.32941V6.32941L9.49065 6.50216ZM8.85059 7.4575L9.30149 7.92567L8.85059 7.4575ZM1.29264 14.7366L1.74354 15.2048H1.74354L1.29264 14.7366ZM1.33554 16.2162L0.912525 16.7097H0.912525L1.33554 16.2162ZM3.29086 17.8921L2.86785 18.3857H2.86785L3.29086 17.8921ZM4.65479 17.8339L5.11833 18.2896H5.11833L4.65479 17.8339ZM11.879 10.4849L11.4155 10.0292H11.4155L11.879 10.4849ZM12.9978 9.5784L13.3089 10.1491L13.3089 10.1491L12.9978 9.5784ZM13.2856 9.45031L13.9354 9.43499L13.9142 8.53665L13.0677 8.83793L13.2856 9.45031ZM13.2887 9.58116L12.6389 9.59648V9.59648L13.2887 9.58116ZM16.3817 11.4513L15.9221 10.9916L15.9221 10.9917L16.3817 11.4513ZM18.6501 9.18292L18.1905 8.7233L18.6501 9.18292ZM18.6501 7.49278L18.1905 7.9524V7.9524L18.6501 7.49278ZM17.5694 6.41209L18.029 5.95247L18.029 5.95247L17.5694 6.41209ZM16.8666 6.07055L16.9439 5.42517H16.9439L16.8666 6.07055ZM15.6703 5.81522C15.7737 6.00429 15.8518 6.16793 15.9064 6.29073L17.0943 5.76257C17.0271 5.61145 16.9334 5.41549 16.8109 5.19142L15.6703 5.81522ZM14.5792 4.34117C15.0814 4.84336 15.4386 5.39148 15.6703 5.81523L16.8109 5.19142C16.5391 4.69455 16.1127 4.03612 15.4985 3.42193L14.5792 4.34117ZM10.2018 2.25408C12.3112 2.34135 13.5595 3.32139 14.5792 4.34117L15.4985 3.42193C14.3735 2.29696 12.8329 1.06182 10.2555 0.955188L10.2018 2.25408ZM6.49127 3.23077C7.23099 2.84172 8.7075 2.19226 10.2018 2.25408L10.2555 0.955188C8.40763 0.878741 6.67818 1.66363 5.88613 2.0802L6.49127 3.23077ZM6.49005 3.23165C6.49029 3.23272 6.49 3.23187 6.49017 3.22992C6.49033 3.22812 6.49069 3.22744 6.49044 3.22805C6.49003 3.22901 6.48897 3.23093 6.48725 3.23282C6.48649 3.23366 6.48607 3.23397 6.48631 3.23378C6.48655 3.23359 6.48802 3.23248 6.49127 3.23077L5.88613 2.0802C5.30466 2.38602 5.10791 3.00666 5.22124 3.5147L6.49005 3.23165ZM6.50444 3.24272C6.50113 3.24231 6.49909 3.2418 6.49808 3.2415C6.49705 3.2412 6.49657 3.24097 6.49645 3.24091C6.49634 3.24086 6.49599 3.24072 6.49521 3.23997C6.49424 3.23905 6.49289 3.23745 6.49165 3.23525C6.49037 3.23298 6.49002 3.23149 6.49005 3.23165L5.22124 3.51469C5.33151 4.00904 5.74293 4.45921 6.3465 4.53309L6.50444 3.24272ZM8.24527 3.62527C7.61426 3.40815 6.95366 3.2977 6.50444 3.24272L6.3465 4.53309C6.75205 4.58273 7.31248 4.67912 7.8223 4.85454L8.24527 3.62527ZM9.84254 4.68335C9.49687 4.17023 8.87031 3.84033 8.24527 3.62527L7.8223 4.85454C8.37141 5.04348 8.6611 5.25638 8.76437 5.40967L9.84254 4.68335ZM10.1173 6.67491C10.2698 6.12149 10.3122 5.38058 9.84254 4.68335L8.76437 5.40967C8.94796 5.6822 8.95741 5.99069 8.86403 6.32941L10.1173 6.67491ZM9.30149 7.92567C9.6072 7.63125 9.96642 7.22208 10.1173 6.67491L8.86403 6.32941C8.8077 6.53373 8.65546 6.74299 8.39969 6.98933L9.30149 7.92567ZM1.74354 15.2048L9.30149 7.92567L8.39969 6.98933L0.841733 14.2685L1.74354 15.2048ZM1.75855 15.7226C1.60177 15.5883 1.59481 15.348 1.74354 15.2048L0.841733 14.2685C0.140571 14.9438 0.173409 16.0761 0.912525 16.7097L1.75855 15.7226ZM3.71388 17.3986L1.75855 15.7226L0.912525 16.7097L2.86785 18.3857L3.71388 17.3986ZM4.19126 17.3782C4.06224 17.5095 3.85361 17.5184 3.71388 17.3986L2.86785 18.3857C3.5266 18.9503 4.51011 18.9083 5.11833 18.2896L4.19126 17.3782ZM11.4155 10.0292L4.19125 17.3783L5.11833 18.2896L12.3426 10.9405L11.4155 10.0292ZM12.6866 9.00772C12.1742 9.28709 11.7615 9.67722 11.4155 10.0292L12.3425 10.9405C12.6729 10.6045 12.9743 10.3316 13.3089 10.1491L12.6866 9.00772ZM13.0677 8.83793C12.9482 8.88043 12.8187 8.93569 12.6866 9.00773L13.3089 10.1491C13.3731 10.1141 13.4391 10.0856 13.5035 10.0627L13.0677 8.83793ZM13.9385 9.56584L13.9354 9.43499L12.6358 9.46563L12.6389 9.59648L13.9385 9.56584ZM14.098 9.93844C13.9989 9.83936 13.9418 9.70593 13.9385 9.56584L12.6389 9.59648C12.65 10.0707 12.8434 10.5223 13.1788 10.8577L14.098 9.93844ZM15.1512 10.9916L14.098 9.93844L13.1788 10.8577L14.232 11.9109L15.1512 10.9916ZM15.9221 10.9917C15.7092 11.2045 15.3641 11.2045 15.1512 10.9916L14.232 11.9109C14.9525 12.6314 16.1208 12.6315 16.8414 11.9109L15.9221 10.9917ZM18.1905 8.7233L15.9221 10.9916L16.8414 11.9109L19.1097 9.64254L18.1905 8.7233ZM18.1905 7.9524C18.4033 8.16528 18.4033 8.51042 18.1905 8.7233L19.1097 9.64254C19.8303 8.92198 19.8303 7.75372 19.1097 7.03316L18.1905 7.9524ZM17.1098 6.87171L18.1905 7.9524L19.1097 7.03316L18.029 5.95247L17.1098 6.87171ZM16.7892 6.71593C16.9105 6.73047 17.0234 6.78533 17.1098 6.87171L18.029 5.95247C17.7366 5.66008 17.3545 5.47438 16.9439 5.42517L16.7892 6.71593ZM16.423 6.67203L16.7892 6.71593L16.9439 5.42517L16.5777 5.38127L16.423 6.67203ZM12.1432 10.224L9.10997 7.19073L8.19073 8.10997L11.224 11.1432L12.1432 10.224Z" fill="#254898"/>
</svg>
