<svg width="198" height="151" viewBox="0 0 198 151" fill="none" xmlns="http://www.w3.org/2000/svg">
<path d="M164.34 80.2131C180.14 80.2131 192.949 67.4006 192.949 51.5956C192.949 35.7906 180.14 22.9781 164.34 22.9781C148.541 22.9781 135.732 35.7906 135.732 51.5956C135.732 67.4006 148.541 80.2131 164.34 80.2131Z" fill="#FFD0D1"/>
<path d="M106.247 28.2878C110.251 28.2878 113.497 25.041 113.497 21.0358C113.497 17.0307 110.251 13.7838 106.247 13.7838C102.243 13.7838 98.9976 17.0307 98.9976 21.0358C98.9976 25.041 102.243 28.2878 106.247 28.2878Z" fill="#FFD0D1"/>
<path d="M139.94 57.235C155.74 57.235 168.548 44.4225 168.548 28.6175C168.548 12.8125 155.74 0 139.94 0C124.14 0 111.332 12.8125 111.332 28.6175C111.332 44.4225 124.14 57.235 139.94 57.235Z" fill="#FFD0D1"/>
<path d="M171.093 23.7439C171.484 25.6254 171.686 27.5728 171.686 29.5709C171.686 30.8539 171.595 32.1167 171.428 33.3541C170.946 29.7078 169.78 26.2796 168.062 23.2013C169.091 23.3332 170.105 23.5107 171.093 23.7439Z" fill="#E9B7B8"/>
<path d="M123.641 42.1681C132.665 42.1681 139.981 34.8502 139.981 25.8232C139.981 16.7962 132.665 9.47831 123.641 9.47831C114.617 9.47831 107.302 16.7962 107.302 25.8232C107.302 34.8502 114.617 42.1681 123.641 42.1681Z" fill="#E9B7B8"/>
<path d="M120.538 44.1045C129.562 44.1045 136.877 36.7867 136.877 27.7597C136.877 18.7326 129.562 11.4148 120.538 11.4148C111.514 11.4148 104.198 18.7326 104.198 27.7597C104.198 36.7867 111.514 44.1045 120.538 44.1045Z" fill="white"/>
<path d="M120.518 44.3538C117.106 44.3538 113.669 43.3091 110.719 41.1386C103.342 35.7224 101.75 25.311 107.165 17.9373C112.579 10.5585 122.987 8.96609 130.359 14.3823C137.735 19.7984 139.327 30.2099 133.912 37.5836C130.668 42.0108 125.623 44.3538 120.518 44.3538ZM120.564 11.6742C115.611 11.6742 110.729 13.9461 107.581 18.2365C102.328 25.387 103.875 35.479 111.023 40.7329C118.171 45.9868 128.26 44.44 133.512 37.2894C138.764 30.1389 137.218 20.0469 130.07 14.793C127.2 12.6884 123.864 11.6742 120.564 11.6742Z" fill="#0C152E"/>
<path d="M113.497 21.8574C110.85 21.8574 108.447 20.833 106.643 19.1747C106.871 18.8045 107.109 18.4393 107.373 18.0844C111.231 12.8305 117.639 10.5534 123.641 11.7097C123.641 11.7097 123.641 11.7097 123.641 11.7148C123.641 17.3186 119.099 21.8574 113.497 21.8574Z" fill="#C5CFE4"/>
<path d="M110.399 20.2954C116.002 20.2954 120.544 15.7522 120.544 10.1477C120.544 4.54329 116.002 0 110.399 0C104.797 0 100.255 4.54329 100.255 10.1477C100.255 15.7522 104.797 20.2954 110.399 20.2954Z" fill="#FFD0D1"/>
<path d="M180.244 74.8528L184.234 98.4446L144.609 101.645L130.947 71.5564L180.244 74.8528Z" fill="black"/>
<path d="M107.317 115.586C106.207 115.586 105.092 115.464 104.002 115.226L38.1165 100.722C34.0912 99.8341 30.654 97.4354 28.4386 93.9666C26.2181 90.4927 25.488 86.3647 26.3701 82.3431C27.2573 78.3165 29.6553 74.8781 33.128 72.6569C36.6007 70.4356 40.7274 69.7003 44.7476 70.5878L101.026 82.977L126.597 49.4556C129.096 46.1795 132.721 44.0749 136.802 43.5221C140.883 42.9744 144.939 44.0495 148.214 46.5497C151.489 49.0499 153.593 52.6759 154.146 56.7583C154.698 60.8407 153.618 64.8977 151.119 68.1738L119.581 109.52C116.676 113.314 112.093 115.586 107.317 115.586ZM41.3966 70.7247C38.5829 70.7247 35.825 71.526 33.3967 73.0778C30.0406 75.223 27.7187 78.5498 26.8619 82.4445C26.0051 86.3342 26.7149 90.3304 28.8593 93.6877C31.0038 97.0449 34.3295 99.3676 38.223 100.225L104.108 114.729C105.163 114.962 106.243 115.079 107.317 115.079C111.936 115.079 116.372 112.883 119.175 109.206L150.713 67.8594C153.132 64.6898 154.171 60.7697 153.639 56.8191C153.106 52.8686 151.073 49.3643 147.905 46.9453C144.736 44.5262 140.818 43.4866 136.868 44.0191C132.919 44.5516 129.416 46.5852 126.998 49.7548L101.229 83.5349L101.071 83.4994L44.6361 71.0746C43.5563 70.8413 42.4714 70.7247 41.3966 70.7247Z" fill="#9999A0"/>
<path d="M51.8 46L58 151" stroke="#9999A0" stroke-width="0.5" stroke-linecap="round"/>
<path d="M0.0905762 21.2076L50.6232 18.5593L52.2394 49.3968L1.7067 52.0451L16.2389 35.8224L0.0905762 21.2076Z" fill="#2BD67B"/>
<path d="M47 16L49 52.5" stroke="black" stroke-width="0.5" stroke-linecap="round"/>
<path d="M109.261 125.5H109.769L108.766 151H108.258L109.261 125.5Z" fill="#9999A0"/>
<path d="M137.314 137.874L136.833 138.026C136.893 138.216 138.518 143.358 140.971 151H141.501C139.021 143.274 137.375 138.065 137.314 137.874Z" fill="#9999A0"/>
<path d="M125.973 105.139H106.217V78.6765L133.948 77.4543L125.973 105.139Z" fill="black"/>
<path d="M183.833 96.8471L198 151H184.227L170.718 98.2113L183.833 96.8471Z" fill="black"/>
<path d="M148.735 110.255C140.761 121.564 136.599 124.678 131.833 126.235C130.581 126.645 128.883 127.203 124.974 127.203C119.408 127.203 109.365 126.077 89.7552 121.797C81.4561 119.987 73.6083 118.019 67.6616 116.259C57.9735 113.394 52.4121 111.046 48.909 106.162C44.0218 99.3566 45.5782 89.8732 52.3868 84.9896C57.938 81.0035 65.2687 81.3027 70.4296 85.2431C78.1051 88.5091 108.771 95.2894 121.111 96.6435C126.485 89.7262 136.949 73.0365 145.014 58.9534C149.182 51.6811 158.449 49.1657 165.719 53.3293C172.989 57.4928 175.503 66.7683 171.341 74.0355C171.082 74.4869 164.908 85.2583 157.835 96.4761C154.297 102.08 151.316 106.598 148.735 110.255Z" fill="#111112"/>
<path d="M166 83L121 97L126.009 89.7625L168.5 78.5L166 83Z" fill="black"/>
<path d="M124.97 127.458C117.923 127.458 106.384 125.688 89.6951 122.046C81.391 120.231 73.5331 118.263 67.5813 116.504C57.8374 113.623 52.2405 111.255 48.6968 106.31C43.7387 99.3979 45.3255 89.7421 52.2304 84.7824C57.7715 80.8065 65.1276 80.9028 70.5521 85.0207C78.0045 88.1751 108.022 94.925 120.99 96.3754C126.034 89.8486 136.235 73.7573 144.787 58.8273C149.015 51.4486 158.46 48.8825 165.836 53.112C173.213 57.3415 175.778 66.7843 171.55 74.1681C170.891 75.3142 164.924 85.6952 158.039 96.6189C154.5 102.228 151.525 106.741 148.939 110.408C140.843 121.884 136.706 124.912 131.91 126.484C130.648 126.895 128.924 127.458 124.97 127.458ZM61.2341 82.3735C58.1923 82.3735 55.1505 83.3117 52.5244 85.1982C45.8426 89.9957 44.3116 99.3371 49.1075 106.021C52.5701 110.844 58.0909 113.172 67.7283 116.022C73.6699 117.781 81.5127 119.744 89.8066 121.555C106.227 125.14 118.06 126.956 124.97 126.956C128.843 126.956 130.526 126.403 131.753 126.002C136.447 124.465 140.513 121.478 148.528 110.114C151.109 106.452 154.085 101.949 157.613 96.345C164.493 85.4315 170.455 75.0607 171.114 73.9145C175.2 66.7741 172.721 57.6407 165.588 53.5532C158.45 49.4606 149.319 51.9456 145.233 59.0809C136.62 74.1123 126.339 90.3304 121.309 96.8014L121.223 96.913L121.081 96.8978C109.137 95.5894 78.3391 88.8851 70.329 85.4772L70.2733 85.4467C67.5864 83.3979 64.4128 82.3735 61.2341 82.3735Z" fill="#9999A0"/>
<path d="M128.594 44.4907C107.287 50.0996 93.9179 70.887 96.8482 92.1815L108.022 94.494L181.253 75.2179C175.195 52.189 151.621 38.4305 128.594 44.4907Z" fill="#4070F4"/>
<path d="M130.931 49.4708C137.968 47.8632 143.372 45.221 142.992 43.5627C142.962 43.4258 142.881 43.304 142.774 43.1925C138.13 42.8476 133.355 43.2381 128.599 44.4907C124.599 45.5456 120.883 47.1278 117.502 49.1564C117.497 49.2324 117.487 49.3085 117.507 49.3795C117.877 51.0327 123.89 51.0784 130.931 49.4708Z" fill="#254898"/>
<path d="M135.54 43.2635C135.753 43.2432 135.961 43.228 136.173 43.2128C135.961 43.228 135.753 43.2432 135.54 43.2635Z" fill="#254898"/>
<path d="M117.502 49.3741C117.882 51.0325 123.894 51.0781 130.931 49.4705C137.968 47.8629 143.372 45.2207 142.992 43.5624C142.961 43.4255 142.88 43.3038 142.774 43.1922C142.774 43.1922 142.774 43.1922 142.769 43.1922C140.594 43.0299 138.389 43.0401 136.173 43.2125C135.96 43.2277 135.752 43.2429 135.539 43.2632C135.164 43.2987 134.789 43.3443 134.414 43.39C134.1 43.4306 133.785 43.4711 133.476 43.5117C133.157 43.5573 132.842 43.603 132.523 43.6588C132.123 43.7247 131.722 43.8008 131.316 43.8819C131.068 43.9326 130.82 43.9732 130.571 44.029C129.917 44.171 129.263 44.3231 128.604 44.4955C128.599 44.4955 128.594 44.4955 128.594 44.5006C127.702 44.7339 126.835 45.0027 125.973 45.2917C125.76 45.3627 125.547 45.4337 125.334 45.5098C124.483 45.809 123.636 46.1234 122.815 46.4683C121.988 46.8182 121.187 47.1985 120.391 47.5941C120.199 47.6905 120.001 47.7919 119.808 47.8882C119.023 48.294 118.247 48.7149 117.497 49.1662C117.491 49.2271 117.481 49.3031 117.502 49.3741Z" fill="black"/>
</svg>
