<svg width="181" height="151" viewBox="0 0 181 151" fill="none" xmlns="http://www.w3.org/2000/svg">
<path d="M147.34 80.2131C163.14 80.2131 175.949 67.4006 175.949 51.5956C175.949 35.7906 163.14 22.9781 147.34 22.9781C131.541 22.9781 118.732 35.7906 118.732 51.5956C118.732 67.4006 131.541 80.2131 147.34 80.2131Z" fill="#FFD0D1"/>
<path d="M89.2472 28.2878C93.251 28.2878 96.4968 25.041 96.4968 21.0358C96.4968 17.0306 93.251 13.7838 89.2472 13.7838C85.2433 13.7838 81.9976 17.0306 81.9976 21.0358C81.9976 25.041 85.2433 28.2878 89.2472 28.2878Z" fill="#FFD0D1"/>
<path d="M122.94 57.235C138.74 57.235 151.548 44.4225 151.548 28.6175C151.548 12.8125 138.74 0 122.94 0C107.14 0 94.332 12.8125 94.332 28.6175C94.332 44.4225 107.14 57.235 122.94 57.235Z" fill="#FFD0D1"/>
<path d="M154.093 23.7439C154.484 25.6254 154.686 27.5728 154.686 29.5709C154.686 30.8539 154.595 32.1167 154.428 33.3541C153.946 29.7078 152.78 26.2796 151.062 23.2013C152.091 23.3331 153.105 23.5106 154.093 23.7439Z" fill="#E9B7B8"/>
<path d="M106.641 42.168C115.665 42.168 122.981 34.8502 122.981 25.8232C122.981 16.7961 115.665 9.47827 106.641 9.47827C97.6172 9.47827 90.3018 16.7961 90.3018 25.8232C90.3018 34.8502 97.6172 42.168 106.641 42.168Z" fill="#E9B7B8"/>
<path d="M103.538 44.1045C112.562 44.1045 119.877 36.7867 119.877 27.7597C119.877 18.7326 112.562 11.4148 103.538 11.4148C94.5137 11.4148 87.1982 18.7326 87.1982 27.7597C87.1982 36.7867 94.5137 44.1045 103.538 44.1045Z" fill="white"/>
<path d="M103.518 44.3537C100.106 44.3537 96.6692 43.3091 93.7187 41.1385C86.3423 35.7224 84.7505 25.3109 90.1649 17.9372C95.5792 10.5584 105.987 8.96605 113.359 14.3822C120.735 19.7984 122.327 30.2098 116.912 37.5835C113.668 42.0108 108.623 44.3537 103.518 44.3537ZM103.564 11.6741C98.6109 11.6741 93.7288 13.9461 90.5806 18.2364C85.3284 25.387 86.8746 35.4789 94.0229 40.7328C101.171 45.9867 111.26 44.44 116.512 37.2894C121.764 30.1388 120.218 20.0469 113.07 14.793C110.2 12.6884 106.864 11.6741 103.564 11.6741Z" fill="#0C152E"/>
<path d="M96.4967 21.8574C93.8504 21.8574 91.4474 20.833 89.6426 19.1747C89.8707 18.8045 90.109 18.4393 90.3726 18.0843C94.2306 12.8304 100.639 10.5534 106.641 11.7097C106.641 11.7097 106.641 11.7097 106.641 11.7147C106.641 17.3186 102.099 21.8574 96.4967 21.8574Z" fill="#C5CFE4"/>
<path d="M93.3993 20.2954C99.0018 20.2954 103.544 15.7522 103.544 10.1477C103.544 4.54329 99.0018 0 93.3993 0C87.7967 0 83.2549 4.54329 83.2549 10.1477C83.2549 15.7522 87.7967 20.2954 93.3993 20.2954Z" fill="#FFD0D1"/>
<path d="M163.244 74.8528L167.234 98.4445L127.609 101.645L113.947 71.5564L163.244 74.8528Z" fill="black"/>
<path d="M90.3171 115.586C89.2069 115.586 88.0916 115.464 87.0016 115.226L21.1164 100.722C17.0911 99.8341 13.6539 97.4354 11.4384 93.9666C9.21794 90.4927 8.48791 86.3647 9.37003 82.3431C10.2572 78.3165 12.6552 74.8781 16.1279 72.6569C19.6006 70.4356 23.7273 69.7003 27.7475 70.5878L84.0257 82.977L109.597 49.4556C112.096 46.1795 115.721 44.0749 119.802 43.5221C123.883 42.9744 127.939 44.0495 131.214 46.5497C134.489 49.0499 136.593 52.6759 137.146 56.7583C137.698 60.8407 136.618 64.8977 134.119 68.1738L102.581 109.52C99.6757 113.314 95.0928 115.586 90.3171 115.586ZM24.3965 70.7247C21.5828 70.7247 18.8249 71.526 16.3966 73.0778C13.0405 75.223 10.7186 78.5498 9.86178 82.4445C9.00501 86.3342 9.71476 90.3304 11.8592 93.6877C14.0037 97.0449 17.3294 99.3676 21.2229 100.225L87.1081 114.729C88.1626 114.962 89.2424 115.079 90.3171 115.079C94.9356 115.079 99.3715 112.883 102.175 109.206L133.713 67.8594C136.132 64.6898 137.171 60.7697 136.639 56.8191C136.106 52.8686 134.073 49.3643 130.905 46.9453C127.736 44.5262 123.817 43.4866 119.868 44.0191C115.919 44.5516 112.416 46.5852 109.998 49.7548L84.2285 83.5349L84.0713 83.4994L27.636 71.0746C26.5561 70.8413 25.4712 70.7247 24.3965 70.7247Z" fill="#9999A0"/>
<path d="M92.2611 125.5H92.7691L91.7663 151H91.2581L92.2611 125.5Z" fill="#9999A0"/>
<path d="M120.314 137.874L119.833 138.026C119.893 138.216 121.518 143.358 123.971 151H124.501C122.021 143.274 120.375 138.065 120.314 137.874Z" fill="#9999A0"/>
<path d="M55.3189 57.9846L2.04639 62.5297L2.28672 65.3466L55.5592 60.8016L55.3189 57.9846Z" fill="#DFE6F2"/>
<path d="M55.8737 61.0669L2.02159 65.6614L1.73181 62.2648L55.5839 57.6704L55.8737 61.0669ZM2.55176 65.0323L55.2446 60.5367L55.0537 58.2994L2.36088 62.795L2.55176 65.0323Z" fill="#0C152E"/>
<path d="M55.4039 58.9813L16.6334 62.2891L16.6829 62.8687L55.4534 59.5609L55.4039 58.9813Z" fill="#0C152E"/>
<path d="M18.0001 64.0062L14.9325 59.5973L0.314575 60.8444L3.37755 96.7458L58.2266 92.0663L55.5592 60.8018L18.0001 64.0062Z" fill="#FF4557"/>
<rect width="20" height="20" transform="translate(19 68)" fill="#FF4557"/>
<path fill-rule="evenodd" clip-rule="evenodd" d="M36.5 78C36.5 82.1421 33.1421 85.5 29 85.5C27.327 85.5 25.782 84.9522 24.5344 84.0262L35.0262 73.5344C35.9522 74.782 36.5 76.327 36.5 78ZM23.4237 83.0156L34.0156 72.4237C32.6869 71.2278 30.9284 70.5 29 70.5C24.8579 70.5 21.5 73.8579 21.5 78C21.5 79.9284 22.2278 81.6869 23.4237 83.0156ZM38 78C38 82.9706 33.9706 87 29 87C24.0294 87 20 82.9706 20 78C20 73.0294 24.0294 69 29 69C33.9706 69 38 73.0294 38 78Z" fill="white"/>
<path d="M58.5411 92.3311L3.11243 97.0601L0 60.5791L15.0758 59.2929L18.1434 63.7018L55.8242 60.4871L58.5411 92.3311V92.3311ZM3.64259 96.431L57.912 91.801L55.2941 61.1161L17.8567 64.3101L14.7891 59.9012L0.629066 61.1093L3.64259 96.431Z" fill="#FF4557"/>
<path d="M108.973 105.139H89.2168V78.6765L116.948 77.4543L108.973 105.139Z" fill="black"/>
<path d="M166.833 96.8471L181 151H167.227L153.718 98.2113L166.833 96.8471Z" fill="black"/>
<path d="M131.735 110.255C123.761 121.564 119.599 124.678 114.833 126.235C113.581 126.645 111.883 127.203 107.974 127.203C102.408 127.203 92.3646 126.077 72.7552 121.797C64.4561 119.987 56.6083 118.019 50.6616 116.259C40.9735 113.394 35.4121 111.046 31.909 106.162C27.0218 99.3566 28.5782 89.8732 35.3868 84.9895C40.938 81.0035 48.2687 81.3027 53.4296 85.2431C61.1051 88.509 91.7714 95.2894 104.111 96.6435C109.485 89.7262 119.949 73.0364 128.014 58.9534C132.182 51.6811 141.449 49.1657 148.719 53.3293C155.989 57.4928 158.503 66.7683 154.341 74.0355C154.082 74.4868 147.908 85.2583 140.835 96.4761C137.297 102.08 134.316 106.598 131.735 110.255Z" fill="#111112"/>
<path d="M149 83L104 97L109.009 89.7625L151.5 78.5L149 83Z" fill="black"/>
<path d="M107.97 127.458C100.923 127.458 89.3844 125.688 72.6951 122.046C64.391 120.231 56.5331 118.263 50.5813 116.503C40.8374 113.623 35.2405 111.255 31.6968 106.31C26.7387 99.3979 28.3255 89.7421 35.2304 84.7824C40.7715 80.8064 48.1276 80.9028 53.5521 85.0207C61.0045 88.1751 91.0219 94.925 103.99 96.3754C109.034 89.8486 119.235 73.7573 127.787 58.8273C132.015 51.4486 141.46 48.8825 148.836 53.112C156.213 57.3414 158.778 66.7842 154.55 74.1681C153.891 75.3142 147.924 85.6952 141.039 96.6188C137.5 102.228 134.525 106.741 131.939 110.408C123.843 121.884 119.706 124.912 114.91 126.484C113.648 126.895 111.924 127.458 107.97 127.458ZM44.2341 82.3735C41.1923 82.3735 38.1505 83.3117 35.5244 85.1982C28.8426 89.9957 27.3116 99.3371 32.1075 106.021C35.5701 110.844 41.0909 113.172 50.7283 116.022C56.6699 117.781 64.5127 119.744 72.8066 121.555C89.2272 125.14 101.06 126.955 107.97 126.955C111.843 126.955 113.526 126.403 114.753 126.002C119.447 124.465 123.513 121.478 131.528 110.114C134.109 106.452 137.085 101.949 140.613 96.345C147.493 85.4315 153.455 75.0606 154.114 73.9145C158.2 66.7741 155.721 57.6406 148.588 53.5532C141.45 49.4606 132.319 51.9455 128.233 59.0809C119.62 74.1123 109.339 90.3304 104.309 96.8014L104.223 96.913L104.081 96.8978C92.1372 95.5894 61.3391 88.8851 53.329 85.4771L53.2733 85.4467C50.5864 83.3979 47.4128 82.3735 44.2341 82.3735Z" fill="#9999A0"/>
<path d="M111.594 44.4907C90.2866 50.0996 76.9179 70.887 79.8482 92.1815L91.0217 94.494L164.253 75.2179C158.195 52.189 134.621 38.4305 111.594 44.4907Z" fill="#4070F4"/>
<path d="M113.931 49.4708C120.968 47.8632 126.372 45.221 125.992 43.5627C125.962 43.4257 125.881 43.304 125.774 43.1925C121.13 42.8476 116.355 43.2381 111.599 44.4907C107.599 45.5456 103.883 47.1278 100.502 49.1563C100.497 49.2324 100.487 49.3085 100.507 49.3795C100.877 51.0327 106.89 51.0784 113.931 49.4708Z" fill="#254898"/>
<path d="M118.54 43.2635C118.753 43.2432 118.961 43.228 119.173 43.2128C118.961 43.228 118.753 43.2432 118.54 43.2635Z" fill="#254898"/>
<path d="M100.502 49.3741C100.882 51.0324 106.894 51.0781 113.931 49.4705C120.968 47.8629 126.372 45.2207 125.992 43.5624C125.961 43.4255 125.88 43.3037 125.774 43.1922C125.774 43.1922 125.774 43.1922 125.769 43.1922C123.594 43.0299 121.389 43.04 119.173 43.2125C118.96 43.2277 118.752 43.2429 118.539 43.2632C118.164 43.2987 117.789 43.3443 117.414 43.39C117.1 43.4305 116.785 43.4711 116.476 43.5117C116.157 43.5573 115.842 43.6029 115.523 43.6587C115.123 43.7247 114.722 43.8007 114.316 43.8819C114.068 43.9326 113.82 43.9732 113.571 44.0289C112.917 44.1709 112.263 44.3231 111.604 44.4955C111.599 44.4955 111.594 44.4955 111.594 44.5006C110.702 44.7339 109.835 45.0026 108.973 45.2917C108.76 45.3627 108.547 45.4337 108.334 45.5098C107.483 45.809 106.636 46.1234 105.815 46.4682C104.988 46.8182 104.187 47.1985 103.391 47.5941C103.199 47.6904 103.001 47.7919 102.808 47.8882C102.023 48.2939 101.247 48.7148 100.497 49.1662C100.491 49.227 100.481 49.3031 100.502 49.3741Z" fill="black"/>
</svg>
