<svg width="18" height="12" viewBox="0 0 18 12" fill="none" xmlns="http://www.w3.org/2000/svg">
<path fill-rule="evenodd" clip-rule="evenodd" d="M17.6732 5.10784C18.1089 5.62782 18.1089 6.37218 17.6732 6.89216C16.2726 8.56372 12.9169 12 9 12C5.08308 12 1.72741 8.56372 0.326776 6.89216C-0.108926 6.37218 -0.108925 5.62782 0.326777 5.10784C1.72741 3.43628 5.08308 0 9 0C12.9169 0 16.2726 3.43628 17.6732 5.10784ZM10.2 6C10.2 6.66274 9.66274 7.2 9 7.2C8.33726 7.2 7.8 6.66274 7.8 6C7.8 5.33726 8.33726 4.8 9 4.8C9.66274 4.8 10.2 5.33726 10.2 6ZM11.5 6C11.5 7.38071 10.3807 8.5 9 8.5C7.61929 8.5 6.5 7.38071 6.5 6C6.5 4.61929 7.61929 3.5 9 3.5C10.3807 3.5 11.5 4.61929 11.5 6Z" fill="#4070F4"/>
</svg>
