<svg xmlns="http://www.w3.org/2000/svg" width="18" height="19">
  <g fill="none" fill-rule="evenodd">
    <path stroke="#4070f4" stroke-linecap="round" stroke-linejoin="round" d="M17 8.554C16.837 4.23 13.26.855 9 1.009 4.742.855 1.164 4.23 1 8.554c.164 4.324 3.742 7.699 8 7.545.549 0 1.096-.054 1.635-.16l4.08 2.481v-4.643A7.68 7.68 0 0 0 17 8.554zM9 4.491v4.643"/>
    <path fill="#4070f4" fill-rule="nonzero" d="M9 10.875c-.63 0-1.142.52-1.142 1.161s.511 1.16 1.142 1.16c.632 0 1.143-.519 1.143-1.16 0-.64-.511-1.16-1.143-1.16z"/>
  </g>
</svg>
