<svg width="74" height="96" viewBox="0 0 74 96" fill="none" xmlns="http://www.w3.org/2000/svg">
<path d="M58.3096 84.1601L38.9786 95.55L19.7514 83.999C10.3323 78.3391 4.62386 68.3659 4.67218 57.6505L4.92825 1.02062L5.08286 1.08597C16.0698 5.69563 28.5932 5.44589 39.3724 0.397442L39.4086 0.381104C50.1395 5.52991 62.6604 5.89635 73.6933 1.38706L73.8817 1.31004L73.628 57.9376C73.5773 68.6553 67.7794 78.5795 58.3096 84.1601Z" fill="white"/>
<path d="M38.9809 95.6668C38.9591 95.6668 38.9374 95.6621 38.9181 95.6481L19.6885 84.0971C15.0502 81.3103 11.1995 77.3962 8.55663 72.7772C5.91377 68.1582 4.52954 62.9277 4.55128 57.6482L4.80735 1.02072C4.80735 0.981038 4.82909 0.946028 4.86291 0.922688C4.89673 0.901682 4.94022 0.897014 4.97645 0.913352L5.13106 0.978704C16.0987 5.58135 28.5592 5.33161 39.3191 0.292508L39.3553 0.27617C39.3892 0.259832 39.4278 0.259832 39.4616 0.27617C50.1732 5.41564 62.6313 5.77974 73.6448 1.27979L73.8333 1.20277C73.8695 1.18876 73.913 1.1911 73.9468 1.2121C73.9806 1.23311 74 1.27045 74 1.31013L73.7463 57.9376C73.7221 63.2148 72.292 68.436 69.6057 73.0316C66.9217 77.6273 63.0372 81.5111 58.3723 84.2582L39.0413 95.6481C39.0244 95.6621 39.0026 95.6668 38.9809 95.6668ZM5.04651 1.1981L4.79286 57.6482C4.7687 62.8857 6.14327 68.0789 8.7668 72.6629C11.3903 77.2468 15.2097 81.1329 19.8141 83.8987L38.9785 95.4124L58.2443 84.0598L58.3071 84.1601L58.2443 84.0598C62.8729 81.3313 66.7285 77.4802 69.3931 72.9173C72.0577 68.3543 73.4781 63.1751 73.5023 57.9376L73.756 1.48752L73.7366 1.49452C62.6772 6.01548 50.1659 5.65604 39.4037 0.511904C28.5906 5.56968 16.0697 5.81942 5.04651 1.1981Z" fill="#0C152E"/>
<path d="M4.67201 57.6504L4.92808 1.02051L5.08269 1.08586C16.0696 5.69552 28.5906 5.44578 39.3722 0.397334L39.4084 0.380996L34.8185 0.378662C24.0369 5.42477 15.915 5.32675 4.92808 0.714758L0.63042 0.679748L0.123107 57.6294C0.0747915 68.3448 5.78327 78.3203 15.2024 83.9779L34.4295 95.5289L38.9808 95.5476L19.7537 83.9966C10.3322 78.339 4.62611 68.3658 4.67201 57.6504Z" fill="#0C152E"/>
<path d="M38.9798 95.6666C38.9774 95.6666 38.9774 95.6666 38.9798 95.6666L34.4285 95.6479C34.4067 95.6479 34.385 95.6409 34.3657 95.6292L15.1385 84.0783C10.5002 81.2915 6.64948 77.3773 4.00662 72.7584C1.36134 68.1394 -0.0253123 62.9089 -0.0011545 57.6294L0.508574 0.679749C0.508574 0.649407 0.523069 0.619065 0.544811 0.598059C0.568968 0.577053 0.607621 0.567717 0.629363 0.565383L4.92944 0.600393C4.94635 0.600393 4.96085 0.602727 4.97534 0.609729C16.1507 5.29874 24.2242 5.20771 34.7643 0.273633C34.7812 0.266631 34.7981 0.261963 34.8174 0.261963L39.4074 0.264297C39.463 0.264297 39.5137 0.301641 39.5258 0.355323C39.5378 0.409005 39.5113 0.462687 39.4605 0.486027L39.4243 0.502365C28.6016 5.56715 16.0734 5.82155 5.0454 1.1979L4.79174 57.648C4.76759 62.8855 6.14216 68.0787 8.7657 72.6627C11.3892 77.2466 15.2086 81.1328 19.813 83.8985L39.0402 95.4495C39.0861 95.4775 39.1078 95.5312 39.0933 95.5802C39.0788 95.6339 39.0329 95.6666 38.9798 95.6666ZM34.4623 95.4145L38.5546 95.4308L19.6874 84.0969C15.0491 81.3101 11.1984 77.396 8.55552 72.777C5.91266 68.158 4.52842 62.9275 4.55017 57.648H4.67096H4.55017L4.80624 1.02051C4.80624 0.980835 4.82798 0.945825 4.8618 0.922485C4.89562 0.901479 4.93911 0.896811 4.97534 0.913149L5.12995 0.978501C6.46346 1.53866 7.82113 2.02647 9.19087 2.44192C7.80663 1.98912 6.38132 1.4523 4.90287 0.831459L0.747736 0.796449L0.240423 57.6317C0.216265 62.8692 1.59084 68.0623 4.21437 72.6463C6.83791 77.2303 10.6572 81.1164 15.2617 83.8822L34.4623 95.4145ZM21.1103 4.25777C27.1884 4.30212 33.252 3.05109 38.8735 0.497697L34.844 0.495363C29.9182 2.79902 25.5263 4.05005 21.1103 4.25777Z" fill="#0C152E"/>
<path d="M73.8791 1.30979L69.1394 1.36814C58.4761 5.72572 49.8905 5.04653 39.406 0.380859C50.1369 5.52733 62.8463 5.81908 73.8791 1.30979Z" fill="#0C152E"/>
<path d="M57.6258 4.59855C57.2586 4.59855 56.8914 4.59388 56.5267 4.58454C50.5597 4.4305 44.6193 3.01376 39.3529 0.486038C39.2926 0.45803 39.2684 0.38801 39.2974 0.331994C39.3264 0.273644 39.3964 0.250304 39.4568 0.275978C50.3544 5.12603 58.94 5.41078 69.0911 1.26093C69.1056 1.25392 69.1201 1.25159 69.137 1.25159L73.8767 1.19324C73.9323 1.19791 73.9854 1.23058 73.9975 1.2866C74.0096 1.34028 73.9806 1.3963 73.9275 1.4173C68.8181 3.5039 63.2063 4.59855 57.6258 4.59855ZM57.0171 4.36048C62.554 4.44217 68.1441 3.43155 73.2535 1.43598L69.1636 1.48499C64.9384 3.20982 60.9789 4.17143 57.0171 4.36048Z" fill="#0C152E"/>
<path d="M55.6305 75.1203L41.1335 83.6628L26.7137 74.999C19.65 70.7558 15.3693 63.2753 15.4055 55.237L15.5963 12.7652L15.7123 12.8142C23.9525 16.2709 33.345 16.0842 41.4282 12.2984L41.4572 12.2844C49.5041 16.1449 58.8942 16.4203 67.1707 13.0383L67.3108 12.98L67.12 55.4517C67.0813 63.49 62.7329 70.9355 55.6305 75.1203Z" fill="#DFE6F2"/>
<path d="M67.1658 13.0405C66.5256 13.3019 65.8781 13.54 65.2259 13.7571L65.0399 55.454C65.0036 63.4923 60.6552 70.9354 53.5529 75.1203L40.1042 83.0442L41.1334 83.6627L55.6304 75.1203C62.7328 70.9354 67.0812 63.49 67.1174 55.454L67.3083 12.9822L67.1658 13.0405Z" fill="#C3CFE6"/>
<path d="M42.4936 54.8962L34.1326 46.7506L41.7713 39.4335L42.566 38.6726L50.9246 46.8206L42.4936 54.8962Z" fill="#4070F4"/>
<path d="M41.131 83.8005L26.646 75.0993C19.5992 70.8654 15.2435 63.2542 15.2798 55.237L15.4706 12.5878L15.7533 12.7068C23.9717 16.1541 33.3063 15.9674 41.3677 12.1933L41.4498 12.156L41.503 12.1817C49.5282 16.0328 58.8627 16.3059 67.115 12.9332L67.4242 12.8072L67.2334 55.4564C67.1971 63.4736 62.7739 71.0475 55.6884 75.223L55.6256 75.1226L55.6884 75.223L41.131 83.8005ZM15.7122 12.9426L15.5238 55.237C15.4875 63.1749 19.7997 70.709 26.7764 74.8986L41.1334 83.525L55.5676 75.0199C62.5806 70.8864 66.9604 63.3896 66.9966 55.4517L67.1851 13.1573C58.8941 16.5369 49.5185 16.2662 41.4523 12.4127C33.3497 16.2008 23.9741 16.3922 15.7122 12.9426Z" fill="#0C152E"/>
</svg>
