<svg width="20" height="20" viewBox="0 0 20 20" fill="none" xmlns="http://www.w3.org/2000/svg">
<path d="M2.65 2.69563C2.65 2.52111 2.77858 2.37325 2.95141 2.34902L2.86118 1.70531L2.95141 2.34902L6.8973 1.79588C8.9557 1.50734 11.0443 1.50734 13.1027 1.79588L17.0486 2.34902C17.2214 2.37325 17.35 2.52111 17.35 2.69563V11.6172C17.35 13.509 16.3509 15.2602 14.7223 16.2228L10.6869 18.6081C10.2632 18.8585 9.73678 18.8585 9.31306 18.6081L5.2777 16.2228C3.64911 15.2602 2.65 13.509 2.65 11.6172V2.69563Z" stroke="#4070F4" stroke-width="1.3"/>
<path d="M11.3944 9.6933L11.1204 9.88567L11.1179 10.2204L11.1024 12.3007H11.1024L11.1024 12.3045C11.1015 12.858 10.6255 13.35 9.99087 13.35C9.35562 13.35 8.87954 12.8571 8.87954 12.3031V12.301L8.89486 10.2393L8.89741 9.89603L8.6154 9.70038C8.00729 9.27846 7.65 8.60848 7.65 7.89005C7.65 6.67815 8.6816 5.65 10 5.65C11.3182 5.65 12.35 6.67818 12.35 7.89005C12.35 8.60302 11.9963 9.2707 11.3944 9.6933Z" stroke="#4070F4" stroke-width="1.3"/>
</svg>
