<svg xmlns="http://www.w3.org/2000/svg" width="24" height="24" viewBox="0 0 24 24">
    <path fill="#1E194D" fill-rule="nonzero" d="M11.16 16.3l1.128 1.127c.247.259.592.401.95.393h1.334v1.129c0 .845.686 1.531 1.531 1.531h1.129v1.333c0 .35.139.688.385.939l.886.886c.234.232.552.363.883.362h3.517A1.1 1.1 0 0 0 24 22.902v-3.517a1.248 1.248 0 0 0-.368-.888l-7.335-7.336a8.385 8.385 0 1 0-5.137 5.138zM3.542 3.536A6.852 6.852 0 0 1 14.7 11.054a.766.766 0 0 0 .163.84l7.603 7.606v2.969h-2.968l-.748-.748v-1.805a.985.985 0 0 0-.985-.985h-1.662v-1.657a.985.985 0 0 0-.985-.985h-1.802l-1.424-1.424a.766.766 0 0 0-.84-.164A6.852 6.852 0 0 1 3.54 3.541l.003-.004zm3.205 6.021a2.808 2.808 0 1 0 0-5.615 2.808 2.808 0 0 0 0 5.615zm0-4.063a1.276 1.276 0 1 1-.903.372c.24-.24.564-.375.903-.375v.003z"/>
</svg>
