<?xml version="1.0" encoding="UTF-8"?>
<svg width="26px" height="22px" viewBox="0 0 26 22" version="1.1" xmlns="http://www.w3.org/2000/svg" xmlns:xlink="http://www.w3.org/1999/xlink">
    <!-- Generator: sketchtool 55.2 (78181) - https://sketchapp.com -->
    <title>32BABD8B-A9BD-4C20-AB2B-1595284F1E76</title>
    <desc>Created with sketchtool.</desc>
    <g id="lisk-desktop---Internal-Iterations" stroke="none" stroke-width="1" fill="none" fill-rule="evenodd">
        <g id="Help-Center---Main-page" transform="translate(-995.000000, -492.000000)" fill="#0C152E">
            <g id="Group-15" transform="translate(994.000000, 492.593063)">
                <g id="icons/liskchat/greyblue" transform="translate(0.000000, 0.000000)">
                    <path d="M26.5263157,10.4833326 L26.5260177,10.5003054 C26.5260177,10.5059951 26.5263157,10.5112991 26.5263157,10.5170852 C26.5263157,11.7559995 26.1443975,12.9446706 25.3909905,14.0493458 C24.7144639,15.0414802 23.7667703,15.918952 22.5744306,16.6587131 C20.2718959,18.0866421 17.2459514,18.8726926 14.0538303,18.8726926 C12.9876378,18.8726926 11.9368412,18.7853215 10.9173331,18.6121223 C10.2847097,19.186592 9.54451344,19.7039715 8.76120862,20.1126676 C4.57600081,22.0817959 1.10526315,20.1589569 1.10526315,20.1589569 C1.10526315,20.1589569 4.33214926,17.5851745 3.80739661,15.329149 C2.36355703,13.9389265 1.58124549,12.2622889 1.58124549,10.5167959 C1.58124549,10.5109133 1.58154348,10.5055129 1.58154348,10.5000161 C1.58154348,10.4944228 1.58124549,10.488733 1.58124549,10.4833326 C1.58124549,8.73783965 2.36385502,7.06120205 3.80739661,5.67069027 C4.33214926,3.4148576 1.10526315,0.841171614 1.10526315,0.841171614 C1.10526315,0.841171614 4.57600081,-1.0819566 8.76120862,0.88746093 C9.54461277,1.29615702 10.2850077,1.81324725 10.9173331,2.38800626 C11.9366425,2.2146142 12.9876378,2.12714668 14.0538303,2.12714668 C17.2457527,2.12714668 20.2719952,2.91377575 22.5744306,4.34160828 C23.7667703,5.08146585 24.7144639,5.95922701 25.3908912,6.95087918 C26.1443975,8.05574729 26.5263157,9.24383974 26.5263157,10.4833326 Z M13.8157395,4.00000003 C7.93418129,4.00000003 3.16613302,6.97255457 3.16642953,10.6399369 C3.16642953,12.2377899 4.07178643,13.7039517 5.58025335,14.8494237 C5.83980217,17.2381956 4.62705882,18.6883423 3.80848176,19.5465057 C6.32509719,20.1678179 8.91564352,18.2452231 10.0932994,16.862514 C11.2518794,17.1319744 12.5061348,17.2797772 13.8157395,17.2797772 C19.6971,17.2797772 24.4651483,14.3067403 24.4651483,10.6399369 C24.4651483,6.97284401 19.6971,4.00000003 13.8157395,4.00000003 Z M13.8157401,12.6000001 C13.0317152,12.6000001 12.3961641,11.8948896 12.3961641,11.0249451 C12.3961641,10.1551107 13.0317152,9.45000021 13.8157401,9.45000021 C14.5998641,9.45000021 15.2354152,10.1551107 15.2354152,11.0249451 C15.2354152,11.8948896 14.5998641,12.6000001 13.8157401,12.6000001 Z M18.7513769,12.6000001 C17.967352,12.6000001 17.3318009,11.8948896 17.3318009,11.0249451 C17.3318009,10.1551107 17.967352,9.45000021 18.7513769,9.45000021 C19.5354018,9.45000021 20.171052,10.1551107 20.171052,11.0249451 C20.171052,11.8948896 19.5354018,12.6000001 18.7513769,12.6000001 Z M8.87990399,12.5996704 C8.09597824,12.5996704 7.46052629,11.8946699 7.46052629,11.0249455 C7.46052629,10.1553311 8.09597824,9.45022051 8.88000317,9.45022051 C9.66382974,9.45022051 10.2992817,10.1553311 10.2992817,11.0250555 C10.2992817,11.8946699 9.66382974,12.5996704 8.87990399,12.5996704 Z" id="Combined-Shape"></path>
                </g>
            </g>
        </g>
    </g>
</svg>
