<svg width="50" height="50" viewBox="0 0 50 50" fill="none" xmlns="http://www.w3.org/2000/svg">
<path d="M25 50C11.1929 50 0 38.8071 0 25C0 11.1929 11.1929 0 25 0C38.8071 0 50 11.1929 50 25C50 38.8071 38.8071 50 25 50Z" fill="#254898"/>
<path fill-rule="evenodd" clip-rule="evenodd" d="M17.8961 19.8501C17.6911 18.9675 18.2404 18.0858 19.123 17.8808C20.0056 17.6758 20.8873 18.2251 21.0923 19.1077C21.2973 19.9903 20.7479 20.872 19.8653 21.077C18.9827 21.282 18.1011 20.7327 17.8961 19.8501ZM19.3492 18.8549C19.0046 18.9349 18.7901 19.2792 18.8701 19.6238C18.9502 19.9685 19.2945 20.183 19.6391 20.1029C19.9837 20.0229 20.1982 19.6786 20.1182 19.334C20.0382 18.9893 19.6939 18.7748 19.3492 18.8549Z" fill="#DFE6F2"/>
<path fill-rule="evenodd" clip-rule="evenodd" d="M17.7575 15.7865C14.8422 16.8927 13.1212 20.0112 13.8461 23.1326C14.4556 25.7567 16.4584 27.7002 19.0226 28.0284L19.5563 30.3263C19.5956 30.4955 19.7023 30.6414 19.8517 30.7302L20.5779 31.1615L20.1202 31.8653C19.9229 32.1688 20.0175 32.5755 20.3286 32.7606L21.0489 33.1894L20.4388 34.1257L20.7334 35.3944C20.7656 35.5329 20.8432 35.6567 20.9538 35.7461L22.7553 37.2014C23.198 37.5591 23.859 37.4055 24.0987 36.8894L25.0399 34.8632C25.1222 34.6862 25.1429 34.4867 25.0987 34.2966L23.4146 27.0458C24.7037 26.3232 25.5919 25.214 26.036 23.9113C26.341 23.7338 26.6314 23.5257 26.9036 23.2875L28.8371 24.322C28.9904 24.404 29.1704 24.4199 29.3356 24.366L30.0539 24.1317L30.2575 24.854C30.3557 25.2024 30.7239 25.3992 31.0682 25.2873L31.7806 25.0556L32.0587 26.0458L33.1526 26.6311C33.278 26.6982 33.4223 26.7215 33.5624 26.6972L35.6899 26.3281C36.2506 26.2308 36.5707 25.6325 36.3405 25.112L35.5002 23.212C35.4213 23.0335 35.2849 22.8866 35.1128 22.7945L28.968 19.5066C29.4908 16.9771 28.2205 14.6031 25.8599 13.34C22.9461 11.781 19.3208 12.8764 17.7575 15.7865ZM19.5673 15.3873C22.6185 15.1695 25.4605 17.1953 26.1744 20.2693C26.3167 20.8817 26.3779 21.4893 26.361 22.0787C26.5727 21.8679 26.8995 21.8396 27.1421 21.9974L29.1964 23.0966L30.2727 22.7455C30.617 22.6332 30.9857 22.83 31.0839 23.1787L31.2877 23.9015L32.0007 23.6697C32.3451 23.5576 32.7136 23.7548 32.8115 24.1035L33.1181 25.1949L33.5565 25.4295L35.0031 25.1785L34.4092 23.8357L27.9996 20.4061C27.7087 20.2841 27.5508 19.9596 27.6434 19.6507C28.2644 17.5773 27.3307 15.5447 25.2702 14.4422C23.3327 13.4055 20.9977 13.852 19.5673 15.3873ZM15.0637 22.8498C14.4292 20.1179 16.1295 17.3889 18.8614 16.7544C21.5933 16.1199 24.3223 17.8202 24.9568 20.5521C25.5226 22.9879 24.545 25.1786 22.433 26.1433C22.1394 26.2774 21.9994 26.6104 22.0998 26.9097L23.8519 34.4537L23.1673 35.9273L21.9033 34.9062L21.7769 34.3618L22.4444 33.3373C22.6421 33.0338 22.5476 32.6268 22.2363 32.4415L21.5155 32.0125L21.9735 31.3081C22.171 31.0044 22.0761 30.5975 21.7646 30.4125L20.7148 29.7889L20.1504 27.359C20.1097 27.0672 19.8663 26.8364 19.5613 26.8218C17.3854 26.7175 15.5976 25.1485 15.0637 22.8498Z" fill="#DFE6F2"/>
</svg>
