<svg width="20" height="20" viewBox="0 0 20 20" fill="none" xmlns="http://www.w3.org/2000/svg">
<path fill-rule="evenodd" clip-rule="evenodd" d="M4.20627 2.6294C1.87405 3.51439 0.497225 6.00913 1.07721 8.5063C1.56478 10.6056 3.16702 12.1604 5.21839 12.4229L5.64535 14.2612C5.6768 14.3966 5.76217 14.5133 5.88168 14.5843L6.46259 14.9294L6.09645 15.4924C5.93859 15.7352 6.01431 16.0606 6.26316 16.2087L6.83939 16.5517L6.46764 17.1223L6.35132 17.3008L6.39952 17.5083L6.58705 18.3157C6.61279 18.4265 6.67484 18.5256 6.76334 18.5971L8.20454 19.7613C8.55871 20.0474 9.08745 19.9246 9.27927 19.5117L10.0322 17.8908C10.098 17.7491 10.1146 17.5896 10.0792 17.4375L8.73201 11.6369C9.76326 11.0588 10.4738 10.1714 10.8291 9.12927C11.0731 8.98726 11.3055 8.82075 11.5231 8.63016L13.07 9.45783C13.1926 9.52342 13.3366 9.53612 13.4688 9.49301L14.0434 9.30558L14.2063 9.88337C14.2848 10.1621 14.5794 10.3196 14.8548 10.23L15.4248 10.0447L15.5896 10.6317L15.6472 10.8368L15.8351 10.9373L16.5224 11.3051C16.6227 11.3588 16.7381 11.3774 16.8502 11.3579L18.5522 11.0626C19.0008 10.9848 19.2569 10.5062 19.0727 10.0898L18.4005 8.56983C18.3373 8.42703 18.2282 8.30944 18.0905 8.23577L13.1747 5.60547C13.5929 3.58189 12.5767 1.68268 10.6882 0.67223C8.35716 -0.575038 5.45695 0.301349 4.20627 2.6294ZM5.65413 2.31006C8.09507 2.13578 10.3687 3.75644 10.9398 6.21562C11.0536 6.70554 11.1026 7.19161 11.0891 7.66318C11.2585 7.49454 11.5199 7.47189 11.714 7.59811L13.3574 8.47748L14.2184 8.19663C14.4939 8.10678 14.7888 8.26422 14.8674 8.54313L15.0304 9.12138L15.6008 8.93592C15.8764 8.84632 16.1712 9.00403 16.2495 9.28302L16.4948 10.1562L16.8455 10.3438L18.0028 10.143L17.5277 9.06876L12.3999 6.32507C12.1672 6.22744 12.041 5.96791 12.115 5.72074C12.6118 4.06205 11.8649 2.43597 10.2164 1.55395C8.66646 0.724604 6.79847 1.0818 5.65413 2.31006ZM2.05129 8.28006C1.54368 6.09454 2.9039 3.91132 5.08943 3.40372C7.27495 2.89611 9.45816 4.25633 9.96577 6.44185C10.4184 8.3905 9.63632 10.1431 7.94667 10.9149C7.71179 11.0221 7.59983 11.2885 7.6801 11.528L9.08181 17.5631L8.53416 18.7421L7.52296 17.9252L7.4218 17.4896L7.95581 16.6701C8.114 16.4273 8.03836 16.1016 7.78936 15.9534L7.21272 15.6102L7.57912 15.0467C7.73708 14.8037 7.66114 14.4782 7.412 14.3302L6.57212 13.8313L6.12063 11.8874C6.08806 11.654 5.89333 11.4693 5.64935 11.4576C3.90859 11.3742 2.47839 10.119 2.05129 8.28006ZM5.47968 5.08409C5.20396 5.14812 5.03236 5.42355 5.0964 5.69926C5.16044 5.97498 5.43586 6.14658 5.71158 6.08254C5.98729 6.0185 6.15889 5.74308 6.09485 5.46736C6.03082 5.19165 5.75539 5.02005 5.47968 5.08409ZM4.31714 5.88025C4.15315 5.17416 4.5926 4.46882 5.29869 4.30483C6.00478 4.14083 6.71012 4.58029 6.87411 5.28637C7.03811 5.99246 6.59865 6.6978 5.89256 6.8618C5.18648 7.02579 4.48114 6.58634 4.31714 5.88025Z" fill="#8A8CA2"/>
</svg>
