<svg width="208" height="124" viewBox="0 0 208 124" fill="none" xmlns="http://www.w3.org/2000/svg">
<path fill-rule="evenodd" clip-rule="evenodd" d="M42.7705 90.4601H151.024V14.3202H42.7705V90.4601Z" fill="#F7F9FB"/>
<path fill-rule="evenodd" clip-rule="evenodd" d="M42.7705 20.6791H151.084V14.3202H42.7705V20.6791Z" fill="#C5CFE4"/>
<path fill-rule="evenodd" clip-rule="evenodd" d="M87.0986 122.781H110.782V100.052H87.0986V122.781Z" fill="#F7F9FB"/>
<path fill-rule="evenodd" clip-rule="evenodd" d="M87.3252 104.65H105.128V100.26H87.3252V104.65Z" fill="#DFE6F2"/>
<path fill-rule="evenodd" clip-rule="evenodd" d="M87.0977 122.781H110.781V100.051H87.0977V122.781Z" stroke="#254898"/>
<path fill-rule="evenodd" clip-rule="evenodd" d="M79.1494 122.78H115.352V116.119H79.1494V122.78Z" fill="#F7F9FB"/>
<path fill-rule="evenodd" clip-rule="evenodd" d="M79.1504 122.78H115.353V116.119H79.1504V122.78Z" stroke="#254898"/>
<path fill-rule="evenodd" clip-rule="evenodd" d="M105.34 100.052V116.119H100.382V122.78H105.34H112.119H117.048V116.119H112.119V100.052H105.34Z" fill="#DFE6F2"/>
<path fill-rule="evenodd" clip-rule="evenodd" d="M105.557 104.65H111.913V100.26H105.557V104.65Z" fill="#C5CFE4"/>
<path fill-rule="evenodd" clip-rule="evenodd" d="M112.118 116.119V100.052H105.339V116.119H100.381V122.781H105.339H112.118H117.047V116.119H112.118Z" stroke="#254898"/>
<path fill-rule="evenodd" clip-rule="evenodd" d="M27.543 100.052H165.991V1H27.543V100.052Z" stroke="#254898"/>
<path fill-rule="evenodd" clip-rule="evenodd" d="M165.99 100.052H171.865V1H165.99V100.052Z" fill="#254898"/>
<path fill-rule="evenodd" clip-rule="evenodd" d="M165.99 100.052H171.865V1H165.99V100.052Z" stroke="#254898"/>
<path fill-rule="evenodd" clip-rule="evenodd" d="M70.71 80.2304H81.5204V66.3806H70.71V80.2304Z" fill="#4070F4"/>
<path fill-rule="evenodd" clip-rule="evenodd" d="M87.4844 80.2292H98.7381V52.3901H87.4844V80.2292Z" fill="#4070F4"/>
<path fill-rule="evenodd" clip-rule="evenodd" d="M104.48 80.23H115.734V37.6815H104.48V80.23Z" fill="#4070F4"/>
<path fill-rule="evenodd" clip-rule="evenodd" d="M121.476 80.2303H132.729V40.4058H121.476V80.2303Z" fill="#4070F4"/>
<path d="M65.2598 54.2052C65.2598 54.2052 75.2629 54.0178 89.9508 38.7487C107.566 20.4369 114.92 24.7809 129.379 32.7581C142.115 39.7853 156.399 43.3866 175.979 43.8652C186.4 44.1194 196.413 39.6425 203.008 31.5682C204.365 29.9051 205.708 28.0204 207 25.8853" stroke="#2BD67B"/>
<path d="M65.2598 38.4977V80.2306H142.571" stroke="#254898"/>
<path fill-rule="evenodd" clip-rule="evenodd" d="M3.08866 25.2407C2.12534 24.8481 0.80306 24.4958 0.412109 24.4963C0.412109 24.4963 6.45888 24.4836 7.40289 24.4836C12.5658 24.4836 17.0079 27.5567 19.0095 31.9718H10.3811C8.96725 28.8525 6.33205 26.4097 3.08866 25.2407Z" fill="white"/>
<path fill-rule="evenodd" clip-rule="evenodd" d="M47.5543 17.6411C47.5543 18.23 47.0768 18.7081 46.4873 18.7081C45.8984 18.7081 45.4209 18.23 45.4209 17.6411C45.4209 17.0522 45.8984 16.5741 46.4873 16.5741C47.0768 16.5741 47.5543 17.0522 47.5543 17.6411Z" fill="#4070F4"/>
<path fill-rule="evenodd" clip-rule="evenodd" d="M163.023 106.024C163.023 106.024 174.201 82.6896 181.03 87.4345C187.859 92.1794 170.046 103.622 169.038 106.19L163.023 106.024Z" fill="#2BD67B"/>
<path fill-rule="evenodd" clip-rule="evenodd" d="M163.242 103.132L169.184 95.3083L170.962 92.9042L166.027 103.739L163.242 103.132Z" fill="#231F20"/>
<path fill-rule="evenodd" clip-rule="evenodd" d="M142.008 96.8162C141.828 96.9088 154.981 104.697 156.652 106.024H159.924C159.924 106.024 150.945 92.191 142.008 96.8162Z" fill="#231F20"/>
<path fill-rule="evenodd" clip-rule="evenodd" d="M163.018 106.013C163.018 106.013 153.497 90.2992 147.913 89.5476C144.945 89.1479 142.818 91.5002 141.477 93.7913C140.552 95.3722 141.696 97.3589 143.527 97.3754C144.697 97.3859 146.152 97.4874 147.913 97.7581C151.729 98.3443 156.053 103.739 159.277 106.013H163.018Z" fill="#2BD67B"/>
<path fill-rule="evenodd" clip-rule="evenodd" d="M163.018 106.013C163.018 106.013 161.987 104.313 160.405 102.003C160.726 104.185 160.898 105.687 160.931 106.013H163.018Z" fill="#2BD67B"/>
<path fill-rule="evenodd" clip-rule="evenodd" d="M160.931 106.013C160.898 105.687 160.726 104.185 160.406 102.003C157.225 97.3596 151.817 90.2585 148.074 89.5753C150.551 94.9538 154.212 100.475 156.415 103.607C157.429 104.534 158.394 105.391 159.277 106.013H160.931Z" fill="#231F20"/>
<path fill-rule="evenodd" clip-rule="evenodd" d="M159.423 106.197C159.423 106.197 139.973 80.7192 148.968 75.6528C157.963 70.5865 161.921 104.596 162.062 106.035" fill="#2BD67B"/>
<path fill-rule="evenodd" clip-rule="evenodd" d="M158.997 89.0223L157.87 103.041L160.686 103.479L159.479 90.9826L158.997 89.0223Z" fill="#231F20"/>
<path fill-rule="evenodd" clip-rule="evenodd" d="M160.068 105.904C160.068 105.904 155.243 61.0462 172.651 64.7004C190.059 68.354 163.902 101.503 163.501 105.904H160.068Z" fill="#2BD67B"/>
<path fill-rule="evenodd" clip-rule="evenodd" d="M159.95 102.176H147.15V122.566H178.57V102.176H159.95Z" fill="#FFD0D1"/>
<path fill-rule="evenodd" clip-rule="evenodd" d="M163.948 122.713H178.424V102.177H169.721C175.478 109.673 160.08 113.952 163.948 122.713Z" fill="#E9B7B8"/>
</svg>
