<svg width="20" height="20" viewBox="0 0 20 20" fill="none" xmlns="http://www.w3.org/2000/svg">
<path fill-rule="evenodd" clip-rule="evenodd" d="M6.40588 3.94656V2.65002C6.40588 1.73875 7.14461 1.00002 8.05588 1.00002H11.944C12.8553 1.00002 13.594 1.73875 13.594 2.65002V3.94656H17.8517C18.2107 3.94656 18.5017 4.23757 18.5017 4.59656C18.5017 4.95554 18.2107 5.24656 17.8517 5.24656H16.5381V17.3508C16.5381 18.262 15.7994 19.0008 14.8881 19.0008H5.11179C4.20052 19.0008 3.46179 18.262 3.46179 17.3508V5.24656H2.15C1.79101 5.24656 1.5 4.95554 1.5 4.59656C1.5 4.23757 1.79101 3.94656 2.15 3.94656H6.40588ZM7.70588 2.65002C7.70588 2.45672 7.86258 2.30002 8.05588 2.30002H11.944C12.1373 2.30002 12.294 2.45672 12.294 2.65002V3.94656H7.70588V2.65002Z" fill="#4070F4"/>
</svg>
