<svg width="20" height="20" viewBox="0 0 20 20" fill="none" xmlns="http://www.w3.org/2000/svg">
<path d="M10 8.0141C8.90329 8.0141 8.01422 8.90317 8.01422 9.9999C8.01422 11.0966 8.90329 11.9857 10 11.9857C11.0967 11.9857 11.9858 11.0966 11.9858 9.9999C11.9858 8.90317 11.0967 8.0141 10 8.0141Z" fill="#4070F4"/>
<path fill-rule="evenodd" clip-rule="evenodd" d="M7.42801 2.15385V3.21044C6.59332 3.49982 5.8199 3.92841 5.14203 4.47425L4.13892 3.92169C3.58167 3.61473 2.87639 3.79995 2.55026 4.3389L1.16493 6.62823C1.16142 6.63409 1.15966 6.63702 1.15793 6.63996C1.1562 6.6429 1.15449 6.64586 1.15107 6.65176C0.832685 7.20733 1.03396 7.91075 1.60062 8.2229L2.56452 8.75387C2.49014 9.16255 2.4524 9.57905 2.4524 10C2.4524 10.421 2.49014 10.8375 2.56452 11.2461L1.60062 11.7771C1.58856 11.7838 1.58856 11.7838 1.57662 11.7907C1.01761 12.1158 0.833289 12.8237 1.16493 13.3718L2.55026 15.6611C2.87639 16.2001 3.58167 16.3853 4.13892 16.0783L5.14203 15.5258C5.8199 16.0716 6.59332 16.5002 7.42801 16.7896V17.8462C7.42801 18.4834 7.95492 19 8.60491 19H11.3951C12.0451 19 12.572 18.4834 12.572 17.8462V16.7896C13.4067 16.5002 14.1801 16.0716 14.858 15.5258L15.8611 16.0783C16.4183 16.3853 17.1236 16.2001 17.4497 15.6611L18.8351 13.3718C18.8397 13.3641 18.8412 13.3615 18.8437 13.3573C18.845 13.355 18.8466 13.3523 18.8489 13.3482C19.1673 12.7927 18.966 12.0892 18.3994 11.7771L17.4355 11.2461C17.5099 10.8375 17.5476 10.421 17.5476 10C17.5476 9.57905 17.5099 9.16255 17.4355 8.75387L18.3994 8.2229C18.4114 8.2162 18.4114 8.2162 18.4234 8.20931C18.9824 7.88416 19.1667 7.17629 18.8351 6.62823L17.4497 4.3389C17.1236 3.79995 16.4183 3.61473 15.8611 3.92169L14.858 4.47425C14.1801 3.92841 13.4067 3.49982 12.572 3.21044V2.15385C12.572 1.51659 12.0451 1 11.3951 1H8.60491C7.95492 1 7.42801 1.51659 7.42801 2.15385ZM10 6.5C11.933 6.5 13.5 8.067 13.5 10C13.5 11.933 11.933 13.5 10 13.5C8.067 13.5 6.5 11.933 6.5 10C6.5 8.067 8.067 6.5 10 6.5Z" fill="#4070F4"/>
</svg>
