<svg width="20" height="20" viewBox="0 0 20 20" fill="none" xmlns="http://www.w3.org/2000/svg">
<path d="M10 2C9.58578 2 9.25 2.33579 9.25 2.75V11.0278C9.25 11.442 9.58578 11.7778 10 11.7778C10.4142 11.7778 10.75 11.442 10.75 11.0278V2.75C10.75 2.33579 10.4142 2 10 2Z" fill="#8A8CA2"/>
<path d="M16.0295 4.74213C15.7672 4.44131 15.3069 4.4534 15.031 4.74179C14.755 5.03018 14.7687 5.48534 15.025 5.79132C15.7047 6.60293 16.1802 7.57014 16.4059 8.61179C16.6829 9.88973 16.5713 11.2213 16.0854 12.4353C15.5996 13.6493 14.7618 14.6903 13.6797 15.4243C12.5975 16.1584 11.3206 16.552 10.013 16.5546C8.70539 16.5572 7.4269 16.1686 6.34188 15.4389C5.25686 14.7091 4.41491 13.6715 3.92427 12.4594C3.43363 11.2473 3.31673 9.91623 3.5886 8.6372C3.8102 7.59466 4.28184 6.62557 4.95838 5.81128C5.21344 5.50428 5.22529 5.04907 4.94823 4.76178C4.67116 4.47449 4.21083 4.46422 3.9497 4.76607C3.06875 5.78443 2.45641 7.01198 2.17483 8.33669C1.84301 9.89776 1.98568 11.5224 2.58451 13.0017C3.18334 14.4811 4.21094 15.7475 5.53522 16.6382C6.8595 17.5289 8.41991 18.0031 10.0159 18C11.6118 17.9968 13.1703 17.5164 14.4911 16.6205C15.8118 15.7245 16.8344 14.454 17.4273 12.9723C18.0203 11.4906 18.1565 9.86542 17.8185 8.30568C17.5317 6.98209 16.9145 5.75698 16.0295 4.74213Z" fill="#8A8CA2"/>
</svg>
