<?xml version="1.0" encoding="UTF-8"?>
<svg width="14px" height="14px" viewBox="0 0 14 14" version="1.1" xmlns="http://www.w3.org/2000/svg" xmlns:xlink="http://www.w3.org/1999/xlink">
    <!-- Generator: sketchtool 58 (101010) - https://sketch.com -->
    <title>873F3A80-E6FB-4C66-867B-24373B488BCD</title>
    <desc>Created with sketchtool.</desc>
    <g id="Governance---Transactions" stroke="none" stroke-width="1" fill="none" fill-rule="evenodd">
        <g id="Governance-plus-Discovery---Transactions-Hover-(Tooltip-transaction-types)" transform="translate(-277.000000, -314.000000)">
            <g id="Icon---Question---14-px-Copy-3" transform="translate(277.000000, 314.000000)">
                <rect id="Bounds" fill-opacity="0.1" fill="#FFFFFF" opacity="0.1" x="0" y="0" width="14" height="14"></rect>
                <g id="Icon" transform="translate(1.000000, 1.000000)">
                    <rect id="Frame" stroke="#8A8CA2" stroke-linecap="round" x="0" y="0" width="12" height="12" rx="3"></rect>
                    <path d="M5.31612903,7.07799443 L5.31612903,6.94428969 C5.31612903,6.23398329 5.6,5.94150418 6.09032258,5.56545961 L6.3655914,5.35654596 C6.64946237,5.13927577 6.81290323,4.97214485 6.81290323,4.64623955 C6.81290323,4.31197772 6.59784946,3.98607242 6.02150538,3.98607242 C5.46236559,3.98607242 5.16989247,4.26183844 5.16989247,4.80501393 L4,4.80501393 C4,3.79387187 4.65376344,3 6.02150538,3 C7.2344086,3 8,3.67688022 8,4.58774373 C8,5.13091922 7.75913978,5.54874652 7.34623656,5.85793872 L6.98494624,6.13370474 C6.60645161,6.4178273 6.4344086,6.56824513 6.4344086,6.94428969 L6.4344086,7.07799443 L5.31612903,7.07799443 Z M5.90967742,9 C5.45376344,9 5.21290323,8.74094708 5.21290323,8.31476323 C5.21290323,7.90529248 5.45376344,7.64623955 5.90967742,7.64623955 C6.35698925,7.64623955 6.60645161,7.90529248 6.60645161,8.31476323 C6.60645161,8.74094708 6.35698925,9 5.90967742,9 Z" id="?" fill="#8A8CA2" fill-rule="nonzero"></path>
                </g>
            </g>
        </g>
    </g>
</svg>