<svg width="20" height="20" viewBox="0 0 20 20" fill="none" xmlns="http://www.w3.org/2000/svg">
<path d="M1.00021 5.91631L0.807924 5.45477C0.621591 5.5324 0.500214 5.71445 0.500214 5.91631H1.00021ZM8.00021 16.9998L7.8079 17.4614C7.93099 17.5127 8.06946 17.5127 8.19254 17.4614L8.00021 16.9998ZM1.00021 14.0831H0.500214C0.500214 14.285 0.621581 14.467 0.807903 14.5447L1.00021 14.0831ZM14.9999 5.91629L15.4999 5.91628C15.4999 5.71443 15.3785 5.53237 15.1922 5.45474L14.9999 5.91629ZM8.00004 3.00003L8.19233 2.53848C8.06926 2.48721 7.93081 2.48721 7.80775 2.53848L8.00004 3.00003ZM11.0001 10.6665L10.8078 10.2049C10.6215 10.2826 10.5001 10.4646 10.5001 10.6665H11.0001ZM15.0001 17L14.8078 17.4615C14.9309 17.5128 15.0694 17.5128 15.1924 17.4615L15.0001 17ZM11.0001 15.3333H10.5001C10.5001 15.5351 10.6215 15.7172 10.8078 15.7948L11.0001 15.3333ZM18.9999 10.6665H19.4999C19.4999 10.4646 19.3786 10.2826 19.1922 10.2049L18.9999 10.6665ZM18.9999 15.3333L19.1923 15.7948C19.3786 15.7172 19.4999 15.5351 19.4999 15.3333H18.9999ZM0.807903 6.37785L7.8079 9.29457L8.19252 8.37149L1.19252 5.45477L0.807903 6.37785ZM7.50021 8.83303V16.9998H8.50021V8.83303H7.50021ZM8.19252 16.5383L1.19252 13.6216L0.807903 14.5447L7.8079 17.4614L8.19252 16.5383ZM1.50021 14.0831V5.91631H0.500214V14.0831H1.50021ZM14.8076 5.45476L7.80789 8.37149L8.19253 9.29456L15.1922 6.37782L14.8076 5.45476ZM15.5 9.00002L15.4999 5.91628L14.4999 5.9163L14.5 9.00004L15.5 9.00002ZM15.4999 14.0831L15.4999 12.4414L14.4999 12.4414L14.4999 14.0831L15.4999 14.0831ZM8.19254 17.4614L11.6922 16.003L11.3076 15.0799L7.80789 16.5383L8.19254 17.4614ZM7.80775 2.53848L0.807924 5.45477L1.1925 6.37786L8.19233 3.46158L7.80775 2.53848ZM15.1922 5.45474L8.19233 2.53848L7.80775 3.46158L14.8076 6.37784L15.1922 5.45474ZM10.8078 11.128L14.8078 12.7947L15.1924 11.8717L11.1924 10.2049L10.8078 11.128ZM14.5001 12.3332V17H15.5001V12.3332H14.5001ZM15.1924 16.5384L11.1924 14.8717L10.8078 15.7948L14.8078 17.4615L15.1924 16.5384ZM11.5001 15.3333V10.6665H10.5001V15.3333H11.5001ZM18.8076 10.2049L14.8078 11.8717L15.1924 12.7947L19.1923 11.128L18.8076 10.2049ZM15.1924 17.4615L19.1923 15.7948L18.8076 14.8717L14.8078 16.5384L15.1924 17.4615ZM19.4999 15.3333V10.6665H18.4999V15.3333H19.4999ZM14.8077 8.53849L10.8078 10.2049L11.1924 11.128L15.1923 9.46158L14.8077 8.53849ZM19.1922 10.2049L15.1923 8.53848L14.8077 9.46158L18.8077 11.128L19.1922 10.2049Z" fill="#4070F4"/>
</svg>
