<svg width="20" height="20" viewBox="0 0 20 20" fill="none" xmlns="http://www.w3.org/2000/svg">
<path d="M6.20458 3.47895L4.87744 4.83278H13.0218C13.6569 4.83278 14.1718 5.34765 14.1718 5.98278C14.1718 6.6179 13.6569 7.13278 13.0218 7.13278H4.87414L6.20457 8.49C6.64917 8.94356 6.64916 9.67892 6.20455 10.1325C5.75994 10.586 5.0391 10.586 4.59449 10.1325L1.33339 6.80566C1.11988 6.58785 0.999936 6.29244 0.999939 5.98442C0.999941 5.6764 1.11989 5.38099 1.3334 5.16319L4.59453 1.83647C5.03914 1.38292 5.75999 1.38292 6.20459 1.83648C6.64919 2.29004 6.64919 3.0254 6.20458 3.47895Z" fill="#4070F4"/>
<path d="M13.7953 11.51L15.1224 12.8638H6.97819C6.34307 12.8638 5.82819 13.3787 5.82819 14.0138C5.82819 14.6489 6.34307 15.1638 6.97819 15.1638H15.1257L13.7953 16.521C13.3507 16.9746 13.3507 17.7099 13.7953 18.1635C14.2399 18.617 14.9608 18.617 15.4054 18.1635L18.6665 14.8367C18.88 14.6189 18.9999 14.3234 18.9999 14.0154C18.9999 13.7074 18.88 13.412 18.6665 13.1942L15.4053 9.86747C14.9607 9.41392 14.2399 9.41393 13.7953 9.86749C13.3507 10.321 13.3507 11.0564 13.7953 11.51Z" fill="#4070F4"/>
</svg>
