<svg xmlns="http://www.w3.org/2000/svg" width="40" height="40" viewBox="0 0 40 40">
    <g fill="none" fill-rule="evenodd">
        <path fill="#FFF" fill-opacity=".01" d="M-8-8h56v56H-8z" opacity=".01"/>
        <path stroke="#8A8CA2" d="M12.935 20L2.318 9.383a4.993 4.993 0 0 1-.01-7.06 4.993 4.993 0 0 1 7.061.01l10.617 10.616L30.602 2.332a4.993 4.993 0 0 1 7.062-.01 4.993 4.993 0 0 1-.01 7.061L27.037 20l10.617 10.617a4.993 4.993 0 0 1 .01 7.06 4.993 4.993 0 0 1-7.062-.01L19.986 27.052 9.369 37.668a4.993 4.993 0 0 1-7.06.01 4.993 4.993 0 0 1 .01-7.061L12.934 20z"/>
    </g>
</svg>
