<svg width="50" height="50" viewBox="0 0 50 50" fill="none" xmlns="http://www.w3.org/2000/svg">
<path d="M25 50C11.1929 50 0 38.8071 0 25C0 11.1929 11.1929 0 25 0C38.8071 0 50 11.1929 50 25C50 38.8071 38.8071 50 25 50Z" fill="#254898"/>
<path d="M32.8002 14.2C33.231 14.2 33.5802 14.5492 33.5802 14.98V16.42H35.0202C35.451 16.42 35.8002 16.7692 35.8002 17.2C35.8002 17.6308 35.451 17.98 35.0202 17.98H33.5802V19.42C33.5802 19.8508 33.231 20.2 32.8002 20.2C32.3694 20.2 32.0202 19.8508 32.0202 19.42V17.98H30.5802C30.1494 17.98 29.8002 17.6308 29.8002 17.2C29.8002 16.7692 30.1494 16.42 30.5802 16.42H32.0202V14.98C32.0202 14.5492 32.3694 14.2 32.8002 14.2Z" fill="#DFE6F2"/>
<path fill-rule="evenodd" clip-rule="evenodd" d="M18.7002 22.3C18.7002 19.8147 20.7149 17.8 23.2002 17.8C25.6855 17.8 27.7002 19.8147 27.7002 22.3C27.7002 24.7853 25.6855 26.8 23.2002 26.8C20.7149 26.8 18.7002 24.7853 18.7002 22.3ZM23.2002 19.36C21.5765 19.36 20.2602 20.6763 20.2602 22.3C20.2602 23.9237 21.5765 25.24 23.2002 25.24C24.8239 25.24 26.1402 23.9237 26.1402 22.3C26.1402 20.6763 24.8239 19.36 23.2002 19.36Z" fill="#DFE6F2"/>
<path fill-rule="evenodd" clip-rule="evenodd" d="M29.5642 30.4968C27.8763 29.0903 25.5871 28.3001 23.2002 28.3001C20.8132 28.3001 18.5241 29.0903 16.8362 30.4968C15.7121 31.4336 14.916 32.5927 14.5097 33.8501C14.468 33.9791 14.4304 34.1091 14.397 34.2401C14.2671 34.7491 14.2002 35.2717 14.2002 35.8001H32.2002C32.2002 35.2717 32.1333 34.7491 32.0034 34.2401C31.97 34.1091 31.9324 33.9791 31.8907 33.8501C31.4844 32.5927 30.6883 31.4336 29.5642 30.4968ZM16.024 34.2401C16.3415 33.318 16.9474 32.4348 17.8349 31.6952C19.2174 30.5431 21.1443 29.8601 23.2002 29.8601C25.2561 29.8601 27.183 30.5431 28.5655 31.6952C29.453 32.4348 30.0589 33.318 30.3763 34.2401H16.024Z" fill="#DFE6F2"/>
</svg>
