<svg width="20" height="20" viewBox="0 0 20 20" fill="none" xmlns="http://www.w3.org/2000/svg">
<path d="M14.8 9.9111C14.8 10.3529 14.4418 10.7111 14 10.7111C13.5582 10.7111 13.2 10.3529 13.2 9.9111C13.2 9.46927 13.5582 9.1111 14 9.1111C14.4418 9.1111 14.8 9.46927 14.8 9.9111Z" fill="#8A8CA2"/>
<path fill-rule="evenodd" clip-rule="evenodd" d="M4 2C2.89543 2 2 2.89543 2 4V16C2 17.1046 2.89543 18 4 18H16C17.1046 18 18 17.1046 18 16V4C18 2.89543 17.1046 2 16 2H4ZM16.7989 11.5256V8.47246H12.7273C12.2364 8.47246 11.9909 8.47246 11.7988 8.55678C11.5692 8.65756 11.3858 8.84094 11.285 9.07057C11.2007 9.26267 11.2007 9.50813 11.2007 9.99905C11.2007 10.49 11.2007 10.7354 11.285 10.9275C11.3858 11.1572 11.5692 11.3405 11.7988 11.4413C11.9909 11.5256 12.2364 11.5256 12.7273 11.5256H16.7989ZM12.6667 7.33335H16.7989V4.26034C16.7989 3.70806 16.3512 3.26034 15.7989 3.26034H4.20361C3.65133 3.26034 3.20361 3.70806 3.20361 4.26034V15.7338C3.20361 16.2861 3.65133 16.7338 4.20361 16.7338H15.7989C16.3512 16.7338 16.7989 16.2861 16.7989 15.7338V12.6667H12.6667C12.0467 12.6667 11.7367 12.6667 11.4824 12.5985C10.7922 12.4136 10.2531 11.8745 10.0681 11.1843C10 10.93 10 10.62 10 10C10 9.38004 10 9.07005 10.0681 8.81571C10.2531 8.12553 10.7922 7.58643 11.4824 7.4015C11.7367 7.33335 12.0467 7.33335 12.6667 7.33335Z" fill="#8A8CA2"/>
</svg>
