<svg width="46" height="31" viewBox="0 0 46 31" fill="none" xmlns="http://www.w3.org/2000/svg">
<path d="M45.3914 1.73694L1.53644 1.73694V4.0559L45.3914 4.0559V1.73694Z" fill="#DFE6F2"/>
<path d="M45.63 4.29464L1.29785 4.29464V1.49854L45.63 1.49854V4.29464ZM1.775 3.81749L45.1529 3.81749V1.97569L1.775 1.97569V3.81749Z" fill="#0C152E"/>
<path d="M45.3915 2.55725L13.4748 2.55725V3.0344L45.3915 3.0344V2.55725Z" fill="#0C152E"/>
<path d="M14.472 4.05586L12.2723 0.238647L0.238525 0.238647L0.238525 29.7934H45.3914V4.05586L14.472 4.05586Z" fill="#F7E36D"/>
<path d="M45.63 30.0319H0V0H12.4107L14.6104 3.81721H45.63V30.0319ZM0.477152 29.5548H45.1528V4.29436H14.3336L12.134 0.477152H0.477152V29.5548Z" fill="#0C152E"/>
<path d="M23.0384 10.2798L23.0384 10.2798L23.0425 10.2733C23.1314 10.1293 23.3346 10.1261 23.4282 10.2584C23.4284 10.2587 23.4286 10.259 23.4288 10.2593L30.5271 20.5346L30.5271 20.5347L30.53 20.5388C30.6414 20.6966 30.5254 20.9099 30.342 20.9099H16.6764C16.4968 20.9099 16.3832 20.7126 16.4796 20.5544L23.0384 10.2798Z" fill="#0C152E" stroke="#0C152E"/>
<path d="M22.4595 18.7473C22.4595 18.2559 22.7362 17.9552 23.2611 17.9552C23.7669 17.9552 24.0627 18.2559 24.0627 18.7473C24.0627 19.2483 23.7669 19.5489 23.2611 19.5489C22.7362 19.5489 22.4595 19.2436 22.4595 18.7473ZM22.5406 14.0855V13.2314H24.0007V14.0855L23.7669 17.4924H22.7219L22.5406 14.0855Z" fill="white"/>
</svg>
