<svg width="20" height="20" viewBox="0 0 20 20" fill="none" xmlns="http://www.w3.org/2000/svg">
<path d="M6 6C6 3.79086 7.79086 2 10 2C12.2091 2 14 3.79086 14 6C14 8.20913 12.2091 9.99999 10 9.99999C7.79086 9.99999 6 8.20913 6 6Z" fill="#4070F4"/>
<path d="M2.27511 16.2667C2.09401 16.8272 2 17.4096 2 18.0001H18C18 17.4096 17.906 16.8272 17.7249 16.2667C17.3637 15.149 16.6561 14.1187 15.6568 13.286C14.1566 12.0358 12.1217 11.3334 10 11.3334C7.87826 11.3334 5.84343 12.0358 4.34314 13.286C3.3439 14.1187 2.63629 15.149 2.27511 16.2667Z" fill="#4070F4"/>
</svg>
