<svg width="20" height="20" viewBox="0 0 20 20" fill="none" xmlns="http://www.w3.org/2000/svg">
<path fill-rule="evenodd" clip-rule="evenodd" d="M10 2C7.79086 2 6 3.79086 6 6C6 8.20913 7.79086 9.99999 10 9.99999C12.2091 9.99999 14 8.20913 14 6C14 3.79086 12.2091 2 10 2ZM7.3 6C7.3 4.50883 8.50883 3.3 10 3.3C11.4912 3.3 12.7 4.50883 12.7 6C12.7 7.49116 11.4912 8.69999 10 8.69999C8.50883 8.69999 7.3 7.49116 7.3 6Z" fill="#8A8CA2"/>
<path fill-rule="evenodd" clip-rule="evenodd" d="M15.6568 13.286C16.6561 14.1187 17.3637 15.149 17.7249 16.2667C17.7711 16.4098 17.8117 16.5543 17.8464 16.7001C17.9479 17.1251 18 17.5603 18 18.0001H2C2 17.5603 2.05213 17.1251 2.15354 16.7001C2.18831 16.5543 2.22887 16.4098 2.27511 16.2667C2.63629 15.149 3.3439 14.1187 4.34314 13.286C5.84343 12.0358 7.87826 11.3334 10 11.3334C12.1217 11.3334 14.1566 12.0358 15.6568 13.286ZM3.51213 16.6665L3.50142 16.7001H16.4986L16.4879 16.6665C16.2083 15.8012 15.6506 14.973 14.8246 14.2847C13.5787 13.2465 11.8458 12.6334 10 12.6334C8.15416 12.6334 6.42125 13.2465 5.17538 14.2847C4.34939 14.973 3.79172 15.8012 3.51213 16.6665Z" fill="#8A8CA2"/>
</svg>
