<svg width="18" height="18" viewBox="0 0 18 18" fill="none" xmlns="http://www.w3.org/2000/svg">
<circle opacity="0.1" cx="9" cy="9" r="9" fill="#4070F4"/>
<path d="M7.2746 6.9796C7.06494 6.79989 7.04065 6.48424 7.22037 6.27458C7.40008 6.06492 7.71573 6.04064 7.92539 6.22035L7.2746 6.9796ZM10.4 8.99998L10.7254 8.62035C10.8362 8.71534 10.9 8.85401 10.9 8.99998C10.9 9.14594 10.8362 9.28461 10.7254 9.3796L10.4 8.99998ZM7.92539 11.7796C7.71573 11.9593 7.40008 11.935 7.22037 11.7254C7.04065 11.5157 7.06494 11.2001 7.2746 11.0203L7.92539 11.7796ZM7.92539 6.22035L10.7254 8.62035L10.0746 9.3796L7.2746 6.9796L7.92539 6.22035ZM10.7254 9.3796L7.92539 11.7796L7.2746 11.0203L10.0746 8.62035L10.7254 9.3796Z" fill="#254898"/>
</svg>
