<svg width="20" height="20" viewBox="0 0 20 20" fill="none" xmlns="http://www.w3.org/2000/svg">
<path d="M9.99997 4.375C9.59611 4.375 9.26872 4.70239 9.26872 5.10625V10.3154C9.26872 10.5451 9.4549 10.7312 9.68455 10.7312H14.8937C15.2976 10.7312 15.625 10.4039 15.625 10C15.625 9.59614 15.2976 9.26875 14.8937 9.26875H10.8272C10.7742 9.26875 10.7312 9.22579 10.7312 9.17279V5.10625C10.7312 4.70239 10.4038 4.375 9.99997 4.375Z" fill="#4070F4"/>
<path fill-rule="evenodd" clip-rule="evenodd" d="M19 10C19 14.9706 14.9706 19 10 19C5.02944 19 1 14.9706 1 10C1 5.02944 5.02944 1 10 1C14.9706 1 19 5.02944 19 10ZM17.5375 10C17.5375 14.1628 14.1628 17.5375 10 17.5375C5.83715 17.5375 2.4625 14.1628 2.4625 10C2.4625 5.83715 5.83715 2.4625 10 2.4625C14.1628 2.4625 17.5375 5.83715 17.5375 10Z" fill="#4070F4"/>
</svg>
