<svg width="16" height="16" viewBox="0 0 16 16" fill="none" xmlns="http://www.w3.org/2000/svg">
<path fill-rule="evenodd" clip-rule="evenodd" d="M14.0298 8.00005C14.0298 11.3303 11.3301 14.03 7.9998 14.03C4.66953 14.03 1.9698 11.3303 1.9698 8.00005C1.9698 4.66977 4.66953 1.97005 7.9998 1.97005C11.3301 1.97005 14.0298 4.66977 14.0298 8.00005ZM15.1998 8.00005C15.1998 11.9765 11.9763 15.2 7.9998 15.2C4.02335 15.2 0.799805 11.9765 0.799805 8.00005C0.799805 4.0236 4.02335 0.800049 7.9998 0.800049C11.9763 0.800049 15.1998 4.0236 15.1998 8.00005ZM7.99978 3.50005C7.6767 3.50005 7.41478 3.76196 7.41478 4.08505V8.25239C7.41478 8.43611 7.56372 8.58505 7.74745 8.58505H11.9148C12.2379 8.58505 12.4998 8.32314 12.4998 8.00005C12.4998 7.67696 12.2379 7.41505 11.9148 7.41505H8.66155C8.61915 7.41505 8.58478 7.38068 8.58478 7.33828V4.08505C8.58478 3.76196 8.32287 3.50005 7.99978 3.50005Z" fill="#4070F4"/>
</svg>
