<svg width="146" height="130" viewBox="0 0 146 130" fill="none" xmlns="http://www.w3.org/2000/svg">
<path d="M37.9019 81.1989L0.194946 91.5602L10.5661 129.232L48.2731 118.87L37.9019 81.1989Z" fill="#111112"/>
<path d="M10.4582 129.426L10.4162 129.271L0 91.4472L0.155404 91.4052L38.015 80.9988L38.057 81.1541L48.4732 118.978L48.3178 119.02L10.4582 129.426ZM0.394808 91.6737L10.6808 129.036L48.0784 118.76L37.7924 81.3975L0.394808 91.6737Z" fill="#9999A0"/>
<path d="M56.9701 102.525L46.7975 65.574L37.9059 81.1961L48.2759 118.869L56.9701 102.525Z" fill="black"/>
<path d="M48.2758 119.028C48.2716 119.028 48.2632 119.028 48.259 119.028C48.196 119.02 48.1414 118.974 48.1246 118.911L37.7504 81.2381C37.7378 81.1961 37.7462 81.1541 37.7672 81.1164L46.6588 65.4901C46.6924 65.4355 46.7554 65.4019 46.8184 65.4103C46.8814 65.4187 46.936 65.4649 46.9528 65.5278L57.1254 102.479C57.138 102.517 57.1338 102.558 57.1128 102.596L48.4187 118.94C48.3893 118.995 48.3346 119.028 48.2758 119.028ZM38.078 81.2171L48.3263 118.437L56.802 102.504L46.747 65.9852L38.078 81.2171Z" fill="#9999A0"/>
<path d="M46.7973 65.574L37.9058 81.1961L0.197388 91.5605L8.99237 76.1062L46.7973 65.574Z" fill="#111112"/>
<path d="M0.197128 91.7199C0.146727 91.7199 0.100526 91.6989 0.0711251 91.657C0.0333243 91.6066 0.0249247 91.5353 0.0585254 91.4807L8.85351 76.0265C8.87451 75.9887 8.90811 75.9635 8.95011 75.9509L46.7551 65.4145C46.8181 65.3977 46.8853 65.4187 46.9231 65.4691C46.9609 65.5194 46.9693 65.5907 46.9357 65.6453L38.0441 81.2716C38.0231 81.3094 37.9895 81.3345 37.9475 81.3471L0.239129 91.7115C0.226529 91.7199 0.213929 91.7199 0.197128 91.7199ZM9.09711 76.2447L0.524734 91.3045L37.7963 81.0618L46.4653 65.8299L9.09711 76.2447Z" fill="#9999A0"/>
<path d="M143.511 91.7488L130.924 86.5209L125.692 99.0957L138.278 104.324L143.511 91.7488Z" fill="#111112"/>
<path d="M138.281 104.462C138.262 104.462 138.244 104.458 138.226 104.451L125.638 99.2216C125.568 99.1924 125.532 99.1119 125.561 99.0388L130.795 86.463C130.825 86.3935 130.909 86.3606 130.978 86.3862L143.566 91.6155C143.636 91.6447 143.672 91.7252 143.643 91.7983L138.409 104.374C138.387 104.429 138.335 104.462 138.281 104.462ZM125.876 99.0169L138.207 104.136L143.332 91.8166L131 86.697L125.876 99.0169Z" fill="#9999A0"/>
<path d="M145.806 97.7772L140.674 110.115L138.281 104.323L143.515 91.7471L145.806 97.7772Z" fill="black"/>
<path d="M140.674 110.254C140.619 110.254 140.568 110.221 140.546 110.17L138.152 104.378C138.138 104.345 138.138 104.305 138.152 104.272L143.387 91.6959C143.409 91.6447 143.453 91.6008 143.518 91.6118C143.577 91.6118 143.625 91.6484 143.647 91.7032L145.938 97.737C145.949 97.7699 145.949 97.8065 145.938 97.8394L140.806 110.174C140.781 110.218 140.729 110.254 140.674 110.254ZM138.431 104.323L140.674 109.75L145.656 97.7735L143.507 92.1201L138.431 104.323Z" fill="#9999A0"/>
<path d="M140.674 110.115L138.281 104.323L125.693 99.0936L128.061 104.82L140.674 110.115Z" fill="#111112"/>
<path d="M140.674 110.254C140.656 110.254 140.638 110.251 140.619 110.243L128.006 104.952C127.973 104.937 127.944 104.912 127.933 104.875L125.568 99.1485C125.546 99.0973 125.557 99.0351 125.598 98.9949C125.638 98.9547 125.696 98.9437 125.748 98.9656L138.335 104.195C138.368 104.21 138.398 104.235 138.412 104.272L140.806 110.064C140.828 110.115 140.817 110.177 140.777 110.218C140.744 110.24 140.711 110.254 140.674 110.254ZM128.167 104.714L140.418 109.852L138.178 104.425L125.953 99.3496L128.167 104.714Z" fill="#9999A0"/>
<path d="M78.0167 49.9946L68.6426 72.1923L90.8612 81.5575L100.235 59.3599L78.0167 49.9946Z" fill="#111112"/>
<path d="M90.8697 81.7608C90.8428 81.7608 90.8159 81.7554 90.789 81.7447L68.5664 72.3803C68.518 72.3588 68.4749 72.3211 68.4534 72.2674C68.4319 72.219 68.4319 72.1599 68.4534 72.1115L77.8321 49.9099C77.8751 49.8078 77.9989 49.7594 78.1011 49.8024L100.324 59.1722C100.426 59.2152 100.474 59.3335 100.431 59.441L91.058 81.6426C91.0204 81.7124 90.945 81.7608 90.8697 81.7608ZM68.9108 72.0792L90.7567 81.2878L99.974 59.4625L78.128 50.2539L68.9108 72.0792Z" fill="#9999A0"/>
<path d="M88.7227 45.991L110.52 55.1834L100.243 59.355L78.0204 49.9905L88.7227 45.991Z" fill="#111112"/>
<path d="M100.243 59.5594C100.216 59.5594 100.189 59.554 100.162 59.5432L77.9397 50.1734C77.8643 50.1412 77.8105 50.0659 77.8159 49.9799C77.8159 49.8939 77.8697 49.824 77.9504 49.7918L88.6528 45.7976C88.7012 45.7815 88.755 45.7815 88.8035 45.803L110.601 54.99C110.676 55.0223 110.725 55.0976 110.725 55.1782C110.725 55.2588 110.676 55.3341 110.596 55.3663L100.318 59.5432C100.297 59.554 100.27 59.5594 100.243 59.5594ZM78.5746 50.0014L100.243 59.1347L109.988 55.1782L88.7174 46.2116L78.5746 50.0014Z" fill="#9999A0"/>
<path d="M110.52 55.1837L100.243 59.3552L90.8644 81.5567L101.034 77.4282L110.52 55.1837Z" fill="black"/>
<path d="M90.8697 81.761C90.8159 81.761 90.7621 81.7395 90.7244 81.7018C90.6652 81.6427 90.6491 81.5567 90.6814 81.4761L100.055 59.2745C100.076 59.2261 100.114 59.1831 100.168 59.167L110.445 54.9901C110.52 54.9578 110.612 54.9793 110.671 55.0385C110.73 55.0976 110.746 55.1836 110.714 55.2642L101.222 77.5088C101.201 77.5572 101.163 77.6002 101.109 77.6163L90.945 81.7448C90.9181 81.7556 90.8912 81.761 90.8697 81.761ZM100.399 59.5164L91.2464 81.1858L100.878 77.2723L110.138 55.5599L100.399 59.5164Z" fill="#9999A0"/>
<path d="M128.137 5.49595L116.719 1.21912L112.421 12.5726L123.839 16.8494L128.137 5.49595Z" fill="#111112"/>
<path d="M112.32 12.5819C112.32 12.5684 112.322 12.5547 112.327 12.541L116.623 1.18223C116.633 1.15745 116.651 1.13507 116.678 1.12319C116.702 1.11142 116.732 1.11026 116.757 1.12013L128.174 5.40043C128.227 5.42007 128.254 5.48135 128.234 5.53361L123.935 16.8925C123.915 16.9447 123.856 16.9714 123.801 16.9519L112.384 12.6743C112.348 12.6567 112.322 12.6198 112.32 12.5819ZM116.782 1.34949L112.557 12.5158L123.781 16.7223L128.006 5.556L116.782 1.34949Z" fill="#9999A0"/>
<path d="M130.372 10.7974L126.156 21.9375L123.843 16.8519L128.137 5.49457L130.372 10.7974Z" fill="#111112"/>
<path d="M123.737 16.8575C123.737 16.844 123.739 16.8304 123.744 16.8166L128.043 5.45846C128.058 5.41994 128.095 5.39141 128.138 5.39242C128.182 5.39073 128.218 5.41641 128.236 5.45636L130.468 10.759C130.477 10.783 130.478 10.8101 130.468 10.8349L126.253 21.9757C126.238 22.0142 126.201 22.04 126.16 22.0416C126.12 22.0432 126.081 22.0203 126.063 21.9804L123.747 16.8951C123.741 16.8845 123.738 16.8711 123.737 16.8575ZM128.142 5.77432L123.952 16.8492L126.146 21.671L130.26 10.7996L128.142 5.77432Z" fill="#9999A0"/>
<path d="M126.154 21.9402L123.839 16.8534L112.421 12.5722L114.712 17.6057L126.154 21.9402Z" fill="black"/>
<path d="M112.318 12.5816C112.317 12.5545 112.327 12.527 112.345 12.5074C112.374 12.4764 112.417 12.4666 112.458 12.4813L123.875 16.7581C123.9 16.768 123.923 16.7861 123.932 16.8128L126.248 21.8992C126.266 21.9364 126.257 21.9829 126.228 22.0138C126.2 22.0447 126.156 22.0545 126.115 22.0399L114.674 17.7043C114.649 17.6945 114.626 17.6764 114.617 17.6496L112.328 12.6192C112.322 12.6058 112.318 12.5924 112.318 12.5816ZM123.76 16.9361L112.616 12.7597L114.787 17.5265L125.954 21.7562L123.76 16.9361Z" fill="#9999A0"/>
<path d="M61.4994 23.7391L67.4146 30.2934L74.0015 24.4044L68.0864 17.8501L61.4994 23.7391Z" fill="#111112"/>
<path d="M74.0674 24.4328C74.0632 24.4417 74.0572 24.4498 74.0494 24.457L67.4649 30.3499C67.4502 30.3625 67.431 30.3709 67.4098 30.3697C67.3903 30.3692 67.3707 30.36 67.358 30.3454L61.4447 23.7861C61.4174 23.756 61.4207 23.7075 61.451 23.6804L68.0372 17.7884C68.0675 17.7612 68.1144 17.7636 68.1434 17.7946L74.0575 24.3521C74.0749 24.3754 74.0792 24.4079 74.0674 24.4328ZM67.4187 30.1891L73.8925 24.3965L68.0791 17.9493L61.6052 23.7418L67.4187 30.1891Z" fill="#9999A0"/>
<path d="M61.8391 19.5731L68.2966 13.7968L68.0775 17.8442L61.4965 23.7342L61.8391 19.5731Z" fill="#111112"/>
<path d="M68.1454 17.875C68.1412 17.8839 68.1352 17.8919 68.1275 17.8992L61.545 23.7884C61.5226 23.8083 61.4892 23.8144 61.4614 23.7992C61.4329 23.7858 61.4181 23.7572 61.4199 23.7255L61.7642 19.5649C61.7664 19.5464 61.7748 19.5286 61.7895 19.516L68.2448 13.7388C68.2673 13.7189 68.2998 13.7146 68.3266 13.7271C68.3534 13.7397 68.3708 13.7674 68.369 13.7991L68.1518 17.8476C68.152 17.8564 68.1496 17.8661 68.1454 17.875ZM61.587 23.5517L68.0043 17.8089L68.2115 13.9709L61.9118 19.608L61.587 23.5517Z" fill="#9999A0"/>
<path d="M68.3005 13.7998L68.0812 17.8495L73.9957 24.4097L74.2125 20.4024L68.3005 13.7998Z" fill="black"/>
<path d="M74.0648 24.4385C74.0564 24.4563 74.0409 24.4708 74.0225 24.4774C73.9936 24.4877 73.9625 24.4797 73.9407 24.4564L68.0254 17.8976C68.0126 17.883 68.0042 17.8638 68.0073 17.8435L68.2247 13.7929C68.2258 13.7629 68.2472 13.736 68.2761 13.7256C68.305 13.7153 68.3361 13.7233 68.3579 13.7466L74.269 20.3513C74.2818 20.3659 74.2902 20.3851 74.2871 20.4054L74.0713 24.4111C74.0706 24.4217 74.0682 24.4314 74.0648 24.4385ZM68.1596 17.8214L73.9325 24.2243L74.1366 20.4283L68.3662 13.9831L68.1596 17.8214Z" fill="#9999A0"/>
<path d="M123.888 40.0629H100.888V63.0629H123.888V40.0629Z" fill="#FF4557"/>
<path d="M104.338 59.6129L120.438 43.5129" stroke="white"/>
<path d="M120.438 59.6129L104.338 43.5129" stroke="white"/>
</svg>
