<?xml version="1.0" encoding="UTF-8"?>
<svg width="14px" height="16px" viewBox="0 0 14 16" version="1.1" xmlns="http://www.w3.org/2000/svg" xmlns:xlink="http://www.w3.org/1999/xlink">
    <!-- Generator: Sketch 47.1 (45422) - http://www.bohemiancoding.com/sketch -->
    <title>icons/copy/white</title>
    <desc>Created with Sketch.</desc>
    <defs></defs>
    <g id="03_Wallet-🔥" stroke="none" stroke-width="1" fill="none" fill-rule="evenodd">
        <g id="Wallet-Dashboard-Logged-Own-Dropdown-Lisk-XL" transform="translate(-1547.000000, -298.000000)" fill-rule="nonzero" fill="">
            <g id="Group-2" transform="translate(803.000000, 198.000000)">
                <g id="Group-34-Copy-3" transform="translate(48.000000, 46.000000)">
                    <g id="Group-12" transform="translate(696.000000, 44.000000)">
                        <g id="icons/copy/greyblue" transform="translate(0.000000, 10.000000)">
                            <path d="M7.875,0 L0.875,0 C0.391125,0 0,0.3576 0,0.8 L0,10.4 C0,10.8416 0.391125,11.2 0.875,11.2 L5.25,11.2 L5.250875,9.6 L1.75,9.6 L1.75,1.6 L7,1.6 L7,4.8 L8.75,4.8 L8.75,0.8 C8.75,0.3584 8.358875,0 7.875,0 Z" id="Shape" fill="#74869B"></path>
                            <path d="M13.0328947,4.66666667 L6.03289474,4.66666667 C5.54901974,4.66666667 5.15789474,5.02426667 5.15789474,5.46666667 L5.15789474,15.0666667 C5.15789474,15.5082667 5.54901974,15.8666667 6.03289474,15.8666667 L10.4078947,15.8666667 L10.4087697,14.2666667 L6.90789474,14.2666667 L6.90789474,6.26666667 L12.1578947,6.26666667 L12.1578947,9.46666667 L13.9078947,9.46666667 L13.9078947,5.46666667 C13.9078947,5.02506667 13.5167697,4.66666667 13.0328947,4.66666667 Z" id="Shape-Copy" fill="#74869B" transform="translate(9.532895, 10.266667) rotate(-180.000000) translate(-9.532895, -10.266667) "></path>
                            <path d="M13.0328947,4.66666667 L6.03289474,4.66666667 C5.54901974,4.66666667 5.15789474,5.02426667 5.15789474,5.46666667 L5.15789474,15.0666667 C5.15789474,15.5082667 5.54901974,15.8666667 6.03289474,15.8666667 L10.4078947,15.8666667 L10.4087697,14.2666667 L6.90789474,14.2666667 L6.90789474,6.26666667 L12.1578947,6.26666667 L12.1578947,9.46666667 L13.9078947,9.46666667 L13.9078947,5.46666667 C13.9078947,5.02506667 13.5167697,4.66666667 13.0328947,4.66666667 Z" id="Shape-Copy-2" fill="#74869B" transform="translate(9.532895, 10.266667) scale(-1, 1) rotate(-180.000000) translate(-9.532895, -10.266667) "></path>
                        </g>
                    </g>
                </g>
            </g>
        </g>
    </g>
</svg>