<svg xmlns="http://www.w3.org/2000/svg" width="21" height="14" viewBox="0 0 21 14">
  <g fill="none" fill-rule="evenodd" transform="translate(-.5 .5)">
    <polygon fill="#4070F4" points=".996 13 20.996 13 18.951 6.717 20.996 0 .996 0"/>
    <path fill="#111112" d="M12.6814167,4.44296667 C12.6814167,5.6927 11.70725,6.70583333 10.5055833,6.70583333 C9.30308333,6.70583333 8.32891667,5.6927 8.32891667,4.44296667 C8.32891667,3.19323333 9.30308333,2.1801 10.5055833,2.1801 C11.70725,2.1801 12.6814167,3.19323333 12.6814167,4.44296667"/>
    <path d="M12.6814167,4.44296667 C12.6814167,5.54752431 11.70725,6.44296667 10.5055833,6.44296667 C9.30308333,6.44296667 8.32891667,5.54752431 8.32891667,4.44296667 C8.32891667,3.33840903 9.30308333,2.44296667 10.5055833,2.44296667 C11.70725,2.44296667 12.6814167,3.33840903 12.6814167,4.44296667 Z"/>
    <path fill="#111112" d="M10.3950833,13.0038452 L5.86258333,12.9977785 C5.86508333,10.4142452 7.91091667,8.23038667 10.3950833,8.23038667 C12.88175,8.23038667 14.9284167,10.4177119 14.9284167,13.0038452 L10.3950833,13.0038452 Z"/>
    <path d="M10.3950833,12.9441867 L5.86258333,12.93812 C5.86508333,10.3545867 7.91091667,8.23038667 10.3950833,8.23038667 C12.88175,8.23038667 14.9284167,10.3580533 14.9284167,12.9441867 L10.3950833,12.9441867 Z"/>
  </g>
</svg>
