<svg width="20" height="20" viewBox="0 0 20 20" fill="none" xmlns="http://www.w3.org/2000/svg">
<path d="M2.29692 1.65002C2.29692 1.29104 2.0059 1.00002 1.64692 1.00002C1.28793 1.00002 0.996918 1.29104 0.996918 1.65002V18.3516C0.996918 18.7105 1.28793 19.0016 1.64692 19.0016C2.0059 19.0016 2.29692 18.7105 2.29692 18.3516V10.5195H7.94979C8.38477 10.5195 8.76986 10.2383 8.90231 9.82397L10.7515 4.03921C10.8546 3.7166 10.6139 3.38696 10.2752 3.38696H2.29692V1.65002Z" fill="#4070F4"/>
<path d="M12.4783 6.93802L10.3399 13.8706C10.3201 13.9349 10.3682 14.0001 10.4355 14.0001H17.7871C18.0633 14.0001 18.2871 13.7762 18.2871 13.5001V7.36749C18.2871 7.09135 18.0633 6.86749 17.7871 6.86749H12.5738C12.5299 6.86749 12.4912 6.89609 12.4783 6.93802Z" fill="#4070F4"/>
</svg>
