<?xml version="1.0" encoding="UTF-8"?>
<svg width="21px" height="14px" viewBox="0 0 21 14" version="1.1" xmlns="http://www.w3.org/2000/svg" xmlns:xlink="http://www.w3.org/1999/xlink">
    <!-- Generator: sketchtool 58 (101010) - https://sketch.com -->
    <title>E24966DA-769B-45DE-AAC3-2F0CF3564003</title>
    <desc>Created with sketchtool.</desc>
    <g id="Discovery---Blocks" stroke="none" stroke-width="1" fill="none" fill-rule="evenodd">
        <g id="Discovery---Blocks-details" transform="translate(-535.000000, -29.000000)">
            <g id="Group-10">
                <g id="Top-Navigation-Copy-2">
                    <g id="Wallet---Inactive-Copy" transform="translate(511.000000, 0.000000)">
                        <g id="Group-12" transform="translate(23.500000, 29.500000)">
                            <g id="Group-11">
                                <path d="M12.6814167,4.44296667 C12.6814167,5.6927 11.70725,6.70583333 10.5055833,6.70583333 C9.30308333,6.70583333 8.32891667,5.6927 8.32891667,4.44296667 C8.32891667,3.19323333 9.30308333,2.1801 10.5055833,2.1801 C11.70725,2.1801 12.6814167,3.19323333 12.6814167,4.44296667" id="Fill-1"></path>
                                <path d="M12.6814167,4.44296667 C12.6814167,5.54752431 11.70725,6.44296667 10.5055833,6.44296667 C9.30308333,6.44296667 8.32891667,5.54752431 8.32891667,4.44296667 C8.32891667,3.33840903 9.30308333,2.44296667 10.5055833,2.44296667 C11.70725,2.44296667 12.6814167,3.33840903 12.6814167,4.44296667 Z" id="Stroke-3" stroke="#8A8CA2"></path>
                                <path d="M10.3950833,12.9441867 L5.86258333,12.93812 C5.86508333,10.3545867 7.91091667,8.23038667 10.3950833,8.23038667 C12.88175,8.23038667 14.9284167,10.3580533 14.9284167,12.9441867 L10.3950833,12.9441867 Z" id="Fill-5"></path>
                                <path d="M10.3950833,12.9441867 L5.86258333,12.93812 C5.86508333,10.3545867 7.91091667,8.23038667 10.3950833,8.23038667 C12.88175,8.23038667 14.9284167,10.3580533 14.9284167,12.9441867 L10.3950833,12.9441867 Z" id="Stroke-7" stroke="#8A8CA2"></path>
                                <polygon id="Stroke-9" stroke="#8A8CA2" points="0.996333333 13 20.9963333 13 18.9511852 6.71653162 20.9963333 0 0.996333333 0"></polygon>
                            </g>
                        </g>
                    </g>
                </g>
            </g>
        </g>
    </g>
</svg>