<svg width="191" height="151" viewBox="0 0 191 151" fill="none" xmlns="http://www.w3.org/2000/svg">
<path d="M157.34 80.2132C173.14 80.2132 185.948 67.4008 185.948 51.5958C185.948 35.7908 173.14 22.9783 157.34 22.9783C141.541 22.9783 128.732 35.7908 128.732 51.5958C128.732 67.4008 141.541 80.2132 157.34 80.2132Z" fill="#FFD0D1"/>
<path d="M99.2473 28.2879C103.251 28.2879 106.497 25.0411 106.497 21.0359C106.497 17.0308 103.251 13.7839 99.2473 13.7839C95.2434 13.7839 91.9977 17.0308 91.9977 21.0359C91.9977 25.0411 95.2434 28.2879 99.2473 28.2879Z" fill="#FFD0D1"/>
<path d="M132.94 57.235C148.74 57.235 161.548 44.4225 161.548 28.6175C161.548 12.8125 148.74 0 132.94 0C117.14 0 104.332 12.8125 104.332 28.6175C104.332 44.4225 117.14 57.235 132.94 57.235Z" fill="#FFD0D1"/>
<path d="M164.093 23.744C164.484 25.6255 164.686 27.5729 164.686 29.571C164.686 30.854 164.595 32.1168 164.428 33.3542C163.946 29.7079 162.78 26.2797 161.061 23.2014C162.091 23.3333 163.105 23.5108 164.093 23.744Z" fill="#E9B7B8"/>
<path d="M116.641 42.168C125.665 42.168 132.981 34.8502 132.981 25.8232C132.981 16.7961 125.665 9.47827 116.641 9.47827C107.617 9.47827 100.302 16.7961 100.302 25.8232C100.302 34.8502 107.617 42.168 116.641 42.168Z" fill="#E9B7B8"/>
<path d="M113.538 44.1045C122.562 44.1045 129.877 36.7867 129.877 27.7597C129.877 18.7326 122.562 11.4148 113.538 11.4148C104.514 11.4148 97.1984 18.7326 97.1984 27.7597C97.1984 36.7867 104.514 44.1045 113.538 44.1045Z" fill="white"/>
<path d="M113.518 44.3537C110.106 44.3537 106.669 43.3091 103.719 41.1385C96.3423 35.7224 94.7505 25.3109 100.165 17.9372C105.579 10.5584 115.987 8.96605 123.359 14.3822C130.735 19.7984 132.327 30.2098 126.912 37.5835C123.668 42.0108 118.623 44.3537 113.518 44.3537ZM113.564 11.6741C108.611 11.6741 103.729 13.9461 100.581 18.2364C95.3284 25.387 96.8746 35.4789 104.023 40.7328C111.171 45.9867 121.26 44.44 126.512 37.2894C131.764 30.1388 130.218 20.0469 123.07 14.793C120.2 12.6884 116.864 11.6741 113.564 11.6741Z" fill="#0C152E"/>
<path d="M106.497 21.8575C103.85 21.8575 101.447 20.8331 99.6427 19.1748C99.8708 18.8046 100.109 18.4394 100.373 18.0845C104.231 12.8306 110.639 10.5535 116.641 11.7098C116.641 11.7098 116.641 11.7098 116.641 11.7149C116.641 17.3187 112.099 21.8575 106.497 21.8575Z" fill="#C5CFE4"/>
<path d="M103.399 20.2954C109.002 20.2954 113.544 15.7522 113.544 10.1477C113.544 4.54329 109.002 0 103.399 0C97.7967 0 93.2549 4.54329 93.2549 10.1477C93.2549 15.7522 97.7967 20.2954 103.399 20.2954Z" fill="#FFD0D1"/>
<path d="M173.244 74.8528L177.234 98.4445L137.609 101.645L123.947 71.5564L173.244 74.8528Z" fill="#0C152E"/>
<path d="M100.317 115.586C99.2069 115.586 98.0916 115.464 97.0016 115.226L31.1164 100.722C27.0911 99.8342 23.6539 97.4354 21.4384 93.9666C19.2179 90.4928 18.4879 86.3647 19.37 82.3432C20.2572 78.3165 22.6552 74.8782 26.1279 72.6569C29.6006 70.4357 33.7273 69.7004 37.7475 70.5878L94.0257 82.9771L119.597 49.4556C122.096 46.1795 125.721 44.0749 129.802 43.5222C133.883 42.9745 137.939 44.0496 141.214 46.5498C144.489 49.0499 146.593 52.6759 147.146 56.7583C147.698 60.8407 146.618 64.8978 144.119 68.1739L112.581 109.52C109.676 113.314 105.093 115.586 100.317 115.586ZM34.3965 70.7248C31.5828 70.7248 28.8249 71.526 26.3966 73.0779C23.0405 75.223 20.7186 78.5498 19.8618 82.4446C19.005 86.3343 19.7148 90.3305 21.8592 93.6877C24.0037 97.0449 27.3294 99.3676 31.2229 100.225L97.1081 114.729C98.1626 114.962 99.2424 115.079 100.317 115.079C104.936 115.079 109.372 112.883 112.175 109.206L143.713 67.8595C146.132 64.6899 147.171 60.7698 146.639 56.8192C146.106 52.8686 144.073 49.3643 140.905 46.9453C137.736 44.5263 133.817 43.4867 129.868 44.0192C125.919 44.5517 122.416 46.5853 119.998 49.7548L94.2285 83.5349L94.0713 83.4994L37.636 71.0747C36.5561 70.8414 35.4712 70.7248 34.3965 70.7248Z" fill="#0C152E"/>
<path d="M102.261 125.5H102.769L101.766 151H101.258L102.261 125.5Z" fill="#0C152E"/>
<path d="M130.314 137.874L129.833 138.026C129.893 138.216 131.518 143.357 133.971 151H134.501C132.021 143.274 130.375 138.065 130.314 137.874Z" fill="#0C152E"/>
<path d="M55.3188 59.9848L2.04636 64.5298L2.28669 67.3467L55.5592 62.8017L55.3188 59.9848Z" fill="#DFE6F2"/>
<path d="M55.8737 63.067L2.02161 67.6614L1.73183 64.2649L55.5839 59.6704L55.8737 63.067ZM2.55178 67.0324L55.2446 62.5368L55.0538 60.2995L2.3609 64.7951L2.55178 67.0324Z" fill="#0C152E"/>
<path d="M55.4039 60.9813L16.6334 64.2891L16.6828 64.8687L55.4533 61.5609L55.4039 60.9813Z" fill="#0C152E"/>
<path d="M18.0001 66.0063L14.9324 61.5973L0.314529 62.8445L3.37751 98.7459L58.2265 94.0664L55.5592 62.8019L18.0001 66.0063Z" fill="#F7E36D"/>
<path d="M58.5411 94.3311L3.11243 99.0601L0 62.5791L15.0758 61.2929L18.1434 65.7018L55.8242 62.4871L58.5411 94.3311ZM3.64259 98.431L57.912 93.801L55.2941 63.1161L17.8567 66.3101L14.7891 61.9012L0.629066 63.1093L3.64259 98.431Z" fill="#0C152E"/>
<path d="M28.9541 72.628L28.9541 72.628L28.9576 72.6212C29.0859 72.367 29.4284 72.3304 29.6065 72.5423C29.6068 72.5427 29.6071 72.543 29.6074 72.5433L39.2952 84.29L39.2952 84.29L39.2985 84.2939C39.507 84.5416 39.346 84.9174 39.0341 84.944L22.4339 86.3603C22.13 86.3862 21.9113 86.0684 22.0512 85.7897L28.9541 72.628Z" stroke="#0C152E"/>
<path d="M29.2254 83.0246C29.1745 82.4276 29.4795 82.0337 30.1171 81.9793C30.7315 81.9269 31.122 82.2614 31.1729 82.8584C31.2249 83.467 30.8967 83.8628 30.2823 83.9153C29.6447 83.9697 29.2769 83.6274 29.2254 83.0246ZM28.8408 77.3533L28.7523 76.3158L30.5259 76.1645L30.6145 77.202L30.6835 81.3647L29.4142 81.473L28.8408 77.3533Z" fill="#0C152E"/>
<path d="M118.973 105.139H99.2168V78.6765L126.948 77.4543L118.973 105.139Z" fill="#0C152E"/>
<path d="M176.833 96.8472L191 151H177.227L163.718 98.2114L176.833 96.8472Z" fill="#0C152E"/>
<path d="M141.735 110.255C133.761 121.564 129.599 124.678 124.833 126.235C123.581 126.645 121.883 127.203 117.974 127.203C112.407 127.203 102.364 126.077 82.7551 121.797C74.4561 119.987 66.6082 118.019 60.6615 116.259C50.9734 113.394 45.412 111.046 41.9089 106.162C37.0218 99.3565 38.5781 89.8732 45.3867 84.9895C50.938 81.0034 58.2687 81.3026 63.4296 85.2431C71.105 88.509 101.771 95.2894 114.111 96.6434C119.485 89.7261 129.948 73.0364 138.014 58.9533C142.182 51.681 151.449 49.1657 158.719 53.3292C165.989 57.4928 168.503 66.7682 164.341 74.0354C164.082 74.4868 157.908 85.2583 150.835 96.476C147.297 102.08 144.316 106.598 141.735 110.255Z" fill="white"/>
<path d="M159 83L114 97L119.009 89.7625L161.5 78.5L159 83Z" fill="#DFE6F2"/>
<path d="M117.97 127.458C110.923 127.458 99.3843 125.688 82.695 122.047C74.3909 120.231 66.533 118.263 60.5812 116.504C50.8373 113.623 45.2404 111.255 41.6968 106.31C36.7386 99.398 38.3254 89.7422 45.2303 84.7824C50.7714 80.8065 58.1275 80.9029 63.552 85.0208C71.0044 88.1751 101.022 94.9251 113.99 96.3755C119.034 89.8487 129.234 73.7574 137.787 58.8274C142.015 51.4486 151.46 48.8825 158.836 53.112C166.212 57.3415 168.778 66.7843 164.55 74.1681C163.891 75.3143 157.924 85.6953 151.039 96.6189C147.5 102.228 144.524 106.741 141.939 110.408C133.843 121.884 129.706 124.912 124.91 126.484C123.648 126.895 121.924 127.458 117.97 127.458ZM54.234 82.3735C51.1922 82.3735 48.1504 83.3117 45.5243 85.1983C38.8425 89.9958 37.3115 99.3371 42.1074 106.021C45.57 110.844 51.0908 113.172 60.7282 116.022C66.6699 117.782 74.5126 119.744 82.8066 121.555C99.2272 125.14 111.06 126.956 117.97 126.956C121.843 126.956 123.526 126.403 124.753 126.002C129.447 124.466 133.513 121.479 141.528 110.114C144.109 106.452 147.085 101.949 150.613 96.345C157.493 85.4316 163.455 75.0607 164.114 73.9146C168.2 66.7742 165.721 57.6407 158.588 53.5532C151.45 49.4607 142.319 51.9456 138.233 59.081C129.62 74.1124 119.338 90.3305 114.309 96.8015L114.223 96.913L114.081 96.8978C102.137 95.5894 71.339 88.8851 63.329 85.4772L63.2732 85.4468C60.5863 83.398 57.4127 82.3735 54.234 82.3735Z" fill="#0C152E"/>
<path d="M121.594 44.4908C100.287 50.0997 86.9179 70.8871 89.8481 92.1816L101.022 94.4941L174.253 75.218C168.194 52.1891 144.621 38.4306 121.594 44.4908Z" fill="#4070F4"/>
<path d="M123.931 49.4708C130.968 47.8632 136.372 45.221 135.992 43.5627C135.962 43.4257 135.881 43.304 135.774 43.1925C131.13 42.8476 126.355 43.2381 121.599 44.4907C117.599 45.5456 113.883 47.1278 110.502 49.1563C110.497 49.2324 110.487 49.3085 110.507 49.3795C110.877 51.0327 116.89 51.0784 123.931 49.4708Z" fill="#254898"/>
<path d="M128.54 43.2634C128.753 43.2431 128.96 43.2279 129.173 43.2126C128.96 43.2279 128.753 43.2431 128.54 43.2634Z" fill="#254898"/>
<path d="M110.502 49.3742C110.882 51.0326 116.895 51.0782 123.931 49.4706C130.968 47.863 136.372 45.2208 135.992 43.5625C135.962 43.4256 135.88 43.3039 135.774 43.1923C135.774 43.1923 135.774 43.1923 135.769 43.1923C133.594 43.03 131.389 43.0402 129.173 43.2126C128.96 43.2278 128.752 43.243 128.54 43.2633C128.164 43.2988 127.789 43.3444 127.414 43.3901C127.1 43.4306 126.785 43.4712 126.476 43.5118C126.157 43.5574 125.842 43.6031 125.523 43.6589C125.123 43.7248 124.722 43.8009 124.317 43.882C124.068 43.9327 123.82 43.9733 123.571 44.0291C122.917 44.1711 122.263 44.3232 121.604 44.4956C121.599 44.4956 121.594 44.4956 121.594 44.5007C120.702 44.734 119.835 45.0028 118.973 45.2918C118.76 45.3628 118.547 45.4338 118.334 45.5099C117.483 45.8091 116.636 46.1235 115.815 46.4684C114.988 46.8183 114.187 47.1986 113.391 47.5942C113.199 47.6906 113.001 47.792 112.808 47.8883C112.023 48.294 111.247 48.715 110.497 49.1663C110.492 49.2272 110.481 49.3032 110.502 49.3742Z" fill="#101C3D"/>
</svg>
