<svg width="241" height="161" viewBox="0 0 241 161" fill="none" xmlns="http://www.w3.org/2000/svg">
<path d="M157.549 99.3029C150.628 88.8565 143.704 77.594 140.133 70.7036C134.315 77.758 130.453 86.4449 129.334 95.9069C125.722 95.6116 121.263 95.7905 119 96.5C120.468 99.0552 122.467 101.575 124.349 104.659L134.828 105.135L136.201 97.084C141.732 97.6869 149.812 98.5195 157.549 99.3029Z" fill="#DFE6F2"/>
<path fill-rule="evenodd" clip-rule="evenodd" d="M2.52456 89.75H11.3828L49.8141 127.25H41.3299L41.1914 127.124L2.52456 89.75ZM3.7613 90.25L41.5243 126.75H48.5857L11.1792 90.25H3.7613Z" fill="#0C152E"/>
<path fill-rule="evenodd" clip-rule="evenodd" d="M10.5246 89.75H39.3828L77.8141 127.25H49.3299L49.1914 127.124L10.5246 89.75ZM11.7613 90.25L49.5243 126.75H76.5857L39.1792 90.25H11.7613Z" fill="#0C152E"/>
<path fill-rule="evenodd" clip-rule="evenodd" d="M48.5 132.5H102.5V127.5H48.5V132.5ZM103 133V127H48V133H103Z" fill="#0C152E"/>
<path fill-rule="evenodd" clip-rule="evenodd" d="M105.176 149.54L102.55 161.056L102.063 160.944L104.688 149.428C109.417 128.695 128.212 118.51 149.386 118.51H149.394L228.382 123.265V143.197C228.382 149.971 225.875 156.051 222 161H221.5C225.309 156.136 227.882 149.855 227.882 143.197V123.735L149.379 119.01C128.352 119.013 109.835 129.113 105.176 149.54Z" fill="#0C152E"/>
<path fill-rule="evenodd" clip-rule="evenodd" d="M124.189 56.012C115.849 56.012 109.06 62.8027 109.06 71.1465C109.06 76.2289 110.945 82.4991 120.064 97.8725L119.634 98.1275C110.513 82.7509 108.56 76.3771 108.56 71.1465C108.56 62.5267 115.572 55.512 124.189 55.512C132.125 55.512 138.785 61.4377 139.71 69.3019C140.305 71.0029 141.739 73.8401 143.718 77.362L143.282 77.607C141.294 74.0697 139.835 71.1857 139.228 69.4403L139.219 69.4143L139.216 69.387C138.333 61.7615 131.88 56.012 124.189 56.012Z" fill="#0C152E"/>
<path d="M183.336 131.881C183.336 131.881 136.193 124.227 123.529 131.881C115.104 136.971 111.627 137.012 107.884 141.076C115.182 126.143 131.392 118.76 149.386 118.76L160.115 119.42C174.628 122.275 187.395 124.929 187.395 124.929L183.336 131.881Z" fill="#0C152E"/>
<path d="M134.149 126.5L228.5 132L228.5 101.124L134.149 101.124L134.149 126.5Z" fill="#4070F4"/>
<path d="M209.915 101.128H228.368V104.032L218 106.095L214.851 106.718L209.915 107.699V101.128Z" fill="#0C152E"/>
<path d="M192.414 133.251C190.905 133.251 189.269 133.21 187.482 133.124C179.471 132.743 169.681 131.57 159.312 130.327C147.956 128.965 129.085 126.705 123.833 127.653C116.535 130.54 108.163 127.259 104.822 120.045C101.362 112.568 104.613 103.696 112.087 100.235C120.807 96.1948 134.254 97.2735 162.85 100.694C169.472 101.486 178.893 102.614 186.08 103.143C185.842 101.966 185.596 100.788 185.362 99.6687L185.342 99.5703C183.657 91.5028 188.827 83.5993 196.887 81.9095C204.947 80.2238 212.851 85.3957 214.541 93.4592L214.561 93.5576C216.976 105.107 218.718 113.45 215.561 121.505C213.844 125.885 209.666 131.397 199.49 132.817C197.453 133.112 195.14 133.251 192.414 133.251ZM124.628 127.317C124.624 127.317 124.62 127.321 124.616 127.321C124.62 127.321 124.624 127.321 124.628 127.317Z" fill="white"/>
<path d="M192.413 133.456C190.905 133.456 189.289 133.415 187.473 133.328C179.462 132.947 169.676 131.774 159.316 130.535C147.988 129.178 129.088 126.914 123.873 127.857C116.473 130.79 108.007 127.402 104.641 120.13C101.136 112.563 104.44 103.552 112.008 100.049C120.778 95.989 134.241 97.0636 162.883 100.492C169.561 101.292 178.679 102.383 185.833 102.92C185.612 101.834 185.382 100.747 185.169 99.7172L185.148 99.6187C184.32 95.665 185.083 91.625 187.293 88.2414C189.502 84.8577 192.897 82.5404 196.849 81.716C205.012 80.0098 213.039 85.2637 214.745 93.4256L214.765 93.524C217.188 105.106 218.935 113.478 215.757 121.59C214.023 126.02 209.796 131.598 199.522 133.029C197.46 133.316 195.136 133.456 192.413 133.456ZM127.469 127.234C135.193 127.234 149.907 128.997 159.332 130.125C169.721 131.368 179.499 132.541 187.494 132.918C189.302 133.004 190.913 133.045 192.413 133.045C195.115 133.045 197.423 132.906 199.469 132.623C209.546 131.22 213.683 125.765 215.376 121.438C218.513 113.441 216.774 105.119 214.368 93.606L214.347 93.5076C212.687 85.5672 204.877 80.4568 196.935 82.1138C193.09 82.9177 189.785 85.1735 187.637 88.4628C185.485 91.7522 184.747 95.6814 185.55 99.5285L185.571 99.627C185.804 100.743 186.05 101.924 186.288 103.101L186.342 103.367L186.071 103.347C178.868 102.818 169.598 101.706 162.829 100.898C134.27 97.4819 120.847 96.4032 112.176 100.419C104.817 103.827 101.603 112.592 105.01 119.958C108.286 127.029 116.518 130.326 123.758 127.463C124.017 127.418 124.308 127.377 124.627 127.344L124.529 127.131L124.632 127.344C124.632 127.344 124.636 127.344 124.64 127.344L124.627 127.316L124.64 127.344C125.419 127.271 126.374 127.234 127.469 127.234ZM124.697 127.472L124.714 127.504L124.697 127.472Z" fill="#0C152E"/>
<path d="M214.851 102.002C213.97 103.901 207.369 105.184 201.445 105.677C195.14 106.202 185.575 104.934 183.783 104.032L214.851 102.002Z" fill="#DFE6F2"/>
<path d="M208.589 85.6824C223.534 86.8997 236.628 75.8606 237.837 61.0259C239.045 46.1911 227.91 33.1784 212.965 31.961C198.021 30.7437 184.926 41.7828 183.718 56.6175C182.509 71.4523 193.645 84.4651 208.589 85.6824Z" fill="#FFD0D1"/>
<path d="M157.61 32.4688C161.398 32.7773 164.716 29.9799 165.022 26.2206C165.328 22.4613 162.506 19.1637 158.719 18.8552C154.932 18.5467 151.614 21.3441 151.308 25.1034C151.001 28.8627 153.823 32.1603 157.61 32.4688Z" fill="#FFD0D1"/>
<path d="M187.266 62.2348C202.211 63.4522 215.306 52.4131 216.514 37.5783C217.722 22.7436 206.587 9.73079 191.642 8.51345C176.698 7.29611 163.603 18.3352 162.395 33.17C161.186 48.0047 172.322 61.0175 187.266 62.2348Z" fill="#FFD0D1"/>
<path d="M219.294 33.2001C219.519 34.9961 219.562 36.8396 219.409 38.715C219.311 39.9193 219.128 41.0975 218.876 42.246C218.699 38.7865 217.858 35.4789 216.468 32.4572C217.431 32.6602 218.377 32.9049 219.294 33.2001Z" fill="#E9B7B8"/>
<path d="M173.002 46.8371C181.537 47.5324 189.016 41.2274 189.706 32.7545C190.397 24.2816 184.037 16.8494 175.501 16.1541C166.965 15.4588 159.486 21.7638 158.796 30.2367C158.106 38.7095 164.466 46.1418 173.002 46.8371Z" fill="#E9B7B8"/>
<path d="M169.919 48.4164C178.454 49.1116 185.933 42.8067 186.624 34.3338C187.314 25.8609 180.954 18.4287 172.418 17.7334C163.883 17.0381 156.404 23.3431 155.713 31.8159C155.023 40.2888 161.383 47.7211 169.919 48.4164Z" fill="white"/>
<path d="M169.881 48.6481C166.653 48.3852 163.482 47.1398 160.857 44.8752C154.294 39.2232 153.585 29.3282 159.27 22.8244C164.955 16.3157 174.922 15.623 181.48 21.2746C188.043 26.9266 188.752 36.8216 183.067 43.3255C179.66 47.2309 174.71 49.0414 169.881 48.6481ZM172.422 17.9781C167.737 17.5965 162.946 19.3528 159.64 23.1372C154.125 29.4442 154.816 39.0357 161.176 44.5178C167.536 49.9999 177.196 49.3254 182.711 43.0185C188.226 36.7116 187.535 27.12 181.175 21.6379C178.622 19.4414 175.544 18.2324 172.422 17.9781Z" fill="#0C152E"/>
<path d="M164.959 26.9917C162.456 26.7878 160.261 25.6411 158.681 23.9455C158.925 23.6156 159.179 23.2913 159.455 22.9784C163.506 18.3443 169.741 16.7007 175.33 18.2485C175.33 18.2485 175.33 18.2485 175.33 18.2533C174.902 23.5131 170.258 27.4233 164.959 26.9917Z" fill="#C5CFE4"/>
<path d="M162.149 25.2869C167.448 25.7186 172.091 21.8041 172.52 16.5437C172.948 11.2834 169 6.66905 163.7 6.23738C158.401 5.80571 153.758 9.72016 153.329 14.9805C152.901 20.2409 156.849 24.8552 162.149 25.2869Z" fill="#FFD0D1"/>
<path d="M178.974 57.2653C204.86 55.6165 227.179 75.2665 228.827 101.163L184.238 104.079L172 102.82L135 98.5C137.612 77.7467 155.892 58.7377 178.974 57.2653Z" fill="#4070F4"/>
<path d="M174.657 60.4705C170.418 61.0693 166.724 60.8355 165.301 59.9947C169.45 58.4813 173.878 57.5175 178.515 57.2221C180.27 57.1114 182.008 57.0991 183.722 57.177C182.869 58.4526 179.191 59.8307 174.657 60.4705Z" fill="#0C152E"/>
<path d="M116.937 32.807C125.925 32.807 133.211 25.5181 133.211 16.5269C133.211 7.53562 125.925 0.246765 116.937 0.246765C107.95 0.246765 100.664 7.53562 100.664 16.5269C100.664 25.5181 107.95 32.807 116.937 32.807Z" fill="#F7E36D"/>
<path d="M116.936 33.0518C107.827 33.0518 100.417 25.6392 100.417 16.5259C100.417 7.41256 107.827 0 116.936 0C126.046 0 133.456 7.41256 133.456 16.5259C133.456 25.6392 126.041 33.0518 116.936 33.0518ZM116.936 0.491549C108.097 0.491549 100.909 7.68292 100.909 16.5259C100.909 25.3689 108.097 32.5602 116.936 32.5602C125.776 32.5602 132.964 25.3689 132.964 16.5259C132.964 7.68292 125.771 0.491549 116.936 0.491549Z" fill="#0C152E"/>
<path d="M116.936 30.8595C109.036 30.8595 102.609 24.4301 102.609 16.526C102.609 8.62185 109.036 2.19238 116.936 2.19238C124.837 2.19238 131.264 8.62185 131.264 16.526C131.264 24.4301 124.832 30.8595 116.936 30.8595ZM116.936 2.68393C109.311 2.68393 103.1 8.8922 103.1 16.526C103.1 24.1597 109.306 30.368 116.936 30.368C124.567 30.368 130.773 24.1597 130.773 16.526C130.773 8.8922 124.562 2.68393 116.936 2.68393Z" fill="#0C152E"/>
<path d="M112.132 16.5299L116.353 20.753L120.575 16.5299L116.353 12.3069L112.132 16.5299Z" fill="#0C152E"/>
<path d="M116.936 32.806C125.923 32.806 133.21 25.5164 133.21 16.5259C133.21 7.53549 125.923 0.245815 116.936 0.245815C116.74 0.245815 116.548 0.255646 116.357 0.260561V0.245815C116.357 0.245815 136.9 -1.35663 136.635 16.5259C136.369 34.4085 116.357 32.806 116.357 32.806V32.7913C116.548 32.8011 116.74 32.806 116.936 32.806Z" fill="#0C152E"/>
<path fill-rule="evenodd" clip-rule="evenodd" d="M16.4931 133.25C8.0873 133.25 1.25 140.09 1.25 148.499V160.934H0.75V148.499C0.75 139.814 7.81097 132.75 16.4931 132.75H96.3118C101.454 132.75 106.028 135.229 108.902 139.053L108.502 139.353C105.718 135.649 101.29 133.25 96.3118 133.25H16.4931Z" fill="#0C152E"/>
</svg>
