<svg width="20" height="20" viewBox="0 0 20 20" fill="none" xmlns="http://www.w3.org/2000/svg">
<path fill-rule="evenodd" clip-rule="evenodd" d="M14.4548 11.8C16.4799 11.8 18.1 13.44 18.1 15.44C18.0595 17.4 16.4394 19 14.4142 19C12.4981 19 10.8839 17.5084 10.7749 15.6414L10.769 15.44V15C10.769 14.56 10.4045 14.2 9.95895 14.2C9.55055 14.2 9.21021 14.5025 9.15632 14.8918L9.14889 15V15.44L9.14091 15.6707C9.07202 16.6667 8.5616 17.6086 7.7718 18.24C6.19219 19.44 3.92404 19.2 2.66845 17.64C1.45337 16.08 1.69639 13.8 3.27599 12.6C4.8556 11.4 7.12376 11.64 8.33884 13.2C9.2704 12.4 10.6475 12.4 11.5386 13.2C12.2271 12.32 13.3207 11.8 14.4548 11.8ZM5.48719 13.19C4.24455 13.19 3.23719 14.1974 3.23719 15.44C3.23719 16.6826 4.24455 17.69 5.48719 17.69C6.72983 17.69 7.73719 16.6826 7.73719 15.44C7.73719 14.1974 6.72983 13.19 5.48719 13.19ZM14.5 13.15C13.2574 13.15 12.25 14.1574 12.25 15.4C12.25 16.6426 13.2574 17.65 14.5 17.65C15.7426 17.65 16.75 16.6426 16.75 15.4C16.75 14.1574 15.7426 13.15 14.5 13.15ZM14.2483 2.26364L14.3125 2.42583L16.4875 8.35226H18.25C18.6625 8.35226 19 8.79196 19 9.24903C19 9.66455 18.7211 9.94522 18.3604 9.99281L18.25 10H1.75C1.3375 10 1 9.7061 1 9.24903C1 8.83005 1.28359 8.42566 1.64859 8.36118L1.75 8.35226H3.5125L5.6875 2.42583C5.7625 2.25963 5.8375 2.09342 5.95 1.92721C6.59125 0.979828 7.774 0.744956 8.66231 1.3651L8.8 1.47014L10 2.46739L11.2 1.47014C11.3125 1.34548 11.5 1.26238 11.65 1.17928C12.65 0.704398 13.7861 1.20943 14.2483 2.26364ZM12.3177 2.68677L12.2355 2.74416L10.5144 4.05528C10.2748 4.2291 9.94538 4.25083 9.68334 4.12046L9.57562 4.05528L8.71508 3.39972L7.85454 2.74416C7.81542 2.70443 7.77631 2.6647 7.73719 2.6647C7.45904 2.55875 7.18088 2.67255 7.04009 2.89447L6.994 2.98254L4.9375 8.36875H15.13L13.096 2.98254C13.0569 2.94281 13.0569 2.90308 13.0178 2.86335C12.8439 2.61614 12.5465 2.55728 12.3177 2.68677Z" fill="#8A8CA2"/>
</svg>
