<?xml version="1.0" encoding="UTF-8"?>
<svg width="21px" height="17px" viewBox="0 0 21 17" version="1.1" xmlns="http://www.w3.org/2000/svg" xmlns:xlink="http://www.w3.org/1999/xlink">
    <!-- Generator: sketchtool 57 (101010) - https://sketch.com -->
    <title>1B10FF43-EE35-4079-8817-898085A330D3</title>
    <desc>Created with sketchtool.</desc>
    <defs>
        <polygon id="path-1" points="0.2169 0.1143 20.3169 0.1143 20.3169 8.55 0.2169 8.55"></polygon>
    </defs>
    <g id="🕶-14.0-Discrete-Mode" stroke="none" stroke-width="1" fill="none" fill-rule="evenodd">
        <g id="14.1.2-Discrete-Mode---Sign-In-Enabled" transform="translate(-356.000000, -512.000000)">
            <g id="Discrete-mode/On" transform="translate(355.792236, 512.000000)">
                <g>
                    <path d="M8.6169,13.2 C8.6169,14.4408 7.6077,15.45 6.3669,15.45 C5.1261,15.45 4.1169,14.4408 4.1169,13.2 C4.1169,11.9592 5.1261,10.95 6.3669,10.95 C7.6077,10.95 8.6169,11.9592 8.6169,13.2 M16.4169,13.2 C16.4169,14.4408 15.4077,15.45 14.1669,15.45 C12.9261,15.45 11.9169,14.4408 11.9169,13.2 C11.9169,11.9592 12.9261,10.95 14.1669,10.95 C15.4077,10.95 16.4169,11.9592 16.4169,13.2 M16.9014,11.637 L16.8954,11.625 C16.3335,10.6536 15.2877,10.05 14.1669,10.05 C12.9387,10.05 11.7969,10.7928 11.2935,11.9076 C11.0028,11.6763 10.6425,11.55 10.2669,11.55 C9.8916,11.55 9.5307,11.6763 9.2406,11.9076 C8.7369,10.7928 7.5951,10.05 6.3669,10.05 C5.2458,10.05 4.1988,10.6563 3.6309,11.6397 L3.3612,12.255 C3.2655,12.5598 3.2169,12.8778 3.2169,13.2 C3.2169,14.937 4.6299,16.35 6.3669,16.35 C8.1039,16.35 9.5169,14.937 9.5169,13.2 C9.5169,12.7863 9.8535,12.45 10.2669,12.45 C10.6806,12.45 11.0169,12.7863 11.0169,13.2 C11.0169,14.937 12.4302,16.35 14.1669,16.35 C15.9036,16.35 17.3169,14.937 17.3169,13.2 C17.3169,12.8163 17.2701,12.5136 17.1699,12.2472 C17.1096,12.0864 16.9035,11.6412 16.9014,11.637" id="Fill-1" fill="#8A8CA2"></path>
                    <g id="Group-5" transform="translate(0.000000, 0.000000)">
                        <mask id="mask-2" fill="white">
                            <use xlink:href="#path-1"></use>
                        </mask>
                        <g id="Clip-4"></g>
                        <path d="M6.0486,1.1121 L7.8801,1.8834 C9.2193,2.4471 11.3157,2.4471 12.6534,1.8834 L14.4855,1.1121 C14.7957,0.9813 15.0981,0.9834 15.3363,1.1178 C15.5766,1.2528 15.7359,1.5123 15.786,1.8486 L16.6455,7.65 L3.8883,7.65 L4.7478,1.8486 C4.7979,1.5129 4.9575,1.254 5.1978,1.1187 C5.4372,0.9843 5.7396,0.9822 6.0486,1.1121 M19.8669,7.65 L17.5554,7.65 L16.6758,1.7169 C16.5849,1.0992 16.2657,0.6081 15.7776,0.3333 C15.2913,0.0597 14.7084,0.042 14.136,0.2826 L12.3042,1.0539 C11.1999,1.5189 9.3339,1.5189 8.2299,1.0539 L6.3981,0.2826 C5.8254,0.042 5.2428,0.0603 4.7565,0.3342 C4.2681,0.6087 3.9489,1.0998 3.8577,1.7169 L2.9787,7.65 L0.6669,7.65 C0.4188,7.65 0.2169,7.8519 0.2169,8.1 C0.2169,8.3481 0.4188,8.55 0.6669,8.55 L19.8669,8.55 C20.115,8.55 20.3169,8.3481 20.3169,8.1 C20.3169,7.8519 20.115,7.65 19.8669,7.65" id="Fill-3" fill="#8A8CA2" mask="url(#mask-2)"></path>
                    </g>
                    <path d="M18.8166,16.8 C18.7185,16.8 18.6198,16.7682 18.537,16.7025 L1.437,3.126 C1.2423,2.9712 1.2099,2.6883 1.3644,2.4936 C1.5189,2.2992 1.8018,2.2668 1.9968,2.421 L19.0968,15.9975 C19.2912,16.1523 19.3236,16.4352 19.1694,16.6299 C19.0806,16.7418 18.9489,16.8 18.8166,16.8" id="Fill-6" fill="#8A8CA2"></path>
                </g>
            </g>
        </g>
    </g>
</svg>