<?xml version="1.0" encoding="UTF-8"?>
<svg width="21px" height="17px" viewBox="0 0 21 17" version="1.1" xmlns="http://www.w3.org/2000/svg" xmlns:xlink="http://www.w3.org/1999/xlink">
    <!-- Generator: sketchtool 57 (101010) - https://sketch.com -->
    <title>EA1E042B-3685-4B3A-B73C-A95CB92E2290</title>
    <desc>Created with sketchtool.</desc>
    <g id="🕶-14.0-Discrete-Mode" stroke="none" stroke-width="1" fill="none" fill-rule="evenodd">
        <g id="14.1.1-Discrete-Mode---Sign-In-Disabled" transform="translate(-356.000000, -512.000000)" fill="#8A8CA2">
            <g id="Discrete-mode/On" transform="translate(356.000000, 512.000000)">
                <g id="Group-15" transform="translate(-0.000000, 0.000000)">
                    <path d="M8.4,13.2714879 C8.4,14.5122879 7.3908,15.5214879 6.15,15.5214879 C4.9092,15.5214879 3.9,14.5122879 3.9,13.2714879 C3.9,12.0306879 4.9092,11.0214879 6.15,11.0214879 C7.3908,11.0214879 8.4,12.0306879 8.4,13.2714879 M16.2,13.2714879 C16.2,14.5122879 15.1908,15.5214879 13.95,15.5214879 C12.7092,15.5214879 11.7,14.5122879 11.7,13.2714879 C11.7,12.0306879 12.7092,11.0214879 13.95,11.0214879 C15.1908,11.0214879 16.2,12.0306879 16.2,13.2714879 M16.6848,11.7084879 L16.6785,11.6964879 C16.1166,10.7250879 15.0711,10.1214879 13.95,10.1214879 C12.7218,10.1214879 11.58,10.8642879 11.0763,11.9790879 C10.7862,11.7477879 10.4253,11.6214879 10.05,11.6214879 C9.6747,11.6214879 9.3138,11.7477879 9.0237,11.9790879 C8.52,10.8642879 7.3782,10.1214879 6.15,10.1214879 C5.0289,10.1214879 3.9819,10.7277879 3.414,11.7111879 L3.1443,12.3264879 C3.0486,12.6312879 3,12.9492879 3,13.2714879 C3,15.0084879 4.413,16.4214879 6.15,16.4214879 C7.887,16.4214879 9.3,15.0084879 9.3,13.2714879 C9.3,12.8577879 9.6366,12.5214879 10.05,12.5214879 C10.4634,12.5214879 10.8,12.8577879 10.8,13.2714879 C10.8,15.0084879 12.213,16.4214879 13.95,16.4214879 C15.687,16.4214879 17.1,15.0084879 17.1,13.2714879 C17.1,12.8877879 17.0532,12.5850879 16.953,12.3186879 C16.8927,12.1578879 16.6866,11.7126879 16.6848,11.7084879" id="Fill-8"></path>
                    <path d="M5.8317,1.18358792 L7.6632,1.95488792 C9.0024,2.51858792 11.0988,2.51858792 12.4368,1.95488792 L14.2686,1.18358792 C14.5788,1.05278792 14.8812,1.05488792 15.1197,1.18928792 C15.3597,1.32428792 15.5193,1.58378792 15.5691,1.92008792 L16.4286,7.72148792 L3.6714,7.72148792 L4.5309,1.92008792 C4.581,1.58438792 4.7406,1.32548792 4.9809,1.19018792 C5.2203,1.05578792 5.5227,1.05368792 5.8317,1.18358792 M19.65,7.72148792 L17.3382,7.72148792 L16.4592,1.78838792 C16.368,1.17068792 16.0488,0.679587916 15.561,0.404787916 C15.0744,0.131187916 14.4915,0.113487916 13.9191,0.354087916 L12.0873,1.12538792 C10.983,1.59038792 9.117,1.59038792 8.013,1.12538792 L6.1812,0.354087916 C5.6085,0.113487916 5.0259,0.131787916 4.5396,0.405687916 C4.0512,0.680187916 3.732,1.17128792 3.6408,1.78838792 L2.7618,7.72148792 L0.45,7.72148792 C0.2019,7.72148792 -4.4408921e-14,7.92338792 -4.4408921e-14,8.17148792 C-4.4408921e-14,8.41958792 0.2019,8.62148792 0.45,8.62148792 L19.65,8.62148792 C19.8981,8.62148792 20.1,8.41958792 20.1,8.17148792 C20.1,7.92338792 19.8981,7.72148792 19.65,7.72148792" id="Fill-10"></path>
                </g>
            </g>
        </g>
    </g>
</svg>