<svg width="20" height="20" viewBox="0 0 20 20" fill="none" xmlns="http://www.w3.org/2000/svg">
<path d="M9.5 15.1663C9.5 15.4424 9.72386 15.6663 10 15.6663C10.2761 15.6663 10.5 15.4424 10.5 15.1663L9.5 15.1663ZM16.5 10.8077C16.5 10.8096 16.5002 10.8203 16.4875 10.8442C16.4736 10.8703 16.4447 10.9107 16.3886 10.9618C16.2732 11.0667 16.0785 11.1841 15.7954 11.2929C15.2326 11.5094 14.4212 11.6539 13.5 11.6539V12.6539C14.5118 12.6539 15.4504 12.497 16.1544 12.2263C16.5047 12.0916 16.8224 11.9189 17.0613 11.7016C17.3004 11.4843 17.5 11.1829 17.5 10.8077H16.5ZM13.5 11.6539C12.5788 11.6539 11.7674 11.5094 11.2046 11.2929C10.9215 11.1841 10.7268 11.0667 10.6114 10.9618C10.5553 10.9107 10.5264 10.8703 10.5125 10.8442C10.4998 10.8203 10.5 10.8096 10.5 10.8077H9.5C9.5 11.1829 9.69963 11.4843 9.93866 11.7016C10.1776 11.9189 10.4953 12.0916 10.8456 12.2263C11.5496 12.497 12.4882 12.6539 13.5 12.6539V11.6539ZM16.5 12.9616C16.5 12.9635 16.5002 12.9742 16.4875 12.998C16.4736 13.0241 16.4447 13.0646 16.3886 13.1156C16.2732 13.2205 16.0785 13.3379 15.7954 13.4468C15.2326 13.6632 14.4212 13.8077 13.5 13.8077V14.8077C14.5118 14.8077 15.4504 14.6509 16.1544 14.3801C16.5047 14.2454 16.8224 14.0727 17.0613 13.8555C17.3004 13.6381 17.5 13.3368 17.5 12.9616H16.5ZM13.5 13.8077C12.5788 13.8077 11.7674 13.6632 11.2046 13.4468C10.9215 13.3379 10.7268 13.2205 10.6114 13.1156C10.5553 13.0646 10.5264 13.0241 10.5125 12.998C10.4998 12.9742 10.5 12.9635 10.5 12.9616H9.5C9.5 13.3368 9.69963 13.6381 9.93866 13.8555C10.1776 14.0727 10.4953 14.2454 10.8456 14.3801C11.5496 14.6509 12.4882 14.8077 13.5 14.8077V13.8077ZM16.5 15.1154C16.5 15.1173 16.5002 15.128 16.4875 15.1518C16.4736 15.178 16.4447 15.2184 16.3886 15.2695C16.2732 15.3743 16.0785 15.4917 15.7954 15.6006C15.2326 15.8171 14.4212 15.9616 13.5 15.9616V16.9616C14.5118 16.9616 15.4504 16.8047 16.1544 16.5339C16.5047 16.3992 16.8224 16.2265 17.0613 16.0093C17.3004 15.7919 17.5 15.4906 17.5 15.1154H16.5ZM13.5 15.9616C12.5788 15.9616 11.7674 15.8171 11.2046 15.6006C10.9215 15.4917 10.7268 15.3743 10.6114 15.2695C10.5553 15.2184 10.5264 15.178 10.5125 15.1518C10.4998 15.128 10.5 15.1173 10.5 15.1154H9.5C9.5 15.4906 9.69963 15.7919 9.93866 16.0093C10.1776 16.2265 10.4953 16.3992 10.8456 16.5339C11.5496 16.8047 12.4882 16.9616 13.5 16.9616V15.9616ZM17.5 10.8077C17.5 10.4325 17.3004 10.1312 17.0613 9.91382C16.8224 9.69659 16.5047 9.52391 16.1544 9.38919C15.4504 9.11844 14.5118 8.96158 13.5 8.96158V9.96158C14.4212 9.96158 15.2326 10.1061 15.7954 10.3225C16.0785 10.4314 16.2732 10.5488 16.3886 10.6537C16.4447 10.7047 16.4736 10.7452 16.4875 10.7713C16.5002 10.7951 16.5 10.8058 16.5 10.8077H17.5ZM13.5 8.96158C12.4882 8.96158 11.5496 9.11844 10.8456 9.38919C10.4953 9.52391 10.1776 9.69659 9.93866 9.91382C9.69963 10.1312 9.5 10.4325 9.5 10.8077H10.5C10.5 10.8058 10.4998 10.7951 10.5125 10.7713C10.5264 10.7452 10.5553 10.7047 10.6114 10.6537C10.7268 10.5488 10.9215 10.4314 11.2046 10.3225C11.7674 10.1061 12.5788 9.96158 13.5 9.96158V8.96158ZM9.5 10.8077V15.1154H10.5V10.8077H9.5ZM16.5 10.8077V15.1154H17.5V10.8077H16.5ZM9.5 4.34617C9.5 4.34806 9.50017 4.35876 9.48748 4.38262C9.47358 4.40873 9.44471 4.44918 9.38857 4.50023C9.27324 4.6051 9.07846 4.72249 8.79538 4.83137C8.23256 5.04784 7.42117 5.19232 6.5 5.19232V6.19232C7.51182 6.19232 8.45043 6.03546 9.15436 5.76472C9.50466 5.62999 9.82245 5.45731 10.0613 5.24008C10.3004 5.02272 10.5 4.72137 10.5 4.34617H9.5ZM6.5 5.19232C5.57883 5.19232 4.76744 5.04784 4.20462 4.83137C3.92154 4.72249 3.72676 4.6051 3.61143 4.50023C3.55529 4.44918 3.52642 4.40873 3.51252 4.38262C3.49983 4.35876 3.5 4.34806 3.5 4.34617H2.5C2.5 4.72137 2.69963 5.02272 2.93866 5.24008C3.17755 5.45731 3.49534 5.62999 3.84564 5.76472C4.54957 6.03546 5.48818 6.19232 6.5 6.19232V5.19232ZM9.5 6.5C9.5 6.50189 9.50017 6.5126 9.48748 6.53645C9.47358 6.56257 9.44471 6.60301 9.38857 6.65406C9.27324 6.75893 9.07846 6.87633 8.79538 6.9852C8.23256 7.20167 7.42117 7.34616 6.5 7.34616V8.34616C7.51182 8.34616 8.45043 8.18929 9.15436 7.91855C9.50466 7.78382 9.82245 7.61114 10.0613 7.39391C10.3004 7.17655 10.5 6.8752 10.5 6.5H9.5ZM6.5 7.34616C5.57883 7.34616 4.76744 7.20167 4.20462 6.9852C3.92154 6.87633 3.72676 6.75893 3.61143 6.65406C3.55529 6.60301 3.52642 6.56257 3.51252 6.53645C3.49983 6.5126 3.5 6.50189 3.5 6.5H2.5C2.5 6.8752 2.69963 7.17655 2.93866 7.39391C3.17755 7.61114 3.49534 7.78382 3.84564 7.91855C4.54957 8.18929 5.48818 8.34616 6.5 8.34616V7.34616ZM9.5 8.65384C9.5 8.65573 9.50017 8.66643 9.48748 8.69028C9.47358 8.7164 9.44471 8.75684 9.38857 8.80789C9.27324 8.91277 9.07846 9.03016 8.79538 9.13904C8.23256 9.35551 7.42117 9.49999 6.5 9.49999V10.5C7.51182 10.5 8.45043 10.3431 9.15436 10.0724C9.50466 9.93765 9.82245 9.76497 10.0613 9.54774C10.3004 9.33038 10.5 9.02904 10.5 8.65384H9.5ZM6.5 9.49999C5.57883 9.49999 4.76744 9.35551 4.20462 9.13904C3.92154 9.03016 3.72676 8.91277 3.61143 8.80789C3.55529 8.75684 3.52642 8.7164 3.51252 8.69028C3.49983 8.66643 3.5 8.65573 3.5 8.65384H2.5C2.5 9.02904 2.69963 9.33038 2.93866 9.54774C3.17755 9.76497 3.49534 9.93765 3.84564 10.0724C4.54957 10.3431 5.48818 10.5 6.5 10.5V9.49999ZM9.5 10.8077C9.5 10.8096 9.50017 10.8203 9.48748 10.8442C9.47358 10.8703 9.44471 10.9107 9.38857 10.9618C9.27324 11.0667 9.07846 11.1841 8.79539 11.2929C8.23256 11.5094 7.42117 11.6539 6.5 11.6539V12.6539C7.51182 12.6539 8.45043 12.497 9.15436 12.2263C9.50466 12.0915 9.82245 11.9189 10.0613 11.7016C10.3004 11.4843 10.5 11.1829 10.5 10.8077H9.5ZM6.5 11.6539C5.57883 11.6539 4.76744 11.5094 4.20462 11.2929C3.92154 11.1841 3.72676 11.0667 3.61143 10.9618C3.55529 10.9107 3.52642 10.8703 3.51252 10.8442C3.49983 10.8203 3.5 10.8096 3.5 10.8077H2.5C2.5 11.1829 2.69963 11.4843 2.93866 11.7016C3.17755 11.9189 3.49534 12.0915 3.84564 12.2263C4.54957 12.497 5.48818 12.6539 6.5 12.6539V11.6539ZM9.5 12.9616C9.5 12.9635 9.50017 12.9742 9.48748 12.998C9.47358 13.0241 9.44471 13.0646 9.38857 13.1156C9.27324 13.2205 9.07846 13.3379 8.79539 13.4468C8.23256 13.6632 7.42117 13.8077 6.5 13.8077V14.8077C7.51182 14.8077 8.45043 14.6508 9.15436 14.3801C9.50466 14.2454 9.82245 14.0727 10.0613 13.8555C10.3004 13.6381 10.5 13.3368 10.5 12.9616H9.5ZM6.5 13.8077C5.57883 13.8077 4.76744 13.6632 4.20462 13.4468C3.92154 13.3379 3.72676 13.2205 3.61143 13.1156C3.55529 13.0646 3.52642 13.0241 3.51252 12.998C3.49983 12.9742 3.5 12.9635 3.5 12.9616H2.5C2.5 13.3368 2.69963 13.6381 2.93866 13.8555C3.17755 14.0727 3.49534 14.2454 3.84564 14.3801C4.54957 14.6508 5.48818 14.8077 6.5 14.8077V13.8077ZM9.5 15.1154C9.5 15.1173 9.50017 15.128 9.48748 15.1518C9.47358 15.178 9.44471 15.2184 9.38857 15.2695C9.27324 15.3743 9.07846 15.4917 8.79539 15.6006C8.23256 15.8171 7.42117 15.9615 6.5 15.9615V16.9615C7.51182 16.9615 8.45043 16.8047 9.15436 16.5339C9.50466 16.3992 9.82245 16.2265 10.0613 16.0093C10.3004 15.7919 10.5 15.4906 10.5 15.1154H9.5ZM6.5 15.9615C5.57883 15.9615 4.76744 15.8171 4.20462 15.6006C3.92154 15.4917 3.72676 15.3743 3.61143 15.2694C3.55529 15.2184 3.52642 15.178 3.51252 15.1518C3.49983 15.128 3.5 15.1173 3.5 15.1154H2.5C2.5 15.4906 2.69963 15.7919 2.93866 16.0093C3.17755 16.2265 3.49534 16.3992 3.84564 16.5339C4.54957 16.8047 5.48818 16.9615 6.5 16.9615V15.9615ZM10.5 4.34617C10.5 3.97097 10.3004 3.66962 10.0613 3.45226C9.82245 3.23503 9.50466 3.06235 9.15436 2.92762C8.45043 2.65688 7.51182 2.50002 6.5 2.50002V3.50002C7.42117 3.50002 8.23256 3.6445 8.79538 3.86097C9.07846 3.96984 9.27324 4.08724 9.38857 4.19211C9.44471 4.24316 9.47358 4.28361 9.48748 4.30972C9.50017 4.33357 9.5 4.34428 9.5 4.34617H10.5ZM6.5 2.50002C5.48818 2.50002 4.54957 2.65688 3.84564 2.92762C3.49534 3.06235 3.17755 3.23503 2.93866 3.45226C2.69963 3.66962 2.5 3.97097 2.5 4.34617H3.5C3.5 4.34428 3.49983 4.33357 3.51252 4.30972C3.52642 4.28361 3.55529 4.24316 3.61143 4.19211C3.72676 4.08724 3.92154 3.96984 4.20462 3.86097C4.76744 3.6445 5.57883 3.50002 6.5 3.50002V2.50002ZM2.5 4.34617V15.1154H3.5V4.34617H2.5ZM9.5 4.34617L9.5 15.1663L10.5 15.1663L10.5 4.34617L9.5 4.34617Z" fill="#8A8CA2"/>
</svg>
