<svg width="20" height="20" viewBox="0 0 20 20" fill="none" xmlns="http://www.w3.org/2000/svg">
<path fill-rule="evenodd" clip-rule="evenodd" d="M17.2816 7.87618C17.9051 7.25165 18.2501 6.4179 18.2501 5.53491C18.2501 4.65118 17.9058 3.81884 17.2815 3.19478C16.0249 1.93498 13.8618 1.93512 12.6041 3.19492L3.57704 12.2375C3.41205 12.4027 3.29411 12.6109 3.23818 12.8374L2.28817 16.6477C2.17935 17.0862 2.30724 17.5495 2.62505 17.8703C2.8689 18.1146 3.19708 18.2501 3.53738 18.2501C3.64379 18.2501 3.74932 18.2371 3.85316 18.2105L7.65636 17.2581C7.88144 17.203 8.08882 17.0847 8.25453 16.9187L17.2816 7.87618ZM13.4751 4.06446C14.252 3.28626 15.6347 3.28626 16.4111 4.065C16.8045 4.45807 17.0193 4.9773 17.0193 5.53491C17.0193 6.09182 16.8037 6.61283 16.4106 7.00663L15.6632 7.75524L12.7541 4.7867L13.4751 4.06446ZM11.8845 5.65779L14.7936 8.62632L7.3835 16.0492C7.37554 16.0571 7.36749 16.0617 7.36037 16.0635L3.55091 17.0175C3.54517 17.0189 3.54224 17.0193 3.53738 17.0193C3.52315 17.0193 3.50854 17.0133 3.49772 17.0024C3.48369 16.9882 3.47742 16.9655 3.48254 16.9449L4.43274 13.1338C4.4351 13.1242 4.44064 13.1144 4.44807 13.107L11.8845 5.65779Z" fill="#8A8CA2"/>
</svg>
