<svg width="20" height="20" viewBox="0 0 20 20" fill="none" xmlns="http://www.w3.org/2000/svg">
<path d="M17.2816 7.87618C17.9051 7.25165 18.2501 6.4179 18.2501 5.53492C18.2501 4.65118 17.9058 3.81884 17.2815 3.19478C16.0249 1.93498 13.8618 1.93512 12.6041 3.19492L11.884 3.91631L16.5335 8.62556L17.2816 7.87618Z" fill="#4070F4"/>
<path d="M15.6639 9.49661L8.25453 16.9187C8.08882 17.0847 7.88144 17.203 7.65636 17.2581L3.85316 18.2105C3.74932 18.2371 3.64379 18.2501 3.53738 18.2501C3.19708 18.2501 2.8689 18.1146 2.62505 17.8703C2.30724 17.5495 2.17935 17.0862 2.28817 16.6477L3.23818 12.8374C3.29411 12.6109 3.41205 12.4027 3.57704 12.2375L11.0144 4.78736L15.6639 9.49661Z" fill="#4070F4"/>
</svg>
