<svg width="18" height="12" viewBox="0 0 18 12" fill="none" xmlns="http://www.w3.org/2000/svg">
<path fill-rule="evenodd" clip-rule="evenodd" d="M16.4739 5.80856C16.569 5.91881 16.569 6.0812 16.4739 6.19145C15.8032 6.96894 14.7697 8.03784 13.5089 8.93339C12.1245 9.91668 10.5761 10.6133 9 10.6133C7.42394 10.6133 5.87546 9.91668 4.49112 8.93339C3.23032 8.03784 2.19684 6.96894 1.52609 6.19145C1.43098 6.08119 1.43098 5.91881 1.52609 5.80855C2.19684 5.03106 3.23032 3.96216 4.49113 3.06661C5.87546 2.08332 7.42395 1.38667 9 1.38667C10.5761 1.38667 12.1245 2.08332 13.5089 3.06661C14.7697 3.96216 15.8032 5.03106 16.4739 5.80856ZM17.6732 5.10784C18.1089 5.62782 18.1089 6.37218 17.6732 6.89216C16.2726 8.56372 12.9169 12 9 12C5.08308 12 1.72741 8.56372 0.326776 6.89216C-0.108926 6.37218 -0.108925 5.62782 0.326777 5.10784C1.72741 3.43628 5.08308 0 9 0C12.9169 0 16.2726 3.43628 17.6732 5.10784ZM10.2 6C10.2 6.66274 9.66274 7.2 9 7.2C8.33726 7.2 7.8 6.66274 7.8 6C7.8 5.33726 8.33726 4.8 9 4.8C9.66274 4.8 10.2 5.33726 10.2 6ZM11.5 6C11.5 7.38071 10.3807 8.5 9 8.5C7.61929 8.5 6.5 7.38071 6.5 6C6.5 4.61929 7.61929 3.5 9 3.5C10.3807 3.5 11.5 4.61929 11.5 6Z" fill="#8A8CA2"/>
</svg>
