<svg width="20" height="20" viewBox="0 0 20 20" fill="none" xmlns="http://www.w3.org/2000/svg">
<path d="M12.7882 2.93902C12.7882 1.9368 11.9837 1 10.8342 1H3.95402C2.80447 1 2 1.9368 2 2.93902V13.7629C2 14.0056 2.06993 14.2476 2.20784 14.4587C2.59943 15.0581 3.45572 15.2644 4.10024 14.817L6.21179 13.3513V5.86841C6.21179 4.86618 7.01627 3.92938 8.16581 3.92938H12.7882V2.93902Z" fill="#4070F4"/>
<path d="M16.046 4.92938C17.1955 4.92938 18 5.86618 18 6.8684V17.7057C18 18.3519 17.4755 19 16.6714 19C16.3932 19 16.1283 18.9154 15.91 18.7669L12.563 16.4898L9.31203 18.7464C8.66751 19.1938 7.81122 18.9875 7.41963 18.3881C7.28172 18.177 7.21179 17.9349 7.21179 17.6923V6.86841C7.21179 5.86618 8.01627 4.92938 9.16581 4.92938H16.046Z" fill="#4070F4"/>
</svg>
