<svg width="20" height="20" viewBox="0 0 20 20" fill="none" xmlns="http://www.w3.org/2000/svg">
<path d="M10.0751 1C10.4479 1 10.7501 1.30221 10.7501 1.675V2.92393C10.7501 3.29672 10.4479 3.59893 10.0751 3.59893H9.92508C9.55229 3.59893 9.25008 3.29672 9.25008 2.92393V1.675C9.25008 1.30221 9.55229 1 9.92508 1H10.0751Z" fill="#8A8CA2"/>
<path d="M1 10.1137C1 9.74086 1.30221 9.43866 1.675 9.43866H2.92393C3.29672 9.43866 3.59893 9.74086 3.59893 10.1137V10.2637C3.59893 10.6364 3.29672 10.9387 2.92393 10.9387H1.675C1.30221 10.9387 1 10.6364 1 10.2637V10.1137Z" fill="#8A8CA2"/>
<path d="M16.401 10.1137C16.401 9.74086 16.7032 9.43866 17.076 9.43866H18.3249C18.6977 9.43866 18.9999 9.74086 18.9999 10.1137V10.2637C18.9999 10.6364 18.6977 10.9387 18.3249 10.9387H17.076C16.7032 10.9387 16.401 10.6364 16.401 10.2637V10.1137Z" fill="#8A8CA2"/>
<path d="M10.7501 17.0761C10.7501 16.7033 10.4479 16.4011 10.0751 16.4011H9.92508C9.55229 16.4011 9.25008 16.7033 9.25008 17.0761V18.325C9.25008 18.6978 9.55229 19 9.92508 19H10.0751C10.4479 19 10.7501 18.6978 10.7501 18.325V17.0761Z" fill="#8A8CA2"/>
<path d="M15.5338 14.4732C15.2702 14.2096 14.8428 14.2096 14.5792 14.4732L14.4731 14.5793C14.2095 14.8429 14.2095 15.2703 14.4731 15.5339L15.3562 16.417C15.6199 16.6806 16.0472 16.6806 16.3108 16.417L16.4169 16.3109C16.6805 16.0473 16.6805 15.6199 16.4169 15.3563L15.5338 14.4732Z" fill="#8A8CA2"/>
<path d="M3.68908 3.58297C3.95268 3.31937 4.38007 3.31937 4.64367 3.58297L5.5268 4.4661C5.7904 4.7297 5.7904 5.15709 5.5268 5.42069L5.42073 5.52676C5.15713 5.79036 4.72974 5.79036 4.46614 5.52676L3.58301 4.64363C3.31941 4.38003 3.31941 3.95264 3.58301 3.68904L3.68908 3.58297Z" fill="#8A8CA2"/>
<path d="M14.4733 4.46622C14.2097 4.72982 14.2097 5.15721 14.4733 5.42081L14.5794 5.52688C14.843 5.79048 15.2704 5.79048 15.534 5.52688L16.4171 4.64375C16.6807 4.38015 16.6807 3.95276 16.4171 3.68916L16.311 3.58309C16.0474 3.31949 15.62 3.31949 15.3564 3.58309L14.4733 4.46622Z" fill="#8A8CA2"/>
<path d="M3.58297 16.3109C3.31937 16.0473 3.31937 15.6199 3.58297 15.3563L4.4661 14.4732C4.7297 14.2096 5.15709 14.2096 5.42069 14.4732L5.52676 14.5793C5.79036 14.8429 5.79036 15.2703 5.52676 15.5339L4.64363 16.417C4.38003 16.6806 3.95264 16.6806 3.68904 16.417L3.58297 16.3109Z" fill="#8A8CA2"/>
<path fill-rule="evenodd" clip-rule="evenodd" d="M10 4.70181C7.1059 4.70181 4.75825 7.03573 4.75825 9.91665C4.75825 12.7976 7.1059 15.1315 10 15.1315C12.8941 15.1315 15.2417 12.7976 15.2417 9.91665C15.2417 7.03573 12.8941 4.70181 10 4.70181ZM9.99998 5.98077C12.1894 5.98077 13.9628 7.74377 13.9628 9.91666C13.9628 12.0895 12.1894 13.8525 9.99998 13.8525C7.81055 13.8525 6.03718 12.0895 6.03718 9.91666C6.03718 7.74377 7.81055 5.98077 9.99998 5.98077Z" fill="#8A8CA2"/>
</svg>
