<?xml version="1.0" encoding="utf-8"?>
<!-- Generator: Adobe Illustrator 24.0.0, SVG Export Plug-In . SVG Version: 6.00 Build 0)  -->
<svg version="1.1" id="Layer_1" xmlns="http://www.w3.org/2000/svg" xmlns:xlink="http://www.w3.org/1999/xlink" x="0px" y="0px"
	 viewBox="0 0 39.2 39.2" style="enable-background:new 0 0 39.2 39.2;" xml:space="preserve" width="40px" height="40px">
<g>
	<g>
		<g>
			<path fill="#BEC1CD" d="M20.2,17.1v8.8h10.1v-8.8H20.2z M25.8,22.1c0,0.3-0.2,0.5-0.5,0.5s-0.5-0.2-0.5-0.5V21
				c0-0.3,0.2-0.5,0.5-0.5s0.5,0.2,0.5,0.5V22.1z"/>
			<g>
				<path fill="#BEC1CD" d="M28.8,18.1h-1v-2.4c0-1.4-1.1-2.5-2.5-2.5s-2.5,1.1-2.5,2.5v2.4h-1v-2.4c0-1.9,1.6-3.5,3.5-3.5
					s3.5,1.6,3.5,3.5V18.1z"/>
			</g>
		</g>
		<g>
			<path fill="#BEC1CD" d="M8.8,17.1v8.8H19v-8.8H8.8z M14.4,22.1c0,0.3-0.2,0.5-0.5,0.5c-0.3,0-0.5-0.2-0.5-0.5V21
				c0-0.3,0.2-0.5,0.5-0.5c0.3,0,0.5,0.2,0.5,0.5V22.1z"/>
			<g>
				<path fill="#BEC1CD" d="M17.4,18.1h-1v-2.4c0-1.4-1.1-2.5-2.5-2.5c-1.4,0-2.5,1.1-2.5,2.5v2.4h-1v-2.4c0-1.9,1.6-3.5,3.5-3.5
					c1.9,0,3.5,1.6,3.5,3.5V18.1z"/>
			</g>
		</g>
	</g>
	<path fill="#BEC1CD" d="M19.6,1c10.3,0,18.6,8.3,18.6,18.6c0,10.3-8.3,18.6-18.6,18.6C9.3,38.2,1,29.9,1,19.6C1,9.3,9.3,1,19.6,1
		 M19.6,0C8.8,0,0,8.8,0,19.6s8.8,19.6,19.6,19.6c10.8,0,19.6-8.8,19.6-19.6S30.4,0,19.6,0L19.6,0z"/>
</g>
</svg>
