<svg width="20" height="20" viewBox="0 0 20 20" fill="none" xmlns="http://www.w3.org/2000/svg">
<path fill-rule="evenodd" clip-rule="evenodd" d="M2 1C1.44772 1 1 1.44772 1 2V6C1 6.55228 1.44772 7 2 7H3V13H2C1.44772 13 1 13.4477 1 14V18C1 18.5523 1.44772 19 2 19H6C6.55228 19 7 18.5523 7 18V17H13V18C13 18.5523 13.4477 19 14 19H18C18.5523 19 19 18.5523 19 18V14C19 13.4477 18.5523 13 18 13H17V7H18C18.5523 7 19 6.55228 19 6V2C19 1.44772 18.5523 1 18 1H14C13.4477 1 13 1.44772 13 2V3H7V2C7 1.44772 6.55228 1 6 1H2ZM15 7H14C13.4477 7 13 6.55228 13 6V5H7V6C7 6.55228 6.55228 7 6 7H5V13H6C6.55228 13 7 13.4477 7 14V15H13V14C13 13.4477 13.4477 13 14 13H15V7Z" fill="#4070F4"/>
</svg>
