<?xml version="1.0" encoding="UTF-8"?>
<svg width="40px" height="40px" viewBox="0 0 40 40" version="1.1" xmlns="http://www.w3.org/2000/svg" xmlns:xlink="http://www.w3.org/1999/xlink">
    <!-- Generator: sketchtool 58 (101010) - https://sketch.com -->
    <title>A54E9159-75CB-436A-A87D-C9CEBA63DB96</title>
    <desc>Created with sketchtool.</desc>
    <g id="🌑-Dark-mode" stroke="none" stroke-width="1" fill="none" fill-rule="evenodd">
        <g id="Dashboard---Dark-mode" transform="translate(-487.000000, -246.000000)">
            <g id="Community-Feed---5-Col" transform="translate(467.000000, 179.000000)">
                <g id="item">
                    <g transform="translate(20.000000, 67.000000)">
                        <g id="Group">
                            <path d="M0,20 C0,31.0460322 8.95377749,40 19.999575,40 C31.0453724,40 40,31.0460322 40,20 C40,8.95396778 31.0453724,0 19.999575,0 C8.95377749,0 0,8.95396778 0,20" id="Fill-1" fill="#3B3B41"></path>
                            <g id="Group-6" transform="translate(8.420842, 7.368421)" stroke="#4070F4" stroke-width="1.5">
                                <g id="Group-5">
                                    <path d="M16.0368421,5.03877247 C16.0368421,7.50174657 14.0413426,9.49909846 11.5794394,9.49909846 C9.11753611,9.49909846 7.12105263,7.50174657 7.12105263,5.03877247 C7.12105263,2.57579837 9.11753611,0.579430874 11.5794394,0.579430874 C14.0413426,0.579430874 16.0368421,2.57579837 16.0368421,5.03877247 Z" id="Stroke-1"></path>
                                    <path d="M22.5797579,23.6313271 C22.5797579,17.5949031 17.6144599,12.6265424 11.5791751,12.6265424 C5.55088372,12.6265424 0.587916835,17.585575 0.579757895,23.617335" id="Shape"></path>
                                </g>
                            </g>
                        </g>
                    </g>
                </g>
            </g>
        </g>
    </g>
</svg>