<?xml version="1.0" encoding="UTF-8"?>
<svg width="32px" height="32px" viewBox="0 0 32 32" version="1.1" xmlns="http://www.w3.org/2000/svg" xmlns:xlink="http://www.w3.org/1999/xlink">
    <!-- Generator: sketchtool 60.1 (101010) - https://sketch.com -->
    <title>8C0FF321-58A5-42BB-BCFB-80F56C05A990</title>
    <desc>Created with sketchtool.</desc>
    <g id="ðŸ -Dashboard" stroke="none" stroke-width="1" fill="none" fill-rule="evenodd">
        <g id="1.1-Dashboard---News-feed----Bigger-width" transform="translate(-487.000000, -251.000000)">
            <g id="blog-icon" transform="translate(487.000000, 251.000000)">
                <rect id="Rectangle" fill="#F0F4FF" x="0" y="0" width="32" height="32" rx="16"></rect>
                <g id="Combined-Shape-2" transform="translate(8.000000, 11.000000)" fill="#4070F4">
                    <path d="M15.8333333,8.33333333 C16.2935706,8.33333333 16.6666667,8.70642938 16.6666667,9.16666667 C16.6666667,9.62690396 16.2935706,10 15.8333333,10 L0.833333333,10 C0.373096042,10 5.63628126e-17,9.62690396 0,9.16666667 C-5.63628126e-17,8.70642938 0.373096042,8.33333333 0.833333333,8.33333333 L15.8333333,8.33333333 Z M4.66666667,0 C5.77123617,-2.02906125e-16 6.66666667,0.8954305 6.66666667,2 L6.66666667,3.83333333 C6.66666667,4.93790283 5.77123617,5.83333333 4.66666667,5.83333333 L2,5.83333333 C0.8954305,5.83333333 1.3527075e-16,4.93790283 0,3.83333333 L0,2 C-1.3527075e-16,0.8954305 0.8954305,2.02906125e-16 2,0 L4.66666667,0 Z M15.8333333,4.16666667 C16.2935706,4.16666667 16.6666667,4.53976271 16.6666667,5 C16.6666667,5.46023729 16.2935706,5.83333333 15.8333333,5.83333333 L10,5.83333333 C9.53976271,5.83333333 9.16666667,5.46023729 9.16666667,5 C9.16666667,4.53976271 9.53976271,4.16666667 10,4.16666667 L15.8333333,4.16666667 Z M15.8333333,0 C16.2935706,-1.19860598e-16 16.6666667,0.373096042 16.6666667,0.833333333 C16.6666667,1.29357062 16.2935706,1.66666667 15.8333333,1.66666667 L10,1.66666667 C9.53976271,1.66666667 9.16666667,1.29357062 9.16666667,0.833333333 C9.16666667,0.373096042 9.53976271,3.06588824e-16 10,0 L15.8333333,0 Z" id="Combined-Shape"></path>
                </g>
            </g>
        </g>
    </g>
</svg>