<?xml version="1.0" encoding="UTF-8"?>
<svg width="15px" height="13px" viewBox="0 0 15 13" version="1.1" xmlns="http://www.w3.org/2000/svg" xmlns:xlink="http://www.w3.org/1999/xlink">
    <!-- Generator: sketchtool 54.1 (76490) - https://sketchapp.com -->
    <title>4B33E267-25B2-4CDD-BB28-A2BA99A81769</title>
    <desc>Created with sketchtool.</desc>
    <g id="💰-2.0-My-Wallet" stroke="none" stroke-width="1" fill="none" fill-rule="evenodd">
        <g id="2.1.1-Wallet" transform="translate(-44.000000, -843.000000)" fill="#8A8CA2" fill-rule="nonzero">
            <g id="Group-10" transform="translate(24.000000, 479.000000)">
                <g id="Transactions---12-Col">
                    <g id="Items" transform="translate(19.000000, 62.000000)">
                        <g id="outgoing" transform="translate(8.000000, 308.200000) scale(1, -1) rotate(90.000000) translate(-8.000000, -308.200000) translate(2.000000, 301.200000)">
                            <path d="M5.1,0 L5.1,12.5 C5.1,12.7761424 5.32385763,13 5.6,13 C5.87614237,13 6.1,12.7761424 6.1,12.5 L6.1,0 C6.1,-0.276142375 5.87614237,-0.5 5.6,-0.5 C5.32385763,-0.5 5.1,-0.276142375 5.1,0 Z" id="Path"></path>
                            <path d="M0.353553391,7.24644661 C0.158291245,7.05118446 -0.158291245,7.05118446 -0.353553391,7.24644661 C-0.548815536,7.44170876 -0.548815536,7.75829124 -0.353553391,7.95355339 L5.24644661,13.5535534 C5.44170876,13.7488155 5.75829124,13.7488155 5.95355339,13.5535534 L11.5535534,7.95355339 C11.7488155,7.75829124 11.7488155,7.44170876 11.5535534,7.24644661 C11.3582912,7.05118446 11.0417088,7.05118446 10.8464466,7.24644661 L5.6,12.4928932 L0.353553391,7.24644661 Z" id="Path"></path>
                        </g>
                    </g>
                </g>
            </g>
        </g>
    </g>
</svg>