<svg width="20" height="20" viewBox="0 0 20 20" fill="none" xmlns="http://www.w3.org/2000/svg">
<path fill-rule="evenodd" clip-rule="evenodd" d="M4 1C2.34315 1 1 2.34315 1 4V16C1 17.6569 2.34315 19 4 19H16C17.6569 19 19 17.6569 19 16V4C19 2.34315 17.6569 1 16 1H4ZM10.025 5C10.384 5 10.675 5.29101 10.675 5.65V9.51238H14.35C14.709 9.51238 15 9.8034 15 10.1624C15 10.5214 14.709 10.8124 14.35 10.8124H10.675V14.35C10.675 14.709 10.384 15 10.025 15C9.66602 15 9.375 14.709 9.375 14.35V10.8124H5.65C5.29101 10.8124 5 10.5214 5 10.1624C5 9.8034 5.29101 9.51238 5.65 9.51238H9.375V5.65C9.375 5.29101 9.66602 5 10.025 5Z" fill="#4070F4"/>
</svg>
