<svg width="16" height="14" viewBox="0 0 16 14" fill="none" xmlns="http://www.w3.org/2000/svg">
<path fill-rule="evenodd" clip-rule="evenodd" d="M2.93541 5.58541C3.45668 3.30517 5.50937 1.6 7.96442 1.6C10.3954 1.6 12.4299 3.27074 12.9769 5.51634L12.4195 4.97107C12.1827 4.73934 11.8028 4.74351 11.5711 4.98038C11.3393 5.21725 11.3435 5.59713 11.5804 5.82886L13.1517 7.36603C13.4797 7.68696 14.01 7.6667 14.3126 7.32168L15.6511 5.79559C15.8696 5.54646 15.8447 5.16738 15.5956 4.94888C15.3465 4.73038 14.9674 4.75521 14.7489 5.00433L14.222 5.60506C13.6898 2.64398 11.0883 0.4 7.96442 0.4C4.94155 0.4 2.40977 2.50006 1.76559 5.31799C1.69174 5.64103 1.89375 5.96277 2.21679 6.03661C2.53982 6.11046 2.86156 5.90845 2.93541 5.58541ZM7.96442 12.6538C5.76287 12.6538 3.8864 11.2835 3.14558 9.35685L3.55812 9.80591C3.78231 10.0499 4.16186 10.066 4.40589 9.84185C4.64992 9.61767 4.66601 9.23811 4.44183 8.99408L2.87981 7.29378C2.54664 6.93112 1.96804 6.95271 1.66283 7.3392L0.329095 9.02815C0.123729 9.28821 0.168067 9.66551 0.428127 9.87088C0.688187 10.0762 1.06549 10.0319 1.27086 9.77185L1.8043 9.09633C2.50598 11.833 4.99997 13.8538 7.96442 13.8538C10.9252 13.8538 13.4147 11.8391 14.1211 9.10888C14.2041 8.78808 14.0113 8.46072 13.6905 8.37772C13.3697 8.29471 13.0424 8.48749 12.9593 8.80829C12.3876 11.0182 10.3689 12.6538 7.96442 12.6538Z" fill="#4070F4"/>
</svg>
