<svg xmlns="http://www.w3.org/2000/svg" width="18" height="18">
  <path fill="none" stroke="#8A8CA2" stroke-linejoin="round" d="M9.071 13.571a4.571 4.571 0 1 1 0-9.142 4.571 4.571 0 0 1 0 9.142zm7.815-3.284l-.705-.615a7.085 7.085 0 0 0-.037-1.683l.687-.652a.542.542 0 0 0 .128-.615l-.923-2.009a.543.543 0 0 0-.542-.325l-.942.072a7.054 7.054 0 0 0-1.212-1.157v-.941a.543.543 0 0 0-.343-.526l-2.026-.795a.542.542 0 0 0-.615.144l-.615.706a7.117 7.117 0 0 0-1.683.036l-.633-.67a.542.542 0 0 0-.615-.126l-2.025.904a.543.543 0 0 0-.327.543l.073.942c-.432.35-.82.752-1.158 1.193h-.94a.542.542 0 0 0-.525.345l-.796 2.044a.545.545 0 0 0 .145.616l.705.615a7.047 7.047 0 0 0 .037 1.683l-.67.633a.543.543 0 0 0-.127.615l.887 2.027a.542.542 0 0 0 .542.325l.941-.072c.357.433.764.822 1.213 1.158v.94c-.01.232.129.442.343.526l2.044.796.2.036a.542.542 0 0 0 .415-.18l.615-.706a7.08 7.08 0 0 0 1.682-.037l.652.688c.157.169.404.22.614.127l2.027-.887a.541.541 0 0 0 .325-.543l-.072-.94a7.086 7.086 0 0 0 1.158-1.213h.94a.54.54 0 0 0 .525-.343l.778-2.064a.544.544 0 0 0-.145-.615z"/>
</svg>
