<svg width="68" height="91" viewBox="0 0 68 91" fill="none" xmlns="http://www.w3.org/2000/svg">
<g clip-path="url(#clip0)">
<path d="M53.5818 80.1584L35.8182 90.6334L18.15 80.0103C9.4946 74.805 4.24897 65.633 4.29337 55.7784L4.52868 3.69764L4.67075 3.75774C14.7669 7.9971 26.2748 7.76742 36.18 3.12452L36.2133 3.1095C46.0741 7.84469 57.5799 8.1817 67.7181 4.03464L67.8913 3.96381L67.6582 56.0424C67.6116 65.8992 62.2838 75.0261 53.5818 80.1584Z" fill="white"/>
<path d="M35.8204 90.7407C35.8004 90.7407 35.7804 90.7364 35.7627 90.7235L18.0923 80.1005C13.8301 77.5376 10.2915 73.9379 7.86296 69.6899C5.43438 65.442 4.16238 60.6317 4.18236 55.7763L4.41767 3.69771C4.41767 3.66122 4.43765 3.62903 4.46873 3.60756C4.49981 3.58824 4.53976 3.58395 4.57306 3.59897L4.71514 3.65908C14.7935 7.89199 26.2437 7.66231 36.1312 3.028L36.1645 3.01298C36.1956 2.99795 36.2311 2.99795 36.2621 3.01298C46.1052 7.73959 57.5532 8.07444 67.6737 3.93598L67.8469 3.86514C67.8802 3.85226 67.9202 3.85441 67.9512 3.87373C67.9823 3.89305 68.0001 3.92739 68.0001 3.96388L67.767 56.0424C67.7448 60.8957 66.4306 65.6974 63.9621 69.9239C61.4958 74.1504 57.9262 77.7222 53.6395 80.2486L35.8759 90.7235C35.8603 90.7364 35.8404 90.7407 35.8204 90.7407ZM4.63744 3.86085L4.40435 55.7763C4.38215 60.593 5.64528 65.369 8.05609 69.5848C10.4669 73.8005 13.9766 77.3744 18.2077 79.918L35.8182 90.5068L53.5219 80.0661L53.5796 80.1584L53.5219 80.0661C57.7752 77.5569 61.3182 74.0151 63.7667 69.8187C66.2153 65.6223 67.5206 60.8592 67.5428 56.0424L67.7759 4.12702L67.7581 4.13345C57.5954 8.29124 46.0985 7.96068 36.2089 3.22978C26.2726 7.88126 14.7668 8.11093 4.63744 3.86085Z" fill="#0C152E"/>
<path d="M4.29327 55.7784L4.52858 3.69765L4.67065 3.75775C14.7668 7.99711 26.2725 7.76743 36.1799 3.12453L36.2132 3.10951L31.9954 3.10736C22.088 7.74811 14.6247 7.65796 4.52858 3.41646L0.579374 3.38426L0.113195 55.7591C0.0687966 65.6137 5.31442 74.7879 13.9698 79.991L31.638 90.6141L35.8203 90.6312L18.1521 80.0082C9.4945 74.805 4.25109 65.633 4.29327 55.7784Z" fill="#0C152E"/>
<path d="M35.8193 90.7406C35.8171 90.7406 35.8171 90.7406 35.8193 90.7406L31.637 90.7235C31.617 90.7235 31.597 90.717 31.5793 90.7063L13.9111 80.0832C9.64885 77.5203 6.11033 73.9206 3.68176 69.6727C1.25097 65.4247 -0.0232566 60.6144 -0.0010576 55.759L0.467342 3.38422C0.467342 3.35632 0.480661 3.32842 0.50064 3.3091C0.522839 3.28978 0.558358 3.28119 0.578337 3.27905L4.52976 3.31124C4.5453 3.31124 4.55862 3.31339 4.57194 3.31983C14.8412 7.63216 22.2601 7.54845 31.9455 3.01073C31.9611 3.00429 31.9766 3 31.9944 3L36.2122 3.00215C36.2633 3.00215 36.3099 3.03649 36.321 3.08586C36.3321 3.13523 36.3077 3.1846 36.261 3.20606L36.2277 3.22109C26.2826 7.87901 14.7702 8.11298 4.63632 3.86075L4.40323 55.7762C4.38103 60.5929 5.64415 65.3689 8.05497 69.5847C10.4658 73.8004 13.9754 77.3743 18.2066 79.918L35.8748 90.541C35.917 90.5668 35.9369 90.6161 35.9236 90.6612C35.9103 90.7106 35.8681 90.7406 35.8193 90.7406ZM31.6681 90.5088L35.4286 90.5238L18.0911 80.1004C13.8289 77.5375 10.2904 73.9378 7.86183 69.6898C5.43326 65.4419 4.16126 60.6316 4.18124 55.7762H4.29223H4.18124L4.41655 3.69761C4.41655 3.66112 4.43653 3.62893 4.4676 3.60746C4.49868 3.58814 4.53864 3.58385 4.57194 3.59888L4.71401 3.65898C5.9394 4.17414 7.18698 4.62276 8.44567 5.00484C7.17366 4.58842 5.86392 4.09472 4.50534 3.52375L0.687112 3.49155L0.220933 55.7612C0.198734 60.5779 1.46186 65.3539 3.87267 69.5696C6.28348 73.7854 9.79315 77.3593 14.0243 79.9029L31.6681 90.5088ZM19.3987 6.67482C24.9839 6.71561 30.5559 5.56508 35.7216 3.2168L32.0188 3.21465C27.4924 5.33325 23.4566 6.48378 19.3987 6.67482Z" fill="#0C152E"/>
<path d="M67.8889 3.96381L63.5335 4.01747C53.7348 8.025 45.8453 7.40036 36.2109 3.1095C46.0717 7.84255 57.7506 8.11086 67.8889 3.96381Z" fill="#0C152E"/>
<path d="M52.9535 6.98833C52.616 6.98833 52.2786 6.98404 51.9434 6.97545C46.4603 6.83378 41.0015 5.53085 36.1621 3.20619C36.1066 3.18043 36.0845 3.11603 36.1111 3.06452C36.1377 3.01085 36.2021 2.98939 36.2576 3.013C46.2716 7.47344 54.1611 7.73532 63.4891 3.91883C63.5024 3.91239 63.5157 3.91024 63.5313 3.91024L67.8867 3.85658C67.9378 3.86087 67.9866 3.89092 67.9977 3.94244C68.0088 3.99181 67.9822 4.04332 67.9333 4.06264C63.2382 5.98162 58.0814 6.98833 52.9535 6.98833ZM52.394 6.76939C57.4821 6.84452 62.6189 5.91508 67.314 4.07981L63.5557 4.12489C59.6731 5.71116 56.0347 6.59552 52.394 6.76939Z" fill="#0C152E"/>
<path d="M51.1199 71.8449L37.7983 79.7011L24.5477 71.7332C18.0567 67.8309 14.123 60.9514 14.1563 53.5588L14.3317 14.4988L14.4383 14.5439C22.0103 17.7229 30.6413 17.5512 38.0691 14.0695L38.0957 14.0566C45.4902 17.607 54.119 17.8602 61.7243 14.75L61.8531 14.6963L61.6777 53.7563C61.6422 61.1488 57.6464 67.9962 51.1199 71.8449Z" fill="#DFE6F2"/>
<path d="M61.7199 14.7521C61.1316 14.9926 60.5367 15.2115 59.9373 15.4111L59.7664 53.7585C59.7331 61.1511 55.7372 67.9963 49.2107 71.845L36.8525 79.1323L37.7982 79.7012L51.1198 71.845C57.6464 67.9963 61.6422 61.1489 61.6755 53.7585L61.8508 14.6985L61.7199 14.7521Z" fill="#C3CFE6"/>
<path d="M39.0481 53.2454L31.365 45.7541L38.3843 39.0248L39.1147 38.3251L46.7955 45.8185L39.0481 53.2454Z" fill="#4070F4"/>
<path d="M37.796 79.8278L24.4855 71.8256C18.01 67.9318 14.0076 60.9321 14.0409 53.5588L14.2162 14.3357L14.476 14.4452C22.0281 17.6156 30.6058 17.4438 38.0136 13.9729L38.089 13.9386L38.1379 13.9622C45.5124 17.5039 54.0901 17.7551 61.6732 14.6534L61.9574 14.5375L61.782 53.7606C61.7487 61.1338 57.6841 68.0993 51.1731 71.9394L51.1154 71.847L51.1731 71.9394L37.796 79.8278ZM14.4382 14.662L14.2651 53.5588C14.2318 60.8591 18.1943 67.788 24.6054 71.641L37.7982 79.5745L51.0621 71.7526C57.5065 67.9511 61.5312 61.0566 61.5645 53.7563L61.7376 14.8595C54.1189 17.9676 45.5035 17.7186 38.0913 14.1747C30.6457 17.6585 22.0303 17.8345 14.4382 14.662Z" fill="#0C152E"/>
</g>
<defs>
<clipPath id="clip0">
<rect width="68" height="90.7406" fill="white"/>
</clipPath>
</defs>
</svg>
