<svg width="20" height="20" viewBox="0 0 20 20" fill="none" xmlns="http://www.w3.org/2000/svg">
<path fill-rule="evenodd" clip-rule="evenodd" d="M0.684326 18.0109C0.489294 18.5682 1.02934 19.1018 1.58424 18.9L12.2086 15.0368C12.4118 14.9629 12.5732 14.805 12.6514 14.6034L14.829 8.99482L15.4787 9.6367C15.8127 9.96663 16.3509 9.96338 16.6808 9.62943L18.6731 7.61281C19.0031 7.27887 18.9998 6.74069 18.6659 6.41076L12.9659 0.779367C12.6319 0.449437 12.0938 0.452694 11.7638 0.786643L9.77149 2.80326C9.44156 3.13721 9.44482 3.67539 9.77877 4.00532L10.4285 4.64721L4.84665 6.89254C4.64607 6.97322 4.49007 7.13655 4.41865 7.34061L0.684326 18.0109ZM3.42641 16.8469L11.5299 13.9003L13.8208 7.99978L11.4356 5.6433L5.56327 8.00551L2.71496 16.1442L7.0032 11.8037C6.7069 11.1538 6.82345 10.361 7.35526 9.82272C8.04305 9.12655 9.16498 9.11976 9.86116 9.80755C10.5573 10.4953 10.5641 11.6173 9.87632 12.3135C9.27767 12.9194 8.35012 13.0031 7.66069 12.5611L3.42641 16.8469ZM17.4321 7.01927L16.0723 8.39565L11.0125 3.3968L12.3724 2.02042L17.4321 7.01927ZM8.07324 11.6172C8.37653 11.9169 8.86531 11.9139 9.16495 11.6106C9.46459 11.3073 9.46163 10.8186 9.15834 10.5189C8.85505 10.2193 8.36627 10.2222 8.06663 10.5255C7.76699 10.8288 7.76995 11.3176 8.07324 11.6172Z" fill="#8A8CA2"/>
</svg>
