<svg xmlns="http://www.w3.org/2000/svg" width="16" height="16" viewBox="0 0 16 16">
  <g fill="none" fill-rule="evenodd">
    <g transform="rotate(30 4.2 15.675)">
      <path fill="#8A8CA2" fill-rule="nonzero" d="M2.12420524,16.4566151 C2.24063502,16.4566151 2.35189029,16.4108447 2.43161931,16.3301201 L4.31483182,14.4237869 C4.38834995,14.3493693 4.4292508,14.2510774 4.4292508,14.1489485 L4.4292508,2.10894826 C4.42998065,1.35572584 4.00803599,0.659421571 3.32252871,0.282609245 C2.63702142,-0.0942030816 1.79223032,-0.0942030816 1.10672304,0.282609245 C0.421215753,0.659421571 -0.000728906455,1.35572584 9.45304196e-07,2.10894826 L9.45304196e-07,14.1489485 C9.45304196e-07,14.2441441 0.0355290809,14.3362471 0.100311712,14.4087965 L1.80268106,16.3151297 C1.88048003,16.4021685 1.99354449,16.4535836 2.11359712,16.4566151 C2.11720127,16.4566151 2.12070325,16.4566151 2.12420524,16.4566151 Z M0.843668939,2.10894826 C0.843668939,1.38858448 1.45746769,0.80461426 2.21462682,0.80461426 C2.97178595,0.80461426 3.5855847,1.38858448 3.5855847,2.10894826 L3.5855847,13.9899239 L2.14006349,15.4531835 L0.843668939,14.0014835 L0.843668939,2.10894826 Z"/>
      <line x1=".645" x2="3.666" y1="13.674" y2="13.674" stroke="#8A8CA2" stroke-linecap="round" stroke-width=".8"/>
    </g>
    <rect width="8" height="1" x="7" y="14.4" fill="#8A8CA2" rx=".5"/>
  </g>
</svg>
