<svg width="16" height="16" viewBox="0 0 16 16" fill="none" xmlns="http://www.w3.org/2000/svg">
    <path fill-rule="evenodd" clip-rule="evenodd" d="M6.83071 1.59864C7.24964 0.533849 8.75004 0.533857 9.16896 1.59864L10.5204 5.03349L14.0442 5.32524C15.1441 5.41631 15.6017 6.78491 14.7794 7.52428L12.0492 9.97919L12.8864 13.6512C13.1378 14.7541 11.9293 15.6068 10.9816 14.9953L7.99986 13.0714L5.01778 14.9957C4.06999 15.6073 2.8614 14.7544 3.11294 13.6515L3.95039 9.97962L1.22019 7.52468C0.397967 6.78536 0.855443 5.41683 1.95528 5.32566L5.4793 5.03355L6.83071 1.59864ZM8.14342 2.00567C8.09197 1.8749 7.90771 1.87491 7.85626 2.00567L6.47966 5.50459C6.34086 5.85739 6.0147 6.10048 5.63829 6.13168L2.04598 6.42945C1.91092 6.44065 1.85473 6.60871 1.95571 6.69951L4.73437 9.19801C5.00346 9.43997 5.12043 9.80965 5.03979 10.1632L4.18781 13.8988C4.15692 14.0342 4.30535 14.139 4.42174 14.0639L7.46341 12.1011C7.79021 11.8903 8.20946 11.8903 8.53627 12.1011L11.5776 14.0635C11.694 14.1386 11.8424 14.0339 11.8115 13.8984L10.9598 10.1627C10.8792 9.80916 10.9962 9.43952 11.2653 9.19758L14.0439 6.6991C14.1449 6.6083 14.0887 6.44023 13.9536 6.42904L10.3615 6.13163C9.98501 6.10046 9.65881 5.85737 9.52 5.50454L8.14342 2.00567Z" fill="#254898"/>
</svg>
