<svg width="20" height="20" viewBox="0 0 20 20" fill="none" xmlns="http://www.w3.org/2000/svg">
<path d="M4 5.35C3.64102 5.35 3.35 5.64102 3.35 6C3.35 6.35898 3.64102 6.65 4 6.65H6C6.35898 6.65 6.65 6.35898 6.65 6C6.65 5.64102 6.35898 5.35 6 5.35H4Z" fill="#8A8CA2"/>
<path d="M3.35 9C3.35 8.64102 3.64102 8.35 4 8.35H6C6.35898 8.35 6.65 8.64102 6.65 9C6.65 9.35898 6.35898 9.65 6 9.65H4C3.64102 9.65 3.35 9.35898 3.35 9Z" fill="#8A8CA2"/>
<path d="M4 11.35C3.64102 11.35 3.35 11.641 3.35 12C3.35 12.359 3.64102 12.65 4 12.65H6C6.35898 12.65 6.65 12.359 6.65 12C6.65 11.641 6.35898 11.35 6 11.35H4Z" fill="#8A8CA2"/>
<path fill-rule="evenodd" clip-rule="evenodd" d="M4 2C2.34315 2 1 3.34315 1 5V15C1 16.6569 2.34315 18 4 18H16C17.6569 18 19 16.6569 19 15V5C19 3.34315 17.6569 2 16 2H4ZM16 3.3H9.65V16.7H16C16.9389 16.7 17.7 15.9389 17.7 15V5C17.7 4.06112 16.9389 3.3 16 3.3ZM4 16.7H8.35V3.3H4C3.06112 3.3 2.3 4.06112 2.3 5V15C2.3 15.9389 3.06112 16.7 4 16.7Z" fill="#8A8CA2"/>
</svg>
