<svg width="20" height="20" viewBox="0 0 20 20" fill="none" xmlns="http://www.w3.org/2000/svg">
<path d="M5.36093 3.12188L3.19363 5.33277H12.5282C12.8872 5.33277 13.1782 5.62379 13.1782 5.98277C13.1782 6.34176 12.8872 6.63277 12.5282 6.63277H3.19036L5.36091 8.84705C5.61221 9.10341 5.61221 9.51904 5.36091 9.7754C5.10961 10.0318 4.70217 10.0318 4.45087 9.77539L1.18977 6.4486C1.06909 6.32549 1.0013 6.15852 1.0013 5.98442C1.0013 5.81032 1.0691 5.64335 1.18977 5.52024L4.45091 2.19352C4.70221 1.93717 5.10964 1.93717 5.36094 2.19353C5.61224 2.44989 5.61223 2.86553 5.36093 3.12188Z" fill="#4070F4"/>
<path d="M14.6391 11.1529L16.8064 13.3638H7.47197C7.11298 13.3638 6.82197 13.6548 6.82197 14.0138C6.82197 14.3728 7.11298 14.6638 7.47197 14.6638H16.8097L14.6391 16.8781C14.3878 17.1344 14.3878 17.5501 14.6391 17.8064C14.8904 18.0628 15.2978 18.0628 15.5491 17.8064L18.8103 14.4796C18.9309 14.3565 18.9987 14.1895 18.9987 14.0154C18.9987 13.8413 18.9309 13.6744 18.8102 13.5513L15.5491 10.2245C15.2978 9.96817 14.8904 9.96818 14.6391 10.2245C14.3878 10.4809 14.3878 10.8965 14.6391 11.1529Z" fill="#4070F4"/>
</svg>
