<?xml version="1.0" encoding="UTF-8"?>
<svg width="40px" height="40px" viewBox="0 0 40 40" version="1.1" xmlns="http://www.w3.org/2000/svg" xmlns:xlink="http://www.w3.org/1999/xlink">
    <!-- Generator: sketchtool 54.1 (76490) - https://sketchapp.com -->
    <title>395454CF-B031-438D-94A7-C1E1515CFE31</title>
    <desc>Created with sketchtool.</desc>
    <g id="ðŸ¡--1.0-Dashboard" stroke="none" stroke-width="1" fill="none" fill-rule="evenodd">
        <g id="1.1.1-Dashboard" transform="translate(-44.000000, -849.000000)" fill="#BEC1CD" fill-rule="nonzero">
            <g id="Recent-Transactions---4-Col" transform="translate(24.000000, 416.000000)">
                <g id="accounts-copy" transform="translate(20.000000, 67.000000)">
                    <g id="Recepient-Copy-11" transform="translate(0.000000, 366.000000)">
                        <g id="Group-2">
                            <path d="M19.8,39.331385 C8.86476195,39.331385 0,30.6404419 0,19.9196203 C0,9.19879871 8.86476195,0.507855615 19.8,0.507855615 C30.735238,0.507855615 39.6,9.19879871 39.6,19.9196203 C39.6,30.6404419 30.735238,39.331385 19.8,39.331385 Z M19.8,38.1549144 C30.0724963,38.1549144 38.4,29.9906952 38.4,19.9196203 C38.4,9.84854547 30.0724963,1.6843262 19.8,1.6843262 C9.52750365,1.6843262 1.2,9.84854547 1.2,19.9196203 C1.2,29.9906952 9.52750365,38.1549144 19.8,38.1549144 Z" id="Oval"></path>
                            <path d="M16.0618855,19.6793351 C16.0618855,18.4336221 15.0317529,17.4234171 13.7614127,17.4234171 C12.4905781,17.4234171 11.4603764,18.4335543 11.4603764,19.6793351 C11.4603764,20.9251159 12.4905781,21.9352531 13.7614127,21.9352531 C15.0317529,21.9352531 16.0618855,20.9250481 16.0618855,19.6793351 Z M17.2618855,19.6793351 C17.2618855,21.5747242 15.6945667,23.1117237 13.7614127,23.1117237 C11.8278003,23.1117237 10.2603764,21.5748273 10.2603764,19.6793351 C10.2603764,17.7838429 11.8278003,16.2469465 13.7614127,16.2469465 C15.6945667,16.2469465 17.2618855,17.783946 17.2618855,19.6793351 Z" id="Stroke-1"></path>
                            <polygon id="Stroke-3" points="13.1611309 17.9271444 14.3611309 17.9271444 14.3611309 21.4316364 13.1611309 21.4316364"></polygon>
                            <polygon id="Stroke-5" points="15.5483655 19.0910998 15.5483655 20.2675704 11.9737836 20.2675704 11.9737836 19.0910998"></polygon>
                            <path d="M20.4278873,16.8162745 L30.7274873,16.8162745 C30.9128046,16.8162745 31.087723,16.900229 31.2013836,17.0437278 L33.003329,19.3187188 C33.1714834,19.531017 33.1714656,19.8280588 33.0032857,20.0403376 L31.2013403,22.3147761 C31.013101,22.5523742 30.6723353,22.6124286 30.4114787,22.4539765 L28.9236773,21.5502411 L27.5923097,22.4399905 C27.379717,22.5820656 27.0983943,22.5754424 26.8930027,22.4235267 L25.7317623,21.5646274 L24.3190436,22.4496231 C24.2225675,22.5100605 24.1104679,22.5421747 23.9959782,22.5421747 L20.4278873,22.5421747 L20.4278873,25.4374332 C20.4278873,25.7623065 20.1592581,26.0256684 19.8278873,26.0256684 L8.08170545,26.0256684 C7.7503346,26.0256684 7.48170545,25.7623065 7.48170545,25.4374332 L7.48170545,13.9215686 C7.48170545,13.5966952 7.7503346,13.3333333 8.08170545,13.3333333 L19.8278873,13.3333333 C20.1592581,13.3333333 20.4278873,13.5966952 20.4278873,13.9215686 L20.4278873,16.8162745 Z M30.4337492,17.9927451 L19.8278873,17.9927451 C19.4965164,17.9927451 19.2278873,17.7293832 19.2278873,17.4045098 L19.2278873,14.5098039 L8.68170545,14.5098039 L8.68170545,24.8491979 L19.2278873,24.8491979 L19.2278873,21.9539394 C19.2278873,21.629066 19.4965164,21.3657041 19.8278873,21.3657041 L23.8206528,21.3657041 L25.4370946,20.3530863 C25.6483856,20.2207234 25.9213502,20.2311313 26.1215173,20.3791828 L27.2720877,21.2301901 L28.5701194,20.3627189 C28.7661207,20.2317318 29.0224365,20.22625 29.2240777,20.348733 L30.5847061,21.1752196 L31.7697381,19.6794571 L30.4337492,17.9927451 Z" id="Stroke-7"></path>
                        </g>
                    </g>
                </g>
            </g>
        </g>
    </g>
</svg>