<svg width="40" height="40" viewBox="0 0 40 40" fill="none" xmlns="http://www.w3.org/2000/svg">
<path fill-rule="evenodd" clip-rule="evenodd" d="M0 20C0 31.0457 8.9543 40 20 40C31.0457 40 40 31.0457 40 20C40 8.9543 31.0457 0 20 0C8.9543 0 0 8.9543 0 20Z" fill="#0C152E"/>
<path fill-rule="evenodd" clip-rule="evenodd" d="M14.424 12.908C12.1801 13.7634 10.8562 16.1658 11.4147 18.5704C11.8834 20.5884 13.4217 22.0856 15.3934 22.3439L15.8001 24.095C15.8316 24.2304 15.9169 24.3471 16.0364 24.4181L16.576 24.7386L16.2361 25.2614C16.0783 25.5041 16.154 25.8295 16.4028 25.9776L16.9378 26.296L16.5923 26.8263L16.4759 27.0048L16.5241 27.2124L16.7041 27.9873C16.7299 28.0982 16.7919 28.1972 16.8804 28.2687L18.2559 29.3798C18.6101 29.666 19.1388 29.5431 19.3306 29.1302L20.048 27.5859C20.1138 27.4443 20.1303 27.2847 20.095 27.1326L18.8057 21.5813C19.791 21.0249 20.4707 20.1748 20.8125 19.1775C21.0416 19.0436 21.26 18.8873 21.465 18.709L22.9377 19.4969C23.0603 19.5625 23.2043 19.5752 23.3365 19.5321L23.8681 19.3587L24.0187 19.8929C24.0973 20.1716 24.3919 20.3291 24.6673 20.2396L25.1942 20.0682L25.3469 20.6117L25.4045 20.8168L25.5924 20.9173L26.252 21.2703C26.3524 21.324 26.4677 21.3426 26.5798 21.3231L28.2035 21.0415C28.6521 20.9636 28.9082 20.485 28.724 20.0686L28.0839 18.6213C28.0208 18.4785 27.9117 18.3609 27.774 18.2873L23.0704 15.7705C23.466 13.8238 22.4855 11.9989 20.6702 11.0276C18.4249 9.82615 15.6318 10.6683 14.424 12.908ZM15.8776 12.5942C18.2112 12.4522 20.3752 14.0089 20.9218 16.3623C21.0277 16.8181 21.0753 17.2706 21.0667 17.7104C21.2354 17.5715 21.4747 17.5595 21.6557 17.6768L23.2251 18.5166L24.0432 18.2497C24.3187 18.1599 24.6136 18.3173 24.6922 18.5962L24.8429 19.1309L25.3703 18.9594C25.6459 18.8698 25.9406 19.0276 26.019 19.3065L26.252 20.1361L26.5751 20.309L27.6541 20.1218L27.2112 19.1203L22.2954 16.49C22.0633 16.3921 21.9374 16.1329 22.0113 15.886C22.4852 14.3039 21.7736 12.7521 20.1984 11.9093C18.7343 11.1259 16.9729 11.4514 15.8776 12.5942ZM12.3888 18.3442C11.904 16.2568 13.2031 14.1717 15.2905 13.6869C17.3778 13.2021 19.4629 14.5012 19.9477 16.5886C20.3804 18.4512 19.6329 20.1234 18.0206 20.8599C17.786 20.9671 17.674 21.2329 17.7537 21.4722L19.0976 27.2583L18.5855 28.3606L17.64 27.5968L17.5464 27.1937L18.0542 26.4144C18.2124 26.1716 18.1367 25.8459 17.8877 25.6977L17.3524 25.3791L17.6926 24.8559C17.8505 24.613 17.7746 24.2874 17.5255 24.1394L16.7269 23.6651L16.2956 21.8081C16.2627 21.5751 16.0681 21.3909 15.8244 21.3792C14.1631 21.2995 12.797 20.1017 12.3888 18.3442ZM15.6642 15.2962C15.4081 15.3556 15.2487 15.6114 15.3082 15.8675C15.3677 16.1236 15.6235 16.283 15.8796 16.2235C16.1357 16.164 16.295 15.9082 16.2356 15.6521C16.1761 15.3961 15.9203 15.2367 15.6642 15.2962ZM14.529 16.0485C14.3695 15.3621 14.7968 14.6763 15.4832 14.5169C16.1697 14.3575 16.8554 14.7847 17.0148 15.4712C17.1742 16.1576 16.747 16.8433 16.0606 17.0028C15.3741 17.1622 14.6884 16.735 14.529 16.0485Z" fill="#DFE6F2"/>
</svg>
