<svg width="50" height="50" viewBox="0 0 50 50" fill="none" xmlns="http://www.w3.org/2000/svg">
<path d="M25 50C11.1929 50 0 38.8071 0 25C0 11.1929 11.1929 0 25 0C38.8071 0 50 11.1929 50 25C50 38.8071 38.8071 50 25 50Z" fill="#0C152E"/>
<path d="M19.897 17.4341L17.513 19.8661H27.781C28.1759 19.8661 28.496 20.1862 28.496 20.5811C28.496 20.976 28.1759 21.2961 27.781 21.2961H17.5094L19.897 23.7318C20.1734 24.0138 20.1734 24.471 19.897 24.753C19.6206 25.035 19.1724 25.035 18.896 24.753L15.3088 21.0935C15.176 20.9581 15.1014 20.7744 15.1014 20.5829C15.1014 20.3914 15.176 20.2077 15.3088 20.0723L18.896 16.4129C19.1724 16.1309 19.6206 16.1309 19.897 16.4129C20.1735 16.6949 20.1735 17.1521 19.897 17.4341Z" fill="#DFE6F2"/>
<path d="M30.103 26.2682L32.487 28.7002H22.2192C21.8243 28.7002 21.5042 29.0203 21.5042 29.4152C21.5042 29.8101 21.8243 30.1302 22.2192 30.1302H32.4906L30.103 32.5659C29.8266 32.8479 29.8266 33.3051 30.103 33.5871C30.3795 33.8691 30.8276 33.8691 31.1041 33.5871L34.6913 29.9276C34.824 29.7922 34.8986 29.6085 34.8986 29.417C34.8986 29.2255 34.824 29.0418 34.6913 28.9064L31.104 25.247C30.8276 24.965 30.3794 24.965 30.103 25.247C29.8266 25.529 29.8266 25.9862 30.103 26.2682Z" fill="#DFE6F2"/>
</svg>
