<svg width="40" height="40" viewBox="0 0 40 40" fill="none" xmlns="http://www.w3.org/2000/svg">
<path fill-rule="evenodd" clip-rule="evenodd" d="M0 20C0 31.0457 8.9543 40 20 40C31.0457 40 40 31.0457 40 20C40 8.9543 31.0457 0 20 0C8.9543 0 0 8.9543 0 20Z" fill="#0C152E"/>
<path fill-rule="evenodd" clip-rule="evenodd" d="M27.8002 9.20001C28.231 9.20001 28.5802 9.54923 28.5802 9.98001V11.42H30.0202C30.451 11.42 30.8002 11.7692 30.8002 12.2C30.8002 12.6308 30.451 12.98 30.0202 12.98H28.5802V14.42C28.5802 14.8508 28.231 15.2 27.8002 15.2C27.3694 15.2 27.0202 14.8508 27.0202 14.42V12.98H25.5802C25.1494 12.98 24.8002 12.6308 24.8002 12.2C24.8002 11.7692 25.1494 11.42 25.5802 11.42H27.0202V9.98001C27.0202 9.54923 27.3694 9.20001 27.8002 9.20001ZM18.2002 14.1C16.4329 14.1 15.0002 15.5327 15.0002 17.3C15.0002 19.0673 16.4329 20.5 18.2002 20.5C19.9675 20.5 21.4002 19.0673 21.4002 17.3C21.4002 15.5327 19.9675 14.1 18.2002 14.1ZM13.7002 17.3C13.7002 14.8147 15.7149 12.8 18.2002 12.8C20.6855 12.8 22.7002 14.8147 22.7002 17.3C22.7002 19.7853 20.6855 21.8 18.2002 21.8C15.7149 21.8 13.7002 19.7853 13.7002 17.3ZM10.6727 29.5001C10.6952 29.4163 10.7199 29.3328 10.7467 29.2498C11.0715 28.2449 11.7176 27.2879 12.6685 26.4955C14.1019 25.301 16.0891 24.6001 18.2002 24.6001C20.3112 24.6001 22.2985 25.301 23.7319 26.4955C24.6828 27.2879 25.3289 28.2449 25.6537 29.2498C25.6805 29.3328 25.7052 29.4163 25.7277 29.5001H10.6727ZM9.33639 29.5001C9.38266 29.281 9.44053 29.0641 9.50969 28.8501C9.91602 27.5927 10.7121 26.4336 11.8362 25.4968C13.5241 24.0903 15.8132 23.3001 18.2002 23.3001C20.5871 23.3001 22.8763 24.0903 24.5642 25.4968C25.6883 26.4336 26.4844 27.5927 26.8907 28.8501C26.9599 29.0641 27.0177 29.281 27.064 29.5001C27.1541 29.9265 27.2002 30.3613 27.2002 30.8001H25.9002H10.5002H9.2002C9.2002 30.3613 9.24634 29.9265 9.33639 29.5001Z" fill="#DFE6F2"/>
</svg>
