<svg width="40" height="40" viewBox="0 0 40 40" fill="none" xmlns="http://www.w3.org/2000/svg">
<path fill-rule="evenodd" clip-rule="evenodd" d="M0 20C0 31.0457 8.9543 40 20 40C31.0457 40 40 31.0457 40 20C40 8.9543 31.0457 0 20 0C8.9543 0 0 8.9543 0 20Z" fill="#0C152E"/>
<path fill-rule="evenodd" clip-rule="evenodd" d="M20.6532 13.904L27.3555 25.424C27.6162 25.872 27.2904 26.432 26.7691 26.432H13.3644C12.8431 26.432 12.5173 25.872 12.778 25.424L19.4803 13.904C19.741 13.456 20.3926 13.456 20.6532 13.904ZM18.3912 13.28C19.1359 12 20.9976 12 21.7423 13.28L28.4447 24.8C29.1894 26.08 28.2585 27.68 26.7691 27.68H13.3644C11.875 27.68 10.9442 26.08 11.6889 24.8L18.3912 13.28ZM19.3767 17.744C19.3767 17.3994 19.6561 17.12 20.0007 17.12C20.3453 17.12 20.6247 17.3994 20.6247 17.744V22.256C20.6247 22.6006 20.3453 22.88 20.0007 22.88C19.6561 22.88 19.3767 22.6006 19.3767 22.256V17.744ZM19.3767 24.464C19.3767 24.1194 19.6561 23.84 20.0007 23.84C20.3453 23.84 20.6247 24.1194 20.6247 24.464C20.6247 24.8086 20.3453 25.088 20.0007 25.088C19.6561 25.088 19.3767 24.8086 19.3767 24.464Z" fill="#DFE6F2"/>
</svg>
