<svg width="50" height="50" viewBox="0 0 50 50" fill="none" xmlns="http://www.w3.org/2000/svg">
<path d="M25 50C11.1929 50 0 38.8071 0 25C0 11.1929 11.1929 0 25 0C38.8071 0 50 11.1929 50 25C50 38.8071 38.8071 50 25 50Z" fill="#0C152E"/>
<path d="M29.9537 14.537C30.4606 14.9794 30.884 15.511 31.2152 16.1331L29.9932 17.3552C29.7196 16.6735 29.3353 16.1542 28.8851 15.7612C27.9537 14.9482 26.6109 14.5625 25 14.5625C23.3891 14.5625 22.0463 14.9482 21.1149 15.7612C20.267 16.5013 19.6529 17.6896 19.5717 19.5675H27.7809L26.1559 21.1925H18.125C16.9514 21.1925 16 22.1439 16 23.3175V31.3484L14.502 32.8463C14.4192 32.5365 14.375 32.2109 14.375 31.875V23.3175C14.375 21.3067 15.9577 19.6655 17.9453 19.5717C18.0285 17.3176 18.7747 15.6468 20.0463 14.537C21.3769 13.3756 23.1591 12.9375 25 12.9375C26.8409 12.9375 28.6231 13.3756 29.9537 14.537Z" fill="#DFE6F2"/>
<path d="M24.1875 28.8119C24.1028 28.7828 24.0202 28.7493 23.94 28.7117L25.4608 27.1909C25.5756 27.1196 25.6727 27.0225 25.744 26.9077L27.2648 25.3869C27.4157 25.7087 27.5 26.068 27.5 26.4469C27.5 27.5432 26.7944 28.4747 25.8125 28.8119V31.25C25.8125 31.6987 25.4487 32.0625 25 32.0625C24.5513 32.0625 24.1875 31.6987 24.1875 31.25V28.8119Z" fill="#DFE6F2"/>
<path d="M31.875 34H18.6517L17.1537 35.498C17.4635 35.5808 17.7891 35.625 18.125 35.625H31.875C33.9461 35.625 35.625 33.946 35.625 31.875V23.3175C35.625 21.6138 34.4889 20.1754 32.9329 19.7188L31.4592 21.1925H31.875C33.0486 21.1925 34 22.1439 34 23.3175V31.875C34 33.0486 33.0486 34 31.875 34Z" fill="#DFE6F2"/>
<path d="M35.5745 15.5746C35.8918 15.2573 35.8918 14.7428 35.5745 14.4255C35.2572 14.1082 34.7428 14.1082 34.4255 14.4255L13.8005 35.0505C13.4832 35.3678 13.4832 35.8823 13.8005 36.1996C14.1178 36.5169 14.6322 36.5169 14.9495 36.1996L35.5745 15.5746Z" fill="#DFE6F2"/>
</svg>
