<svg width="40" height="40" viewBox="0 0 40 40" fill="none" xmlns="http://www.w3.org/2000/svg">
<path fill-rule="evenodd" clip-rule="evenodd" d="M0 20C0 31.0457 8.9543 40 20 40C31.0457 40 40 31.0457 40 20C40 8.9543 31.0457 0 20 0C8.9543 0 0 8.9543 0 20Z" fill="#0C152E"/>
<rect width="20" height="20" transform="translate(10 10)" fill="#0C152E"/>
<path d="M23.9626 11.6296C24.3681 11.9835 24.7068 12.4088 24.9718 12.9065L23.9941 13.8841C23.7753 13.3387 23.4679 12.9233 23.1077 12.609C22.3626 11.9586 21.2883 11.65 19.9996 11.65C18.7109 11.65 17.6366 11.9586 16.8915 12.609C16.2132 13.201 15.722 14.1516 15.6569 15.654H22.2243L20.9243 16.954H14.4996C13.5607 16.954 12.7996 17.7151 12.7996 18.654V25.0787L11.6012 26.2771C11.5349 26.0292 11.4996 25.7687 11.4996 25.5V18.654C11.4996 17.0453 12.7658 15.7324 14.3558 15.6574C14.4224 13.854 15.0194 12.5175 16.0366 11.6296C17.1011 10.7004 18.5269 10.35 19.9996 10.35C21.4723 10.35 22.8981 10.7004 23.9626 11.6296Z" fill="#DFE6F2"/>
<path d="M19.3496 23.0495C19.2819 23.0262 19.2158 22.9995 19.1516 22.9693L20.3682 21.7527C20.4601 21.6957 20.5378 21.618 20.5948 21.5261L21.8114 20.3095C21.9322 20.5669 21.9996 20.8543 21.9996 21.1575C21.9996 22.0345 21.4351 22.7797 20.6496 23.0495V25C20.6496 25.359 20.3586 25.65 19.9996 25.65C19.6406 25.65 19.3496 25.359 19.3496 25V23.0495Z" fill="#DFE6F2"/>
<path d="M25.4996 27.1999H14.921L13.7226 28.3983C13.9704 28.4646 14.2309 28.5 14.4996 28.5H25.4996C27.1565 28.5 28.4996 27.1568 28.4996 25.4999V18.654C28.4996 17.291 27.5907 16.1403 26.3459 15.775L25.167 16.954H25.4996C26.4385 16.954 27.1996 17.7151 27.1996 18.654V25.4999C27.1996 26.4388 26.4385 27.1999 25.4996 27.1999Z" fill="#DFE6F2"/>
<path d="M28.4592 12.4596C28.7131 12.2058 28.7131 11.7942 28.4592 11.5404C28.2054 11.2865 27.7938 11.2865 27.54 11.5404L11.04 28.0404C10.7861 28.2942 10.7861 28.7058 11.04 28.9596C11.2938 29.2135 11.7054 29.2135 11.9592 28.9596L28.4592 12.4596Z" fill="#DFE6F2"/>
</svg>
