<svg width="13" height="13" viewBox="0 0 13 13" fill="none" xmlns="http://www.w3.org/2000/svg">
<path d="M9.07616 1.05927C9.33975 1.28934 9.55993 1.56576 9.73216 1.88927L9.09668 2.52475C8.95441 2.17023 8.7546 1.90021 8.5205 1.69588C8.03616 1.27313 7.33788 1.07254 6.50023 1.07254C5.66259 1.07254 4.96431 1.27313 4.47997 1.69588C4.03905 2.08072 3.71976 2.69862 3.6775 3.67513H7.9463L7.1013 4.52013H2.92523C2.31496 4.52013 1.82023 5.01486 1.82023 5.62513V9.8012L1.04129 10.5801C0.998205 10.419 0.975234 10.2497 0.975234 10.075V5.62513C0.975234 4.57951 1.79823 3.7261 2.83179 3.67733C2.87505 2.50518 3.2631 1.6364 3.92431 1.05927C4.61623 0.455334 5.54296 0.227539 6.50023 0.227539C7.45751 0.227539 8.38423 0.455334 9.07616 1.05927Z" fill="#254898"/>
<path d="M6.07773 8.48224C6.03371 8.46712 5.99076 8.4497 5.94902 8.43013L6.73984 7.63931C6.79955 7.60225 6.85005 7.55175 6.88711 7.49204L7.67793 6.70122C7.75639 6.86857 7.80023 7.05538 7.80023 7.25243C7.80023 7.8225 7.4333 8.30687 6.92273 8.48224V9.75004C6.92273 9.98338 6.73357 10.1725 6.50023 10.1725C6.26689 10.1725 6.07773 9.98338 6.07773 9.75004V8.48224Z" fill="#254898"/>
<path d="M10.0752 11.18H3.19913L2.42017 11.959C2.58126 12.0021 2.75056 12.025 2.92523 12.025H10.0752C11.1522 12.025 12.0252 11.152 12.0252 10.075V5.62513C12.0252 4.73921 11.4344 3.99127 10.6253 3.75381L9.85901 4.52013H10.0752C10.6855 4.52013 11.1802 5.01486 11.1802 5.62513V10.075C11.1802 10.6853 10.6855 11.18 10.0752 11.18Z" fill="#254898"/>
<path d="M11.999 1.59881C12.164 1.43381 12.164 1.1663 11.999 1.0013C11.834 0.836306 11.5665 0.836306 11.4015 1.0013L0.676482 11.7263C0.511485 11.8913 0.511485 12.1588 0.676482 12.3238C0.841478 12.4888 1.10899 12.4888 1.27399 12.3238L11.999 1.59881Z" fill="#254898"/>
</svg>
