<svg xmlns="http://www.w3.org/2000/svg" width="16" height="16" viewBox="0 0 16 16">
  <g fill="none" fill-rule="evenodd" stroke="#8A8CA2" transform="translate(1.5 .5)">
    <path fill="#8A8CA2" fill-rule="nonzero" stroke-width=".3" d="M12.2996698,1.0656 C12.3038827,0.914976903 12.2066445,0.781700969 12.0661978,0.7456 C10.1317685,0.251558405 8.14739198,0.00123371392 6.15566984,0 C4.16357606,0.00437535896 2.17919424,0.257923799 0.245141839,0.7552 C0.104695135,0.791300969 0.00745701383,0.924576903 0.0116698394,1.0752 L0.0116698394,5.28 C0.0116698394,5.3152 -0.246378161,8.7744 1.66440584,11.3312 C2.84660105,12.8534625 4.33176502,14.0904441 6.01742984,14.9568 C6.10354301,15.0013736 6.20472467,15.0013736 6.29083784,14.9568 C7.97871835,14.0912216 9.46603888,12.8541899 10.6500058,11.3312 C12.5423578,8.7968 12.2996698,5.3152 12.2996698,5.28 L12.2996698,1.0656 Z M10.1646298,10.9376 C9.06700445,12.3389782 7.70183478,13.4875165 6.15566984,14.3104 C4.6095049,13.4875165 3.24433523,12.3389782 2.14670984,10.9376 C0.395669839,8.592 0.610709839,5.3632 0.610709839,5.3312 L0.610709839,1.3184 C4.24641166,0.417749731 8.03420802,0.417749731 11.6699098,1.3184 L11.6699098,5.3312 C11.6852698,5.3632 11.8972378,8.6176 10.1646298,10.9376 Z"/>
    <g stroke-linecap="round" stroke-width=".8" transform="translate(1.675 4.036)">
      <line x1="2.839" x2="8.696" y1="3.584" y2="3.466" transform="rotate(140 5.767 3.525)"/>
      <line x1="1.523" x2="3.893" y1="4.465" y2="4.722" transform="rotate(40 2.708 4.594)"/>
    </g>
  </g>
</svg>
