<svg width="20" height="20" viewBox="0 0 20 20" fill="none" xmlns="http://www.w3.org/2000/svg">
<path fill-rule="evenodd" clip-rule="evenodd" d="M2.86118 1.70941C2.36736 1.77863 2 2.20108 2 2.69972V11.6213C2 13.743 3.1205 15.7069 4.94695 16.7865L8.98232 19.1717C9.61004 19.5427 10.39 19.5427 11.0177 19.1717L15.053 16.7865C16.8795 15.7069 18 13.743 18 11.6213V2.69972C18 2.20108 17.6326 1.77863 17.1388 1.70941L13.1929 1.15627C11.0747 0.859328 8.92533 0.859328 6.80706 1.15627L2.86118 1.70941ZM13.4599 8.44998C13.7136 8.19599 13.7133 7.78443 13.4593 7.53074C13.2054 7.27705 12.7938 7.27729 12.5401 7.53128L8.97862 11.097L7.43752 9.69434C7.17204 9.45271 6.76093 9.47204 6.5193 9.73752C6.27766 10.003 6.29699 10.4141 6.56248 10.6557L8.56248 12.4761C8.81929 12.7098 9.21449 12.7004 9.45989 12.4547L13.4599 8.44998Z" fill="#4070F4"/>
</svg>
