<svg width="20" height="20" viewBox="0 0 20 20" fill="none" xmlns="http://www.w3.org/2000/svg">
<path d="M2 4C2 3.44772 2.44772 3 3 3H17C17.5523 3 18 3.44772 18 4C18 4.55228 17.5523 5 17 5H3C2.44772 5 2 4.55228 2 4Z" fill="#8A8CA2"/>
<path d="M2 8C2 7.44772 2.44772 7 3 7H17C17.5523 7 18 7.44772 18 8C18 8.55228 17.5523 9 17 9H3C2.44772 9 2 8.55228 2 8Z" fill="#8A8CA2"/>
<path d="M3 11C2.44772 11 2 11.4477 2 12C2 12.5523 2.44772 13 3 13H8C8.55228 13 9 12.5523 9 12C9 11.4477 8.55228 11 8 11H3Z" fill="#8A8CA2"/>
<path d="M2 16C2 15.4477 2.44772 15 3 15H6C6.55228 15 7 15.4477 7 16C7 16.5523 6.55228 17 6 17H3C2.44772 17 2 16.5523 2 16Z" fill="#8A8CA2"/>
<path d="M18.7071 11.7071C19.0976 11.3166 19.0976 10.6834 18.7071 10.2929C18.3166 9.90237 17.6834 9.90237 17.2929 10.2929L13.5455 14.0403L11.7071 12.202C11.3166 11.8115 10.6834 11.8115 10.2929 12.202C9.90237 12.5925 9.90237 13.2257 10.2929 13.6162L13.5455 16.8688L18.7071 11.7071Z" fill="#8A8CA2"/>
</svg>
