<svg width="20" height="20" viewBox="0 0 20 20" fill="none" xmlns="http://www.w3.org/2000/svg">
<path d="M2 3.65C2 3.29101 2.29101 3 2.65 3H17.35C17.709 3 18 3.29101 18 3.65C18 4.00898 17.709 4.3 17.35 4.3H2.65C2.29101 4.3 2 4.00898 2 3.65Z" fill="#8A8CA2"/>
<path d="M2 7.65C2 7.29102 2.29101 7 2.65 7H17.35C17.709 7 18 7.29102 18 7.65C18 8.00899 17.709 8.3 17.35 8.3H2.65C2.29101 8.3 2 8.00899 2 7.65Z" fill="#8A8CA2"/>
<path d="M2.65 11C2.29101 11 2 11.291 2 11.65C2 12.009 2.29101 12.3 2.65 12.3H8.35C8.70899 12.3 9 12.009 9 11.65C9 11.291 8.70899 11 8.35 11H2.65Z" fill="#8A8CA2"/>
<path d="M2 15.65C2 15.291 2.29101 15 2.65 15H6.35C6.70899 15 7 15.291 7 15.65C7 16.009 6.70899 16.3 6.35 16.3H2.65C2.29101 16.3 2 16.009 2 15.65Z" fill="#8A8CA2"/>
<path d="M18.4596 11.4596C18.7135 11.2058 18.7135 10.7942 18.4596 10.5404C18.2058 10.2865 17.7942 10.2865 17.5404 10.5404L13.5455 14.5353L11.4596 12.4495C11.2058 12.1956 10.7942 12.1956 10.5404 12.4495C10.2865 12.7033 10.2865 13.1149 10.5404 13.3687L13.5455 16.3738L18.4596 11.4596Z" fill="#8A8CA2"/>
</svg>
