<svg width="19" height="16" viewBox="0 0 19 16" fill="none" xmlns="http://www.w3.org/2000/svg">
<path fill-rule="evenodd" clip-rule="evenodd" d="M7.32345 1C8.09918 -0.333333 10.0385 -0.333333 10.8142 1L17.7958 13C18.5716 14.3333 17.6019 16 16.0504 16H2.08726C0.535801 16 -0.433863 14.3333 0.341868 13L7.32345 1ZM8.41378 5.65501C8.41378 5.29326 8.70704 5 9.06879 5C9.43054 5 9.7238 5.29326 9.7238 5.65501V10.345C9.7238 10.7067 9.43054 11 9.06879 11C8.70704 11 8.41378 10.7067 8.41378 10.345V5.65501ZM8.41378 12.65C8.41378 12.291 8.7098 12 9.06879 12C9.42777 12 9.7238 12.291 9.7238 12.65C9.7238 13.009 9.42777 13.3 9.06879 13.3C8.7098 13.3 8.41378 13.009 8.41378 12.65Z" fill="#254898"/>
</svg>
