<svg width="16" height="16" viewBox="0 0 16 16" fill="none" xmlns="http://www.w3.org/2000/svg">
<path fill-rule="evenodd" clip-rule="evenodd" d="M5.96763 2.78448C5.96763 1.69662 6.83852 0.800049 7.9308 0.800049C9.02308 0.800049 9.89398 1.69662 9.89398 2.78448C9.89398 3.0977 9.64006 3.35162 9.32684 3.35162C9.01361 3.35162 8.7597 3.0977 8.7597 2.78448C8.7597 2.30684 8.38054 1.93433 7.9308 1.93433C7.48107 1.93433 7.10191 2.30684 7.10191 2.78448C7.10191 3.26212 7.48107 3.63464 7.9308 3.63464C8.24303 3.63464 8.49633 3.88695 8.49793 4.1988H8.49795V5.60003H11.6133C12.4263 5.60003 13.14 6.14067 13.3603 6.92323L15.1309 12.8935C15.4567 14.0513 14.5866 15.2 13.3839 15.2H2.61573C1.41298 15.2 0.542917 14.0513 0.868747 12.8935L2.63931 6.92323C2.85954 6.14067 3.57333 5.60003 4.38629 5.60003H7.36367V4.68509C6.55197 4.43832 5.96763 3.67557 5.96763 2.78448ZM11.6133 6.73431H4.38629C4.08143 6.73431 3.81376 6.93705 3.73117 7.23051L1.96061 13.2008C1.83842 13.635 2.1647 14.0658 2.61573 14.0658H13.3839C13.8349 14.0658 14.1612 13.635 14.039 13.2008L12.2684 7.23051C12.1858 6.93705 11.9182 6.73431 11.6133 6.73431Z" fill="#4070F4"/>
</svg>
