<svg width="12" height="14" viewBox="0 0 12 14" fill="none" xmlns="http://www.w3.org/2000/svg">
<path fill-rule="evenodd" clip-rule="evenodd" d="M5.93942 0.0305438C5.92955 -0.0101813 5.88019 -0.0101813 5.86044 0.0305438L4.71527 2.04644C4.70539 2.0668 4.70539 2.08716 4.71527 2.09734L5.89993 4.19469L9.03929 9.75366C9.04917 9.77403 9.04917 9.79439 9.02942 9.81475L7.37089 11.7288L5.60377 13.7855C5.57415 13.816 5.59389 13.8669 5.64325 13.8669H8.28901C8.29888 13.8669 8.31862 13.8567 8.32849 13.8465L11.5863 10.0693C11.5962 10.0489 11.6061 10.0286 11.5962 10.0082L5.93942 0.0305438ZM4.6951 13.8514C4.70228 13.8462 4.70946 13.841 4.71424 13.8359L6.41777 11.7633C6.44648 11.7322 6.42734 11.6804 6.37949 11.6804H4.50369C4.49412 11.6804 4.47498 11.67 4.46541 11.6597L2.87673 9.73222C2.86716 9.71149 2.85759 9.69077 2.86716 9.67004L5.52773 4.72703C5.5373 4.70631 5.5373 4.68558 5.52773 4.67522L4.42713 2.6234C4.40799 2.59231 4.36014 2.59231 4.341 2.6234L0.407568 9.93947C0.397998 9.9602 0.397998 9.98092 0.407568 10.0016L3.5658 13.8462C3.57537 13.8566 3.58494 13.8669 3.60408 13.8669H4.67596C4.68075 13.8618 4.68792 13.8566 4.6951 13.8514Z" fill="white"/>
</svg>
