<svg width="13" height="14" viewBox="0 0 13 14" fill="none" xmlns="http://www.w3.org/2000/svg">
<path fill-rule="evenodd" clip-rule="evenodd" d="M4.6001 3.8C4.6001 2.75066 5.45076 1.9 6.5001 1.9C7.54944 1.9 8.40009 2.75066 8.40009 3.8C8.40009 4.84934 7.54944 5.7 6.5001 5.7C5.45076 5.7 4.6001 4.84934 4.6001 3.8ZM6.5001 0.6C4.73279 0.6 3.3001 2.03269 3.3001 3.8C3.3001 5.56731 4.73279 7 6.5001 7C8.2674 7 9.70009 5.56731 9.70009 3.8C9.70009 2.03269 8.2674 0.6 6.5001 0.6ZM0.100098 13.4C0.100098 12.958 0.165945 12.5216 0.293114 12.1C0.301849 12.0711 0.310874 12.0422 0.320186 12.0134C0.609132 11.1192 1.17522 10.295 1.97461 9.62881C3.17485 8.62862 4.80271 8.06671 6.50009 8.06671C8.19748 8.06671 9.82534 8.62862 11.0256 9.62881C11.825 10.295 12.3911 11.1192 12.68 12.0134C12.6893 12.0422 12.6983 12.0711 12.7071 12.1C12.8342 12.5216 12.9001 12.958 12.9001 13.4H11.6001H1.4001H0.100098ZM10.1933 10.6275C10.717 11.0639 11.0938 11.5705 11.3244 12.1H1.67577C1.90637 11.5705 2.28317 11.0639 2.80685 10.6275C3.75266 9.83932 5.07861 9.36671 6.50009 9.36671C7.92158 9.36671 9.24753 9.83932 10.1933 10.6275Z" fill="#4070F4"/>
</svg>
