<svg width="211" height="97" viewBox="0 0 211 97" fill="none" xmlns="http://www.w3.org/2000/svg">
<g id="Illustration_register-delegate-failed">
<g id="Group 43">
<g id="Group 533">
<path id="Fill 1" d="M97.3943 96.1792V80.0687H117.166V96.1792H97.3943Z" fill="white" stroke="#0C152E" stroke-width="0.5"/>
<path id="Stroke 4" fill-rule="evenodd" clip-rule="evenodd" d="M93.7332 96.179H97.3946V80.0686H93.7332V96.179Z" fill="#0C152E" stroke="#0C152E" stroke-width="0.5"/>
</g>
<path id="Fill 11" fill-rule="evenodd" clip-rule="evenodd" d="M45.4016 28.7976V79.9938H164.135L164.044 44.9851L164.135 5.42413H70.0346H45.4016V29.3172" fill="white"/>
<path id="Stroke 12" d="M45.7571 28.7976V79.9938H164.49V46.7493V5.42413H70.3901H45.7571V29.3172" stroke="#0C152E" stroke-width="0.5"/>
<path id="Fill 16" fill-rule="evenodd" clip-rule="evenodd" d="M45.7571 79.9934H50.0876V5.42371H45.7571V79.9934Z" fill="#0C152E"/>
<path id="Fill 17" fill-rule="evenodd" clip-rule="evenodd" d="M92.574 28.0174C92.574 34.7472 98.0295 40.2027 104.759 40.2027C111.49 40.2027 116.945 34.7472 116.945 28.0174C116.945 21.2875 111.49 15.8315 104.759 15.8315C98.0295 15.8315 92.574 21.2875 92.574 28.0174Z" fill="#DFE6F2"/>
<path id="Fill 19" fill-rule="evenodd" clip-rule="evenodd" d="M67.7048 80.005C73.831 53.9676 88.3771 45.2153 104.76 45.2153C121.144 45.2153 136.628 52.436 142.754 80.005H67.7048Z" fill="#DFE6F2"/>
<path id="Fill 21" fill-rule="evenodd" clip-rule="evenodd" d="M106.004 15.8941C110.357 17.7532 113.409 22.0716 113.409 27.1042C113.409 33.8341 107.954 39.2896 101.223 39.2896C100.804 39.2896 100.389 39.2685 99.98 39.2271C101.448 39.8537 103.064 40.2028 104.76 40.2028C111.491 40.2028 116.946 34.7468 116.946 28.0169C116.946 21.7068 112.15 16.5171 106.004 15.8941Z" fill="#C1CDE5"/>
<path id="Fill 23" fill-rule="evenodd" clip-rule="evenodd" d="M110.967 46.5267C110.967 47.2509 107.958 47.8379 104.246 47.8379C100.534 47.8379 97.5247 47.2509 97.5247 46.5267C97.5247 45.8024 100.534 45.215 104.246 45.215C107.958 45.215 110.967 45.8024 110.967 46.5267Z" fill="#0C152E"/>
<path id="Stroke 25" d="M45.7571 28.7976V79.9938H164.49V44.5526V5.42413H70.3901H45.7571V29.3172" stroke="#0C152E" stroke-width="0.5"/>
<path id="Fill 29" fill-rule="evenodd" clip-rule="evenodd" d="M166.743 74.256C154.759 74.256 145.045 83.9704 145.045 95.9543H188.441C188.441 83.9704 178.726 74.256 166.743 74.256Z" fill="white"/>
<path id="Stroke 30" fill-rule="evenodd" clip-rule="evenodd" d="M166.743 74.256C154.759 74.256 145.045 83.9704 145.045 95.9543H188.441C188.441 83.9704 178.726 74.256 166.743 74.256Z" stroke="#0C152E" stroke-width="0.5"/>
<path id="Stroke 31" d="M147.6 85.8594H153.195C155.357 85.8594 157.109 84.1069 157.109 81.9455V76.5637" stroke="#0C152E" stroke-width="0.5"/>
<path id="Fill 47" fill-rule="evenodd" clip-rule="evenodd" d="M138.156 28.803H166.029V0.929565H138.156V28.803Z" fill="#EC6868"/>
<g id="i-minus/outlined">
<path id="Vector 6 (Stroke)" fill-rule="evenodd" clip-rule="evenodd" d="M161.301 14.9815C161.301 15.4583 160.915 15.8449 160.438 15.8449H143.744C143.267 15.8449 142.881 15.4583 142.881 14.9815C142.881 14.5046 143.267 14.118 143.744 14.118H160.438C160.915 14.118 161.301 14.5046 161.301 14.9815Z" fill="white"/>
</g>
<path id="Stroke 38" d="M0 95.9439H211" stroke="#0C152E" stroke-width="0.5"/>
</g>
</g>
</svg>
