<svg width="53" height="44" viewBox="0 0 53 44" fill="none" xmlns="http://www.w3.org/2000/svg">
<path d="M42.0908 15.4248L40.5908 15.4214L40.5878 16.7678L41.926 16.9157L42.0908 15.4248ZM42.0909 15.3636L43.5909 15.367V15.3636H42.0909ZM16.0771 11.0444L15.8551 12.5278L17.0925 12.713L17.4966 11.5289L16.0771 11.0444ZM18.3333 36.9091C19.1618 36.9091 19.8333 36.2375 19.8333 35.4091C19.8333 34.5807 19.1618 33.9091 18.3333 33.9091V36.9091ZM37.3889 33.9091C36.5605 33.9091 35.8889 34.5807 35.8889 35.4091C35.8889 36.2375 36.5605 36.9091 37.3889 36.9091V33.9091ZM43.5908 15.4282L43.5909 15.367L40.5909 15.3603L40.5908 15.4214L43.5908 15.4282ZM52.5 25.3864C52.5 19.4543 48.0185 14.5709 42.2556 13.9339L41.926 16.9157C46.1858 17.3866 49.5 21.0005 49.5 25.3864H52.5ZM40.9773 36.9091C47.3411 36.9091 52.5 31.7502 52.5 25.3864H49.5C49.5 30.0934 45.6843 33.9091 40.9773 33.9091V36.9091ZM14.25 33.9091C8.31294 33.9091 3.5 29.0961 3.5 23.1591H0.5C0.5 30.7529 6.65608 36.9091 14.25 36.9091V33.9091ZM3.5 23.1591C3.5 17.2221 8.31294 12.4091 14.25 12.4091V9.40909C6.65608 9.40909 0.5 15.5653 0.5 23.1591H3.5ZM14.25 12.4091C14.7966 12.4091 15.3325 12.4497 15.8551 12.5278L16.299 9.56087C15.6295 9.4607 14.9452 9.40909 14.25 9.40909V12.4091ZM28.7273 0.5C22.1971 0.5 16.6542 4.71014 14.6575 10.5598L17.4966 11.5289C19.0915 6.85666 23.5193 3.5 28.7273 3.5V0.5ZM43.5909 15.3636C43.5909 7.15465 36.9363 0.5 28.7273 0.5V3.5C35.2794 3.5 40.5909 8.8115 40.5909 15.3636H43.5909ZM18.3333 33.9091H14.25V36.9091H18.3333V33.9091ZM40.9773 33.9091H37.3889V36.9091H40.9773V33.9091Z" fill="#C5CFE4"/>
<path d="M27.8657 21.6799V41.6012" stroke="#C5CFE4" stroke-width="3" stroke-linecap="round"/>
<path d="M21.5118 27.5411L27.8656 21.5259L34.2197 27.541" stroke="#C5CFE4" stroke-width="3" stroke-linecap="round" stroke-linejoin="round"/>
</svg>
