<?xml version="1.0" encoding="UTF-8"?>
<svg width="22px" height="22px" viewBox="0 0 22 22" version="1.1" xmlns="http://www.w3.org/2000/svg" xmlns:xlink="http://www.w3.org/1999/xlink">
    <!-- Generator: sketchtool 58 (101010) - https://sketch.com -->
    <title>AA415411-83A5-4166-AF26-447F0FDF7430</title>
    <desc>Created with sketchtool.</desc>
    <g id="⭐️-Delegates" stroke="none" stroke-width="1" fill="none" fill-rule="evenodd">
        <g id="5.1---Delegate---Started-voting" transform="translate(-174.000000, -98.000000)">
            <g id="Group-4" transform="translate(-1.000000, 72.000000)">
                <g id="Group-2" transform="translate(25.000000, 17.000000)">
                    <g id="Group-20">
                        <g id="Group-18" transform="translate(151.000000, 0.000000)">
                            <g id="Group-16">
                                <g id="Group-17">
                                    <g id="added-votes" transform="translate(0.000000, 9.000000)">
                                        <path d="M8.16141358,12.510075 C12.6402521,12.510075 16.3217886,16.1916114 16.3217886,20.67045 L16.3217886,20.67045 L16.3217886,21.4209056 L3.48165941e-13,21.4109941 L0.00103930014,20.6604115 C0.00723704251,16.184402 3.68618241,12.510075 8.16141358,12.510075 Z M8.5,3 C10.4329861,3 12,4.56667165 12,6.5 C12,8.43270009 10.4327001,10 8.5,10 C6.56667165,10 5,8.43298606 5,6.5 C5,4.56638575 6.56638575,3 8.5,3 Z" id="Combined-Shape" stroke="#8A8CA2" fill-rule="nonzero"></path>
                                        <rect id="Rectangle" fill="#2BD67B" x="17" y="0" width="1" height="6"></rect>
                                        <rect id="Rectangle" fill="#2BD67B" transform="translate(17.500000, 3.000000) rotate(90.000000) translate(-17.500000, -3.000000) " x="17" y="0" width="1" height="6"></rect>
                                    </g>
                                </g>
                            </g>
                        </g>
                    </g>
                </g>
            </g>
        </g>
    </g>
</svg>