<svg width="20" height="20" viewBox="0 0 20 20" fill="none" xmlns="http://www.w3.org/2000/svg">
<mask id="path-1-inside-1_922_13432" fill="white">
<path fill-rule="evenodd" clip-rule="evenodd" d="M3 2C2.44772 2 2 2.44772 2 3V8C2 8.55228 2.44772 9 3 9H8C8.55228 9 9 8.55228 9 8V3C9 2.44772 8.55228 2 8 2H3ZM12 11C11.4477 11 11 11.4477 11 12V17C11 17.5523 11.4477 18 12 18H17C17.5523 18 18 17.5523 18 17V12C18 11.4477 17.5523 11 17 11H12ZM14.5 3.90689L12.6034 7.7H16.3966L14.5 3.90689ZM15.3944 2.78885C15.0259 2.05181 13.9741 2.05181 13.6056 2.78885L11.2236 7.55279C10.8912 8.21769 11.3747 9 12.118 9H16.882C17.6253 9 18.1088 8.21769 17.7764 7.55279L15.3944 2.78885ZM7.7 14.5C7.7 15.715 6.71503 16.7 5.5 16.7C4.28497 16.7 3.3 15.715 3.3 14.5C3.3 13.285 4.28497 12.3 5.5 12.3C6.71503 12.3 7.7 13.285 7.7 14.5ZM9 14.5C9 16.433 7.433 18 5.5 18C3.567 18 2 16.433 2 14.5C2 12.567 3.567 11 5.5 11C7.433 11 9 12.567 9 14.5Z"/>
</mask>
<path d="M12.6034 7.7L11.4407 7.11862L10.5 9H12.6034V7.7ZM14.5 3.90689L15.6628 3.32551L14.5 1L13.3372 3.32551L14.5 3.90689ZM16.3966 7.7V9H18.5L17.5593 7.11862L16.3966 7.7ZM13.6056 2.78885L12.4428 2.20748V2.20748L13.6056 2.78885ZM15.3944 2.78885L14.2317 3.37023L14.2317 3.37023L15.3944 2.78885ZM11.2236 7.55279L12.3864 8.13416V8.13416L11.2236 7.55279ZM17.7764 7.55279L16.6136 8.13417V8.13417L17.7764 7.55279ZM3.3 3C3.3 3.16569 3.16569 3.3 3 3.3V0.7C1.72975 0.7 0.7 1.72974 0.7 3H3.3ZM3.3 8V3H0.7V8H3.3ZM3 7.7C3.16569 7.7 3.3 7.83431 3.3 8H0.7C0.7 9.27025 1.72974 10.3 3 10.3V7.7ZM8 7.7H3V10.3H8V7.7ZM7.7 8C7.7 7.83431 7.83431 7.7 8 7.7V10.3C9.27026 10.3 10.3 9.27026 10.3 8H7.7ZM7.7 3V8H10.3V3H7.7ZM8 3.3C7.83431 3.3 7.7 3.16569 7.7 3H10.3C10.3 1.72975 9.27026 0.7 8 0.7V3.3ZM3 3.3H8V0.7H3V3.3ZM12.3 12C12.3 12.1657 12.1657 12.3 12 12.3V9.7C10.7297 9.7 9.7 10.7297 9.7 12H12.3ZM12.3 17V12H9.7V17H12.3ZM12 16.7C12.1657 16.7 12.3 16.8343 12.3 17H9.7C9.7 18.2703 10.7297 19.3 12 19.3V16.7ZM17 16.7H12V19.3H17V16.7ZM16.7 17C16.7 16.8343 16.8343 16.7 17 16.7V19.3C18.2703 19.3 19.3 18.2703 19.3 17H16.7ZM16.7 12V17H19.3V12H16.7ZM17 12.3C16.8343 12.3 16.7 12.1657 16.7 12H19.3C19.3 10.7297 18.2703 9.7 17 9.7V12.3ZM12 12.3H17V9.7H12V12.3ZM13.7662 8.28138L15.6628 4.48827L13.3372 3.32551L11.4407 7.11862L13.7662 8.28138ZM16.3966 6.4H12.6034V9H16.3966V6.4ZM13.3372 4.48827L15.2338 8.28138L17.5593 7.11862L15.6628 3.32551L13.3372 4.48827ZM14.7683 3.37023C14.6578 3.59135 14.3422 3.59135 14.2317 3.37023L16.5572 2.20748C15.7096 0.512266 13.2904 0.512263 12.4428 2.20748L14.7683 3.37023ZM12.3864 8.13416L14.7683 3.37023L12.4428 2.20748L10.0609 6.97141L12.3864 8.13416ZM12.118 7.7C12.341 7.7 12.4861 7.93469 12.3864 8.13416L10.0609 6.97141C9.29621 8.50068 10.4083 10.3 12.118 10.3V7.7ZM16.882 7.7H12.118V10.3H16.882V7.7ZM16.6136 8.13417C16.5139 7.93469 16.659 7.7 16.882 7.7V10.3C18.5917 10.3 19.7038 8.50068 18.9391 6.97141L16.6136 8.13417ZM14.2317 3.37023L16.6136 8.13417L18.9391 6.97141L16.5572 2.20748L14.2317 3.37023ZM5.5 18C7.433 18 9 16.433 9 14.5H6.4C6.4 14.9971 5.99706 15.4 5.5 15.4V18ZM2 14.5C2 16.433 3.567 18 5.5 18V15.4C5.00294 15.4 4.6 14.9971 4.6 14.5H2ZM5.5 11C3.567 11 2 12.567 2 14.5H4.6C4.6 14.0029 5.00294 13.6 5.5 13.6V11ZM9 14.5C9 12.567 7.433 11 5.5 11V13.6C5.99706 13.6 6.4 14.0029 6.4 14.5H9ZM5.5 19.3C8.15097 19.3 10.3 17.151 10.3 14.5H7.7C7.7 15.715 6.71503 16.7 5.5 16.7V19.3ZM0.7 14.5C0.7 17.151 2.84903 19.3 5.5 19.3V16.7C4.28497 16.7 3.3 15.715 3.3 14.5H0.7ZM5.5 9.7C2.84903 9.7 0.7 11.849 0.7 14.5H3.3C3.3 13.285 4.28497 12.3 5.5 12.3V9.7ZM10.3 14.5C10.3 11.849 8.15097 9.7 5.5 9.7V12.3C6.71503 12.3 7.7 13.285 7.7 14.5H10.3Z" fill="#C5CFE4" mask="url(#path-1-inside-1_922_13432)"/>
</svg>
