<svg width="20" height="20" viewBox="0 0 20 20" fill="none" xmlns="http://www.w3.org/2000/svg">
<path fill-rule="evenodd" clip-rule="evenodd" d="M11.2236 7.55279L13.6056 2.78885L13.6061 2.78782C13.9751 2.05181 15.0261 2.05215 15.3944 2.78885L17.7764 7.55279L17.7772 7.55443C18.108 8.21898 17.6247 9 16.882 9H12.118C11.3747 9 10.8912 8.21769 11.2236 7.55279ZM9 14.5C9 16.433 7.433 18 5.5 18C3.567 18 2 16.433 2 14.5C2 12.567 3.567 11 5.5 11C7.433 11 9 12.567 9 14.5ZM2 3C2 2.44772 2.44772 2 3 2H8C8.55228 2 9 2.44772 9 3V8C9 8.55228 8.55228 9 8 9H3C2.44772 9 2 8.55228 2 8V3ZM11 12C11 11.4477 11.4477 11 12 11H17C17.5523 11 18 11.4477 18 12V17C18 17.5523 17.5523 18 17 18H12C11.4477 18 11 17.5523 11 17V12Z" fill="white"/>
</svg>
