<svg width="16" height="16" viewBox="0 0 16 16" fill="none" xmlns="http://www.w3.org/2000/svg">
<mask id="path-1-inside-1_3195_3007" fill="white">
<path fill-rule="evenodd" clip-rule="evenodd" d="M1 0C0.447715 0 0 0.447715 0 1V6C0 6.55228 0.447715 7 1 7H6C6.55228 7 7 6.55228 7 6V1C7 0.447715 6.55228 0 6 0H1ZM10 9C9.44772 9 9 9.44771 9 10V15C9 15.5523 9.44771 16 10 16H15C15.5523 16 16 15.5523 16 15V10C16 9.44772 15.5523 9 15 9H10ZM12.5 1.90689L10.6034 5.7H14.3966L12.5 1.90689ZM13.3944 0.788855C13.0259 0.0518061 11.9741 0.0518051 11.6056 0.788854L9.22361 5.55279C8.89116 6.21769 9.37465 7 10.118 7H14.882C15.6253 7 16.1088 6.21769 15.7764 5.55279L13.3944 0.788855ZM5.7 12.5C5.7 13.715 4.71503 14.7 3.5 14.7C2.28497 14.7 1.3 13.715 1.3 12.5C1.3 11.285 2.28497 10.3 3.5 10.3C4.71503 10.3 5.7 11.285 5.7 12.5ZM7 12.5C7 14.433 5.433 16 3.5 16C1.567 16 0 14.433 0 12.5C0 10.567 1.567 9 3.5 9C5.433 9 7 10.567 7 12.5Z"/>
</mask>
<path d="M10.6034 5.7L9.44069 5.11862L8.5 7H10.6034V5.7ZM12.5 1.90689L13.6628 1.32551L12.5 -1L11.3372 1.32551L12.5 1.90689ZM14.3966 5.7V7H16.5L15.5593 5.11862L14.3966 5.7ZM11.6056 0.788854L10.4428 0.207476V0.207476L11.6056 0.788854ZM13.3944 0.788855L12.2317 1.37023L12.2317 1.37023L13.3944 0.788855ZM9.22361 5.55279L10.3864 6.13416V6.13416L9.22361 5.55279ZM15.7764 5.55279L14.6136 6.13417V6.13417L15.7764 5.55279ZM1.3 1C1.3 1.16569 1.16569 1.3 1 1.3V-1.3C-0.270255 -1.3 -1.3 -0.270255 -1.3 1H1.3ZM1.3 6V1H-1.3V6H1.3ZM1 5.7C1.16569 5.7 1.3 5.83431 1.3 6H-1.3C-1.3 7.27025 -0.270255 8.3 1 8.3V5.7ZM6 5.7H1V8.3H6V5.7ZM5.7 6C5.7 5.83431 5.83431 5.7 6 5.7V8.3C7.27026 8.3 8.3 7.27026 8.3 6H5.7ZM5.7 1V6H8.3V1H5.7ZM6 1.3C5.83431 1.3 5.7 1.16569 5.7 1H8.3C8.3 -0.270255 7.27026 -1.3 6 -1.3V1.3ZM1 1.3H6V-1.3H1V1.3ZM10.3 10C10.3 10.1657 10.1657 10.3 10 10.3V7.7C8.72975 7.7 7.7 8.72974 7.7 10H10.3ZM10.3 15V10H7.7V15H10.3ZM10 14.7C10.1657 14.7 10.3 14.8343 10.3 15H7.7C7.7 16.2703 8.72974 17.3 10 17.3V14.7ZM15 14.7H10V17.3H15V14.7ZM14.7 15C14.7 14.8343 14.8343 14.7 15 14.7V17.3C16.2703 17.3 17.3 16.2703 17.3 15H14.7ZM14.7 10V15H17.3V10H14.7ZM15 10.3C14.8343 10.3 14.7 10.1657 14.7 10H17.3C17.3 8.72975 16.2703 7.7 15 7.7V10.3ZM10 10.3H15V7.7H10V10.3ZM11.7662 6.28138L13.6628 2.48827L11.3372 1.32551L9.44069 5.11862L11.7662 6.28138ZM14.3966 4.4H10.6034V7H14.3966V4.4ZM11.3372 2.48827L13.2338 6.28138L15.5593 5.11862L13.6628 1.32551L11.3372 2.48827ZM12.7683 1.37023C12.6578 1.59135 12.3422 1.59135 12.2317 1.37023L14.5572 0.207478C13.7096 -1.48773 11.2904 -1.48774 10.4428 0.207476L12.7683 1.37023ZM10.3864 6.13416L12.7683 1.37023L10.4428 0.207476L8.06085 4.97141L10.3864 6.13416ZM10.118 5.7C10.341 5.7 10.4861 5.93469 10.3864 6.13416L8.06085 4.97141C7.29621 6.50068 8.40826 8.3 10.118 8.3V5.7ZM14.882 5.7H10.118V8.3H14.882V5.7ZM14.6136 6.13417C14.5139 5.93469 14.659 5.7 14.882 5.7V8.3C16.5917 8.3 17.7038 6.50068 16.9391 4.97141L14.6136 6.13417ZM12.2317 1.37023L14.6136 6.13417L16.9391 4.97141L14.5572 0.207477L12.2317 1.37023ZM3.5 16C5.433 16 7 14.433 7 12.5H4.4C4.4 12.9971 3.99706 13.4 3.5 13.4V16ZM0 12.5C0 14.433 1.567 16 3.5 16V13.4C3.00294 13.4 2.6 12.9971 2.6 12.5H0ZM3.5 9C1.567 9 0 10.567 0 12.5H2.6C2.6 12.0029 3.00294 11.6 3.5 11.6V9ZM7 12.5C7 10.567 5.433 9 3.5 9V11.6C3.99706 11.6 4.4 12.0029 4.4 12.5H7ZM3.5 17.3C6.15097 17.3 8.3 15.151 8.3 12.5H5.7C5.7 13.715 4.71503 14.7 3.5 14.7V17.3ZM-1.3 12.5C-1.3 15.151 0.849033 17.3 3.5 17.3V14.7C2.28497 14.7 1.3 13.715 1.3 12.5H-1.3ZM3.5 7.7C0.849033 7.7 -1.3 9.84903 -1.3 12.5H1.3C1.3 11.285 2.28497 10.3 3.5 10.3V7.7ZM8.3 12.5C8.3 9.84903 6.15097 7.7 3.5 7.7V10.3C4.71503 10.3 5.7 11.285 5.7 12.5H8.3Z" fill="#8A8CA2" mask="url(#path-1-inside-1_3195_3007)"/>
</svg>
