<svg viewBox="0 0 8 12" fill="white" xmlns="http://www.w3.org/2000/svg">
<path d="M7.28731 1.76866C7.60181 1.49909 7.63823 1.02562 7.36866 0.711125C7.09909 0.396631 6.62562 0.36021 6.31113 0.629776L7.28731 1.76866ZM1.19922 5.99922L0.711125 5.42978C0.544891 5.57226 0.449219 5.78028 0.449219 5.99922C0.449219 6.21816 0.544891 6.42617 0.711125 6.56866L1.19922 5.99922ZM6.31113 11.3687C6.62562 11.6382 7.09909 11.6018 7.36866 11.2873C7.63823 10.9728 7.60181 10.4993 7.28731 10.2298L6.31113 11.3687ZM6.31113 0.629776L0.711125 5.42978L1.68731 6.56866L7.28731 1.76866L6.31113 0.629776ZM0.711125 6.56866L6.31113 11.3687L7.28731 10.2298L1.68731 5.42978L0.711125 6.56866Z" />
</svg>
