<svg width="20" height="20" viewBox="0 0 20 20" fill="currentColor" xmlns="http://www.w3.org/2000/svg">
<path fill-rule="evenodd" clip-rule="evenodd" d="M3.46939 9.25026L7.19406 5.31583C7.47882 5.01503 7.47883 4.52733 7.19407 4.22652C6.90931 3.92572 6.44761 3.92571 6.16285 4.22651L1.2126 9.45555C1.07585 9.6 0.999023 9.79591 0.999023 10.0002C0.999023 10.2045 1.07584 10.4004 1.21259 10.5449L6.1628 15.774C6.44756 16.0748 6.90926 16.0748 7.19402 15.774C7.47879 15.4732 7.47879 14.9855 7.19403 14.6847L3.46946 10.7503L18.2497 10.7503C18.6639 10.7503 18.9997 10.4145 18.9997 10.0003C18.9997 9.58605 18.6639 9.25026 18.2497 9.25026L3.46939 9.25026Z"/>
</svg>
