<svg width="8" height="12" viewBox="0 0 8 12" fill="#4070F4" xmlns="http://www.w3.org/2000/svg">
<path d="M0.712687 1.76866C0.398193 1.49909 0.361772 1.02562 0.631339 0.711125C0.900905 0.396631 1.37438 0.36021 1.68887 0.629776L0.712687 1.76866ZM6.80078 5.99922L7.28887 5.42978C7.45511 5.57226 7.55078 5.78028 7.55078 5.99922C7.55078 6.21816 7.45511 6.42617 7.28887 6.56866L6.80078 5.99922ZM1.68887 11.3687C1.37438 11.6382 0.900905 11.6018 0.631339 11.2873C0.361772 10.9728 0.398193 10.4993 0.712687 10.2298L1.68887 11.3687ZM1.68887 0.629776L7.28887 5.42978L6.31269 6.56866L0.712687 1.76866L1.68887 0.629776ZM7.28887 6.56866L1.68887 11.3687L0.712687 10.2298L6.31269 5.42978L7.28887 6.56866Z" />
</svg>
