<svg width="14" height="14" viewBox="0 0 14 14" fill="none" xmlns="http://www.w3.org/2000/svg">
<path fill-rule="evenodd" clip-rule="evenodd" d="M5.19636 4.44823C4.94251 4.19438 4.94252 3.78283 5.19636 3.52899L6.9085 1.81684C8.36529 0.360054 10.7272 0.360052 12.184 1.81684C13.6408 3.27363 13.6408 5.63556 12.184 7.09235L10.4719 8.80449C10.218 9.05834 9.80647 9.05834 9.55262 8.8045C9.29878 8.55065 9.29878 8.1391 9.55263 7.88526L11.2648 6.17311C12.2139 5.224 12.2139 3.68519 11.2648 2.73608C10.3157 1.78697 8.77685 1.78697 7.82774 2.73608L6.11559 4.44823C5.86175 4.70207 5.4502 4.70207 5.19636 4.44823ZM4.44833 5.19625C4.19449 4.94241 3.78294 4.94241 3.5291 5.19625L1.81695 6.90839C0.360162 8.36518 0.360163 10.7271 1.81695 12.1839C3.27374 13.6407 5.63567 13.6407 7.09246 12.1839L8.8046 10.4718C9.05845 10.2179 9.05845 9.80636 8.8046 9.55252C8.55076 9.29868 8.13921 9.29867 7.88537 9.55252L6.17322 11.2647C5.22411 12.2138 3.6853 12.2138 2.73619 11.2647C1.78708 10.3155 1.78708 8.77674 2.73619 7.82763L4.44833 6.11548C4.70218 5.86164 4.70218 5.45009 4.44833 5.19625ZM4.03994 9.04161C3.7861 9.29545 3.7861 9.70701 4.03994 9.96085C4.29378 10.2147 4.70534 10.2147 4.95918 9.96085L9.96097 4.95907C10.2148 4.70523 10.2148 4.29367 9.96097 4.03983C9.70713 3.78599 9.29557 3.78599 9.04173 4.03983L4.03994 9.04161Z" fill="#4070F4"/>
</svg>
