<svg width="16" height="16" viewBox="0 0 16 16" fill="none" xmlns="http://www.w3.org/2000/svg">
<path d="M15.2 8.83087C15.2 9.59557 13.5882 10.2155 11.6 10.2155C9.61177 10.2155 8 9.59557 8 8.83087" stroke="#254898"/>
<path d="M15.2 11.0462C15.2 11.8109 13.5882 12.4308 11.6 12.4308C9.61177 12.4308 8 11.8109 8 11.0462" stroke="#254898"/>
<path d="M15.2 13.2616C15.2 14.0263 13.5882 14.6462 11.6 14.6462C9.61177 14.6462 8 14.0263 8 13.2616" stroke="#254898"/>
<path d="M15.2 8.83087C15.2 8.06617 13.5882 7.44626 11.6 7.44626C9.61177 7.44626 8 8.06617 8 8.83087" stroke="#254898"/>
<path d="M8 8.83087V13.2616" stroke="#254898" stroke-linecap="round" stroke-linejoin="round"/>
<path d="M15.2002 8.83087V13.2616" stroke="#254898" stroke-linecap="round" stroke-linejoin="round"/>
<path d="M7.9998 2.18463C7.9998 2.94933 6.38803 3.56925 4.3998 3.56925C2.41158 3.56925 0.799805 2.94933 0.799805 2.18463" stroke="#254898"/>
<path d="M7.9998 4.39996C7.9998 5.16467 6.38803 5.78458 4.3998 5.78458C2.41158 5.78458 0.799805 5.16467 0.799805 4.39996" stroke="#254898"/>
<path d="M7.9998 6.6153C7.9998 7.38 6.38803 7.99991 4.3998 7.99991C2.41158 7.99991 0.799805 7.38 0.799805 6.6153" stroke="#254898"/>
<path d="M7.9998 8.83081C7.9998 9.59551 6.38803 10.2154 4.3998 10.2154C2.41158 10.2154 0.799805 9.59551 0.799805 8.83081" stroke="#254898"/>
<path d="M7.9998 11.0461C7.9998 11.8108 6.38803 12.4308 4.3998 12.4308C2.41158 12.4308 0.799805 11.8108 0.799805 11.0461" stroke="#254898"/>
<path d="M7.9998 13.2616C7.9998 14.0263 6.38803 14.6462 4.3998 14.6462C2.41158 14.6462 0.799805 14.0263 0.799805 13.2616" stroke="#254898"/>
<path d="M7.9998 2.18463C7.9998 1.41993 6.38803 0.800016 4.3998 0.800016C2.41158 0.800016 0.799805 1.41993 0.799805 2.18463" stroke="#254898"/>
<path d="M0.799805 2.18469V13.2616" stroke="#254898" stroke-linecap="round" stroke-linejoin="round"/>
<path d="M8 2.18469V13.3139" stroke="#254898" stroke-linecap="round" stroke-linejoin="round"/>
</svg>
