<svg width="16" height="16" viewBox="0 0 16 16" fill="none" xmlns="http://www.w3.org/2000/svg">
<path d="M13.6 8.64648C13.6 9.24125 12.3464 9.72341 10.8 9.72341C9.2536 9.72341 8 9.24125 8 8.64648" stroke="#254898"/>
<path d="M13.6 10.3711C13.6 10.9659 12.3464 11.448 10.8 11.448C9.2536 11.448 8 10.9659 8 10.3711" stroke="#254898"/>
<path d="M13.6 12.0938C13.6 12.6885 12.3464 13.1707 10.8 13.1707C9.2536 13.1707 8 12.6885 8 12.0938" stroke="#254898"/>
<path d="M13.6 8.64648C13.6 8.05172 12.3464 7.56956 10.8 7.56956C9.2536 7.56956 8 8.05172 8 8.64648" stroke="#254898"/>
<path d="M8 8.64648V12.0926" stroke="#254898" stroke-linecap="round" stroke-linejoin="round"/>
<path d="M13.5996 8.64648V12.0926" stroke="#254898" stroke-linecap="round" stroke-linejoin="round"/>
<path d="M8.00039 3.47656C8.00039 4.07133 6.74679 4.55349 5.20039 4.55349C3.65399 4.55349 2.40039 4.07133 2.40039 3.47656" stroke="#254898"/>
<path d="M8.00039 5.20117C8.00039 5.79594 6.74679 6.2781 5.20039 6.2781C3.65399 6.2781 2.40039 5.79594 2.40039 5.20117" stroke="#254898"/>
<path d="M8.00039 6.92383C8.00039 7.5186 6.74679 8.00075 5.20039 8.00075C3.65399 8.00075 2.40039 7.5186 2.40039 6.92383" stroke="#254898"/>
<path d="M8.00039 8.64648C8.00039 9.24125 6.74679 9.72341 5.20039 9.72341C3.65399 9.72341 2.40039 9.24125 2.40039 8.64648" stroke="#254898"/>
<path d="M8.00039 10.3691C8.00039 10.9639 6.74679 11.4461 5.20039 11.4461C3.65399 11.4461 2.40039 10.9639 2.40039 10.3691" stroke="#254898"/>
<path d="M8.00039 12.0918C8.00039 12.6866 6.74679 13.1687 5.20039 13.1687C3.65399 13.1687 2.40039 12.6866 2.40039 12.0918" stroke="#254898"/>
<path d="M8.00039 3.47656C8.00039 2.88179 6.74679 2.39964 5.20039 2.39964C3.65399 2.39964 2.40039 2.88179 2.40039 3.47656" stroke="#254898"/>
<path d="M2.40039 3.47656V12.0919" stroke="#254898" stroke-linecap="round" stroke-linejoin="round"/>
<path d="M8 3.47656V12.1326" stroke="#254898" stroke-linecap="round" stroke-linejoin="round"/>
</svg>
