<svg width="16" height="16" viewBox="0 0 16 16" fill="none" xmlns="http://www.w3.org/2000/svg">
<path fill-rule="evenodd" clip-rule="evenodd" d="M2.75435 9.85119C2.3567 9.85119 2.03435 9.52884 2.03435 9.13119V3.03405C2.03435 2.48177 2.48207 2.03405 3.03435 2.03405H9.13149C9.52914 2.03405 9.85149 2.35641 9.85149 2.75405V2.85691C9.85149 3.19775 10.1278 3.47405 10.4686 3.47405C10.8095 3.47405 11.0858 3.19775 11.0858 2.85691V2.58262C11.0858 1.59798 10.2876 0.799765 9.30292 0.799765H2.80006C1.69549 0.799765 0.800064 1.6952 0.800064 2.79977V9.30262C0.800064 10.2873 1.59828 11.0855 2.58292 11.0855H2.85721C3.19805 11.0855 3.47435 10.8092 3.47435 10.4683C3.47435 10.1275 3.19805 9.85119 2.85721 9.85119H2.75435ZM6.14861 7.14846C6.14861 6.59618 6.59632 6.14846 7.14861 6.14846H12.9657C13.518 6.14846 13.9657 6.59618 13.9657 7.14846V12.9656C13.9657 13.5179 13.518 13.9656 12.9657 13.9656H7.14861C6.59632 13.9656 6.14861 13.5179 6.14861 12.9656V7.14846ZM15.2 6.91413C15.2 5.80956 14.3046 4.91413 13.2 4.91413H6.91432C5.80975 4.91413 4.91432 5.80956 4.91432 6.91413V13.1998C4.91432 14.3044 5.80975 15.1998 6.91432 15.1998H13.2C14.3046 15.1998 15.2 14.3044 15.2 13.1998V6.91413Z" fill="#4070F4"/>
</svg>
