<svg width="18" height="18" viewBox="0 0 18 18" fill="none" xmlns="http://www.w3.org/2000/svg">
<path fill-rule="evenodd" clip-rule="evenodd" d="M6.70586 1.65C6.70586 1.4567 6.86256 1.3 7.05586 1.3H10.944C11.1373 1.3 11.294 1.4567 11.294 1.65V2.94657H6.70586V1.65ZM5.40586 2.94657V1.65C5.40586 0.73873 6.14459 0 7.05586 0H10.944C11.8553 0 12.594 0.738731 12.594 1.65V2.94657H14.8881H16.8517C17.2107 2.94657 17.5017 3.23759 17.5017 3.59657C17.5017 3.95556 17.2107 4.24657 16.8517 4.24657H15.5381V16.3508C15.5381 17.262 14.7994 18.0008 13.8881 18.0008H4.11179C3.20052 18.0008 2.46179 17.262 2.46179 16.3508V4.24657H1.15C0.791015 4.24657 0.5 3.95556 0.5 3.59657C0.5 3.23759 0.791015 2.94657 1.15 2.94657H3.11179H5.40586ZM3.76179 4.24657H14.2381V16.3508C14.2381 16.5441 14.0814 16.7008 13.8881 16.7008H4.11179C3.91849 16.7008 3.76179 16.5441 3.76179 16.3508V4.24657Z" fill="#FF4557"/>
</svg>
