<svg width="20" height="20" viewBox="0 0 20 20" fill="none" xmlns="http://www.w3.org/2000/svg">
<path d="M14.3125 2.42583L14.6187 3.26003L13.5894 4.28923L13.096 2.98254C13.0764 2.96268 13.0667 2.94281 13.0569 2.92295C13.0471 2.90308 13.0373 2.88322 13.0178 2.86335C12.8439 2.61614 12.5465 2.55728 12.3177 2.68677L12.2355 2.74416L10.5144 4.05528C10.2748 4.2291 9.94538 4.25083 9.68334 4.12046L9.57562 4.05528L7.85454 2.74416C7.81542 2.70443 7.77631 2.6647 7.73719 2.6647C7.45904 2.55875 7.18088 2.67255 7.04009 2.89447L6.994 2.98254L4.9375 8.36875H9.50993L7.87868 10H1.75C1.3375 10 1 9.7061 1 9.24903C1 8.83005 1.28359 8.42566 1.64859 8.36118L1.75 8.35226H3.5125L5.6875 2.42583C5.7625 2.25963 5.8375 2.09342 5.95 1.92721C6.59125 0.979828 7.774 0.744956 8.66231 1.3651L8.8 1.47014L10 2.46739L11.2 1.47014C11.2904 1.36994 11.4293 1.29658 11.5583 1.22849C11.5897 1.21188 11.6206 1.19558 11.65 1.17928C12.65 0.704398 13.7861 1.20943 14.2483 2.26364L14.3125 2.42583Z" fill="#8A8CA2"/>
<path d="M15.13 8.36875H13.7526L12.1213 10H18.25L18.3604 9.99281C18.7211 9.94522 19 9.66455 19 9.24903C19 8.79196 18.6625 8.35226 18.25 8.35226H16.4875L15.7577 6.36364L14.7524 7.3689L15.13 8.36875Z" fill="#8A8CA2"/>
<path d="M3.27599 12.6C4.08361 11.9865 5.07122 11.7494 6.00605 11.8726L4.41996 13.4587C4.03327 13.6674 3.71464 13.9861 3.50591 14.3728L1.93957 15.9391C1.75584 14.7026 2.21364 13.4071 3.27599 12.6Z" fill="#8A8CA2"/>
<path fill-rule="evenodd" clip-rule="evenodd" d="M9.47418 12.6471L7.55941 14.5619C7.67388 14.8317 7.73719 15.1285 7.73719 15.44C7.73719 16.6826 6.72983 17.69 5.48719 17.69C5.17565 17.69 4.8789 17.6267 4.6091 17.5122L3.63769 18.4836C4.89883 19.2355 6.54349 19.1731 7.7718 18.24C8.5616 17.6086 9.07202 16.6667 9.14091 15.6707L9.14889 15.44V15L9.15632 14.8918C9.21021 14.5025 9.55054 14.2 9.95895 14.2C10.4045 14.2 10.769 14.56 10.769 15V15.44L10.7749 15.6414C10.8839 17.5084 12.4981 19 14.4142 19C16.4394 19 18.0595 17.4 18.1 15.44C18.1 13.44 16.4799 11.8 14.4548 11.8C13.3207 11.8 12.2271 12.32 11.5386 13.2C10.9681 12.6879 10.1986 12.5036 9.47418 12.6471ZM14.5 13.15C13.2574 13.15 12.25 14.1574 12.25 15.4C12.25 16.6426 13.2574 17.65 14.5 17.65C15.7426 17.65 16.75 16.6426 16.75 15.4C16.75 14.1574 15.7426 13.15 14.5 13.15Z" fill="#8A8CA2"/>
<path d="M18.4596 2.45962C18.7135 2.20578 18.7135 1.79422 18.4596 1.54038C18.2058 1.28654 17.7942 1.28654 17.5404 1.54038L1.54038 17.5404C1.28654 17.7942 1.28654 18.2058 1.54038 18.4596C1.79422 18.7135 2.20578 18.7135 2.45962 18.4596L18.4596 2.45962Z" fill="#8A8CA2"/>
</svg>
