<svg width="16" height="16" viewBox="0 0 16 16" fill="none" xmlns="http://www.w3.org/2000/svg">
<path fill-rule="evenodd" clip-rule="evenodd" d="M7.25008 9.07038L5.75559 7.65557C5.45479 7.3708 4.96709 7.3708 4.66628 7.65556C4.36547 7.94032 4.36547 8.40201 4.66627 8.68678L7.45539 11.3272C7.59984 11.4639 7.79576 11.5408 8.00004 11.5408C8.20433 11.5408 8.40025 11.464 8.5447 11.3272L11.3339 8.6868C11.6347 8.40204 11.6347 7.94035 11.3339 7.65559C11.0331 7.37082 10.5454 7.37082 10.2446 7.65558L8.75008 9.07036L8.75008 1.99917C8.75008 1.58496 8.41429 1.24917 8.00008 1.24917C7.58587 1.24917 7.25008 1.58496 7.25008 1.99917V9.07038Z" fill="#4070F4"/>
<path d="M2.92188 13.6001H13.0844" stroke="#4070F4" stroke-width="1.3" stroke-linecap="round"/>
</svg>
