<svg width="14" height="14" viewBox="0 0 14 14" fill="none" xmlns="http://www.w3.org/2000/svg">
<path d="M3.36949 4.06186C3.09992 3.74736 2.62645 3.71094 2.31196 3.98051C1.99746 4.25008 1.96104 4.72355 2.23061 5.03804L3.36949 4.06186ZM7.00005 9.44995L6.43061 9.93804C6.57309 10.1043 6.78111 10.2 7.00005 10.2C7.21899 10.2 7.427 10.1043 7.56949 9.93804L7.00005 9.44995ZM11.7695 5.03804C12.0391 4.72355 12.0026 4.25008 11.6881 3.98051C11.3736 3.71094 10.9002 3.74736 10.6306 4.06186L11.7695 5.03804ZM2.23061 5.03804L6.43061 9.93804L7.56949 8.96186L3.36949 4.06186L2.23061 5.03804ZM7.56949 9.93804L11.7695 5.03804L10.6306 4.06186L6.43061 8.96186L7.56949 9.93804Z" fill="#DFE6F2"/>
</svg>
