<svg width="21" height="20" viewBox="0 0 21 20" fill="none" xmlns="http://www.w3.org/2000/svg">
<path d="M5.06944 6.01191C4.79988 5.69741 4.3264 5.66099 4.01191 5.93056C3.69741 6.20012 3.66099 6.6736 3.93056 6.98809L5.06944 6.01191ZM10.5 13.5L9.93056 13.9881C10.073 14.1543 10.2811 14.25 10.5 14.25C10.7189 14.25 10.927 14.1543 11.0694 13.9881L10.5 13.5ZM17.0694 6.98809C17.339 6.6736 17.3026 6.20012 16.9881 5.93056C16.6736 5.66099 16.2001 5.69741 15.9306 6.01191L17.0694 6.98809ZM3.93056 6.98809L9.93056 13.9881L11.0694 13.0119L5.06944 6.01191L3.93056 6.98809ZM11.0694 13.9881L17.0694 6.98809L15.9306 6.01191L9.93056 13.0119L11.0694 13.9881Z" fill="#8A8CA2"/>
</svg>
