<svg width="10" height="10" viewBox="0 0 10 10" fill="none" xmlns="http://www.w3.org/2000/svg">
<path fill-rule="evenodd" clip-rule="evenodd" d="M9.36853 3.72532C9.74261 3.3506 9.94961 2.85035 9.94961 2.32056C9.94961 1.79032 9.74305 1.29091 9.36845 0.91648C8.61452 0.160598 7.31663 0.16068 6.56204 0.916561L6.12995 1.34939L8.91967 4.17495L9.36853 3.72532ZM8.39793 4.69758L3.95229 9.15083C3.85287 9.25043 3.72844 9.32138 3.59339 9.35448L1.31147 9.92593C1.24917 9.9419 1.18585 9.94964 1.122 9.94964C0.917819 9.94964 0.72091 9.86836 0.574603 9.72179C0.383919 9.52934 0.307181 9.25133 0.372475 8.98826L0.942481 6.70205C0.976037 6.56614 1.0468 6.44124 1.1458 6.34208L5.60821 1.87202L8.39793 4.69758Z" fill="#DFE6F2"/>
</svg>
