<svg width="131" height="94" viewBox="0 0 131 94" fill="none" xmlns="http://www.w3.org/2000/svg">
<path d="M35.5554 54.5841V37.75H42.7804V54.5841H35.5554Z" fill="black" stroke="#9999A0" stroke-width="0.3"/>
<path d="M41.7472 54.5841V37.75H56.4987V54.5841H41.7472Z" fill="#111112" stroke="#9999A0" stroke-width="0.3"/>
<path d="M0.15 93.85V69.4006H10.7195V93.85H0.15Z" fill="black" stroke="#9999A0" stroke-width="0.3"/>
<path d="M9.09373 93.85V69.4006H30.5347V93.85H9.09373Z" fill="#111112" stroke="#9999A0" stroke-width="0.3"/>
<path d="M94.0447 53.7214H75.6548V93.8216H94.0447V53.7214Z" fill="black"/>
<path d="M94.2167 94H75.4828V53.5463H94.2167V94ZM75.8268 93.65H93.8727V53.8963H75.8268V93.65Z" fill="#9999A0"/>
<path d="M130.828 53.7213H94.0447V93.8215H130.828V53.7213Z" fill="#111112"/>
<path d="M131 94H93.8727V53.5463H131V94ZM94.2167 93.65H130.656V53.8962H94.2167V93.65Z" fill="#9999A0"/>
<path d="M73.952 13.6211H55.5621V53.7213H73.952V13.6211Z" fill="black"/>
<path d="M74.124 53.8962H55.3901V13.446H74.124V53.8962ZM55.7341 53.5462H73.78V13.796H55.7341V53.5462Z" fill="#9999A0"/>
<path d="M110.735 13.6211H73.952V53.7213H110.735V13.6211Z" fill="#111112"/>
<path d="M110.907 53.8962H73.78V13.446H110.907V53.8962ZM74.124 53.5462H110.563V13.796H74.124V53.5462Z" fill="#9999A0"/>
<path d="M48.0665 53.7214H29.6765V93.8216H48.0665V53.7214Z" fill="black"/>
<path d="M48.2384 94H29.5045V53.5463H48.2384V94ZM29.8485 93.65H47.8944V53.8963H29.8485V93.65Z" fill="#9999A0"/>
<path d="M84.8498 53.7214H48.0665V93.8216H84.8498V53.7214Z" fill="#111112"/>
<path d="M85.0218 94H47.8945V53.5463H85.0218V94ZM48.2385 93.65H84.6778V53.8963H48.2385V93.65Z" fill="#9999A0"/>
<path d="M117.567 0H94.5674V23H117.567V0Z" fill="#2BD67B"/>
<path d="M96.6588 12.7429L103.368 18.8373L116.227 4.43231" stroke="white" stroke-width="0.8"/>
</svg>
