<svg width="193" height="109" viewBox="0 0 193 109" fill="none" xmlns="http://www.w3.org/2000/svg">
<path d="M98.7083 89.7574L96.0723 108.907L98.0307 108.985L101.376 89.9642L98.7083 89.7574Z" fill="#DFE6F2"/>
<path d="M150.175 108.881H76.5995L76.5716 108.853C75.3615 107.618 74.0044 101.697 76.3016 96.5703C79.2765 89.9251 86.4343 88.839 91.9167 89.1017C92.8122 89.1445 94.119 89.26 95.7703 89.4091C103.645 90.1133 118.303 91.4248 124.441 87.792L124.536 87.9522C118.346 91.6148 103.649 90.3014 95.7535 89.5954C94.1023 89.4482 92.7991 89.3308 91.9074 89.288C86.4846 89.0309 79.4031 90.0984 76.4711 96.6467C74.2613 101.58 75.5347 107.459 76.6777 108.694H150.064C150.431 107.966 154.628 99.0685 151.477 79.7869L151.661 79.7571C153.379 90.266 152.893 97.608 152.184 101.915C151.413 106.591 150.216 108.81 150.203 108.832L150.175 108.881Z" fill="#0C152E"/>
<path d="M127.522 33.66C136.81 33.66 144.34 26.1249 144.34 16.83C144.34 7.53504 136.81 0 127.522 0C118.234 0 110.704 7.53504 110.704 16.83C110.704 26.1249 118.234 33.66 127.522 33.66Z" fill="#4070F4"/>
<path d="M113.886 26.6813C119.321 34.2189 129.834 35.9179 137.364 30.4781C138.125 29.9266 138.825 29.323 139.468 28.6766C142.016 23.1883 141.517 16.5058 137.593 11.3604C131.958 3.97185 121.405 2.55227 114.021 8.19145C113.396 8.66837 112.817 9.18441 112.277 9.7284C109.796 15.0714 110.194 21.5638 113.886 26.6813Z" fill="#254898"/>
<path d="M188.915 108.907L187.875 84.6139C187.354 72.432 184.12 60.5165 175.72 54.0054C151.549 35.2678 119.104 45.3743 108.707 67.1673C101.746 81.758 99.7839 98.8208 98.0303 108.987L188.915 108.907Z" fill="#2BD67B"/>
<path d="M124.223 38.893C132.99 38.893 140.097 31.7808 140.097 23.0075C140.097 14.2342 132.99 7.12207 124.223 7.12207C115.457 7.12207 108.35 14.2342 108.35 23.0075C108.35 31.7808 115.457 38.893 124.223 38.893Z" fill="white"/>
<path d="M130.31 8.33679C134.964 11.6435 137.674 17.3573 136.863 23.41C135.696 32.1045 127.706 38.2075 119.017 37.0394C117.619 36.8513 116.288 36.4843 115.043 35.9682C117.072 37.4102 119.47 38.3975 122.11 38.7534C130.798 39.9214 138.788 33.8202 139.955 25.1258C140.934 17.8286 136.798 11.0269 130.31 8.33679Z" fill="#DFE6F2"/>
<path d="M124.234 38.9881C123.528 38.9881 122.815 38.9415 122.097 38.8446C119.543 38.5018 117.085 37.5331 114.989 36.0427L114.315 35.5639L115.079 35.8806C116.343 36.4041 117.672 36.7637 119.029 36.9463C127.654 38.105 135.612 32.028 136.77 23.3969C137.554 17.5659 135.057 11.8242 130.256 8.41128L129.582 7.9325L130.346 8.2492C137.021 11.0176 141.011 17.9608 140.046 25.1351C138.972 33.1495 132.101 38.9881 124.234 38.9881ZM115.782 36.352C117.696 37.5629 119.87 38.3584 122.121 38.6602C122.83 38.7552 123.536 38.8018 124.234 38.8018C132.01 38.8018 138.799 33.0322 139.862 25.1109C140.776 18.2961 137.168 11.6901 131.027 8.75779C135.448 12.2546 137.71 17.7969 136.954 23.423C135.878 31.4356 129.007 37.2741 121.14 37.2741C120.435 37.2741 119.722 37.2276 119.003 37.1307C117.906 36.9835 116.825 36.7208 115.782 36.352Z" fill="#DFE6F2"/>
<path d="M136.717 49.0115C141.108 47.9414 144.489 46.338 144.268 45.4303C144.047 44.5226 140.308 44.6543 135.917 45.7245C131.526 46.7946 128.145 48.3979 128.366 49.3056C128.587 50.2133 132.326 50.0816 136.717 49.0115Z" fill="#254898"/>
<path d="M163.849 89.6997C165.653 80.6066 157.364 75.6363 154.193 68.8774C154.193 68.8774 156.653 81.3108 157.447 89.9624L163.849 89.6997Z" fill="#254898"/>
<path d="M124.235 38.9881C123.529 38.9881 122.816 38.9415 122.098 38.8446C117.87 38.2764 114.119 36.0949 111.531 32.7024C108.943 29.31 107.832 25.1109 108.4 20.8819C109.573 12.1502 117.622 5.99874 126.349 7.17427C135.075 8.34794 141.22 16.4052 140.047 25.1369C138.973 33.1495 132.102 38.9881 124.235 38.9881ZM124.212 7.21526C116.436 7.21526 109.647 12.9849 108.584 20.9062C107.426 29.5373 113.499 37.5014 122.124 38.6602C122.833 38.7552 123.538 38.8018 124.236 38.8018C132.012 38.8018 138.802 33.0322 139.865 25.1109C141.023 16.4798 134.95 8.51561 126.325 7.35684C125.616 7.26183 124.91 7.21526 124.212 7.21526Z" fill="#0C152E"/>
<path d="M124.126 17.5174C128.96 17.5174 132.878 13.5964 132.878 8.75961C132.878 3.92282 128.96 0.00183105 124.126 0.00183105C119.293 0.00183105 115.375 3.92282 115.375 8.75961C115.375 13.5964 119.293 17.5174 124.126 17.5174Z" fill="#4070F4"/>
<path d="M117.378 13.8344C120.734 13.8344 123.454 11.112 123.454 7.75368C123.454 4.3954 120.734 1.67297 117.378 1.67297C114.022 1.67297 111.302 4.3954 111.302 7.75368C111.302 11.112 114.022 13.8344 117.378 13.8344Z" fill="#4070F4"/>
<path d="M137.507 71.6793L142.137 73.9577L143.473 71.2378C143.637 70.9043 143.499 70.5 143.166 70.3342L139.744 68.652C139.411 68.488 139.007 68.6259 138.842 68.9594L137.507 71.6793Z" fill="#4070F4"/>
<path d="M137.595 88.3864L139.717 89.4296L144.708 79.2709C144.905 78.8703 144.74 78.386 144.339 78.1904L142.941 77.5029L137.595 88.3864Z" fill="#4070F4"/>
<path d="M126.107 89.3411L134.196 73.0029L143.111 77.3883L137.117 89.723" fill="white"/>
<path d="M137.118 89.8171C137.105 89.8171 137.09 89.8133 137.077 89.8077C137.031 89.7854 137.012 89.7295 137.034 89.6829L142.988 77.4302L134.238 73.1268L126.191 89.3811C126.168 89.4277 126.112 89.4463 126.066 89.424C126.019 89.4016 126.001 89.3457 126.023 89.2992L134.112 72.961C134.134 72.9144 134.19 72.8958 134.236 72.9181L143.152 77.3035C143.198 77.3259 143.217 77.3818 143.194 77.4284L137.2 89.763C137.185 89.7984 137.154 89.8171 137.118 89.8171Z" fill="#231F20"/>
<path d="M134.196 73.0031L138.655 75.1958L143.113 77.3885C143.759 76.0751 143.218 74.4878 141.905 73.8414L137.743 71.794C136.428 71.1475 134.842 71.6897 134.196 73.0031Z" fill="white"/>
<path d="M143.113 77.4824C143.1 77.4824 143.085 77.4787 143.072 77.4731L134.156 73.0877C134.134 73.0765 134.117 73.0579 134.11 73.0337C134.102 73.0113 134.104 72.9852 134.116 72.9629C134.782 71.6048 136.428 71.044 137.785 71.711L141.947 73.7584C142.604 74.0807 143.096 74.6414 143.332 75.3344C143.569 76.0275 143.52 76.7726 143.198 77.4303C143.18 77.4638 143.148 77.4824 143.113 77.4824ZM134.324 72.961L143.07 77.2626C143.334 76.6702 143.366 76.0107 143.155 75.3941C142.936 74.7476 142.476 74.226 141.863 73.9242L137.701 71.8768C137.088 71.575 136.396 71.5303 135.75 71.752C135.134 71.9625 134.629 72.3891 134.324 72.961Z" fill="#231F20"/>
<path d="M131.831 89.1818C131.818 89.1818 131.804 89.178 131.791 89.1725C131.744 89.1501 131.725 89.0942 131.748 89.0476L138.572 75.1556C138.595 75.109 138.651 75.0903 138.697 75.1127C138.744 75.1351 138.762 75.1909 138.74 75.2375L131.915 89.1296C131.898 89.1631 131.865 89.1818 131.831 89.1818Z" fill="#231F20"/>
<path d="M115.432 108.787H70.0684V106.004H114.03" fill="white"/>
<path d="M115.433 108.881H69.9766V105.911H114.031V106.098H70.1627V108.695H115.433V108.881Z" fill="#0C152E"/>
<path d="M158.887 72.6624C163.32 76.6584 163.282 87.8678 163.282 87.8678C155.84 92.2719 135.908 89.4383 130.706 89.1905C110.663 88.2404 113.215 106.522 115.432 108.785H159.961H188.915C188.915 108.785 193.686 100.091 190.363 79.7695" fill="white"/>
<path d="M188.97 108.881H115.394L115.366 108.853C114.156 107.618 112.8 101.697 115.096 96.5704C118.071 89.9271 125.228 88.841 130.711 89.1018C131.606 89.1446 132.913 89.2601 134.564 89.4092C142.42 90.1115 157.025 91.4175 163.188 87.8182C163.183 86.978 163.019 76.5156 158.825 72.7338L158.949 72.5959C163.361 76.5734 163.376 87.7586 163.376 87.8722V87.9244L163.332 87.9505C157.142 91.6131 142.446 90.2997 134.549 89.5936C132.898 89.4464 131.595 89.3291 130.703 89.2862C125.279 89.0291 118.199 90.0966 115.267 96.6449C113.057 101.578 114.331 107.458 115.474 108.693H188.86C189.227 107.964 193.424 99.0668 190.273 79.7851L190.457 79.7553C192.175 90.2643 191.689 97.6062 190.98 101.913C190.209 106.589 189.012 108.808 188.999 108.831L188.97 108.881Z" fill="#0C152E"/>
<path d="M147.758 44.1802C147.758 44.1802 182.923 44.6571 192.066 80.8321C192.066 80.8321 164.447 82.5181 161.206 82.5181L147.758 57.0607" fill="#2BD67B"/>
<path d="M114.679 107.303H70.0693V107.489H114.679V107.303Z" fill="#0C152E"/>
<path d="M15.496 104.715H0.895508V108.905H15.496V104.715Z" fill="#F7E36D"/>
<path d="M17.5869 100.525H2.98633V104.715H17.5869V100.525Z" fill="#F7E36D"/>
<path d="M15.0683 96.3356H0.467773V100.525H15.0683V96.3356Z" fill="#F7E36D"/>
<path d="M15.4963 104.715H2.98633V105.248H15.4963V104.715Z" fill="#254898"/>
<path d="M15.0681 100.525H2.98633V101.058H15.0681V100.525Z" fill="#254898"/>
<path d="M16.0624 91.6129H1.46191V95.8027H16.0624V91.6129Z" fill="#F7E36D"/>
<path d="M15.0684 95.8027H1.46191V96.3355H15.0684V95.8027Z" fill="#254898"/>
<path d="M37.9472 104.715H23.3467V108.905H37.9472V104.715Z" fill="#F7E36D"/>
<path d="M40.038 100.525H25.4375V104.715H40.038V100.525Z" fill="#F7E36D"/>
<path d="M37.5195 96.3354H22.9189V100.525H37.5195V96.3354Z" fill="#F7E36D"/>
<path d="M37.9474 104.715H25.4375V105.248H37.9474V104.715Z" fill="#254898"/>
<path d="M37.5193 100.525H25.4375V101.058H37.5193V100.525Z" fill="#254898"/>
<path d="M38.5117 91.6129H23.9111V95.8027H38.5117V91.6129Z" fill="#F7E36D"/>
<path d="M38.5117 87.4213H23.9111V91.6111H38.5117V87.4213Z" fill="#F7E36D"/>
<path d="M37.4316 83.2314H22.8311V87.4212H37.4316V83.2314Z" fill="#F7E36D"/>
<path d="M37.5175 95.8027H23.9111V96.3355H37.5175V95.8027Z" fill="#254898"/>
<path d="M38.5117 91.6129H23.9111V92.1457H38.5117V91.6129Z" fill="#254898"/>
<path d="M37.4319 87.4213H23.9111V87.9541H37.4319V87.4213Z" fill="#254898"/>
<path d="M59.7636 104.715H45.1631V108.905H59.7636V104.715Z" fill="#F7E36D"/>
<path d="M61.8525 100.525H47.252V104.715H61.8525V100.525Z" fill="#F7E36D"/>
<path d="M59.7619 104.715H47.252V105.248H59.7619V104.715Z" fill="#254898"/>
</svg>
