<svg width="169" height="121" viewBox="0 0 169 121" fill="none" xmlns="http://www.w3.org/2000/svg">
<path d="M45.8258 70.3057V48.55H55.2336V70.3057H45.8258Z" fill="#DFE6F2" stroke="#0C152E" stroke-width="0.3"/>
<path d="M53.8141 70.3057V48.55H72.9316V70.3057H53.8141Z" fill="white" stroke="#0C152E" stroke-width="0.3"/>
<path d="M0.15 120.85V89.2917H13.8724V120.85H0.15Z" fill="#DFE6F2" stroke="#0C152E" stroke-width="0.3"/>
<path d="M11.6881 120.85V89.2917H39.4356V120.85H11.6881Z" fill="white" stroke="#0C152E" stroke-width="0.3"/>
<path d="M121.325 69.152H97.6006V120.77H121.325V69.152Z" fill="#DFE6F2"/>
<path d="M121.547 121H97.3789V68.9266H121.547V121ZM97.8227 120.549H121.103V69.3771H97.8227V120.549Z" fill="#0C152E"/>
<path d="M168.778 69.152H121.325V120.77H168.778V69.152Z" fill="white"/>
<path d="M169.001 121H121.104V68.9266H169.001V121ZM121.547 120.549H168.557V69.3771H121.547V120.549Z" fill="#0C152E"/>
<path d="M95.4041 17.5336H71.6797V69.1519H95.4041V17.5336Z" fill="#DFE6F2"/>
<path d="M95.6262 69.3771H71.458V17.3082H95.6262V69.3771ZM71.9018 68.9266H95.1824V17.7587H71.9018V68.9266Z" fill="#0C152E"/>
<path d="M142.858 17.5336H95.4043V69.1519H142.858V17.5336Z" fill="white"/>
<path d="M143.08 69.3771H95.1826V17.3082H143.08V69.3771ZM95.6264 68.9266H142.636V17.7587H95.6264V68.9266Z" fill="#0C152E"/>
<path d="M62.0096 69.152H38.2852V120.77H62.0096V69.152Z" fill="#DFE6F2"/>
<path d="M62.2317 121H38.0635V68.9266H62.2317V121ZM38.5073 120.549H61.7879V69.3771H38.5073V120.549Z" fill="#0C152E"/>
<path d="M109.463 69.152H62.0098V120.77H109.463V69.152Z" fill="white"/>
<path d="M109.685 121H61.7881V68.9266H109.685V121ZM62.2319 120.549H109.241V69.3771H62.2319V120.549Z" fill="#0C152E"/>
<path d="M151.999 0H121.999V30.4544H151.999V0Z" fill="#2BD67B"/>
<path d="M124.727 16.873L133.477 24.9427L150.25 5.8689" stroke="white" stroke-width="0.8"/>
</svg>
