<svg width="20" height="20" viewBox="0 0 20 20" fill="none" xmlns="http://www.w3.org/2000/svg">
<path fill-rule="evenodd" clip-rule="evenodd" d="M17.65 11.6499H14.05V8.34994H17.65V11.6499ZM19 12.4999V7.49994C19 7.2238 18.7761 6.99994 18.5 6.99994H13.9999V5.99989C13.9999 5.4476 13.5522 4.99989 12.9999 4.99989L1.99992 4.99989C1.44763 4.99989 0.999916 5.4476 0.999916 5.99989V13.9999C0.999916 14.5522 1.44762 14.9999 1.99991 14.9999L12.9999 15C13.5522 15 13.9999 14.5523 13.9999 14V12.9999H18.5C18.7761 12.9999 19 12.7761 19 12.4999ZM12.6499 13.65L2.34991 13.6499V6.34989L12.6499 6.34989V13.65ZM5.35 10.6499H9.65V9.34994H5.35L5.35 10.6499ZM11 8.99994V10.9999C11 11.5522 10.5523 11.9999 10 11.9999H5C4.44772 11.9999 4 11.5522 4 10.9999L4 8.99994C4 8.44765 4.44772 7.99994 5 7.99994H10C10.5523 7.99994 11 8.44765 11 8.99994Z" fill="#8A8CA2"/>
</svg>
