<svg width="12" height="12" viewBox="0 0 12 12" fill="none" xmlns="http://www.w3.org/2000/svg">
<path d="M3.00523 8.4181C3.00272 8.41448 3.00016 8.4109 2.99756 8.40738C2.99436 8.40305 2.9911 8.3988 2.98777 8.39463C2.98208 8.38751 2.97619 8.38061 2.97012 8.37392C2.84596 8.23737 2.64315 8.19302 2.47959 8.28602C2.2995 8.38842 2.23537 8.61837 2.35098 8.79028C2.94283 9.67038 3.8015 10.3424 4.80541 10.7041C5.92733 11.1082 7.15677 11.0981 8.27189 10.6755C9.387 10.2529 10.3144 9.44568 10.8866 8.39946C11.4589 7.35324 11.6384 6.13694 11.3928 4.97001C11.1471 3.80308 10.4925 2.76237 9.54696 2.03566C8.60146 1.30896 7.42736 0.944111 6.23652 1.00695C5.04567 1.06979 3.91649 1.55618 3.05272 2.37836C2.42947 2.97161 1.97402 3.71149 1.72307 4.52319L1.15693 3.8777C1.02037 3.72199 0.783441 3.70647 0.627736 3.84304C0.472033 3.9796 0.456515 4.21653 0.593078 4.37223L1.66052 5.5893C1.84965 5.80494 2.18104 5.8176 2.38607 5.61702L3.63724 4.39302C3.78528 4.24819 3.78789 4.01077 3.64306 3.86273C3.49823 3.71468 3.26081 3.71207 3.11276 3.8569L2.56644 4.39136C2.79181 3.84031 3.13218 3.33848 3.56997 2.92177C4.30413 2.22295 5.26388 1.80954 6.27605 1.75613C7.28822 1.70272 8.28615 2.01282 9.08978 2.63049C9.89341 3.24816 10.4498 4.13271 10.6586 5.12455C10.8674 6.11639 10.7148 7.1502 10.2284 8.03943C9.74203 8.92867 8.95382 9.61479 8.00602 9.97398C7.05823 10.3332 6.01326 10.3418 5.05967 9.99826C4.22416 9.69727 3.507 9.14333 3.00523 8.4181Z" fill="#8A8CA2"/>
<path fill-rule="evenodd" clip-rule="evenodd" d="M5.5 4.84513C5.5 4.65452 5.65452 4.5 5.84513 4.5C6.03574 4.5 6.19027 4.65452 6.19027 4.84513V6.76445C6.19027 6.78946 6.21054 6.80973 6.23555 6.80973H8.15487C8.34548 6.80973 8.5 6.96426 8.5 7.15487C8.5 7.34548 8.34548 7.5 8.15487 7.5H5.69626C5.58787 7.5 5.5 7.41213 5.5 7.30374V4.84513Z" fill="#8A8CA2"/>
</svg>
