<svg xmlns="http://www.w3.org/2000/svg" width="48" height="48" viewBox="0 0 48 48">
    <g fill="none" fill-rule="nonzero">
        <path fill="#F7931A" d="M47.282 29.806c-3.206 12.857-16.23 20.682-29.09 17.475C5.337 44.076-2.488 31.053.719 18.197 3.923 5.338 16.947-2.487 29.803.718c12.86 3.206 20.684 16.23 17.479 29.088z"/>
        <path fill="#FFF" d="M35 21c.4-3.092-1.93-4.786-5-6l1-4-3-1-1 4c-.274.153-.956-.008-2 0l1-4-2-1-1 4c-.724.14-1.263.013-2 0l-3-1-1 3c.066-.254 1.938.188 2 0 .92.479 1.105 1.175 1 2l-1 5c-.033-.39.059-.363 0 0 .075-.343-.015-.366 0 0l-2 6c.118.745-.2 1.225-1 1 .112.08-1.747-.429-2 0l-1 3h3c.894.547 1.493.712 2 1l-1 4 3 1 1-4c.28-.246.949-.068 2 0l-1 4 2 1 1-4c4.442.528 7.677.19 9-4 1.137-3.047-.015-4.909-2-6 1.37-.515 2.611-1.632 3-4zm-6 9c-.878 3.402-6.256 1.547-8 1l1-6c2.156.467 7.747 1.393 7 5zm1-9c-.839 3.175-5.491 1.656-7 1l1-5c1.84.372 6.7 1.067 6 4z"/>
    </g>
</svg>
