<svg width="19" height="15" xmlns="http://www.w3.org/2000/svg"><g fill="#8A8CA2" fill-rule="evenodd"><path d="M.727 6.262C2.718 2.392 5.646.417 9.444.417c3.799 0 6.727 1.975 8.718 5.845.34.66.34 1.446 0 2.106-1.991 3.87-4.92 5.846-8.718 5.846S2.718 12.238.727 8.368a2.302 2.302 0 0 1 0-2.106zm.96.16a2.049 2.049 0 0 0 0 1.873c1.772 3.444 4.377 5.202 7.757 5.202s5.986-1.758 7.758-5.202a2.049 2.049 0 0 0 0-1.874C15.43 2.977 12.825 1.22 9.444 1.22c-3.38 0-5.985 1.758-7.757 5.202z"/><path d="M9.256 10.144a2.833 2.833 0 1 0 0-5.666 2.833 2.833 0 0 0 0 5.666zm0-1a1.833 1.833 0 1 1 0-3.666 1.833 1.833 0 0 1 0 3.666z" fill-rule="nonzero"/></g></svg>