<svg width="15" height="14" viewBox="0 0 15 14" fill="none" xmlns="http://www.w3.org/2000/svg">
<path fill-rule="evenodd" clip-rule="evenodd" d="M0.5 0.65C0.5 0.291015 0.791015 0 1.15 0H13.85C14.209 0 14.5 0.291015 14.5 0.65C14.5 1.00899 14.209 1.3 13.85 1.3H12.4871C12.3648 3.26665 11.3807 5.05976 9.83428 6.22147C9.59656 6.40005 9.34555 6.56372 9.08234 6.7108C8.89432 6.81587 8.70007 6.91247 8.5 7C8.70007 7.08753 8.89432 7.18413 9.08234 7.2892C9.34555 7.43628 9.59656 7.59995 9.83428 7.77853C11.3807 8.94025 12.3648 10.7334 12.4871 12.7H13.85C14.209 12.7 14.5 12.991 14.5 13.35C14.5 13.709 14.209 14 13.85 14H1.15C0.791015 14 0.5 13.709 0.5 13.35C0.5 12.991 0.791015 12.7 1.15 12.7H2.51291C2.63523 10.7334 3.61931 8.94025 5.16572 7.77853C5.40344 7.59995 5.65445 7.43628 5.91766 7.2892C6.10568 7.18413 6.29993 7.08753 6.5 7C6.29993 6.91247 6.10568 6.81587 5.91766 6.7108C5.65445 6.56372 5.40344 6.40005 5.16572 6.22147C3.61931 5.05976 2.63523 3.26665 2.51292 1.3H1.15C0.791015 1.3 0.5 1.00899 0.5 0.65ZM3.81605 1.3H11.1839C11.0317 3.2679 9.80772 5.0089 7.97894 5.809L7.5 6.01853L7.02106 5.809C5.19228 5.0089 3.96828 3.2679 3.81605 1.3ZM7.5 7.98147L7.02106 8.191C5.19228 8.9911 3.96828 10.7321 3.81605 12.7H11.1839C11.0317 10.7321 9.80772 8.9911 7.97894 8.191L7.5 7.98147Z" fill="#FFB400"/>
</svg>
