<svg width="20" height="20" viewBox="0 0 20 20" fill="none" xmlns="http://www.w3.org/2000/svg">
<path d="M13.0701 9.45765L11.7207 8.73559C11.902 8.19 12.0001 7.60646 12.0001 7C12.0001 3.96243 9.53768 1.5 6.50011 1.5C5.9054 1.5 5.33273 1.59439 4.79626 1.76901C6.22818 0.103578 8.67134 -0.407192 10.6884 0.672047C12.5768 1.6825 13.5931 3.5817 13.1748 5.60529L18.0907 8.23559C18.2284 8.30925 18.3375 8.42684 18.4006 8.56965L19.0729 10.0896C19.257 10.506 19.0009 10.9846 18.5523 11.0625L16.8503 11.3577C16.7382 11.3772 16.6229 11.3586 16.5226 11.3049L15.6474 10.8366L15.4249 10.0445L14.855 10.2298C14.5796 10.3194 14.285 10.1619 14.2064 9.88319L14.0435 9.3054L13.4689 9.49283C13.3367 9.53594 13.1927 9.52323 13.0701 9.45765Z" fill="#4070F4"/>
<path d="M5.47972 5.08394C5.204 5.14798 5.0324 5.4234 5.09644 5.69912C5.16048 5.97483 5.4359 6.14643 5.71162 6.08239C5.98733 6.01836 6.15893 5.74293 6.09489 5.46722C6.03086 5.1915 5.75543 5.0199 5.47972 5.08394Z" fill="#4070F4"/>
<path fill-rule="evenodd" clip-rule="evenodd" d="M1.07721 8.5061C1.56478 10.6054 3.16702 12.1602 5.21839 12.4227L5.64535 14.261C5.6768 14.3964 5.76217 14.5131 5.88168 14.5841L6.46259 14.9292L6.09645 15.4923C5.93859 15.735 6.01431 16.0604 6.26316 16.2085L6.83939 16.5515L6.35132 17.3006L6.58705 18.3155C6.61279 18.4263 6.67484 18.5254 6.76334 18.5969L8.20454 19.7611C8.55871 20.0472 9.08745 19.9244 9.27927 19.5115L10.0322 17.8906C10.098 17.7489 10.1146 17.5894 10.0792 17.4373L8.73201 11.6367C10.6443 10.5647 11.454 8.42919 10.9398 6.21542C10.3073 3.49193 7.58668 1.79689 4.86319 2.42945C2.1397 3.062 0.44466 5.78261 1.07721 8.5061ZM4.31718 5.88011C4.15319 5.17402 4.59264 4.46868 5.29873 4.30468C6.00481 4.14069 6.71016 4.58014 6.87415 5.28623C7.03815 5.99232 6.59869 6.69766 5.8926 6.86165C5.18652 7.02565 4.48118 6.58619 4.31718 5.88011Z" fill="#4070F4"/>
</svg>
