<svg width="20" height="20" viewBox="0 0 20 20" fill="none" xmlns="http://www.w3.org/2000/svg">
<path fill-rule="evenodd" clip-rule="evenodd" d="M18.7 10C18.7 14.8049 14.8049 18.7 10 18.7C5.19512 18.7 1.3 14.8049 1.3 10C1.3 5.19512 5.19512 1.3 10 1.3C14.8049 1.3 18.7 5.19512 18.7 10ZM20 10C20 15.5228 15.5228 20 10 20C4.47715 20 0 15.5228 0 10C0 4.47715 4.47715 0 10 0C15.5228 0 20 4.47715 20 10ZM15 12.107L9.85321 3.33335L8.72866 5.36313L9.59494 6.91003L9.89081 6.376L13.1625 11.9533L11.3889 14.0599H10.5472L9.27928 15.5556H12.0967L15 12.107ZM8.37898 14.0599H9.56093L8.29304 15.5556H7.62347L5 12.0932L8.29907 6.13852L9.16535 7.68542L6.79319 11.9671L8.37898 14.0599Z" fill="#4070F4"/>
</svg>
