<svg xmlns="http://www.w3.org/2000/svg" width="16" height="16" viewBox="0 0 16 16" fill="none">
  <path d="M15.0256 8C15.5637 8 16.0061 7.56211 15.9407 7.02793C15.7571 5.52791 15.1512 4.10329 14.1841 2.92485C13.0099 1.49413 11.376 0.514799 9.56072 0.153718C7.74544 -0.207364 5.86112 0.0721488 4.22883 0.94463C2.59653 1.81711 1.31725 3.22858 0.608964 4.93853C-0.0993228 6.64849 -0.192794 8.55113 0.344477 10.3223C0.881748 12.0934 2.01652 13.6235 3.55544 14.6518C5.09436 15.68 6.94221 16.1429 8.78414 15.9615C10.3013 15.8121 11.7371 15.2331 12.9276 14.3023C13.3515 13.9708 13.3484 13.3484 12.9678 12.9678C12.5873 12.5873 11.974 12.5949 11.5374 12.9095C10.6759 13.5302 9.66114 13.9168 8.59311 14.022C7.19989 14.1592 5.8022 13.8091 4.63818 13.0313C3.47415 12.2535 2.61582 11.0962 2.20944 9.75655C1.80305 8.41687 1.87375 6.97773 2.40949 5.68434C2.94523 4.39094 3.91287 3.32332 5.14752 2.66339C6.38217 2.00345 7.80746 1.79203 9.18052 2.06515C10.5536 2.33827 11.7895 3.07903 12.6776 4.16121C13.3584 4.9908 13.8026 5.98169 13.9728 7.02973C14.0591 7.56094 14.4874 8 15.0256 8Z" fill="#DFE6F2"/>
</svg>