<svg width="20" height="20" viewBox="0 0 20 20" fill="none" xmlns="http://www.w3.org/2000/svg">
<path fill-rule="evenodd" clip-rule="evenodd" d="M1 2C1 1.44772 1.44772 1 2 1H6C6.55228 1 7 1.44772 7 2V3.35H13V2C13 1.44772 13.4477 1 14 1H18C18.5523 1 19 1.44772 19 2V6C19 6.55228 18.5523 7 18 7H16.65V13H18C18.5523 13 19 13.4477 19 14V18C19 18.5523 18.5523 19 18 19H14C13.4477 19 13 18.5523 13 18V16.65H7V18C7 18.5523 6.55228 19 6 19H2C1.44772 19 1 18.5523 1 18V14C1 13.4477 1.44772 13 2 13H3.35L3.35 7H2C1.44772 7 1 6.55228 1 6V2ZM2.3 5.7V2.3H5.7V5.7H2.3ZM15.35 13V7H14C13.4477 7 13 6.55228 13 6V4.65H7V6C7 6.55228 6.55228 7 6 7H4.65V13H6C6.55228 13 7 13.4477 7 14V15.35H13V14C13 13.4477 13.4477 13 14 13H15.35ZM2.3 17.7V14.3H5.7V17.7H2.3ZM14.3 2.3V5.7H17.7V2.3H14.3ZM14.3 17.7V14.3H17.7V17.7H14.3Z" fill="#8A8CA2"/>
</svg>
