<?xml version="1.0" encoding="UTF-8"?>
<svg width="40px" height="40px" viewBox="0 0 40 40" version="1.1" xmlns="http://www.w3.org/2000/svg" xmlns:xlink="http://www.w3.org/1999/xlink">
    <!-- Generator: sketchtool 63.1 (101010) - https://sketch.com -->
    <title>2A1BCCB9-5A88-44B8-A691-76D85C1FEE00</title>
    <desc>Created with sketchtool.</desc>
    <g id="🌑-Dark-mode" stroke="none" stroke-width="1" fill="none" fill-rule="evenodd">
        <g id="Dashboard---Dark-mode" transform="translate(-487.000000, -460.000000)">
            <g id="Community-Feed---5-Col" transform="translate(467.000000, 179.000000)">
                <g id="item">
                    <g transform="translate(20.000000, 281.000000)">
                        <g id="blog-icon">
                            <rect id="Rectangle" fill="#3B3B41" x="0" y="0" width="40" height="40" rx="20"></rect>
                            <g id="Combined-Shape-2" transform="translate(10.000000, 13.750000)" fill="#4070F4">
                                <path d="M19.7916667,10.4166667 C20.3669633,10.4166667 20.8333333,10.8830367 20.8333333,11.4583333 C20.8333333,12.0336299 20.3669633,12.5 19.7916667,12.5 L1.04166667,12.5 C0.466370052,12.5 7.04535157e-17,12.0336299 0,11.4583333 C-7.04535157e-17,10.8830367 0.466370052,10.4166667 1.04166667,10.4166667 L19.7916667,10.4166667 Z M6.33333333,0 C7.43790283,-2.02906125e-16 8.33333333,0.8954305 8.33333333,2 L8.33333333,5.29166667 C8.33333333,6.39623617 7.43790283,7.29166667 6.33333333,7.29166667 L2,7.29166667 C0.8954305,7.29166667 1.3527075e-16,6.39623617 0,5.29166667 L0,2 C-1.3527075e-16,0.8954305 0.8954305,2.02906125e-16 2,0 L6.33333333,0 Z M19.7916667,5.20833333 C20.3669633,5.20833333 20.8333333,5.67470339 20.8333333,6.25 C20.8333333,6.82529661 20.3669633,7.29166667 19.7916667,7.29166667 L12.5,7.29166667 C11.9247034,7.29166667 11.4583333,6.82529661 11.4583333,6.25 C11.4583333,5.67470339 11.9247034,5.20833333 12.5,5.20833333 L19.7916667,5.20833333 Z M19.7916667,0 C20.3669633,-9.93858693e-16 20.8333333,0.466370052 20.8333333,1.04166667 C20.8333333,1.61696328 20.3669633,2.08333333 19.7916667,2.08333333 L12.5,2.08333333 C11.9247034,2.08333333 11.4583333,1.61696328 11.4583333,1.04166667 C11.4583333,0.466370052 11.9247034,1.05680274e-16 12.5,0 L19.7916667,0 Z" id="Combined-Shape"></path>
                            </g>
                        </g>
                    </g>
                </g>
            </g>
        </g>
    </g>
</svg>