<svg width="13" height="14" viewBox="0 0 13 14" fill="none" xmlns="http://www.w3.org/2000/svg">
<path fill-rule="evenodd" clip-rule="evenodd" d="M4.6001 3.8001C4.6001 2.75076 5.45076 1.9001 6.5001 1.9001C7.54944 1.9001 8.40009 2.75076 8.40009 3.8001C8.40009 4.84944 7.54944 5.70009 6.5001 5.70009C5.45076 5.70009 4.6001 4.84944 4.6001 3.8001ZM6.5001 0.600098C4.73279 0.600098 3.3001 2.03279 3.3001 3.8001C3.3001 5.56741 4.73279 7.00009 6.5001 7.00009C8.2674 7.00009 9.70009 5.56741 9.70009 3.8001C9.70009 2.03279 8.2674 0.600098 6.5001 0.600098ZM2.80685 10.6276C2.28317 11.064 1.90637 11.5706 1.67577 12.1001H11.3244C11.0938 11.5706 10.717 11.064 10.1933 10.6276C9.24753 9.83942 7.92158 9.36681 6.50009 9.36681C5.07861 9.36681 3.75266 9.83942 2.80685 10.6276ZM6.50009 8.06681C8.19748 8.06681 9.82534 8.62871 11.0256 9.62891C11.825 10.2951 12.3911 11.1193 12.68 12.0135C12.6893 12.0423 12.6983 12.0712 12.7071 12.1001C12.8342 12.5217 12.9001 12.9581 12.9001 13.4001H11.6001H1.4001H0.100098C0.100098 12.9581 0.165945 12.5217 0.293114 12.1001C0.301849 12.0712 0.310874 12.0423 0.320186 12.0135C0.609132 11.1193 1.17522 10.2951 1.97461 9.62891C3.17485 8.62871 4.80271 8.06681 6.50009 8.06681Z" fill="#4070F4"/>
</svg>
