<svg width="16" height="16" viewBox="0 0 16 16" fill="none" xmlns="http://www.w3.org/2000/svg">
<path fill-rule="evenodd" clip-rule="evenodd" d="M10.169 0.64835C9.88003 0.359395 9.38528 0.520279 9.32154 0.923922L8.94942 3.28069C8.94613 3.30156 8.9363 3.32086 8.92136 3.3358L6.43132 5.82584C6.41776 5.8394 6.40059 5.84877 6.38185 5.85285L1.88433 6.83057C1.49778 6.9146 1.35727 7.39299 1.63699 7.67271L4.52493 10.5607L0.989401 14.0962C0.598877 14.4867 0.598876 15.1199 0.989401 15.5104C1.37992 15.9009 2.01309 15.9009 2.40361 15.5104L5.93915 11.9749L8.82709 14.8628C9.10681 15.1425 9.5852 15.002 9.66923 14.6155L10.647 10.1179C10.651 10.0992 10.6604 10.082 10.674 10.0685L13.164 7.57844C13.1789 7.5635 13.1982 7.55367 13.2191 7.55038L15.5759 7.17826C15.9795 7.11452 16.1404 6.61978 15.8515 6.33082L10.169 0.64835Z" fill="#4070F4"/>
</svg>
