<svg width="16" height="16" viewBox="0 0 16 16" fill="none" xmlns="http://www.w3.org/2000/svg">
<path fill-rule="evenodd" clip-rule="evenodd" d="M8.40009 2.2001C8.40009 1.86873 8.13146 1.6001 7.80009 1.6001C7.46872 1.6001 7.20009 1.86873 7.20009 2.2001V7.37593H2.2001C1.86873 7.37593 1.6001 7.64456 1.6001 7.97593C1.6001 8.3073 1.86873 8.57593 2.2001 8.57593H7.20009V13.8001C7.20009 14.1315 7.46872 14.4001 7.80009 14.4001C8.13146 14.4001 8.40009 14.1315 8.40009 13.8001V8.57593H13.8001C14.1315 8.57593 14.4001 8.3073 14.4001 7.97593C14.4001 7.64456 14.1315 7.37593 13.8001 7.37593H8.40009V2.2001Z" fill="#FFF"/>
</svg>
