<svg width="160" height="96" viewBox="0 0 160 96" fill="none" xmlns="http://www.w3.org/2000/svg">
<path fill-rule="evenodd" clip-rule="evenodd" d="M32.5164 69.9696H115.618V11.5205H32.5164V69.9696Z" fill="black"/>
<path opacity="0.2" fill-rule="evenodd" clip-rule="evenodd" d="M33 17.5H116V17H33V17.5Z" fill="#9999A0"/>
<path fill-rule="evenodd" clip-rule="evenodd" d="M66.7188 80.8628H80.3852V77.4929H66.7188V80.8628Z" fill="black"/>
<path fill-rule="evenodd" clip-rule="evenodd" d="M66.5448 94.7806H84.7252V77.3325H66.5448V94.7806Z" stroke="#254898"/>
<path fill-rule="evenodd" clip-rule="evenodd" d="M60.4432 94.7801H88.2345V89.6667H60.4432V94.7801Z" fill="#111112"/>
<path fill-rule="evenodd" clip-rule="evenodd" d="M60.4437 94.7805H88.2345V89.6667H60.4437V94.7805Z" stroke="#254898"/>
<path fill-rule="evenodd" clip-rule="evenodd" d="M80.5477 77.3328V89.6671H76.7419V94.7805H80.5477H85.7517H89.5359V89.6671H85.7517V77.3328H80.5477Z" fill="#254898"/>
<path fill-rule="evenodd" clip-rule="evenodd" d="M85.7515 89.667V77.3326H80.548V89.667H76.7418V94.7808H80.548H85.7515H89.5358V89.667H85.7515Z" stroke="#254898"/>
<path fill-rule="evenodd" clip-rule="evenodd" d="M20.8271 77.3326H127.107V1.29529H20.8271V77.3326Z" stroke="#254898"/>
<path fill-rule="evenodd" clip-rule="evenodd" d="M127.107 77.333H131.617V1.29529H127.107V77.333Z" fill="#254898"/>
<path fill-rule="evenodd" clip-rule="evenodd" d="M127.107 77.3326H131.617V1.29529H127.107V77.3326Z" stroke="#254898"/>
<path fill-rule="evenodd" clip-rule="evenodd" d="M53.9646 62.1167H62.2632V51.4849H53.9646V62.1167Z" fill="#4070F4"/>
<path fill-rule="evenodd" clip-rule="evenodd" d="M66.8411 62.1159H75.4801V40.7451H66.8411V62.1159Z" fill="#4070F4"/>
<path fill-rule="evenodd" clip-rule="evenodd" d="M79.8885 62.1165H88.5275V29.454H79.8885V62.1165Z" fill="#FFD0D1"/>
<path fill-rule="evenodd" clip-rule="evenodd" d="M92.935 62.1167H101.574V31.5453H92.935V62.1167Z" fill="#4070F4"/>
<path d="M49.7809 42.1385C49.7809 42.1385 57.4599 41.9946 68.7351 30.2732C82.2576 16.2161 87.9027 19.5508 99.0023 25.6745C108.779 31.069 119.744 33.8335 134.775 34.2009C142.775 34.3961 150.462 30.9594 155.524 24.7611C156.566 23.4844 157.597 22.0376 158.588 20.3986" stroke="#2BD67B"/>
<path d="M49.7809 30.0806V62.117H109.129" stroke="#254898"/>
<path fill-rule="evenodd" clip-rule="evenodd" d="M2.05466 19.9038C1.31517 19.6024 0.300114 19.3319 0 19.3324C0 19.3324 4.64183 19.3226 5.3665 19.3226C9.32979 19.3226 12.7398 21.6816 14.2764 25.0709H7.65271C6.56738 22.6764 4.54447 20.8012 2.05466 19.9038Z" fill="#FFD0D1"/>
<path fill-rule="evenodd" clip-rule="evenodd" d="M36.189 14.0699C36.189 14.522 35.8224 14.889 35.3699 14.889C34.9178 14.889 34.5513 14.522 34.5513 14.0699C34.5513 13.6178 34.9178 13.2509 35.3699 13.2509C35.8224 13.2509 36.189 13.6178 36.189 14.0699Z" fill="#4070F4"/>
<path fill-rule="evenodd" clip-rule="evenodd" d="M124.829 81.9172C124.829 81.9172 133.409 64.0047 138.652 67.6472C143.894 71.2896 130.22 80.0738 129.446 82.045L124.829 81.9172Z" fill="#2BD67B"/>
<path fill-rule="evenodd" clip-rule="evenodd" d="M124.997 79.6972L129.559 73.6915L130.924 71.8459L127.135 80.1636L124.997 79.6972Z" fill="#231F20"/>
<path fill-rule="evenodd" clip-rule="evenodd" d="M108.697 74.849C108.559 74.9201 118.655 80.8991 119.938 81.9171H122.45C122.45 81.9171 115.558 71.2984 108.697 74.849Z" fill="#231F20"/>
<path fill-rule="evenodd" clip-rule="evenodd" d="M124.825 81.9092C124.825 81.9092 117.516 69.8462 113.23 69.2693C110.951 68.9624 109.318 70.7682 108.289 72.527C107.579 73.7405 108.457 75.2657 109.863 75.2784C110.761 75.2864 111.877 75.3643 113.23 75.5721C116.159 76.0221 119.478 80.1631 121.953 81.9092H124.825Z" fill="#2BD67B"/>
<path fill-rule="evenodd" clip-rule="evenodd" d="M124.825 81.9093C124.825 81.9093 124.034 80.6039 122.819 78.8307C123.065 80.5057 123.198 81.6587 123.223 81.9093H124.825Z" fill="#2BD67B"/>
<path fill-rule="evenodd" clip-rule="evenodd" d="M123.223 81.9093C123.198 81.6587 123.066 80.5057 122.82 78.8307C120.378 75.2661 116.226 69.815 113.353 69.2905C115.254 73.4193 118.065 77.6577 119.756 80.0616C120.534 80.7736 121.275 81.4314 121.953 81.9093H123.223Z" fill="#231F20"/>
<path fill-rule="evenodd" clip-rule="evenodd" d="M122.066 82.0498C122.066 82.0498 107.135 62.492 114.04 58.6028C120.945 54.7136 123.983 80.8214 124.091 81.9258" fill="#2BD67B"/>
<path fill-rule="evenodd" clip-rule="evenodd" d="M121.738 68.866L120.873 79.6278L123.035 79.9634L122.108 70.3708L121.738 68.866Z" fill="#231F20"/>
<path fill-rule="evenodd" clip-rule="evenodd" d="M122.56 81.8253C122.56 81.8253 118.857 47.3901 132.22 50.1952C145.583 53 125.503 78.447 125.196 81.8253H122.56Z" fill="#2BD67B"/>
<path fill-rule="evenodd" clip-rule="evenodd" d="M122.47 78.9639H112.644V94.6164H136.763V78.9639H122.47Z" fill="#FFD0D1"/>
<path fill-rule="evenodd" clip-rule="evenodd" d="M125.538 94.7288H136.651V78.9641H129.97C134.39 84.7188 122.569 88.0031 125.538 94.7288Z" fill="#E9B7B8"/>
</svg>
