<svg width="20" height="20" viewBox="0 0 20 20" fill="none" xmlns="http://www.w3.org/2000/svg">
<path fill-rule="evenodd" clip-rule="evenodd" d="M5.90657 15.1507L11.1731 15.1507C11.5873 15.1507 11.9231 15.4865 11.9231 15.9007C11.9231 16.3149 11.5873 16.6507 11.1731 16.6507L4.09597 16.6508C3.89706 16.6508 3.70629 16.5717 3.56564 16.4311C3.42499 16.2904 3.34597 16.0997 3.34597 15.9008L3.34591 8.82355C3.34591 8.40933 3.68169 8.07355 4.09591 8.07354C4.51012 8.07354 4.84591 8.40932 4.84591 8.82354L4.84595 14.09L15.3757 3.56032C15.6686 3.26743 16.1434 3.26743 16.4363 3.56032C16.7292 3.85322 16.7292 4.32809 16.4363 4.62098L5.90657 15.1507Z" fill="#2BD67B"/>
</svg>
