<svg width="16" height="16" viewBox="0 0 16 16" fill="none" xmlns="http://www.w3.org/2000/svg">
<path fill-rule="evenodd" clip-rule="evenodd" d="M2.93565 6.58541C3.45692 4.30517 5.50962 2.59999 7.96467 2.59999C10.3956 2.59999 12.4302 4.27073 12.9772 6.51633L12.4198 5.97106C12.1829 5.73933 11.803 5.7435 11.5713 5.98038C11.3396 6.21725 11.3438 6.59712 11.5806 6.82885L13.1519 8.36603C13.48 8.68696 14.0102 8.6667 14.3128 8.32167L15.6513 6.79559C15.8698 6.54646 15.845 6.16737 15.5958 5.94887C15.3467 5.73037 14.9676 5.7552 14.7491 6.00433L14.2222 6.60505C13.69 3.64397 11.0886 1.39999 7.96467 1.39999C4.94179 1.39999 2.41001 3.50006 1.76583 6.31799C1.69198 6.64102 1.89399 6.96276 2.21703 7.03661C2.54007 7.11046 2.86181 6.90845 2.93565 6.58541ZM7.96467 13.6538C5.76311 13.6538 3.88664 12.2835 3.14582 10.3568L3.55837 10.8059C3.78255 11.0499 4.16211 11.066 4.40614 10.8418C4.65016 10.6177 4.66625 10.2381 4.44207 9.99408L2.88006 8.29378C2.54689 7.93111 1.96829 7.95271 1.66308 8.3392L0.329339 10.0281C0.123973 10.2882 0.168311 10.6655 0.428371 10.8709C0.688432 11.0762 1.06573 11.0319 1.2711 10.7718L1.80455 10.0963C2.50622 12.833 5.00021 14.8538 7.96467 14.8538C10.9255 14.8538 13.4149 12.8391 14.1213 10.1089C14.2043 9.78807 14.0116 9.46072 13.6908 9.37771C13.37 9.29471 13.0426 9.48748 12.9596 9.80829C12.3878 12.0182 10.3691 13.6538 7.96467 13.6538Z" fill="#8A8CA2"/>
</svg>
