<svg width="16" height="16" viewBox="0 0 16 16" fill="none" xmlns="http://www.w3.org/2000/svg">
<path fill-rule="evenodd" clip-rule="evenodd" d="M6.29451 2.31998C6.29451 2.12668 6.45121 1.96998 6.64451 1.96998H9.35503C9.54833 1.96998 9.70503 2.12668 9.70503 2.31998V3.02724H6.29451V2.31998ZM4.99451 3.02724V2.31998C4.99451 1.40871 5.73324 0.669983 6.64451 0.669983H9.35503C10.2663 0.669983 11.005 1.40871 11.005 2.31998V3.02724H12.7103H14.2812C14.6402 3.02724 14.9312 3.31826 14.9312 3.67724C14.9312 4.03623 14.6402 4.32724 14.2812 4.32724H13.3603V13.6806C13.3603 14.5919 12.6216 15.3306 11.7103 15.3306H4.28926C3.37799 15.3306 2.63926 14.5919 2.63926 13.6806V4.32724H1.71982C1.36084 4.32724 1.06982 4.03623 1.06982 3.67724C1.06982 3.31826 1.36084 3.02724 1.71982 3.02724H3.28926H4.99451ZM3.93926 4.32724H12.0603V13.6806C12.0603 13.8739 11.9036 14.0306 11.7103 14.0306H4.28926C4.09596 14.0306 3.93926 13.8739 3.93926 13.6806V4.32724Z" fill="#FF4557"/>
</svg>
