<?xml version="1.0" encoding="UTF-8"?>
<svg width="23px" height="20px" viewBox="0 0 23 20" version="1.1" xmlns="http://www.w3.org/2000/svg" xmlns:xlink="http://www.w3.org/1999/xlink">
    <!-- Generator: sketchtool 58 (101010) - https://sketch.com -->
    <title>44815621-839D-44E5-9538-965B2873B99B</title>
    <desc>Created with sketchtool.</desc>
    <g id="⭐️-Delegates" stroke="none" stroke-width="1" fill="none" fill-rule="evenodd">
        <g id="5.4-Delegate---Stakes-added-and-removed" transform="translate(-311.000000, -100.000000)">
            <g id="Group-2" transform="translate(24.000000, 89.000000)">
                <g id="Group-21" transform="translate(255.000000, 0.000000)">
                    <g id="removed-votes" transform="translate(33.000000, 11.000000)">
                        <path d="M8.16141358,10.510075 C12.6402521,10.510075 16.3217886,14.1916114 16.3217886,18.67045 L16.3217886,18.67045 L16.3217886,19.4209056 L-2.80664381e-13,19.4109941 L0.00103930013,18.6604115 C0.00723704251,14.184402 3.68618241,10.510075 8.16141358,10.510075 Z M8.5,1 C10.4329861,1 12,2.56667165 12,4.5 C12,6.43270009 10.4327001,8 8.5,8 C6.56667165,8 5,6.43298606 5,4.5 C5,2.56638575 6.56638575,1 8.5,1 Z" id="Combined-Shape" stroke="#8A8CA2" fill-rule="nonzero"></path>
                        <rect id="Rectangle" fill="#EC6868" transform="translate(18.500000, 1.000000) rotate(90.000000) translate(-18.500000, -1.000000) " x="18" y="-2" width="1" height="6"></rect>
                    </g>
                </g>
            </g>
        </g>
    </g>
</svg>