<svg width="20" height="20" viewBox="0 0 20 20" fill="none" xmlns="http://www.w3.org/2000/svg">
<path fill-rule="evenodd" clip-rule="evenodd" d="M6.40586 3.94657V2.65C6.40586 1.73873 7.14459 1 8.05586 1H11.944C12.8553 1 13.594 1.73873 13.594 2.65V3.94657H17.8517C18.2107 3.94657 18.5017 4.23759 18.5017 4.59657C18.5017 4.95556 18.2107 5.24657 17.8517 5.24657H16.5381V17.3508C16.5381 18.262 15.7994 19.0008 14.8881 19.0008H5.11179C4.20052 19.0008 3.46179 18.262 3.46179 17.3508V5.24657H2.15C1.79101 5.24657 1.5 4.95556 1.5 4.59657C1.5 4.23759 1.79101 3.94657 2.15 3.94657H6.40586ZM7.70586 2.65C7.70586 2.4567 7.86256 2.3 8.05586 2.3H11.944C12.1373 2.3 12.294 2.4567 12.294 2.65V3.94657H7.70586V2.65ZM4.76179 5.24657H15.2381V17.3508C15.2381 17.5441 15.0814 17.7008 14.8881 17.7008H5.11179C4.91849 17.7008 4.76179 17.5441 4.76179 17.3508V5.24657Z" fill="#4070F4"/>
</svg>
