<svg width="50" height="50" viewBox="0 0 50 50" fill="none" xmlns="http://www.w3.org/2000/svg">
<path d="M25 50C11.1929 50 0 38.8071 0 25C0 11.1929 11.1929 0 25 0C38.8071 0 50 11.1929 50 25C50 38.8071 38.8071 50 25 50Z" fill="#0C152E"/>
<path d="M24.1874 22.0625C24.1874 21.6138 24.5512 21.25 24.9999 21.25C25.4487 21.25 25.8124 21.6138 25.8124 22.0625V27.9375C25.8124 28.3862 25.4487 28.75 24.9999 28.75C24.5512 28.75 24.1874 28.3862 24.1874 27.9375V22.0625Z" fill="#DFE6F2"/>
<path d="M24.1874 30.8125C24.1874 30.3638 24.5512 30 24.9999 30C25.4487 30 25.8124 30.3638 25.8124 30.8125C25.8124 31.2612 25.4487 31.625 24.9999 31.625C24.5512 31.625 24.1874 31.2612 24.1874 30.8125Z" fill="#DFE6F2"/>
<path fill-rule="evenodd" clip-rule="evenodd" d="M22.9042 16.25C23.8739 14.5833 26.298 14.5833 27.2677 16.25L35.9947 31.25C36.9643 32.9167 35.7522 35 33.8129 35H16.359C14.4196 35 13.2075 32.9167 14.1772 31.25L22.9042 16.25ZM25.8495 17.0625L34.5765 32.0625C34.9159 32.6458 34.4917 33.375 33.8129 33.375H16.359C15.6802 33.375 15.256 32.6458 15.5953 32.0625L24.3223 17.0625C24.6617 16.4792 25.5102 16.4792 25.8495 17.0625Z" fill="#DFE6F2"/>
</svg>
