<svg width="20" height="20" viewBox="0 0 20 20" fill="none" xmlns="http://www.w3.org/2000/svg">
<path d="M14.6283 13.869C14.6322 13.8632 14.6361 13.8574 14.6401 13.8518C14.6451 13.8449 14.6501 13.8381 14.6553 13.8314C14.6641 13.82 14.6732 13.809 14.6825 13.7983C14.8744 13.5798 15.1879 13.5088 15.4406 13.6576C15.719 13.8215 15.8181 14.1894 15.6394 14.4645C14.7247 15.8726 13.3977 16.9479 11.8462 17.5265C10.1123 18.1732 8.21226 18.157 6.4889 17.4808C4.76555 16.8047 3.33236 15.5131 2.44794 13.8391C1.56351 12.1652 1.2861 10.2191 1.66575 8.35201C2.0454 6.48492 3.05711 4.81979 4.51833 3.65706C5.97956 2.49433 7.79407 1.91058 9.63447 2.01112C11.4749 2.11167 13.22 2.88989 14.5549 4.20538C15.5181 5.15457 16.222 6.33838 16.6098 7.6371L17.4847 6.60431C17.6958 6.35519 18.062 6.33036 18.3026 6.54886C18.5432 6.76736 18.5672 7.14645 18.3562 7.39557L16.7065 9.34288C16.4142 9.6879 15.902 9.70816 15.5852 9.38723L13.6515 7.42884C13.4227 7.19711 13.4187 6.81724 13.6425 6.58036C13.8664 6.34349 14.2333 6.33932 14.4621 6.57105L15.3064 7.42618C14.9581 6.54449 14.4321 5.74157 13.7555 5.07483C12.6209 3.95673 11.1376 3.29527 9.57338 3.20981C8.00912 3.12435 6.46686 3.62052 5.22489 4.60879C3.98291 5.59705 3.123 7.01234 2.80031 8.59928C2.47763 10.1862 2.71342 11.8403 3.46514 13.2631C4.21686 14.6859 5.435 15.7837 6.89978 16.3584C8.36456 16.9331 9.97951 16.9468 11.4532 16.3972C12.7445 15.9156 13.8528 15.0293 14.6283 13.869Z" fill="#8A8CA2"/>
</svg>
