<svg width="18" height="18" viewBox="0 0 18 18" fill="none" xmlns="http://www.w3.org/2000/svg">
    <path fill-rule="evenodd" clip-rule="evenodd" d="M8.30019 1.9502C4.79319 1.9502 1.9502 4.79319 1.9502 8.30019C1.9502 11.8072 4.79319 14.6502 8.30019 14.6502C9.78338 14.6502 11.1478 14.1417 12.2286 13.2895L14.7698 15.8307C15.0627 16.1236 15.5376 16.1236 15.8305 15.8307C16.1234 15.5378 16.1234 15.063 15.8305 14.7701L13.2893 12.2289C14.1416 11.148 14.6502 9.78349 14.6502 8.30019C14.6502 4.79319 11.8072 1.9502 8.30019 1.9502ZM11.795 11.6631C12.6342 10.7912 13.1502 9.60594 13.1502 8.30019C13.1502 5.62161 10.9788 3.4502 8.30019 3.4502C5.62161 3.4502 3.4502 5.62161 3.4502 8.30019C3.4502 10.9788 5.62161 13.1502 8.30019 13.1502C9.60584 13.1502 10.791 12.6343 11.6629 11.7952C11.6818 11.7708 11.7025 11.7474 11.7248 11.7251C11.7472 11.7027 11.7706 11.682 11.795 11.6631Z" fill="#4070F4"/>
</svg>
