<svg width="20" height="20" viewBox="0 0 20 20" fill="none" xmlns="http://www.w3.org/2000/svg">
<path fill-rule="evenodd" clip-rule="evenodd" d="M9.22222 1.5C4.95736 1.5 1.5 4.95736 1.5 9.22222C1.5 13.4871 4.95736 16.9444 9.22222 16.9444C10.8123 16.9444 12.2902 16.4638 13.5184 15.64L15.9393 18.0609C16.5251 18.6467 17.4749 18.6467 18.0607 18.0609C18.6464 17.4751 18.6464 16.5254 18.0607 15.9396L15.6398 13.5187C16.4638 12.2904 16.9444 10.8124 16.9444 9.22222C16.9444 4.95736 13.4871 1.5 9.22222 1.5ZM12.6521 12.468C13.4532 11.6218 13.9444 10.4794 13.9444 9.22222C13.9444 6.61421 11.8302 4.5 9.22222 4.5C6.61421 4.5 4.5 6.61421 4.5 9.22222C4.5 11.8302 6.61421 13.9444 9.22222 13.9444C10.4793 13.9444 11.6217 13.4532 12.4678 12.6523C12.4956 12.6193 12.525 12.5873 12.556 12.5562C12.5871 12.5252 12.6191 12.4958 12.6521 12.468Z" fill="#4070F4"/>
</svg>
