<svg width="80" height="27" viewBox="0 0 80 27" fill="none" xmlns="http://www.w3.org/2000/svg">
<path d="M2 23.5C1.17157 23.5 0.5 24.1716 0.5 25C0.5 25.8284 1.17157 26.5 2 26.5V23.5ZM22 26.5C22.8284 26.5 23.5 25.8284 23.5 25C23.5 24.1716 22.8284 23.5 22 23.5V26.5ZM2 26.5H22V23.5H2V26.5Z" fill="#C5CFE4"/>
<path d="M22 6.99589L15.0577 7.1358L18.9308 1.60905L16.0808 0L12.5 5.80658L8.99231 0L6.06923 1.60905L9.94231 7.1358L3 6.99589V10.0041L9.94231 9.86419L6.06923 15.3909L8.99231 17L12.5 11.1235L16.0808 17L18.9308 15.3909L15.0577 9.86419L22 10.0041V6.99589Z" fill="#C5CFE4"/>
<path d="M30 23.5C29.1716 23.5 28.5 24.1716 28.5 25C28.5 25.8284 29.1716 26.5 30 26.5V23.5ZM50 26.5C50.8284 26.5 51.5 25.8284 51.5 25C51.5 24.1716 50.8284 23.5 50 23.5V26.5ZM30 26.5H50V23.5H30V26.5Z" fill="#C5CFE4"/>
<path d="M50 6.99589L43.0577 7.1358L46.9308 1.60905L44.0808 0L40.5 5.80658L36.9923 0L34.0692 1.60905L37.9423 7.1358L31 6.99589V10.0041L37.9423 9.86419L34.0692 15.3909L36.9923 17L40.5 11.1235L44.0808 17L46.9308 15.3909L43.0577 9.86419L50 10.0041V6.99589Z" fill="#C5CFE4"/>
<path d="M58 23.5C57.1716 23.5 56.5 24.1716 56.5 25C56.5 25.8284 57.1716 26.5 58 26.5V23.5ZM78 26.5C78.8284 26.5 79.5 25.8284 79.5 25C79.5 24.1716 78.8284 23.5 78 23.5V26.5ZM58 26.5H78V23.5H58V26.5Z" fill="#C5CFE4"/>
<path d="M78 6.99589L71.0577 7.1358L74.9308 1.60905L72.0808 0L68.5 5.80658L64.9923 0L62.0692 1.60905L65.9423 7.1358L59 6.99589V10.0041L65.9423 9.86419L62.0692 15.3909L64.9923 17L68.5 11.1235L72.0808 17L74.9308 15.3909L71.0577 9.86419L78 10.0041V6.99589Z" fill="#C5CFE4"/>
</svg>
