<svg width="20" height="20" viewBox="0 0 20 20" fill="none" xmlns="http://www.w3.org/2000/svg">
<path fill-rule="evenodd" clip-rule="evenodd" d="M14.0988 4.84594L8.83225 4.84599C8.41803 4.84599 8.08224 4.5102 8.08224 4.09599C8.08224 3.68178 8.41802 3.34599 8.83223 3.34599L15.9094 3.34593C16.1083 3.34593 16.2991 3.42495 16.4397 3.5656C16.5804 3.70625 16.6594 3.89701 16.6594 4.09593L16.6595 11.1731C16.6595 11.5874 16.3237 11.9231 15.9095 11.9231C15.4953 11.9232 15.1595 11.5874 15.1595 11.1732L15.1594 5.90664L4.62969 16.4364C4.3368 16.7293 3.86193 16.7293 3.56903 16.4364C3.27614 16.1435 3.27614 15.6686 3.56903 15.3757L14.0988 4.84594Z" fill="#4070F4"/>
</svg>
