<svg width="52" height="62" viewBox="0 0 52 62" fill="none" xmlns="http://www.w3.org/2000/svg">
<g clip-path="url(#clip0_631_10109)">
<path d="M33.3935 9.96226L17.6239 7.63269C17.3581 17.0712 16.6914 26.0089 13.6416 31.9671H40.1454C36.1873 26.9904 33.773 19.8852 33.3935 9.96226Z" fill="#FFD0D1"/>
<path d="M33.3875 8.60236C33.3303 6.59318 32.4752 4.68509 31.004 3.28371C29.5327 1.88234 27.5614 1.09821 25.5091 1.09802C21.8063 1.09802 17.6248 6.94569 17.6248 6.94569V12.3363H18.4906C19.1515 13.6025 20.1567 14.6653 21.3952 15.4075C22.6338 16.1497 24.0575 16.5425 25.5095 16.5425C26.9615 16.5425 28.3853 16.1497 29.6238 15.4075C30.8624 14.6653 31.8675 13.6025 32.5284 12.3363H33.3943V8.60607L33.3875 8.60236Z" fill="#FFD0D1"/>
<path d="M25.466 19.4579C29.7965 19.4579 33.3072 16.0197 33.3072 11.7784C33.3072 7.53719 29.7965 4.099 25.466 4.099C21.1354 4.099 17.6248 7.53719 17.6248 11.7784C17.6248 16.0197 21.1354 19.4579 25.466 19.4579Z" fill="white"/>
<path d="M30.4611 6.06207C31.7264 7.48773 32.3999 9.32629 32.3483 11.2146C32.2968 13.1029 31.5241 14.9036 30.1828 16.261C28.8415 17.6185 27.0292 18.4339 25.1038 18.5462C23.1785 18.6586 21.2801 18.0597 19.7837 16.8679C20.4842 17.6572 21.3447 18.2953 22.3104 18.7417C23.2761 19.188 24.326 19.433 25.3934 19.4609C26.4609 19.4888 27.5227 19.2992 28.5113 18.904C29.5 18.5087 30.394 17.9166 31.1366 17.165C31.8792 16.4135 32.4542 15.519 32.8251 14.5383C33.1961 13.5576 33.3548 12.5121 33.2913 11.4681C33.2278 10.4241 32.9434 9.40448 32.4562 8.47385C31.969 7.54322 31.2896 6.72193 30.4611 6.06207Z" fill="#DFE6F2"/>
<path d="M50.8645 49.2586C50.8645 49.2445 50.8645 49.2304 50.8645 49.2163C50.8645 35.5015 39.5121 24.3834 25.5084 24.3834C11.5047 24.3834 0.153076 35.503 0.153076 49.2178V49.2586C16.9753 51.5589 34.0423 51.5589 50.8645 49.2586Z" fill="#3D71FF"/>
<path d="M25.7456 25.6453C27.7789 25.6453 29.4272 25.3633 29.4272 25.0155C29.4272 24.6676 27.7789 24.3856 25.7456 24.3856C23.7123 24.3856 22.064 24.6676 22.064 25.0155C22.064 25.3633 23.7123 25.6453 25.7456 25.6453Z" fill="#254898"/>
<path d="M25.4721 19.495C25.3872 19.495 25.3031 19.495 25.2183 19.4912C23.1384 19.4281 21.1683 18.5625 19.7371 17.0831C18.306 15.6036 17.5297 13.6303 17.5775 11.5929C17.6253 9.55545 18.4933 7.61909 19.9923 6.2056C21.4913 4.79211 23.4999 4.01604 25.5806 4.04645C27.6612 4.07687 29.6453 4.9113 31.1006 6.36797C32.5559 7.82464 33.3644 9.78552 33.3501 11.8234C33.3358 13.8613 32.4998 15.8111 31.0242 17.248C29.5485 18.685 27.5529 19.4926 25.4721 19.495ZM25.4592 4.13759C23.4007 4.13972 21.4265 4.93844 19.9666 6.35973C18.5067 7.78102 17.6795 9.70973 17.6651 11.7257C17.6507 13.7416 18.4503 15.6815 19.8897 17.1227C21.3291 18.5638 23.2917 19.3895 25.35 19.4199C27.4082 19.4503 29.3953 18.6828 30.8784 17.2847C32.3615 15.8867 33.2204 13.9713 33.2679 11.9558C33.3155 9.94035 32.5479 7.98812 31.1324 6.52442C29.7169 5.06071 27.7682 4.20414 25.7107 4.14129C25.6266 4.13684 25.5433 4.13536 25.4592 4.13536V4.13759Z" fill="#101C3D"/>
<path d="M11.8045 39.9447L9.91602 50.3254L11.8045 50.4753V39.9447Z" fill="#254898"/>
<path d="M40.4763 39.8542L42.3648 50.2349L40.4763 50.3848V39.8542Z" fill="#254898"/>
<path d="M23.9729 7.5355C25.4963 7.16455 26.7 5.86103 26.9765 4.3342C26.7766 4.29205 26.5742 4.26256 26.3705 4.24591C26.2069 5.66146 25.2584 6.98872 23.9729 7.5355Z" fill="#C3CFE6"/>
<path d="M22.376 7.86119C24.5925 7.86119 26.3894 6.1014 26.3894 3.9306C26.3894 1.75979 24.5925 0 22.376 0C20.1594 0 18.3625 1.75979 18.3625 3.9306C18.3625 6.1014 20.1594 7.86119 22.376 7.86119Z" fill="#FFD0D1"/>
<path d="M19.1776 9.32052C20.2859 9.32052 21.1843 8.44062 21.1843 7.35522C21.1843 6.26982 20.2859 5.38992 19.1776 5.38992C18.0693 5.38992 17.1709 6.26982 17.1709 7.35522C17.1709 8.44062 18.0693 9.32052 19.1776 9.32052Z" fill="#FFD0D1"/>
<path d="M50.757 49.2022C50.757 49.2022 51.3214 50.9739 51.3494 51.0399C51.788 51.8745 51.9713 52.9933 51.9615 53.9971C51.9548 54.7823 51.7901 55.5585 51.4768 56.2812C51.1635 57.004 50.7076 57.6591 50.1354 58.2091C49.5632 58.7591 48.8859 59.1932 48.1421 59.4865C47.3984 59.7797 46.6029 59.9265 45.8012 59.9182C41.7787 59.8819 39.0546 57.1272 36.8624 54.9134C35.62 53.6573 33.9186 51.9369 32.8376 51.7388C31.2461 51.4466 29.8383 50.5472 28.9239 49.2384C28.0095 47.9296 27.6634 46.3187 27.9617 44.7601C28.2601 43.2014 29.1784 41.8226 30.5148 40.9271C31.8511 40.0316 33.4959 39.6926 35.0875 39.9848C39.9872 40.884 43.2514 44.184 45.6338 46.5937C46.102 47.0663 48.5639 49.1161 48.995 49.4871" fill="white"/>
<path d="M45.8602 59.9561H45.8004C41.7627 59.9197 39.0318 57.1583 36.838 54.9401C35.5995 53.6877 33.9026 51.9725 32.8337 51.7759C31.2327 51.4823 29.8163 50.5778 28.8961 49.2615C27.976 47.9452 27.6274 46.3247 27.9272 44.7567C28.2269 43.1887 29.1504 41.8015 30.4945 40.9004C31.8386 39.9992 33.4931 39.6578 35.0942 39.9514C40.006 40.8521 43.2755 44.1573 45.661 46.5707C46.0049 46.9179 47.4609 48.1457 48.3305 48.8795C48.6525 49.151 48.9063 49.3647 49.0199 49.4633L48.9699 49.519C48.857 49.4211 48.6025 49.2066 48.2813 48.9351C47.3541 48.1539 45.9527 46.972 45.6065 46.6219C43.2271 44.2159 39.9689 40.9211 35.0768 40.0249C34.2938 39.8813 33.4896 39.8901 32.7102 40.0509C31.9307 40.2116 31.1912 40.5212 30.5338 40.9618C29.8765 41.4025 29.3143 41.9657 28.8792 42.6191C28.4441 43.2726 28.1446 44.0036 27.998 44.7704C27.8514 45.5372 27.8604 46.3248 28.0245 47.0882C28.1887 47.8516 28.5048 48.5759 28.9547 49.2196C29.4047 49.8634 29.9797 50.4141 30.6469 50.8402C31.3142 51.2663 32.0606 51.5595 32.8436 51.7031C33.9367 51.9035 35.6464 53.6321 36.8888 54.8889C39.0727 57.0968 41.7915 59.8455 45.7974 59.8819C46.1583 59.8862 46.5188 59.8584 46.8746 59.7988C48.2774 59.5663 49.552 58.8574 50.4745 57.7965C51.397 56.7357 51.9087 55.3905 51.9197 53.9971C51.9303 52.8843 51.7091 51.8137 51.3137 51.0577C51.2834 50.988 50.741 49.286 50.7183 49.2141L50.794 49.1918C50.9516 49.6837 51.3637 50.9724 51.3864 51.0265C51.7872 51.7907 52.0114 52.8746 52.0008 53.9941C51.9897 55.405 51.4716 56.767 50.5376 57.8411C49.6036 58.9153 48.3132 59.6331 46.8927 59.8685C46.5516 59.9256 46.2063 59.9549 45.8602 59.9561Z" fill="#101C3D"/>
<path d="M9.80463 51.6037C10.844 51.4813 14.5301 50.2557 16.0293 49.8795C18.9746 49.1376 21.0153 48.2474 21.9463 47.728C22.5359 46.6181 23.4869 45.7326 24.6487 45.2122C25.8104 44.6917 27.1163 44.566 28.3593 44.855C29.6022 45.144 30.7111 45.8312 31.51 46.8076C32.3089 47.7839 32.752 48.9935 32.7692 50.2446C32.7927 51.9665 32.1397 54.4838 28.8952 56.6991C26.4226 58.3884 22.2789 60.0013 17.8102 61.0133C13.7953 61.9228 10.4167 62.1781 7.73505 61.7789C6.903 61.6618 6.08623 61.4573 5.29883 61.1691C1.85661 59.8782 -0.150852 56.6212 0.0498935 52.4977C0.0885277 51.695 0.0779225 50.0962 0.251397 49.2756L9.80463 51.6037ZM16.6118 42.3826H16.6065H16.6118Z" fill="white"/>
<path d="M10.3745 61.9992C9.48727 62.0037 8.60097 61.9427 7.72312 61.8167C6.89135 61.6975 6.07491 61.4919 5.28766 61.2032C3.60846 60.5841 2.19422 59.424 1.27728 57.9136C0.352337 56.3927 -0.086273 54.5194 0.0137212 52.4977C0.0235691 52.2922 0.0303851 52.0288 0.0379605 51.7499C0.0591714 50.9182 0.086443 49.8825 0.215981 49.2697L0.291734 49.2845C0.163711 49.8914 0.136441 50.9226 0.11523 51.7521C0.107655 52.031 0.100837 52.2944 0.0909886 52.5007C-0.00749051 54.5105 0.426576 56.3697 1.34395 57.878C2.25216 59.3737 3.65275 60.5225 5.31568 61.1357C6.09926 61.4227 6.9119 61.6269 7.73978 61.7448C10.4154 62.1439 13.8 61.8865 17.8028 60.9799C22.2677 59.9679 26.4046 58.3572 28.8734 56.6702C32.1043 54.4623 32.755 51.9576 32.7315 50.2453C32.7148 49.0024 32.2748 47.8005 31.4812 46.8304C30.6877 45.8603 29.586 45.1775 28.3511 44.8904C27.1162 44.6033 25.8188 44.7283 24.6647 45.2456C23.5106 45.7629 22.5659 46.6429 21.9806 47.7458L21.9753 47.7555L21.9655 47.7607C20.9201 48.3453 18.8141 49.2192 16.0385 49.9159C15.4636 50.0598 14.5674 50.3291 13.6182 50.614C12.0623 51.0814 10.4525 51.5651 9.80936 51.6408L9.80027 51.5666C10.4366 51.4924 12.1153 50.9879 13.5963 50.5435C14.5462 50.2579 15.4431 49.9886 16.0204 49.8439C18.7793 49.151 20.8739 48.2859 21.9185 47.7013C22.5134 46.5855 23.4715 45.6961 24.6409 45.174C25.8103 44.6518 27.1243 44.5269 28.3744 44.8189C29.6246 45.1109 30.7395 45.8031 31.5425 46.786C32.3455 47.7688 32.7906 48.9859 32.8073 50.2445C32.8307 51.9747 32.1747 54.5045 28.9166 56.731C26.4402 58.4233 22.292 60.0377 17.8187 61.0511C15.0295 61.6825 12.538 61.9992 10.3745 61.9992ZM21.3398 50.3937H21.264L21.3398 50.3855V50.3937ZM16.6181 42.4197L16.5946 42.3455H16.6037L16.6181 42.4197Z" fill="#101C3D"/>
<path d="M9.91977 50.3254C9.91977 50.3254 9.77811 51.5125 9.80235 51.5125C10.9386 51.3404 13.2711 50.5866 13.2711 50.5866L9.91977 50.3254Z" fill="#DFE6F2"/>
<path d="M51.1146 50.6281L50.6669 49.2245L49.0624 49.4285L48.9329 49.5576L51.2653 51.0933L51.1146 50.6281Z" fill="#DFE6F2"/>
<g clip-path="url(#clip1_631_10109)">
<path d="M37.0909 43.8539V43.114H36.0979C34.7522 42.5962 32.1902 42.2464 29.2514 42.2464C26.3126 42.2464 23.7475 42.5962 22.4018 43.114H21.394V43.9505C21.394 44.2546 21.7592 44.5352 22.3971 44.7816C22.3971 44.7816 22.3971 44.7816 22.4026 44.7816C23.7506 45.2964 26.3119 45.6462 29.2483 45.6462C32.1847 45.6462 34.7568 45.2964 36.1026 44.7755C36.7375 44.5322 37.0995 44.2493 37.0995 43.9474C37.1004 43.916 37.0976 43.8846 37.0909 43.8539Z" fill="#F7E36D"/>
<path d="M29.2514 45.6842C26.4266 45.6842 23.8018 45.3527 22.3987 44.8196H22.3886L22.3801 44.812C21.7026 44.5489 21.3584 44.2585 21.3584 43.9475V43.0761H22.3948C23.7902 42.5438 26.4173 42.2084 29.2514 42.2084C32.0855 42.2084 34.7088 42.5407 36.1057 43.0761H37.1297V43.8494C37.1373 43.8815 37.1412 43.9145 37.1413 43.9475C37.1413 44.2608 36.7979 44.5512 36.1196 44.8113C34.7274 45.3497 32.0956 45.6842 29.2514 45.6842ZM22.4251 44.7482C23.8204 45.2805 26.4344 45.6082 29.2514 45.6082C32.0863 45.6082 34.7072 45.2759 36.091 44.7406C36.7274 44.4965 37.0638 44.222 37.0638 43.9475C37.0636 43.919 37.0599 43.8907 37.053 43.8631V43.1521H36.0848C34.6987 42.6198 32.0801 42.2868 29.2522 42.2868C26.4243 42.2868 23.8034 42.6183 22.4173 43.1521H22.4026H21.4382V43.9475C21.4382 44.2197 21.7739 44.4942 22.4096 44.7406H22.4196L22.4251 44.7482Z" fill="#0C152E"/>
<path d="M37.1026 43.2091C37.1026 43.5133 36.7406 43.7939 36.1057 44.0372C34.76 44.5573 32.1933 44.9079 29.2515 44.9079C26.3096 44.9079 23.7538 44.5573 22.4057 44.0433C22.4057 44.0433 22.4057 44.0433 22.4003 44.0433C21.7623 43.7969 21.3972 43.511 21.3972 43.2122C21.3972 42.2715 24.9143 41.5111 29.2515 41.5111C33.5887 41.5111 37.1026 42.2677 37.1026 43.2091Z" fill="#F7E36D"/>
<path d="M29.2514 44.9451C26.4266 44.9451 23.8018 44.6136 22.3987 44.0805H22.3886L22.3801 44.0729C21.7026 43.8098 21.3584 43.5193 21.3584 43.2083C21.3584 42.2327 24.8258 41.4693 29.2514 41.4693C33.677 41.4693 37.1413 42.2297 37.1413 43.2083C37.1413 43.5216 36.7979 43.8121 36.1196 44.0722C34.7274 44.6105 32.0956 44.9451 29.2514 44.9451ZM22.4251 44.009C23.8204 44.5413 26.4344 44.8691 29.2514 44.8691C32.0863 44.8691 34.7072 44.536 36.091 44.0014C36.7274 43.7573 37.0638 43.4828 37.0638 43.2083C37.0638 42.2913 33.5592 41.5453 29.2514 41.5453C24.9437 41.5453 21.4382 42.2913 21.4382 43.2091C21.4382 43.4813 21.7739 43.7558 22.4096 44.0022H22.4196L22.4251 44.009Z" fill="#0C152E"/>
<path d="M29.2515 42.2061C32.5073 42.2061 35.1957 42.727 35.6398 43.4061C35.6804 43.3476 35.703 43.279 35.705 43.2083C35.705 42.435 32.8143 41.81 29.2515 41.81C25.6887 41.81 22.7957 42.435 22.7957 43.2083C22.7971 43.2789 22.8198 43.3474 22.8608 43.4053C23.3057 42.727 25.9972 42.2061 29.2515 42.2061Z" fill="#0C152E"/>
<path d="M35.6398 43.476L35.6073 43.4266C35.1654 42.7521 32.429 42.2442 29.2507 42.2442C26.0724 42.2442 23.3344 42.7521 22.8941 43.4258L22.8615 43.476L22.829 43.4266C22.7838 43.3625 22.7585 43.287 22.7561 43.2091C22.7561 42.4038 25.6088 41.7727 29.2507 41.7727C32.8925 41.7727 35.7429 42.4038 35.7429 43.2091C35.7413 43.2871 35.7165 43.3629 35.6716 43.4273L35.6398 43.476ZM29.2515 42.1681C32.4297 42.1681 35.0809 42.6555 35.6352 43.3353C35.6548 43.2957 35.6653 43.2524 35.6662 43.2083C35.6662 42.4708 32.7282 41.848 29.2515 41.848C25.7747 41.848 22.8336 42.4708 22.8336 43.2091C22.8342 43.2531 22.8445 43.2964 22.8639 43.3361C23.4197 42.6555 26.0693 42.1681 29.2515 42.1681Z" fill="#0C152E"/>
<path d="M37.0909 42.8852V42.1445H36.0979C34.7522 41.6267 32.1902 41.2769 29.2514 41.2769C26.3126 41.2769 23.7475 41.6267 22.4018 42.1445H21.394V42.981C21.394 43.2851 21.7592 43.5657 22.3971 43.8121C22.3971 43.8121 22.3971 43.8121 22.4026 43.8121C23.7506 44.3269 26.3119 44.6767 29.2483 44.6767C32.1847 44.6767 34.7568 44.3269 36.1026 43.806C36.7375 43.5627 37.0995 43.2798 37.0995 42.9779C37.1004 42.9468 37.0975 42.9156 37.0909 42.8852Z" fill="#F7E36D"/>
<path d="M29.2514 44.7154C26.4266 44.7154 23.8018 44.3839 22.3987 43.8509H22.3886L22.3801 43.8433C21.7026 43.5802 21.3584 43.2897 21.3584 42.9787V42.1073H22.3948C23.7902 41.575 26.4173 41.2397 29.2514 41.2397C32.0855 41.2397 34.7088 41.572 36.1057 42.1073H37.1297V42.8806C37.1373 42.9128 37.1412 42.9457 37.1413 42.9787C37.1413 43.292 36.7979 43.5825 36.1196 43.8425C34.7274 44.3809 32.0956 44.7154 29.2514 44.7154ZM22.4251 43.7794C23.8204 44.3117 26.4344 44.6394 29.2514 44.6394C32.0863 44.6394 34.7072 44.3071 36.091 43.7718C36.7274 43.5277 37.0638 43.2532 37.0638 42.9787C37.0635 42.9502 37.0599 42.9219 37.053 42.8943V42.1833H36.0848C34.6987 41.651 32.0801 41.318 29.2522 41.318C26.4243 41.318 23.8034 41.6495 22.4173 42.1833H22.4026H21.4382V42.981C21.4382 43.2532 21.7739 43.5277 22.4096 43.7741H22.4196L22.4251 43.7794Z" fill="#0C152E"/>
<path d="M37.1026 42.2396C37.1026 42.5438 36.7406 42.8244 36.1057 43.0677C34.76 43.5878 32.1933 43.9383 29.2515 43.9383C26.3096 43.9383 23.7538 43.5878 22.4057 43.0738C22.4057 43.0738 22.4057 43.0738 22.4003 43.0738C21.7623 42.8274 21.3972 42.5415 21.3972 42.2426C21.3972 41.302 24.9143 40.5416 29.2515 40.5416C33.5887 40.5416 37.1026 41.299 37.1026 42.2396Z" fill="#F7E36D"/>
<path d="M29.2514 43.9763C26.4266 43.9763 23.8018 43.6448 22.3987 43.1118H22.3886L22.3801 43.1042C21.7026 42.8411 21.3584 42.5506 21.3584 42.2396C21.3584 41.264 24.8258 40.5005 29.2514 40.5005C33.677 40.5005 37.1413 41.261 37.1413 42.2396C37.1413 42.5529 36.7979 42.8433 36.1196 43.1034C34.7274 43.6418 32.0956 43.9763 29.2514 43.9763ZM22.4251 43.0403C23.8204 43.5726 26.4344 43.9003 29.2514 43.9003C32.0863 43.9003 34.7072 43.5672 36.091 43.0319C36.7274 42.7886 37.0638 42.5141 37.0638 42.2396C37.0638 41.3225 33.5592 40.5766 29.2514 40.5766C24.9437 40.5766 21.4382 41.3225 21.4382 42.2396C21.4382 42.5118 21.7739 42.7863 22.4096 43.0327H22.4196L22.4251 43.0403Z" fill="#0C152E"/>
<path d="M29.2515 41.2374C32.5073 41.2374 35.1957 41.7583 35.6398 42.4373C35.6804 42.3789 35.703 42.3103 35.705 42.2396C35.705 41.4663 32.8143 40.8412 29.2515 40.8412C25.6887 40.8412 22.7957 41.4663 22.7957 42.2396C22.7971 42.3101 22.8198 42.3786 22.8608 42.4365C23.3057 41.7583 25.9972 41.2374 29.2515 41.2374Z" fill="#0C152E"/>
<path d="M35.6397 42.5073L35.6072 42.4578C35.1653 41.7833 32.4289 41.2754 29.2506 41.2754C26.0723 41.2754 23.3343 41.7833 22.894 42.4578L22.8614 42.5073L22.8289 42.4578C22.7841 42.3934 22.7594 42.3176 22.7576 42.2396C22.7576 41.4343 25.6103 40.8032 29.2521 40.8032C32.894 40.8032 35.7444 41.4343 35.7444 42.2396C35.7427 42.3176 35.718 42.3934 35.6731 42.4578L35.6397 42.5073ZM29.2514 41.1994C32.4297 41.1994 35.0808 41.6868 35.6351 42.3666C35.6547 42.3269 35.6653 42.2836 35.6661 42.2396C35.6661 41.502 32.7281 40.8792 29.2514 40.8792C25.7746 40.8792 22.8335 41.502 22.8335 42.2396C22.8341 42.2836 22.8445 42.3269 22.8638 42.3666C23.4196 41.6883 26.0692 41.1994 29.2514 41.1994Z" fill="#0C152E"/>
<path d="M37.8661 41.9164V41.1765H36.8731C35.5273 40.6587 32.9653 40.3089 30.0266 40.3089C27.0878 40.3089 24.5227 40.6587 23.1769 41.1765H22.1692V42.013C22.1692 42.3172 22.5343 42.5977 23.1723 42.8441C23.1723 42.8441 23.1723 42.8441 23.1777 42.8441C24.5258 43.3589 27.087 43.7087 30.0234 43.7087C32.9599 43.7087 35.532 43.3589 36.8777 42.838C37.5126 42.5947 37.8746 42.3118 37.8746 42.0099C37.8756 41.9785 37.8727 41.9471 37.8661 41.9164Z" fill="#F7E36D"/>
<path d="M30.0266 43.7467C27.2018 43.7467 24.577 43.4152 23.1739 42.8821H23.163L23.1553 42.8745C22.4777 42.6114 22.1335 42.3209 22.1335 42.0099V41.1385H23.17C24.5653 40.6062 27.1925 40.2709 30.0266 40.2709C32.8607 40.2709 35.4839 40.6032 36.8808 41.1385H37.9049V41.9119C37.9125 41.944 37.9164 41.9769 37.9165 42.0099C37.9165 42.3232 37.5731 42.6137 36.8948 42.8738C35.5025 43.4121 32.8708 43.7467 30.0266 43.7467ZM23.2049 42.8106C24.6002 43.3429 27.2134 43.6707 30.0266 43.6707C32.8615 43.6707 35.4824 43.3384 36.8661 42.803C37.5025 42.559 37.839 42.2852 37.839 42.0099C37.8387 41.9815 37.835 41.9532 37.8281 41.9255V41.2146H36.8599C35.4731 40.6823 32.8553 40.3492 30.0273 40.3492C27.1994 40.3492 24.5785 40.6808 23.1925 41.2146H23.1777H22.2134V42.0099C22.2134 42.2822 22.5491 42.5567 23.1847 42.803H23.1956L23.2049 42.8106Z" fill="#0C152E"/>
<path d="M37.8778 41.2709C37.8778 41.575 37.5158 41.8556 36.8809 42.0989C35.5352 42.619 32.9685 42.9696 30.0266 42.9696C27.0848 42.9696 24.529 42.619 23.1809 42.105C23.1809 42.105 23.1809 42.105 23.1755 42.105C22.5375 41.8586 22.1724 41.5727 22.1724 41.2739C22.1724 40.3333 25.6894 39.5729 30.0266 39.5729C34.3638 39.5729 37.8778 40.3302 37.8778 41.2709Z" fill="#F7E36D"/>
<path d="M30.0266 43.0076C27.2018 43.0076 24.577 42.6761 23.1739 42.143H23.1638L23.1553 42.1354C22.4777 41.8723 22.1335 41.5818 22.1335 41.2708C22.1335 40.296 25.601 39.5318 30.0266 39.5318C34.4522 39.5318 37.9165 40.296 37.9165 41.2708C37.9165 41.5841 37.5731 41.8746 36.8948 42.1347C35.5025 42.6768 32.8708 43.0076 30.0266 43.0076ZM23.2002 42.0685C24.5956 42.6008 27.2095 42.9285 30.0266 42.9285C32.8615 42.9285 35.4824 42.5955 36.8661 42.0609C37.5025 41.8168 37.839 41.5423 37.839 41.2678C37.839 40.3507 34.3343 39.6048 30.0266 39.6048C25.7188 39.6048 22.2134 40.3538 22.2134 41.2708C22.2134 41.5431 22.5491 41.8176 23.1847 42.0639H23.1948L23.2002 42.0685Z" fill="#0C152E"/>
<path d="M30.0266 40.2686C33.2824 40.2686 35.9708 40.7895 36.415 41.4685C36.4556 41.4101 36.4782 41.3415 36.4801 41.2708C36.4801 40.4975 33.5894 39.8725 30.0266 39.8725C26.4638 39.8725 23.5708 40.4975 23.5708 41.2708C23.5723 41.3414 23.5949 41.4099 23.6359 41.4678C24.0809 40.7895 26.7724 40.2686 30.0266 40.2686Z" fill="#0C152E"/>
<path d="M36.4151 41.5362L36.3826 41.4868C35.9407 40.8123 33.2043 40.3044 30.026 40.3044C26.8477 40.3044 24.1097 40.8123 23.6694 41.4868L23.6368 41.5362L23.6043 41.4868C23.5595 41.4223 23.5347 41.3465 23.533 41.2685C23.533 40.4633 26.3857 39.8322 30.0275 39.8322C33.6694 39.8322 36.5198 40.4633 36.5198 41.2685C36.5181 41.3465 36.4933 41.4224 36.4485 41.4868L36.4151 41.5362ZM30.0268 40.2283C33.2051 40.2283 35.8562 40.7157 36.4105 41.3955C36.4301 41.3559 36.4406 41.3126 36.4415 41.2685C36.4415 40.531 33.5035 39.9082 30.0268 39.9082C26.55 39.9082 23.6089 40.5332 23.6089 41.2708C23.6095 41.3148 23.6198 41.3581 23.6392 41.3978C24.195 40.718 26.8446 40.2306 30.0268 40.2306V40.2283Z" fill="#0C152E"/>
<path d="M37.0909 40.9477V40.2078H36.0979C34.7522 39.69 32.1902 39.3402 29.2514 39.3402C26.3126 39.3402 23.7475 39.69 22.4018 40.2078H21.394V41.0442C21.394 41.3484 21.7592 41.629 22.3971 41.8754C22.3971 41.8754 22.3971 41.8754 22.4026 41.8754C23.7506 42.3902 26.3119 42.7399 29.2483 42.7399C32.1847 42.7399 34.7568 42.3901 36.1026 41.8693C36.7375 41.6259 37.0995 41.3431 37.0995 41.0412C37.1004 41.0098 37.0976 40.9784 37.0909 40.9477Z" fill="#F7E36D"/>
<path d="M29.2514 42.778C26.4266 42.778 23.8018 42.4472 22.3987 41.9134H22.3879L22.3801 41.9058C21.7026 41.6427 21.3584 41.3522 21.3584 41.0412V40.1675H22.3948C23.7902 39.6352 26.4173 39.2999 29.2514 39.2999C32.0855 39.2999 34.7088 39.6322 36.1057 40.1675H37.1297V40.9431C37.1373 40.9753 37.1412 41.0082 37.1413 41.0412C37.1413 41.3545 36.7979 41.645 36.1196 41.905C34.7274 42.4434 32.0956 42.778 29.2514 42.778ZM22.4297 41.8419C23.8251 42.3742 26.4382 42.7019 29.2514 42.7019C32.0863 42.7019 34.7072 42.3696 36.091 41.8343C36.7274 41.5902 37.0638 41.3157 37.0638 41.0412C37.0635 41.0128 37.0599 40.9844 37.053 40.9568V40.2436H36.0848C34.6987 39.7113 32.0801 39.3782 29.2522 39.3782C26.4243 39.3782 23.8026 39.7113 22.4165 40.2436H22.4018H21.4382V41.0389C21.4382 41.3112 21.7739 41.5857 22.4096 41.832H22.4204L22.4297 41.8419Z" fill="#0C152E"/>
<path d="M37.1026 40.3021C37.1026 40.6063 36.7406 40.8868 36.1057 41.1302C34.76 41.6503 32.1933 42.0008 29.2515 42.0008C26.3096 42.0008 23.7538 41.6503 22.4057 41.1363C22.4057 41.1363 22.4057 41.1363 22.4003 41.1363C21.7623 40.8899 21.3972 40.604 21.3972 40.3051C21.3972 39.3645 24.9143 38.6041 29.2515 38.6041C33.5887 38.6041 37.1026 39.3615 37.1026 40.3021Z" fill="#F7E36D"/>
<path d="M29.2514 42.0388C26.4266 42.0388 23.8018 41.7073 22.3987 41.1743H22.3886L22.3801 41.1667C21.7026 40.9036 21.3584 40.6131 21.3584 40.3021C21.3584 39.3273 24.8258 38.563 29.2514 38.563C33.677 38.563 37.1413 39.3273 37.1413 40.3021C37.1413 40.6154 36.7979 40.9058 36.1196 41.1659C34.7274 41.7043 32.0956 42.0388 29.2514 42.0388ZM22.4251 41.1028C23.8204 41.6351 26.4344 41.9628 29.2514 41.9628C32.0863 41.9628 34.7072 41.6297 36.091 41.0952C36.7274 40.8511 37.0638 40.5766 37.0638 40.3021C37.0638 39.385 33.5592 38.6391 29.2514 38.6391C24.9437 38.6391 21.4382 39.385 21.4382 40.3021C21.4382 40.5743 21.7739 40.8488 22.4096 41.0952H22.4196L22.4251 41.1028Z" fill="#0C152E"/>
<path d="M29.2515 39.2999C32.5073 39.2999 35.1957 39.8208 35.6398 40.4998C35.6804 40.4414 35.703 40.3728 35.705 40.3021C35.705 39.5288 32.8143 38.9037 29.2515 38.9037C25.6887 38.9037 22.7957 39.5288 22.7957 40.3021C22.7972 40.3728 22.8199 40.4415 22.8608 40.4998C23.3057 39.8208 25.9972 39.2999 29.2515 39.2999Z" fill="#0C152E"/>
<path d="M35.6397 40.5697L35.6072 40.5203C35.1653 39.8459 32.4289 39.3379 29.2506 39.3379C26.0723 39.3379 23.3343 39.8459 22.894 40.5203L22.8614 40.5697L22.8289 40.5203C22.7841 40.4559 22.7594 40.3801 22.7576 40.3021C22.7576 39.4968 25.6103 38.8657 29.2521 38.8657C32.894 38.8657 35.7444 39.4968 35.7444 40.3021C35.7427 40.3801 35.718 40.4559 35.6731 40.5203L35.6397 40.5697ZM29.2514 39.2619C32.4297 39.2619 35.0808 39.7493 35.6351 40.4291C35.6547 40.3894 35.6653 40.3461 35.6661 40.3021C35.6661 39.5645 32.7281 38.9417 29.2514 38.9417C25.7746 38.9417 22.8335 39.5645 22.8335 40.3021C22.8341 40.3461 22.8445 40.3894 22.8638 40.4291C23.4196 39.7493 26.0692 39.2619 29.2514 39.2619Z" fill="#0C152E"/>
<path d="M36.6259 39.9789V39.239H35.6328C34.2871 38.7212 31.7251 38.3714 28.7863 38.3714C25.8476 38.3714 23.2824 38.7212 21.9367 39.239H20.929V40.0755C20.929 40.3796 21.2941 40.6602 21.9321 40.9066C21.9321 40.9066 21.932 40.9066 21.9375 40.9066C23.2855 41.4214 25.8468 41.7712 28.7832 41.7712C31.7196 41.7712 34.2917 41.4214 35.6375 40.9005C36.2724 40.6572 36.6344 40.3743 36.6344 40.0724C36.6354 40.041 36.6325 40.0096 36.6259 39.9789Z" fill="#F7E36D"/>
<path d="M28.7863 41.8092C25.9615 41.8092 23.3367 41.4777 21.9336 40.9446H21.9235L21.915 40.937C21.2375 40.6739 20.8933 40.3834 20.8933 40.0724V39.201H21.9297C23.3251 38.6687 25.9522 38.3334 28.7863 38.3334C31.6204 38.3334 34.2437 38.6657 35.6406 39.201H36.6646V39.9744C36.6722 40.0065 36.6761 40.0394 36.6763 40.0724C36.6763 40.3857 36.3328 40.6762 35.6546 40.9363C34.2623 41.4746 31.6305 41.8092 28.7863 41.8092ZM21.96 40.8731C23.3553 41.4054 25.9693 41.7332 28.7863 41.7332C31.6212 41.7332 34.2422 41.4009 35.6259 40.8655C36.2623 40.6215 36.5987 40.3477 36.5987 40.0724C36.5984 40.044 36.5948 40.0157 36.5879 39.988V39.2771H35.6197C34.2336 38.7448 31.615 38.4117 28.7871 38.4117C25.9592 38.4117 23.3383 38.7433 21.9522 39.2771H21.9375H20.9732V40.0724C20.9732 40.3447 21.3088 40.6192 21.9445 40.8655H21.9546L21.96 40.8731Z" fill="#0C152E"/>
<path d="M36.6376 39.3311C36.6376 39.6352 36.2755 39.9158 35.6407 40.1591C34.2949 40.68 31.7283 41.0298 28.7864 41.0298C25.8445 41.0298 23.2887 40.68 21.9407 40.1652C21.9407 40.1652 21.9407 40.1652 21.9352 40.1652C21.2973 39.9189 20.9321 39.6329 20.9321 39.3341C20.9321 38.3935 24.4492 37.6331 28.7864 37.6331C33.1236 37.6331 36.6376 38.3927 36.6376 39.3311Z" fill="#F7E36D"/>
<path d="M28.7863 41.0701C25.9615 41.0701 23.3367 40.7386 21.9336 40.2055H21.9228L21.915 40.1979C21.2375 39.9348 20.8933 39.6443 20.8933 39.3333C20.8933 38.3585 24.3608 37.5943 28.7863 37.5943C33.2119 37.5943 36.6763 38.3585 36.6763 39.3333C36.6763 39.6466 36.3328 39.9371 35.6546 40.1972C34.2623 40.7355 31.6305 41.0701 28.7863 41.0701ZM21.9646 40.134C23.36 40.6663 25.9732 40.9941 28.7863 40.9941C31.6212 40.9941 34.2422 40.6618 35.6259 40.1264C36.2623 39.8823 36.5987 39.6078 36.5987 39.3333C36.5987 38.4163 33.0941 37.6703 28.7863 37.6703C24.4786 37.6703 20.9732 38.4186 20.9732 39.3311C20.9732 39.6033 21.3088 39.8778 21.9445 40.1242H21.9553L21.9646 40.134Z" fill="#0C152E"/>
<path d="M28.7864 38.3311C32.0422 38.3311 34.7306 38.852 35.1747 39.531C35.2153 39.4726 35.2379 39.404 35.2399 39.3333C35.2399 38.56 32.3492 37.935 28.7864 37.935C25.2236 37.935 22.3306 38.56 22.3306 39.3333C22.3322 39.4041 22.3548 39.4728 22.3957 39.531C22.8406 38.852 25.5321 38.3311 28.7864 38.3311Z" fill="#0C152E"/>
<path d="M35.1747 39.6018L35.1422 39.5516C34.7003 38.8771 31.9639 38.3691 28.7856 38.3691C25.6073 38.3691 22.8693 38.8771 22.429 39.5516L22.3964 39.601L22.3639 39.5516C22.3181 39.4866 22.2928 39.41 22.291 39.3311C22.291 38.5258 25.1437 37.8947 28.7856 37.8947C32.4275 37.8947 35.2778 38.5258 35.2778 39.3311C35.2762 39.409 35.2514 39.4849 35.2065 39.5493L35.1747 39.6018ZM28.7864 38.2931C31.9647 38.2931 34.6158 38.7805 35.1701 39.4603C35.1897 39.4207 35.2003 39.3774 35.2011 39.3333C35.2011 38.5957 32.2631 37.973 28.7864 37.973C25.3096 37.973 22.3685 38.5957 22.3685 39.3311C22.3691 39.375 22.3795 39.4184 22.3988 39.458C22.9546 38.7805 25.6042 38.2931 28.7864 38.2931Z" fill="#0C152E"/>
<path d="M36.3158 39.0102V38.2703H35.3228C33.977 37.7525 31.415 37.4027 28.4763 37.4027C25.5375 37.4027 22.9724 37.7525 21.6266 38.2703H20.6189V39.1067C20.6189 39.4109 20.984 39.6915 21.622 39.9379C21.622 39.9379 21.622 39.9379 21.6274 39.9379C22.9755 40.4526 25.5367 40.8024 28.4732 40.8024C31.4096 40.8024 33.9817 40.4526 35.3274 39.9318C35.9623 39.6884 36.3243 39.4056 36.3243 39.1037C36.3253 39.0723 36.3224 39.0409 36.3158 39.0102Z" fill="#F7E36D"/>
<path d="M28.4763 40.8404C25.6515 40.8404 23.0267 40.5097 21.6236 39.9759H21.6135L21.605 39.9683C20.9274 39.7052 20.5833 39.4147 20.5833 39.1037V38.2323H21.6197C23.015 37.7 25.6422 37.3647 28.4763 37.3647C31.3104 37.3647 33.9336 37.6969 35.3305 38.2323H36.3546V39.0064C36.3622 39.0383 36.3661 39.0709 36.3662 39.1037C36.3662 39.417 36.0228 39.7074 35.3445 39.9675C33.9522 40.5059 31.3205 40.8404 28.4763 40.8404ZM21.6499 39.9044C23.0453 40.4367 25.6592 40.7644 28.4763 40.7644C31.3112 40.7644 33.9321 40.4321 35.3158 39.8968C35.9522 39.6527 36.2887 39.379 36.2887 39.1037C36.2884 39.0752 36.2847 39.0469 36.2778 39.0193V38.3083H35.3096C33.9236 37.776 31.305 37.443 28.4771 37.443C25.6491 37.443 23.0282 37.7745 21.6422 38.3083H21.6274H20.6631V39.1029C20.6631 39.3752 20.9988 39.6497 21.6344 39.896H21.6445L21.6499 39.9044Z" fill="#0C152E"/>
<path d="M36.3275 38.3646C36.3275 38.6688 35.9655 38.9493 35.3306 39.1927C33.9849 39.7136 31.4182 40.0633 28.4763 40.0633C25.5345 40.0633 22.9787 39.7136 21.6306 39.1988C21.6306 39.1988 21.6306 39.1988 21.6252 39.1988C20.9872 38.9524 20.6221 38.6665 20.6221 38.3676C20.6221 37.427 24.1391 36.6666 28.4763 36.6666C32.8135 36.6666 36.3275 37.424 36.3275 38.3646Z" fill="#F7E36D"/>
<path d="M28.4763 40.1013C25.6515 40.1013 23.0267 39.7698 21.6236 39.2368H21.6127L21.605 39.2292C20.9274 38.9661 20.5833 38.6756 20.5833 38.3646C20.5833 37.3898 24.0507 36.6255 28.4763 36.6255C32.9019 36.6255 36.3662 37.3898 36.3662 38.3646C36.3662 38.6779 36.0228 38.9683 35.3445 39.2284C33.9522 39.7668 31.3205 40.1013 28.4763 40.1013ZM21.6546 39.1653C23.0499 39.6976 25.6631 40.0253 28.4763 40.0253C31.3112 40.0253 33.9321 39.693 35.3158 39.1577C35.9522 38.9136 36.2887 38.6391 36.2887 38.3646C36.2887 37.4475 32.784 36.7016 28.4763 36.7016C24.1685 36.7016 20.6631 37.4475 20.6631 38.3646C20.6631 38.6368 20.9988 38.9113 21.6344 39.1577H21.6453L21.6546 39.1653Z" fill="#0C152E"/>
<path d="M28.4763 37.3624C31.7321 37.3624 34.4205 37.8833 34.8647 38.5623C34.9053 38.5039 34.9279 38.4353 34.9298 38.3646C34.9298 37.5913 32.0391 36.9662 28.4763 36.9662C24.9135 36.9662 22.0205 37.5913 22.0205 38.3646C22.0221 38.4353 22.0447 38.504 22.0856 38.5623C22.5306 37.8863 25.2221 37.3624 28.4763 37.3624Z" fill="#0C152E"/>
<path d="M34.8646 38.633L34.832 38.5828C34.3902 37.9083 31.6537 37.4004 28.4754 37.4004C25.2972 37.4004 22.5592 37.9083 22.1189 38.5828L22.0863 38.6322L22.0537 38.5828C22.009 38.5184 21.9842 38.4426 21.9824 38.3646C21.9824 37.5593 24.8351 36.9282 28.477 36.9282C32.1189 36.9282 34.9692 37.5593 34.9692 38.3646C34.9676 38.4426 34.9428 38.5184 34.8979 38.5828L34.8646 38.633ZM28.4762 37.3244C31.6545 37.3244 34.3057 37.8118 34.8599 38.4916C34.8795 38.4519 34.8901 38.4086 34.891 38.3646C34.891 37.627 31.953 37.0042 28.4762 37.0042C24.9995 37.0042 22.0584 37.627 22.0584 38.3646C22.059 38.4086 22.0693 38.4519 22.0886 38.4916C22.6444 37.8103 25.2941 37.3244 28.4762 37.3244Z" fill="#0C152E"/>
<path d="M37.0909 38.0384V37.2985H36.0979C34.7522 36.7807 32.1902 36.4309 29.2514 36.4309C26.3126 36.4309 23.7475 36.7807 22.4018 37.2985H21.394V38.1349C21.394 38.4391 21.7592 38.7197 22.3971 38.9661C22.3971 38.9661 22.3971 38.9661 22.4026 38.9661C23.7506 39.4808 26.3119 39.8306 29.2483 39.8306C32.1847 39.8306 34.7568 39.4808 36.1026 38.96C36.7375 38.7166 37.0995 38.4338 37.0995 38.1319C37.1004 38.1005 37.0976 38.0691 37.0909 38.0384Z" fill="#F7E36D"/>
<path d="M29.2514 39.8717C26.4266 39.8717 23.8018 39.5409 22.3987 39.0071H22.3886L22.3801 38.9995C21.7026 38.7364 21.3584 38.4459 21.3584 38.1349V37.2635H22.3948C23.7902 36.7312 26.4173 36.3959 29.2514 36.3959C32.0855 36.3959 34.7088 36.7282 36.1057 37.2635H37.1297V38.0384C37.1374 38.0703 37.1413 38.1029 37.1413 38.1357C37.1413 38.449 36.7979 38.7395 36.1196 38.9995C34.7274 39.5371 32.0956 39.8717 29.2514 39.8717ZM22.4251 38.9356C23.8204 39.4679 26.4344 39.7957 29.2514 39.7957C32.0863 39.7957 34.7072 39.4634 36.091 38.928C36.7274 38.684 37.0638 38.4102 37.0638 38.1349C37.0635 38.1065 37.0599 38.0782 37.053 38.0505V37.3396H36.0848C34.6987 36.8073 32.0801 36.4742 29.2522 36.4742C26.4243 36.4742 23.8034 36.8058 22.4173 37.3396H22.4026H21.4382V38.1349C21.4382 38.4072 21.7739 38.6817 22.4096 38.928H22.4196L22.4251 38.9356Z" fill="#0C152E"/>
<path d="M37.1026 37.3959C37.1026 37.7 36.7406 37.9806 36.1057 38.2239C34.76 38.7448 32.1933 39.0946 29.2515 39.0946C26.3096 39.0946 23.7538 38.7448 22.4057 38.23C22.4057 38.23 22.4057 38.23 22.4003 38.23C21.7623 37.9836 21.3972 37.6977 21.3972 37.3989C21.3972 36.4583 24.9143 35.6979 29.2515 35.6979C33.5887 35.6979 37.1026 36.4552 37.1026 37.3959Z" fill="#F7E36D"/>
<path d="M29.2514 39.1326C26.4266 39.1326 23.8018 38.8011 22.3987 38.268H22.3886L22.3801 38.2604C21.7026 37.9973 21.3584 37.7068 21.3584 37.3958C21.3584 36.421 24.8258 35.6568 29.2514 35.6568C33.677 35.6568 37.1413 36.421 37.1413 37.3958C37.1413 37.7091 36.7979 37.9996 36.1196 38.2597C34.7274 38.7988 32.0956 39.1326 29.2514 39.1326ZM22.4251 38.1965C23.8204 38.7288 26.4344 39.0566 29.2514 39.0566C32.0863 39.0566 34.7072 38.7243 36.091 38.1889C36.7274 37.9448 37.0638 37.6703 37.0638 37.3958C37.0638 36.4788 33.5592 35.7328 29.2514 35.7328C24.9437 35.7328 21.4382 36.4788 21.4382 37.3958C21.4382 37.6681 21.7739 37.9426 22.4096 38.1889H22.4196L22.4251 38.1965Z" fill="#0C152E"/>
<path d="M29.2515 36.3936C32.5073 36.3936 35.1957 36.9145 35.6398 37.5936C35.6804 37.5351 35.703 37.4665 35.705 37.3958C35.705 36.6225 32.8143 35.9975 29.2515 35.9975C25.6887 35.9975 22.7957 36.6225 22.7957 37.3958C22.7972 37.4666 22.8199 37.5353 22.8608 37.5936C23.3057 36.9145 25.9972 36.3936 29.2515 36.3936Z" fill="#0C152E"/>
<path d="M35.6397 37.6643L35.6072 37.6141C35.1653 36.9396 32.4289 36.4317 29.2506 36.4317C26.0723 36.4317 23.3343 36.9396 22.894 37.6141L22.8614 37.6635L22.8289 37.6141C22.7841 37.5496 22.7594 37.4738 22.7576 37.3958C22.7576 36.5906 25.6103 35.9594 29.2521 35.9594C32.894 35.9594 35.7444 36.5906 35.7444 37.3958C35.7427 37.4738 35.718 37.5497 35.6731 37.6141L35.6397 37.6643ZM29.2514 36.3556C32.4297 36.3556 35.0808 36.843 35.6351 37.5228C35.6547 37.4832 35.6653 37.4399 35.6661 37.3958C35.6661 36.6583 32.7281 36.0355 29.2514 36.0355C25.7746 36.0355 22.8335 36.6583 22.8335 37.3958C22.8341 37.4398 22.8445 37.4831 22.8638 37.5228C23.4196 36.843 26.0692 36.3556 29.2514 36.3556Z" fill="#0C152E"/>
<path d="M37.8661 37.0727V36.3328H36.8731C35.5273 35.815 32.9653 35.4652 30.0266 35.4652C27.0878 35.4652 24.5227 35.815 23.1769 36.3328H22.1692V37.1692C22.1692 37.4734 22.5343 37.754 23.1723 38.0004C23.1723 38.0004 23.1723 38.0004 23.1777 38.0004C24.5258 38.5152 27.087 38.8649 30.0234 38.8649C32.9599 38.8649 35.532 38.5151 36.8777 37.9943C37.5126 37.7509 37.8746 37.4681 37.8746 37.1662C37.8756 37.1348 37.8727 37.1034 37.8661 37.0727Z" fill="#F7E36D"/>
<path d="M30.0266 38.9029C27.2018 38.9029 24.577 38.5722 23.1739 38.0384H23.1638L23.1553 38.0308C22.4777 37.7677 22.1335 37.4772 22.1335 37.1662V36.2948H23.17C24.5653 35.7625 27.1925 35.4272 30.0266 35.4272C32.8607 35.4272 35.4839 35.7595 36.8808 36.2948H37.9049V37.0689C37.9125 37.1008 37.9164 37.1334 37.9165 37.1662C37.9165 37.4795 37.5731 37.77 36.8948 38.03C35.5025 38.5707 32.8708 38.9029 30.0266 38.9029ZM23.2002 37.9669C24.5956 38.4992 27.2095 38.8269 30.0266 38.8269C32.8615 38.8269 35.4824 38.4946 36.8661 37.9593C37.5025 37.7152 37.839 37.4415 37.839 37.1662C37.8387 37.1377 37.835 37.1094 37.8281 37.0818V36.3708H36.8599C35.4739 35.8385 32.8553 35.5055 30.0273 35.5055C27.1994 35.5055 24.5777 35.8332 23.1917 36.3655H23.177H22.2134V37.1609C22.2134 37.4331 22.5491 37.7076 23.1847 37.954H23.1948L23.2002 37.9669Z" fill="#0C152E"/>
<path d="M37.8778 36.4271C37.8778 36.7312 37.5158 37.0118 36.8809 37.2552C35.5352 37.776 32.9685 38.1258 30.0266 38.1258C27.0848 38.1258 24.529 37.776 23.1809 37.2612C23.1809 37.2612 23.1809 37.2612 23.1755 37.2612C22.5375 37.0149 22.1724 36.7289 22.1724 36.4301C22.1724 35.4895 25.6894 34.7291 30.0266 34.7291C34.3638 34.7291 37.8778 35.4865 37.8778 36.4271Z" fill="#F7E36D"/>
<path d="M30.0266 38.1638C27.2018 38.1638 24.577 37.8323 23.1739 37.2993H23.1638L23.1553 37.2917C22.4777 37.0286 22.1335 36.7381 22.1335 36.4271C22.1335 35.4523 25.601 34.688 30.0266 34.688C34.4522 34.688 37.9165 35.4485 37.9165 36.4271C37.9165 36.7404 37.5731 37.0308 36.8948 37.2909C35.5025 37.8293 32.8708 38.1638 30.0266 38.1638ZM23.2002 37.2278C24.5956 37.7601 27.2095 38.0878 30.0266 38.0878C32.8615 38.0878 35.4824 37.7555 36.8661 37.2202C37.5025 36.9761 37.839 36.7016 37.839 36.4271C37.839 35.51 34.3343 34.7641 30.0266 34.7641C25.7188 34.7641 22.2134 35.51 22.2134 36.4271C22.2134 36.6993 22.5491 36.9738 23.1847 37.2202H23.1948L23.2002 37.2278Z" fill="#0C152E"/>
<path d="M30.0266 35.4249C33.2824 35.4249 35.9708 35.9458 36.415 36.6248C36.4556 36.5664 36.4782 36.4978 36.4801 36.4271C36.4801 35.6538 33.5894 35.0287 30.0266 35.0287C26.4638 35.0287 23.5708 35.6538 23.5708 36.4271C23.5724 36.4978 23.595 36.5665 23.6359 36.6248C24.0809 35.9458 26.7724 35.4249 30.0266 35.4249Z" fill="#0C152E"/>
<path d="M36.4151 36.6955L36.3826 36.6453C35.9407 35.9709 33.2043 35.4629 30.026 35.4629C26.8477 35.4629 24.1097 35.9709 23.6694 36.6453L23.6368 36.6948L23.6043 36.6453C23.5594 36.5809 23.5346 36.5051 23.533 36.4271C23.533 35.6218 26.3857 34.9907 30.0275 34.9907C33.6694 34.9907 36.5198 35.6218 36.5198 36.4271C36.5181 36.5051 36.4933 36.5809 36.4485 36.6453L36.4151 36.6955ZM30.0268 35.3869C33.2051 35.3869 35.8562 35.8743 36.4105 36.5541C36.4301 36.5144 36.4406 36.4711 36.4415 36.4271C36.4415 35.6895 33.5035 35.0667 30.0268 35.0667C26.55 35.0667 23.6089 35.6895 23.6089 36.4271C23.6095 36.4711 23.6198 36.5144 23.6392 36.5541C24.195 35.8743 26.8446 35.3869 30.0268 35.3869Z" fill="#0C152E"/>
<path d="M37.0909 36.1039V35.3648H36.0979C34.7522 34.8462 32.1902 34.4964 29.2514 34.4964C26.3126 34.4964 23.7475 34.8462 22.4018 35.3648H21.394V36.1974C21.394 36.5016 21.7592 36.7822 22.3971 37.0286C22.3971 37.0286 22.3971 37.0286 22.4026 37.0286C23.7506 37.5434 26.3119 37.8931 29.2483 37.8931C32.1847 37.8931 34.7568 37.5434 36.1026 37.0225C36.7375 36.7792 37.0995 36.4963 37.0995 36.1944C37.1002 36.164 37.0973 36.1337 37.0909 36.1039Z" fill="#F7E36D"/>
<path d="M29.2514 37.9342C26.4266 37.9342 23.8018 37.6034 22.3987 37.0696H22.3886L22.3801 37.062C21.7026 36.7989 21.3584 36.5084 21.3584 36.1974V35.326H22.3948C23.7902 34.7937 26.4173 34.4584 29.2514 34.4584C32.0855 34.4584 34.7088 34.7907 36.1057 35.326H37.1297V36.1001C37.1373 36.132 37.1412 36.1647 37.1413 36.1974C37.1413 36.5107 36.7979 36.8012 36.1196 37.0613C34.7274 37.5996 32.0956 37.9342 29.2514 37.9342ZM22.4251 36.9989C23.8204 37.5312 26.4344 37.8582 29.2514 37.8582C32.0863 37.8582 34.7072 37.5259 36.091 36.9905C36.7274 36.7465 37.0638 36.4727 37.0638 36.1974C37.0635 36.169 37.0599 36.1407 37.053 36.113V35.4021H36.0848C34.6987 34.8698 32.0801 34.5367 29.2522 34.5367C26.4243 34.5367 23.8034 34.8683 22.4173 35.4021H22.4026H21.4382V36.1974C21.4382 36.4704 21.7739 36.7442 22.4096 36.9905H22.4196L22.4251 36.9989Z" fill="#0C152E"/>
<path d="M37.1026 35.4583C37.1026 35.7625 36.7406 36.0431 36.1057 36.2864C34.76 36.8073 32.1933 37.1571 29.2515 37.1571C26.3096 37.1571 23.7538 36.8073 22.4057 36.2925C22.4057 36.2925 22.4057 36.2925 22.4003 36.2925C21.7623 36.0461 21.3972 35.7602 21.3972 35.4614C21.3972 34.5215 24.9143 33.7603 29.2515 33.7603C33.5887 33.7603 37.1026 34.5185 37.1026 35.4583Z" fill="#F7E36D"/>
<path d="M29.2514 37.1951C26.4266 37.1951 23.8018 36.8636 22.3987 36.3305H22.3886L22.3801 36.3229C21.7026 36.0598 21.3584 35.7693 21.3584 35.4583C21.3584 34.4835 24.8258 33.7193 29.2514 33.7193C33.677 33.7193 37.1413 34.4797 37.1413 35.4583C37.1413 35.7716 36.7979 36.0621 36.1196 36.3222C34.7274 36.8605 32.0956 37.1951 29.2514 37.1951ZM22.4251 36.259C23.8204 36.7913 26.4344 37.119 29.2514 37.119C32.0863 37.119 34.7072 36.7868 36.091 36.2514C36.7274 36.0073 37.0638 35.7336 37.0638 35.4583C37.0638 34.5413 33.5592 33.7953 29.2514 33.7953C24.9437 33.7953 21.4382 34.5405 21.4382 35.4583C21.4382 35.7306 21.7739 36.0051 22.4096 36.2514H22.4196L22.4251 36.259Z" fill="#0C152E"/>
<path d="M29.2515 34.4561C32.5073 34.4561 35.1957 34.977 35.6398 35.656C35.6804 35.5976 35.703 35.529 35.705 35.4583C35.705 34.685 32.8143 34.06 29.2515 34.06C25.6887 34.06 22.7957 34.685 22.7957 35.4583C22.7972 35.5291 22.8199 35.5978 22.8608 35.656C23.3057 34.977 25.9972 34.4561 29.2515 34.4561Z" fill="#0C152E"/>
<path d="M35.6397 35.7268L35.6072 35.6766C35.1653 35.0021 32.4289 34.4942 29.2506 34.4942C26.0723 34.4942 23.3343 35.0021 22.894 35.6766L22.8614 35.726L22.8289 35.6766C22.784 35.6122 22.7592 35.5363 22.7576 35.4583C22.7576 34.6531 25.6103 34.0219 29.2521 34.0219C32.894 34.0219 35.7444 34.6531 35.7444 35.4583C35.7427 35.5363 35.718 35.6122 35.6731 35.6766L35.6397 35.7268ZM29.2514 34.4181C32.4297 34.4181 35.0808 34.9055 35.6351 35.5853C35.6547 35.5457 35.6653 35.5024 35.6661 35.4583C35.6661 34.7208 32.7281 34.098 29.2514 34.098C25.7746 34.098 22.8335 34.7208 22.8335 35.4583C22.8341 35.5023 22.8445 35.5456 22.8638 35.5853C23.4196 34.9055 26.0692 34.4181 29.2514 34.4181Z" fill="#0C152E"/>
</g>
</g>
<defs>
<clipPath id="clip0_631_10109">
<rect width="52" height="62" fill="white"/>
</clipPath>
<clipPath id="clip1_631_10109">
<rect width="17.3333" height="11.9649" fill="white" transform="translate(20.5833 33.7193)"/>
</clipPath>
</defs>
</svg>
