<svg width="16" height="16" viewBox="0 0 16 16" fill="none" xmlns="http://www.w3.org/2000/svg">
<path d="M12.7998 1.60002L14.6383 3.14269L13.1986 5.06291" stroke="currentColor" stroke-width="1.3" stroke-linecap="round" stroke-linejoin="round"/>
<path d="M14.4391 2.55218C14.7974 2.57382 15.0704 2.88184 15.0487 3.24018C15.0271 3.59851 14.7191 3.87145 14.3607 3.84982L14.4391 2.55218ZM1.56073 13.4478C1.2024 13.4262 0.929449 13.1182 0.951085 12.7598C0.972721 12.4015 1.28075 12.1286 1.63908 12.1502L1.56073 13.4478ZM14.3999 3.201C14.3607 3.84982 14.3612 3.84985 14.3617 3.84988C14.3619 3.84989 14.3623 3.84991 14.3626 3.84993C14.3632 3.84997 14.3638 3.85 14.3643 3.85002C14.3653 3.85008 14.3661 3.85012 14.3667 3.85015C14.3679 3.8502 14.3684 3.85022 14.3682 3.85021C14.3677 3.8502 14.3643 3.85009 14.3581 3.85004C14.3457 3.84994 14.322 3.85008 14.2877 3.85173C14.2191 3.85501 14.1084 3.86428 13.9613 3.88953C13.6676 3.93994 13.2267 4.05443 12.6851 4.31456C11.607 4.83243 10.0944 5.9449 8.54661 8.3516L7.4532 7.64843C9.11555 5.06352 10.8029 3.77647 12.1223 3.14274C12.7794 2.82708 13.3366 2.67774 13.7414 2.60827C13.9435 2.57358 14.107 2.5589 14.2254 2.55322C14.2847 2.55038 14.3326 2.54979 14.3685 2.55008C14.3864 2.55022 14.4013 2.55058 14.4131 2.55099C14.419 2.55119 14.4241 2.55141 14.4285 2.55161C14.4306 2.55172 14.4326 2.55182 14.4344 2.55191C14.4353 2.55196 14.4361 2.55201 14.4369 2.55205C14.4373 2.55208 14.4378 2.55211 14.438 2.55212C14.4386 2.55215 14.4391 2.55218 14.3999 3.201ZM8.54661 8.3516C6.88426 10.9365 5.1969 12.2236 3.87755 12.8573C3.22039 13.173 2.66317 13.3223 2.25844 13.3918C2.05634 13.4264 1.89281 13.4411 1.77437 13.4468C1.71515 13.4496 1.66721 13.4502 1.63134 13.4499C1.61341 13.4498 1.59849 13.4494 1.58669 13.449C1.58079 13.4488 1.57567 13.4486 1.57133 13.4484C1.56917 13.4483 1.5672 13.4482 1.56543 13.4481C1.56455 13.4481 1.56371 13.448 1.56293 13.448C1.56254 13.448 1.56199 13.4479 1.56179 13.4479C1.56125 13.4479 1.56073 13.4478 1.5999 12.799C1.63908 12.1502 1.63858 12.1502 1.63809 12.1501C1.63794 12.1501 1.63746 12.1501 1.63717 12.1501C1.63658 12.1501 1.63603 12.15 1.63554 12.15C1.63455 12.15 1.63374 12.1499 1.63312 12.1499C1.63188 12.1498 1.63138 12.1498 1.63161 12.1498C1.63208 12.1498 1.63547 12.1499 1.64168 12.15C1.65411 12.1501 1.67783 12.1499 1.71211 12.1483C1.78066 12.145 1.89142 12.1357 2.03853 12.1105C2.33222 12.0601 2.77311 11.9456 3.31468 11.6855C4.39281 11.1676 5.90545 10.0551 7.4532 7.64843L8.54661 8.3516Z" fill="currentColor"/>
<path d="M12.7998 14.4L14.6383 12.8573L13.1986 10.9371" stroke="currentColor" stroke-width="1.3" stroke-linecap="round" stroke-linejoin="round"/>
<path d="M14.4391 13.4478C14.7974 13.4262 15.0704 13.1182 15.0487 12.7599C15.0271 12.4015 14.7191 12.1286 14.3607 12.1502L14.4391 13.4478ZM1.56073 2.55217C1.2024 2.57381 0.929449 2.88184 0.951085 3.24017C0.972721 3.5985 1.28075 3.87145 1.63908 3.84981L1.56073 2.55217ZM6.43487 6.93606C6.66079 7.21505 7.07009 7.25807 7.34908 7.03216C7.62806 6.80624 7.67108 6.39694 7.44517 6.11795L6.43487 6.93606ZM9.76535 9.30574C9.53305 9.03205 9.12286 8.99849 8.84917 9.23079C8.57547 9.46308 8.54192 9.87327 8.77421 10.147L9.76535 9.30574ZM7.44517 6.11795C5.97139 4.29795 4.54798 3.39716 3.45697 2.95685C2.91362 2.73755 2.459 2.63503 2.13008 2.58806C1.96578 2.5646 1.83314 2.55504 1.73674 2.55164C1.68855 2.54994 1.64941 2.54978 1.61989 2.55019C1.60513 2.5504 1.59277 2.55075 1.58289 2.55112C1.57795 2.5513 1.57362 2.55149 1.56993 2.55167C1.56808 2.55177 1.56639 2.55185 1.56485 2.55194C1.56409 2.55198 1.56336 2.55202 1.56267 2.55206C1.56233 2.55208 1.56184 2.55211 1.56167 2.55212C1.56119 2.55215 1.56073 2.55217 1.5999 3.20099C1.63908 3.84981 1.63863 3.84984 1.63819 3.84986C1.63806 3.84987 1.63763 3.8499 1.63736 3.84991C1.63683 3.84994 1.63633 3.84997 1.63587 3.85C1.63495 3.85005 1.63418 3.85009 1.63356 3.85012C1.63231 3.85018 1.63165 3.8502 1.63157 3.85021C1.63141 3.85021 1.63356 3.85013 1.63797 3.85007C1.64679 3.84995 1.66462 3.84991 1.69092 3.85084C1.74353 3.85269 1.83004 3.85841 1.94632 3.87501C2.17857 3.90817 2.53085 3.98496 2.97044 4.16237C3.84533 4.51547 5.09197 5.27768 6.43487 6.93606L7.44517 6.11795ZM14.3999 12.799C14.3607 12.1502 14.3612 12.1502 14.3616 12.1502C14.3617 12.1502 14.3621 12.1501 14.3624 12.1501C14.3629 12.1501 14.3634 12.1501 14.3639 12.15C14.3648 12.15 14.3655 12.1499 14.3662 12.1499C14.3674 12.1498 14.3681 12.1498 14.3682 12.1498C14.3685 12.1498 14.3666 12.1499 14.3625 12.1499C14.3543 12.1501 14.3376 12.1501 14.3128 12.1493C14.2631 12.1477 14.1811 12.1426 14.0707 12.1274C13.85 12.0972 13.5145 12.0268 13.0945 11.8635C12.2586 11.5384 11.0641 10.836 9.76535 9.30574L8.77421 10.147C10.2063 11.8343 11.5769 12.6682 12.6234 13.0751C13.1445 13.2777 13.5795 13.3722 13.894 13.4154C14.0512 13.4369 14.178 13.4456 14.2702 13.4486C14.3163 13.4501 14.3538 13.4502 14.3821 13.4498C14.3963 13.4496 14.4081 13.4492 14.4177 13.4489C14.4224 13.4487 14.4266 13.4485 14.4302 13.4483C14.4319 13.4482 14.4336 13.4482 14.4351 13.4481C14.4358 13.448 14.4365 13.448 14.4372 13.448C14.4375 13.4479 14.438 13.4479 14.4382 13.4479C14.4386 13.4479 14.4391 13.4478 14.3999 12.799Z" fill="currentColor"/>
</svg>
