<svg width="18" height="16" viewBox="0 0 18 16" fill="none" xmlns="http://www.w3.org/2000/svg">
<mask id="path-1-inside-1" fill="white">
<path fill-rule="evenodd" clip-rule="evenodd" d="M0 3C0 1.34315 1.34315 0 3 0H15C16.6569 0 18 1.34315 18 3V13C18 14.6569 16.6569 16 15 16H3C1.34315 16 0 14.6569 0 13V3ZM8 1.29925C8.35898 1.29925 8.65 1.59026 8.65 1.94925V14.0508C8.65 14.4098 8.35898 14.7008 8 14.7008C7.64102 14.7008 7.35 14.4098 7.35 14.0508V1.94925C7.35 1.59026 7.64102 1.29925 8 1.29925ZM3 3.35C2.64102 3.35 2.35 3.64102 2.35 4C2.35 4.35898 2.64102 4.65 3 4.65H5C5.35898 4.65 5.65 4.35898 5.65 4C5.65 3.64102 5.35898 3.35 5 3.35H3ZM2.35 7C2.35 6.64102 2.64102 6.35 3 6.35H5C5.35898 6.35 5.65 6.64102 5.65 7C5.65 7.35898 5.35898 7.65 5 7.65H3C2.64102 7.65 2.35 7.35898 2.35 7ZM3 9.35C2.64102 9.35 2.35 9.64102 2.35 10C2.35 10.359 2.64102 10.65 3 10.65H5C5.35898 10.65 5.65 10.359 5.65 10C5.65 9.64102 5.35898 9.35 5 9.35H3Z"/>
</mask>
<path fill-rule="evenodd" clip-rule="evenodd" d="M0 3C0 1.34315 1.34315 0 3 0H15C16.6569 0 18 1.34315 18 3V13C18 14.6569 16.6569 16 15 16H3C1.34315 16 0 14.6569 0 13V3ZM8 1.29925C8.35898 1.29925 8.65 1.59026 8.65 1.94925V14.0508C8.65 14.4098 8.35898 14.7008 8 14.7008C7.64102 14.7008 7.35 14.4098 7.35 14.0508V1.94925C7.35 1.59026 7.64102 1.29925 8 1.29925ZM3 3.35C2.64102 3.35 2.35 3.64102 2.35 4C2.35 4.35898 2.64102 4.65 3 4.65H5C5.35898 4.65 5.65 4.35898 5.65 4C5.65 3.64102 5.35898 3.35 5 3.35H3ZM2.35 7C2.35 6.64102 2.64102 6.35 3 6.35H5C5.35898 6.35 5.65 6.64102 5.65 7C5.65 7.35898 5.35898 7.65 5 7.65H3C2.64102 7.65 2.35 7.35898 2.35 7ZM3 9.35C2.64102 9.35 2.35 9.64102 2.35 10C2.35 10.359 2.64102 10.65 3 10.65H5C5.35898 10.65 5.65 10.359 5.65 10C5.65 9.64102 5.35898 9.35 5 9.35H3Z" fill="white"/>
<path d="M3 -1.3C0.625176 -1.3 -1.3 0.625176 -1.3 3H1.3C1.3 2.06112 2.06112 1.3 3 1.3V-1.3ZM15 -1.3H3V1.3H15V-1.3ZM19.3 3C19.3 0.625176 17.3748 -1.3 15 -1.3V1.3C15.9389 1.3 16.7 2.06112 16.7 3H19.3ZM19.3 13V3H16.7V13H19.3ZM15 17.3C17.3748 17.3 19.3 15.3748 19.3 13H16.7C16.7 13.9389 15.9389 14.7 15 14.7V17.3ZM3 17.3H15V14.7H3V17.3ZM-1.3 13C-1.3 15.3748 0.625176 17.3 3 17.3V14.7C2.06112 14.7 1.3 13.9389 1.3 13H-1.3ZM-1.3 3V13H1.3V3H-1.3ZM9.95 1.94925C9.95 0.872292 9.07696 -0.000753641 8 -0.000753641V2.59925C7.64101 2.59925 7.35 2.30823 7.35 1.94925H9.95ZM9.95 14.0508V1.94925H7.35V14.0508H9.95ZM8 16.0008C9.07695 16.0008 9.95 15.1278 9.95 14.0508H7.35C7.35 13.6918 7.64101 13.4008 8 13.4008V16.0008ZM6.05 14.0508C6.05 15.1278 6.92305 16.0008 8 16.0008V13.4008C8.35898 13.4008 8.65 13.6918 8.65 14.0508H6.05ZM6.05 1.94925V14.0508H8.65V1.94925H6.05ZM8 -0.000753641C6.92305 -0.000753641 6.05 0.872291 6.05 1.94925H8.65C8.65 2.30823 8.35898 2.59925 8 2.59925V-0.000753641ZM3.65 4C3.65 4.35899 3.35899 4.65 3 4.65V2.05C1.92304 2.05 1.05 2.92304 1.05 4H3.65ZM3 3.35C3.35899 3.35 3.65 3.64101 3.65 4H1.05C1.05 5.07696 1.92304 5.95 3 5.95V3.35ZM5 3.35H3V5.95H5V3.35ZM4.35 4C4.35 3.64101 4.64101 3.35 5 3.35V5.95C6.07696 5.95 6.95 5.07696 6.95 4H4.35ZM5 4.65C4.64101 4.65 4.35 4.35899 4.35 4H6.95C6.95 2.92304 6.07696 2.05 5 2.05V4.65ZM3 4.65H5V2.05H3V4.65ZM3 5.05C1.92304 5.05 1.05 5.92304 1.05 7H3.65C3.65 7.35899 3.35899 7.65 3 7.65V5.05ZM5 5.05H3V7.65H5V5.05ZM6.95 7C6.95 5.92304 6.07696 5.05 5 5.05V7.65C4.64101 7.65 4.35 7.35899 4.35 7H6.95ZM5 8.95C6.07696 8.95 6.95 8.07695 6.95 7H4.35C4.35 6.64101 4.64101 6.35 5 6.35V8.95ZM3 8.95H5V6.35H3V8.95ZM1.05 7C1.05 8.07695 1.92304 8.95 3 8.95V6.35C3.35899 6.35 3.65 6.64101 3.65 7H1.05ZM3.65 10C3.65 10.359 3.35898 10.65 3 10.65V8.05C1.92305 8.05 1.05 8.92304 1.05 10H3.65ZM3 9.35C3.35898 9.35 3.65 9.64101 3.65 10H1.05C1.05 11.077 1.92305 11.95 3 11.95V9.35ZM5 9.35H3V11.95H5V9.35ZM4.35 10C4.35 9.64101 4.64102 9.35 5 9.35V11.95C6.07695 11.95 6.95 11.077 6.95 10H4.35ZM5 10.65C4.64102 10.65 4.35 10.359 4.35 10H6.95C6.95 8.92304 6.07695 8.05 5 8.05V10.65ZM3 10.65H5V8.05H3V10.65Z" fill="white" mask="url(#path-1-inside-1)"/>
</svg>
