<svg width="78" height="49" viewBox="0 0 78 49" fill="none" xmlns="http://www.w3.org/2000/svg">
<path d="M19.0354 14.1461C19.9825 11.0262 23.1983 9.60866 26.5286 10.6269C33.8888 12.8802 37.4264 19.4913 37.1695 19.6554C36.2689 20.2372 30.1561 23.6326 23.3035 21.2369C20.0103 20.0887 18.1718 16.9874 19.0354 14.1461Z" fill="#2BD67B"/>
<path d="M47.111 48.8329C47.0872 48.8324 47.0641 48.8248 47.0448 48.811C47.0255 48.7972 47.0108 48.7778 47.0026 48.7555L36.1358 18.7764L28.2247 15.4677C28.2106 15.4619 28.1977 15.4534 28.1869 15.4426C28.1761 15.4319 28.1676 15.419 28.1618 15.4049C28.1561 15.3908 28.1532 15.3756 28.1533 15.3604C28.1535 15.3451 28.1567 15.33 28.1628 15.316C28.1685 15.3019 28.177 15.2891 28.1878 15.2783C28.1986 15.2675 28.2114 15.2589 28.2256 15.2532C28.2397 15.2474 28.2549 15.2445 28.2701 15.2447C28.2854 15.2448 28.3004 15.2481 28.3144 15.2541L36.272 18.5814C36.2869 18.5876 36.3004 18.5969 36.3116 18.6086C36.3227 18.6203 36.3314 18.6342 36.3369 18.6495L47.2193 48.6719C47.2247 48.6861 47.2273 48.7013 47.2268 48.7165C47.2263 48.7317 47.2228 48.7467 47.2164 48.7605C47.2101 48.7743 47.201 48.7867 47.1898 48.797C47.1786 48.8073 47.1655 48.8153 47.1512 48.8205C47.1389 48.8275 47.1252 48.8318 47.111 48.8329Z" fill="#254898"/>
<path d="M22.8145 23.029L5.875 23.0785L22.0376 27.455H51.3853L35.2258 23.0785L18.7011 23.029" fill="white"/>
<path d="M51.3849 27.5757H22.0341H22.0062L5.8436 23.2024C5.81632 23.1944 5.79285 23.1769 5.77748 23.153C5.76212 23.1291 5.75591 23.1005 5.76003 23.0724C5.7638 23.0448 5.77752 23.0195 5.7986 23.0012C5.81969 22.983 5.84667 22.9731 5.87455 22.9733L18.648 22.9362C18.6642 22.9315 18.6814 22.9315 18.6976 22.9362H20.731H22.811C22.8273 22.933 22.8441 22.933 22.8605 22.9362L35.2223 22.9733H35.2501L51.4127 27.3498C51.4394 27.3576 51.4625 27.3747 51.4778 27.3979C51.4931 27.4212 51.4996 27.4491 51.4963 27.4767C51.492 27.5035 51.4786 27.5281 51.4583 27.5461C51.438 27.5642 51.4121 27.5746 51.3849 27.5757ZM22.0495 27.3436H50.5244L35.2223 23.1993L20.7434 23.1559L6.75048 23.1962L22.0495 27.3436Z" fill="#231F20"/>
<path d="M64.6786 41.9865C65.6071 41.2468 65.6536 39.9654 64.8581 38.975C63.1032 36.7836 60.4569 36.5268 60.364 36.5887C60.2712 36.6506 59.9524 39.3031 61.698 41.4975C62.4903 42.491 63.8305 42.6643 64.6786 41.9865Z" fill="#2BD67B"/>
<path d="M46.8666 0.440995C43.3877 1.88022 42.1187 5.73671 43.6663 9.45083C47.0709 17.6559 54.9046 20.7665 55.2419 20.6644C55.5793 20.5622 58.8849 12.7688 55.4988 4.54819C53.9668 0.827883 50.0329 -0.874422 46.8666 0.440995Z" fill="#2BD67B"/>
<path d="M47.111 48.8329C47.0978 48.8357 47.084 48.8357 47.0708 48.8329C47.0565 48.8277 47.0433 48.8197 47.0321 48.8094C47.0209 48.7991 47.0119 48.7867 47.0056 48.7729C46.9992 48.759 46.9957 48.7441 46.9952 48.7289C46.9947 48.7137 46.9972 48.6985 47.0027 48.6843L56.288 24.394L50.2866 6.13289C50.2817 6.11847 50.2799 6.10323 50.281 6.08806C50.2821 6.0729 50.2863 6.05812 50.2932 6.04458C50.3001 6.03104 50.3097 6.01901 50.3213 6.0092C50.3329 5.99939 50.3464 5.99198 50.3609 5.98742C50.3753 5.98261 50.3905 5.98072 50.4057 5.98186C50.4208 5.983 50.4356 5.98715 50.4492 5.99406C50.4627 6.00098 50.4747 6.01052 50.4845 6.02214C50.4943 6.03375 50.5018 6.0472 50.5063 6.0617L56.5325 24.3506C56.5417 24.3756 56.5417 24.4031 56.5325 24.428L47.2255 48.7586C47.2165 48.7813 47.2006 48.8007 47.1801 48.814C47.1596 48.8274 47.1355 48.8339 47.111 48.8329Z" fill="#231F20"/>
<path d="M74.3011 8.67089C70.9491 6.19481 66.5634 7.19452 63.9201 10.7848C58.0859 18.7207 59.6056 27.9224 59.8965 28.1824C60.1875 28.4424 69.4728 27.127 75.338 19.2066C77.9936 15.6318 77.3622 10.9272 74.3011 8.67089Z" fill="#2BD67B"/>
<path d="M47.1107 48.8329C47.0886 48.833 47.0671 48.8265 47.0487 48.8143C47.0226 48.7978 47.0041 48.7716 46.9972 48.7415C46.9902 48.7113 46.9954 48.6797 47.0116 48.6534L65.6658 18.5783C65.6734 18.5652 65.6836 18.5537 65.6958 18.5447C65.7079 18.5356 65.7219 18.5291 65.7367 18.5257C65.7515 18.5222 65.7668 18.5218 65.7817 18.5244C65.7967 18.5271 65.8109 18.5328 65.8236 18.5412C65.8496 18.5578 65.8683 18.5837 65.8757 18.6136C65.8832 18.6436 65.879 18.6752 65.8638 18.7021L47.2097 48.7772C47.1992 48.7941 47.1846 48.8081 47.1673 48.8178C47.15 48.8275 47.1305 48.8327 47.1107 48.8329Z" fill="#231F20"/>
<path d="M50.512 43.9797C50.4823 43.9797 50.4536 43.9687 50.4315 43.9488C50.4102 43.9268 50.3982 43.8974 50.3982 43.8668C50.3982 43.8361 50.4102 43.8067 50.4315 43.7847L58.6366 34.9204C58.6471 34.9086 58.66 34.8992 58.6744 34.8928C58.6888 34.8864 58.7044 34.8832 58.7202 34.8832C58.7364 34.8827 58.7526 34.8858 58.7676 34.8922C58.7826 34.8986 58.796 34.9082 58.8068 34.9204L62.4745 38.91C62.488 38.9204 62.499 38.9337 62.5068 38.9488C62.5146 38.964 62.5191 38.9807 62.5198 38.9977C62.5206 39.0147 62.5176 39.0317 62.5111 39.0475C62.5046 39.0633 62.4948 39.0774 62.4823 39.089C62.4698 39.1006 62.4549 39.1094 62.4387 39.1146C62.4225 39.1199 62.4053 39.1216 62.3884 39.1196C62.3714 39.1176 62.3552 39.1119 62.3407 39.1029C62.3261 39.094 62.3137 39.082 62.3043 39.0678L58.7202 35.1711L50.6017 43.9426C50.5905 43.9552 50.5767 43.965 50.5611 43.9715C50.5456 43.9779 50.5288 43.9807 50.512 43.9797Z" fill="#231F20"/>
<path d="M5.875 23.0755L7.0697 18.7238C7.53337 17.0134 8.5371 15.4986 9.93139 14.405C11.3257 13.3113 13.0359 12.6972 14.8075 12.6543L44.44 12.6976L49.0609 22.0355L35.2197 23.0755H5.875Z" fill="#4070F4"/>
<path d="M5.8748 23.193H5.72314L6.96118 18.6928C7.4376 16.9609 8.45796 15.4281 9.87176 14.3202C11.2856 13.2124 13.0179 12.5882 14.8134 12.5397L44.5264 12.583L44.5574 12.648L49.2557 22.1376L35.2411 23.193H5.8748ZM6.02646 22.9609H35.2256L48.8874 21.9333L44.3747 12.8152L14.8134 12.7719C13.0682 12.8199 11.3845 13.4273 10.0104 14.5044C8.63632 15.5815 7.64447 17.0714 7.18096 18.7547L6.02646 22.9609Z" fill="#254898"/>
<path d="M34.9409 27.4086H5.07935V48.8886H34.9409V27.4086Z" fill="#4070F4"/>
<path d="M35.0556 49H4.96191V27.291H35.0556V49ZM5.19405 48.7679H34.8234V27.5231H5.19405V48.7679Z" fill="#231F20"/>
<path d="M51.2863 27.4086H34.8513V48.8886H51.2863V27.4086Z" fill="#254898"/>
<path d="M51.4005 49H34.7334V27.291H51.4005V49ZM34.9655 48.7679H51.1684V27.5231H34.9655V48.7679Z" fill="#254898"/>
<path d="M49.0672 27.4519V46.3475H37.2439V27.4086" fill="#254898"/>
<path d="M49.1845 46.4651H37.1292V27.4086H37.3613V46.233H48.9524V27.4519H49.1845V46.4651Z" fill="#0C152E"/>
<path d="M49.0666 27.4086H48.4136V46.3073H49.0666V27.4086Z" fill="#0C152E"/>
<path d="M49.1847 46.4218H48.2964V27.291H49.1847V46.4218ZM48.5285 46.1896H48.9525V27.5231H48.5285V46.1896Z" fill="#254898"/>
<path d="M24.5659 49H16.9458C16.9154 49 16.8863 48.9879 16.8648 48.9665C16.8434 48.945 16.8313 48.9159 16.8313 48.8855V27.4519C16.8358 27.4244 16.85 27.3994 16.8712 27.3813C16.8925 27.3632 16.9195 27.3533 16.9474 27.3533C16.9753 27.3533 17.0023 27.3632 17.0235 27.3813C17.0448 27.3994 17.0589 27.4244 17.0634 27.4519V48.7679H24.4483V27.4519C24.4528 27.4244 24.467 27.3994 24.4883 27.3813C24.5095 27.3632 24.5365 27.3533 24.5644 27.3533C24.5923 27.3533 24.6193 27.3632 24.6406 27.3813C24.6618 27.3994 24.676 27.4244 24.6805 27.4519V48.8855C24.6805 48.9159 24.6684 48.945 24.647 48.9665C24.6255 48.9879 24.5963 49 24.5659 49Z" fill="#231F20"/>
<path d="M22.7863 28.399H18.6729V32.5124H22.7863V28.399Z" fill="#254898"/>
<path d="M22.7957 32.627H18.6792C18.6491 32.6262 18.6204 32.6139 18.5991 32.5925C18.5778 32.5712 18.5655 32.5426 18.5647 32.5124V28.396C18.5655 28.3658 18.5778 28.3372 18.5991 28.3158C18.6204 28.2945 18.6491 28.2822 18.6792 28.2814H22.7957C22.8258 28.2822 22.8545 28.2945 22.8758 28.3158C22.8971 28.3372 22.9094 28.3658 22.9102 28.396V32.5279C22.9059 32.5553 22.892 32.5802 22.871 32.5983C22.8501 32.6164 22.8234 32.6266 22.7957 32.627ZM18.7968 32.3948H22.6781V28.5043H18.7968V32.3948Z" fill="#254898"/>
<path d="M21.9417 29.2719H19.574V31.6396H21.9417V29.2719Z" fill="#0C152E"/>
<path d="M22.0559 31.7541H19.4561V29.1542H22.0559V31.7541ZM19.6882 31.522H21.8238V29.3864H19.7006L19.6882 31.522Z" fill="#254898"/>
<path d="M16.946 23.1931H16.9151C16.8858 23.1844 16.8611 23.1647 16.846 23.1381C16.831 23.1116 16.8269 23.0802 16.8346 23.0507L18.0293 18.6371C18.4567 17.0484 19.3455 15.622 20.5834 14.5384C21.8213 13.4547 23.3527 12.7624 24.984 12.549C24.9993 12.5468 25.0149 12.5478 25.0298 12.5518C25.0447 12.5558 25.0586 12.5628 25.0708 12.5724C25.0829 12.5819 25.093 12.5938 25.1004 12.6073C25.1078 12.6209 25.1125 12.6358 25.114 12.6511C25.1175 12.6814 25.1092 12.7119 25.0907 12.7362C25.0723 12.7604 25.0451 12.7765 25.015 12.7811C23.4295 12.9878 21.9409 13.66 20.7377 14.7129C19.5344 15.7657 18.6705 17.1519 18.2552 18.6959L17.0574 23.1095C17.0511 23.134 17.0367 23.1556 17.0164 23.1708C16.9961 23.186 16.9713 23.1939 16.946 23.1931Z" fill="#231F20"/>
<path d="M24.2377 23.1931H24.2068C24.1921 23.1891 24.1783 23.1823 24.1662 23.173C24.1542 23.1637 24.1441 23.152 24.1366 23.1388C24.1291 23.1255 24.1244 23.1109 24.1226 23.0958C24.1208 23.0807 24.1221 23.0653 24.1263 23.0507L25.321 18.6371C25.7492 17.0383 26.6453 15.6039 27.8944 14.5181C29.1435 13.4322 30.6886 12.7444 32.3314 12.5428C32.3618 12.5391 32.3924 12.5477 32.4165 12.5665C32.4406 12.5854 32.4561 12.6131 32.4598 12.6434C32.4635 12.6738 32.455 12.7044 32.4362 12.7285C32.4173 12.7526 32.3896 12.7682 32.3593 12.7719C30.7637 12.97 29.2635 13.6394 28.0506 14.6947C26.8376 15.75 25.967 17.1431 25.55 18.6959L24.343 23.1064C24.3366 23.13 24.323 23.151 24.3042 23.1665C24.2853 23.1821 24.2621 23.1913 24.2377 23.1931Z" fill="#231F20"/>
<path d="M22.0715 27.4364H22.0405C22.0258 27.4325 22.012 27.4257 22 27.4164C21.9879 27.4071 21.9779 27.3954 21.9704 27.3822C21.9629 27.3689 21.9581 27.3543 21.9563 27.3392C21.9546 27.324 21.9558 27.3087 21.9601 27.2941L23.0959 23.094C23.1 23.0794 23.1069 23.0657 23.1163 23.0537C23.1256 23.0418 23.1372 23.0318 23.1504 23.0243C23.1637 23.0168 23.1783 23.012 23.1933 23.0102C23.2084 23.0084 23.2237 23.0095 23.2383 23.0136C23.253 23.0176 23.2666 23.0245 23.2786 23.0339C23.2906 23.0432 23.3006 23.0549 23.308 23.0681C23.3155 23.0813 23.3203 23.0959 23.3221 23.1109C23.324 23.126 23.3228 23.1413 23.3188 23.1559L22.1767 27.3498C22.1708 27.3736 22.1573 27.3949 22.1384 27.4105C22.1194 27.4261 22.096 27.4352 22.0715 27.4364Z" fill="#231F20"/>
<path d="M44.2075 12.7718H14.9495C14.9342 12.7719 14.9191 12.7688 14.905 12.7628C14.8909 12.7569 14.8781 12.7482 14.8674 12.7372C14.8567 12.7262 14.8484 12.7133 14.8428 12.699C14.8373 12.6848 14.8346 12.6695 14.835 12.6542C14.8346 12.6391 14.8372 12.624 14.8428 12.6099C14.8484 12.5958 14.8569 12.583 14.8676 12.5723C14.8783 12.5616 14.8911 12.5532 14.9052 12.5476C14.9193 12.542 14.9344 12.5393 14.9495 12.5397H44.2075C44.2227 12.5393 44.2377 12.542 44.2518 12.5476C44.2659 12.5532 44.2787 12.5616 44.2894 12.5723C44.3001 12.583 44.3086 12.5958 44.3142 12.6099C44.3198 12.624 44.3225 12.6391 44.322 12.6542C44.3224 12.6695 44.3198 12.6848 44.3142 12.699C44.3086 12.7133 44.3002 12.7262 44.2896 12.7372C44.2789 12.7482 44.2662 12.7569 44.2521 12.7628C44.238 12.7688 44.2228 12.7719 44.2075 12.7718Z" fill="#254898"/>
<path d="M46.6545 12.905C48.7938 13.4842 50.6154 14.8895 51.7186 16.8119C52.8217 18.7342 53.1161 21.016 52.5368 23.1553L51.3817 27.4215L35.2222 23.0462L36.3716 18.8009C36.9508 16.6616 38.3562 14.84 40.2785 13.7368C42.2008 12.6337 44.4826 12.3393 46.6219 12.9186L46.6545 12.905Z" fill="#254898"/>
<path d="M51.4654 27.5943L35.083 23.159L36.2685 18.7795C36.5525 17.6957 37.0483 16.6788 37.7273 15.7876C38.4063 14.8964 39.2551 14.1485 40.2246 13.587C41.1941 13.0255 42.2653 12.6615 43.3762 12.5161C44.4871 12.3706 45.6158 12.4466 46.6972 12.7395C47.7786 13.0325 48.7913 13.5367 49.6769 14.2231C50.5624 14.9094 51.3033 15.7643 51.8568 16.7385C52.4103 17.7126 52.7654 18.7867 52.9017 19.8987C53.038 21.0108 52.9527 22.1389 52.6508 23.2178L51.4654 27.5943ZM35.3709 22.995L51.3044 27.3096L52.4311 23.1559C53.0032 21.0426 52.7124 18.7885 51.6226 16.8896C50.5328 14.9907 48.7333 13.6025 46.62 13.0303C44.5067 12.4582 42.2526 12.749 40.3537 13.8388C38.4548 14.9285 37.0665 16.728 36.4944 18.8414L35.3709 22.995Z" fill="#254898"/>
<path d="M45.8913 15.7153L45.5818 15.641C47.0137 16.1186 48.2084 17.1261 48.921 18.4568C49.6335 19.7875 49.8097 21.3404 49.4135 22.7969L48.3798 26.6472L48.9988 26.8205L50.0387 22.9764C50.2434 22.2273 50.2984 21.4452 50.2007 20.6749C50.103 19.9045 49.8544 19.1609 49.4693 18.4866C49.0841 17.8123 48.5699 17.2205 47.956 16.745C47.3421 16.2695 46.6405 15.9196 45.8913 15.7153Z" fill="#0C152E"/>
<path d="M49.1036 26.9567L48.2494 26.7246L49.3203 22.769C49.7079 21.3388 49.5328 19.8145 48.8311 18.5094C48.1293 17.2043 46.9542 16.2177 45.5474 15.7524L45.6093 15.5296C45.7176 15.5513 45.8259 15.5791 45.9188 15.607C46.6828 15.8139 47.3985 16.1694 48.0251 16.653C48.6517 17.1367 49.1769 17.739 49.5707 18.4257C49.9645 19.1123 50.2191 19.8698 50.32 20.6549C50.421 21.44 50.3663 22.2372 50.1591 23.0012L49.1036 26.9567ZM48.5341 26.5605L48.9427 26.6719L49.9393 22.9331C50.2599 21.7466 50.1956 20.4891 49.7556 19.3416C49.3156 18.194 48.5227 17.2158 47.4911 16.5479C48.4041 17.2829 49.0833 18.2679 49.4455 19.3826C49.8077 20.4974 49.8373 21.6934 49.5308 22.8247L48.5341 26.5605Z" fill="#254898"/>
<path d="M49.1379 26.7896L48.912 26.7308L49.9395 22.9331C50.3061 21.4611 50.0811 19.904 49.3127 18.596C48.5443 17.288 47.2938 16.3333 45.8296 15.9367C44.3653 15.5402 42.804 15.7334 41.4806 16.4749C40.1572 17.2164 39.1771 18.4471 38.7508 19.903L37.7108 23.7471L37.4849 23.6852L38.5279 19.8442C38.9457 18.3014 39.9593 16.9877 41.3457 16.1922C42.7321 15.3967 44.3777 15.1845 45.9206 15.6024C47.4634 16.0202 48.7771 17.0338 49.5726 18.4202C50.3681 19.8066 50.5802 21.4522 50.1624 22.995L49.1379 26.7896Z" fill="#0C152E"/>
<path d="M16.5583 21.1174C16.1415 21.8749 15.5796 22.5428 14.9047 23.0831C14.2298 23.6234 13.4552 24.0255 12.6249 24.2664C11.7946 24.5073 10.925 24.5824 10.0657 24.4872C9.20642 24.392 8.37429 24.1285 7.61683 23.7118L5.86193 22.7462C5.86193 22.7462 3.70605 17.1671 5.02423 14.7713C6.22875 12.5821 12.208 11.2122 12.208 11.2122L13.9629 12.1778C15.4923 13.0193 16.6249 14.4338 17.1116 16.1102C17.5983 17.7866 17.3993 19.5877 16.5583 21.1174Z" fill="#F7E36E"/>
<path d="M7.58123 23.7773L5.80161 22.7982L5.79268 22.7725C5.41672 21.7617 5.11036 20.7263 4.87574 19.6737C4.37518 17.4065 4.4036 15.7455 4.95923 14.7356C6.1657 12.5428 11.9466 11.1949 12.1914 11.1387L12.2196 11.1335L13.9992 12.1126C15.546 12.9637 16.6914 14.3944 17.1834 16.09C17.6754 17.7855 17.4736 19.6071 16.6226 21.1539C15.7715 22.7008 14.3408 23.8462 12.6452 24.3381C10.9496 24.8301 9.12807 24.6284 7.58123 23.7773ZM5.92388 22.6929L7.65409 23.6449C8.40372 24.0747 9.23147 24.3509 10.089 24.4573C10.9465 24.5638 11.8167 24.4984 12.6486 24.2649C13.4806 24.0314 14.2577 23.6345 14.9347 23.0975C15.6116 22.5604 16.1748 21.8939 16.5914 21.1368C17.0079 20.3797 17.2695 19.5472 17.3608 18.6879C17.4521 17.8287 17.3714 16.9598 17.1233 16.1321C16.8752 15.3043 16.4648 14.5343 15.9159 13.8669C15.367 13.1996 14.6906 12.6482 13.9263 12.245L12.205 11.2979C11.7607 11.4031 6.23135 12.7538 5.09871 14.8123C3.85022 17.0648 5.76876 22.281 5.93272 22.6978L5.92388 22.6929Z" fill="#231F20"/>
<g opacity="0.4">
<path d="M16.757 20.7231L9.88568 16.9424L12.1646 12.8006L16.8573 15.3825C17.2158 16.23 17.3921 17.1434 17.3748 18.0634C17.3575 18.9835 17.1471 19.8896 16.757 20.7231Z" fill="white"/>
</g>
<path d="M7.58123 23.7773L5.80161 22.7982L5.79268 22.7725C5.41672 21.7617 5.11036 20.7263 4.87574 19.6737C4.37518 17.4065 4.4036 15.7455 4.95923 14.7356C6.1657 12.5428 11.9466 11.1949 12.1914 11.1387L12.2196 11.1335L13.9992 12.1126C15.546 12.9637 16.6914 14.3944 17.1834 16.09C17.6754 17.7855 17.4736 19.6071 16.6226 21.1539C15.7715 22.7008 14.3408 23.8462 12.6452 24.3381C10.9496 24.8301 9.12807 24.6284 7.58123 23.7773ZM5.92388 22.6929L7.65409 23.6449C8.40372 24.0747 9.23147 24.3509 10.089 24.4573C10.9465 24.5638 11.8167 24.4984 12.6486 24.2649C13.4806 24.0314 14.2577 23.6345 14.9347 23.0975C15.6116 22.5604 16.1748 21.8939 16.5914 21.1368C17.0079 20.3797 17.2695 19.5472 17.3608 18.6879C17.4521 17.8287 17.3714 16.9598 17.1233 16.1321C16.8752 15.3043 16.4648 14.5343 15.9159 13.8669C15.367 13.1996 14.6906 12.6482 13.9263 12.245L12.205 11.2979C11.7607 11.4031 6.23135 12.7538 5.09871 14.8123C3.85022 17.0648 5.76876 22.281 5.93272 22.6978L5.92388 22.6929Z" fill="#231F20"/>
<path d="M5.8622 22.7464C9.04675 24.4986 13.0487 23.3374 14.8009 20.1528C16.553 16.9683 15.3919 12.9663 12.2073 11.2141C9.02276 9.46198 5.02076 10.6232 3.26861 13.8077C1.51646 16.9923 2.67765 20.9943 5.8622 22.7464Z" fill="#F7E36E"/>
<path d="M5.82615 22.8116C4.67385 22.1776 3.73541 21.2162 3.12954 20.0488C2.52366 18.8815 2.27755 17.5607 2.42232 16.2535C2.5671 14.9463 3.09626 13.7113 3.94288 12.7049C4.78951 11.6984 5.91557 10.9656 7.17868 10.5991C8.4418 10.2326 9.78522 10.2489 11.0391 10.6459C12.2929 11.0429 13.4009 11.8028 14.2229 12.8295C15.0448 13.8562 15.5439 15.1036 15.6569 16.414C15.77 17.7243 15.4919 19.0388 14.8579 20.1911C14.0046 21.7331 12.5754 22.8744 10.8829 23.3655C9.19038 23.8566 7.37225 23.6575 5.82615 22.8116ZM12.1713 11.2794C11.0437 10.659 9.7574 10.3869 8.47517 10.4975C7.19294 10.6082 5.97234 11.0966 4.96771 11.901C3.96308 12.7055 3.21957 13.7897 2.83121 15.0167C2.44285 16.2437 2.42709 17.5584 2.78592 18.7943C3.14474 20.0303 3.86203 21.1321 4.84708 21.9603C5.83213 22.7886 7.04069 23.3062 8.3199 23.4475C9.59911 23.5889 10.8915 23.3477 12.0336 22.7546C13.1758 22.1614 14.1164 21.2428 14.7364 20.115C15.566 18.6028 15.7618 16.8232 15.2809 15.1667C14.8 13.5103 13.6817 12.1123 12.1713 11.2794Z" fill="#231F20"/>
<path d="M6.97138 20.7302C9.0424 21.8697 11.645 21.1145 12.7845 19.0435C13.924 16.9725 13.1689 14.3698 11.0978 13.2303C9.0268 12.0908 6.42416 12.846 5.28467 14.917C4.14519 16.9881 4.90035 19.5907 6.97138 20.7302Z" fill="#F7E36E"/>
<path d="M6.93566 20.7955C6.18046 20.3804 5.5653 19.7507 5.16801 18.986C4.77072 18.2213 4.60914 17.3559 4.70371 16.4994C4.79827 15.6429 5.14471 14.8336 5.69925 14.174C6.25378 13.5144 6.99148 13.034 7.81903 12.7937C8.64659 12.5534 9.52684 12.5639 10.3484 12.8238C11.17 13.0838 11.896 13.5816 12.4347 14.2543C12.9733 14.9269 13.3004 15.7442 13.3745 16.6028C13.4486 17.4613 13.2665 18.3226 12.8511 19.0776C12.2935 20.0888 11.3575 20.8376 10.2485 21.1596C9.13958 21.4817 7.94818 21.3507 6.93566 20.7955ZM11.0621 13.2956C10.3334 12.8942 9.50201 12.718 8.67313 12.7892C7.84424 12.8604 7.0551 13.1758 6.40552 13.6956C5.75594 14.2154 5.27512 14.9161 5.02389 15.7092C4.77266 16.5023 4.7623 17.3521 4.99413 18.1511C5.22596 18.9501 5.68956 19.6624 6.32627 20.1979C6.96299 20.7333 7.74422 21.0679 8.57113 21.1593C9.39804 21.2507 10.2335 21.0947 10.9717 20.7112C11.71 20.3277 12.3179 19.7338 12.7186 19.0048C13.2544 18.0277 13.3809 16.878 13.0704 15.8078C12.7599 14.7376 12.0377 13.8342 11.0621 13.2956Z" fill="#231F20"/>
<path d="M5.95083 15.2813C6.46653 14.3448 7.3142 13.6353 8.32689 13.2926C9.33959 12.9498 10.4439 12.9987 11.4223 13.4296C11.3169 13.3578 11.2104 13.2923 11.0974 13.2301C10.6042 12.9446 10.0589 12.7605 9.49361 12.6886C8.92829 12.6166 8.35429 12.6583 7.80529 12.8112C7.2563 12.964 6.74335 13.225 6.29655 13.5787C5.84975 13.9325 5.47809 14.3719 5.20338 14.8712C4.92866 15.3705 4.75643 15.9196 4.69677 16.4864C4.63711 17.0531 4.69124 17.6261 4.85597 18.1716C5.0207 18.7172 5.29272 19.2243 5.65608 19.6633C6.01943 20.1024 6.4668 20.4644 6.97194 20.7282C7.08493 20.7904 7.19438 20.8506 7.31435 20.8959C6.4264 20.2998 5.79392 19.3928 5.54154 18.3536C5.28915 17.3143 5.43518 16.2182 5.95083 15.2813Z" fill="#231F20"/>
</svg>
