<svg width="19" height="18" viewBox="0 0 19 18" fill="none" xmlns="http://www.w3.org/2000/svg">
<path fill-rule="evenodd" clip-rule="evenodd" d="M17.2 9C17.2 13.2526 13.7526 16.7 9.5 16.7C5.24741 16.7 1.8 13.2526 1.8 9C1.8 4.74741 5.24741 1.3 9.5 1.3C13.7526 1.3 17.2 4.74741 17.2 9ZM9.5 18C14.4706 18 18.5 13.9706 18.5 9C18.5 4.02944 14.4706 0 9.5 0C4.52944 0 0.5 4.02944 0.5 9C0.5 13.9706 4.52944 18 9.5 18ZM12.3472 11.8472C12.6011 11.5934 12.6011 11.1818 12.3472 10.928L10.4381 9.01884L12.3472 7.10967C12.6011 6.85583 12.6011 6.44428 12.3472 6.19044C12.0934 5.9366 11.6818 5.9366 11.428 6.19044L9.51884 8.0996L7.60962 6.19038C7.35578 5.93654 6.94422 5.93654 6.69038 6.19038C6.43654 6.44422 6.43654 6.85578 6.69038 7.10962L8.5996 9.01884L6.69038 10.9281C6.43654 11.1819 6.43654 11.5934 6.69038 11.8473C6.94422 12.1011 7.35578 12.1011 7.60962 11.8473L9.51884 9.93807L11.428 11.8472C11.6818 12.1011 12.0934 12.1011 12.3472 11.8472Z" fill="#FF4557"/>
</svg>
