<svg width="50" height="50" viewBox="0 0 50 50" fill="none" xmlns="http://www.w3.org/2000/svg">
<path d="M25 50C11.1929 50 0 38.8071 0 25C0 11.1929 11.1929 0 25 0C38.8071 0 50 11.1929 50 25C50 38.8071 38.8071 50 25 50Z" fill="#0C152E"/>
<path d="M35.5672 16.1595C35.8778 15.8485 35.8778 15.3443 35.5672 15.0332C35.2566 14.7222 34.7529 14.7222 34.4422 15.0332L30.7214 18.7584L29.4482 17.4837C29.1376 17.1727 28.6339 17.1727 28.3233 17.4837C28.0126 17.7947 28.0126 18.2989 28.3233 18.61L30.159 20.4478C30.4696 20.7588 30.9733 20.7588 31.2839 20.4478L35.5672 16.1595Z" fill="#DFE6F2"/>
<path fill-rule="evenodd" clip-rule="evenodd" d="M18.7894 21.4162C18.7894 18.8787 20.8441 16.8216 23.3787 16.8216C25.9132 16.8216 27.9679 18.8787 27.9679 21.4162C27.9679 23.9537 25.9132 26.0107 23.3787 26.0107C20.8441 26.0107 18.7894 23.9537 18.7894 21.4162ZM23.3787 18.3816C21.7074 18.3816 20.3494 19.7385 20.3494 21.4162C20.3494 23.0938 21.7074 24.4507 23.3787 24.4507C25.0499 24.4507 26.4079 23.0938 26.4079 21.4162C26.4079 19.7385 25.0499 18.3816 23.3787 18.3816Z" fill="#DFE6F2"/>
<path fill-rule="evenodd" clip-rule="evenodd" d="M14.3926 33.64C14.2656 34.1493 14.2002 34.6718 14.2002 35.2H32.5571C32.5571 34.6718 32.4917 34.1493 32.3647 33.64C32.3286 33.4952 32.2875 33.3515 32.2415 33.209C31.8271 31.9251 31.0153 30.7417 29.8688 29.7852C28.1475 28.3491 25.8129 27.5423 23.3787 27.5423C20.9444 27.5423 18.6098 28.3491 16.8885 29.7852C15.7421 30.7417 14.9302 31.9251 14.5158 33.209C14.4698 33.3515 14.4287 33.4952 14.3926 33.64ZM30.7411 33.64C30.4194 32.6763 29.7926 31.7533 28.8694 30.9831C27.4534 29.8017 25.4814 29.1023 23.3787 29.1023C21.2759 29.1023 19.3039 29.8017 17.8879 30.9831C16.9647 31.7533 16.3379 32.6763 16.0162 33.64H30.7411Z" fill="#DFE6F2"/>
</svg>
