<svg width="17" height="17" viewBox="0 0 17 17" fill="none" xmlns="http://www.w3.org/2000/svg">
<path fill-rule="evenodd" clip-rule="evenodd" d="M10.1883 3.30705L10.3629 2.20137L14.4567 6.29515L13.351 6.46973C13.0587 6.51587 12.7886 6.65343 12.5794 6.86265L9.8625 9.57953C9.67268 9.76936 9.54143 10.0098 9.48441 10.2721L8.71245 13.8231L2.83498 7.94558L6.38596 7.17363C6.64828 7.1166 6.88868 6.98536 7.0785 6.79553L9.79539 4.07865C10.0046 3.86943 10.1422 3.59931 10.1883 3.30705ZM9.32382 0.446823C9.38755 0.0431803 9.8823 -0.117704 10.1713 0.171251L16.4868 6.48679C16.7757 6.77574 16.6149 7.27049 16.2112 7.33422L13.5537 7.75382C13.5329 7.75712 13.5136 7.76694 13.4986 7.78189L10.7817 10.4988C10.7682 10.5123 10.7588 10.5295 10.7547 10.5482L9.6715 15.5311C9.58747 15.9177 9.10908 16.0582 8.82936 15.7784L5.31408 12.2632L1.46203 16.1152C1.20819 16.3691 0.796637 16.3691 0.542796 16.1152C0.288956 15.8614 0.288956 15.4498 0.542796 15.196L4.39484 11.3439L0.879589 7.82867C0.59987 7.54895 0.740374 7.07057 1.12693 6.98653L6.1098 5.9033C6.12853 5.89923 6.14571 5.88985 6.15926 5.87629L8.87615 3.15941C8.89109 3.14446 8.90092 3.12517 8.90422 3.10429L9.32382 0.446823Z" fill="#8A8CA2"/>
</svg>
