<svg width="79" height="65" viewBox="0 0 79 65" fill="none" xmlns="http://www.w3.org/2000/svg">
<path d="M63.8407 22.4591L63.0907 22.4574L63.0892 23.1306L63.7583 23.2046L63.8407 22.4591ZM63.8409 22.3636L64.5909 22.3653V22.3636H63.8409ZM23.2274 15.6203L23.1165 16.362L23.7352 16.4546L23.9372 15.8625L23.2274 15.6203ZM26.75 54.4091C27.1642 54.4091 27.5 54.0733 27.5 53.6591C27.5 53.2449 27.1642 52.9091 26.75 52.9091V54.4091ZM56.5 52.9091C56.0858 52.9091 55.75 53.2449 55.75 53.6591C55.75 54.0733 56.0858 54.4091 56.5 54.4091V52.9091ZM64.5907 22.4609L64.5909 22.3653L63.0909 22.3619L63.0907 22.4574L64.5907 22.4609ZM78.5 38.0114C78.5 29.5705 72.1227 22.6201 63.9231 21.7137L63.7583 23.2046C71.2064 24.0279 77 30.3436 77 38.0114H78.5ZM62.1023 54.4091C71.1585 54.4091 78.5 47.0676 78.5 38.0114H77C77 46.2392 70.3301 52.9091 62.1023 52.9091V54.4091ZM20.375 52.9091C10.2268 52.9091 2 44.6822 2 34.5341H0.5C0.5 45.5107 9.39833 54.4091 20.375 54.4091V52.9091ZM2 34.5341C2 24.386 10.2268 16.1591 20.375 16.1591V14.6591C9.39833 14.6591 0.5 23.5575 0.5 34.5341H2ZM20.375 16.1591C21.3072 16.1591 22.2226 16.2283 23.1165 16.362L23.3384 14.8785C22.3712 14.7338 21.3815 14.6591 20.375 14.6591V16.1591ZM42.9773 0.75C33.4838 0.75 25.4218 6.87011 22.5177 15.378L23.9372 15.8625C26.6404 7.94337 34.1449 2.25 42.9773 2.25V0.75ZM64.5909 22.3636C64.5909 10.4267 54.9142 0.75 42.9773 0.75V2.25C54.0858 2.25 63.0909 11.2551 63.0909 22.3636H64.5909ZM26.75 52.9091H20.375V54.4091H26.75V52.9091ZM62.1023 52.9091H56.5V54.4091H62.1023V52.9091Z" fill="#8A8CA2"/>
<path fill-rule="evenodd" clip-rule="evenodd" d="M40.8821 33.7254L32.2568 41.8908C31.956 42.1756 31.4683 42.1756 31.1675 41.8908C30.8667 41.6061 30.8667 41.1444 31.1675 40.8596L41.0873 31.4686C41.2318 31.3319 41.4277 31.2551 41.632 31.2551C41.8363 31.2551 42.0322 31.3319 42.1766 31.4686L52.0967 40.8595C52.3975 41.1443 52.3975 41.606 52.0967 41.8907C51.7959 42.1755 51.3082 42.1755 51.0074 41.8908L42.3821 33.7255V63.3264C42.3821 63.7406 42.0463 64.0764 41.6321 64.0764C41.2178 64.0764 40.8821 63.7406 40.8821 63.3264V33.7254Z" fill="#8A8CA2"/>
</svg>
