<svg width="16" height="16" viewBox="0 0 16 16" fill="none" xmlns="http://www.w3.org/2000/svg">
<path fill-rule="evenodd" clip-rule="evenodd" d="M6.10044 4.00078C6.10044 2.95144 6.9511 2.10078 8.00044 2.10078C9.04978 2.10078 9.90044 2.95144 9.90044 4.00078C9.90044 5.05012 9.04978 5.90078 8.00044 5.90078C6.9511 5.90078 6.10044 5.05012 6.10044 4.00078ZM8.00044 0.800781C6.23313 0.800781 4.80044 2.23347 4.80044 4.00078C4.80044 5.76809 6.23313 7.20078 8.00044 7.20078C9.76775 7.20078 11.2004 5.76809 11.2004 4.00078C11.2004 2.23347 9.76775 0.800781 8.00044 0.800781ZM2.30332 13.6668C2.28245 13.7443 2.26314 13.8224 2.24542 13.9008H13.7555C13.7377 13.8224 13.7184 13.7443 13.6976 13.6668L14.9152 13.3389L13.6976 13.6668C13.4312 12.6775 12.9093 11.7658 12.1724 11.0289C11.0659 9.92239 9.56522 9.30078 8.00044 9.30078C6.43567 9.30078 4.93498 9.92239 3.82851 11.0289C3.0916 11.7658 2.56973 12.6775 2.30332 13.6668ZM0.869748 14.204C0.911122 13.908 0.970774 13.6157 1.04804 13.3288C1.37311 12.1217 2.00995 11.0089 2.90928 10.1096C4.25954 8.75935 6.09089 8.00078 8.00044 8.00078C9.91 8.00078 11.7414 8.75935 13.0916 10.1096C13.9909 11.0089 14.6278 12.1217 14.9528 13.3288C15.0301 13.6157 15.0898 13.908 15.1311 14.204C15.2076 14.751 14.7527 15.2008 14.2004 15.2008H1.80044C1.24816 15.2008 0.793296 14.751 0.869748 14.204Z" fill="#254898"/>
<path d="M6.43262 11.9363L8.00039 8.80078L9.56816 11.9363C9.58741 11.9748 9.57986 12.0213 9.54943 12.0517L8.0711 13.5301C8.03205 13.5691 7.96873 13.5691 7.92968 13.5301L6.45136 12.0517C6.42092 12.0213 6.41337 11.9748 6.43262 11.9363Z" stroke="#254898" stroke-width="1.1" stroke-linejoin="round"/>
</svg>
