<svg width="20" height="20" viewBox="0 0 20 20" fill="none" xmlns="http://www.w3.org/2000/svg">
<path fill-rule="evenodd" clip-rule="evenodd" d="M2.29686 1.65002C2.29686 1.29104 2.00584 1.00002 1.64686 1.00002C1.28787 1.00002 0.996857 1.29104 0.996857 1.65002V18.3516C0.996857 18.7105 1.28787 19.0016 1.64686 19.0016C2.00584 19.0016 2.29686 18.7105 2.29686 18.3516V11.1695H9.15513L8.36161 13.6735C8.20837 14.157 8.56933 14.65 9.07656 14.65L17.7871 14.6501C18.4222 14.6501 18.9371 14.1352 18.9371 13.5001V7.3675C18.9371 6.73237 18.4222 6.21749 17.7871 6.21749L12.0854 6.21751L12.7139 4.23437C12.9488 3.49294 12.3954 2.73696 11.6176 2.73696H2.29686V1.65002ZM2.38359 4.03696V9.86948H9.30814C9.4607 9.86948 9.59569 9.77065 9.64178 9.62522L11.4127 4.03696H2.38359ZM11.6762 7.51751L9.82782 13.35L17.6371 13.3501V7.5175L11.6762 7.51751Z" fill="#8A8CA2"/>
</svg>
