<svg width="14" height="14" viewBox="0 0 14 14" fill="none" xmlns="http://www.w3.org/2000/svg">
<path fill-rule="evenodd" clip-rule="evenodd" d="M0 0.65C0 0.291015 0.291015 0 0.65 0H2.35631H11.6437H13.35C13.709 0 14 0.291015 14 0.65C14 1.00898 13.709 1.3 13.35 1.3H11.9871C11.8648 3.26665 10.8807 5.05976 9.33428 6.22147C9.09656 6.40006 8.84555 6.56372 8.58234 6.7108C8.39432 6.81587 8.20007 6.91247 8 7C8.20007 7.08753 8.39432 7.18413 8.58234 7.2892C8.84555 7.43628 9.09656 7.59994 9.33428 7.77853C10.8807 8.94025 11.8648 10.7334 11.9871 12.7H13.35C13.709 12.7 14 12.991 14 13.35C14 13.709 13.709 14 13.35 14H0.65C0.291015 14 0 13.709 0 13.35C0 12.991 0.291015 12.7 0.65 12.7H2.01291C2.13523 10.7334 3.11931 8.94025 4.66572 7.77853C4.90344 7.59994 5.15445 7.43628 5.41766 7.2892C5.60568 7.18413 5.79993 7.08753 6 7C5.79993 6.91247 5.60568 6.81587 5.41766 6.7108C5.15445 6.56372 4.90344 6.40006 4.66572 6.22147C3.11931 5.05976 2.13523 3.26665 2.01292 1.3H0.65C0.291015 1.3 0 1.00898 0 0.65ZM3.31605 1.3H10.6839C10.5317 3.2679 9.30772 5.0089 7.47894 5.809L7 6.01853L6.52106 5.809C4.69228 5.0089 3.46828 3.2679 3.31605 1.3ZM7 7.98147L6.52106 8.191C4.69228 8.9911 3.46828 10.7321 3.31605 12.7H10.6839C10.5317 10.7321 9.30772 8.9911 7.47894 8.191L7 7.98147Z" fill="#4070F4"/>
</svg>