<svg width="18" height="18" viewBox="0 0 18 18" fill="none" xmlns="http://www.w3.org/2000/svg">
<path fill-rule="evenodd" clip-rule="evenodd" d="M16.7 9C16.7 13.2526 13.2526 16.7 9 16.7C4.74741 16.7 1.3 13.2526 1.3 9C1.3 4.74741 4.74741 1.3 9 1.3C13.2526 1.3 16.7 4.74741 16.7 9ZM9 18C13.9706 18 18 13.9706 18 9C18 4.02944 13.9706 0 9 0C4.02944 0 0 4.02944 0 9C0 13.9706 4.02944 18 9 18ZM11.8472 11.8472C12.1011 11.5934 12.1011 11.1818 11.8472 10.928L9.93807 9.01884L11.8472 7.10967C12.1011 6.85583 12.1011 6.44428 11.8472 6.19044C11.5934 5.9366 11.1818 5.9366 10.928 6.19044L9.01884 8.0996L7.10962 6.19038C6.85578 5.93654 6.44422 5.93654 6.19038 6.19038C5.93654 6.44422 5.93654 6.85578 6.19038 7.10962L8.0996 9.01884L6.19038 10.9281C5.93654 11.1819 5.93654 11.5934 6.19038 11.8473C6.44422 12.1011 6.85578 12.1011 7.10962 11.8473L9.01884 9.93807L10.928 11.8472C11.1818 12.1011 11.5934 12.1011 11.8472 11.8472Z" fill="#4070F4"/>
</svg>
