<svg width="172" height="151" viewBox="0 0 172 151" fill="none" xmlns="http://www.w3.org/2000/svg">
<path d="M138.34 80.2131C154.14 80.2131 166.949 67.4006 166.949 51.5956C166.949 35.7906 154.14 22.9781 138.34 22.9781C122.541 22.9781 109.732 35.7906 109.732 51.5956C109.732 67.4006 122.541 80.2131 138.34 80.2131Z" fill="#FFD0D1"/>
<path d="M80.2472 28.2878C84.251 28.2878 87.4968 25.041 87.4968 21.0358C87.4968 17.0307 84.251 13.7838 80.2472 13.7838C76.2433 13.7838 72.9976 17.0307 72.9976 21.0358C72.9976 25.041 76.2433 28.2878 80.2472 28.2878Z" fill="#FFD0D1"/>
<path d="M113.94 57.235C129.74 57.235 142.548 44.4225 142.548 28.6175C142.548 12.8125 129.74 0 113.94 0C98.1403 0 85.332 12.8125 85.332 28.6175C85.332 44.4225 98.1403 57.235 113.94 57.235Z" fill="#FFD0D1"/>
<path d="M145.093 23.7439C145.484 25.6254 145.686 27.5728 145.686 29.5709C145.686 30.8539 145.595 32.1167 145.428 33.3541C144.946 29.7078 143.78 26.2796 142.062 23.2013C143.091 23.3332 144.105 23.5107 145.093 23.7439Z" fill="#E9B7B8"/>
<path d="M97.6413 42.1681C106.665 42.1681 113.981 34.8502 113.981 25.8232C113.981 16.7962 106.665 9.47831 97.6413 9.47831C88.6172 9.47831 81.3018 16.7962 81.3018 25.8232C81.3018 34.8502 88.6172 42.1681 97.6413 42.1681Z" fill="#E9B7B8"/>
<path d="M94.5377 44.1045C103.562 44.1045 110.877 36.7867 110.877 27.7597C110.877 18.7326 103.562 11.4148 94.5377 11.4148C85.5137 11.4148 78.1982 18.7326 78.1982 27.7597C78.1982 36.7867 85.5137 44.1045 94.5377 44.1045Z" fill="white"/>
<path d="M94.5183 44.3538C91.1064 44.3538 87.6692 43.3091 84.7187 41.1386C77.3423 35.7224 75.7505 25.311 81.1649 17.9373C86.5792 10.5585 96.9872 8.96609 104.359 14.3823C111.735 19.7984 113.327 30.2099 107.912 37.5836C104.668 42.0108 99.6234 44.3538 94.5183 44.3538ZM94.5639 11.6742C89.6109 11.6742 84.7288 13.9461 81.5806 18.2365C76.3284 25.387 77.8746 35.479 85.0229 40.7329C92.1711 45.9868 102.26 44.44 107.512 37.2894C112.764 30.1389 111.218 20.0469 104.07 14.793C101.2 12.6884 97.8643 11.6742 94.5639 11.6742Z" fill="#0C152E"/>
<path d="M87.4967 21.8574C84.8504 21.8574 82.4474 20.833 80.6426 19.1747C80.8707 18.8045 81.109 18.4393 81.3726 18.0844C85.2306 12.8305 91.6387 10.5534 97.6411 11.7097C97.6411 11.7097 97.6411 11.7097 97.6411 11.7148C97.6411 17.3186 93.0987 21.8574 87.4967 21.8574Z" fill="#C5CFE4"/>
<path d="M84.3993 20.2954C90.0018 20.2954 94.5436 15.7522 94.5436 10.1477C94.5436 4.54329 90.0018 0 84.3993 0C78.7967 0 74.2549 4.54329 74.2549 10.1477C74.2549 15.7522 78.7967 20.2954 84.3993 20.2954Z" fill="#FFD0D1"/>
<path d="M154.244 74.8528L158.234 98.4446L118.609 101.645L104.947 71.5564L154.244 74.8528Z" fill="black"/>
<path d="M81.3171 115.586C80.2069 115.586 79.0916 115.464 78.0016 115.226L12.1164 100.722C8.0911 99.8341 4.65388 97.4354 2.43844 93.9666C0.217936 90.4927 -0.512093 86.3647 0.370026 82.3431C1.25721 78.3165 3.65516 74.8781 7.12787 72.6569C10.6006 70.4356 14.7273 69.7003 18.7475 70.5878L75.0257 82.977L100.597 49.4556C103.096 46.1795 106.721 44.0749 110.802 43.5221C114.883 42.9744 118.939 44.0495 122.214 46.5497C125.489 49.0499 127.593 52.6759 128.146 56.7583C128.698 60.8407 127.618 64.8977 125.119 68.1738L93.5806 109.52C90.6757 113.314 86.0928 115.586 81.3171 115.586ZM15.3965 70.7247C12.5828 70.7247 9.82493 71.526 7.39656 73.0778C4.04045 75.223 1.71855 78.5498 0.861782 82.4445C0.00501101 86.3342 0.714762 90.3304 2.85922 93.6877C5.00369 97.0449 8.32938 99.3676 12.2229 100.225L78.1081 114.729C79.1626 114.962 80.2424 115.079 81.3171 115.079C85.9356 115.079 90.3715 112.883 93.1751 109.206L124.713 67.8594C127.132 64.6898 128.171 60.7697 127.639 56.8191C127.106 52.8686 125.073 49.3643 121.905 46.9453C118.736 44.5262 114.817 43.4866 110.868 44.0191C106.919 44.5516 103.416 46.5852 100.998 49.7548L75.2285 83.5349L75.0713 83.4994L18.636 71.0746C17.5561 70.8413 16.4712 70.7247 15.3965 70.7247Z" fill="#9999A0"/>
<path d="M83.2611 125.5H83.7691L82.7663 151H82.2581L83.2611 125.5Z" fill="#9999A0"/>
<path d="M111.314 137.874L110.833 138.026C110.893 138.216 112.518 143.358 114.971 151H115.501C113.021 143.274 111.375 138.065 111.314 137.874Z" fill="#9999A0"/>
<path d="M99.9732 105.139H80.2168V78.6765L107.948 77.4543L99.9732 105.139Z" fill="black"/>
<path d="M157.833 96.8471L172 151H158.227L144.718 98.2113L157.833 96.8471Z" fill="black"/>
<path d="M55.3189 59.9847L2.04639 64.5297L2.28672 67.3466L55.5592 62.8016L55.3189 59.9847Z" fill="#DFE6F2"/>
<path d="M55.8737 63.0669L2.02159 67.6614L1.73181 64.2648L55.5839 59.6704L55.8737 63.0669ZM2.55176 67.0323L55.2446 62.5368L55.0537 60.2994L2.36088 64.795L2.55176 67.0323Z" fill="#0C152E"/>
<path d="M55.4039 60.9813L16.6334 64.2891L16.6829 64.8687L55.4534 61.5609L55.4039 60.9813Z" fill="#0C152E"/>
<path d="M18.0001 66.0062L14.9325 61.5973L0.314575 62.8444L3.37755 98.7458L58.2266 94.0663L55.5592 62.8018L18.0001 66.0062Z" fill="#F7E36D"/>
<path d="M58.5411 94.3311L3.11243 99.0601L0 62.5791L15.0758 61.2929L18.1434 65.7018L55.8242 62.4871L58.5411 94.3311V94.3311ZM3.64259 98.431L57.912 93.801L55.2941 63.1161L17.8567 66.3101L14.7891 61.9012L0.629066 63.1093L3.64259 98.431Z" fill="#0C152E"/>
<path d="M28.9541 72.6279L28.9542 72.628L28.9576 72.6211C29.086 72.367 29.4285 72.3304 29.6066 72.5423C29.6069 72.5426 29.6072 72.5429 29.6074 72.5433L39.2953 84.29L39.2953 84.29L39.2986 84.2939C39.5071 84.5415 39.3461 84.9173 39.0342 84.9439L22.434 86.3602C22.1301 86.3861 21.9114 86.0684 22.0513 85.7896L28.9541 72.6279Z" stroke="#0C152E"/>
<path d="M29.2255 83.0247C29.1745 82.4277 29.4795 82.0339 30.1171 81.9795C30.7315 81.927 31.122 82.2615 31.173 82.8585C31.2249 83.4671 30.8967 83.863 30.2823 83.9154C29.6447 83.9698 29.2769 83.6275 29.2255 83.0247ZM28.8409 77.3534L28.7523 76.3159L30.526 76.1646L30.6145 77.2021L30.6836 81.3648L29.4142 81.4731L28.8409 77.3534Z" fill="#0C152E"/>
<path d="M122.735 110.255C114.761 121.564 110.599 124.678 105.833 126.235C104.581 126.645 102.883 127.203 98.974 127.203C93.4075 127.203 83.3646 126.077 63.7552 121.797C55.4561 119.987 47.6083 118.019 41.6616 116.259C31.9735 113.394 26.4121 111.046 22.909 106.162C18.0218 99.3566 19.5782 89.8732 26.3868 84.9896C31.938 81.0035 39.2687 81.3027 44.4296 85.2431C52.1051 88.5091 82.7714 95.2894 95.1109 96.6435C100.485 89.7262 110.949 73.0365 119.014 58.9534C123.182 51.6811 132.449 49.1657 139.719 53.3293C146.989 57.4928 149.503 66.7683 145.341 74.0355C145.082 74.4869 138.908 85.2583 131.835 96.4761C128.297 102.08 125.316 106.598 122.735 110.255Z" fill="#111112"/>
<path d="M98.9697 127.458C91.9229 127.458 80.3844 125.688 63.6951 122.046C55.391 120.231 47.5331 118.263 41.5813 116.504C31.8374 113.623 26.2405 111.255 22.6968 106.31C17.7387 99.3979 19.3255 89.7421 26.2304 84.7824C31.7715 80.8065 39.1276 80.9028 44.5521 85.0207C52.0045 88.1751 82.0219 94.925 94.9901 96.3754C100.034 89.8486 110.235 73.7573 118.787 58.8273C123.015 51.4486 132.46 48.8825 139.836 53.112C147.213 57.3415 149.778 66.7843 145.55 74.1681C144.891 75.3142 138.924 85.6952 132.039 96.6189C128.5 102.228 125.525 106.741 122.939 110.408C114.843 121.884 110.706 124.912 105.91 126.484C104.648 126.895 102.924 127.458 98.9697 127.458ZM35.2341 82.3735C32.1923 82.3735 29.1505 83.3117 26.5244 85.1982C19.8426 89.9957 18.3116 99.3371 23.1075 106.021C26.5701 110.844 32.0909 113.172 41.7283 116.022C47.6699 117.781 55.5127 119.744 63.8066 121.555C80.2272 125.14 92.0598 126.956 98.9697 126.956C102.843 126.956 104.526 126.403 105.753 126.002C110.447 124.465 114.513 121.478 122.528 110.114C125.109 106.452 128.085 101.949 131.613 96.345C138.493 85.4315 144.455 75.0607 145.114 73.9145C149.2 66.7741 146.721 57.6407 139.588 53.5532C132.45 49.4606 123.319 51.9456 119.233 59.0809C110.62 74.1123 100.339 90.3304 95.3095 96.8014L95.2233 96.913L95.0813 96.8978C83.1372 95.5894 52.3391 88.8851 44.329 85.4772L44.2733 85.4467C41.5864 83.3979 38.4128 82.3735 35.2341 82.3735Z" fill="#9999A0"/>
<path d="M140 83L95 97L100.009 89.7625L142.5 78.5L140 83Z" fill="black"/>
<path d="M102.594 44.4907C81.2866 50.0996 67.9179 70.887 70.8482 92.1815L82.0217 94.494L155.253 75.2179C149.195 52.189 125.621 38.4305 102.594 44.4907Z" fill="#4070F4"/>
<path d="M104.931 49.4708C111.968 47.8632 117.372 45.221 116.992 43.5627C116.962 43.4258 116.881 43.304 116.774 43.1925C112.13 42.8476 107.355 43.2381 102.599 44.4907C98.5994 45.5456 94.8834 47.1278 91.5019 49.1564C91.4969 49.2324 91.4867 49.3085 91.507 49.3795C91.8771 51.0327 97.8897 51.0784 104.931 49.4708Z" fill="#254898"/>
<path d="M109.54 43.2635C109.753 43.2432 109.961 43.228 110.173 43.2128C109.961 43.228 109.753 43.2432 109.54 43.2635Z" fill="#254898"/>
<path d="M91.5016 49.3741C91.8819 51.0325 97.8945 51.0781 104.931 49.4705C111.968 47.8629 117.372 45.2207 116.992 43.5624C116.961 43.4255 116.88 43.3038 116.774 43.1922C116.774 43.1922 116.774 43.1922 116.769 43.1922C114.594 43.0299 112.389 43.0401 110.173 43.2125C109.96 43.2277 109.752 43.2429 109.539 43.2632C109.164 43.2987 108.789 43.3443 108.414 43.39C108.1 43.4306 107.785 43.4711 107.476 43.5117C107.157 43.5573 106.842 43.603 106.523 43.6588C106.123 43.7247 105.722 43.8008 105.316 43.8819C105.068 43.9326 104.82 43.9732 104.571 44.029C103.917 44.171 103.263 44.3231 102.604 44.4955C102.599 44.4955 102.594 44.4955 102.594 44.5006C101.702 44.7339 100.835 45.0027 99.973 45.2917C99.7601 45.3627 99.5472 45.4337 99.3342 45.5098C98.4825 45.809 97.6359 46.1234 96.8146 46.4683C95.9883 46.8182 95.1873 47.1985 94.3913 47.5941C94.1987 47.6905 94.001 47.7919 93.8083 47.8882C93.0225 48.294 92.2469 48.7149 91.4966 49.1662C91.4915 49.2271 91.4814 49.3031 91.5016 49.3741Z" fill="black"/>
</svg>
