<svg width="19" height="16" viewBox="0 0 19 16" fill="none" xmlns="http://www.w3.org/2000/svg">
<path d="M8.35004 5.65C8.35004 5.29101 8.64105 5 9.00004 5C9.35902 5 9.65004 5.29101 9.65004 5.65V10.35C9.65004 10.709 9.35902 11 9.00004 11C8.64105 11 8.35004 10.709 8.35004 10.35V5.65Z" fill="#8A8CA2"/>
<path d="M8.35004 12.65C8.35004 12.291 8.64105 12 9.00004 12C9.35902 12 9.65004 12.291 9.65004 12.65C9.65004 13.009 9.35902 13.3 9.00004 13.3C8.64105 13.3 8.35004 13.009 8.35004 12.65Z" fill="#8A8CA2"/>
<path fill-rule="evenodd" clip-rule="evenodd" d="M7.32345 1C8.09918 -0.333333 10.0385 -0.333333 10.8142 1L17.7958 13C18.5716 14.3333 17.6019 16 16.0504 16H2.08726C0.535801 16 -0.433864 14.3333 0.341868 13L7.32345 1ZM9.67974 1.65L16.6613 13.65C16.9328 14.1167 16.5934 14.7 16.0504 14.7H2.08726C1.54425 14.7 1.20487 14.1167 1.47638 13.65L8.45796 1.65C8.72946 1.18333 9.40823 1.18333 9.67974 1.65Z" fill="#8A8CA2"/>
</svg>
