<svg width="163" height="151" viewBox="0 0 163 151" fill="none" xmlns="http://www.w3.org/2000/svg">
<path d="M50.1721 126.827L50.5261 127.074L47.8781 151H47.4968L50.1721 126.827Z" fill="#9999A0"/>
<path fill-rule="evenodd" clip-rule="evenodd" d="M24.8734 60.8174C25.4826 55.4192 21.6014 50.5514 16.2001 49.9413C10.7966 49.3356 5.93203 53.2161 5.32272 58.6155C4.71349 64.0141 8.59525 68.8822 13.9971 69.4918C19.3957 70.101 24.2638 66.2193 24.8734 60.8174ZM28.8482 61.2659C29.7053 53.6705 24.243 46.8235 16.6475 45.9664C9.05043 45.1138 2.20508 50.5716 1.34795 58.167C0.490812 65.7624 5.95313 72.6094 13.5486 73.4666C15.2836 73.6624 16.9796 73.5284 18.5741 73.1146L26.455 89.9452L30.0776 88.249L22.2616 71.5569C25.804 69.4101 28.3476 65.7018 28.8482 61.2659Z" fill="#F7E36D"/>
<path d="M118 151L113.934 125.537L129.5 125.5L134.5 151H118Z" fill="black"/>
<path d="M129.5 125.5L117.984 132.961L49.8161 132.286L50.491 126.887L50.4548 112.932L50.5234 109.536L129.5 111V125.5Z" fill="black"/>
<path d="M124.565 96.2659C142.476 97.7248 158.169 84.4947 159.617 66.7156C161.066 48.9364 147.72 33.3409 129.809 31.8819C111.898 30.423 96.2049 43.6531 94.7567 61.4322C93.3084 79.2114 106.654 94.8069 124.565 96.2659Z" fill="#FFD0D1"/>
<path d="M63.4678 32.4906C68.0066 32.8603 71.9836 29.5076 72.3506 25.0022C72.7176 20.4967 69.3356 16.5446 64.7968 16.1749C60.258 15.8052 56.2811 19.1579 55.9141 23.6633C55.5471 28.1687 58.929 32.1208 63.4678 32.4906Z" fill="#FFD0D1"/>
<path d="M99.0099 68.1646C116.921 69.6235 132.614 56.3934 134.063 38.6143C135.511 20.8351 122.165 5.23954 104.254 3.78059C86.3436 2.32163 70.65 15.5518 69.2017 33.3309C67.7535 51.1101 81.0991 66.7056 99.0099 68.1646Z" fill="#FFD0D1"/>
<path d="M137.394 33.3669C137.664 35.5194 137.716 37.7288 137.533 39.9765C137.415 41.4198 137.196 42.8318 136.893 44.2083C136.681 40.0621 135.673 36.0981 134.007 32.4766C135.162 32.7199 136.295 33.0132 137.394 33.3669Z" fill="#E9B7B8"/>
<path d="M81.9139 49.7107C92.1437 50.544 101.107 42.9876 101.934 32.833C102.761 22.6784 95.1391 13.771 84.9093 12.9377C74.6796 12.1045 65.7162 19.6609 64.889 29.8154C64.0619 39.97 71.6842 48.8774 81.9139 49.7107Z" fill="#E9B7B8"/>
<path d="M78.2191 51.6034C88.4489 52.4366 97.4123 44.8803 98.2395 34.7257C99.0666 24.5711 91.4443 15.6637 81.2145 14.8304C70.9848 13.9972 62.0214 21.5536 61.1942 31.7081C60.367 41.8627 67.9894 50.7701 78.2191 51.6034Z" fill="white"/>
<path d="M78.1736 51.881C74.3059 51.566 70.5051 50.0734 67.3592 47.3593C59.4936 40.5855 58.6431 28.7266 65.4565 20.9318C72.2705 13.1314 84.215 12.3011 92.0749 19.0745C99.9405 25.8483 100.791 37.7072 93.9776 45.502C89.8938 50.1826 83.9608 52.3524 78.1736 51.881ZM81.2198 15.1237C75.605 14.6664 69.8624 16.7713 65.9004 21.3068C59.2912 28.8655 60.1194 40.3608 67.7412 46.931C75.3631 53.5012 86.9414 52.6928 93.5505 45.1341C100.16 37.5754 99.3315 26.0801 91.7097 19.5099C88.6497 16.8775 84.9611 15.4285 81.2198 15.1237Z" fill="#0C152E"/>
<path d="M72.2753 25.9263C69.2754 25.6819 66.6452 24.3077 64.7512 22.2756C65.0437 21.8802 65.3473 21.4914 65.6786 21.1165C70.5335 15.5626 78.0064 13.5928 84.7049 15.4478C84.7049 15.4478 84.7049 15.4478 84.7045 15.4535C84.191 21.7573 78.6258 26.4436 72.2753 25.9263Z" fill="#C5CFE4"/>
<path d="M68.9069 23.8832C75.2581 24.4005 80.823 19.7091 81.3366 13.4047C81.8501 7.10021 77.1178 1.57004 70.7666 1.0527C64.4155 0.535356 58.8505 5.22674 58.337 11.5312C57.8235 17.8357 62.5558 23.3658 68.9069 23.8832Z" fill="#FFD0D1"/>
<path d="M134.635 117.854V102.879C134.635 78.8618 115.167 59.3943 91.1497 59.3943C67.1325 59.3943 47.6649 78.8618 47.6649 102.879V109.231" fill="#4070F4"/>
<path d="M97.7302 92.9002L124.647 110.68L128.953 103.223C132.733 92.0047 131.19 81.507 121.66 76.0047C112.13 70.5024 99.944 73.768 94.4417 83.2979L97.7302 92.9002Z" fill="#0C152E"/>
<path d="M81.9595 66.8628C89.5919 67.5791 96.1877 64.4888 97.2166 59.8744C96.5116 59.7715 95.7991 59.6801 95.0827 59.6077C86.9893 58.8075 79.2008 60.2897 72.3381 63.5172C74.7883 65.2586 78.1529 66.5046 81.9595 66.8628Z" fill="black"/>
<path d="M82.6758 141.232C98.0205 140.702 108.343 126.622 117.454 114.2C119.603 111.27 123.272 98.7527 125.17 96.6913C131.457 94.7213 130.508 98.2574 130.855 91.2919C131.301 82.364 107.71 69.2751 99.3084 80.7331C96.5573 84.4826 83.8609 105.269 80.7439 108.168C76.16 105.863 67.9751 99.4958 63.2654 95.8301C50.912 86.2202 41.1573 78.626 30.4613 78.3249C21.5258 78.0696 14.0764 85.1113 13.8211 94.0468C13.5811 102.51 19.8797 109.643 28.1408 110.588C31.2692 111.956 38.8024 117.82 43.3864 121.383C52.139 128.196 60.5753 134.758 69.0459 138.374C73.5613 140.298 78.0919 141.388 82.6758 141.232ZM29.5316 110.679C29.5354 110.679 29.5392 110.679 29.5468 110.679C29.5392 110.683 29.5354 110.679 29.5316 110.679Z" fill="#111112"/>
<path d="M81.7917 141.438C82.0889 141.438 82.3861 141.434 82.6833 141.422C98.1194 140.893 108.472 126.771 117.606 114.311C118.673 112.856 119.972 109.48 121.23 106.214C122.487 102.948 123.787 99.5762 124.728 98.5055C125.993 98.1092 126.976 97.8768 127.768 97.6862C130.664 96.9927 130.775 96.9661 131 92.2335L131.045 91.2999C131.232 87.5428 126.709 83.3666 119.786 80.9089C111.681 78.032 101.381 78.0167 96.6486 84.4716C95.6998 85.7672 93.8708 88.6212 91.7522 91.9248C87.755 98.1625 82.7976 105.902 80.7095 107.936C76.1255 105.593 68.1579 99.3933 63.3834 95.6781C50.9995 86.0453 41.2219 78.4359 30.4688 78.131C26.102 78.0129 21.9372 79.5943 18.7555 82.5969C15.5738 85.5995 13.7562 89.6653 13.6305 94.0358C13.3904 102.453 19.7424 109.796 28.0911 110.767C31.2118 112.147 38.7527 118.015 43.2643 121.524C52.1197 128.414 60.4799 134.918 68.9695 138.546C73.5192 140.489 77.7259 141.438 81.7917 141.438ZM82.6719 141.041C78.3889 141.19 73.9536 140.256 69.1219 138.195C60.6742 134.59 52.3369 128.101 43.5081 121.231C38.9623 117.695 31.3681 111.785 28.2206 110.409L28.1673 110.394C19.9977 109.46 13.7829 102.278 14.0191 94.0473C14.1411 89.7758 15.9167 85.8091 19.0222 82.875C22.1277 79.941 26.1935 78.394 30.4612 78.5121C41.0923 78.8131 50.8242 86.3883 63.151 95.9753C67.9826 99.7363 76.0646 106.023 80.6638 108.336L80.7819 108.397L80.8772 108.306C82.9386 106.389 88.0065 98.4826 92.0761 92.1306C94.1908 88.8308 96.0161 85.9844 96.9572 84.6964C101.575 78.3978 111.685 78.4359 119.66 81.267C126.423 83.6676 130.847 87.6914 130.668 91.2809L130.622 92.2183C130.413 96.665 130.413 96.665 127.681 97.3166C126.873 97.511 125.871 97.751 124.568 98.1587L124.518 98.174L124.484 98.2121C123.489 99.2904 122.22 102.586 120.879 106.077C119.633 109.32 118.341 112.673 117.305 114.086C108.217 126.474 97.9213 140.516 82.6719 141.041ZM29.5391 110.874L29.5619 110.493L29.5467 110.604L29.5505 110.493L29.5238 110.874H29.5391ZM77.5735 108.295C77.6802 108.295 77.764 108.211 77.764 108.104C77.764 107.997 77.6802 107.913 77.5735 107.913C77.4668 107.913 77.383 107.997 77.383 108.104C77.383 108.211 77.4706 108.295 77.5735 108.295Z" fill="#9999A0"/>
<path d="M90.1898 89.2915L124.697 109.216L129.003 101.759C134.505 92.2294 131.24 80.0436 121.71 74.5413C112.18 69.039 99.9941 72.3046 94.4918 81.8345L90.1898 89.2915Z" fill="#4070F4"/>
</svg>
