<svg width="181" height="151" viewBox="0 0 181 151" fill="none" xmlns="http://www.w3.org/2000/svg">
<path d="M147.34 80.2131C163.14 80.2131 175.948 67.4006 175.948 51.5956C175.948 35.7906 163.14 22.9781 147.34 22.9781C131.541 22.9781 118.732 35.7906 118.732 51.5956C118.732 67.4006 131.541 80.2131 147.34 80.2131Z" fill="#FFD0D1"/>
<path d="M89.2473 28.2878C93.2511 28.2878 96.4969 25.041 96.4969 21.0358C96.4969 17.0306 93.2511 13.7838 89.2473 13.7838C85.2434 13.7838 81.9977 17.0306 81.9977 21.0358C81.9977 25.041 85.2434 28.2878 89.2473 28.2878Z" fill="#FFD0D1"/>
<path d="M122.94 57.235C138.74 57.235 151.548 44.4225 151.548 28.6175C151.548 12.8125 138.74 0 122.94 0C107.14 0 94.3321 12.8125 94.3321 28.6175C94.3321 44.4225 107.14 57.235 122.94 57.235Z" fill="#FFD0D1"/>
<path d="M154.093 23.7439C154.484 25.6254 154.686 27.5728 154.686 29.5709C154.686 30.8539 154.595 32.1167 154.428 33.3541C153.946 29.7078 152.78 26.2796 151.061 23.2013C152.091 23.3331 153.105 23.5106 154.093 23.7439Z" fill="#E9B7B8"/>
<path d="M106.641 42.168C115.665 42.168 122.981 34.8502 122.981 25.8232C122.981 16.7961 115.665 9.47827 106.641 9.47827C97.6172 9.47827 90.3017 16.7961 90.3017 25.8232C90.3017 34.8502 97.6172 42.168 106.641 42.168Z" fill="#E9B7B8"/>
<path d="M103.538 44.1045C112.562 44.1045 119.877 36.7867 119.877 27.7597C119.877 18.7326 112.562 11.4148 103.538 11.4148C94.5138 11.4148 87.1984 18.7326 87.1984 27.7597C87.1984 36.7867 94.5138 44.1045 103.538 44.1045Z" fill="white"/>
<path d="M103.518 44.3537C100.106 44.3537 96.6692 43.3091 93.7187 41.1385C86.3423 35.7224 84.7505 25.3109 90.1649 17.9372C95.5792 10.5584 105.987 8.96605 113.359 14.3822C120.735 19.7984 122.327 30.2098 116.912 37.5835C113.668 42.0108 108.623 44.3537 103.518 44.3537ZM103.564 11.6741C98.6109 11.6741 93.7288 13.9461 90.5806 18.2364C85.3284 25.387 86.8746 35.4789 94.0229 40.7328C101.171 45.9867 111.26 44.44 116.512 37.2894C121.764 30.1388 120.218 20.0469 113.07 14.793C110.2 12.6884 106.864 11.6741 103.564 11.6741Z" fill="#0C152E"/>
<path d="M96.4969 21.8574C93.8505 21.8574 91.4475 20.833 89.6427 19.1747C89.8708 18.8045 90.1091 18.4393 90.3727 18.0843C94.2307 12.8304 100.639 10.5534 106.641 11.7097C106.641 11.7097 106.641 11.7097 106.641 11.7147C106.641 17.3186 102.099 21.8574 96.4969 21.8574Z" fill="#C5CFE4"/>
<path d="M93.3993 20.2954C99.0019 20.2954 103.544 15.7522 103.544 10.1477C103.544 4.54329 99.0019 0 93.3993 0C87.7967 0 83.2549 4.54329 83.2549 10.1477C83.2549 15.7522 87.7967 20.2954 93.3993 20.2954Z" fill="#FFD0D1"/>
<path d="M163.244 74.8528L167.234 98.4445L127.609 101.645L113.947 71.5564L163.244 74.8528Z" fill="#0C152E"/>
<path d="M90.3171 115.586C89.2069 115.586 88.0916 115.464 87.0016 115.226L21.1164 100.722C17.0911 99.8342 13.6539 97.4354 11.4384 93.9666C9.21794 90.4928 8.48791 86.3647 9.37003 82.3432C10.2572 78.3165 12.6552 74.8782 16.1279 72.6569C19.6006 70.4357 23.7273 69.7004 27.7475 70.5878L84.0257 82.9771L109.597 49.4556C112.096 46.1795 115.721 44.0749 119.802 43.5222C123.883 42.9745 127.939 44.0496 131.214 46.5498C134.489 49.0499 136.593 52.6759 137.146 56.7583C137.698 60.8407 136.618 64.8978 134.119 68.1739L102.581 109.52C99.6757 113.314 95.0928 115.586 90.3171 115.586ZM24.3965 70.7248C21.5828 70.7248 18.8249 71.526 16.3966 73.0779C13.0405 75.223 10.7186 78.5498 9.86178 82.4446C9.00501 86.3343 9.71476 90.3305 11.8592 93.6877C14.0037 97.0449 17.3294 99.3676 21.2229 100.225L87.1081 114.729C88.1626 114.962 89.2424 115.079 90.3171 115.079C94.9356 115.079 99.3715 112.883 102.175 109.206L133.713 67.8595C136.132 64.6899 137.171 60.7698 136.639 56.8192C136.106 52.8686 134.073 49.3643 130.905 46.9453C127.736 44.5263 123.817 43.4867 119.868 44.0192C115.919 44.5517 112.416 46.5853 109.998 49.7548L84.2285 83.5349L84.0713 83.4994L27.636 71.0747C26.5561 70.8414 25.4712 70.7248 24.3965 70.7248Z" fill="#0C152E"/>
<path d="M92.2611 125.5H92.769L91.7662 151H91.258L92.2611 125.5Z" fill="#0C152E"/>
<path d="M120.314 137.874L119.833 138.026C119.893 138.216 121.518 143.358 123.971 151H124.501C122.021 143.274 120.375 138.065 120.314 137.874Z" fill="#0C152E"/>
<path d="M55.3188 57.9848L2.04636 62.5298L2.2867 65.3467L55.5592 60.8017L55.3188 57.9848Z" fill="#DFE6F2"/>
<path d="M55.8737 61.067L2.02161 65.6614L1.73183 62.2649L55.5839 57.6704L55.8737 61.067ZM2.55178 65.0324L55.2446 60.5368L55.0538 58.2995L2.3609 62.7951L2.55178 65.0324Z" fill="#0C152E"/>
<path d="M55.4039 58.9813L16.6334 62.2891L16.6828 62.8687L55.4533 59.5609L55.4039 58.9813Z" fill="#0C152E"/>
<path d="M18.0001 64.0062L14.9324 59.5972L0.314529 60.8444L3.37751 96.7457L58.2265 92.0662L55.5592 60.8018L18.0001 64.0062Z" fill="#FF4557"/>
<rect width="20" height="20" transform="translate(19 68)" fill="#FF4557"/>
<path fill-rule="evenodd" clip-rule="evenodd" d="M36.5 78C36.5 82.1421 33.1421 85.5 29 85.5C27.327 85.5 25.782 84.9522 24.5344 84.0262L35.0262 73.5344C35.9522 74.782 36.5 76.327 36.5 78ZM23.4237 83.0156L34.0156 72.4237C32.6869 71.2278 30.9284 70.5 29 70.5C24.8579 70.5 21.5 73.8579 21.5 78C21.5 79.9284 22.2278 81.6869 23.4237 83.0156ZM38 78C38 82.9706 33.9706 87 29 87C24.0294 87 20 82.9706 20 78C20 73.0294 24.0294 69 29 69C33.9706 69 38 73.0294 38 78Z" fill="white"/>
<path d="M58.5411 92.3311L3.11243 97.0601L0 60.5791L15.0758 59.2929L18.1434 63.7018L55.8242 60.4871L58.5411 92.3311ZM3.64259 96.431L57.912 91.801L55.2941 61.1161L17.8567 64.3101L14.7891 59.9012L0.629066 61.1093L3.64259 96.431Z" fill="#FF4557"/>
<path d="M108.973 105.139H89.2168V78.6765L116.948 77.4543L108.973 105.139Z" fill="#0C152E"/>
<path d="M166.833 96.847L181 151H167.227L153.718 98.2112L166.833 96.847Z" fill="#0C152E"/>
<path d="M131.735 110.255C123.761 121.564 119.599 124.678 114.833 126.235C113.581 126.645 111.883 127.203 107.974 127.203C102.407 127.203 92.3645 126.077 72.7551 121.797C64.4561 119.987 56.6082 118.019 50.6615 116.259C40.9734 113.394 35.412 111.046 31.9089 106.162C27.0218 99.3567 28.5781 89.8733 35.3867 84.9896C40.938 81.0035 48.2687 81.3028 53.4296 85.2432C61.105 88.5091 91.7714 95.2895 104.111 96.6435C109.485 89.7262 119.948 73.0365 128.014 58.9534C132.182 51.6811 141.449 49.1658 148.719 53.3293C155.989 57.4929 158.503 66.7683 154.341 74.0355C154.082 74.4869 147.908 85.2584 140.835 96.4762C137.297 102.08 134.316 106.599 131.735 110.255Z" fill="white"/>
<path d="M149 83L104 97L109.009 89.7625L151.5 78.5L149 83Z" fill="#DFE6F2"/>
<path d="M107.97 127.458C100.923 127.458 89.3843 125.688 72.695 122.047C64.3909 120.231 56.533 118.263 50.5812 116.504C40.8373 113.623 35.2404 111.255 31.6968 106.31C26.7386 99.398 28.3254 89.7422 35.2303 84.7824C40.7714 80.8065 48.1275 80.9029 53.552 85.0208C61.0044 88.1751 91.0218 94.9251 103.99 96.3755C109.034 89.8487 119.234 73.7574 127.787 58.8274C132.015 51.4486 141.46 48.8825 148.836 53.112C156.212 57.3415 158.778 66.7843 154.55 74.1681C153.891 75.3143 147.924 85.6953 141.039 96.6189C137.5 102.228 134.524 106.741 131.939 110.408C123.843 121.884 119.706 124.912 114.91 126.484C113.648 126.895 111.924 127.458 107.97 127.458ZM44.234 82.3735C41.1922 82.3735 38.1504 83.3117 35.5243 85.1983C28.8425 89.9958 27.3115 99.3371 32.1074 106.021C35.57 110.844 41.0908 113.172 50.7282 116.022C56.6699 117.782 64.5126 119.744 72.8066 121.555C89.2272 125.14 101.06 126.956 107.97 126.956C111.843 126.956 113.526 126.403 114.753 126.002C119.447 124.466 123.513 121.479 131.528 110.114C134.109 106.452 137.085 101.949 140.613 96.345C147.493 85.4316 153.455 75.0607 154.114 73.9146C158.2 66.7742 155.721 57.6407 148.588 53.5532C141.45 49.4607 132.319 51.9456 128.233 59.081C119.62 74.1124 109.338 90.3305 104.309 96.8015L104.223 96.913L104.081 96.8978C92.1371 95.5894 61.339 88.8851 53.329 85.4772L53.2732 85.4468C50.5863 83.398 47.4127 82.3735 44.234 82.3735Z" fill="#0C152E"/>
<path d="M111.594 44.4907C90.2865 50.0996 76.9179 70.887 79.8481 92.1815L91.0216 94.494L164.253 75.2179C158.194 52.189 134.621 38.4305 111.594 44.4907Z" fill="#4070F4"/>
<path d="M113.931 49.4708C120.968 47.8632 126.372 45.221 125.992 43.5627C125.962 43.4257 125.881 43.304 125.774 43.1925C121.13 42.8476 116.355 43.2381 111.599 44.4907C107.599 45.5456 103.883 47.1278 100.502 49.1563C100.497 49.2324 100.487 49.3085 100.507 49.3795C100.877 51.0327 106.89 51.0784 113.931 49.4708Z" fill="#254898"/>
<path d="M118.54 43.2635C118.753 43.2432 118.96 43.228 119.173 43.2128C118.96 43.228 118.753 43.2432 118.54 43.2635Z" fill="#254898"/>
<path d="M100.502 49.3741C100.882 51.0324 106.895 51.0781 113.931 49.4705C120.968 47.8629 126.372 45.2207 125.992 43.5624C125.962 43.4255 125.88 43.3037 125.774 43.1922C125.774 43.1922 125.774 43.1922 125.769 43.1922C123.594 43.0299 121.389 43.04 119.173 43.2125C118.96 43.2277 118.752 43.2429 118.54 43.2632C118.164 43.2987 117.789 43.3443 117.414 43.39C117.1 43.4305 116.785 43.4711 116.476 43.5117C116.157 43.5573 115.842 43.6029 115.523 43.6587C115.123 43.7247 114.722 43.8007 114.317 43.8819C114.068 43.9326 113.82 43.9732 113.571 44.0289C112.917 44.1709 112.263 44.3231 111.604 44.4955C111.599 44.4955 111.594 44.4955 111.594 44.5006C110.702 44.7339 109.835 45.0026 108.973 45.2917C108.76 45.3627 108.547 45.4337 108.334 45.5098C107.483 45.809 106.636 46.1234 105.815 46.4682C104.988 46.8182 104.187 47.1985 103.391 47.5941C103.199 47.6904 103.001 47.7919 102.808 47.8882C102.023 48.2939 101.247 48.7148 100.497 49.1662C100.492 49.227 100.481 49.3031 100.502 49.3741Z" fill="#101C3D"/>
</svg>
