<svg width="20" height="20" viewBox="0 0 20 20" fill="none" xmlns="http://www.w3.org/2000/svg">
<path d="M13.4599 8.44591C13.7136 8.19192 13.7133 7.78036 13.4593 7.52667C13.2054 7.27298 12.7938 7.27322 12.5401 7.52721L8.97862 11.0929L7.43752 9.69027C7.17204 9.44864 6.76093 9.46797 6.5193 9.73345C6.27766 9.99894 6.29699 10.41 6.56248 10.6517L8.56248 12.472C8.81929 12.7058 9.21449 12.6964 9.45989 12.4507L13.4599 8.44591Z" fill="#8A8CA2"/>
<path fill-rule="evenodd" clip-rule="evenodd" d="M2 2.69572C2 2.19708 2.36736 1.77463 2.86118 1.70541L6.80706 1.15227C8.92533 0.85533 11.0747 0.85533 13.1929 1.15227L17.1388 1.70541C17.6326 1.77463 18 2.19708 18 2.69572V11.6173C18 13.739 16.8795 15.7029 15.053 16.7825L11.0177 19.1677C10.39 19.5388 9.61004 19.5388 8.98232 19.1677L4.94695 16.7825C3.1205 15.7029 2 13.739 2 11.6173V2.69572ZM13.0125 2.43968L16.7 2.9566V11.6173C16.7 13.2793 15.8223 14.8177 14.3916 15.6634L10.3562 18.0486C10.1365 18.1785 9.86352 18.1785 9.64381 18.0486L5.60845 15.6634C4.17773 14.8177 3.3 13.2793 3.3 11.6173V2.9566L6.98753 2.43968C8.98607 2.15953 11.0139 2.15953 13.0125 2.43968Z" fill="#8A8CA2"/>
</svg>
