<svg width="4" height="12" viewBox="0 0 4 12" fill="none" xmlns="http://www.w3.org/2000/svg">
<path fill-rule="evenodd" clip-rule="evenodd" d="M3.3499 1.49999C3.3499 2.24558 2.74549 2.84999 1.9999 2.84999C1.25432 2.84999 0.649902 2.24558 0.649902 1.49999C0.649902 0.754409 1.25432 0.149994 1.9999 0.149994C2.74549 0.149994 3.3499 0.754409 3.3499 1.49999ZM3.3499 5.99999C3.3499 6.74558 2.74549 7.34999 1.9999 7.34999C1.25432 7.34999 0.649902 6.74558 0.649902 5.99999C0.649902 5.25441 1.25432 4.64999 1.9999 4.64999C2.74549 4.64999 3.3499 5.25441 3.3499 5.99999ZM1.9999 11.85C2.74549 11.85 3.3499 11.2456 3.3499 10.5C3.3499 9.75441 2.74549 9.14999 1.9999 9.14999C1.25432 9.14999 0.649902 9.75441 0.649902 10.5C0.649902 11.2456 1.25432 11.85 1.9999 11.85Z" fill="white"/>
</svg>
