<svg xmlns="http://www.w3.org/2000/svg" viewBox="0 0 16 16">
    <g fill="none" fill-rule="evenodd">
        <path d="M0 0h16v16H0z"/>
        <path fill="#2E2C3B" fill-rule="nonzero" d="M5.333.667h7.334C13.4.667 14 1.267 14 2v8.667c0 .366-.3.666-.667.666a.669.669 0 0 1-.666-.666v-8c0-.367-.3-.667-.667-.667H5.333a.669.669 0 0 1-.666-.667c0-.366.3-.666.666-.666zM2.667 3.333H10c.736 0 1.333.597 1.333 1.334V14c0 .736-.597 1.333-1.333 1.333H2.667A1.333 1.333 0 0 1 1.333 14V4.667c0-.737.597-1.334 1.334-1.334z"/>
    </g>
</svg>
