<?xml version="1.0" encoding="UTF-8"?>
<svg width="12px" height="12px" viewBox="0 0 12 12" version="1.1" xmlns="http://www.w3.org/2000/svg" xmlns:xlink="http://www.w3.org/1999/xlink">
    <!-- Generator: sketchtool 52.6 (67491) - http://www.bohemiancoding.com/sketch -->
    <title>D1F1DD12-7DF1-49F4-8479-EC1401AC3676</title>
    <desc>Created with sketchtool.</desc>
    <g id="🔶-Symbols" stroke="none" stroke-width="1" fill="none" fill-rule="evenodd">
        <g id="icons/12px/footer/feedback">
            <g id="round-feedback-24px">
                <polygon id="Path" points="0 0 12 0 12 12 0 12"></polygon>
                <path d="M9.99949975,1 L2.00050025,1 C1.45022511,1 1,1.45 1,2 L1,11 L2.995998,9 L9.99949975,9 C10.5497749,9 11,8.55 11,8 L11,2 C11,1.45 10.5497749,1 9.99949975,1 Z M6.50050025,7 L5.5,7 L5.5,6 L6.50050025,6 L6.50050025,7 Z M6.50050025,4.5 C6.50050025,4.775 6.27538769,5 6.00025013,5 C5.72511256,5 5.5,4.775 5.5,4.5 L5.5,3.5 C5.5,3.225 5.72511256,3 6.00025013,3 C6.27538769,3 6.50050025,3.225 6.50050025,3.5 L6.50050025,4.5 Z" id="Shape" fill="#4E80F7" fill-rule="nonzero"></path>
            </g>
        </g>
    </g>
</svg>