<?xml version="1.0" encoding="UTF-8"?>
<svg width="12px" height="12px" viewBox="0 0 12 12" version="1.1" xmlns="http://www.w3.org/2000/svg" xmlns:xlink="http://www.w3.org/1999/xlink">
    <!-- Generator: sketchtool 52.6 (67491) - http://www.bohemiancoding.com/sketch -->
    <title>B987E51E-FA0A-4112-94A8-706DC1B4ADFF</title>
    <desc>Created with sketchtool.</desc>
    <g id="🔶-Symbols" stroke="none" stroke-width="1" fill="none" fill-rule="evenodd">
        <g id="icons/12px/footer/help">
            <g id="round-help-24px">
                <polygon id="Path" points="0 0 12 0 12 12 0 12"></polygon>
                <path d="M6,1 C3.24,1 1,3.24 1,6 C1,8.76 3.24,11 6,11 C8.76,11 11,8.76 11,6 C11,3.24 8.76,1 6,1 Z M6.5,9.5 L5.5,9.5 L5.5,8.5 L6.5,8.5 L6.5,9.5 Z M7.52664752,5.62366588 L7.06966234,6.08399318 C6.81578169,6.33917462 6.63298761,6.56933828 6.54159058,6.92959443 C6.50096967,7.08970827 6.47558161,7.26983635 6.47558161,7.5 L5.46005899,7.5 L5.46005899,7.24982212 C5.46005899,7.01965847 5.50067989,6.79950193 5.57176648,6.59435606 C5.67331874,6.30414972 5.84087997,6.04396472 6.05413972,5.8338153 L6.68376374,5.20336704 C6.91733395,4.9832105 7.02904144,4.6529757 6.96303246,4.30272666 C6.89702349,3.94247051 6.61267716,3.63725349 6.25724424,3.53718234 C5.69362919,3.38207205 5.17063504,3.69729618 5.00307381,4.17263416 C4.94214245,4.35776579 4.78473645,4.49786541 4.58670954,4.49786541 L4.43438114,4.49786541 C4.13987958,4.49786541 3.93677506,4.21766618 4.01801687,3.93746695 C4.23635423,3.20194398 4.87105587,2.64154552 5.6580859,2.52146013 C6.42988309,2.40137475 7.16613699,2.79665581 7.62312217,3.42210051 C8.22228051,4.23768041 8.04456405,5.113303 7.52664752,5.62366588 Z" id="Shape" fill="#4E80F7" fill-rule="nonzero"></path>
            </g>
        </g>
    </g>
</svg>