<svg height="14" width="14" viewBox="0 0 14 14" xmlns="http://www.w3.org/2000/svg" fill-rule="evenodd" clip-rule="evenodd" stroke-linecap="round">
    <path fill="none" d="M0 0h14v14H0z"/>
    <path d="M13 4c0-1.656-1.344-3-3-3H4C2.344 1 1 2.344 1 4v6c0 1.656 1.344 3 3 3h6c1.656 0 3-1.344 3-3V4z" fill="none" stroke="#4070f4"/>
    <path d="M6.316 8.078v-.134c0-.71.284-1.002.774-1.379l.276-.208c.283-.218.447-.385.447-.71 0-.335-.215-.66-.791-.66-.56 0-.852.275-.852.818H5C5 4.794 5.654 4 7.022 4 8.234 4 9 4.677 9 5.588c0 .543-.24.96-.654 1.27l-.361.276c-.379.284-.55.434-.55.81v.134h-1.12.001zM6.91 10c-.456 0-.697-.26-.697-.685 0-.41.24-.669.697-.669.447 0 .696.26.696.669 0 .426-.249.685-.696.685z" fill="#4070f4" fill-rule="nonzero"/>
</svg>
