<svg xmlns="http://www.w3.org/2000/svg" viewBox="0 0 44 40" width="44" height="40">
    <g fill="none" fill-rule="evenodd">
        <path fill="#FFF" fill-opacity=".01" d="M-2-4h48v48H-2z" opacity=".01"/>
        <rect width="44" height="30" fill="#CAD3EB" rx="2"/>
        <path fill="#3D71FF" d="M20 32h4a2 2 0 0 1 2 2v5h-8v-5a2 2 0 0 1 2-2z"/>
        <rect width="20" height="2" x="12" y="38" fill="#3D71FF" rx="1"/>
        <rect width="3" height="15" x="34" y="8" fill="#3D71FF" rx="1"/>
        <rect width="3" height="10" x="29" y="13" fill="#3D71FF" rx="1"/>
        <path fill="#3D71FF" d="M10.5 16h5a3.5 3.5 0 0 1 3.5 3.5V22a1 1 0 0 1-1 1H8a1 1 0 0 1-1-1v-2.5a3.5 3.5 0 0 1 3.5-3.5z"/>
        <circle cx="13" cy="11" r="3" fill="#3D71FF"/>
    </g>
</svg>
