<svg xmlns="http://www.w3.org/2000/svg" xmlns:xlink="http://www.w3.org/1999/xlink" width="48" height="48" viewBox="0 0 48 48">
    <defs>
        <path id="a" d="M8 .98h33.476v46.043H8z"/>
        <path id="c" d="M8 47h33V1H8z"/>
    </defs>
    <g fill="none" fill-rule="evenodd">
        <path fill="#FFF" fill-opacity=".1" d="M0 0h48v48H0z" opacity=".1"/>
        <mask id="b" fill="#fff">
            <use xlink:href="#a"/>
        </mask>
        <path fill="#DFE6F2" d="M32.431 43.477c-1.696 2.231-4.369 3.546-7.209 3.546h-1.488c-2.93 0-5.676-1.399-7.359-3.749l-6.584-9.193a9.535 9.535 0 0 1-1.79-5.557V3.02C8 1.893 8.931.98 10.082.98h29.31c1.151 0 2.083.913 2.083 2.04v25.353c0 2.082-.685 4.109-1.955 5.78l-7.09 9.324z" mask="url(#b)"/>
        <path fill="#FFF" d="M37.799 26.027H11.678c-.55 0-1-.44-1-.98V8.712c0-.54.45-.98 1-.98h26.12c.55 0 1 .44 1 .98v16.335c0 .54-.45.98-1 .98" mask="url(#b)"/>
        <path stroke="#3D71FF" stroke-linecap="round" stroke-linejoin="round" stroke-width=".25" d="M37.799 26.027H11.678c-.55 0-1-.44-1-.98V8.712c0-.54.45-.98 1-.98h26.12c.55 0 1 .44 1 .98v16.335c0 .54-.45.98-1 .98z" mask="url(#b)"/>
        <mask id="d" fill="#fff">
            <use xlink:href="#c"/>
        </mask>
        <path stroke="#BAC6D8" stroke-linecap="round" stroke-linejoin="round" stroke-width=".25" d="M16.924 14.093h3.993V10.18h-3.993zM21.962 14.093h3.993V10.18h-3.993zM26.917 14.093h3.993V10.18h-3.993z" mask="url(#d)"/>
        <path fill="#3D71FF" d="M16.924 18.996h3.993v-3.911h-3.993z" mask="url(#d)"/>
        <path stroke="#BAC6D8" stroke-linecap="round" stroke-linejoin="round" stroke-width=".25" d="M21.962 18.996h3.993v-3.911h-3.993zM26.917 18.996h3.993v-3.911h-3.993zM16.924 23.9h3.993v-3.912h-3.993zM21.962 23.9h3.993v-3.912h-3.993zM26.917 23.9h3.993v-3.912h-3.993z" mask="url(#d)"/>
    </g>
</svg>
