<svg width="19" height="17" xmlns="http://www.w3.org/2000/svg"><g fill="#8A8CA2" fill-rule="evenodd"><path d="M13.353 2.249l-.626.622c-.997-.433-2.091-.652-3.283-.652-3.38 0-5.985 1.758-7.757 5.202a2.049 2.049 0 0 0 0 1.874c.544 1.057 1.166 1.955 1.865 2.692l-.572.568c-.85-.857-1.602-1.92-2.253-3.187a2.302 2.302 0 0 1 0-2.106c1.991-3.87 4.919-5.845 8.717-5.845 1.427 0 2.731.278 3.91.832zm2.368 1.641c.927.888 1.742 2.013 2.44 3.372.34.66.34 1.446 0 2.106-1.99 3.87-4.918 5.846-8.717 5.846-1.529 0-2.916-.32-4.159-.955l.563-.56c1.079.531 2.279.798 3.596.798 3.38 0 5.986-1.758 7.758-5.202a2.049 2.049 0 0 0 0-1.874c-.602-1.17-1.3-2.145-2.092-2.923l.611-.608zm-7.204 7.157l3.48-3.456a2.838 2.838 0 0 1-2.741 3.553c-.256 0-.503-.033-.739-.097zm-2-2.006a2.837 2.837 0 0 1 3.486-3.464L6.517 9.041z"/><path d="M16.146.658L1.602 15.256a.472.472 0 1 0 .669.667L16.815 1.325a.472.472 0 0 0-.669-.667z" fill-rule="nonzero"/></g></svg>