<svg xmlns="http://www.w3.org/2000/svg" width="24" height="24" viewBox="0 0 24 24">
    <g fill="none" fill-rule="evenodd">
        <path fill="#1E194D" d="M16.024 8.885c0 2.245-1.803 4.95-4.024 4.95s-4.024-2.705-4.024-4.95a4.07 4.07 0 0 1 2.012-3.52 3.99 3.99 0 0 1 4.024 0 4.07 4.07 0 0 1 2.012 3.52zm3.614 11.757c0 .302-4 3.023-7.638 3.023-3.572 0-7.638-2.516-7.638-3.023 0-3.312 4.358-5.997 7.638-5.997 3.28 0 7.638 2.685 7.638 5.997z"/>
        <circle cx="12" cy="12" r="11.25" stroke="#1E194D" stroke-width="1.5"/>
        <path d="M.235.238h23.529V24H.235z"/>
    </g>
</svg>
