<svg xmlns="http://www.w3.org/2000/svg" width="48" height="48" viewBox="0 0 48 48">
    <path d="M8 0h32c4.388 0 8 3.612 8 8v32c0 4.388-3.612 8-8 8H8c-4.388 0-8-3.612-8-8V8c0-4.388 3.612-8 8-8z" fill="#d8f1e9" />
    <path d="M13.5 19.5h17.4l-1.95 1.95c-.6.6-.6 1.5 0 2.1.3.3.6.45 1.05.45.398.012.784-.154 1.05-.45l4.5-4.5c.6-.6.6-1.5 0-2.1l-4.5-4.5c-.6-.6-1.5-.6-2.1 0-.6.6-.6 1.5 0 2.1l1.95 1.95H13.5c-.9 0-1.5.6-1.5 1.5s.6 1.5 1.5 1.5zm21 9H17.1l1.95-1.95c.6-.6.6-1.5 0-2.1-.6-.6-1.5-.6-2.1 0l-4.5 4.5c-.6.6-.6 1.5 0 2.1l4.5 4.5c.3.3.6.45 1.05.45.398.012.784-.154 1.05-.45.6-.6.6-1.5 0-2.1L17.1 31.5h17.4c.9 0 1.5-.6 1.5-1.5s-.6-1.5-1.5-1.5z" fill="#3db891"/>
</svg>
