<svg xmlns="http://www.w3.org/2000/svg" width="24" height="24" viewBox="0 0 24 24">
    <path fill="#1E194D" fill-rule="nonzero" d="M18.11 8.593c1.588 0 2.895 1.283 2.89 2.882v9.619C21 22.688 19.698 24 18.106 24H5.894C4.307 24 3 22.688 3 21.094v-9.619a2.89 2.89 0 0 1 2.894-2.882h.107V6.007C6 2.697 8.706 0 12.002 0c3.296 0 6.002 2.697 6.002 6.007v2.586h.107zM7.647 6.007v2.586h8.712V6.007c0-2.396-1.965-4.35-4.356-4.35-2.39 0-4.356 1.95-4.356 4.35zm11.665 15.096V11.49c0-.686-.557-1.245-1.24-1.245H5.886c-.683 0-1.24.56-1.24 1.245v9.613c0 .686.557 1.245 1.24 1.245h12.187c.682 0 1.239-.56 1.239-1.245zm-7.309-5.147c.455 0 .823.37.823.827v2.109a.824.824 0 1 1-1.645 0v-2.11c0-.456.367-.826.822-.826z"/>
</svg>
