<svg xmlns="http://www.w3.org/2000/svg" xmlns:xlink="http://www.w3.org/1999/xlink" width="56" height="56" viewBox="0 0 56 56">
    <defs>
        <circle id="a" cx="28" cy="28" r="28"/>
    </defs>
    <g fill="none" fill-rule="evenodd">
        <mask id="b" fill="#fff">
            <use xlink:href="#a"/>
        </mask>
        <circle cx="28" cy="28" r="27" stroke="#1E194D" stroke-width="2"/>
        <path fill="#1E194D" fill-rule="nonzero" d="M34.11 24.593c1.588 0 2.895 1.283 2.89 2.882v9.619C37 38.688 35.698 40 34.106 40H21.894C20.307 40 19 38.688 19 37.094v-9.619a2.89 2.89 0 0 1 2.894-2.882h.107v-2.586C22 18.697 24.706 16 28.002 16c3.296 0 6.002 2.697 6.002 6.007v2.586h.107zm-10.464-2.586v2.586h8.712v-2.586c0-2.396-1.965-4.35-4.356-4.35-2.39 0-4.356 1.95-4.356 4.35zm11.665 15.096V27.49c0-.686-.557-1.245-1.24-1.245H21.886c-.683 0-1.24.56-1.24 1.245v9.613c0 .686.557 1.245 1.24 1.245h12.187c.682 0 1.239-.56 1.239-1.245zm-7.309-5.147c.455 0 .823.37.823.827v2.109a.824.824 0 1 1-1.645 0v-2.11c0-.456.367-.826.822-.826z" mask="url(#b)"/>
    </g>
</svg>
