<svg xmlns="http://www.w3.org/2000/svg" width="16" height="16" viewBox="0 0 16 16">
    <g fill="none" fill-rule="evenodd">
        <path d="M0 0h16v16H0z"/>
        <path fill="#2E2C3B" fill-rule="nonzero" d="M10.193 10.86c.26.26.68.26.94 0l2.394-2.393c.26-.26.26-.68 0-.94l-2.394-2.394a.664.664 0 1 0-.94.94l1.254 1.26h-5.78C5.3 7.333 5 7.633 5 8c0 .367.3.667.667.667h5.78L10.193 9.92a.67.67 0 0 0 0 .94zM3.333 2h9.334C13.407 2 14 2.6 14 3.333v1c0 .367-.3.667-.667.667a.669.669 0 0 1-.666-.667V4c0-.367-.3-.667-.667-.667H4c-.367 0-.667.3-.667.667v8c0 .367.3.667.667.667h8c.367 0 .667-.3.667-.667v-.333c0-.367.3-.667.666-.667.367 0 .667.3.667.667v1C14 13.4 13.4 14 12.667 14H3.333C2.6 14 2 13.4 2 12.667V3.333C2 2.6 2.6 2 3.333 2z"/>
    </g>
</svg>
