<?xml version="1.0" encoding="UTF-8"?>
<svg width="40px" height="42px" viewBox="0 0 40 42" version="1.1" xmlns="http://www.w3.org/2000/svg" xmlns:xlink="http://www.w3.org/1999/xlink">
    <!-- Generator: sketchtool 54.1 (76490) - https://sketchapp.com -->
    <title>105EB360-06BD-4023-B197-2424231A5CE4</title>
    <desc>Created with sketchtool.</desc>
    <g id="ðŸ¡--1.0-Dashboard" stroke="none" stroke-width="1" fill="none" fill-rule="evenodd">
        <g id="1.1.1-Dashboard" transform="translate(-487.000000, -247.000000)">
            <g id="Community-Feed---5-Col" transform="translate(467.000000, 179.000000)">
                <g id="item">
                    <g transform="translate(20.000000, 68.429499)">
                        <g id="Group">
                            <path d="M0,20.4267161 C0,31.7084244 8.95377749,40.8534323 19.999575,40.8534323 C31.0453724,40.8534323 40,31.7084244 40,20.4267161 C40,9.14500791 31.0453724,0 19.999575,0 C8.95377749,0 0,9.14500791 0,20.4267161" id="Fill-1" fill="#DFE6F2"></path>
                            <g id="Group-6" transform="translate(8.420842, 7.525632)" stroke="#4070F4" stroke-width="1.5">
                                <g id="Group-5">
                                    <path d="M16.0368421,5.14627857 C16.0368421,7.66180211 14.0413426,9.70176905 11.5794394,9.70176905 C9.11753611,9.70176905 7.12105263,7.66180211 7.12105263,5.14627857 C7.12105263,2.63075503 9.11753611,0.591793504 11.5794394,0.591793504 C14.0413426,0.591793504 16.0368421,2.63075503 16.0368421,5.14627857 Z" id="Stroke-1"></path>
                                    <path d="M22.5797579,24.1355201 C22.5797579,17.9703041 17.6144599,12.8959396 11.5791751,12.8959396 C5.55088372,12.8959396 0.587916835,17.960777 0.579757895,24.1212295" id="Shape"></path>
                                </g>
                            </g>
                        </g>
                    </g>
                </g>
            </g>
        </g>
    </g>
</svg>