<svg xmlns="http://www.w3.org/2000/svg" xmlns:xlink="http://www.w3.org/1999/xlink" width="44" height="40" viewBox="0 0 44 40">
  <defs>
    <polygon id="no-tweets-a" points="0 39.235 43.609 39.235 43.609 0 0 0"/>
  </defs>
  <g fill="none" fill-rule="evenodd">
    <path fill="#DFE6F2" d="M0.0004,29.7267 C4.5594,30.0347 8.5394,28.9537 12.2174,26.2027 C10.3444,25.9747 8.7234,25.5127 7.3474,24.4397 C6.0004,23.3887 4.9774,22.0987 4.4354,20.3047 L7.8354,20.3047 C7.8554,20.2277 7.8764,20.1497 7.8964,20.0727 C6.0204,19.5457 4.4304,18.5847 3.2314,17.0637 C2.0424,15.5537 1.4614,13.8237 1.4054,11.9057 L4.8894,12.8797 C4.9534,12.7497 4.9384,12.7797 5.0034,12.6497 C3.3344,11.3147 2.1364,9.6847 1.7044,7.5727 C1.2784,5.4947 1.5194,3.5127 2.6034,1.5287 C7.1864,6.8877 12.9424,9.8497 20.0254,10.3577 C19.6664,7.4537 19.8414,4.8797 22.5934,2.2277 C25.7214,-0.7873 30.6604,-0.6723 33.9614,2.1507 C34.4274,2.5487 34.8444,2.6137 35.3564,2.4307 C36.8054,1.9137 38.2434,1.3697 39.7184,0.8237 C39.1504,2.6317 37.9284,3.9747 36.4794,5.2827 L40.7044,4.1647 C40.7654,4.2697 40.7574,4.2567 40.8174,4.3617 C39.7644,5.4397 38.7654,6.5807 37.6264,7.5597 C37.0074,8.0927 36.7944,8.5867 36.7654,9.3867 C36.4364,18.3807 32.7494,25.6377 24.8964,30.1907 C16.9104,34.8217 8.6634,34.5487 0.5624,30.1297 C0.4114,30.0467 0.2804,29.9287 0.0004,29.7267"/>
    <mask id="no-tweets-b" fill="#fff">
      <use xlink:href="#no-tweets-a"/>
    </mask>
    <polygon fill="#4070F4" points="26.413 39.235 43.609 39.235 43.609 22.039 26.413 22.039" mask="url(#no-tweets-b)"/>
    <path stroke="#FFF" stroke-width="1.5" d="M29.7602 25.3868L40.2602 35.8868M40.2602 25.3868L29.7602 35.8868" mask="url(#no-tweets-b)"/>
  </g>
</svg>
