<svg xmlns="http://www.w3.org/2000/svg" width="16" height="16" viewBox="0 0 16 16">
    <g fill="none" fill-rule="evenodd">
        <circle cx="8" cy="8" r="8" fill="#868BA1"/>
        <path fill="#FFF" d="M5 6.45C5.03 5.007 6.049 4 7.848 4c1.675 0 2.783.932 2.783 2.268 0 .884-.428 1.5-1.254 1.986-.78.451-.996.738-.996 1.312v.311H6.828l-.012-.34c-.076-.92.247-1.447 1.055-1.922.756-.45.984-.738.984-1.295 0-.556-.445-.96-1.113-.96-.674 0-1.119.427-1.154 1.09H5zm2.625 6.228c-.527 0-.955-.405-.955-.92 0-.516.428-.92.955-.92.533 0 .96.404.96.92 0 .515-.427.92-.96.92z"/>
    </g>
</svg>
