<svg xmlns="http://www.w3.org/2000/svg" width="19" height="20" viewBox="0 0 19 20">
  <g fill="none" fill-rule="evenodd" stroke="#4070F4" transform="translate(1 1)">
    <path d="M16.893,15.37245 L12.74925,10.81995 C14.47275,8.20395 14.18475,4.6512 11.88225,2.34945 C9.24975,-0.28305 4.98225,-0.28305 2.349,2.34945 C-0.28275,4.98195 -0.28275,9.2502 2.349,11.8827 C4.58175,14.11545 7.98825,14.44695 10.57875,12.89145 L14.6745,17.3922 C14.97075,17.7177 15.3765,17.8827 15.78375,17.8827 C16.1445,17.8827 16.506,17.7537 16.79325,17.49195 C17.406,16.93395 17.451,15.9852 16.893,15.37245 Z"/>
    <path d="M10.486125,3.745575 C12.347625,5.607075 12.347625,8.625075 10.486125,10.486575 C8.625375,12.348075 5.606625,12.348075 3.745125,10.486575 C1.884375,8.625075 1.884375,5.607075 3.745125,3.745575 C5.606625,1.884075 8.625375,1.884075 10.486125,3.745575 Z"/>
  </g>
</svg>
