<svg xmlns="http://www.w3.org/2000/svg" viewBox="0 0 24 24">
    <g fill="none" fill-rule="evenodd">
        <path fill="#FFF" fill-opacity=".1" d="M0 0h24v24H0z" opacity=".1"/>
        <g fill-rule="nonzero" stroke="#8A8CA2" transform="translate(1 5)">
            <path d="M4 7.5A3.5 3.5 0 0 0 .5 11v3a.5.5 0 0 0 .5.5h10a.5.5 0 0 0 .5-.5v-3A3.5 3.5 0 0 0 8 7.5H4z"/>
            <circle cx="6" cy="3" r="2.5"/>
            <path d="M16.5 1v1.5H15a.5.5 0 0 0-.5.5v2a.5.5 0 0 0 .5.5h1.5V7a.5.5 0 0 0 .5.5h2a.5.5 0 0 0 .5-.5V5.5H21a.5.5 0 0 0 .5-.5V3a.5.5 0 0 0-.5-.5h-1.5V1a.5.5 0 0 0-.5-.5h-2a.5.5 0 0 0-.5.5z"/>
        </g>
    </g>
</svg>
