<svg xmlns="http://www.w3.org/2000/svg" width="24" height="24" viewBox="0 0 24 24">
    <g fill="#00B262" fill-rule="evenodd">
        <path fill-opacity=".2" d="M4 0h16a4 4 0 0 1 4 4v16a4 4 0 0 1-4 4H4a4 4 0 0 1-4-4V4a4 4 0 0 1 4-4z"/>
        <path d="M11.34 15.021c.39.39 1.02.39 1.41 0l6.36-6.36a.996.996 0 0 0 0-1.41l-4.95-4.95a.975.975 0 0 0-1.4-.01l-6.37 6.37a.996.996 0 0 0 0 1.41l4.95 4.95zm2.12-10.61L17 7.951l-4.95 4.95-3.54-3.54 4.95-4.95zm6.95 11l-2.12-2.12c-.18-.18-.44-.29-.7-.29h-.27l-2 2h1.91l1.77 2H5l1.78-2h2.05l-2-2h-.42c-.27 0-.52.11-.71.29l-2.12 2.12c-.37.38-.58.89-.58 1.42v3.17c0 1.1.9 2 2 2h14a2 2 0 0 0 2-2v-3.17c0-.53-.21-1.04-.59-1.42z"/>
    </g>
</svg>
