<svg xmlns="http://www.w3.org/2000/svg" width="644" height="374" viewBox="0 0 644 374">
  <g fill="none" fill-rule="evenodd" transform="translate(6 4)">
    <path fill="#254898" fill-rule="nonzero" d="M467.295792,79.7179031 C425.555908,79.7179031 385.258697,78.469087 353.801923,76.2103588 L353.400578,76.2103588 L353.400578,0 L353.867006,0 C385.32378,2.26958749 425.577602,3.5075443 467.295792,3.5075443 L468.597452,3.5075443 L468.597452,79.7179031 L467.295792,79.7179031 Z M354.268351,75.3741949 C385.638347,77.6112046 425.751157,78.8491614 467.295792,78.8491614 L467.707984,78.8491614 L467.707984,4.39800446 L467.295792,4.39800446 C425.762004,4.39800446 385.649194,3.17090692 354.268351,0.933897243 L354.268351,75.3741949 Z"/>
    <path fill="#254898" fill-rule="nonzero" d="M467.295792,12.5098794 C425.555908,12.5098794 385.247849,11.0655964 353.801923,8.44851227 L353.400578,8.44851227 L353.400578,0 L353.867006,0 C385.32378,2.61708414 425.588449,4.06136708 467.295792,4.06136708 L468.597452,4.06136708 L468.597452,12.4664423 L467.295792,12.5098794 Z M354.268351,7.60148919 C385.638347,10.1968548 425.751157,11.6302785 467.295792,11.6302785 L467.707984,11.6302785 L467.707984,4.96268651 L467.295792,4.96268651 C425.772851,4.96268651 385.649194,3.52926284 354.268351,0.933897243 L354.268351,7.60148919 Z"/>
    <ellipse cx="410.988" cy="42.818" fill="#4070F4" fill-rule="nonzero" rx="9.502" ry="9.513"/>
    <path fill="#254898" fill-rule="nonzero" d="M509.024829,201.689227 L509.024829,192.828062 L509.447868,192.828062 L514.188079,192.697751 C515.981476,192.654314 517.760411,192.600018 519.524883,192.534862 L521.217041,192.534862 L524.915923,192.41541 L526.727399,192.350254 L530.426282,192.209084 L532.042509,192.143928 L537.16237,191.937602 L537.16237,191.937602 L542.184607,191.709557 L543.735751,191.633542 L547.206844,191.470653 L548.877307,191.383779 L552.294163,191.210031 L553.769377,191.134016 L558.477046,190.862534 L560.505466,190.743082 L562.512191,190.612771 C567.838148,190.286993 572.925468,189.928637 577.698219,189.526844 L577.698219,189.830904 L577.698219,189.526844 L580.713731,189.277081 L581.429644,189.222784 L587.070168,188.723258 L587.720998,188.723258 L590.346012,188.473495 L594.066589,188.09342 L594.066589,188.09342 L597.537681,187.713346 L597.537681,187.713346 C598.622397,187.593894 599.707114,187.463583 600.79183,187.333271 L602.440599,187.137805 L602.993804,187.06179 L604.07852,186.931478 L604.707656,186.855464 L605.60797,186.736012 L606.215412,186.649137 L607.104879,186.529685 L607.668931,186.442811 L608.525857,186.323359 L609.079063,186.247344 L609.903447,186.117033 L610.413264,186.041018 L611.281037,185.910707 L611.682382,185.845551 L612.908111,185.650085 L614.361631,185.400321 L614.697893,185.335166 L616.053789,185.096262 L617.322907,184.857358 L617.637474,184.792202 L618.787274,184.553298 L618.787274,184.553298 L619.87199,184.314394 L620.143169,184.260098 L621.162803,184.021194 L622.551239,183.684557 L622.551239,183.684557 C622.995973,183.575964 623.408165,183.467371 623.798663,183.347919 L624.88338,183.022141 L625.393196,182.859252 C625.718611,182.761519 626.033179,182.652926 626.326052,182.544333 C626.618926,182.435741 626.890105,182.338007 627.139589,182.240274 L627.139589,182.240274 C627.51924,182.088244 627.855502,181.947073 628.159223,181.805903 L628.159223,181.805903 L628.712428,181.534421 L628.712428,181.534421 L629.178856,181.273799 C629.310219,181.198118 629.436991,181.114718 629.558507,181.024035 C629.728586,180.903227 629.891565,180.772699 630.046629,180.633102 L630.046629,180.633102 C630.238775,180.453694 630.390405,180.235251 630.491363,179.992405 L630.491363,179.992405 C630.491363,179.992405 630.491363,179.927249 630.491363,179.894671 C624.579659,173.96551 586.907461,169.773831 521.455678,167.764866 C487.406433,166.678939 446.740418,166.277146 403.839887,166.472613 L401.670455,166.472613 L401.768079,238.99082 C413.699959,239.490347 431.814721,239.446909 452.749746,239.381754 L460.950202,239.381754 L458.162481,206.10895 L509.024829,201.689227 Z"/>
    <path fill="#DFE6F2" fill-rule="nonzero" d="M463.683687,270.623874 L458.260105,205.95692 L490.801595,203.220384 L492.049387,179.927249 C492.108593,170.73534 484.94299,163.118752 475.774221,162.62816 C466.605453,162.137569 458.669725,168.946131 457.750288,178.092032 L454.116489,246.201376 L427.801271,307.708282 C425.383072,313.360923 426.16085,319.875712 429.841623,324.798592 C433.522397,329.721471 439.546968,332.304538 445.645941,331.574777 C451.744913,330.845015 456.991706,326.913293 459.409904,321.260652 L481.722519,269.136154 L463.683687,270.623874 Z"/>
    <polygon points="462.015 204.644 561.639 204.635 561.634 268.877 462.01 268.886" transform="rotate(-4.574 511.824 236.76)"/>
    <polygon fill="#254898" fill-rule="nonzero" points="509.025 265.944 464.465 269.69 459.193 206.739 509.025 202.547 509.025 201.689 458.26 205.957 463.684 270.624 509.025 266.812"/>
    <path fill="#254898" fill-rule="nonzero" d="M493.003569,277.465215 L510.033615,279.778239 L508.048584,294.50341 L517.409686,268.777798 L509.523799,268.994984 L509.079065,268.994984 L509.079065,234.093289 L461.232228,234.093289 L439.310111,293.75412 C430.260717,318.453123 426.922897,344.884741 429.547664,371.061265 L481.776755,371.061265 L481.29948,364.154769 L493.003569,277.465215 Z"/>
    <polygon fill="#254898" fill-rule="nonzero" points="289.175 371.061 296.974 269.733 280.345 371.061"/>
    <ellipse cx="491.865" cy="99.058" fill="#4070F4" fill-rule="nonzero" rx="8.504" ry="8.514"/>
    <ellipse cx="519.959" cy="128.291" fill="#4070F4" fill-rule="nonzero" rx="33.561" ry="33.599"/>
    <ellipse cx="505.803" cy="115" fill="#254898" fill-rule="nonzero" rx="19.167" ry="19.188"/>
    <ellipse cx="501.519" cy="114.902" fill="#DFE6F2" fill-rule="nonzero" rx="19.167" ry="19.188"/>
    <path fill="#C5CFE4" fill-rule="nonzero" d="M498.437998,104.553054 C495.948412,102.913194 494.169961,100.39188 493.45915,97.4945285 C493.925578,97.2773431 494.392006,97.0710169 494.880128,96.8972686 C501.826719,94.3294999 509.629302,95.9948945 514.925686,101.175821 L514.925686,101.175821 C511.293711,106.650756 503.92608,108.159895 498.437998,104.553054 L498.437998,104.553054 Z"/>
    <ellipse cx="502.972" cy="91.077" fill="#4070F4" fill-rule="nonzero" rx="11.899" ry="11.913"/>
    <path fill="#254898" fill-rule="nonzero" d="M509.469563,268.994984 L509.024829,268.994984 L509.024829,234.093289 L492.341892,234.093289 L492.341892,371.061265 L561.004435,371.061265 L561.004435,266.812271 C544.343193,267.843901 526.477915,268.560613 509.469563,268.994984 Z"/>
    <path fill="#DFE6F2" fill-rule="nonzero" d="M509.024829 228.098972C500.051548 228.308281 492.75114 235.396887 492.268052 244.369598 491.784964 253.342308 498.28199 261.175424 507.180811 262.34911L509.024829 262.598874 509.024829 228.098972zM563.206409 190.515038C560.398423 183.853855 553.729318 179.661573 546.516373 180.023473 539.303428 180.385373 533.086438 185.224198 530.957793 192.133069 542.358162 191.687839 553.205325 191.123157 563.206409 190.515038z"/>
    <path fill="#2BD67B" fill-rule="nonzero" d="M509.024829,192.828062 L509.447868,192.828062 C528.842596,192.328536 547.195996,191.535809 563.379964,190.515038 C555.95898,161.555659 528.224318,142.606752 498.582318,146.243917 C468.940319,149.881082 446.597757,174.974619 446.382461,204.870993 L464.887722,208.3351 C479.437997,211.060722 494.223549,212.326663 509.024829,212.114126 L509.024829,192.828062 Z"/>
    <ellipse cx="504.391" cy="149.284" fill="#254898" fill-rule="nonzero" rx="13.646" ry="3.562" transform="rotate(-1.34 504.391 149.284)"/>
    <polygon fill="#254898" fill-rule="nonzero" points="281.213 371.061 296.833 269.799 295.987 269.668 280.345 371.061"/>
    <polygon fill="#254898" fill-rule="nonzero" points="210.956 274.881 222.551 202.124 221.705 201.982 210.088 274.881"/>
    <polygon fill="#254898" fill-rule="nonzero" points="197.874 351.504 194.761 371.05 195.629 371.05 198.753 351.504"/>
    <path fill="#DFE6F2" fill-rule="nonzero" d="M367.100545,190.03723 C357.110308,190.03723 342.054445,183.706275 314.112153,170.39281 C310.434965,168.633608 305.965933,166.505191 304.013444,165.669027 C296.348307,163.70347 291.012975,156.75428 291.08675,148.833207 C291.162069,140.912133 296.627242,134.064816 304.328012,132.244193 C310.83631,130.702177 313.938598,132.189897 328.885989,139.302719 C336.695947,143.027449 355.852037,152.149236 364.681628,154.896631 C369.161506,150.932997 376.711132,142.039255 381.53812,136.359857 C396.463816,118.811276 406.323888,107.202696 419.307942,107.202696 C427.925041,107.189579 435.220798,113.564697 436.3726,122.114014 C437.524401,130.663331 432.176417,138.745674 423.86375,141.018484 C420.229951,143.961346 412.788797,152.713918 407.734019,158.675657 C390.725667,178.678433 380.442556,190.03723 367.100545,190.03723 Z"/>
    <polyline fill="#2BD67B" fill-rule="nonzero" points="307.864 126.652 354.019 149.945 352.023 191.264 338.768 189.549"/>
    <path fill="#4070F4" fill-rule="nonzero" d="M347.109223,185.096262 C347.114671,185.016719 347.114671,184.9369 347.109223,184.857358 C347.406301,162.257704 335.533166,141.246325 316.031122,129.859772 C296.529077,118.473218 272.415481,118.473218 252.913437,129.859772 C233.411393,141.246325 221.538258,162.257704 221.835335,184.857358 C221.835335,184.933373 221.835335,185.020247 221.835335,185.096262 L347.109223,185.096262 Z"/>
    <path d="M347.109223,190.63449 L338.713519,189.548563 L308.677724,128.410871 C290.4713,121.944863 270.343662,123.840894 253.661624,133.593408 C236.979586,143.345923 225.439119,159.963435 222.117362,179.01507 C221.943807,180.937161 221.835335,182.880971 221.835335,184.857358 C221.835335,184.933373 221.835335,185.020247 221.835335,185.096262 L221.835335,200.082055 L227.790428,250.165009 L347.109223,250.165009 L347.109223,190.63449 Z"/>
    <polygon fill="#2BD67B" fill-rule="nonzero" points="307.864 126.652 307.864 126.652 307.984 126.652"/>
    <path fill="#4070F4" fill-rule="nonzero" d="M347.109223,185.096262 C347.114631,185.016719 347.114631,184.9369 347.109223,184.857358 C347.129651,166.161142 338.797858,148.435323 324.395264,136.533605 C319.545074,133.130278 314.258152,130.398027 308.677724,128.410871 L338.713519,189.548563 L347.109223,190.63449 L347.109223,185.096262 L347.109223,185.096262 Z"/>
    <path fill="#4070F4" fill-rule="nonzero" d="M351.947058,182.59863 L351.947058,182.848393 L351.947058,182.848393 L352.261626,185.530633 L353.986325,149.944804 L317.10597,131.332015 C319.659465,132.890405 322.099001,134.628655 324.406111,136.533605 C339.738891,147.244137 349.762483,164.009608 351.947058,182.59863 L351.947058,182.59863 Z"/>
    <path fill="#254898" fill-rule="nonzero" d="M221.878724 184.857358C221.878724 182.880971 221.987196 180.937161 222.16075 179.01507 221.067078 185.30176 220.891691 191.714186 221.640086 198.051371 221.640086 198.127386 221.640086 198.21426 221.640086 198.301134L221.846182 200.082055 221.846182 185.096262C221.889571 185.020247 221.878724 184.933373 221.878724 184.857358zM351.9796 182.848393L351.9796 182.59863C349.802841 164.015125 339.791668 147.250616 324.471194 136.533605 338.84543 148.450027 347.148358 166.173682 347.109223 184.857358 347.114631 184.9369 347.114631 185.016719 347.109223 185.096262L347.109223 185.096262 347.109223 190.63449 351.9796 191.264327 352.250779 185.530633 351.936211 182.848393 351.9796 182.848393z"/>
    <polygon fill="#2BD67B" fill-rule="nonzero" points="221.89 250.165 227.812 250.165 221.89 200.082"/>
    <path fill="#4070F4" fill-rule="nonzero" d="M279.075816 125.087934C289.081317 123.890054 299.227991 125.027393 308.721113 128.410871L307.864187 126.662528C289.520935 119.290597 268.777993 121.020007 251.905492 131.327997 235.032991 141.635987 224.011139 159.312778 222.171597 179.01507 227.165873 150.433084 250.294923 128.514086 279.075816 125.087934L279.075816 125.087934zM307.983506 126.705966L317.138511 131.332015C314.218811 129.541115 311.156803 127.993873 307.983506 126.705966L307.983506 126.705966z"/>
    <path fill="#4070F4" fill-rule="nonzero" d="M324.438652,136.533605 C322.131542,134.628655 319.692006,132.890405 317.138511,131.332015 L307.983506,126.705966 L307.864187,126.705966 L308.721113,128.454308 C314.29923,130.427881 319.586045,133.145466 324.438652,136.533605 Z"/>
    <polygon fill="#254898" fill-rule="nonzero" points="358.976 371.061 348.075 206.674 347.218 206.728 358.119 371.061"/>
    <ellipse cx="285.345" cy="84.377" fill="#DFE6F2" fill-rule="nonzero" rx="23.755" ry="23.782"/>
    <path fill="#C5CFE4" fill-rule="nonzero" d="M279.986977,61.1376916 C269.836451,66.9160298 265.382587,79.220446 269.479041,90.1673219 C273.575495,101.114198 285.008588,107.460243 296.452971,105.139455 C288.290678,109.754858 278.180425,109.133141 270.643737,103.552348 C263.107048,97.971556 259.55349,88.4754483 261.572289,79.3108898 C263.591088,70.1463314 270.804675,63.0273436 279.986977,61.1376916 L279.986977,61.1376916 Z"/>
    <path fill="#4070F4" fill-rule="nonzero" d="M246.469243,213.211227 C271.856526,219.554554 298.294126,219.499442 323.657657,213.050317 L347.109223,207.085172 L347.109223,183.178619 L221.889571,183.178619 L221.889571,207.085172 L246.469243,213.211227 Z"/>
    <path fill="#2BD67B" fill-rule="nonzero" d="M221.889571,209.334153 L221.889571,237.818019 L239.049783,237.818019 C230.967491,229.967195 225.055264,220.153617 221.889571,209.334153 Z"/>
    <ellipse cx="283.859" cy="124.056" fill="#254898" fill-rule="nonzero" rx="13.266" ry="2.595"/>
    <polygon fill="#2BD67B" fill-rule="nonzero" points="260.592 185.107 221.89 185.107 221.89 207.684 237.672 211.397 240.579 203.655"/>
    <polygon fill="#254898" fill-rule="nonzero" points="268.923 177.375 260.592 185.107 266.092 185.107"/>
    <path fill="#254898" fill-rule="nonzero" d="M266.091761,185.096262 L260.59225,185.096262 L240.579233,203.654755 L237.672194,211.397414 L246.469243,213.471535 C249.3112,214.14481 252.174851,214.73121 255.049349,215.252455 L257.370642,208.899782 L266.091761,185.096262 Z"/>
    <path fill="#DFE6F2" fill-rule="nonzero" d="M241.099897,286.945651 C240.534647,286.948927 239.96966,286.919921 239.40774,286.858483 C230.646246,286.007477 223.944339,278.665128 223.885449,269.852866 C222.88751,265.791499 217.615789,254.573873 214.415876,247.76511 C206.822861,231.584798 202.831105,222.788789 202.831105,215.241596 C202.831105,208.954079 205.315106,200.972515 218.017134,178.808744 C224.579668,167.352214 231.03373,157.090204 231.304909,156.710129 C234.468774,151.255691 240.359314,147.970615 246.657179,148.14837 C252.955044,148.326125 258.651347,151.938236 261.503218,157.562466 C264.355088,163.186696 263.90567,169.92207 260.331918,175.116592 C251.166065,189.624577 240.633469,208.052759 237.672194,215.458781 C239.190796,219.628741 242.922221,227.566868 245.52554,233.105096 C254.452755,252.0871 259.062799,262.425125 258.184179,271.405742 C257.330333,280.214099 249.939763,286.936454 241.099897,286.945651 Z"/>
    <polyline fill="#4070F4" fill-rule="nonzero" points="241.078 139.943 209.047 179.927 246.881 205.664 278.143 162.248"/>
    <path fill="#254898" fill-rule="nonzero" d="M509.024829,269.005843 L509.024829,192.828062 L509.447868,192.828062 C534.841078,192.176506 558.444505,191.025423 577.709067,189.505125 L577.709067,189.928637 L577.709067,189.505125 C626.814175,185.617507 630.632376,180.948021 630.632376,179.61233 L631.489302,179.61233 L631.489302,254.932229 C631.489302,263.011526 565.755493,267.56156 509.469563,269.04928 L509.024829,269.005843 Z M509.881755,193.664226 L509.881755,268.126242 C544.191332,267.235782 574.964734,265.433143 596.659061,263.044104 C627.345686,259.656011 630.664918,256.235341 630.664918,254.92137 L630.664918,181.176065 C625.664375,185.650085 599.83728,188.603806 577.806691,190.352149 L577.806691,190.352149 C558.628906,191.861587 535.133951,193.01267 509.881755,193.664226 Z"/>
    <path fill="#254898" fill-rule="nonzero" d="M548.953237 249.969542L548.953237 249.11166C571.276699 247.928 590.280929 246.309968 603.915813 244.431315L604.035132 245.278338C590.324317 247.167851 571.298393 248.785882 548.953237 249.969542zM548.953237 218.271332L548.953237 217.41345C571.276699 216.22979 590.280929 214.611758 603.915813 212.733105L604.035132 213.580128C590.324317 215.447922 571.298393 217.065953 548.953237 218.271332zM548.953237 224.243931L548.953237 223.386049C571.265852 222.202388 590.270082 220.584357 603.915813 218.705703L604.035132 219.563586C590.31347 221.442239 571.287546 223.060271 548.953237 224.243931zM548.953237 229.782159L548.953237 228.913417C571.265852 227.729757 590.270082 226.111726 603.915813 224.233072L604.035132 225.090954C590.31347 226.958749 571.287546 228.587639 548.953237 229.782159zM548.953237 211.408274L548.953237 210.550391C558.368575 210.050865 567.187318 209.464464 575.159983 208.845486 586.30002 207.965885 595.97569 206.955973 603.915813 205.870046L604.035132 206.717069C596.073314 207.802996 586.386797 208.812908 575.225066 209.703368 567.209013 210.333206 558.379422 210.908747 548.953237 211.408274zM621.151955 234.733986L620.707222 234.733986 620.707222 212.255297 621.086872 212.255297C621.151955 212.255297 628.213459 211.386555 630.849319 210.192035L631.207276 210.984762C628.74497 212.070689 623.071903 212.863416 621.531606 213.058883L621.531606 233.908682C623.050209 233.908682 628.224306 233.528607 630.751695 231.356753L631.3049 232.008309C628.180917 234.67969 621.607536 234.733986 621.151955 234.733986z"/>
    <path fill="#DFE6F2" fill-rule="nonzero" d="M129.992404,143.613849 L129.992404,143.613849 C146.137402,143.613849 159.225509,156.716564 159.225509,172.879583 L159.225509,205.142475 L100.759299,205.142475 L100.759299,172.879583 C100.759299,156.716564 113.847406,143.613849 129.992404,143.613849 Z"/>
    <path fill="#C5CFE4" fill-rule="nonzero" d="M135.20989,144.091657 C133.488966,143.773114 131.742496,143.613175 129.992404,143.613847 L129.992404,143.613847 C122.238421,143.610967 114.801193,146.693387 109.318298,152.182402 C103.835404,157.671416 100.75642,165.116944 100.759297,172.879583 L100.759297,205.142475 L111.19427,205.142475 L111.19427,172.879583 C111.193711,158.73269 121.304881,146.612262 135.20989,144.091657 Z"/>
    <path fill="#254898" fill-rule="nonzero" d="M172.393965,211.321399 L87.2111924,211.321399 L87.2111924,175.268622 C87.5823647,151.98508 106.542034,133.304751 129.802579,133.304751 C153.063124,133.304751 172.022793,151.98508 172.393965,175.268622 L172.393965,211.321399 Z M88.0681183,210.452658 L171.537039,210.452658 L171.537039,175.268622 C171.169662,152.456188 152.59254,134.155753 129.802579,134.155753 C107.012617,134.155753 88.4354953,152.456188 88.0681183,175.268622 L88.0681183,210.452658 Z"/>
    <path fill="#254898" fill-rule="nonzero" d="M93.9906694,273.8165 C115.457205,274.750397 139.158257,275.30422 163.781318,275.423672 C168.946579,271.379097 171.963431,265.178435 171.960082,258.613521 L171.960082,203.166087 L87.6342121,203.166087 L87.6342121,258.613521 C87.6264757,264.330367 89.9174309,269.809748 93.9906694,273.8165 L93.9906694,273.8165 Z"/>
    <path fill="#254898" fill-rule="nonzero" d="M107.918427,274.359463 L109.751598,274.424619 C96.3873437,267.091202 88.0730298,253.053461 88.0572711,237.7963 L88.0572711,203.589599 L171.526192,203.589599 L171.526192,237.818019 C171.509391,253.749481 162.454376,268.288201 148.17225,275.315079 L150.00542,275.315079 C163.778685,267.87881 172.373438,253.484039 172.393965,237.818019 L172.393965,202.731717 L87.2111924,202.731717 L87.2111924,237.818019 C87.22578,252.793518 95.0858117,266.663883 107.918427,274.359463 Z"/>
    <path fill="#DFE6F2" fill-rule="nonzero" d="M174.433232,275.45625 L176.27725,275.45625 C176.27725,275.15219 176.27725,274.837271 176.27725,274.522352 C176.041486,267.398394 170.083937,261.813338 162.96778,262.045051 L103.264994,263.967142 C97.5382028,264.152732 92.6203445,268.098487 91.1921013,273.653611 C116.444297,274.837271 144.928948,275.45625 174.433232,275.45625 Z"/>
    <path fill="#DFE6F2" fill-rule="nonzero" d="M125.187111,274.869849 L138.203707,236.341158 C140.901786,227.453653 136.068983,218.026189 127.28342,215.038695 C118.497856,212.051201 108.929333,216.581555 105.662217,225.275562 L90.4761885,270.037474 C90.0842402,271.200621 89.8152057,272.401708 89.6734984,273.621033 C100.943701,274.142278 112.810498,274.56579 125.187111,274.869849 Z"/>
    <path fill="#254898" fill-rule="nonzero" d="M99.7288188 274.055404C100.601295 272.872329 101.778608 271.948946 103.134828 271.384023 104.142266 270.964694 105.222009 270.747029 106.313047 270.743326 107.38541 270.747588 108.446613 270.961541 109.43703 271.373164 110.995338 272.008646 112.318116 273.112824 113.22269 274.533212L114.307406 274.533212C112.759237 271.730508 109.853376 269.948883 106.656021 269.842037 103.458666 269.735191 100.440599 271.318857 98.7091854 274.011967L99.7288188 274.055404zM122.171599 239.83785C120.986957 239.839313 119.814044 239.602992 118.722202 239.14285 116.484513 238.23796 114.705406 236.468611 113.786742 234.23446 112.535014 231.233555 112.977549 227.792071 114.947647 225.206381 116.917745 222.620691 120.116102 221.283622 123.337928 221.698837 126.559753 222.114051 129.315576 224.218467 130.567304 227.219371L130.567304 227.219371C131.738755 230.030845 131.429164 233.242418 129.742288 235.777737 128.055413 238.313057 125.214471 239.836633 122.171599 239.83785L122.171599 239.83785zM122.171599 222.463005C119.417689 222.459669 116.844979 223.836799 115.318389 226.131422 113.7918 228.426045 113.514076 231.333416 114.578585 233.876104 115.860933 236.939016 118.85423 238.932227 122.171599 238.932227 125.488969 238.932227 128.482266 236.939016 129.764614 233.876104 130.610123 231.858196 130.610123 229.584776 129.764614 227.566868L129.764614 227.566868C128.48645 224.492049 125.487483 222.487651 122.160752 222.484729L122.171599 222.463005zM155.613404 275.369376C155.668274 274.4843 155.869893 273.614537 156.209998 272.795728 157.033085 270.771374 158.63046 269.160487 160.646487 268.321709 161.653926 267.90238 162.733669 267.684715 163.824706 267.681012 164.897586 267.680126 165.959786 267.89428 166.948689 268.31085 168.972832 269.131755 170.58296 270.731942 171.417721 272.752291L171.417721 272.752291C171.775339 273.608245 171.984436 274.519017 172.036009 275.44539L172.892935 275.44539C172.714677 271.933571 170.531347 268.838829 167.284951 267.496405 162.636169 265.589647 157.322891 267.809627 155.407308 272.459091 155.034046 273.380383 154.810655 274.3556 154.745631 275.347657L155.613404 275.369376z"/>
    <path fill="#0C152E" fill-rule="nonzero" d="M174.433232,351.634031 C89.2287648,351.634031 1.08471632,346.128381 1.08471632,336.919719 L1.08471632,261.599821 L1.94164222,261.599821 C1.94164222,262.935511 5.75984368,267.604997 54.8649516,271.492616 C87.1786509,274.044545 129.645295,275.45625 174.433232,275.45625 C189.661007,275.45625 207.822273,275.017271 224.676608,274.465865 C234.331094,274.150009 243.556747,273.797263 251.556563,273.469003 L252.001296,273.469003 L252.001296,350.124592 L251.589104,350.124592 C227.47586,351.123645 201.518599,351.634031 174.433232,351.634031 Z"/>
    <path fill="#254898" fill-rule="nonzero" d="M174.433232,351.634031 C89.2287648,351.634031 1.08471632,346.128381 1.08471632,336.919719 L1.08471632,261.599821 L1.94164222,261.599821 C1.94164222,262.935511 5.75984368,267.604997 54.8649516,271.492616 C87.1786509,274.044545 129.645295,275.45625 174.433232,275.45625 C189.661007,275.45625 207.822273,275.017271 224.676608,274.465865 C234.331094,274.150009 243.556747,273.797263 251.556563,273.469003 L252.001296,273.469003 L252.001296,350.124592 L251.589104,350.124592 C227.47586,351.123645 201.518599,351.634031 174.433232,351.634031 Z M1.94164222,263.174415 L1.94164222,336.919719 C1.94164222,343.60903 71.2550153,350.776148 174.411538,350.776148 C201.32335,350.776148 227.128751,350.276622 251.122676,349.288428 L251.122676,274.359463 C229.168018,275.260783 198.210214,276.324991 174.411538,276.324991 C129.601906,276.324991 87.1244151,274.913286 54.7781743,272.361358 C32.7692801,270.602156 6.94218447,267.648434 1.94164222,263.174415 Z"/>
    <path fill="#254898" fill-rule="nonzero" d="M1.55114434,261.860443 C1.74085816,262.363961 2.06780175,262.804135 2.49484754,263.130978 C6.88794865,266.540789 25.8054013,269.592244 54.0405672,271.818394 L54.0405672,252.771234 C25.2847375,255.040822 5.87916247,258.146573 1.51860285,261.599821 L1.51860285,261.599821 C1.52363343,261.687324 1.53450486,261.774393 1.55114434,261.860443 L1.55114434,261.860443 Z"/>
    <path fill="#254898" fill-rule="nonzero" d="M54.4636066 272.317921L54.0080257 272.317921C33.3984156 270.667311 7.76656887 267.800464 2.23451563 263.500193 1.73752398 263.119068 1.36089674 262.602513 1.1497993 262.012473L1.1497993 262.012473 1.56199151 261.91474 1.08471632 261.925599C1.07189198 261.821019 1.07189198 261.71526 1.08471632 261.61068L1.08471632 261.393495 1.24742377 261.263183C5.58628906 257.864232 24.2867985 254.693325 54.0080257 252.336863L54.4636066 252.336863 54.4636066 272.317921zM1.98503087 261.784428C2.15313644 262.189402 2.42656587 262.541882 2.77687379 262.8052 6.92049014 266.062981 24.9701698 269.070999 53.6066807 271.384023L53.6066807 253.238183C24.7640737 255.529489 6.50829794 258.559225 1.98503087 261.784428zM1.69215746 261.784428L1.55114434 261.784428 1.69215746 261.784428zM66.4171805 331.490084L65.9941411 331.490084C42.8571419 331.490084 25.8596371 329.242215 10.8580104 324.192655L10.565137 324.094921 10.565137 284.512881 11.1725781 284.806081C19.4815052 288.726278 54.6805499 292.950534 65.9507525 292.027496L66.4171805 292.027496 66.4171805 331.490084zM11.4220629 323.475943C26.1633577 328.384333 42.8788363 330.599624 65.5602546 330.621343L65.5602546 292.950534C54.0080257 293.732402 20.663846 289.692753 11.4220629 285.881149L11.4220629 323.475943z"/>
    <polygon fill="#2BD67B" fill-rule="nonzero" points="74.986 292.842 74.986 332.663 83.556 332.945 83.556 293.124"/>
    <path fill="#254898" fill-rule="nonzero" d="M222.833274,334.986769 L149.20273,334.986769 L149.20273,293.471779 L222.833274,293.471779 L222.833274,334.986769 Z M150.059656,334.118028 L221.976348,334.118028 L221.976348,294.286224 L150.059656,294.286224 L150.059656,334.118028 Z"/>
    <path fill="#131B3A" fill-rule="nonzero" d="M149.137647,315.288053 L221.911265,315.288053"/>
    <rect width="72.774" height="1" x="149.138" y="314.854" fill="#254898" fill-rule="nonzero"/>
    <polygon fill="#254898" fill-rule="nonzero" points="178.056 321.043 171.385 310.64 149.821 320.772 149.452 319.99 171.711 309.533 178.219 319.708 199.262 299.944 199.349 299.911 216.488 293.493 216.781 294.308 199.729 300.693"/>
    <rect width="22.649" height="15.474" x="91.116" y="293.884" fill="#FFD0D1" fill-rule="nonzero"/>
    <rect width="22.649" height="15.474" x="91.116" y="317.46" fill="#FFD0D1" fill-rule="nonzero"/>
    <path fill="#0C152E" fill-rule="nonzero" d="M114.198935,333.379597 L90.6931318,333.379597 L90.6931318,317.090692 L114.198935,317.090692 L114.198935,333.379597 Z M91.5500577,332.510856 L113.342009,332.510856 L113.342009,317.894278 L91.5500577,317.894278 L91.5500577,332.510856 Z"/>
  </g>
</svg>
