<?xml version="1.0" encoding="UTF-8"?>
<svg width="516px" height="322px" viewBox="0 0 516 322" version="1.1" xmlns="http://www.w3.org/2000/svg" xmlns:xlink="http://www.w3.org/1999/xlink">
    <!-- Generator: sketchtool 55.2 (78181) - https://sketchapp.com -->
    <title>63C232EF-7EBE-4475-9C65-CEF771D33A85</title>
    <desc>Created with sketchtool.</desc>
    <defs>
        <linearGradient x1="42.9572433%" y1="39.2753329%" x2="65.9121816%" y2="59.0965959%" id="linearGradient-1">
            <stop stop-color="#254898" stop-opacity="0" offset="10%"></stop>
            <stop stop-color="#254898" stop-opacity="0.16" offset="100%"></stop>
        </linearGradient>
    </defs>
    <g id="💰-2.0-My-Wallet" stroke="none" stroke-width="1" fill="none" fill-rule="evenodd">
        <g id="2.1.4-Wallet---Onboarding-2" transform="translate(-737.000000, -187.000000)">
            <g id="2.2-Dashboard-2/2---Keep-your-community-updated-[Dark]" transform="translate(737.000000, 187.000000)">
                <g>
                    <polygon id="Path" stroke="#254898" points="366.18 128.42 381.16 128.43 412.62 97.2 345.36 97.2 296.99 145.21 349.32 145.21"></polygon>
                    <polygon id="Path" stroke="#254898" points="347.15 104.38 333.76 117.67 344.93 117.67 358.31 104.38"></polygon>
                    <polygon id="Path" stroke="#254898" points="366.18 128.42 370.34 128.42 394.45 104.38 367.67 104.38 332.4 139.55 355 139.55"></polygon>
                    <polygon id="Path" stroke="#254898" points="466.78 77.57 442.67 101.68 458.42 96.48 495.71 96.48 514.62 77.57"></polygon>
                    <path d="M467.89,81.97 L502.06,81.97" id="Path" stroke="#254898" fill="#0C152E" fill-rule="nonzero"></path>
                    <path d="M463.71,86.15 L497.88,86.15" id="Path" stroke="#254898" fill="#0C152E" fill-rule="nonzero"></path>
                    <polygon id="Path" fill="url(#linearGradient-1)" fill-rule="nonzero" style="mix-blend-mode: overlay;" points="60.9 0 271.65 210.76 355.43 128.03 494.75 127.81 366.94 0"></polygon>
                    <path d="M204.55,28.56 C191.346277,27.903132 179.641514,36.9865383 177,49.94 L177,49.94 C176.800819,50.9311962 176.657261,51.9327619 176.57,52.94 L169.21,104.81 L229.41,100.17 L228.29,83.33 C227.854277,74.4440467 228.397545,65.5371262 229.91,56.77 C229.914449,56.7034076 229.914449,56.6365924 229.91,56.57 C230.618134,41.8407377 219.276962,29.3144667 204.55,28.56 L204.55,28.56 Z" id="Path" fill="#3D71FF" fill-rule="nonzero"></path>
                    <circle id="Oval" stroke="#254898" fill="#254898" fill-rule="nonzero" cx="202.38" cy="56.75" r="19.4"></circle>
                    <circle id="Oval" fill="#DFE6F2" fill-rule="nonzero" cx="207.13" cy="55.28" r="19.4"></circle>
                    <path d="M209.59,72.25 C202.032324,72.2536189 195.161236,67.8656413 191.985554,61.0075423 C188.809872,54.1494434 189.908362,46.0711072 194.8,40.31 C189.110307,44.9723488 186.546936,52.4516066 188.180543,59.623875 C189.814151,66.7961435 195.3637,72.4275441 202.511283,74.1659823 C209.658866,75.9044204 217.174851,73.4508245 221.92,67.83 C218.449633,70.6933684 214.089143,72.2564963 209.59,72.25 Z" id="Path" fill="#C5CFE4" fill-rule="nonzero"></path>
                    <path d="M187.74,55.28 C187.74,55.43 187.74,55.58 187.74,55.73 L191.37,44 C189.008939,47.2872555 187.739262,51.2326975 187.74,55.28 L187.74,55.28 Z" id="Path" fill="#DFE6F2" fill-rule="nonzero"></path>
                    <path d="M200.12,59.32 C205.90121,52.8899023 209.251307,44.6402451 209.59,36 C208.774087,35.8959551 207.952516,35.8425196 207.13,35.84 C200.866721,35.8535104 194.996103,38.8931197 191.37,44 L187.75,55.75 C187.833622,59.6817275 189.11386,63.4945343 191.42,66.68 C193.64,65.55 196.49,63.36 200.12,59.32 Z" id="Path" fill="#C5CFE4" fill-rule="nonzero"></path>
                    <path d="M170.53,214.320036 C158.379736,214.320036 148.53,204.470264 148.53,192.32 C148.53,189.32 148.53,186.32 148.53,183.32 C148.37,161.6 148.21,141.09 156.53,117.73 C159.105878,110.25556 165.494197,104.73797 173.263872,103.276958 C181.033546,101.815946 188.989715,104.636194 194.104645,110.664452 C199.219574,116.692709 200.706664,125.00192 198,132.43 C196.087861,137.830365 194.320733,143.105659 193.5,148.5 C193.439111,148.900197 193.056174,149.098737 193,149.5 C192.791184,150.991611 193.448767,152.722344 193.299281,154.233639 C192.418038,163.142933 192.488049,172.462029 192.57,182.99 C192.57,185.99 192.57,189.14 192.57,192.29 C192.577983,198.136896 190.258161,203.746469 186.122839,207.879915 C181.987517,212.013361 176.376892,214.330636 170.53,214.320036 Z" id="Path" fill="#DFE6F2" fill-rule="nonzero"></path>
                    <path d="M271.41,139.08 L269.07,130.77 C265.71,100.95 241.72,76.87 206.23,80.11 L204.23,80.31 L202.23,80.56 C166.91,85.31 145.9,112.65 145.1,143.14 L144.35,160.84 L193.82,156.28 L193.82,148.54 L271.41,139.08 Z" id="Path" fill="#254898" fill-rule="nonzero"></path>
                    <ellipse id="Oval" fill="#0C152E" fill-rule="nonzero" cx="211.38" cy="81.97" rx="13.21" ry="2.15"></ellipse>
                    <polygon id="Path" fill="#0C152E" fill-rule="nonzero" points="193.75 148.54 193.75 130.34 198.16 148.01"></polygon>
                    <path d="M267.52,139.45 L285.54,224.48" id="Path" stroke="#254898"></path>
                    <polygon id="Path" stroke="#254898" points="438.48 183.63 460.36 183.63 483.48 160.51 461.56 160.51"></polygon>
                    <path d="M214.28,241.82 C205.42538,189.533894 160.170516,151.244242 107.14,151.17 C53.32,151.17 8.65,190.46 0,241.82 L214.28,241.82 Z" id="Path" fill="#3D71FF" fill-rule="nonzero"></path>
                    <ellipse id="Oval" stroke="#254898" fill="#254898" fill-rule="nonzero" transform="translate(113.612389, 155.720637) rotate(-87.190000) translate(-113.612389, -155.720637) " cx="113.612389" cy="155.720637" rx="4.14" ry="18.86"></ellipse>
                    <path d="M207.74,29.38 C209.009576,39.9681436 205.649034,50.5892066 198.52,58.52 C186.52,71.9 183,65.12 183,65.12 C183,65.12 175.34,42.29 188.4,35.88 C194.583124,32.9964527 201.070413,30.8161334 207.74,29.38 Z" id="Path" fill="#3D71FF" fill-rule="nonzero"></path>
                    <circle id="Oval" fill="#DFE6F2" fill-rule="nonzero" cx="113.61" cy="108.94" r="26.23"></circle>
                    <path d="M108.36,83.23 C97.1225788,89.5840433 92.1792251,103.170099 96.7057504,115.259932 C101.232276,127.349766 113.882752,134.348558 126.53,131.76 C117.516125,136.85677 106.347343,136.173466 98.0220077,130.015885 C89.6966719,123.858305 85.7731618,113.379056 88.0073613,103.267906 C90.2415607,93.1567549 98.2152604,85.3063605 108.36,83.23 L108.36,83.23 Z" id="Path" fill="#C3CFE6" fill-rule="nonzero"></path>
                    <circle id="Oval" fill="#C5CFE4" fill-rule="nonzero" cx="185.54" cy="172.68" r="3.69"></circle>
                    <path d="M70.4,187.88 C60.24,188.6 23.35,241.82 23.35,241.82 L34.11,241.82 C34.0648085,237.085066 35.3652572,232.434662 37.86,228.41 C38.17,227.91 79.08,187.26 70.4,187.88 Z" id="Path" fill="#254898" fill-rule="nonzero"></path>
                    <polygon id="Path" fill="#254898" fill-rule="nonzero" points="105.68 220.72 92.66 241.81 81.11 241.81"></polygon>
                    <path d="M88.94,241.82 C95.1,233.04 101.4,225.08 105.68,220.72 C115.719518,220.210148 124.47717,213.73666 127.909548,204.288345 C131.341927,194.840031 128.781336,184.254858 121.41,177.42 C114.878395,171.380622 105.979588,168.594238 97.17,169.83 C83.86,171.62 71.59,181.44 54.81,203.73 C45.56,216.01 38.17,227.91 37.81,228.41 C35.3152572,232.434662 34.0148085,237.085066 34.06,241.82 L88.94,241.82 Z" id="Path" fill="#DFE6F2" fill-rule="nonzero"></path>
                    <path d="M43.24,241.82 C43.8577042,239.885066 44.6930516,238.026501 45.73,236.28 C46.04,235.78 53.43,223.88 62.73,211.6 C79.51,189.32 91.79,179.49 105.1,177.7 C112.248164,176.709986 119.5125,178.351925 125.54,182.32 C124.393658,180.519992 123.022616,178.873397 121.46,177.42 C114.928395,171.380622 106.029588,168.594238 97.22,169.83 C83.91,171.62 71.64,181.44 54.86,203.73 C45.61,216.01 38.22,227.91 37.86,228.41 C35.3915949,232.44618 34.0933008,237.08888 34.1098409,241.82 L43.24,241.82 Z" id="Path" fill="#C3CFE6" fill-rule="nonzero"></path>
                    <path d="M209.76,224.05 C206.408973,214.438028 201.715867,205.348081 195.82,197.05 L195.63,197.05 C193.320039,197.598194 191.322992,199.04269 190.079247,201.064949 C188.835501,203.087209 188.44721,205.521135 189,207.83 C190.526941,214.635489 195.474348,220.162049 202.07,222.43 L202.07,224.8 L206.07,224.8 L206.07,223.55 C206.63,223.66 207.19,223.76 207.76,223.84 C208.33,223.92 209.09,224 209.76,224.05 Z" id="Path" fill="#254898" fill-rule="nonzero"></path>
                    <rect id="Rectangle" fill="#2BD67B" fill-rule="nonzero" x="205.3" y="172.07" width="57.29" height="52.41"></rect>
                    <rect id="Rectangle" fill="#254898" fill-rule="nonzero" x="205.3" y="172.07" width="57.29" height="17.55"></rect>
                    <path d="M275.39,171.66 L252.38,171.66" id="Path" stroke="#254898" fill="#DFE6F2" fill-rule="nonzero"></path>
                    <path d="M269.06,186.78 C270.003876,173.574156 263.49357,160.946897 252.188473,154.056323 C240.883375,147.16575 226.676625,147.16575 215.371527,154.056323 C204.06643,160.946897 197.556124,173.574156 198.5,186.78 L269.06,186.78 Z" id="Path" stroke="#254898" fill="#DFE6F2" fill-rule="nonzero"></path>
                    <path d="M209.67,171.66 L186.67,171.66" id="Path" stroke="#254898" fill="#DFE6F2" fill-rule="nonzero"></path>
                    <circle id="Oval" stroke="#254898" fill="#0C152E" fill-rule="nonzero" cx="208.77" cy="171.54" r="3.69"></circle>
                    <circle id="Oval" fill="#2BD67B" fill-rule="nonzero" cx="186.67" cy="171.54" r="3.69"></circle>
                    <circle id="Oval" fill="#2BD67B" fill-rule="nonzero" cx="277.82" cy="171.54" r="3.69"></circle>
                    <path d="M257.89,186.78 C259.179814,168.487438 246.27131,152.244347 228.16,149.37" id="Path" stroke="#254898"></path>
                    <polygon id="Path" fill="#254898" fill-rule="nonzero" points="211.98 207.9 205.3 197.38 205.23 187.1 212.21 187.74"></polygon>
                    <path d="M217,224.15 C215.53,224.15 213.24,230.08 211.59,229.85 C201.76,228.49 195.59,216.64 193.53,207.85 C192.765081,204.734025 193.730584,201.447202 196.059198,199.239951 C198.387812,197.0327 201.721562,196.244339 204.792175,197.174787 C207.862789,198.105236 210.198223,200.611458 210.91,203.74 C211.11,204.58 211.36,205.62 214.44,206.12 C216.520768,206.401806 218.632725,206.357948 220.7,205.99 C223.84429,205.269079 227.132966,206.3 229.303046,208.686847 C231.473125,211.073695 232.18722,214.445379 231.171089,217.50704 C230.154957,220.5687 227.566581,222.844331 224.4,223.46 C221.962618,223.936912 219.483536,224.168069 217,224.15 Z" id="Path" fill="#2BD67B" fill-rule="nonzero"></path>
                    <polygon id="Path" stroke="#254898" points="283.74 210.5 366.18 128.42 493.58 128.43 411.65 210.5"></polygon>
                    <polygon id="Path" stroke="#254898" fill="#254898" fill-rule="nonzero" points="272.22 210.5 354.66 128.42 365.7 128.43 283.78 210.5"></polygon>
                    <rect id="Rectangle" stroke="#254898" transform="translate(347.550000, 232.895000) rotate(-180.000000) translate(-347.550000, -232.895000) " x="283.38" y="224.48" width="128.34" height="16.83"></rect>
                    <rect id="Rectangle" stroke="#254898" fill="#254898" fill-rule="nonzero" transform="translate(211.600000, 232.895000) rotate(-180.000000) translate(-211.600000, -232.895000) " x="139.83" y="224.48" width="143.54" height="16.83"></rect>
                </g>
            </g>
        </g>
    </g>
</svg>
