<svg width="219" height="83" viewBox="0 0 219 83" fill="none" xmlns="http://www.w3.org/2000/svg">
<g clip-path="url(#clip0)">
<path d="M137.751 28.292H102.867V42.382H137.751V28.292Z" fill="#C5CFE4"/>
<path d="M137.995 42.6255H102.631V28.0562H137.995V42.6255ZM103.128 42.1461H137.53V28.5355H103.112L103.128 42.1461Z" fill="#254898"/>
<path d="M204.564 28.292H137.755V42.382H204.564V28.292Z" fill="#DFE6F2"/>
<path d="M204.805 42.6255H137.514V28.0562H204.805V42.6255ZM137.995 42.1461H204.324V28.5355H137.995V42.1461Z" fill="#254898"/>
<path d="M29.9821 35.9182H34.4186C30.972 31.4879 26.4632 26.5582 25.0966 29.1509C24.3992 30.4692 26.9482 33.2536 29.9821 35.9182Z" fill="#2BD67B"/>
<path d="M38.5266 35.9819C38.739 34.5078 39.3281 21.0769 39.7289 16.8064C40.1297 12.5358 40.7068 0.027832 44.1374 0.027832C47.5681 0.027832 49.7483 12.9074 49.6401 14.3615" fill="#2BD67B"/>
<path d="M44.5542 35.982C49.9767 28.959 57.351 17.8731 56.8741 9.34005C56.8686 9.21034 56.836 9.08321 56.7783 8.96682C56.7207 8.85043 56.6392 8.74735 56.5392 8.66421C56.4392 8.58106 56.3228 8.51969 56.1976 8.48404C56.0723 8.44838 55.941 8.43923 55.812 8.45718C48.037 9.02445 42.2297 27.6047 40.0135 35.926L44.5542 35.982Z" fill="#2BD67B"/>
<path d="M26.0104 28.4475C28.0984 29.2904 31.0882 32.6901 33.6251 35.9219H34.4267C31.5291 32.1907 27.9421 28.1719 26.0104 28.4475Z" fill="black"/>
<path d="M38.5266 35.9822C38.1539 27.541 37.0638 13.483 33.9898 13.3951C29.6454 13.2673 34.7433 34.6879 35.2322 35.9263L38.5266 35.9822Z" fill="#2BD67B"/>
<path d="M39.8011 35.9141H40.0135C41.5645 30.0976 44.8709 19.2714 49.3756 13.0873L49.5199 12.8836C49.5199 12.7078 49.4157 12.0486 49.3155 11.3975C44.4381 17.0502 40.4543 29.5502 38.715 35.9541C39.0797 35.9301 39.4364 35.9141 39.8011 35.9141Z" fill="#22A961"/>
<path d="M136.348 73.4858H0V63.6064H136.348V73.4858ZM0.484939 73.0064H135.867V64.0858H0.480931L0.484939 73.0064Z" fill="#9999A0"/>
<path d="M218.76 63.8423H136.108V73.2423H218.76V63.8423Z" fill="#9999A0"/>
<path d="M219 73.4858H135.867V63.6064H219V73.4858ZM136.348 73.0064H218.507V64.0858H136.348V73.0064Z" fill="#9999A0"/>
<path d="M55.6037 26.8375C55.5719 26.8006 55.533 26.7705 55.4893 26.749C55.4455 26.7275 55.3979 26.715 55.3492 26.7124C55.3005 26.7098 55.2517 26.7171 55.2059 26.7338C55.1601 26.7505 55.1182 26.7762 55.0826 26.8095C53.9404 27.8882 49.3435 32.2146 45.3959 35.9578H50.4216C52.5017 34.7194 54.1088 33.7447 54.3092 33.5609C54.9344 33.0536 54.8742 33.2253 55.1107 33.3692C55.6011 33.7952 56.1749 34.115 56.7958 34.3083C57.4168 34.5015 58.0712 34.564 58.7177 34.4917C58.5574 30.5927 56.3571 27.7164 55.6037 26.8375Z" fill="#2BD67B"/>
<path d="M53.736 35.918H26.2869V63.8463H53.736V35.918Z" fill="#FFD0D1"/>
<path d="M197.214 45.7017H84.6238V63.8425H197.214V45.7017Z" fill="#4070F4"/>
<path d="M123.178 46.001H122.698V63.8462H123.178V46.001Z" fill="black"/>
<path d="M197.214 48.3103H101.244L99.2882 45.7017H197.214V48.3103Z" fill="#254898"/>
<path d="M204.56 32.6782H102.867V33.1576H204.56V32.6782Z" fill="#254898"/>
<path d="M204.56 37.624H102.867V38.1034H204.56V37.624Z" fill="#254898"/>
<path d="M102.867 42.246V28.4317H209.325V24.9761H102.867H99.2882V28.4317V42.246V45.7016H102.867H209.325V42.246H102.867Z" fill="#4070F4"/>
<path d="M162.386 47.0078H159.044V63.8463H162.386V47.0078Z" fill="#254898"/>
<path d="M145.434 32.7061V82.6902L154.391 77.6246L160.715 82.6902V32.7061H145.434Z" fill="#2BD67B"/>
</g>
<defs>
<clipPath id="clip0">
<rect width="219" height="82.6903" fill="white"/>
</clipPath>
</defs>
</svg>
