<?xml version="1.0" encoding="UTF-8"?>
<svg width="351px" height="242px" viewBox="0 0 351 242" version="1.1" xmlns="http://www.w3.org/2000/svg" xmlns:xlink="http://www.w3.org/1999/xlink">
    <!-- Generator: sketchtool 55.2 (78181) - https://sketchapp.com -->
    <title>E8FF1D24-4CAC-46AD-B8C8-0647346A7713</title>
    <desc>Created with sketchtool.</desc>
    <defs>
        <polygon id="path-1" points="0.731538435 0.893671259 41.1320831 0.893671259 41.1320831 41.2775729 0.731538435 41.2775729"></polygon>
        <polygon id="path-3" points="0 242.217507 350.914783 242.217507 350.914783 1.35816301 0 1.35816301"></polygon>
    </defs>
    <g id="🤕-14.0-Help-Center" stroke="none" stroke-width="1" fill="none" fill-rule="evenodd">
        <g id="Help-Center---Main-page" transform="translate(-901.000000, -197.000000)">
            <g id="Illustration" transform="translate(1075.958091, 317.555589) scale(-1, 1) translate(-1075.958091, -317.555589) translate(900.000000, 196.000000)">
                <path d="M204.92582,182.840793 C204.92582,180.128542 205.406817,177.534451 206.251959,175.11013 C186.994399,136.488048 148.483356,111.080893 110.401677,111.080893 C76.5688085,111.080893 46.8624631,128.655522 29.8590689,155.154641 C35.809034,158.981944 44.799881,167.092893 51.8205409,175.216066 L66.7192317,178.879032 C64.6009409,182.440135 63.0832174,184.929648 61.1578691,188.72843 L60.3534892,195.162048 C60.3534892,195.162048 129.10215,150.754192 154.823282,156.928401 C167.592812,159.993775 176.068693,172.001295 173.506091,184.87668 C171.14866,196.72801 160.354752,204.752037 148.602926,203.957512 C142.977702,206.2433 136.467932,212.30614 130.392962,217.320478 L206.943563,217.320478 C208.872988,215.753158 213.102776,213.715913 215.78223,213.715913 L217.948077,213.715913 C217.487461,210.023068 216.85836,206.394056 216.07572,202.832953 C209.390671,198.676974 204.92582,191.288567 204.92582,182.840793" id="Fill-1" fill="#2BD67B"></path>
                <polygon id="Fill-3" fill="#DFE6F2" points="11.5003219 182.840793 9.07902985 188.925364 59.5008738 192.266445 61.0240322 188.339995"></polygon>
                <path d="M316.650511,225.182612 L348.332479,193.514325 C349.241482,192.605714 348.598794,191.051975 347.312058,191.051975 L297.106255,191.051975 C294.383321,191.051975 291.773162,192.133073 289.847814,194.056232 L270.179912,213.717" id="Stroke-5" stroke="#0C152E" stroke-width="1.36006254"></path>
                <polygon id="Fill-7" fill="#DFE6F2" points="302.652264 206.017709 283.480305 225.182748 298.278448 225.182748 317.451766 206.017709"></polygon>
                <g id="Group-11" transform="translate(95.112481, 0.464492)">
                    <mask id="mask-2" fill="white">
                        <use xlink:href="#path-1"></use>
                    </mask>
                    <g id="Clip-10"></g>
                    <path d="M40.8714638,24.2994376 C39.0955779,35.3073488 28.7283174,42.7921851 17.7156508,41.0170661 C6.70434294,39.2405889 -0.783726847,28.8791633 0.992159056,17.8712521 C2.76804496,6.86334094 13.1353054,-0.621495392 24.1466133,1.15362366 C35.1592799,2.93010087 42.6473497,13.2928846 40.8714638,24.2994376" id="Fill-9" fill="#4070F4" mask="url(#mask-2)"></path>
                </g>
                <path d="M97.4186873,13.7865769 C96.8221962,15.220797 96.3629388,16.7351488 96.1047764,18.3364229 C94.6264566,27.4985906 99.5777407,36.1962665 107.628333,39.8836791 C108.226183,38.4535334 108.669135,36.9323908 108.927298,35.333833 C110.404259,26.1757398 105.461127,17.4767058 97.4186873,13.7865769" id="Fill-12" fill="#254898"></path>
                <path d="M123.604512,76.6022951 C120.295957,97.1091983 100.982688,111.053458 80.4669257,107.746331 C59.9511634,104.439204 46.0008799,85.1342751 49.3094355,64.6273718 C52.6179911,44.1191104 71.9312598,30.176209 92.4470221,33.4833359 C112.962784,36.7904628 126.913068,56.0953918 123.604512,76.6022951" id="Fill-14" fill="#4070F4"></path>
                <path d="M81.4554161,54.8033713 C92.4680827,56.5784904 102.835343,49.0936541 104.611229,38.0857429 C104.632969,37.9526429 104.635687,37.8222593 104.654709,37.6878011 C100.95891,35.6478403 96.8554856,34.1932477 92.4477014,33.4829284 C82.4608909,31.8735053 72.763494,34.3603017 65.053948,39.6938079 C66.9344577,47.3239677 73.2050877,53.4737298 81.4554161,54.8033713" id="Fill-16" fill="#254898"></path>
                <path d="M107.117715,36.0225574 C105.341829,47.0304686 94.9745683,54.515305 83.9619017,52.7401859 C72.9505939,50.9637087 65.4625241,40.6022831 67.23841,29.5943719 C69.0142959,18.5864608 79.3801976,11.1016244 90.3928642,12.8767435 C101.405531,14.6532207 108.893601,25.0160044 107.117715,36.0225574" id="Fill-18" fill="#4070F4"></path>
                <path d="M154.427206,64.87415 C155.287295,73.656032 150.481397,81.3133551 143.691725,81.9774968 L134.207652,81.9992274 L133.804103,50.1340069 L140.578829,50.17611 C147.367143,49.5119683 153.567118,56.092268 154.427206,64.87415" id="Fill-20" fill="#0C152E"></path>
                <path d="M145.472638,64.87415 C146.332727,73.656032 141.52547,81.3133551 134.737156,81.9774968 C127.948843,82.6416385 121.747509,76.0613387 120.88742,67.2794567 C120.027332,58.4975747 124.834588,50.8402517 131.622902,50.17611 C138.412574,49.5119683 144.61255,56.092268 145.472638,64.87415" id="Fill-22" fill="#FFFFFF"></path>
                <path d="M145.472638,64.87415 C146.332727,73.656032 141.52547,81.3133551 134.737156,81.9774968 C127.948843,82.6416385 121.747509,76.0613387 120.88742,67.2794567 C120.027332,58.4975747 124.834588,50.8402517 131.622902,50.17611 C138.412574,49.5119683 144.61255,56.092268 145.472638,64.87415 Z" id="Stroke-24" stroke="#0C152E" stroke-width="1.36006254"></path>
                <path d="M99.2697121,33.9912889 C113.828716,27.9325237 131.154133,32.3750749 140.794463,45.7040866 C152.047628,61.2659184 148.550206,82.9992428 132.981652,94.2475488 C128.96247,97.1526595 124.52887,99.0554459 119.971623,100.040114 C106.882787,102.869168 92.7640184,97.9838553 84.41586,86.4394697 C73.1626947,70.8789961 76.6601165,49.1443135 92.228671,37.8960075 C94.4624555,36.2811517 96.8321151,35.0058366 99.2697121,33.9912889" id="Fill-26" fill="#FFFFFF"></path>
                <path d="M88.0713044,51.6586807 C94.3297057,38.863427 107.407672,31.6447906 120.788639,32.2016375 C105.41031,28.7111585 89.094443,36.0398061 81.8672531,50.8152615 C73.430776,68.0652898 80.5818759,88.8859287 97.8393563,97.320121 C102.296055,99.4972563 106.987818,100.616383 111.646971,100.8106 C109.070782,100.22659 106.51905,99.3736635 104.042049,98.1635402 C86.7845684,89.7307061 79.6348273,68.9087091 88.0713044,51.6586807" id="Fill-28" fill="#C5CFE4"></path>
                <path d="M92.730729,61.7168285 C92.0567891,54.8363747 88.1001099,49.3249492 83.1556196,47.5729189 C77.3306595,56.8450978 76.1566997,68.4899874 80.2397427,78.8242497 L81.9952474,78.8201752 C88.7849198,78.1560335 93.5908176,70.4987105 92.730729,61.7168285" id="Fill-30" fill="#C5CFE4"></path>
                <path d="M126.130292,95.223389 L113.984428,95.223389 L113.984428,84.3811737 L126.130292,84.3811737 C129.126335,84.3811737 131.553062,86.808211 131.553062,89.8029604 C131.553062,92.7963517 129.126335,95.223389 126.130292,95.223389" id="Fill-32" fill="#0C152E"></path>
                <path d="M129.458142,114.140834 C129.401074,115.444671 122.433406,116.202525 113.893664,115.833105 C105.353922,115.462327 98.4772893,114.104164 98.5343568,112.798969 C98.5914242,111.493774 105.559093,110.737278 114.098835,111.108056 C122.637218,111.477476 129.515209,112.835639 129.458142,114.140834" id="Fill-34" fill="#0C152E"></path>
                <mask id="mask-4" fill="white">
                    <use xlink:href="#path-3"></use>
                </mask>
                <g id="Clip-37"></g>
                <polygon id="Fill-36" fill="#0C152E" mask="url(#mask-4)" points="22.0905532 241.535709 73.0518207 241.535709 73.0518207 225.182068 22.0905532 225.182068"></polygon>
                <polygon id="Stroke-38" stroke="#0C152E" stroke-width="1.36006254" mask="url(#mask-4)" points="22.0905532 241.535709 73.0518207 241.535709 73.0518207 225.182068 22.0905532 225.182068"></polygon>
                <path d="M73.8555212,49.8091343 C76.5974782,43.4203355 81.0514598,37.6698734 87.0978961,33.3020211 C89.6523456,31.4562776 92.3616926,29.9976105 95.1512058,28.8363812 C111.801325,21.9070335 131.615972,26.9879213 142.640868,42.2319429 C144.674916,45.0446985 151.027071,56.4002994 151.027071,62.8244104" id="Stroke-39" stroke="#0C152E" stroke-width="1.36006254" mask="url(#mask-4)"></path>
                <path d="M99.2697121,33.9912889 C113.828716,27.9325237 131.154133,32.3750749 140.794463,45.7040866 C152.047628,61.2659184 148.550206,82.9992428 132.981652,94.2475488 C128.96247,97.1526595 124.52887,99.0554459 119.971623,100.040114 C106.882787,102.869168 92.7640184,97.9838553 84.41586,86.4394697 C73.1626947,70.8789961 76.6601165,49.1443135 92.228671,37.8960075 C94.4624555,36.2811517 96.8321151,35.0058366 99.2697121,33.9912889 Z" id="Stroke-40" stroke="#0C152E" stroke-width="1.36006254" mask="url(#mask-4)"></path>
                <path d="M90.6184167,64.9870134 C91.4785053,73.7688954 86.6712487,81.4262184 79.882935,82.0903601 L70.3988619,82.1120907 L69.9953132,50.2468703 L76.7686806,50.2889733 C83.5583531,49.6248316 89.7583281,56.2051314 90.6184167,64.9870134" id="Fill-41" fill="#0C152E" mask="url(#mask-4)"></path>
                <path d="M82.6914707,64.9750615 C83.5515593,73.7569436 78.7443027,81.4142666 71.9559891,82.0784083 C65.1676754,82.74255 58.9663416,76.1608921 58.106253,67.3803682 C57.2461644,58.5984862 62.053421,50.9411632 68.8417347,50.2770215 C75.6314071,49.6128798 81.8313821,56.1931795 82.6914707,64.9750615" id="Fill-42" fill="#FFFFFF" mask="url(#mask-4)"></path>
                <path d="M82.6914707,64.9750615 C83.5515593,73.7569436 78.7443027,81.4142666 71.9559891,82.0784083 C65.1676754,82.74255 58.9663416,76.1608921 58.106253,67.3803682 C57.2461644,58.5984862 62.053421,50.9411632 68.8417347,50.2770215 C75.6314071,49.6128798 81.8313821,56.1931795 82.6914707,64.9750615 Z" id="Stroke-43" stroke="#0C152E" stroke-width="1.36006254" mask="url(#mask-4)"></path>
                <polyline id="Stroke-44" stroke="#0C152E" stroke-width="1.36006254" mask="url(#mask-4)" points="69.9949056 69.831445 69.9949056 90.3736605 113.984428 90.3736605"></polyline>
                <path d="M73.0520925,66.7954074 C73.0520925,68.4713806 71.691984,69.8309017 70.0152868,69.8309017 C68.3372309,69.8309017 66.9771224,68.4713806 66.9771224,66.7954074 C66.9771224,65.1180761 68.3372309,63.7599131 70.0152868,63.7599131 C71.691984,63.7599131 73.0520925,65.1180761 73.0520925,66.7954074 Z" id="Stroke-45" stroke="#0C152E" stroke-width="1.36006254" mask="url(#mask-4)"></path>
                <polygon id="Fill-46" fill="#FFFFFF" mask="url(#mask-4)" points="322.023144 225.182612 308.826966 225.182612 303.357998 206.279699 316.554176 206.279699"></polygon>
                <polygon id="Stroke-47" stroke="#0C152E" stroke-width="1.36006254" mask="url(#mask-4)" points="322.023144 225.182612 308.826966 225.182612 303.357998 206.279699 316.554176 206.279699"></polygon>
                <path d="M71.9853381,163.260157 L56.6002148,198.462384 C56.6002148,198.462384 63.9687146,194.136635 75.7463573,186.597472 C75.7463573,186.597472 77.8198094,164.769076 81.465335,156.731468 L71.9853381,163.260157 Z" id="Fill-48" fill="#0C152E" mask="url(#mask-4)"></path>
                <path d="M1.17042702,215.477179 C1.98703561,211.522208 7.28887708,187.58866 20.2024346,165.094764" id="Stroke-49" stroke="#0C152E" stroke-width="1.36006254" mask="url(#mask-4)"></path>
                <path d="M1.17042702,215.477179 C-0.159788969,221.918946 1.23972326,228.624197 5.03878752,233.99709 C5.71680363,234.955953 6.46139849,235.857773 7.26170208,236.697118 C10.248234,239.822251 14.4195957,241.541685 18.7431373,241.537618 L23.3194064,241.536253" id="Stroke-50" stroke="#0C152E" stroke-width="1.36006254" mask="url(#mask-4)"></path>
                <path d="M136.012479,212.241491 C136.428256,211.920965 142.97743,206.243844 148.604013,203.956697 C160.355839,204.751222 171.148388,196.728553 173.505819,184.875865 C176.068421,172.001838 167.72298,159.388578 154.824369,156.927587 C124.35033,151.116007 58.3653666,198.445272 56.6003507,198.461569 C61.3722798,187.692695 63.2228969,184.756347 66.71896,178.878217 L45.0930992,173.562367 L43.0223646,183.21619" id="Stroke-51" stroke="#0C152E" stroke-width="1.36006254" mask="url(#mask-4)"></path>
                <path d="M6.70230482,182.308258 C9.81927671,172.507753 37.0567739,126.521712 82.9526224,115.080547 L92.830733,145.004953 C92.830733,145.004953 66.3514182,188.82744 66.2997857,188.925228 L6.70230482,182.308258 Z" id="Fill-52" fill="#2BD67B" mask="url(#mask-4)"></path>
                <polygon id="Stroke-53" stroke="#0C152E" stroke-width="1.36006254" mask="url(#mask-4)" points="73.0518207 241.535709 350.235408 241.535709 350.235408 225.182068 73.0518207 225.182068"></polygon>
                <path d="M142.89047,206.421627 L136.88072,192.787029 C140.829247,198.307961 144.897343,201.627312 148.459985,203.288345 L142.89047,206.421627 Z" id="Fill-54" fill="#DFE6F2" mask="url(#mask-4)"></path>
                <path d="M252.052152,182.840793 C252.052152,195.849279 241.502819,206.394056 228.488714,206.394056 C215.475968,206.394056 204.925276,195.849279 204.925276,182.840793 C204.925276,169.832308 215.475968,159.287531 228.488714,159.287531 C241.502819,159.287531 252.052152,169.832308 252.052152,182.840793 Z" id="Stroke-55" stroke="#0C152E" stroke-width="1.36006254" mask="url(#mask-4)"></path>
                <polygon id="Fill-56" fill="#FFFFFF" mask="url(#mask-4)" points="187.431373 181.50083 304.752619 181.50083 304.752619 90.3735247 187.431373 90.3735247"></polygon>
                <polygon id="Stroke-57" stroke="#0C152E" stroke-width="1.36006254" mask="url(#mask-4)" points="187.431373 181.50083 304.752619 181.50083 304.752619 90.3735247 187.431373 90.3735247"></polygon>
                <polygon id="Fill-58" fill="#0C152E" mask="url(#mask-4)" points="178.350849 181.50083 187.431373 181.50083 187.431373 90.3735247 178.350849 90.3735247"></polygon>
                <polygon id="Stroke-59" stroke="#0C152E" stroke-width="1.36006254" mask="url(#mask-4)" points="178.350849 181.50083 187.431373 181.50083 187.431373 90.3735247 178.350849 90.3735247"></polygon>
                <polygon id="Fill-60" fill="#FFFFFF" mask="url(#mask-4)" points="238.721458 213.716456 264.707547 213.716456 264.707547 141.335875 238.721458 141.335875"></polygon>
                <polygon id="Stroke-61" stroke="#0C152E" stroke-width="1.36006254" mask="url(#mask-4)" points="238.721458 213.716456 264.707547 213.716456 264.707547 141.335875 238.721458 141.335875"></polygon>
                <polygon id="Fill-62" fill="#0C152E" mask="url(#mask-4)" points="233.018786 213.716456 238.721458 213.716456 238.721458 141.335875 233.018786 141.335875"></polygon>
                <polygon id="Stroke-63" stroke="#0C152E" stroke-width="1.36006254" mask="url(#mask-4)" points="233.018786 213.716456 238.721458 213.716456 238.721458 141.335875 233.018786 141.335875"></polygon>
                <polyline id="Stroke-64" stroke="#0C152E" stroke-width="1.36006254" mask="url(#mask-4)" points="206.944107 217.32007 99.5566801 217.32007 99.5566801 225.182476"></polyline>
                <polygon id="Fill-65" fill="#FFFFFF" mask="url(#mask-4)" points="109.390224 217.319663 121.336351 217.319663 121.336351 212.241491 109.390224 212.241491"></polygon>
                <polygon id="Stroke-66" stroke="#0C152E" stroke-width="1.36006254" mask="url(#mask-4)" points="109.390224 217.319663 121.336351 217.319663 121.336351 212.241491 109.390224 212.241491"></polygon>
                <polygon id="Fill-67" fill="#FFFFFF" mask="url(#mask-4)" points="126.382748 217.319663 138.328875 217.319663 138.328875 212.241491 126.382748 212.241491"></polygon>
                <polygon id="Stroke-68" stroke="#0C152E" stroke-width="1.36006254" mask="url(#mask-4)" points="126.382748 217.319663 138.328875 217.319663 138.328875 212.241491 126.382748 212.241491"></polygon>
                <polygon id="Fill-69" fill="#FFFFFF" mask="url(#mask-4)" points="143.375272 217.319663 155.3214 217.319663 155.3214 212.241491 143.375272 212.241491"></polygon>
                <polygon id="Stroke-70" stroke="#0C152E" stroke-width="1.36006254" mask="url(#mask-4)" points="143.375272 217.319663 155.3214 217.319663 155.3214 212.241491 143.375272 212.241491"></polygon>
                <polygon id="Fill-71" fill="#FFFFFF" mask="url(#mask-4)" points="160.367796 217.319663 172.313924 217.319663 172.313924 212.241491 160.367796 212.241491"></polygon>
                <polygon id="Stroke-72" stroke="#0C152E" stroke-width="1.36006254" mask="url(#mask-4)" points="160.367796 217.319663 172.313924 217.319663 172.313924 212.241491 160.367796 212.241491"></polygon>
                <polygon id="Fill-73" fill="#FFFFFF" mask="url(#mask-4)" points="177.36032 217.319663 189.306448 217.319663 189.306448 212.241491 177.36032 212.241491"></polygon>
                <polygon id="Stroke-74" stroke="#0C152E" stroke-width="1.36006254" mask="url(#mask-4)" points="177.36032 217.319663 189.306448 217.319663 189.306448 212.241491 177.36032 212.241491"></polygon>
                <polygon id="Fill-75" fill="#FFFFFF" mask="url(#mask-4)" points="194.354203 217.319663 206.300331 217.319663 206.300331 212.241491 194.354203 212.241491"></polygon>
                <polygon id="Stroke-76" stroke="#0C152E" stroke-width="1.36006254" mask="url(#mask-4)" points="194.354203 217.319663 206.300331 217.319663 206.300331 212.241491 194.354203 212.241491"></polygon>
                <path d="M277.745702,224.925919 L204.567517,224.925919 C204.567517,218.735412 209.588098,213.717 215.781279,213.717 L227.050749,213.717 L277.745702,213.717 L277.745702,224.925919 Z" id="Stroke-77" stroke="#0C152E" stroke-width="1.36006254" mask="url(#mask-4)"></path>
                <g id="Group-80" mask="url(#mask-4)">
                    <g transform="translate(225.552456, 213.696084)">
                        <path d="M1.49883683,11.6761274 L1.49883683,0.0203724451" id="Fill-78" stroke="none" fill="#FFFFFF" fill-rule="evenodd"></path>
                        <path d="M1.49883683,11.6761274 L1.49883683,0.0203724451" id="Stroke-79" stroke="#0C152E" stroke-width="1.36006254" fill="none"></path>
                    </g>
                </g>
            </g>
        </g>
    </g>
</svg>