<svg width="767" height="542" viewBox="0 0 767 542" fill="none" xmlns="http://www.w3.org/2000/svg">
<rect x="324.082" y="123.06" width="103.375" height="11.9904" fill="#4070F4"/>
<rect x="513.914" y="123.06" width="103.375" height="11.9904" fill="#C5CFE4"/>
<path d="M261.678 272.237H747.17V141.628H194.202V241.896H259.615" stroke="#101C3D" stroke-linejoin="round"/>
<rect x="294.324" y="163.57" width="309.106" height="86.7487" fill="white" stroke="#0C152E" stroke-linejoin="round"/>
<rect x="317" y="214" width="159" height="18" fill="#EDF0F5"/>
<path fill-rule="evenodd" clip-rule="evenodd" d="M502 231H551V182H502V231Z" fill="#FF4557"/>
<rect width="49" height="49" transform="translate(502 182)" fill="#FF4557"/>
<path fill-rule="evenodd" clip-rule="evenodd" d="M543.942 191.927C544.342 191.546 544.342 190.928 543.942 190.547L542.73 189.391C542.331 189.01 541.683 189.01 541.283 189.391L526.004 203.964L512.052 190.657C511.653 190.276 511.005 190.276 510.605 190.657L509.393 191.813C508.993 192.195 508.993 192.813 509.393 193.194L523.344 206.5L509.393 219.806C508.993 220.187 508.993 220.805 509.393 221.186L510.605 222.343C511.005 222.724 511.653 222.724 512.052 222.343L526.004 209.036L541.283 223.609C541.683 223.99 542.331 223.99 542.73 223.609L543.942 222.453C544.342 222.072 544.342 221.454 543.942 221.073L528.663 206.5L543.942 191.927Z" fill="white"/>
<path d="M350.241 450.076L631.595 168.722C656.477 143.84 696.818 143.84 721.7 168.722V168.722C733.657 180.67 740.376 196.878 740.379 213.78C740.382 230.683 733.669 246.894 721.717 258.845L440.364 540.199L350.241 450.076Z" fill="#EDF0F5" stroke="#101C3D" stroke-linejoin="round"/>
<path fill-rule="evenodd" clip-rule="evenodd" d="M676.78 250.319C695.95 250.319 711.49 234.779 711.49 215.61C711.49 196.44 695.95 180.9 676.78 180.9C657.611 180.9 642.071 196.44 642.071 215.61C642.071 234.779 657.611 250.319 676.78 250.319Z" stroke="#101C3D" stroke-linejoin="round"/>
<path d="M156.871 79.5639C178.507 79.5639 196.046 62.0246 196.046 40.3887C196.046 18.7528 178.507 1.21338 156.871 1.21338C135.235 1.21338 117.696 18.7528 117.696 40.3887C117.696 62.0246 135.235 79.5639 156.871 79.5639Z" fill="white" stroke="#0C152E" stroke-linejoin="round"/>
<path d="M92.7681 253.061C134.635 262.913 178.227 262.821 220.051 252.794L258.887 243.498V206.313H52.2336V243.498L92.7681 253.061Z" fill="#05DD8F"/>
<path d="M52.2336 246.217V293.232H80.535C67.191 280.274 57.4392 264.074 52.2336 246.217L52.2336 246.217Z" fill="#05DD8F"/>
<path d="M116.045 206.313H52.2336V243.498L78.2534 249.639L83.0593 236.872L116.045 206.313V206.313Z" fill="#101C3D"/>
<path d="M129.783 193.595L116.045 206.313H125.123L129.783 193.595V193.595Z" fill="#101C3D"/>
<path d="M125.123 206.313H116.045L83.0593 236.872L78.2048 249.639L92.7681 253.061C97.4526 254.153 102.186 255.124 106.919 255.974L110.754 245.513L125.123 206.313Z" fill="#101C3D"/>
<path d="M52.622 234.275L32.0392 363.257H172.405L175.124 345.733" stroke="#101C3D" stroke-linejoin="round"/>
<path d="M291.703 214.396C275.222 214.396 250.44 203.983 204.323 182.041C198.279 179.153 190.901 175.658 187.697 174.274C175.062 171.035 166.267 159.593 166.388 146.55C166.509 133.507 175.514 122.229 188.206 119.225C198.935 116.798 204.056 119.225 228.692 130.851C241.581 136.968 273.183 152.017 287.771 156.531C295.052 150.002 307.601 135.342 315.562 125.997C340.15 97.0886 356.412 77.9622 377.82 77.9622C392.22 77.69 404.536 88.258 406.454 102.532C408.371 116.806 399.282 130.25 385.32 133.788C379.349 138.643 367.092 153.06 358.742 162.915C330.66 195.731 313.693 214.396 291.703 214.396Z" fill="white" stroke="#101C3D" stroke-linejoin="round"/>
<path d="M173.983 128.327C186.119 124.928 192.066 127.501 220.731 139.734C235.707 146.142 272.455 161.871 289.324 166.434C297.455 158.642 310.999 141.361 319.664 130.317C337.917 107.04 351.946 89.1755 366.777 79.855C350.344 85.2191 335.757 102.307 315.538 125.972C307.577 135.317 295.125 149.977 287.746 156.507C273.183 151.992 241.629 136.943 228.668 130.827C204.032 119.127 199.032 116.676 188.182 119.224C182.216 120.615 176.87 123.923 172.963 128.642C173.303 128.642 173.619 128.424 173.983 128.327Z" fill="#EDF0F5"/>
<path fill-rule="evenodd" clip-rule="evenodd" d="M291.703 214.396C275.222 214.396 250.44 203.983 204.323 182.041C198.279 179.153 190.901 175.658 187.697 174.274C175.062 171.035 166.267 159.593 166.388 146.55C166.509 133.507 175.514 122.229 188.206 119.225C198.935 116.798 204.056 119.225 228.692 130.851C241.581 136.968 273.183 152.017 287.771 156.531C295.052 150.002 307.601 135.342 315.562 125.997C340.15 97.0886 356.412 77.9622 377.82 77.9622C392.22 77.69 404.536 88.258 406.454 102.532C408.371 116.806 399.282 130.25 385.32 133.788C379.349 138.643 367.092 153.06 358.742 162.915C330.66 195.731 313.693 214.396 291.703 214.396Z" stroke="#101C3D" stroke-linejoin="round"/>
<path d="M194.007 110.025L270.125 148.4L266.824 216.459L244.955 213.643" fill="#05DD8F"/>
<path d="M258.79 206.313C258.79 206.168 258.79 206.046 258.79 205.901C257.925 149.472 211.934 104.182 155.499 104.182C99.0646 104.182 53.0744 149.472 52.2094 205.901V206.313H258.79Z" fill="#05DD8F"/>
<path d="M258.79 206.313C258.79 206.168 258.79 206.046 258.79 205.901C258.848 175.075 245.108 145.841 221.338 126.215C213.353 120.601 204.64 116.101 195.439 112.841L244.955 213.595L258.814 215.391V206.313H258.79Z" fill="#05DD8F"/>
<path d="M266.702 202.187C266.702 202.333 266.702 202.478 266.702 202.6V202.6L267.212 207.017L270.052 148.4L209.299 117.744C213.545 120.304 217.601 123.168 221.435 126.312C246.665 143.981 263.139 171.592 266.702 202.187V202.187Z" fill="#05DD8F"/>
<path d="M52.2337 205.901C52.2337 202.648 52.4036 199.444 52.6949 196.192C50.8807 206.539 50.5863 217.095 51.8211 227.527V227.964L52.1609 230.877V205.901H52.2337Z" fill="#254898"/>
<path d="M266.751 202.599C266.751 202.599 266.751 202.332 266.751 202.187C263.179 171.532 246.647 143.876 221.338 126.215C245.091 145.815 258.837 175.008 258.814 205.803C258.814 205.949 258.814 206.07 258.814 206.216V206.216V215.342L266.824 216.362L267.285 206.92L266.775 202.502L266.751 202.599Z" fill="#101C3D"/>
<path d="M52.2336 313.499H62.0153L52.2336 230.974V313.499V313.499Z" fill="#05DD8F"/>
<path d="M146.555 107.477C163.053 105.488 179.787 107.357 195.439 112.938L194.007 110.05C163.757 97.9152 129.555 100.768 101.734 117.747C73.9122 134.725 55.7353 163.838 52.6948 196.289C60.9155 149.195 99.0789 113.084 146.555 107.477Z" fill="#05DD8F"/>
<path d="M194.177 110.123L209.275 117.744C204.461 114.791 199.411 112.242 194.177 110.123V110.123Z" fill="#05DD8F"/>
<path d="M221.338 126.215C217.504 123.07 213.448 120.207 209.202 117.647L194.177 110.123H193.983L195.415 113.011C204.615 116.216 213.336 120.658 221.338 126.215Z" fill="#05DD8F"/>
<path d="M267.673 363.257L259.615 241.896" stroke="#101C3D" stroke-linejoin="round"/>
<path d="M149.031 1.99023C133.562 10.7615 125.941 28.8515 130.471 46.0475C135.001 63.2435 150.545 75.2315 168.327 75.2437C170.96 75.2461 173.586 74.9859 176.167 74.4669C162.705 82.0858 146.019 81.0691 133.581 71.8721C121.143 62.6751 115.282 47.0201 118.621 31.9158C121.96 16.8116 133.875 5.08662 149.031 1.99023Z" fill="#EDF0F5"/>
<path d="M154.419 110.026C166.497 110.026 176.289 108.113 176.289 105.754C176.289 103.395 166.497 101.482 154.419 101.482C142.341 101.482 132.55 103.395 132.55 105.754C132.55 108.113 142.341 110.026 154.419 110.026Z" fill="#101C3D"/>
<path d="M83.9089 374.082C82.9766 374.082 82.0449 374.033 81.1176 373.937C66.6739 372.532 55.6282 360.438 55.5347 345.927C53.8842 339.227 45.1948 320.756 39.9035 309.518C27.3548 282.819 20.8013 268.256 20.8013 255.95C20.8013 245.585 24.9033 232.43 45.8259 195.925C56.627 177.041 67.2824 160.22 67.6708 159.516C73.0905 150.957 82.6647 145.94 92.7868 146.354C102.909 146.769 112.041 152.551 116.743 161.524C121.446 170.498 121.004 181.298 115.584 189.857C100.462 213.74 83.0836 244.105 78.2292 256.289C80.6564 263.159 86.8701 276.217 91.1662 285.416C105.875 316.679 113.497 333.693 112.04 348.524C110.608 362.998 98.4541 374.041 83.9089 374.082Z" fill="white" stroke="#101C3D" stroke-linejoin="round"/>
<path d="M106.798 150.754C104.678 149.41 102.383 148.365 99.977 147.647C112.027 156.417 115.212 173.029 107.259 185.633C92.1371 209.517 74.7825 239.882 69.9038 252.091C72.3311 258.96 78.5447 272.018 82.8409 281.217C97.5741 312.48 105.171 329.495 103.739 344.325C102.268 358.821 90.057 369.847 75.4864 369.835C74.5541 369.834 73.6225 369.786 72.6951 369.689C70.8016 369.505 68.9314 369.131 67.1125 368.573C71.2118 371.591 76.051 373.444 81.1176 373.937C82.0449 374.033 82.9766 374.082 83.9089 374.083C98.4896 374.064 110.678 362.988 112.089 348.475C113.545 333.669 105.924 316.655 91.2148 285.368C86.9186 276.217 80.7778 263.159 78.2777 256.241C83.1322 244.105 100.511 213.692 115.633 189.808C123.956 176.58 120.004 159.112 106.798 150.754V150.754Z" fill="#EDF0F5"/>
<path fill-rule="evenodd" clip-rule="evenodd" d="M83.9089 374.082C82.9766 374.082 82.0449 374.033 81.1176 373.937C66.6739 372.532 55.6282 360.438 55.5347 345.927C53.8842 339.227 45.1948 320.756 39.9035 309.518C27.3548 282.819 20.8013 268.256 20.8013 255.95C20.8013 245.585 24.9033 232.43 45.8259 195.925C56.627 177.041 67.2824 160.22 67.6708 159.516C73.0905 150.957 82.6647 145.94 92.7868 146.354C102.909 146.769 112.041 152.551 116.743 161.524C121.446 170.498 121.004 181.298 115.584 189.857C100.462 213.74 83.0836 244.105 78.2292 256.289C80.6564 263.159 86.8701 276.217 91.1662 285.416C105.875 316.679 113.497 333.693 112.04 348.524C110.608 362.998 98.4541 374.041 83.9089 374.082Z" stroke="#101C3D" stroke-linejoin="round"/>
<path d="M83.8845 131.919L31.0441 197.794L93.4478 240.173L145.002 168.667" fill="#05DD8F"/>
<path fill-rule="evenodd" clip-rule="evenodd" d="M156.871 79.5639C178.507 79.5639 196.046 62.0246 196.046 40.3887C196.046 18.7528 178.507 1.21338 156.871 1.21338C135.235 1.21338 117.696 18.7528 117.696 40.3887C117.696 62.0246 135.235 79.5639 156.871 79.5639Z" stroke="#0C152E" stroke-linejoin="round"/>
<path d="M106.166 363.257H394.956" stroke="#101C3D" stroke-linejoin="round"/>
<path d="M0 363.257H61.36" stroke="#101C3D" stroke-linejoin="round"/>
</svg>
