<svg width="649" height="312" xmlns="http://www.w3.org/2000/svg">
  <g fill="none" fill-rule="evenodd">
    <path stroke="#0C152E" fill="#DFE6F2" fill-rule="nonzero" stroke-linecap="round" stroke-linejoin="round" d="M304.35 146.38l-107.67.31 102.72 27.82h186.57l-102.72-27.82-105.06-.31"/>
    <path d="M570.48 266.91c5.9-4.72 6.2-12.86 1.14-19.16-11.16-13.92-28-15.55-28.57-15.17-.57.38-2.62 17.25 8.49 31.21 5.03 6.32 13.56 7.41 18.94 3.12zM355.77 80.59a110.45 110.45 0 0 0-27.8-13c-17.45-5.34-34.39-.15-43.19 12.93l70.99.07zM457.25 2.79C435.14 12 427.07 36.46 436.9 60.07c21.72 52.16 71.44 71.93 73.58 71.28 2.14-.65 23.16-50.18 1.64-102.43-9.74-23.65-34.73-34.47-54.87-26.13z" fill="#2BD67B" fill-rule="nonzero"/>
    <path stroke="#254898" stroke-linecap="round" stroke-linejoin="round" d="M479.75 38.76l38.22 116.26-43.23 113.01"/>
    <path d="M631.66 55.11c-21.33-15.74-49.21-9.39-66 13.45-37.09 50.44-27.43 108.93-25.59 110.6 1.84 1.67 60.88-6.72 98.17-57 16.88-22.79 12.86-52.69-6.58-67.05z" fill="#2BD67B" fill-rule="nonzero"/>
    <path d="M577.38 118.49l-96.47 155.54M480.42 278.81l52.15-56.35 23.32 25.37M54.85 310.75c0-9.941-8.227-18-18.377-18H19.227c-10.15 0-18.377 8.059-18.377 18h54z" stroke="#254898" stroke-linecap="round" stroke-linejoin="round"/>
    <path d="M476.92 282.54c2.855-.002 5.694.96 8.42 1.81V174.22H380.86v136.53h41.4a28.21 28.21 0 0 1 28.22-28.21h26.44z" stroke="#254898" fill="#254898" fill-rule="nonzero" stroke-linecap="round" stroke-linejoin="round"/>
    <path d="M450.48 282.54h20.76v-108h-75.16v120.08h31.26a28.18 28.18 0 0 1 23.14-12.08z" fill="#254898" fill-rule="nonzero"/>
    <path stroke="#0C152E" stroke-linecap="round" stroke-linejoin="round" d="M471.24 282.54v-108h-75.16v120.08h31.26"/>
    <path stroke="#0C152E" fill="#0C152E" fill-rule="nonzero" stroke-linecap="round" stroke-linejoin="round" d="M467.08 174.22h4.16v108.32h-4.16z"/>
    <path stroke="#254898" stroke-linecap="round" stroke-linejoin="round" d="M267.06 174.22h48.43v136.54h-48.43z"/>
    <path d="M278 180.51v26.16h26.15v-26.16H278zm20.77 20.6h-15v-15h15v15z" fill="#254898" fill-rule="nonzero"/>
    <path d="M491.5 293.22h-8.7c-9.682 0-17.53 7.848-17.53 17.53H474c0-9.67 7.83-17.513 17.5-17.53z" stroke="#254898" fill="#254898" fill-rule="nonzero" stroke-linecap="round" stroke-linejoin="round"/>
    <path d="M196.68 146.69l7.6-28c6.048-22.341 26.071-38.043 49.21-38.59l188.38.28" stroke="#254898" stroke-linecap="round" stroke-linejoin="round"/>
    <path d="M299.4 174.51l-102.72-27.82" stroke="#0C152E" stroke-linecap="round" stroke-linejoin="round"/>
    <path d="M267.06 146.69l7.59-28c6.44-23.843 28.69-39.925 53.35-38.56M313.4 146.69l7.6-28a52.26 52.26 0 0 1 44-38.25" stroke="#254898" stroke-linecap="round" stroke-linejoin="round"/>
    <path d="M455.86 82.13a53.2 53.2 0 0 0-65.27 37.45l-7.34 27.11L486 174.51l7.35-27.11a53.21 53.21 0 0 0-37.49-65.27z" fill="#254898" fill-rule="nonzero"/>
    <path d="M486 175h-.13l-102.75-27.83a.5.5 0 0 1-.35-.61l7.34-27.11c7.97-28.367 37.307-45.016 65.748-37.313 28.441 7.703 45.366 36.88 37.932 65.393l-7.34 27.11a.53.53 0 0 1-.23.3.54.54 0 0 1-.22.06zm-102.15-28.65l101.78 27.56 7.21-26.64c7.61-28.106-9.004-57.06-37.11-64.67-28.106-7.61-57.06 9.004-64.67 37.11l-7.21 26.64z" fill="#254898" fill-rule="nonzero"/>
    <path d="M451.05 99.9c-.68-.18-1.35-.34-2-.48 18.94 6.262 29.68 26.237 24.46 45.49l-6.61 24.43 4 1.08 6.6-24.42c5.421-20.034-6.419-40.67-26.45-46.1z" stroke="#0C152E" fill="#0C152E" fill-rule="nonzero" stroke-linecap="round" stroke-linejoin="round"/>
    <path d="M398.34 150.78l6.66-24.43c5.43-20.031 26.066-31.871 46.1-26.45 20.011 5.452 31.825 26.082 26.4 46.1l-6.62 24.42" stroke="#0C152E" stroke-linecap="round" stroke-linejoin="round"/>
    <path d="M525.46 310.75c0-9.682-7.848-17.53-17.53-17.53H491.5c-9.67.017-17.5 7.86-17.5 17.53h51.49-.03z" stroke="#254898" stroke-linecap="round" stroke-linejoin="round"/>
    <path d="M498.561 292.973c-5.12-5.768-12.862-9.443-21.526-9.443h-26.166C431.43 283.561 423 296.227 423 310.57h50.171" stroke="#254898" stroke-linecap="round" stroke-linejoin="round"/>
    <path d="M55.23 310.75h513.59" stroke="#254898" fill="#0C152E" fill-rule="nonzero" stroke-linecap="round" stroke-linejoin="round"/>
    <path d="M299.48 174.22l7.38-27.24" stroke="#254898" stroke-linecap="round" stroke-linejoin="round"/>
    <path d="M196.68 146.69h186.57" stroke="#0C152E" stroke-linecap="round" stroke-linejoin="round"/>
    <path stroke="#254898" stroke-linecap="round" stroke-linejoin="round" d="M191.61 174.22h189.82v136.54H191.61z"/>
  </g>
</svg>
