<svg width="631" height="365" xmlns="http://www.w3.org/2000/svg">
  <g transform="translate(-82 -.125)" fill="none" fill-rule="evenodd">
    <path d="M403.52 178.954c.122-.128.252-.248.389-.359-3.608 3.076-13.426 8.625-29.138-3.666-1.653-5.822-3.364-19.406-4.543-28.75-1.667-13.239-3.392-26.938-6.21-38.223a86.138 86.138 0 0 0-1.653-5.75l-5.75-1.912 2.271-6.756c-5.836-12.046-14.375-18.385-25.458-18.889a21.246 21.246 0 0 0-11.802 39.488c2.688 7.979 5.046 26.71 6.397 37.375 3.738 29.785 5.995 44.563 16.287 53.432 17.25 14.95 33.896 20.125 48.329 20.125a59.771 59.771 0 0 0 40.25-15.38l-29.368-30.735z" fill="#C5CFE4" fill-rule="nonzero"/>
    <path stroke="#254898" d="M351.181 246.23l3.307-40.236 138.402 41.443-2.516 27.255z"/>
    <path d="M556.485 455.687l.59-57.988-116.438-10.882 53.187-134.004c-54.94.733-96.528-4.686-147.128-15.482l29.512 182.26c0 21.147 12.248 31.425 27.413 35.938l52.584.158 85.732 18.012 14.548-18.012z" fill="#254898" fill-rule="nonzero"/>
    <path d="M420.181 343.304l-41.472-3.795 21.836 115c1.02.373 2.041.718 3.09 1.02h4.313l-20.642-108.617s55.3 8.826 70.02-1.984l4.5-11.356a67.562 67.562 0 0 1-41.645 9.732z" fill="#0C152E" fill-rule="nonzero"/>
    <path d="M399.007 251.563l-43.211 6.18c-36.66 9.613-59.76 45.804-53.044 83.103.575 3.19 1.092 6.095 1.538 8.625l15.899 91.065-16.474 14.59 97.06.576-22.066-116.165 41.472 3.795c37.993 3.48 71.875-25.256 73.313-63.365 0-.675.33-27.14.33-27.14" fill="#254898" fill-rule="nonzero"/>
    <circle fill="#DFE6F2" fill-rule="nonzero" cx="447.566" cy="116.222" r="27.198"/>
    <path d="M462.875 93.754a27.154 27.154 0 0 0-23.992-3.307c12.344 2.002 21.732 12.163 22.754 24.626 1.02 12.463-6.588 24.017-18.441 28.001 12.584 2.046 24.9-4.924 29.625-16.765 4.725-11.842.59-25.376-9.946-32.555z" fill="#C5CFE4" fill-rule="nonzero"/>
    <ellipse fill="#254898" fill-rule="nonzero" transform="rotate(-74 440.656 163.603)" cx="440.656" cy="163.603" rx="3.967" ry="18.17"/>
    <path d="M494.83 259.742c13.455-37.832-4.358-79.659-40.958-96.174s-79.748-2.196-99.212 32.924a152.375 152.375 0 0 0-6.11 14.044l-1.84 6.685 148.12 42.52z" fill="#2BD67B" fill-rule="nonzero"/>
    <ellipse fill="#4070F4" fill-rule="nonzero" transform="rotate(-69.52 260.907 57.52)" cx="260.907" cy="57.52" rx="22.899" ry="8.496"/>
    <circle fill="#C5CFE4" fill-rule="nonzero" cx="271.357" cy="61.036" r="19.478"/>
    <path d="M297.692 94.07l14.634-43.398-43.413-14.62v.82a61.41 61.41 0 0 1-14.662 42.579l43.44 14.619zM311.247 53.863L298.77 90.88zM304.775 92.895l12.47-37.013 44.533 15.004-12.47 37.013zM359.749 76.964l-8.38 24.883zM355.45 103.35l8.385-24.889 38.543 12.852-8.386 24.888zM414.564 99.098l-6.173 18.322-7.424-2.502 6.173-18.322z" fill="#254898" fill-rule="nonzero"/>
    <path d="M413.949 199.238a328.718 328.718 0 0 0 15.863-9.488c7.907-5.031 23-12.219 28.67-10.678 5.668 1.541 12.48 5.182 16.252 10.793 7.847 11.687 4.74 27.522-6.943 35.377l-53.842-26.004z" fill="#0C152E" fill-rule="nonzero"/>
    <path d="M411.643 238.726h-4.241c-15.956-.575-25.257-3.71-31.122-10.509a21.246 21.246 0 0 1-5.146-13.124c-1.208-33.264-4.413-73.887-7.432-84.884-5.796-8.355-4.86-19.645 2.233-26.931 7.093-7.286 18.355-8.525 26.862-2.955 11.701 7.676 14.792 23.259 18.112 66.197.834 10.81 1.438 21.404 1.898 29.8 4.186-.033 8.367-.312 12.52-.834 13.34-1.697 19.838-5.147 21.42-6.728 8.313-8.116 21.604-8.048 29.835.151 8.231 8.2 8.35 21.49.266 29.835-18.084 18.084-51.88 19.982-65.205 19.982z" fill="#DFE6F2" fill-rule="nonzero"/>
    <path d="M457.398 237.188c-2.875-18.53-3.881-38.252-28.434-42.306l19.076-12.823c11.68-7.848 27.509-4.746 35.363 6.93a25.473 25.473 0 0 1-6.93 35.376l-19.075 12.822z" fill="#2BD67B" fill-rule="nonzero"/>
    <circle stroke="#254898" cx="152.835" cy="260.561" r="69.69"/>
    <circle stroke="#254898" stroke-linecap="round" stroke-linejoin="round" cx="578.694" cy="35.564" r="34.845"/>
    <path fill="#3D71FF" fill-rule="nonzero" d="M656.147 161.604h56.494l-58.88 58.865h-56.48z"/>
    <path d="M544.54 42.521c-11.026 6.886-17.438 12.78-16.173 15.597 2.185 4.888 26.494-1.265 54.28-13.714 27.787-12.448 48.56-26.522 46.374-31.395-1.265-2.875-9.947-1.955-22.41 1.697" stroke="#254898" stroke-linecap="round" stroke-linejoin="round"/>
  </g>
</svg>
