<svg width="113" height="136" viewBox="0 0 113 136" fill="none" xmlns="http://www.w3.org/2000/svg">
<path d="M0.250605 5.66028L10.1695 0.25H108.616V122.552H0.726726L0.250605 5.66028Z" fill="#C5CFE4" stroke="#0C152E" stroke-width="0.5"/>
<rect x="0.25" y="5.76221" width="101.457" height="116.806" fill="white" stroke="#0C152E" stroke-width="0.5"/>
<path fill-rule="evenodd" clip-rule="evenodd" d="M87.2764 125.862H113V100.138H87.2764V125.862Z" fill="#254898"/>
<rect width="18.374" height="18.374" transform="translate(90.9512 103.813)" fill="#254898"/>
<path fill-rule="evenodd" clip-rule="evenodd" d="M105.995 112.25L102.673 108.741C102.388 108.44 102.388 107.953 102.673 107.652C102.958 107.351 103.419 107.351 103.704 107.652L108.252 112.456C108.389 112.6 108.466 112.796 108.466 113C108.466 113.205 108.389 113.401 108.252 113.545L103.704 118.349C103.419 118.65 102.958 118.65 102.673 118.349C102.388 118.048 102.388 117.561 102.673 117.26L105.995 113.75H92.5581C92.1439 113.75 91.8081 113.415 91.8081 113C91.8081 112.586 92.1439 112.25 92.5581 112.25H105.995Z" fill="white"/>
<g clip-path="url(#clip0_12_17051)">
<path d="M29.858 45.5925V39.3397L14.0919 45.2394L13.5979 43.9116L31.2694 37.3057V43.5585L47.9858 37.3057V43.5585L64.707 37.3057V44.5755H63.2955V39.3397L46.5744 45.5925V39.3397L29.858 45.5925Z" fill="#4070F4"/>
<path d="M43.5773 62.8584V56.6103L26.8562 62.8584V56.6103L11.0948 62.5053L10.6008 61.1822L28.2676 54.5715V60.8244L44.9888 54.5715V60.8244L61.7099 54.5715V61.8414H60.2984V56.6103L43.5773 62.8584Z" fill="#4070F4"/>
<path d="M74.5496 47.3723H9.86694V47.8432H74.5496V47.3723Z" fill="#0C152E"/>
<path d="M61.0042 64.2427H9.86694V64.7135H61.0042V64.2427Z" fill="#0C152E"/>
</g>
<g clip-path="url(#clip1_12_17051)">
<path d="M43.5431 123.551L42.1661 126.438C41.4895 127.832 42.0632 129.507 43.44 130.187L43.4452 130.187C44.8277 130.862 46.4901 130.282 47.1663 128.893L48.6395 125.859" fill="#4070F4"/>
<path d="M106.378 29.7405L65.2485 115.034L41.8541 103.537C41.8541 103.537 82.1635 20.2434 83.34 18.4102L106.378 29.7405Z" fill="white"/>
<path d="M65.2273 115.298C65.1958 115.295 65.1648 115.287 65.1341 115.274L41.7402 103.772C41.608 103.708 41.5573 103.55 41.6207 103.416C43.2661 100.013 81.9488 20.0867 83.1245 18.2641C83.1967 18.1528 83.3427 18.1112 83.4595 18.1685L106.498 29.4987C106.63 29.5625 106.681 29.721 106.617 29.8543L65.4871 115.154C65.4558 115.215 65.4043 115.264 65.3336 115.29C65.3012 115.298 65.2641 115.301 65.2273 115.298ZM42.207 103.415L65.1286 114.683L106.025 29.8655L83.444 18.7582C80.8959 23.4789 44.549 98.5663 42.207 103.415Z" fill="#231F20"/>
<path d="M102.299 20.0601L103.805 16.9437C104.996 14.4728 103.982 11.4955 101.539 10.2885C99.089 9.09163 96.1341 10.117 94.9331 12.587L93.4023 15.6802" fill="white"/>
<path d="M102.278 20.3234C102.246 20.3209 102.215 20.3131 102.185 20.3C102.052 20.2362 102.002 20.0777 102.065 19.9444L103.571 16.8279C104.698 14.4957 103.736 11.6663 101.424 10.5284C99.1116 9.40101 96.3034 10.3742 95.1716 12.7061L93.6408 15.7992C93.5773 15.9326 93.4148 15.9835 93.2879 15.9201C93.1557 15.8562 93.105 15.6978 93.1685 15.5645L94.6992 12.4713C95.9576 9.87806 99.0759 8.79122 101.653 10.0515C104.223 11.3219 105.292 14.4634 104.039 17.0623L102.532 20.1787C102.488 20.2763 102.383 20.3318 102.278 20.3234Z" fill="#231F20"/>
<path d="M42.5915 122.905L41.8542 103.537L65.2487 115.034L49.6343 126.365L42.5915 122.905Z" fill="white"/>
<path d="M49.613 126.629C49.5816 126.626 49.5505 126.618 49.5199 126.605L42.477 123.146C42.3908 123.102 42.3342 123.017 42.3317 122.916L41.5892 103.547C41.5859 103.456 41.6303 103.364 41.708 103.317C41.7861 103.264 41.8871 103.256 41.9681 103.3L65.3625 114.797C65.4439 114.836 65.5005 114.92 65.5091 115.011C65.5176 115.102 65.4733 115.195 65.4004 115.247L49.786 126.579C49.7354 126.617 49.676 126.634 49.613 126.629ZM42.8476 122.739L49.6059 126.059L64.738 115.077L42.1364 103.968L42.8476 122.739Z" fill="#231F20"/>
<path d="M96.7711 60.5786L92.5843 58.5187L104.823 33.267L107.344 34.5068C108.258 34.958 108.639 36.0745 108.19 36.9969L96.7598 60.5884L96.7711 60.5786Z" fill="white"/>
<path d="M96.7386 60.8523C96.6809 60.8477 96.6249 60.8219 96.5806 60.7811L92.4748 58.765C92.4139 58.7335 92.3653 58.6817 92.3393 58.6104C92.3181 58.5448 92.3188 58.4703 92.3501 58.409L104.589 33.1572C104.62 33.0958 104.672 33.0467 104.743 33.0204C104.808 32.999 104.882 32.9996 104.943 33.0311L107.463 34.2709C107.971 34.5192 108.348 34.954 108.532 35.4904C108.716 36.0269 108.681 36.6044 108.434 37.117L97.031 60.6308C97.0145 60.704 96.9723 60.7699 96.9003 60.812L96.8889 60.8218C96.8448 60.8449 96.7911 60.8565 96.7386 60.8523ZM92.9368 58.4027L96.6412 60.2216L107.951 36.8814C108.135 36.4968 108.164 36.0626 108.027 35.663C107.89 35.2634 107.605 34.9371 107.224 34.7469L104.942 33.6274L92.9368 58.4027Z" fill="#231F20"/>
<path d="M56.1236 104.199C56.0921 104.196 56.061 104.189 56.0304 104.175C55.8982 104.112 55.8475 103.953 55.911 103.82L94.6201 23.9596C94.6836 23.8263 94.8409 23.775 94.9731 23.8388C95.1053 23.9026 95.156 24.0611 95.0925 24.1944L56.3833 104.055C56.3281 104.151 56.2233 104.207 56.1236 104.199Z" fill="#231F20"/>
<path d="M106.378 29.7407L83.3192 18.4088L85.1341 14.6676C85.792 13.3094 87.4165 12.7419 88.7626 13.4086L106.944 22.3431C108.29 23.0046 108.851 24.6413 108.188 25.9991L106.378 29.7407Z" fill="white"/>
<path d="M106.357 30.0042C106.326 30.0017 106.294 29.9939 106.264 29.9808L83.2048 18.6489C83.0726 18.5851 83.0219 18.4266 83.0853 18.2933L84.9003 14.552C85.6213 13.0658 87.4086 12.4421 88.8822 13.1669L107.063 22.1015C108.537 22.8263 109.153 24.6272 108.432 26.1134L106.617 29.8547C106.562 29.9567 106.462 30.0126 106.357 30.0042ZM83.672 18.287L106.259 29.3841L107.954 25.8835C108.245 25.2892 108.282 24.6214 108.068 23.9973C107.854 23.3733 107.414 22.8696 106.824 22.5828L88.6482 13.6487C88.059 13.3566 87.3965 13.3196 86.7772 13.5363C86.1578 13.7529 85.6575 14.1973 85.3723 14.7921L83.672 18.287Z" fill="#231F20"/>
<path d="M44.262 98.5552L41.8484 103.536L65.2415 115.031L67.6551 110.051L44.262 98.5552Z" fill="#4070F4"/>
</g>
<defs>
<clipPath id="clip0_12_17051">
<rect width="64.6826" height="27.4079" fill="white" transform="translate(9.86694 37.3057)"/>
</clipPath>
<clipPath id="clip1_12_17051">
<rect width="62.6449" height="124.957" fill="white" transform="translate(49.4321 5.51221) rotate(4.57392)"/>
</clipPath>
</defs>
</svg>
