<svg width="75" height="88" viewBox="0 0 75 88" fill="none" xmlns="http://www.w3.org/2000/svg">
<path d="M0.250605 3.71798L6.60857 0.25H70.2556V79.2811H0.558387L0.250605 3.71798Z" fill="#1C1C1E" stroke="#9999A0" stroke-width="0.5"/>
<rect x="0.25" y="3.81982" width="65.5313" height="75.4715" fill="black" stroke="#9999A0" stroke-width="0.5"/>
<path fill-rule="evenodd" clip-rule="evenodd" d="M56.5235 83.2978H74.373V65.4482H56.5235V83.2978Z" fill="#2BD67B"/>
<path fill-rule="evenodd" clip-rule="evenodd" d="M70.0254 70.5101C70.2578 70.7425 70.2578 71.1192 70.0254 71.3516L64.2166 77.1604C64.1385 77.2385 64.0118 77.2385 63.9337 77.1604L60.8712 74.0979C60.6388 73.8655 60.6388 73.4887 60.8712 73.2564C61.1035 73.024 61.4803 73.024 61.7126 73.2564L64.0751 75.6189L69.1839 70.5101C69.4163 70.2777 69.793 70.2777 70.0254 70.5101Z" fill="white"/>
<g clip-path="url(#clip0)">
<path d="M19.3371 29.5275V25.478L9.12649 29.2988L8.80655 28.4389L20.2513 24.1606V28.2102L31.0774 24.1606V28.2102L41.9066 24.1606V28.8689H40.9925V25.478L30.1633 29.5275V25.478L19.3371 29.5275Z" fill="#4070F4"/>
<path d="M28.2223 40.7097V36.6631L17.3931 40.7097V36.6631L7.18545 40.4809L6.86551 39.6241L18.3072 35.3428V39.3923L29.1364 35.3428V39.3923L39.9656 35.3428V40.051H39.0515V36.6631L28.2223 40.7097Z" fill="#4070F4"/>
<g opacity="0.7">
<path d="M48.281 30.6802H6.3902V30.9851H48.281V30.6802Z" fill="#9999A0"/>
</g>
<g opacity="0.7">
<path d="M39.5086 41.606H6.3902V41.9109H39.5086V41.606Z" fill="#9999A0"/>
</g>
</g>
<g clip-path="url(#clip1)">
<path d="M28.2002 80.0158L27.3084 81.8857C26.8702 82.7884 27.2417 83.8732 28.1334 84.3135L28.1368 84.3138C29.0321 84.7509 30.1088 84.375 30.5467 83.4756L31.5008 81.5108" fill="#4070F4"/>
<path d="M68.8944 19.2607L42.2574 74.5002L27.1064 67.0542C27.1064 67.0542 53.2122 13.1101 53.9741 11.9228L68.8944 19.2607Z" fill="black"/>
<path d="M28.6656 63.8277L27.1025 67.0532L42.2527 74.4983L43.8159 71.2728L28.6656 63.8277Z" fill="#4070F4"/>
<path d="M42.2437 74.6707C42.2233 74.6691 42.2032 74.664 42.1834 74.6555L27.0326 67.2061C26.9469 67.1648 26.9141 67.0622 26.9552 66.9758C28.0208 64.7716 53.0732 13.0085 53.8345 11.8282C53.8813 11.7561 53.9758 11.7292 54.0515 11.7662L68.9718 19.1041C69.0575 19.1454 69.0903 19.2481 69.0492 19.3344L42.4119 74.5773C42.3916 74.617 42.3583 74.6488 42.3125 74.6659C42.2916 74.6711 42.2675 74.6726 42.2437 74.6707ZM27.3349 66.9752L42.1798 74.2725L68.6655 19.3417L54.0415 12.1482C52.3912 15.2055 28.8516 63.8348 27.3349 66.9752Z" fill="#9999A0"/>
<path d="M66.2526 12.9914L67.2281 10.9731C67.9991 9.37287 67.3428 7.44468 65.7602 6.66296C64.1737 5.88782 62.2599 6.55189 61.4821 8.15157L60.4907 10.1548" fill="black"/>
<path d="M66.239 13.1618C66.2186 13.1602 66.1984 13.1551 66.1786 13.1467C66.093 13.1053 66.0602 13.0027 66.1013 12.9164L67.0767 10.898C67.8064 9.38759 67.1834 7.55517 65.6862 6.8182C64.1884 6.08809 62.3697 6.71839 61.6367 8.22856L60.6453 10.2318C60.6042 10.3182 60.4989 10.3511 60.4167 10.3101C60.3311 10.2687 60.2983 10.1661 60.3394 10.0798L61.3307 8.07651C62.1457 6.39705 64.1653 5.69318 65.834 6.50937C67.4988 7.33215 68.1911 9.36665 67.3793 11.0498L66.4038 13.0681C66.3748 13.1313 66.3069 13.1673 66.239 13.1618Z" fill="#9999A0"/>
<path d="M27.5838 79.5976L27.1064 67.0537L42.2574 74.4997L32.145 81.8382L27.5838 79.5976Z" fill="black"/>
<path d="M32.1313 82.0092C32.1109 82.0075 32.0908 82.0025 32.071 81.994L27.5098 79.7534C27.4539 79.7248 27.4172 79.6701 27.4156 79.6045L26.9348 67.0603C26.9327 67.0015 26.9614 66.9417 27.0117 66.9113C27.0623 66.8774 27.1277 66.8723 27.1802 66.9006L42.3312 74.3466C42.3839 74.3715 42.4206 74.4262 42.4262 74.4852C42.4317 74.5443 42.403 74.6041 42.3558 74.6382L32.2433 81.9767C32.2106 82.0017 32.1721 82.0124 32.1313 82.0092ZM27.7497 79.4899L32.1266 81.6399L41.9268 74.528L27.2892 67.3334L27.7497 79.4899Z" fill="#9999A0"/>
<path d="M62.6725 39.2326L59.9609 37.8986L67.8874 21.5446L69.5196 22.3476C70.1119 22.6397 70.3584 23.3629 70.0678 23.9602L62.6651 39.2389L62.6725 39.2326Z" fill="black"/>
<path d="M62.6514 39.4099C62.6141 39.4069 62.5778 39.3902 62.5491 39.3638L59.89 38.058C59.8506 38.0376 59.8191 38.0041 59.8023 37.9579C59.7886 37.9155 59.789 37.8672 59.8093 37.8275L67.7357 21.4735C67.756 21.4338 67.7893 21.402 67.8352 21.3849C67.8773 21.3711 67.9252 21.3715 67.9646 21.3918L69.5968 22.1948C69.9259 22.3556 70.1702 22.6372 70.2895 22.9846C70.4087 23.332 70.3857 23.706 70.2257 24.038L62.8408 39.2664C62.8301 39.3138 62.8028 39.3565 62.7561 39.3838L62.7488 39.3901C62.7202 39.405 62.6854 39.4126 62.6514 39.4099ZM60.1892 37.8234L62.5883 39.0014L69.913 23.8854C70.0321 23.6364 70.0512 23.3552 69.9624 23.0964C69.8737 22.8376 69.6888 22.6262 69.4421 22.5031L67.9645 21.778L60.1892 37.8234Z" fill="#9999A0"/>
<path d="M36.3478 67.4828C36.3274 67.4812 36.3073 67.4761 36.2874 67.4676C36.2018 67.4263 36.169 67.3237 36.2101 67.2373L61.2795 15.5169C61.3206 15.4306 61.4225 15.3974 61.5081 15.4387C61.5937 15.48 61.6266 15.5826 61.5855 15.669L36.516 67.3894C36.4802 67.452 36.4124 67.488 36.3478 67.4828Z" fill="#9999A0"/>
<path d="M68.8944 19.2614L53.9605 11.9225L55.1359 9.49949C55.562 8.61987 56.614 8.25235 57.4859 8.68413L69.2605 14.4705C70.1326 14.8988 70.4959 15.9588 70.0664 16.8382L68.8944 19.2614Z" fill="black"/>
<path d="M68.8807 19.4318C68.8603 19.4302 68.8402 19.4252 68.8203 19.4167L53.8864 12.0777C53.8008 12.0364 53.768 11.9338 53.8091 11.8474L54.9845 9.42444C55.4515 8.46189 56.609 8.05799 57.5633 8.5274L69.338 14.3137C70.2923 14.7832 70.6915 15.9495 70.2246 16.912L69.0492 19.335C69.0131 19.4011 68.9487 19.4373 68.8807 19.4318ZM54.1891 11.8433L68.817 19.0302L69.915 16.7631C70.1032 16.3782 70.1275 15.9457 69.9888 15.5416C69.8501 15.1374 69.565 14.8112 69.1831 14.6255L57.4118 8.83939C57.0302 8.65026 56.6012 8.62628 56.2001 8.76658C55.7989 8.90689 55.4749 9.19473 55.2902 9.57992L54.1891 11.8433Z" fill="#9999A0"/>
</g>
<defs>
<clipPath id="clip0">
<rect width="41.8908" height="17.7503" fill="white" transform="translate(6.3902 24.1606)"/>
</clipPath>
<clipPath id="clip1">
<rect width="40.5711" height="80.9268" fill="white" transform="translate(32.0141 3.56982) rotate(4.57392)"/>
</clipPath>
</defs>
</svg>
