<svg width="123" height="148" viewBox="0 0 123 148" fill="none" xmlns="http://www.w3.org/2000/svg">
<path d="M0.250605 6.14808L11.0637 0.25H118.25V133.419H0.769003L0.250605 6.14808Z" fill="#C5CFE4" stroke="#0C152E" stroke-width="0.5"/>
<rect x="0.25" y="6.25" width="110.48" height="127.187" fill="white" stroke="#0C152E" stroke-width="0.5"/>
<path fill-rule="evenodd" clip-rule="evenodd" d="M94.9997 137H123V109H94.9997V137Z" fill="#254898"/>
<rect width="20" height="20" transform="translate(98.9997 113)" fill="#254898"/>
<path fill-rule="evenodd" clip-rule="evenodd" d="M115.529 122.25L111.804 118.316C111.52 118.015 111.52 117.527 111.804 117.227C112.089 116.926 112.551 116.926 112.836 117.227L117.786 122.456C117.923 122.6 117.999 122.796 117.999 123C117.999 123.205 117.923 123.4 117.786 123.545L112.836 128.774C112.551 129.075 112.089 129.075 111.804 128.774C111.52 128.473 111.52 127.986 111.804 127.685L115.529 123.75H100.749C100.335 123.75 99.9988 123.415 99.9988 123C99.9988 122.586 100.335 122.25 100.749 122.25H115.529Z" fill="white"/>
<g clip-path="url(#clip0_13_4817)">
<path d="M32.5002 49.6271V42.8209L15.339 49.2427L14.8013 47.7974L34.0366 40.6069V47.413L52.2323 40.6069V47.413L70.4332 40.6069V48.5201H68.8968V42.8209L50.696 49.6271V42.8209L32.5002 49.6271Z" fill="#4070F4"/>
<path d="M47.4337 68.421V61.6199L29.2328 68.421V61.6199L12.0767 68.0366L11.539 66.5964L30.7692 59.4007V66.2069L48.97 59.4007V66.2069L67.1709 59.4007V67.3139H65.6345V61.6199L47.4337 68.421Z" fill="#4070F4"/>
<path d="M81.1467 51.5645H10.7401V52.077H81.1467V51.5645Z" fill="#0C152E"/>
<path d="M66.4027 69.9277H10.7401V70.4402H66.4027V69.9277Z" fill="#0C152E"/>
</g>
<g clip-path="url(#clip1_13_4817)">
<path d="M47.3965 134.484L45.8977 137.627C45.1612 139.144 45.7856 140.968 47.2843 141.708L47.29 141.708C48.7948 142.443 50.6044 141.811 51.3404 140.299L52.9439 136.997" fill="#4070F4"/>
<path d="M115.792 32.3723L71.0228 125.214L45.5581 112.7C45.5581 112.7 89.4346 22.0348 90.7152 20.0395L115.792 32.3723Z" fill="white"/>
<path d="M70.9997 125.501C70.9654 125.498 70.9316 125.49 70.8983 125.475L45.4341 112.955C45.2902 112.886 45.235 112.713 45.3041 112.568C47.0951 108.863 89.201 21.8642 90.4806 19.8804C90.5593 19.7592 90.7181 19.7139 90.8453 19.7763L115.922 32.1092C116.066 32.1786 116.121 32.3511 116.052 32.4962L71.2825 125.344C71.2484 125.411 71.1924 125.464 71.1153 125.493C71.0801 125.502 71.0397 125.504 70.9997 125.501ZM45.9423 112.567L70.8923 124.832L115.407 32.5084L90.8285 20.4182C88.0548 25.5567 48.4914 107.289 45.9423 112.567Z" fill="#231F20"/>
<path d="M111.352 21.8353L112.991 18.4431C114.287 15.7535 113.184 12.5128 110.524 11.1989C107.858 9.89616 104.641 11.0123 103.334 13.7009L101.668 17.0678" fill="white"/>
<path d="M111.329 22.1219C111.295 22.1191 111.261 22.1106 111.228 22.0964C111.084 22.0269 111.028 21.8544 111.098 21.7093L112.737 18.3171C113.963 15.7785 112.916 12.6987 110.4 11.46C107.883 10.2329 104.826 11.2923 103.594 13.8305L101.928 17.1974C101.858 17.3425 101.682 17.3979 101.543 17.3289C101.4 17.2594 101.344 17.0869 101.413 16.9418L103.08 13.5749C104.449 10.7522 107.844 9.56919 110.648 10.941C113.446 12.3238 114.61 15.7433 113.245 18.5722L111.606 21.9644C111.557 22.0706 111.443 22.131 111.329 22.1219Z" fill="#231F20"/>
<path d="M46.3606 133.782L45.5582 112.699L71.0228 125.214L54.0267 137.548L46.3606 133.782Z" fill="white"/>
<path d="M54.0036 137.835C53.9694 137.832 53.9355 137.823 53.9022 137.809L46.2361 134.043C46.1422 133.995 46.0806 133.904 46.0779 133.793L45.2698 112.71C45.2662 112.611 45.3145 112.511 45.399 112.459C45.4841 112.403 45.594 112.394 45.6821 112.442L71.1468 124.956C71.2354 124.998 71.2971 125.09 71.3064 125.189C71.3157 125.288 71.2674 125.389 71.1881 125.446L54.1919 137.78C54.1368 137.822 54.0722 137.84 54.0036 137.835ZM46.6395 133.601L53.9958 137.214L70.4671 125.261L45.8654 113.169L46.6395 133.601Z" fill="#231F20"/>
<path d="M105.335 65.9395L100.777 63.6973L114.1 36.211L116.843 37.5605C117.838 38.0516 118.253 39.2669 117.764 40.2709L105.322 65.9501L105.335 65.9395Z" fill="white"/>
<path d="M105.299 66.2375C105.237 66.2324 105.176 66.2044 105.127 66.16L100.658 63.9654C100.592 63.9311 100.539 63.8747 100.511 63.7971C100.488 63.7258 100.488 63.6447 100.523 63.5779L113.845 36.0915C113.879 36.0247 113.935 35.9712 114.012 35.9426C114.083 35.9193 114.163 35.92 114.229 35.9542L116.973 37.3037C117.526 37.574 117.936 38.0473 118.137 38.6312C118.337 39.2152 118.298 39.8437 118.03 40.4017L105.618 65.9963C105.6 66.076 105.554 66.1477 105.475 66.1936L105.463 66.2042C105.415 66.2293 105.357 66.242 105.299 66.2375ZM101.161 63.571L105.193 65.551L117.504 40.1453C117.704 39.7266 117.736 39.254 117.587 38.819C117.438 38.3841 117.127 38.0289 116.713 37.8219L114.229 36.6033L101.161 63.571Z" fill="#231F20"/>
<path d="M61.0903 113.42C61.0561 113.417 61.0223 113.409 60.9889 113.394C60.845 113.325 60.7898 113.152 60.8589 113.007L102.994 26.08C103.063 25.9348 103.234 25.879 103.378 25.9484C103.522 26.0179 103.577 26.1904 103.508 26.3355L61.3731 113.263C61.3129 113.368 61.1989 113.429 61.0903 113.42Z" fill="#231F20"/>
<path d="M115.792 32.3727L90.6923 20.038L92.6679 15.9657C93.384 14.4873 95.1522 13.8696 96.6175 14.5953L116.407 24.3205C117.873 25.0405 118.484 26.822 117.762 28.3L115.792 32.3727Z" fill="white"/>
<path d="M115.769 32.6595C115.735 32.6568 115.701 32.6483 115.668 32.634L90.5679 20.2993C90.424 20.2298 90.3688 20.0574 90.4379 19.9122L92.4135 15.8399C93.1982 14.2221 95.1438 13.5433 96.7477 14.3322L116.538 24.0574C118.142 24.8464 118.812 26.8066 118.028 28.4244L116.052 32.4967C115.992 32.6078 115.883 32.6687 115.769 32.6595ZM91.0765 19.9054L115.662 31.9845L117.507 28.1742C117.824 27.5272 117.865 26.8003 117.631 26.1211C117.398 25.4418 116.919 24.8935 116.277 24.5814L96.4931 14.8566C95.8517 14.5387 95.1306 14.4984 94.4564 14.7342C93.7822 14.9701 93.2376 15.4538 92.9272 16.1012L91.0765 19.9054Z" fill="#231F20"/>
<path d="M48.1789 107.277L45.5517 112.698L71.0149 125.211L73.6421 119.79L48.1789 107.277Z" fill="#4070F4"/>
</g>
<defs>
<clipPath id="clip0_13_4817">
<rect width="70.4066" height="29.8333" fill="white" transform="translate(10.7401 40.6069)"/>
</clipPath>
<clipPath id="clip1_13_4817">
<rect width="68.1886" height="136.015" fill="white" transform="translate(53.8067 6) rotate(4.57392)"/>
</clipPath>
</defs>
</svg>
