<svg width="75" height="89" viewBox="0 0 75 89" fill="none" xmlns="http://www.w3.org/2000/svg">
<path d="M0.250605 3.74808L6.66375 0.25H70.85V79.9516H0.560995L0.250605 3.74808Z" fill="#1C1C1E" stroke="#9999A0" stroke-width="0.5"/>
<rect x="0.25" y="3.8501" width="66.088" height="76.112" fill="black" stroke="#9999A0" stroke-width="0.5"/>
<path fill-rule="evenodd" clip-rule="evenodd" d="M57 84H75V66H57V84Z" fill="#FF4557"/>
<path fill-rule="evenodd" clip-rule="evenodd" d="M70.1232 71.5726C70.303 71.401 70.303 71.1229 70.1232 70.9514C69.9434 70.7799 69.6518 70.7799 69.4719 70.9514L65.8785 74.3787L62.6102 71.2616C62.4304 71.09 62.1388 71.09 61.959 71.2616C61.7791 71.4331 61.7791 71.7112 61.959 71.8827L65.2272 74.9998L61.959 78.1169C61.7791 78.2884 61.7791 78.5665 61.959 78.7381C62.1388 78.9096 62.4304 78.9096 62.6102 78.7381L65.8785 75.621L69.4719 79.0482C69.6518 79.2198 69.9434 79.2198 70.1232 79.0482C70.303 78.8767 70.303 78.5986 70.1232 78.4271L66.5297 74.9998L70.1232 71.5726Z" fill="white"/>
<g clip-path="url(#clip0)">
<path d="M19.5001 29.7764V25.6927L9.2034 29.5458L8.88077 28.6786L20.422 24.3643V28.448L31.3394 24.3643V28.448L42.2599 24.3643V29.1122H41.3381V25.6927L30.4176 29.7764V25.6927L19.5001 29.7764Z" fill="#4070F4"/>
<path d="M28.4602 41.0528V36.9721L17.5397 41.0528V36.9721L7.24602 40.8221L6.92339 39.958L18.4615 35.6406V39.7243L29.382 35.6406V39.7243L40.3025 35.6406V40.3885H39.3807V36.9721L28.4602 41.0528Z" fill="#4070F4"/>
<g opacity="0.7">
<path d="M48.688 30.939H6.44406V31.2465H48.688V30.939Z" fill="#9999A0"/>
</g>
<g opacity="0.7">
<path d="M39.8416 41.957H6.44406V42.2645H39.8416V41.957Z" fill="#9999A0"/>
</g>
</g>
<g clip-path="url(#clip1)">
<path d="M28.4379 80.6907L27.5386 82.5763C27.0967 83.4867 27.4714 84.5807 28.3706 85.0246L28.374 85.0249C29.2769 85.4657 30.3626 85.0866 30.8042 84.1797L31.7664 82.1983" fill="#4070F4"/>
<path d="M69.4752 19.4236L42.6136 75.1287L27.3349 67.62C27.3349 67.62 53.6608 13.221 54.4291 12.0238L69.4752 19.4236Z" fill="black"/>
<path d="M28.9073 64.3659L27.331 67.6187L42.6089 75.1265L44.1852 71.8738L28.9073 64.3659Z" fill="#4070F4"/>
<path d="M42.5998 75.3003C42.5793 75.2987 42.559 75.2936 42.539 75.285L27.2604 67.7728C27.1741 67.7311 27.141 67.6276 27.1825 67.5406C28.257 65.3178 53.5206 13.1183 54.2884 11.928C54.3356 11.8553 54.4309 11.8281 54.5072 11.8655L69.5533 19.2653C69.6396 19.3069 69.6727 19.4104 69.6313 19.4975L42.7695 75.2061C42.749 75.2462 42.7154 75.2783 42.6692 75.2954C42.6481 75.3007 42.6238 75.3022 42.5998 75.3003ZM27.5654 67.5399L42.5354 74.8988L69.2444 19.5048L54.4971 12.2507C52.8329 15.3338 29.0949 64.373 27.5654 67.5399Z" fill="#9999A0"/>
<path d="M66.8112 13.1012L67.7949 11.0659C68.5724 9.45219 67.9105 7.50774 66.3146 6.71943C64.7147 5.93776 62.7848 6.60743 62.0004 8.2206L61.0007 10.2407" fill="black"/>
<path d="M66.7974 13.2732C66.7768 13.2715 66.7565 13.2664 66.7365 13.2579C66.6502 13.2162 66.617 13.1127 66.6585 13.0256L67.6422 10.9903C68.378 9.46712 67.7498 7.61924 66.2399 6.87607C64.7295 6.1398 62.8955 6.77541 62.1563 8.29831L61.1565 10.3185C61.1151 10.4055 61.009 10.4388 60.926 10.3974C60.8397 10.3557 60.8066 10.2522 60.848 10.1651L61.8478 8.14499C62.6696 6.45136 64.7062 5.74156 66.389 6.56463C68.0678 7.39434 68.766 9.446 67.9473 11.1434L66.9636 13.1787C66.9343 13.2424 66.8659 13.2787 66.7974 13.2732Z" fill="#9999A0"/>
<path d="M27.8164 80.2688L27.3349 67.6191L42.6137 75.1279L32.416 82.5283L27.8164 80.2688Z" fill="black"/>
<path d="M32.4022 82.7008C32.3816 82.6991 32.3613 82.694 32.3413 82.6855L27.7417 80.426C27.6853 80.3971 27.6484 80.342 27.6468 80.2758L27.1619 67.6259C27.1597 67.5666 27.1887 67.5063 27.2394 67.4756C27.2904 67.4414 27.3564 67.4363 27.4093 67.4649L42.6881 74.9736C42.7412 74.9987 42.7782 75.0538 42.7838 75.1134C42.7894 75.173 42.7604 75.2332 42.7128 75.2677L32.5152 82.6681C32.4821 82.6932 32.4433 82.704 32.4022 82.7008ZM27.9837 80.1602L32.3975 82.3283L42.2802 75.1566L27.5192 67.9013L27.9837 80.1602Z" fill="#9999A0"/>
<path d="M63.2009 39.5634L60.4664 38.2181L68.4597 21.7263L70.1057 22.536C70.703 22.8307 70.9516 23.5599 70.6585 24.1623L63.1934 39.5698L63.2009 39.5634Z" fill="black"/>
<path d="M63.1796 39.7423C63.1419 39.7392 63.1053 39.7224 63.0764 39.6958L60.3949 38.379C60.3552 38.3585 60.3234 38.3246 60.3064 38.2781C60.2926 38.2352 60.293 38.1866 60.3135 38.1465L68.3068 21.6547C68.3272 21.6146 68.3608 21.5825 68.4071 21.5654C68.4496 21.5514 68.4978 21.5518 68.5376 21.5723L70.1835 22.382C70.5155 22.5442 70.7618 22.8281 70.882 23.1785C71.0023 23.5289 70.9791 23.906 70.8178 24.2408L63.3706 39.5976C63.3598 39.6454 63.3322 39.6884 63.2852 39.7159L63.2778 39.7223C63.249 39.7374 63.2139 39.745 63.1796 39.7423ZM60.6967 38.1424L63.116 39.3304L70.5024 24.0869C70.6225 23.8358 70.6418 23.5522 70.5523 23.2912C70.4628 23.0302 70.2763 22.8171 70.0276 22.6929L68.5375 21.9617L60.6967 38.1424Z" fill="#9999A0"/>
<path d="M36.6542 68.052C36.6336 68.0504 36.6133 68.0453 36.5933 68.0367C36.507 67.9951 36.4739 67.8916 36.5153 67.8045L61.7961 15.6481C61.8376 15.561 61.9403 15.5275 62.0266 15.5692C62.113 15.6109 62.1461 15.7143 62.1046 15.8014L36.8238 67.9578C36.7877 68.021 36.7193 68.0573 36.6542 68.052Z" fill="#9999A0"/>
<path d="M69.4752 19.4236L54.4154 12.0228L55.6007 9.57942C56.0304 8.69238 57.0913 8.32177 57.9705 8.75719L69.8444 14.5923C70.7239 15.0243 71.0902 16.0932 70.6571 16.98L69.4752 19.4236Z" fill="black"/>
<path d="M69.4614 19.5956C69.4408 19.594 69.4205 19.5889 69.4005 19.5803L54.3407 12.1795C54.2544 12.1378 54.2213 12.0343 54.2627 11.9472L55.4481 9.50384C55.9189 8.53317 57.0863 8.12587 58.0486 8.59924L69.9226 14.4344C70.8849 14.9077 71.2875 16.0839 70.8166 17.0545L69.6313 19.4979C69.5949 19.5646 69.5299 19.6011 69.4614 19.5956ZM54.6459 11.9431L69.3972 19.1906L70.5044 16.9044C70.6942 16.5162 70.7187 16.0801 70.5788 15.6725C70.439 15.265 70.1515 14.936 69.7663 14.7487L57.8958 8.91386C57.511 8.72313 57.0783 8.69894 56.6738 8.84043C56.2693 8.98192 55.9426 9.27219 55.7563 9.66063L54.6459 11.9431Z" fill="#9999A0"/>
</g>
<defs>
<clipPath id="clip0">
<rect width="42.244" height="17.9" fill="white" transform="translate(6.44406 24.3643)"/>
</clipPath>
<clipPath id="clip1">
<rect width="40.9132" height="81.6091" fill="white" transform="translate(32.284 3.6001) rotate(4.57392)"/>
</clipPath>
</defs>
</svg>
