<svg width="294" height="184" viewBox="0 0 294 184" fill="none" xmlns="http://www.w3.org/2000/svg">
<path d="M73.8802 111.717C73.3229 112.16 61.6551 108.725 61.6551 108.725L54.335 113.757L70.1174 65.8796L116.516 76.5673" fill="#DFE6F2"/>
<path d="M54.3309 113.954C54.2874 113.954 54.2479 113.943 54.2124 113.915C54.1452 113.863 54.1175 113.776 54.1452 113.693L69.9276 65.8164C69.9592 65.7176 70.0581 65.6623 70.1608 65.686L116.56 76.3737C116.666 76.3974 116.734 76.5041 116.71 76.6108C116.686 76.7175 116.579 76.7847 116.473 76.761L70.2478 66.1129L54.7064 113.263L61.5443 108.563C61.5917 108.531 61.655 108.52 61.7103 108.535C66.0541 109.812 73.1648 111.761 73.7813 111.547C73.8644 111.48 73.979 111.5 74.0462 111.587C74.1134 111.674 74.0896 111.804 74.0027 111.871C73.4296 112.322 65.2755 109.994 61.6866 108.943L54.4456 113.919C54.41 113.943 54.3705 113.954 54.3309 113.954Z" fill="#0C152E"/>
<path d="M202.421 27.9511C201.598 27.8168 168.828 8.67462 142.042 19.3899C115.255 30.1053 117.935 35.461 94.718 32.1883C71.5008 28.9156 59.5958 29.5084 48.584 35.7614C37.5723 42.0103 35.7857 48.8561 14.3551 51.2395C-7.07559 53.6189 -5.51433 84.5989 25.849 85.7767C57.2124 86.9546 143.528 85.7767 143.528 85.7767" fill="#254898"/>
<path d="M193.259 53.8481C187.014 50.8837 184.057 43.5439 186.634 37.0222C189.322 30.2278 197.002 26.8918 203.8 29.5637C209.231 31.6823 225.768 36.5716 237.009 33.8246C243.345 32.2752 249.503 28.2515 255.464 24.3583C262.511 19.7536 269.8 14.9908 278.341 13.5402C285.55 12.3149 292.392 17.1686 293.618 24.382C294.843 31.5914 289.989 38.4332 282.776 39.6585C279.673 40.1842 274.732 43.4134 269.954 46.5359C262.863 51.1683 254.041 56.9351 243.298 59.5595C221.871 64.7966 196.867 55.3066 194.085 54.2078C193.804 54.0932 193.528 53.9746 193.259 53.8481Z" fill="white"/>
<path d="M229.326 61.3184C212.16 61.3184 196.199 55.2552 194.01 54.3896C193.725 54.2789 193.445 54.1564 193.172 54.026C186.812 51.0062 183.856 43.5043 186.449 36.9471C189.168 30.0657 196.982 26.6705 203.867 29.378C209.274 31.4886 225.768 36.3661 236.958 33.6309C243.258 32.0894 249.404 28.0736 255.349 24.1922C262.416 19.5717 269.721 14.801 278.305 13.3425C281.847 12.7417 285.408 13.556 288.333 15.631C291.262 17.7101 293.206 20.8049 293.807 24.3424C294.408 27.8839 293.594 31.4451 291.519 34.374C289.44 37.3028 286.349 39.2474 282.807 39.8482C279.744 40.37 274.823 43.5834 270.064 46.694C262.958 51.3383 254.116 57.1169 243.345 59.7493C238.748 60.8718 233.994 61.3184 229.326 61.3184ZM193.342 53.6663C193.607 53.7928 193.879 53.9114 194.156 54.0181C196.931 55.1169 221.879 64.5832 243.25 59.3619C253.958 56.7453 262.768 50.9904 269.843 46.362C274.641 43.2277 279.598 39.9866 282.74 39.453C286.175 38.868 289.179 36.9826 291.195 34.1408C293.21 31.2989 294.001 27.8404 293.416 24.4057C292.831 20.9709 290.946 17.967 288.104 15.9512C285.262 13.9354 281.803 13.1449 278.369 13.7299C269.867 15.1726 262.598 19.9235 255.566 24.5163C249.59 28.4215 243.416 32.453 237.049 34.0103C225.756 36.7692 209.164 31.8641 203.721 29.7416C197.037 27.1132 189.452 30.4096 186.812 37.0894C184.302 43.4569 187.168 50.7375 193.342 53.6663Z" fill="#0C152E"/>
<path d="M219.927 61.1207L225.219 61.2749C225.089 57.4646 223.634 51.188 222.397 46.4608C221.223 41.9707 219.278 37.7178 216.599 33.9313C216.077 33.1921 215.65 32.6506 215.452 32.5123L205.682 30.0657" fill="#2BD67B"/>
<path d="M217.472 61.0576L223.974 61.2276C224.195 52.9075 218.167 42.71 215.057 38.5558C212.646 35.3345 208.033 31.4215 205.681 30.0658L200.093 28.6903" fill="#0C152E"/>
<path d="M144.591 49.0023L125.718 140.294C125.718 140.294 172.524 150.689 191.089 136.341C205.183 125.448 222.476 71.8954 215.847 64.7808" fill="white"/>
<path d="M159.176 144.124C156.488 144.124 153.879 144.037 151.433 143.895C137.556 143.096 125.797 140.511 125.678 140.488C125.571 140.464 125.504 140.361 125.528 140.255L144.397 48.9628C144.421 48.8561 144.528 48.7849 144.631 48.8086C144.737 48.8324 144.804 48.9351 144.785 49.0419L125.951 140.144C129.231 140.839 173.282 149.851 190.97 136.187C202.484 127.29 215.598 90.7727 216.986 73.7926C217.353 69.2788 216.911 66.2117 215.705 64.9152C215.63 64.8362 215.634 64.7097 215.717 64.6346C215.8 64.5595 215.922 64.5635 215.998 64.6465C217.298 66.0417 217.764 69.1326 217.381 73.8242C215.99 90.8676 202.8 127.547 191.215 136.5C183.409 142.527 170.583 144.124 159.176 144.124Z" fill="#0C152E"/>
<path d="M126.959 140.1L128.903 140.851L151.196 127.824C162.405 121.274 171.836 112.065 178.646 101.01L126.959 140.1Z" fill="#DFE6F2"/>
<path d="M213.235 26.4808C220.493 26.4808 226.377 20.5968 226.377 13.3386C226.377 6.08037 220.493 0.196411 213.235 0.196411C205.976 0.196411 200.093 6.08037 200.093 13.3386C200.093 20.5968 205.976 26.4808 213.235 26.4808Z" fill="white"/>
<path d="M210.575 24.2199C204.614 20.0816 203.136 11.8919 207.274 5.93152C209.381 2.89992 212.531 1.03037 215.907 0.469112C210.903 -0.566452 205.539 1.38215 202.44 5.84456C198.302 11.805 199.78 19.9946 205.741 24.1329C208.669 26.1685 212.14 26.8404 215.397 26.2989C213.717 25.9472 212.077 25.2634 210.575 24.2199Z" fill="#DFE6F2"/>
<path d="M178.275 100.875C144.338 130.816 109.868 150.642 70.3586 175.792L70.7973 183.428L25.853 148.922C25.853 148.922 113.817 82.2944 137.149 58.2986" fill="white"/>
<path d="M70.7972 183.626C70.7537 183.626 70.7142 183.61 70.6786 183.586L25.7343 149.081C25.6869 149.045 25.6553 148.986 25.6553 148.922C25.6553 148.859 25.6829 148.804 25.7343 148.764C26.6118 148.096 113.955 81.8677 137.006 58.1604C137.081 58.0813 137.208 58.0813 137.287 58.1564C137.366 58.2315 137.366 58.358 137.291 58.4371C114.765 81.6068 30.9556 145.302 26.181 148.922L70.5798 183.005L70.1648 175.8C70.1608 175.729 70.1964 175.661 70.2557 175.622C77.0343 171.31 83.7101 167.12 90.1646 163.073C120.959 143.76 150.045 125.519 178.148 100.725C178.231 100.654 178.354 100.662 178.429 100.741C178.504 100.82 178.492 100.947 178.413 101.022C150.287 125.84 121.184 144.088 90.378 163.408C83.9552 167.436 77.3109 171.602 70.5679 175.895L71.0027 183.416C71.0066 183.491 70.9671 183.566 70.8999 183.602C70.8604 183.618 70.8288 183.626 70.7972 183.626Z" fill="#0C152E"/>
<path d="M201.76 85.9544C177.978 85.9544 152.915 74.3182 152.618 74.1798C152.52 74.1324 152.476 74.0138 152.524 73.915C152.571 73.8162 152.686 73.7727 152.788 73.8201C153.144 73.9862 188.757 90.5157 215.254 84.0691C215.361 84.0454 215.468 84.1086 215.491 84.2153C215.519 84.322 215.452 84.4288 215.345 84.4525C210.997 85.5078 206.401 85.9544 201.76 85.9544Z" fill="#0C152E"/>
<path d="M158.773 66.9429C158.773 66.9429 159.326 67.1248 161.295 67.686L153.085 73.9587L155.39 74.9666C158.152 73.5832 164.065 68.4528 164.275 68.524C176.966 72.8006 205.215 76.769 217.057 72.7808C217.132 71.8401 217.112 70.4844 217.116 68.5635L163.524 61.5319L158.773 66.9429Z" fill="#DFE6F2"/>
<path d="M197.666 89.8123C202.088 89.8123 205.674 86.227 205.674 81.8044C205.674 77.3818 202.088 73.7966 197.666 73.7966C193.243 73.7966 189.658 77.3818 189.658 81.8044C189.658 86.227 193.243 89.8123 197.666 89.8123Z" fill="#254898"/>
<path d="M213.207 26.6784C210.511 26.6784 207.887 25.8602 205.626 24.291C199.587 20.0974 198.081 11.7694 202.278 5.72598C206.472 -0.317446 214.8 -1.81546 220.843 2.37818C223.768 4.40979 225.729 7.46114 226.361 10.967C226.993 14.4729 226.223 18.0144 224.191 20.9432C222.16 23.8681 219.108 25.8286 215.602 26.461C214.804 26.6072 214.001 26.6784 213.207 26.6784ZM213.25 0.397965C209.148 0.397965 205.112 2.33866 202.598 5.95523C198.527 11.8168 199.986 19.8998 205.847 23.9669C208.689 25.9392 212.124 26.6863 215.527 26.0736C218.93 25.461 221.891 23.5598 223.859 20.7179C225.831 17.88 226.578 14.4413 225.966 11.0382C225.353 7.63506 223.448 4.67461 220.61 2.70624C218.369 1.14894 215.8 0.397965 213.25 0.397965Z" fill="#0C152E"/>
<path d="M96.5483 113.986C95.7775 113.622 95.1491 113.243 94.6787 112.927C88.6037 108.856 86.9792 100.626 91.0503 94.5514C93.3151 91.168 96.8724 89.168 100.623 88.7569C104.358 85.587 111.311 77.6582 114.892 73.5674C117.983 70.0417 120.9 66.7097 123.378 64.1643C132.876 54.4094 157.943 37.7574 160.769 35.8918C166.872 31.8602 175.089 33.544 179.117 39.6467C183.148 45.7494 181.468 53.9667 175.366 57.9983C165.607 64.4449 148.01 76.8401 142.358 82.6463C140.366 84.6898 137.67 87.7688 134.817 91.0257C130.319 96.16 125.22 101.982 120.611 106.354C117.56 109.251 115.003 111.263 112.564 112.693C105.473 116.844 99.7696 115.516 96.5483 113.986Z" fill="white"/>
<path d="M103.133 115.678C100.453 115.678 98.1964 114.986 96.4612 114.164C95.7893 113.844 95.1529 113.484 94.5679 113.093C88.4099 108.966 86.7577 100.599 90.8842 94.4446C93.0897 91.1561 96.6075 89.0177 100.54 88.5711C104.267 85.3933 111.066 77.6384 114.722 73.4645L114.9 73.5633L114.75 73.4329C117.837 69.9072 120.753 66.5792 123.232 64.0338C132.745 54.2631 157.828 37.5992 160.654 35.7336C166.836 31.6506 175.192 33.3581 179.279 39.5439C183.362 45.7296 181.654 54.0813 175.468 58.1682C165.714 64.6108 148.133 76.9941 142.492 82.7885C140.516 84.8201 137.836 87.8755 134.998 91.1126L134.955 91.16C130.457 96.2944 125.358 102.116 120.738 106.5C117.674 109.405 115.109 111.429 112.655 112.863C109.105 114.942 105.892 115.678 103.133 115.678ZM96.6312 113.804C100.066 115.436 105.603 116.535 112.465 112.516C114.892 111.097 117.437 109.089 120.473 106.203C125.078 101.832 130.172 96.0177 134.666 90.8873L134.71 90.8399C137.548 87.5988 140.232 84.5395 142.216 82.5C147.88 76.6819 165.488 64.2749 175.259 57.8243C181.263 53.8599 182.919 45.7493 178.955 39.7494C174.99 33.7455 166.88 32.0894 160.88 36.0538C158.054 37.9194 133.006 54.5595 123.52 64.2986C121.05 66.8361 118.137 70.1642 115.05 73.6819L115.022 73.7135C111.342 77.9111 104.493 85.7292 100.754 88.8992C100.722 88.9229 100.686 88.9387 100.647 88.9466C96.8051 89.3656 93.3664 91.4446 91.2162 94.6541C87.2123 100.63 88.817 108.753 94.7893 112.757C95.3545 113.144 95.975 113.496 96.6312 113.804Z" fill="#0C152E"/>
<path d="M221.503 69.3618C223.95 52.1248 215.784 33.5242 198.116 26.0064C174.16 15.8168 146.48 26.9748 136.291 50.9311C173.951 79.2906 217.381 71.2116 221.503 69.3618Z" fill="#2BD67B"/>
<path d="M207.275 32.33C207.723 31.4261 204.799 29.0665 200.746 27.0597C196.692 25.0528 193.044 24.1586 192.596 25.0625C192.149 25.9663 195.072 28.3259 199.125 30.3327C203.179 32.3396 206.828 33.2338 207.275 32.33Z" fill="#0C152E"/>
<path d="M164.259 65.6187C164.259 65.6187 169.456 62.4686 175.377 56.6307L168.113 66.8598C166.887 66.4883 165.599 66.0733 164.259 65.6187Z" fill="#0C152E"/>
<path d="M168.192 67.0891L168.057 67.0496C166.883 66.6978 165.587 66.2789 164.2 65.8085L163.801 65.6741L164.164 65.4528C164.216 65.4212 169.413 62.2433 175.243 56.4924L175.544 56.7493L168.192 67.0891ZM164.718 65.5634C165.899 65.9626 167.014 66.3184 168.034 66.6267L174.01 58.2157C169.634 62.2907 165.86 64.8283 164.718 65.5634Z" fill="#0C152E"/>
</svg>
