<?xml version="1.0" encoding="UTF-8"?>
<svg width="252px" height="282px" viewBox="0 0 252 282" version="1.1" xmlns="http://www.w3.org/2000/svg" xmlns:xlink="http://www.w3.org/1999/xlink">
    <!-- Generator: sketchtool 58 (101010) - https://sketch.com -->
    <title>B476A022-AD5C-48A5-A490-4A972BED88B7</title>
    <desc>Created with sketchtool.</desc>
    <defs>
        <polygon id="path-1" points="0.780185759 0.390820657 1.17027864 0.390820657 1.17027864 0.781641315 0.780185759 0.781641315"></polygon>
    </defs>
    <g id="🎊-Create-an-Account" stroke="none" stroke-width="1" fill="none" fill-rule="evenodd">
        <g id="4.0---Perfect!-You're-all-set" transform="translate(-557.000000, -270.000000)">
            <g id="all-set-illustration" transform="translate(557.000000, 270.000000)">
                <g id="Group-106" transform="translate(0.000000, 0.374406)">
                    <path d="M84.9566118,104.093988 L84.9566118,104.093988 L85.8787913,100.273325 C85.8787913,100.273325 84.1030885,99.2126378 77.9466427,99.2720425 C78.0816149,99.2720425 77.414556,99.3064347 77.4808718,99.6941288 C80.0531443,100.462482 83.1184941,102.140666 84.9566118,104.093988" id="Fill-1" fill="#DFE6F2"></path>
                    <path d="M83.1661635,129.273703 L83.1333957,129.297152 L83.1661635,129.273703 Z" id="Fill-3" fill="#DFE6F2"></path>
                    <path d="M79.2952718,132.873474 L79.5987641,131.372723 C78.5845226,131.790901 77.5258105,132.093396 76.4436929,132.273173 C76.4717796,132.512356 76.5193709,132.64758 76.5841263,132.656959 C77.4587146,132.681972 78.3294019,132.779677 79.1883864,132.948511" id="Fill-5" fill="#DFE6F2"></path>
                    <path d="M79.6080483,131.344583 C80.8703889,130.825574 82.0562712,130.136166 83.1337077,129.297465 L79.6080483,131.344583 Z" id="Fill-7" fill="#4070F4"></path>
                    <path d="M87.2065115,124.621999 L83.1659294,129.273547 C84.7957375,127.994 86.167304,126.415866 87.2065115,124.621999" id="Fill-9" fill="#4070F4"></path>
                    <path d="M91.866639,109.719617 L91.748831,109.14042 L91.8674192,103.481337 L89.7156669,114.543907 L89.4340198,113.932663 C89.5026762,114.553287 89.5385647,115.176255 89.5424656,115.801568 C89.5604099,118.892959 88.7536978,121.932762 87.2065895,124.607539 L87.6715802,124.101035 C87.6715802,124.101035 85.6469981,134.098228 85.6516712,134.098228 C87.9290415,134.559396 89.7304904,134.933021 89.7304904,134.933021 L90.1338464,128.856541 C92.5937721,122.791786 93.1976359,116.129857 91.866639,109.719617" id="Fill-11" fill="#DFE6F2"></path>
                    <path d="M84.9566118,104.089376 L86.7697635,95.1020643" id="Stroke-13" stroke="#0C152E" stroke-width="0.8265"></path>
                    <polyline id="Stroke-15" stroke="#0C152E" stroke-width="0.8265" points="87.7447616 123.629627 66.1211331 230.683222 59.652613 229.373973 79.5988421 131.349117"></polyline>
                    <path d="M93.3347926,95.9485818 L89.5407492,115.427865" id="Stroke-17" stroke="#0C152E" stroke-width="0.8265"></path>
                    <polygon id="Fill-19" fill="#4070F4" points="60.7197511 224.080463 67.1929523 225.393621 65.0271567 236.120084 58.5531752 234.80849"></polygon>
                    <polygon id="Stroke-21" stroke="#4070F4" stroke-width="0.8265" points="60.7197511 224.080463 67.1929523 225.393621 65.0271567 236.120084 58.5531752 234.80849"></polygon>
                    <path d="M39.2959282,269.288955 C33.2619715,270.870997 28.1135257,274.812814 25.006826,280.231934 L30.4595443,280.216301 C32.7868384,276.156456 36.2781697,272.889977 40.4810303,270.842077 C40.0480272,270.353551 39.6524731,269.834541 39.2959282,269.288955" id="Fill-23" fill="#DFE6F2"></path>
                    <path d="M155.562643,0.407347667 C161.243175,0.390976986 165.860315,4.99171776 165.876738,10.6828482 C165.892302,16.3739786 161.300129,21.0005135 155.620376,21.0161901 C149.939844,21.0325608 145.322705,16.43182 145.306277,10.7406896 C145.289937,5.04955922 149.88211,0.423805921 155.562643,0.407347667" id="Fill-25" fill="#4070F4"></path>
                    <path d="M163.498224,4.19876129 C171.468602,4.17615322 177.948045,10.6309472 177.970729,18.6169765 C177.993295,26.6022242 171.549741,33.0937553 163.579363,33.1164784 C155.608986,33.1383089 149.129543,26.6835149 149.106858,18.6982672 C149.084292,10.7122379 155.527846,4.22070677 163.498224,4.19876129" id="Fill-27" fill="#FFFFFF"></path>
                    <path d="M37.3786217,264.167876 C24.2441944,262.399022 11.3477238,268.771743 4.75359381,280.288446" id="Stroke-29" stroke="#0C152E" stroke-width="0.8265"></path>
                    <polygon id="Fill-31" fill="#DFE6F2" points="128.786433 93.1753966 116.7193 93.2379279 116.822285 91.4002892 128.94013 91.3807481"></polygon>
                    <path d="M209.330705,169.05268 C202.509541,141.678038 199.508946,92.9825657 199.508946,92.9770942 L213.110705,92.9387938 L212.96559,91.144927 L198.099931,91.1871356 L198.099931,91.2246544 L198.26377,92.9810024 L206.241169,178.31513 C209.318222,179.53449 212.539609,179.031113 215.320191,177.396701 C213.955646,174.909518 210.425305,173.517415 209.330705,169.05268" id="Fill-33" fill="#DFE6F2"></path>
                    <path d="M212.94671,90.906839 C214.826177,114.159886 214.619428,118.688716 215.692183,123.611493 C216.200864,128.638229 218.340134,146.404936 222.223118,160.511998 C225.111366,171.032109 215.033707,181.799218 206.212926,178.314661" id="Stroke-35" stroke="#0C152E" stroke-width="0.8265"></path>
                    <path d="M165.586937,5.52018546 C157.781179,7.13583805 152.761464,14.7857616 154.374108,22.6053013 C155.522541,28.1713691 159.818244,32.5469972 165.353662,33.7890252 C157.444919,34.7863996 150.22742,29.1734333 149.231123,21.2507169 C148.234826,13.3280005 153.83734,6.09547346 161.746083,5.09809915 C163.400077,4.88861927 165.078256,4.96912833 166.705724,5.33493647 C166.332795,5.36698376 165.959866,5.42873342 165.586937,5.52018546" id="Fill-37" fill="#DFE6F2"></path>
                    <path d="M163.500097,4.96054892 C171.470474,4.93794084 177.949917,11.3927348 177.972602,19.3779825 C177.995168,27.3640118 171.551614,33.8555429 163.581236,33.878266 C155.610858,33.9000965 149.131415,27.4453025 149.108731,19.4600548 C149.086165,11.4740255 155.529719,4.9824944 163.500097,4.96054892 Z" id="Stroke-39" stroke="#0C152E" stroke-width="0.8265"></path>
                    <polyline id="Stroke-41" stroke="#0C152E" stroke-width="0.8265" points="158.508546 279.870894 163.917574 154.137635 169.36249 279.84041"></polyline>
                    <polyline id="Stroke-43" stroke="#0C152E" stroke-width="0.8265" points="214.743243 269.712605 198.090959 91.2240291 162.855429 91.3225159 128.939974 91.4178761 113.377609 274.174995 109.443132 280.009166"></polyline>
                    <path d="M136.654919,47.8982763 C122.075588,57.4444617 113.311761,73.7369932 113.369495,91.1863539 L136.775848,91.1206961 L136.654919,47.8982763 Z" id="Fill-45" fill="#4070F4"></path>
                    <path d="M136.654919,47.8982763 C122.075588,57.4444617 113.311761,73.7369932 113.369495,91.1863539 L136.775848,91.1206961 L136.654919,47.8982763 Z" id="Stroke-47" stroke="#4070F4" stroke-width="0.8265"></path>
                    <path d="M143.361162,44.1786016 L143.414214,63.1232421 L185.935898,63.0044327 L185.94292,44.0027323 C172.386412,37.9145281 156.867737,37.9786227 143.361162,44.1786016" id="Fill-49" fill="#4070F4"></path>
                    <path d="M143.361162,44.1786016 L143.414214,63.1232421 L185.935898,63.0044327 L185.94292,44.0027323 C172.386412,37.9145281 156.867737,37.9786227 143.361162,44.1786016 Z" id="Stroke-51" stroke="#4070F4" stroke-width="0.8265"></path>
                    <path d="M216.300182,90.8976938 C216.261953,73.3779854 207.339749,57.078419 192.614523,47.6291572 L192.707365,90.9633517 L216.300182,90.8976938 Z" id="Fill-53" fill="#4070F4"></path>
                    <path d="M216.300182,90.8976938 C216.261953,73.3779854 207.339749,57.078419 192.614523,47.6291572 L192.707365,90.9633517 L216.300182,90.8976938 Z" id="Stroke-55" stroke="#4070F4" stroke-width="0.8265"></path>
                    <path d="M212.055269,214.244367 C213.621882,212.427051 216.206638,212.429396 218.14696,214.115396 C222.425498,217.842262 222.738353,223.191815 222.613523,223.379409 C222.487913,223.566221 217.106192,224.001596 212.808929,220.30365 C210.868607,218.626248 210.627529,215.90301 212.055269,214.244367" id="Fill-57" fill="#2BD67B"></path>
                    <path d="M250.83448,233.725839 C249.114171,230.585204 245.338072,229.78793 241.989515,231.642765 C234.598035,235.733875 232.47905,243.4604 232.60544,243.768366 C232.732611,244.076333 240.444747,246.386083 247.854951,242.323112 C251.194146,240.486255 252.404994,236.599934 250.83448,233.725839" id="Fill-59" fill="#2BD67B"></path>
                    <g id="Group-64" transform="translate(226.253870, 203.226742)">
                        <path d="M0.702245201,63.568465 C0.70068483,62.9415887 0.524362848,0.110914903 0.524362848,0.110914903" id="Fill-61" fill="#FFFFFF"></path>
                        <path d="M0.702245201,63.568465 C0.70068483,62.9415887 0.524362848,0.110914903 0.524362848,0.110914903" id="Stroke-63" stroke="#0C152E" stroke-width="0.8265"></path>
                    </g>
                    <path d="M226.899006,246.31683 L239.429569,240.333365" id="Stroke-65" stroke="#0C152E" stroke-width="0.8265"></path>
                    <path d="M226.846811,227.689457 L218.422365,219.292285" id="Stroke-67" stroke="#0C152E" stroke-width="0.8265"></path>
                    <path d="M236.199522,199.423666 C235.188401,198.262929 233.528166,198.276217 232.290011,199.359571 C229.558581,201.759992 229.377578,205.204685 229.457157,205.32115 C229.536736,205.437614 232.993739,205.703372 235.734531,203.313113 C236.931336,202.365764 237.139646,200.626612 236.199522,199.423666" id="Fill-69" fill="#2BD67B"></path>
                    <path d="M226.754593,208.104965 L232.131633,202.687409" id="Stroke-71" stroke="#0C152E" stroke-width="0.8265"></path>
                    <path d="M124.639044,142.998934 C118.579341,144.417613 112.047626,143.814967 110.068295,143.27798 C103.602895,141.534919 96.9003195,138.370835 90.4224372,135.314618 C88.9127777,134.670545 87.3336817,134.203906 85.7163567,133.925641 M79.2392545,132.967349 C77.2146724,132.748489 75.5068458,132.593724 74.5737437,132.447557 M74.7797127,99.2950228 C78.4364433,99.1934094 82.0923938,99.5084109 85.6781276,100.236119 M92.1107591,101.881474 C95.8970006,103.089891 99.5958613,104.557032 103.182375,106.271953 C106.213397,107.703138 110.538747,109.741659 113.998871,111.097025 C116.195093,107.478807 116.486103,101.547713 116.821583,91.4004455" id="Stroke-73" stroke="#0C152E" stroke-width="0.8265"></path>
                    <path d="M40.4806402,270.842311 C37.7172223,267.707929 36.5804916,263.457364 37.4113895,259.359219 L42.9600706,231.874365 L80.5213337,239.489115 L74.9500272,267.006797 C74.142535,271.029123 71.5296929,274.453494 67.8675009,276.288788" id="Stroke-75" stroke="#0C152E" stroke-width="0.8265"></path>
                    <path d="M101.862379,71.2498106 L88.9760508,68.636002 C88.5290043,70.8558633 89.2545771,73.1499806 90.8960879,74.7062285 L86.6908867,95.5135203 L93.2249424,96.8360574 L97.3653882,76.230429 C99.6606947,75.5191354 101.385685,73.6095857 101.862379,71.2498106" id="Fill-77" fill="#4070F4"></path>
                    <path d="M101.862379,71.2498106 L88.9760508,68.636002 C88.5290043,70.8558633 89.2545771,73.1499806 90.8960879,74.7062285 L86.6908867,95.5135203 L93.2249424,96.8360574 L97.3653882,76.230429 C99.6606947,75.5191354 101.385685,73.6095857 101.862379,71.2498106 Z" id="Stroke-79" stroke="#4070F4" stroke-width="0.8265"></path>
                    <path d="M61.857652,235.723479 L55.1402526,268.973719" id="Stroke-81" stroke="#0C152E" stroke-width="0.8265"></path>
                    <path d="M164.310007,39.2544176 C168.281933,39.2434747 171.50488,40.0212078 171.507223,40.9920063 C171.510342,41.9620232 168.292076,42.757734 164.31937,42.768677 C160.347444,42.7804016 157.125277,42.0026685 157.122155,41.03187 C157.119815,40.0618531 160.337302,39.2661423 164.310007,39.2544176" id="Fill-83" fill="#0C152E"></path>
                    <path d="M248.845163,279.603729 C241.712705,267.310856 225.98494,263.139236 213.714959,270.284219 C209.817931,272.554106 206.584841,275.811205 204.341807,279.72801 L248.845163,279.603729 Z" id="Stroke-85" stroke="#0C152E" stroke-width="0.8265"></path>
                    <path d="M171.214729,6.43845767 C164.466123,2.19023713 155.557181,4.22797604 151.316872,10.9891734 C149.905516,13.2403004 149.140154,15.8384761 149.106606,18.4968382 C151.113243,19.3699316 153.279039,19.8170304 155.46746,19.810842 C163.266197,19.7904546 169.9165,14.1430961 171.214729,6.43845767" id="Fill-87" fill="#4070F4"></path>
                    <g id="Group-91" transform="translate(0.000000, 279.827591)">
                        <mask id="mask-2" fill="white">
                            <use xlink:href="#path-1"></use>
                        </mask>
                        <g id="Clip-90"></g>
                        <path d="" id="Fill-89" fill="#0C152E" mask="url(#mask-2)"></path>
                    </g>
                    <path d="M160.607168,4.50108151 C161.569917,4.29941805 162.551391,4.19780468 163.535205,4.19858632 C163.413496,4.05398268 163.301149,3.90937904 163.175539,3.76946524 C161.690066,3.63971278 160.19445,3.72881989 158.735502,4.03444165 C152.987093,5.22878957 148.178028,10.2703761 146.54666,15.6629195 C147.153645,16.7650337 147.956456,17.7483385 148.915304,18.5628088 C149.450511,11.6405933 154.206524,5.82752682 160.607168,4.50108151" id="Fill-92" fill="#0C152E"></path>
                    <path d="M176.024965,15.0937893 C176.51102,15.0906017 176.994736,15.0390134 177.470649,14.9405266 C176.532085,11.4168875 174.296853,8.37942939 171.214339,6.438614 C170.928011,8.13321237 170.368618,9.76918764 169.558005,11.2847902 C170.856234,13.6437836 173.336445,15.1046713 176.024965,15.0937893" id="Fill-94" fill="#4070F4"></path>
                    <path d="M89.5161734,114.866725 C89.5169536,115.184853 89.5411393,115.498291 89.5419912,115.801568 C89.5676656,124.960841 82.6567802,132.405974 74.1075046,132.430261 C65.5574489,132.453654 61.9818576,125.038223 61.9560394,115.87895 C61.9311455,106.719677 68.3981053,99.2807969 74.0372879,99.2643267 C82.2893127,99.2417148 89.0535232,106.138918 89.5395789,114.852655" id="Stroke-96" stroke="#0C152E" stroke-width="0.8265"></path>
                    <path d="M143.493403,91.3350221 L143.361552,44.103564 C141.042059,45.1650329 138.805267,46.3976813 136.668338,47.7905661 L136.790827,91.3537815 L143.493403,91.3350221 Z" id="Stroke-98" stroke="#0C152E" stroke-width="0.8265"></path>
                    <path d="M186.019222,91.2159781 L185.887371,43.9837384 C188.213105,45.0334827 190.458479,46.2536248 192.60477,47.6340034 L192.726479,91.1972188 L186.019222,91.2159781 Z" id="Stroke-100" stroke="#0C152E" stroke-width="0.8265"></path>
                    <polygon id="Stroke-102" stroke="#0C152E" stroke-width="0.8265" points="143.419129 63.0951812 185.935352 62.9763717 186.014931 91.2162908 143.497928 91.3351003"></polygon>
                    <path d="M70.6625944,280.103745 C64.2229412,268.998966 50.0173189,265.227547 38.9332198,271.679214 C35.4091207,273.730241 32.4865449,276.674684 30.4596223,280.217083 L70.6625944,280.103745 Z" id="Stroke-104" stroke="#0C152E" stroke-width="0.8265"></path>
                </g>
                <path d="M1.17043467,280.317054 L251.245716,280.317054" id="Stroke-107" stroke="#0C152E" stroke-width="0.8265" stroke-linecap="round" stroke-linejoin="round"></path>
            </g>
        </g>
    </g>
</svg>