<svg xmlns="http://www.w3.org/2000/svg" viewBox="0 0 223.3 187.36"><title>Transaction submitted</title><g id="Layer_2" data-name="Layer 2"><g id="Isolation_Mode" data-name="Isolation Mode"><polygon points="55.2 172.39 179.56 172.39 179.56 167.76 50.42 167.42 55.2 172.39" fill="#dfe6f2"/><line y1="186.76" x2="223.3" y2="186.76" fill="none" stroke="#254898" stroke-miterlimit="10" stroke-width="1.2"/><rect x="50.42" y="148.09" width="152.12" height="19.33" fill="#dfe6f2" stroke="#101c3d" stroke-miterlimit="10"/><line x1="148.97" y1="148.09" x2="148.97" y2="166.59" fill="none" stroke="#0c152e" stroke-linecap="round" stroke-miterlimit="10"/><line x1="124.11" y1="148.09" x2="124.11" y2="166.59" fill="none" stroke="#0c152e" stroke-linecap="round" stroke-miterlimit="10"/><line x1="175.34" y1="148.09" x2="175.34" y2="166.59" fill="none" stroke="#0c152e" stroke-linecap="round" stroke-miterlimit="10"/><rect x="27.43" y="167.42" width="152.12" height="19.33" fill="#dfe6f2" stroke="#101c3d" stroke-miterlimit="10"/><line x1="61.08" y1="168.25" x2="61.08" y2="186.76" fill="none" stroke="#0c152e" stroke-linecap="round" stroke-miterlimit="10"/><line x1="85.1" y1="168.25" x2="85.1" y2="186.76" fill="none" stroke="#0c152e" stroke-linecap="round" stroke-miterlimit="10"/><ellipse cx="130.18" cy="65.36" rx="64.71" ry="64.71" transform="translate(-8.79 21.71) rotate(-9.23)" fill="#dfe6f2" stroke="#101c3d" stroke-miterlimit="10"/><path d="M130.18,130.07a64.71,64.71,0,0,1,0-129.42c.77,0,1.54,0,2.31,0v0S50.81-5.72,51.87,65.36s80.62,64.71,80.62,64.71v0C131.72,130.05,131,130.07,130.18,130.07Z" fill="#dfe6f2" stroke="#101c3d" stroke-miterlimit="10"/><ellipse cx="130.18" cy="65.36" rx="64.71" ry="64.71" fill="none" stroke="#0c152e" stroke-miterlimit="10"/><ellipse cx="130.18" cy="65.36" rx="55.98" ry="55.99" fill="#f7f9fb" stroke="#000" stroke-miterlimit="10" stroke-width="1.2"/><rect x="120.17" y="54.78" width="17" height="17" transform="translate(174.91 199.02) rotate(-135)" fill="#3d71ff"/><line x1="55.61" y1="88.56" x2="69.73" y2="88.56" fill="none" stroke="#101c3d" stroke-linecap="round" stroke-miterlimit="10"/><line x1="58.39" y1="36.23" x2="72.49" y2="36.23" fill="none" stroke="#101c3d" stroke-linecap="round" stroke-miterlimit="10"/><line x1="68.05" y1="108.5" x2="81.92" y2="108.5" fill="none" stroke="#101c3d" stroke-linecap="round" stroke-miterlimit="10"/><path d="M129.48,9.37c-.78,0-1.56,0-2.33.05a56,56,0,0,1,0,111.87c.77,0,1.55,0,2.33,0a56,56,0,1,0,0-112Z" fill="#c5cfe4"/><rect x="170.16" y="12.08" width="35.4" height="35.4" transform="translate(375.72 59.57) rotate(180)" fill="#2bd67b"/><polyline points="177.11 31.3 183.69 37.25 197.43 21.67" fill="none" stroke="#fff" stroke-miterlimit="10"/></g></g></svg>