<svg width="107" height="91" viewBox="0 0 107 91" fill="none" xmlns="http://www.w3.org/2000/svg">
<g clip-path="url(#clip0)">
<path d="M24.7207 77.5362H80.4126V75.4542L22.5801 75.3013L24.7207 77.5362Z" fill="#DFE6F2"/>
<path d="M90.7037 66.6089H22.5801V75.3012H90.7037V66.6089Z" fill="#DFE6F2" stroke="#101C3D" stroke-miterlimit="10"/>
<path d="M66.7129 66.6089V74.928" stroke="#0C152E" stroke-miterlimit="10" stroke-linecap="round"/>
<path d="M55.5801 66.6089V74.928" stroke="#0C152E" stroke-miterlimit="10" stroke-linecap="round"/>
<path d="M78.5225 66.6089V74.928" stroke="#0C152E" stroke-miterlimit="10" stroke-linecap="round"/>
<path d="M80.4068 75.3013H12.2832V83.9936H80.4068V75.3013Z" fill="#DFE6F2" stroke="#101C3D" stroke-miterlimit="10"/>
<path d="M27.3535 75.6741V83.9976" stroke="#0C152E" stroke-miterlimit="10" stroke-linecap="round"/>
<path d="M38.1113 75.6741V83.9976" stroke="#0C152E" stroke-miterlimit="10" stroke-linecap="round"/>
<path d="M58.3032 58.4966C74.3078 58.4966 87.2821 45.4686 87.2821 29.3978C87.2821 13.327 74.3078 0.299072 58.3032 0.299072C42.2985 0.299072 29.3242 13.327 29.3242 29.3978C29.3242 45.4686 42.2985 58.4966 58.3032 58.4966Z" fill="#DFE6F2" stroke="#101C3D" stroke-miterlimit="10"/>
<path d="M0 83.9978H100" stroke="#254898" stroke-width="1.2" stroke-miterlimit="10"/>
<path d="M58.2976 58.5057C50.6119 58.5057 43.241 55.4399 37.8064 49.9828C32.3718 44.5257 29.3187 37.1244 29.3187 29.4069C29.3187 21.6894 32.3718 14.288 37.8064 8.83095C43.241 3.37387 50.6119 0.308117 58.2976 0.308117H59.3321C59.3321 0.308117 22.7535 -2.55634 23.2282 29.4069C23.7029 61.3701 59.3321 58.5057 59.3321 58.5057C58.9873 58.4967 58.6648 58.5057 58.2976 58.5057Z" fill="#DFE6F2" stroke="#101C3D" stroke-miterlimit="10"/>
<path d="M58.2993 58.5054C74.3039 58.5054 87.2782 45.4774 87.2782 29.4066C87.2782 13.3358 74.3039 0.307861 58.2993 0.307861C42.2946 0.307861 29.3203 13.3358 29.3203 29.4066C29.3203 45.4774 42.2946 58.5054 58.2993 58.5054Z" stroke="#0C152E" stroke-miterlimit="10"/>
<path d="M58.2989 54.5844C72.1444 54.5844 83.3683 43.312 83.3683 29.4068C83.3683 15.5016 72.1444 4.22925 58.2989 4.22925C44.4535 4.22925 33.2295 15.5016 33.2295 29.4068C33.2295 43.312 44.4535 54.5844 58.2989 54.5844Z" fill="#F7F9FB"/>
<path d="M57.9848 4.22933C57.6355 4.22933 57.2862 4.22933 56.9414 4.25182C63.376 4.5634 69.4444 7.34945 73.8886 12.0324C78.3328 16.7153 80.8118 22.9359 80.8118 29.4047C80.8118 35.8734 78.3328 42.094 73.8886 46.7769C69.4444 51.4599 63.376 54.2459 56.9414 54.5575H57.9848C64.636 54.5575 71.0148 51.9044 75.7179 47.1818C80.421 42.4593 83.0632 36.0541 83.0632 29.3754C83.0632 22.6967 80.421 16.2916 75.7179 11.569C71.0148 6.84646 64.636 4.19336 57.9848 4.19336V4.22933Z" fill="#C5CFE4"/>
<path d="M58.2989 54.5844C72.1444 54.5844 83.3683 43.312 83.3683 29.4068C83.3683 15.5016 72.1444 4.22925 58.2989 4.22925C44.4535 4.22925 33.2295 15.5016 33.2295 29.4068C33.2295 43.312 44.4535 54.5844 58.2989 54.5844Z" stroke="black" stroke-width="1.2" stroke-miterlimit="10"/>
<path d="M57.6196 23.0706L52.2363 28.4761L57.6196 33.8816L63.0028 28.4761L57.6196 23.0706Z" fill="#3D71FF"/>
<path d="M24.9033 39.8394H31.2267" stroke="#101C3D" stroke-miterlimit="10" stroke-linecap="round"/>
<path d="M26.1484 16.3079H32.4628" stroke="#101C3D" stroke-miterlimit="10" stroke-linecap="round"/>
<path d="M30.4756 48.8062H36.687" stroke="#101C3D" stroke-miterlimit="10" stroke-linecap="round"/>
<path d="M95 3H72V26H95V3Z" fill="#254898"/>
<path fill-rule="evenodd" clip-rule="evenodd" d="M77.5498 9.10255C77.5498 8.79741 77.7972 8.55005 78.1023 8.55005H88.8973C89.2024 8.55005 89.4498 8.79741 89.4498 9.10255C89.4498 9.40769 89.2024 9.65505 88.8973 9.65505H87.7388C87.6349 11.3267 86.7984 12.8508 85.4839 13.8383C85.2819 13.9901 85.0685 14.1292 84.8448 14.2542C84.685 14.3435 84.5199 14.4256 84.3498 14.5C84.5199 14.5745 84.685 14.6566 84.8448 14.7459C85.0685 14.8709 85.2819 15.01 85.4839 15.1618C86.7984 16.1493 87.6349 17.6734 87.7388 19.3451H88.8973C89.2024 19.3451 89.4498 19.5924 89.4498 19.8976C89.4498 20.2027 89.2024 20.4501 88.8973 20.4501H78.1023C77.7972 20.4501 77.5498 20.2027 77.5498 19.8976C77.5498 19.5924 77.7972 19.3451 78.1023 19.3451H79.2608C79.3647 17.6734 80.2012 16.1493 81.5157 15.1618C81.7177 15.01 81.9311 14.8709 82.1548 14.7459C82.3146 14.6566 82.4797 14.5745 82.6498 14.5C82.4797 14.4256 82.3146 14.3435 82.1548 14.2542C81.9311 14.1292 81.7177 13.9901 81.5157 13.8383C80.2012 12.8508 79.3647 11.3267 79.2608 9.65505H78.1023C77.7972 9.65505 77.5498 9.40769 77.5498 9.10255ZM80.3685 9.65505H86.6312C86.5018 11.3278 85.4614 12.8076 83.9069 13.4877L83.4998 13.6658L83.0927 13.4877C81.5382 12.8076 80.4978 11.3278 80.3685 9.65505ZM83.4998 15.3343L83.0927 15.5124C81.5382 16.1925 80.4978 17.6723 80.3685 19.345H86.6312C86.5018 17.6723 85.4614 16.1925 83.9069 15.5124L83.4998 15.3343Z" fill="white"/>
</g>
<defs>
<clipPath id="clip0">
<rect width="107" height="90.1496" fill="white"/>
</clipPath>
</defs>
</svg>
