<?xml version="1.0" encoding="UTF-8"?>
<svg width="278px" height="258px" viewBox="-50 -2 278 258" version="1.1" xmlns="http://www.w3.org/2000/svg" xmlns:xlink="http://www.w3.org/1999/xlink">
    <!-- Generator: sketchtool 57.1 (101010) - https://sketch.com -->
    <title>B8DC3A9D-B253-49DA-9483-F91CD525572B</title>
    <desc>Created with sketchtool.</desc>
    <g id="Page-1" stroke="none" stroke-width="1" fill="none" fill-rule="evenodd">
        <g id="Verify-Message---1.0.6" transform="translate(-592.000000, -306.000000)">
            <g id="Group-2" transform="translate(592.700000, 306.500000)">
                <g id="Group-32">
                    <polygon id="Stroke-1" stroke="#0C152E" stroke-width="0.51" stroke-linecap="round" stroke-linejoin="round" points="0.255 202.77702 183.02625 202.77702 183.02625 89.95788 0.255 89.95788"></polygon>
                    <path d="M87.620754,25.150293 L0.254694,90.081963 L183.025944,90.081963 L95.660394,25.150293 C93.274104,23.376513 90.007044,23.376513 87.620754,25.150293" id="Fill-3" fill="#FFFFFF"></path>
                    <path d="M87.620754,25.150293 L0.254694,90.081963 L183.025944,90.081963 L95.660394,25.150293 C93.274104,23.376513 90.007044,23.376513 87.620754,25.150293 Z" id="Stroke-4" stroke="#0C152E" stroke-width="0.51" stroke-linecap="round" stroke-linejoin="round"></path>
                    <polygon id="Fill-5" fill="#4070F4" points="91.640523 146.36745 0.255153 89.95788 183.026403 89.95788"></polygon>
                    <polygon id="Stroke-6" stroke="#4070F4" stroke-width="0.51" stroke-linecap="round" stroke-linejoin="round" points="91.640523 146.36745 0.255153 89.95788 183.026403 89.95788"></polygon>
                    <path d="M32.500158,0.255153 L159.087768,0.255153 L159.087768,104.734263 L91.640268,146.367603 L23.293128,104.102883 L23.293128,24.682113 L23.293128,9.462183 C23.293128,4.377483 27.415458,0.255153 32.500158,0.255153" id="Fill-7" fill="#FFFFFF"></path>
                    <path d="M32.500158,0.255153 L159.087768,0.255153 L159.087768,104.734263 L91.640268,146.367603 L23.293128,104.102883 L23.293128,24.682113 L23.293128,9.462183 C23.293128,4.377483 27.415458,0.255153 32.500158,0.255153 Z" id="Stroke-8" stroke="#0C152E" stroke-width="0.51" stroke-linecap="round" stroke-linejoin="round"></path>
                    <path d="M32.121432,0.255153 L33.508632,0.255153 C33.035862,0.255153 32.575332,0.302073 32.121432,0.370923 L32.121432,0.255153 Z" id="Fill-9" fill="#DFE6F2"></path>
                    <path d="M32.121432,0.255153 L33.508632,0.255153 C33.035862,0.255153 32.575332,0.302073 32.121432,0.370923 L32.121432,0.255153 Z" id="Stroke-10" stroke="#0C152E" stroke-width="0.51"></path>
                    <path d="M42.715356,9.462336 C42.715356,4.377126 38.593026,0.255306 33.508326,0.255306 L156.333666,0.255306 C166.656066,0.255306 175.024656,8.623386 175.024656,18.945786 L42.715356,18.945786 L42.715356,9.462336 Z" id="Fill-11" fill="#DFE6F2"></path>
                    <path d="M42.715356,9.462336 C42.715356,4.377126 38.593026,0.255306 33.508326,0.255306 L156.333666,0.255306 C166.656066,0.255306 175.024656,8.623386 175.024656,18.945786 L42.715356,18.945786 L42.715356,9.462336 Z" id="Stroke-12" stroke="#0C152E" stroke-width="0.51"></path>
                    <g id="Group-15" transform="translate(50.490000, 85.732020)">
                        <path d="M0.087057,0.337365 L91.001187,0.337365" id="Fill-13" fill="#DFE6F2"></path>
                        <path d="M0.087057,0.337365 L91.001187,0.337365" id="Stroke-14" stroke="#0C152E" stroke-width="0.51"></path>
                    </g>
                    <g id="Group-18" transform="translate(50.490000, 70.432020)">
                        <path d="M0.087057,0.339099 L91.001187,0.339099" id="Fill-16" fill="#DFE6F2"></path>
                        <path d="M0.087057,0.339099 L91.001187,0.339099" id="Stroke-17" stroke="#0C152E" stroke-width="0.51"></path>
                    </g>
                    <g id="Group-21" transform="translate(50.490000, 55.132020)">
                        <path d="M0.087057,0.340629 L91.001187,0.340629" id="Fill-19" fill="#DFE6F2"></path>
                        <path d="M0.087057,0.340629 L91.001187,0.340629" id="Stroke-20" stroke="#0C152E" stroke-width="0.51"></path>
                    </g>
                    <g id="Group-24" transform="translate(50.490000, 39.832020)">
                        <path d="M0.087057,0.342363 L91.001187,0.342363" id="Fill-22" fill="#DFE6F2"></path>
                        <path d="M0.087057,0.342363 L91.001187,0.342363" id="Stroke-23" stroke="#0C152E" stroke-width="0.51"></path>
                    </g>
                    <polygon id="Fill-25" fill="#C3CFE6" points="23.790582 101.476485 91.640472 142.089825 158.564712 101.124585 158.609592 105.029145 91.640472 146.367195 23.799762 104.087175"></polygon>
                    <g id="Group-28" transform="translate(0.000000, 89.812020)">
                        <path d="M183.026148,112.964949 L0.254898,0.145809" id="Fill-26" fill="#4070F4"></path>
                        <path d="M183.026148,112.964949 L0.254898,0.145809" id="Stroke-27" stroke="#0C152E" stroke-width="0.51" stroke-linecap="round" stroke-linejoin="round"></path>
                    </g>
                    <g id="Group-31" transform="translate(0.000000, 89.812020)">
                        <path d="M0.254898,112.964949 L183.026148,0.145809" id="Fill-29" fill="#4070F4"></path>
                        <path d="M0.254898,112.964949 L183.026148,0.145809" id="Stroke-30" stroke="#0C152E" stroke-width="0.51" stroke-linecap="round" stroke-linejoin="round"></path>
                    </g>
                </g>
                <g id="Group-3" transform="translate(194.300000, 25.556000)">
                    <polygon id="Fill-1" fill="#FF4557" points="6.03961325e-14 32.263 32.264 32.263 32.264 -4.90274488e-13 6.03961325e-14 -4.90274488e-13"></polygon>
                    <path d="M9.8694,23.2311 L22.3944,9.0331" id="Stroke-2" stroke="#FFFFFF"></path>
                    <path d="M9.8694,9.0329 L22.3944,23.2309" id="Stroke-3" stroke="#FFFFFF"></path>
                </g>
            </g>
        </g>
    </g>
</svg>
