<svg xmlns="http://www.w3.org/2000/svg" width="278" height="258" viewBox="0 0 278 258">
  <g fill="none" fill-rule="evenodd" transform="translate(52)">
    <polygon fill="#DEE5F1" stroke="#254898" stroke-linecap="round" stroke-linejoin="round" stroke-width=".51" points=".255 202.777 183.026 202.777 183.026 89.958 .255 89.958"/>
    <path fill="#254898" d="M87.620754,25.150293 L0.254694,90.081963 L183.025944,90.081963 L95.660394,25.150293 C93.274104,23.376513 90.007044,23.376513 87.620754,25.150293"/>
    <path stroke="#254898" stroke-linecap="round" stroke-linejoin="round" stroke-width=".51" d="M87.620754,25.150293 L0.254694,90.081963 L183.025944,90.081963 L95.660394,25.150293 C93.274104,23.376513 90.007044,23.376513 87.620754,25.150293 Z"/>
    <polygon points="91.641 146.367 .255 89.958 183.026 89.958"/>
    <polygon stroke="#254898" stroke-linecap="round" stroke-linejoin="round" stroke-width=".51" points="91.641 146.367 .255 89.958 183.026 89.958"/>
    <polygon fill="#254898" points="1.5 91 92 146.5 183 90 .5 90"/>
    <path fill="#FFF" d="M32.500158,0.255153 L159.087768,0.255153 L159.087768,104.734263 L91.640268,146.367603 L23.293128,104.102883 L23.293128,24.682113 L23.293128,9.462183 C23.293128,4.377483 27.415458,0.255153 32.500158,0.255153"/>
    <path stroke="#254898" stroke-linecap="round" stroke-linejoin="round" stroke-width=".51" d="M32.500158,0.255153 L159.087768,0.255153 L159.087768,104.734263 L91.640268,146.367603 L23.293128,104.102883 L23.293128,24.682113 L23.293128,9.462183 C23.293128,4.377483 27.415458,0.255153 32.500158,0.255153 Z"/>
    <path fill="#DFE6F2" d="M32.121432,0.255153 L33.508632,0.255153 C33.035862,0.255153 32.575332,0.302073 32.121432,0.370923 L32.121432,0.255153 Z"/>
    <path stroke="#0C152E" stroke-width=".51" d="M32.121432,0.255153 L33.508632,0.255153 C33.035862,0.255153 32.575332,0.302073 32.121432,0.370923 L32.121432,0.255153 Z"/>
    <path fill="#DEE5F1" d="M42.715356,9.462336 C42.715356,4.377126 38.593026,0.255306 33.508326,0.255306 L156.333666,0.255306 C166.656066,0.255306 175.024656,8.623386 175.024656,18.945786 L42.715356,18.945786 L42.715356,9.462336 Z"/>
    <path stroke="#254898" stroke-width=".51" d="M42.715356,9.462336 C42.715356,4.377126 38.593026,0.255306 33.508326,0.255306 L156.333666,0.255306 C166.656066,0.255306 175.024656,8.623386 175.024656,18.945786 L42.715356,18.945786 L42.715356,9.462336 Z"/>
    <g transform="translate(50.49 85.732)">
      <line x1=".087" x2="91.001" y1=".337" y2=".337" fill="#DFE6F2"/>
      <line x1=".087" x2="91.001" y1=".337" y2=".337" stroke="#0C152E" stroke-width=".51"/>
    </g>
    <g transform="translate(50.49 70.432)">
      <line x1=".087" x2="91.001" y1=".339" y2=".339" fill="#DFE6F2"/>
      <line x1=".087" x2="91.001" y1=".339" y2=".339" stroke="#0C152E" stroke-width=".51"/>
    </g>
    <g transform="translate(50.49 55.132)">
      <line x1=".087" x2="91.001" y1=".341" y2=".341" fill="#DFE6F2"/>
      <line x1=".087" x2="91.001" y1=".341" y2=".341" stroke="#0C152E" stroke-width=".51"/>
    </g>
    <g transform="translate(50.49 39.832)">
      <line x1=".087" x2="91.001" y1=".342" y2=".342" fill="#DFE6F2"/>
      <line x1=".087" x2="91.001" y1=".342" y2=".342" stroke="#0C152E" stroke-width=".51"/>
    </g>
    <polygon fill="#DEE5F1" points="23.791 101.476 91.64 142.09 158.565 101.125 158.61 105.029 91.64 146.367 23.8 104.087"/>
    <line x1="183.026" x2=".255" y1="202.777" y2="89.958" fill="#254898"/>
    <line x1="183.026" x2=".255" y1="202.777" y2="89.958" stroke="#254898" stroke-linecap="round" stroke-linejoin="round" stroke-width=".51"/>
    <g transform="translate(0 89.812)">
      <line x1=".255" x2="183.026" y1="112.965" y2=".146" fill="#254898"/>
      <line x1=".255" x2="183.026" y1="112.965" y2=".146" stroke="#254898" stroke-linecap="round" stroke-linejoin="round" stroke-width=".51"/>
    </g>
    <g transform="translate(194 25)">
      <polygon fill="#FF4557" points="0 32.263 32.264 32.263 32.264 0 0 0"/>
      <line x1="9.869" x2="22.394" y1="23.231" y2="9.033" stroke="#FFF"/>
      <line x1="9.869" x2="22.394" y1="9.033" y2="23.231" stroke="#FFF"/>
    </g>
  </g>
</svg>
