<svg width="183" height="96" viewBox="0 0 183 96" fill="none" xmlns="http://www.w3.org/2000/svg">
<g clip-path="url(#clip0)">
<path d="M117.394 43.0949H131.797V42.5361H117.505L117.394 43.0949Z" fill="#9999A0"/>
<path d="M170.364 42.8477H131.55V95.3523H170.364V42.8477Z" fill="#254898"/>
<path d="M137.281 35.1348L126.911 42.7855H146.81L157.18 35.1348H137.281Z" fill="#F7F9FB"/>
<path d="M146.893 43.037H126.161L137.203 34.8877H157.93L146.893 43.037ZM127.665 42.5426H146.728L156.43 35.3821H137.363L127.665 42.5426Z" fill="#9999A0"/>
<path d="M131.917 32.416L121.547 42.7859H141.442L151.816 32.416H131.917Z" fill="#F7F9FB"/>
<path d="M141.545 43.0369H120.945L131.81 32.1685H152.409L141.545 43.0369ZM122.144 42.5425H141.343L151.231 32.6546H132.032L122.144 42.5425Z" fill="#9999A0"/>
<path d="M114.407 73.3745H11.7048V2.5957H114.407V73.3745ZM12.1992 72.8801H113.913V3.0901H12.1992V72.8801Z" fill="#9999A0"/>
<path d="M114.156 2.84277H29.6554V61.7457H114.156V2.84277Z" fill="#9999A0"/>
<path d="M12.1992 72.6102H6.6496V2.5957H12.1992V72.6102ZM7.144 72.1158H11.7048V3.0901H7.144V72.1158Z" fill="#9999A0"/>
<path d="M78.7817 91.4147H46.7409V72.8799L78.7817 72.8799V91.4147ZM47.2352 90.9203H78.2873V73.3743L47.2352 73.3743V90.9203Z" fill="#9999A0"/>
<path d="M40.9408 90.9204H46.7895V73.3744H40.9408V90.9204Z" fill="#1C1C1E"/>
<path d="M86.0988 95.6488L38.8513 95.6488V90.9204H86.0988V95.6488ZM39.3457 95.1544L85.6044 95.1544V91.4148L39.3457 91.4148V95.1544Z" fill="#9999A0"/>
<path d="M38.814 90.9204H29.2434V95.174H38.814V90.9204Z" fill="#1C1C1E"/>
<path d="M118.131 5.8999H34.2203V59.1544H118.131V5.8999Z" fill="#F7F9FB"/>
<path d="M118.374 59.4012H33.9731V5.65234H118.374V59.4012ZM34.4675 58.9068H117.88V6.14674H34.4675V58.9068Z" fill="black"/>
<path d="M118.131 0.24707H34.2203V5.89965H118.131V0.24707Z" fill="#F7F9FB"/>
<path d="M118.374 6.14697H33.9731V0H118.374V6.14697ZM34.4675 5.65257H117.88V0.494393H34.4675V5.65257Z" fill="black"/>
<path d="M38.5463 4.56902C39.2698 4.56902 39.8564 3.98245 39.8564 3.25888C39.8564 2.5353 39.2698 1.94873 38.5463 1.94873C37.8227 1.94873 37.2361 2.5353 37.2361 3.25888C37.2361 3.98245 37.8227 4.56902 38.5463 4.56902Z" fill="#254898"/>
<path d="M55.8283 51.1875H43.0676V38.4268H55.8283V51.1875ZM43.5598 50.6953H55.3361V38.919H43.5598V50.6953Z" fill="#231F20"/>
<path d="M73.331 27.2329C72.3968 27.2337 71.4722 27.0441 70.6137 26.6758C69.7552 26.3075 68.9808 25.768 68.3376 25.0905C68.757 24.1138 69.4535 23.2816 70.3411 22.6968C71.2286 22.112 72.2681 21.8003 73.331 21.8003C74.3939 21.8003 75.4334 22.112 76.321 22.6968C77.2085 23.2816 77.905 24.1138 78.3244 25.0905C77.6813 25.768 76.9068 26.3075 76.0483 26.6758C75.1898 27.0441 74.2652 27.2337 73.331 27.2329Z" fill="#C5CFE4"/>
<path d="M73.331 27.4803C71.9164 27.4803 70.5336 27.0608 69.3574 26.2749C68.1813 25.489 67.2645 24.372 66.7232 23.0651C66.1819 21.7582 66.0402 20.3201 66.3162 18.9327C66.5922 17.5453 67.2734 16.2709 68.2736 15.2706C69.2739 14.2704 70.5483 13.5892 71.9357 13.3132C73.3231 13.0372 74.7612 13.1789 76.0681 13.7202C77.375 14.2616 78.492 15.1783 79.2779 16.3544C80.0638 17.5306 80.4832 18.9134 80.4832 20.328C80.4822 22.2246 79.7283 24.0431 78.3872 25.3842C77.0461 26.7253 75.2276 27.4792 73.331 27.4803ZM73.331 13.6743C72.014 13.6743 70.7267 14.0649 69.6317 14.7966C68.5367 15.5284 67.6834 16.5684 67.1796 17.7852C66.6758 19.002 66.5442 20.3409 66.8014 21.6325C67.0586 22.9241 67.6931 24.1105 68.6247 25.0414C69.5562 25.9724 70.7429 26.6061 72.0347 26.8626C73.3264 27.119 74.6652 26.9866 75.8817 26.482C77.0982 25.9775 78.1377 25.1235 78.8688 24.028C79.5999 22.9326 79.9897 21.645 79.9888 20.328C79.9878 18.563 79.2858 16.8706 78.0374 15.6229C76.7889 14.3752 75.0961 13.6743 73.331 13.6743Z" fill="black"/>
<path d="M73.331 21.1107C74.2503 21.1107 74.9955 20.3655 74.9955 19.4462C74.9955 18.5269 74.2503 17.7817 73.331 17.7817C72.4118 17.7817 71.6665 18.5269 71.6665 19.4462C71.6665 20.3655 72.4118 21.1107 73.331 21.1107Z" fill="#C5CFE4"/>
<path d="M73.331 21.3618C72.9521 21.3618 72.5817 21.2495 72.2666 21.039C71.9516 20.8285 71.7061 20.5292 71.5611 20.1792C71.4161 19.8291 71.3781 19.4439 71.452 19.0723C71.526 18.7007 71.7084 18.3593 71.9763 18.0914C72.2443 17.8235 72.5856 17.641 72.9573 17.5671C73.3289 17.4932 73.7141 17.5311 74.0641 17.6761C74.4142 17.8211 74.7134 18.0667 74.9239 18.3817C75.1344 18.6968 75.2468 19.0671 75.2468 19.446C75.2468 19.9541 75.0449 20.4414 74.6857 20.8007C74.3264 21.16 73.8391 21.3618 73.331 21.3618ZM73.331 18.0288C73.0495 18.028 72.7741 18.1107 72.5398 18.2666C72.3054 18.4225 72.1226 18.6444 72.0145 18.9043C71.9064 19.1642 71.8779 19.4504 71.9326 19.7265C71.9873 20.0026 72.1228 20.2562 72.3218 20.4552C72.5208 20.6543 72.7745 20.7897 73.0506 20.8444C73.3267 20.8991 73.6128 20.8707 73.8727 20.7626C74.1326 20.6545 74.3546 20.4717 74.5104 20.2373C74.6663 20.0029 74.7491 19.7275 74.7483 19.446C74.745 19.0719 74.5944 18.7142 74.3291 18.4504C74.0637 18.1866 73.7051 18.0381 73.331 18.037V18.0288Z" fill="#C5CFE4"/>
<path d="M73.331 51.7385C72.3972 51.7391 71.4731 51.5499 70.6147 51.1823C69.7563 50.8148 68.9816 50.2765 68.3376 49.6002C68.757 48.6236 69.4535 47.7914 70.3411 47.2066C71.2286 46.6217 72.2681 46.3101 73.331 46.3101C74.3939 46.3101 75.4334 46.6217 76.321 47.2066C77.2085 47.7914 77.905 48.6236 78.3244 49.6002C77.6805 50.2765 76.9058 50.8148 76.0474 51.1823C75.189 51.5499 74.2648 51.7391 73.331 51.7385Z" fill="#C5CFE4"/>
<path d="M73.331 51.9856C71.9163 51.9856 70.5333 51.5661 69.357 50.78C68.1808 49.9939 67.264 48.8766 66.7228 47.5695C66.1816 46.2624 66.0402 44.8241 66.3165 43.4366C66.5928 42.049 67.2744 40.7746 68.2751 39.7745C69.2757 38.7745 70.5505 38.0936 71.9382 37.8181C73.3259 37.5426 74.7641 37.6848 76.0709 38.2268C77.3777 38.7687 78.4945 39.6861 79.2799 40.8628C80.0653 42.0395 80.4841 43.4228 80.4832 44.8375C80.4811 46.7334 79.7267 48.5509 78.3857 49.8911C77.0448 51.2312 75.2269 51.9846 73.331 51.9856ZM73.331 38.1797C72.0142 38.1797 70.727 38.5701 69.6321 39.3017C68.5372 40.0333 67.6839 41.0731 67.18 42.2897C66.6761 43.5062 66.5442 44.8449 66.8011 46.1364C67.058 47.4279 67.6921 48.6142 68.6232 49.5453C69.5543 50.4765 70.7406 51.1105 72.0321 51.3674C73.3236 51.6243 74.6623 51.4925 75.8789 50.9886C77.0954 50.4847 78.1352 49.6313 78.8668 48.5364C79.5984 47.4415 79.9888 46.1543 79.9888 44.8375C79.9878 43.0721 79.286 41.3793 78.0376 40.1309C76.7893 38.8826 75.0964 38.1808 73.331 38.1797Z" fill="black"/>
<path d="M73.331 45.6204C74.2503 45.6204 74.9955 44.8752 74.9955 43.956C74.9955 43.0367 74.2503 42.2915 73.331 42.2915C72.4118 42.2915 71.6665 43.0367 71.6665 43.956C71.6665 44.8752 72.4118 45.6204 73.331 45.6204Z" fill="#C5CFE4"/>
<path d="M73.331 45.8677C72.9519 45.8677 72.5814 45.7552 72.2662 45.5445C71.9511 45.3339 71.7055 45.0344 71.5607 44.6841C71.4158 44.3338 71.3781 43.9484 71.4523 43.5766C71.5266 43.2049 71.7095 42.8636 71.9778 42.5958C72.2461 42.328 72.5879 42.1459 72.9598 42.0724C73.3317 41.999 73.717 42.0375 74.067 42.1832C74.417 42.3288 74.7159 42.575 74.9259 42.8906C75.1359 43.2062 75.2476 43.577 75.2468 43.956C75.2468 44.2074 75.1972 44.4563 75.1009 44.6885C75.0045 44.9207 74.8634 45.1317 74.6854 45.3092C74.5075 45.4868 74.2962 45.6275 74.0638 45.7234C73.8314 45.8192 73.5824 45.8682 73.331 45.8677ZM73.331 42.5347C73.0497 42.5338 72.7745 42.6165 72.5402 42.7722C72.3059 42.9279 72.1231 43.1496 72.0149 43.4092C71.9067 43.6689 71.8779 43.9548 71.9323 44.2308C71.9867 44.5068 72.1217 44.7604 72.3203 44.9596C72.519 45.1588 72.7722 45.2946 73.0481 45.3498C73.3239 45.405 73.6099 45.3771 73.8699 45.2696C74.1298 45.1622 74.3521 44.98 74.5084 44.7461C74.6648 44.5123 74.7483 44.2373 74.7483 43.956C74.7483 43.5798 74.5991 43.2189 74.3334 42.9524C74.0677 42.686 73.7073 42.5357 73.331 42.5347Z" fill="#C5CFE4"/>
<path d="M99.3732 18.0742H89.2917V18.5686H99.3732V18.0742Z" fill="black"/>
<path d="M109.632 22.0913H89.2917V22.5857H109.632V22.0913Z" fill="black"/>
<path d="M99.3732 42.5796H89.2917V43.074H99.3732V42.5796Z" fill="black"/>
<path d="M109.632 46.5967H89.2917V47.0911H109.632V46.5967Z" fill="black"/>
<path d="M43.0676 26.0532H55.8283V13.2925L43.0676 13.2925V26.0532Z" fill="#FF4557"/>
<path d="M126.952 75.2759C124.341 75.2743 121.755 75.7871 119.343 76.7852C116.93 77.7833 114.738 79.247 112.891 81.0927C111.044 82.9383 109.579 85.1299 108.579 87.542C107.58 89.9541 107.065 92.5395 107.065 95.1505H146.814C146.814 89.8816 144.722 84.8283 140.998 81.1014C137.273 77.3745 132.221 75.2792 126.952 75.2759Z" fill="#4070F4"/>
<path d="M114.543 86.1525H109.418V85.6581H114.543C115.428 85.657 116.276 85.305 116.901 84.6794C117.527 84.0538 117.879 83.2056 117.88 82.3209V77.377H118.374V82.3209C118.373 83.3368 117.969 84.3107 117.251 85.029C116.533 85.7473 115.559 86.1514 114.543 86.1525Z" fill="black"/>
<path d="M183 95.1543H0V95.6487H183V95.1543Z" fill="#9999A0"/>
<path fill-rule="evenodd" clip-rule="evenodd" d="M53.1018 16.6356C53.2612 16.4836 53.2612 16.2372 53.1018 16.0852C52.9424 15.9332 52.684 15.9332 52.5247 16.0852L49.3403 19.1223L46.4441 16.3601C46.2847 16.2081 46.0263 16.2081 45.8669 16.3601C45.7076 16.5121 45.7076 16.7585 45.8669 16.9105L48.7631 19.6728L45.8669 22.435C45.7076 22.587 45.7076 22.8335 45.8669 22.9855C46.0263 23.1375 46.2847 23.1375 46.4441 22.9855L49.3403 20.2232L52.5247 23.2603C52.684 23.4123 52.9424 23.4123 53.1018 23.2603C53.2612 23.1083 53.2612 22.8619 53.1018 22.7099L49.9174 19.6728L53.1018 16.6356Z" fill="white"/>
</g>
<defs>
<clipPath id="clip0">
<rect width="183" height="95.6488" fill="white"/>
</clipPath>
</defs>
</svg>
