<svg width="111" height="59" viewBox="0 0 111 59" fill="none" xmlns="http://www.w3.org/2000/svg">
<path fill-rule="evenodd" clip-rule="evenodd" d="M45.0228 58.4027H79.3096V26.7119H45.0228V58.4027Z" fill="#DFE6F2"/>
<path fill-rule="evenodd" clip-rule="evenodd" d="M45.0228 58.4027H79.3096V26.7119H45.0228V58.4027Z" stroke="#0C152E" stroke-width="0.8"/>
<path fill-rule="evenodd" clip-rule="evenodd" d="M79.3109 58.4027H102.711V26.7119H79.3109V58.4027Z" stroke="#0C152E" stroke-width="0.8"/>
<path fill-rule="evenodd" clip-rule="evenodd" d="M82.7664 22.0557L76.5142 26.6756H88.5109L94.7631 22.0557H82.7664Z" fill="white"/>
<path fill-rule="evenodd" clip-rule="evenodd" d="M82.7664 22.0557L76.5142 26.6756H88.5109L94.7631 22.0557H82.7664Z" stroke="#231F20" stroke-width="0.8"/>
<path fill-rule="evenodd" clip-rule="evenodd" d="M79.532 20.417L73.28 26.6759H85.2768L91.5287 20.417H79.532Z" fill="white"/>
<path fill-rule="evenodd" clip-rule="evenodd" d="M79.532 20.417L73.28 26.6759H85.2768L91.5287 20.417H79.532Z" stroke="#231F20" stroke-width="0.8"/>
<path fill-rule="evenodd" clip-rule="evenodd" d="M70.8883 46.9737H47.3481V44.5259H68.8269V26.7119H70.8883V46.9737Z" fill="#C5CFE4"/>
<path fill-rule="evenodd" clip-rule="evenodd" d="M7.20532 44.5259H68.8251V2.56641H7.20532V44.5259Z" fill="white"/>
<path fill-rule="evenodd" clip-rule="evenodd" d="M7.20532 44.5259H68.8251V2.56641H7.20532V44.5259Z" stroke="#231F20" stroke-width="0.8"/>
<path fill-rule="evenodd" clip-rule="evenodd" d="M4.15918 44.5259H7.20642V2.56641H4.15918V44.5259Z" fill="#DFE6F2"/>
<path fill-rule="evenodd" clip-rule="evenodd" d="M4.15918 44.5259H7.20642V2.56641H4.15918V44.5259Z" stroke="#0C152E" stroke-width="0.8"/>
<path fill-rule="evenodd" clip-rule="evenodd" d="M28.3289 55.9476H47.3478V44.5264H28.3289V55.9476Z" fill="white"/>
<path fill-rule="evenodd" clip-rule="evenodd" d="M28.3289 55.9476H47.3478V44.5264H28.3289V55.9476Z" stroke="#231F20" stroke-width="0.8"/>
<path fill-rule="evenodd" clip-rule="evenodd" d="M24.6899 55.9476H28.3291V44.5264H24.6899V55.9476Z" fill="#DFE6F2"/>
<path fill-rule="evenodd" clip-rule="evenodd" d="M24.6899 55.9476H28.3291V44.5264H24.6899V55.9476Z" stroke="#0C152E" stroke-width="0.8"/>
<path fill-rule="evenodd" clip-rule="evenodd" d="M23.6172 58.4312H52.0563V55.9473H23.6172V58.4312Z" fill="white"/>
<path fill-rule="evenodd" clip-rule="evenodd" d="M23.6172 58.4314H52.0566V55.9473H23.6172V58.4314Z" stroke="#231F20" stroke-width="0.8"/>
<path fill-rule="evenodd" clip-rule="evenodd" d="M17.8804 58.4312H23.6179V55.9473H17.8804V58.4312Z" fill="#DFE6F2"/>
<path fill-rule="evenodd" clip-rule="evenodd" d="M17.8804 58.4314H23.6179V55.9473H17.8804V58.4314Z" stroke="#0C152E" stroke-width="0.8"/>
<path fill-rule="evenodd" clip-rule="evenodd" d="M17.8804 38.2586L68.6233 38.1503L68.6568 2.72656L17.9139 2.83492L17.8804 38.2586Z" fill="#DFE6F2"/>
<path fill-rule="evenodd" clip-rule="evenodd" d="M20.6301 36.5549H71.2189V4.41309H20.6301V36.5549Z" fill="white"/>
<path fill-rule="evenodd" clip-rule="evenodd" d="M20.6301 36.5549H71.2189V4.41309H20.6301V36.5549Z" stroke="#231F20" stroke-width="0.8"/>
<path fill-rule="evenodd" clip-rule="evenodd" d="M20.6301 4.41245H71.2189V1H20.6301V4.41245Z" fill="white"/>
<path fill-rule="evenodd" clip-rule="evenodd" d="M20.6301 4.41245H71.2189V1H20.6301V4.41245Z" stroke="#231F20" stroke-width="0.8"/>
<path fill-rule="evenodd" clip-rule="evenodd" d="M24.0298 2.81737C24.0298 3.25428 23.6759 3.60838 23.2395 3.60838C22.8033 3.60838 22.4496 3.25428 22.4496 2.81737C22.4496 2.38047 22.8033 2.02637 23.2395 2.02637C23.6759 2.02637 24.0298 2.38047 24.0298 2.81737Z" fill="#254898"/>
<path fill-rule="evenodd" clip-rule="evenodd" d="M26.3491 16.8395H33.779V9.40137H26.3491V16.8395Z" fill="white"/>
<path fill-rule="evenodd" clip-rule="evenodd" d="M26.3491 16.8395H33.779V9.40137H26.3491V16.8395Z" fill="#2BD67B" stroke="#2BD67B" stroke-width="0.8"/>
<path fill-rule="evenodd" clip-rule="evenodd" d="M26.3491 31.6305H33.779V24.1924H26.3491V31.6305Z" fill="white"/>
<path fill-rule="evenodd" clip-rule="evenodd" d="M26.3491 31.6305H33.779V24.1924H26.3491V31.6305Z" stroke="#231F20" stroke-width="0.8"/>
<path d="M27.5588 13.4607L29.4827 15.2046L32.4128 10.5596" stroke="white" stroke-width="0.8"/>
<path fill-rule="evenodd" clip-rule="evenodd" d="M44.2108 17.2865C43.0262 17.2865 41.9582 16.7901 41.2003 15.9949C41.7011 14.8264 42.8603 14.0078 44.2108 14.0078C45.5613 14.0078 46.7205 14.8264 47.2215 15.9949C46.4637 16.7901 45.3956 17.2865 44.2108 17.2865Z" fill="#DFE6F2"/>
<path fill-rule="evenodd" clip-rule="evenodd" d="M40.0497 13.1205C40.0497 15.4214 41.9131 17.2869 44.2115 17.2869C46.51 17.2869 48.3735 15.4214 48.3735 13.1205C48.3735 10.8193 46.51 8.9541 44.2115 8.9541C41.9131 8.9541 40.0497 10.8193 40.0497 13.1205Z" stroke="#0C152E" stroke-width="0.8"/>
<path fill-rule="evenodd" clip-rule="evenodd" d="M43.2069 12.5886C43.2069 13.1439 43.6567 13.5942 44.2114 13.5942C44.7663 13.5942 45.2161 13.1439 45.2161 12.5886C45.2161 12.0333 44.7663 11.583 44.2114 11.583C43.6567 11.583 43.2069 12.0333 43.2069 12.5886Z" fill="#DFE6F2"/>
<path fill-rule="evenodd" clip-rule="evenodd" d="M43.2069 12.5886C43.2069 13.1439 43.6567 13.5942 44.2114 13.5942C44.7663 13.5942 45.2161 13.1439 45.2161 12.5886C45.2161 12.0333 44.7663 11.583 44.2114 11.583C43.6567 11.583 43.2069 12.0333 43.2069 12.5886Z" stroke="#DFE6F2" stroke-width="0.8"/>
<path fill-rule="evenodd" clip-rule="evenodd" d="M44.2108 32.0782C43.0262 32.0782 41.9582 31.5819 41.2003 30.7866C41.7011 29.6181 42.8603 28.7995 44.2108 28.7995C45.5613 28.7995 46.7205 29.6181 47.2215 30.7866C46.4637 31.5819 45.3956 32.0782 44.2108 32.0782L49.8825 23.8027Z" fill="#DFE6F2"/>
<path fill-rule="evenodd" clip-rule="evenodd" d="M40.0497 27.9115C40.0497 30.2127 41.9131 32.0779 44.2115 32.0779C46.51 32.0779 48.3735 30.2127 48.3735 27.9115C48.3735 25.6106 46.51 23.7451 44.2115 23.7451C41.9131 23.7451 40.0497 25.6106 40.0497 27.9115Z" stroke="#0C152E" stroke-width="0.8"/>
<path fill-rule="evenodd" clip-rule="evenodd" d="M43.2069 27.3806C43.2069 27.9359 43.6567 28.3862 44.2114 28.3862C44.7663 28.3862 45.2161 27.9359 45.2161 27.3806C45.2161 26.8253 44.7663 26.375 44.2114 26.375C43.6567 26.375 43.2069 26.8253 43.2069 27.3806Z" fill="#DFE6F2"/>
<path fill-rule="evenodd" clip-rule="evenodd" d="M43.2069 27.3806C43.2069 27.9359 43.6567 28.3862 44.2114 28.3862C44.7663 28.3862 45.2161 27.9359 45.2161 27.3806C45.2161 26.8253 44.7663 26.375 44.2114 26.375C43.6567 26.375 43.2069 26.8253 43.2069 27.3806Z" stroke="#DFE6F2" stroke-width="0.8"/>
<path d="M53.8345 11.9075H59.9133" stroke="#0C152E" stroke-width="0.8"/>
<path d="M53.8345 14.3323H66.0965" stroke="#0C152E" stroke-width="0.8"/>
<path d="M53.8345 26.6995H59.9133" stroke="#0C152E" stroke-width="0.8"/>
<path d="M53.8345 29.1243H66.0965" stroke="#0C152E" stroke-width="0.8"/>
<path fill-rule="evenodd" clip-rule="evenodd" d="M76.515 46.4365C69.8977 46.4365 64.5337 51.8067 64.5337 58.4312H88.4963C88.4963 51.8067 83.1324 46.4365 76.515 46.4365Z" fill="#4070F4"/>
<path fill-rule="evenodd" clip-rule="evenodd" d="M70.4132 53.8608L70.1904 54.4344H65.2124L65.5072 53.6884H69.471C71.0421 49.9913 74.2784 47.342 78.197 46.5537C78.3323 46.5661 78.8468 46.6544 79.2439 46.7487C75.2386 47.8058 71.9669 50.1355 70.4132 53.8608Z" fill="#221F1F"/>
<path d="M0 58.431H110.33" stroke="#0C152E" stroke-width="0.8"/>
</svg>
