<svg xmlns="http://www.w3.org/2000/svg" width="56" height="56" viewBox="0 0 56 56">
    <path fill="#fff" fill-rule="nonzero" d="M25.545 43.93c-.024.023-.07.047-.094.07h-2.62c-.047 0-.07-.023-.094-.047l-7.72-8.704a.15.15 0 0 1 0-.14l9.615-16.564c.047-.07.164-.07.21 0l2.691 4.646c.023.023.023.07 0 .117l-6.503 11.19c-.024.047 0 .094.023.141l3.883 4.364c.024.023.07.047.094.047h4.585c.117 0 .164.117.094.188l-4.164 4.692zm2.854-31.86c.046-.093.163-.093.187 0L41.99 35.062c.024.047 0 .093-.023.14l-7.72 8.704a.177.177 0 0 1-.094.047h-6.269c-.117 0-.164-.117-.094-.188l4.188-4.739 3.93-4.41c.047-.047.047-.094.023-.14l-7.439-12.81-2.807-4.833c-.023-.024-.023-.07 0-.117l2.714-4.646z"/>
</svg>
