<svg id="Layer_1" data-name="Layer 1" xmlns="http://www.w3.org/2000/svg" viewBox="-30 0 155.42 136.29"><defs><style>.cls-1{fill:#74869B;}</style></defs><title>Lisk Logo - Crystal</title><path class="cls-1" d="M45.08,136.12l17.8-20a.5.5,0,0,0-.38-.84H42.94a.5.5,0,0,1-.38-.17L25.94,96.47a.51.51,0,0,1-.06-.59L53.64,48.22a.52.52,0,0,0,0-.51L42.07,27.85a.51.51,0,0,0-.87,0L.07,98.47a.5.5,0,0,0,.06.59l33,37.06a.52.52,0,0,0,.38.17H44.7A.49.49,0,0,0,45.08,136.12Z"/><path class="cls-1" d="M57.27.25,45.71,20.11a.47.47,0,0,0,0,.51l12,20.61h0L89.54,95.87a.53.53,0,0,1-.06.59L72.71,115.29h0L54.76,135.45a.5.5,0,0,0,.37.84H81.9a.48.48,0,0,0,.37-.17l33-37.06a.5.5,0,0,0,.06-.59L58.14.25A.51.51,0,0,0,57.27.25Z"/></svg>
