<svg width="18" height="28" viewBox="0 0 18 28" fill="none" xmlns="http://www.w3.org/2000/svg">
<path d="M18 8.96C18 13.9085 9 28 9 28C9 28 0 13.9085 0 8.96C0 4.01153 4.02944 0 9 0C13.9706 0 18 4.01153 18 8.96Z" fill="#2BD67B"/>
<path fill-rule="evenodd" clip-rule="evenodd" d="M8.9457 4.02711C8.93688 3.99096 8.89281 3.99096 8.87518 4.02711L7.85271 5.81636C7.84389 5.83443 7.84389 5.8525 7.85271 5.86154L11.7134 12.6571C11.7222 12.6751 11.7222 12.6932 11.7046 12.7113L10.2238 14.4102L8.64601 16.2356C8.61956 16.2627 8.63719 16.3079 8.68126 16.3079H11.0435C11.0523 16.3079 11.07 16.2988 11.0788 16.2898L13.9876 12.9372C13.9964 12.9191 14.0052 12.9011 13.9964 12.883L8.9457 4.02711ZM7.83455 16.294C7.84096 16.2894 7.84737 16.2848 7.85164 16.2802L9.37264 14.4407C9.39827 14.4131 9.38119 14.3671 9.33846 14.3671H7.66365C7.6551 14.3671 7.63801 14.3579 7.62947 14.3487L6.21101 12.638C6.20246 12.6196 6.19392 12.6012 6.20246 12.5828L8.57796 8.19552C8.5865 8.17712 8.5865 8.15873 8.57796 8.14953L7.59529 6.3284C7.5782 6.30081 7.53547 6.30081 7.51838 6.3284L4.00641 12.8219C3.99786 12.8403 3.99786 12.8587 4.00641 12.8771L6.82624 16.2894C6.83479 16.2986 6.84333 16.3078 6.86042 16.3078H7.81746C7.82173 16.3032 7.82814 16.2986 7.83455 16.294Z" fill="white"/>
</svg>
