<?xml version="1.0" encoding="UTF-8"?>
<svg width="163px" height="105px" viewBox="0 0 163 105" version="1.1" xmlns="http://www.w3.org/2000/svg" xmlns:xlink="http://www.w3.org/1999/xlink">
    <!-- Generator: sketchtool 55.1 (78136) - https://sketchapp.com -->
    <title>94BD39DA-A3BE-456D-BC87-E704AF72AB8E</title>
    <desc>Created with sketchtool.</desc>
    <g id="⚙️-6.0-Settings" stroke="none" stroke-width="1" fill="none" fill-rule="evenodd">
        <g id="6.2.3-Register-2nd-Pass---Success" transform="translate(-601.000000, -190.000000)">
            <g id="2nd-passphrase-illustration" transform="translate(601.000000, 190.000000)">
                <g>
                    <g id="Group-2" transform="translate(119.820096, 0.000000)" fill-rule="nonzero">
                        <path d="M10.2876529,58.4474238 C10.6315399,56.0534072 11.614074,34.2278116 12.2469416,27.2733518 C12.8798092,20.318892 13.8334453,1.13686838e-13 19.4252204,1.13686838e-13 C25.0169956,1.13686838e-13 27.9963859,18.9447091 28.0252839,20.6588366" id="Path" fill="#2BD67B"></path>
                        <path d="M12.3567542,58.3494737 L12.7006412,58.3494737 C15.2205523,48.9001662 20.5898124,31.3094737 27.9096917,21.2609418 C27.9877165,20.952687 28.1235374,20.7510249 28.1206929,20.6617175 C28.1206929,20.3736288 27.9356999,19.6217175 27.7738708,18.5701939 C19.850022,27.7515789 13.4173132,48.0070914 10.5910826,58.4157341 L10.5910826,58.4157341 C11.1748235,58.3754017 11.7614542,58.3494737 12.3567542,58.3494737 Z" id="Path" fill="#0C152E"></path>
                        <path d="M40.093115,15.1621053 C40.0752851,14.7338791 39.8767272,14.333115 39.546452,14.0587353 C39.2161769,13.7843555 38.7849566,13.6619244 38.3592312,13.721662 C25.7278879,14.6464266 16.2926704,44.8352355 12.6919718,58.3523546 L20.1390026,58.3523546 C28.9037851,46.8460942 40.8531341,28.5812742 40.093115,15.1621053 Z" id="Path" fill="#2BD67B"></path>
                        <path d="M37.9633278,43.5388366 C37.8601734,43.416681 37.7107946,43.342679 37.5508326,43.3344871 C37.3908706,43.3262952 37.2346717,43.3846482 37.1195043,43.4956233 C35.2584691,45.2443213 27.7969892,52.2736842 21.3816193,58.3552355 L29.545322,58.3552355 C32.9263954,56.338615 35.5330007,54.7627701 35.8653284,54.4833241 C36.8767606,53.6565097 36.7785072,53.9388366 37.168631,54.1750693 C40.1249029,56.5546814 43.0060397,55.9957895 43.0060397,55.9957895 C42.763296,49.6434349 39.1886056,44.9648753 37.9633278,43.5388366 Z" id="Path" fill="#2BD67B"></path>
                        <path d="M5.18714485,58.3552355 L10.2847631,58.3552355 C9.67212421,44.6306925 7.90934237,21.8947368 2.91575711,21.7478116 C-4.14114985,21.5432687 3.72779267,54.7022715 4.52537921,56.7160111 C4.66408991,57.073241 4.89527441,57.6494183 5.18714485,58.3552355 Z" id="Path" fill="#2BD67B"></path>
                    </g>
                    <polyline id="Path" stroke="#0C152E" fill="#FFFFFF" points="101.940807 103.729197 32.2184503 103.729197 38.6945062 37.872133 38.6945062 25.4843213 105.47793 25.4843213 117.947444 25.4843213 118.620768 37.872133"></polyline>
                    <polygon id="Path" fill="#DFE6F2" fill-rule="nonzero" points="34.8366148 78.1209972 34.2442045 83.1337396 45.8381073 54.6216066 47.9332169 55.3591136 54.9612258 37.9297507 53.9093363 37.9297507 47.4679581 54.2787812 44.5290251 53.1293075"></polygon>
                    <rect id="Rectangle" stroke="#0C152E" x="110.222991" y="58.3552355" width="44.5954906" height="45.3739612"></rect>
                    <path d="M119.730454,58.3552355 L120.964401,58.3782825 C120.964401,58.3782825 125.111273,96.9389474 127.287298,103.729197 L116.704827,103.729197 L119.730454,58.3552355 Z" id="Path" fill="#C5CFE4" fill-rule="nonzero"></path>
                    <path d="M0,103.729197 L161.462147,103.729197" id="Path" stroke="#0C152E" fill="#DFE6F2" fill-rule="nonzero"></path>
                    <polygon id="Path" stroke="#0C152E" fill="#DFE6F2" fill-rule="nonzero" points="122.192569 103.729197 101.940807 103.729197 105.353668 39.952133 105.47793 37.872133 105.47793 25.4843213 117.947444 25.4843213"></polygon>
                    <polygon id="Path" fill="#4070F4" fill-rule="nonzero" points="118.620768 37.872133 38.6945062 37.872133 38.6945062 25.4843213 117.947444 25.4843213"></polygon>
                    <path d="M109.968688,37.872133 L109.968688,46.621385" id="Path" stroke="#0C152E" fill="#DFE6F2" fill-rule="nonzero"></path>
                    <path d="M109.968688,103.729197 L109.968688,77.3287535" id="Path" stroke="#0C152E" fill="#DFE6F2" fill-rule="nonzero"></path>
                    <path d="M114.768657,103.729197 L114.768657,59.0091967" id="Path" stroke="#0C152E" fill="#DFE6F2" fill-rule="nonzero"></path>
                    <path d="M91.7571292,31.9058172 C91.6213084,31.9058172 91.4825977,31.9058172 91.3438869,31.9058172 C87.9992213,31.9051676 85.2683641,29.2397187 85.1969781,25.9061363 C85.125592,22.572554 87.7398562,19.7933491 91.0814468,19.6504011 C94.4230375,19.5074531 97.2665069,22.0531847 97.4818355,25.3806094" id="Path" stroke="#0C152E"></path>
                    <path d="M105.47793,25.4843213 L105.47793,37.872133" id="Path" stroke="#0C152E" fill="#4070F4" fill-rule="nonzero"></path>
                    <ellipse id="Oval" fill="#0C152E" fill-rule="nonzero" cx="91.4450302" cy="31.8712465" rx="1" ry="1"></ellipse>
                    <path d="M57.7643379,31.9058172 C57.628517,31.9058172 57.4926961,31.9058172 57.3539854,31.9058172 C54.0053338,31.9061418 51.2719745,29.23536 51.2051059,25.8977102 C51.1382373,22.5600604 53.7624432,19.7826034 57.1084372,19.6496299 C60.4544312,19.5166565 63.2920849,22.0770533 63.4919339,25.4094183" id="Path" stroke="#0C152E"></path>
                    <ellipse id="Oval" fill="#0C152E" fill-rule="nonzero" cx="57.4522388" cy="31.8712465" rx="1" ry="1"></ellipse>
                    <polyline id="Path" stroke="#4070F4" stroke-width="2" points="49.4474754 66.3496953 62.1163862 61.6308033 62.1163862 66.3496953 74.7824071 61.6308033 74.7824071 66.3496953 87.4513179 61.6308033 87.4513179 66.3496953"></polyline>
                    <polyline id="Path" stroke="#4070F4" stroke-width="2" points="47.1760876 79.3828255 59.8421086 74.6639335 59.8421086 79.3828255 72.5110194 74.6639335 72.5110194 79.3828255 85.1799301 74.6639335 85.1799301 79.3828255"></polyline>
                    <path d="M46.4334074,68.6371191 L95.4445221,68.6371191" id="Path" stroke="#0C152E"></path>
                    <path d="M46.4334074,81.3706371 L85.1799301,81.3706371" id="Path" stroke="#0C152E"></path>
                    <polygon id="Path" stroke="#0C152E" points="97.4327088 100.574626 89.329692 100.574626 90.0868212 93.3003878 98.1869482 93.3003878"></polygon>
                    <polyline id="Path" stroke="#0C152E" points="91.5028263 96.9591136 91.5028263 96.9591136 92.9939663 98.4427701 96.0138139 95.4322438"></polyline>
                    <path d="M52.2852652,33.179169 L29.1292474,92.3151247 L12.7151477,85.887867 C12.7151477,85.887867 35.4261353,28.131856 36.1225786,26.8469806 L52.2852652,33.179169 Z" id="Path" stroke="#231F20" fill="#EDF0F5" fill-rule="nonzero" stroke-linecap="round" stroke-linejoin="round"></path>
                    <path d="M49.0111146,26.9362881 L49.8607177,24.7756233 C50.5325354,23.0621031 49.6873886,21.1296761 47.9707844,20.4542936 L47.9707844,20.4542936 C46.251153,19.7848609 44.3124021,20.6288356 43.6360749,22.3412742 L42.7691331,24.4875346" id="Path" stroke="#231F20" fill="#EDF0F5" fill-rule="nonzero" stroke-linecap="round" stroke-linejoin="round"></path>
                    <polygon id="Path" stroke="#231F20" fill="#EDF0F5" fill-rule="nonzero" stroke-linecap="round" stroke-linejoin="round" points="14.2583042 98.7798338 12.7151477 85.887867 29.1292474 92.3151247 19.199873 100.712909"></polygon>
                    <path d="M47.8721791,35.5476133 L51.0265461,35.5442992 L51.0067287,54.3642699 L49.108909,54.3662645 C48.4181277,54.3669896 47.8587272,53.8088562 47.8594523,53.119638 L47.8779654,35.538961 L47.8721791,35.5476133 Z" id="Path" stroke="#231F20" fill="#EDF0F5" fill-rule="nonzero" stroke-linecap="round" stroke-linejoin="round" transform="translate(49.442999, 44.952613) rotate(-158.560000) translate(-49.442999, -44.952613) "></path>
                    <path d="M44.1995872,30.0130748 L22.3815497,85.3923546" id="Path" stroke="#231F20" stroke-linecap="round" stroke-linejoin="round"></path>
                    <path d="M36.3571819,25.5643799 L53.7293095,25.5461285 L53.7263748,28.3330981 C53.7253088,29.345437 52.9019207,30.166964 51.8872858,30.16803 L38.1894759,30.1824222 C37.1748411,30.1834871 36.3531812,29.3636885 36.3542461,28.3513496 L36.3571819,25.5643799 Z" id="Path" stroke="#231F20" fill="#EDF0F5" fill-rule="nonzero" stroke-linecap="round" stroke-linejoin="round" transform="translate(45.041778, 27.864275) rotate(-158.560000) translate(-45.041778, -27.864275) "></path>
                    <polygon id="Rectangle" fill="#4070F4" fill-rule="nonzero" transform="translate(21.599345, 87.375640) rotate(-158.560000) translate(-21.599345, -87.375640) " points="12.7881364 85.5288405 30.4144621 85.510322 30.4105532 89.2224388 12.7842275 89.2409573"></polygon>
                    <path d="M14.9345189,99.1601108 L14.1600508,101.162327 C13.9767465,101.626453 13.9861499,102.144205 14.1861874,102.601412 C14.3862249,103.058619 14.7604671,103.41773 15.2263893,103.599557 L15.2263893,103.599557 C16.1951251,103.9765 17.2871775,103.501087 17.6682756,102.53651 L18.49765,100.433463" id="Path" fill="#4070F4" fill-rule="nonzero"></path>
                </g>
            </g>
        </g>
    </g>
</svg>