<svg xmlns="http://www.w3.org/2000/svg" viewBox="0 0 456.74 292.47"><title>2nd passphrase registered</title><g id="Layer_2" data-name="Layer 2"><g id="Layer_1-2" data-name="Layer 1"><path d="M365,164.46c1-6.74,3.72-68.15,5.5-87.72S374.91,0,390.59,0s24.05,53.31,24.13,58.13" fill="#2bd67b"/><path d="M370.77,164.18h1c7.07-26.59,22.13-76.08,42.66-104.36.22-.86.6-1.43.6-1.68,0-.81-.52-2.93-1-5.89C391.79,78.09,372.89,135.17,365,164.46l.85-.09C367.45,164.25,369.1,164.18,370.77,164.18Z" fill="#254898"/><path d="M448.57,42.66a4.28,4.28,0,0,0-4.45-4.09l-.41,0c-35.44,2.6-61.9,87.55-72,125.58H392.6C417.18,131.81,450.7,80.42,448.57,42.66Z" fill="#2bd67b"/><path d="M442.6,122.51a1.63,1.63,0,0,0-2.29-.2l-.08.08c-5.22,4.92-26.15,24.7-44.15,41.81H419c9.49-5.68,16.8-10.11,17.73-10.9,2.84-2.32,2.56-1.53,3.66-.86,8.29,6.69,16.37,5.12,16.37,5.12C456.06,139.69,446,126.52,442.6,122.51Z" fill="#2bd67b"/><path d="M350.66,164.2H365c-1.72-38.62-6.67-102.59-20.68-103-19.79-.57,2.28,92.73,4.52,98.4C349.19,160.59,349.84,162.21,350.66,164.2Z" fill="#2bd67b"/><rect x="309.18" y="164.2" width="125.09" height="127.67" fill="#254898" stroke="#254898" stroke-miterlimit="10"/><polyline points="285.95 291.87 90.38 291.87 108.54 106.56 108.54 71.71 295.87 71.71 330.85 71.71 332.74 106.56" fill="#f7f9fb" stroke="#000" stroke-miterlimit="10" stroke-width="1.2"/><path d="M41.89,279l-2.17,5.64a5.29,5.29,0,0,0,3,6.85h0a5.29,5.29,0,0,0,6.85-3l2.33-5.91" fill="#254898"/><path d="M336,164.69h3.41S351,272.76,357.05,291.87H327.37Z"/><polygon points="97.72 219.81 96.06 233.92 128.58 153.69 134.46 155.77 154.17 106.73 151.22 106.73 133.15 152.73 124.91 149.49 97.72 219.81" fill="#c5cfe4"/><line y1="291.87" x2="452.91" y2="291.87" fill="none" stroke="#254898" stroke-miterlimit="10"/><polygon points="342.76 291.87 285.95 291.87 295.53 112.42 295.87 106.56 295.87 71.71 330.85 71.71 342.76 291.87" fill="#c5cfe4" stroke="#254898" stroke-miterlimit="10"/><polygon points="332.74 106.56 108.54 106.56 108.54 71.71 330.85 71.71 332.74 106.56" fill="#4070f4"/><line x1="308.47" y1="106.56" x2="308.47" y2="131.18" fill="none" stroke="#254898" stroke-miterlimit="10"/><line x1="308.47" y1="291.87" x2="308.47" y2="217.59" fill="none" stroke="#254898" stroke-miterlimit="10"/><line x1="321.94" y1="291.87" x2="321.94" y2="166.04" fill="none" stroke="#254898" stroke-miterlimit="10"/><path d="M257.39,89.78h-1.16a17.25,17.25,0,1,1,17.21-18.36" fill="none" stroke="#254898" stroke-miterlimit="10"/><line x1="295.87" y1="71.71" x2="295.87" y2="106.56" fill="none" stroke="#000" stroke-miterlimit="10"/><circle cx="256.51" cy="89.68" r="2.1" fill="#254898"/><path d="M162,89.78h-1.15A17.25,17.25,0,1,1,178.1,71.5" fill="none" stroke="#254898" stroke-miterlimit="10"/><circle cx="161.16" cy="89.68" r="2.1" fill="#254898"/><polyline points="138.7 186.69 174.24 173.41 174.24 186.69 209.77 173.41 209.77 186.69 245.31 173.41 245.31 186.69" fill="none" stroke="#254898" stroke-miterlimit="10" stroke-width="3"/><polyline points="132.33 223.37 167.86 210.09 167.86 223.37 203.4 210.09 203.4 223.37 238.94 210.09 238.94 223.37" fill="none" stroke="#254898" stroke-miterlimit="10" stroke-width="3"/><line x1="130.25" y1="193.13" x2="267.73" y2="193.13" stroke="#254898" stroke-miterlimit="10"/><line x1="130.25" y1="228.96" x2="238.94" y2="228.96" stroke="#254898" stroke-miterlimit="10"/><polygon points="273.31 282.99 250.58 282.99 252.7 262.53 275.42 262.53 273.31 282.99" fill="none" stroke="#254898" stroke-miterlimit="10"/><polyline points="256.67 272.82 256.67 272.82 260.86 277 269.33 268.52" fill="none" stroke="#254898" stroke-miterlimit="10"/><path d="M146.66,93.36,81.71,259.75l-46-18.08S99.37,79.16,101.33,75.54Z" fill="#dfe6f2" stroke="#254898" stroke-miterlimit="10"/><path d="M146.13,93.15l-65,166.35-7.47-3S137.32,94,139.27,90.35Z" fill="#c5cfe4"/><path d="M137.48,75.79l2.38-6.08a9.39,9.39,0,0,0-5.3-12.16h0a9.4,9.4,0,0,0-12.16,5.31l-2.43,6" fill="#dfe6f2" stroke="#254898" stroke-miterlimit="10"/><polygon points="40 277.94 35.67 241.67 81.71 259.75 53.86 283.38 40 277.94" fill="#dfe6f2" stroke="#254898" stroke-miterlimit="10"/><path d="M124.91,149.5h0l19.35-49.27h0l5,1.94a3.52,3.52,0,0,1,2,4.56h0l-18.07,46h0Z" fill="#254898"/><line x1="123.98" y1="84.45" x2="62.08" y2="242.06" fill="none" stroke="#254898" stroke-linecap="round" stroke-linejoin="round"/><path d="M146.66,93.36,101.29,75.54h0l2.86-7.3a5.15,5.15,0,0,1,6.68-2.91h0l35.78,14a5.16,5.16,0,0,1,2.92,6.68h0l-2.87,7.3Z" fill="#dfe6f2" stroke="#254898" stroke-miterlimit="10"/><rect x="55.37" y="221.12" width="10.44" height="49.46" transform="translate(-190.4 212.38) rotate(-68.56)" fill="#254898"/></g></g></svg>