<svg xmlns="http://www.w3.org/2000/svg" viewBox="0 0 457.36 293.07"><title>2nd passphrase registration failed</title><g id="Layer_2" data-name="Layer 2"><g id="Layer_1-2" data-name="Layer 1"><path d="M365,165.06c1-6.74,3.72-68.15,5.5-87.72S374.91.6,390.59.6s24.05,53.31,24.13,58.13" fill="none" stroke="#254898" stroke-miterlimit="10" stroke-width="1.2"/><path d="M370.77,164.78h1c7.07-26.59,22.13-76.08,42.66-104.36.22-.86.6-1.43.6-1.68,0-.81-.52-2.93-1-5.89C391.79,78.69,372.89,135.77,365,165.06l.85-.09C367.45,164.85,369.1,164.78,370.77,164.78Z" fill="#254898"/><path d="M448.57,43.26a4.28,4.28,0,0,0-4.45-4.09l-.41,0c-35.44,2.6-61.9,87.55-72,125.58H392.6C417.18,132.41,450.7,81,448.57,43.26Z" fill="none" stroke="#254898" stroke-miterlimit="10" stroke-width="1.2"/><path d="M442.6,123.11a1.63,1.63,0,0,0-2.29-.2l-.08.08c-5.22,4.92-26.15,24.7-44.15,41.81H419c9.49-5.68,16.8-10.11,17.73-10.9,2.84-2.32,2.56-1.53,3.66-.86,8.29,6.69,16.37,5.12,16.37,5.12C456.06,140.29,446,127.12,442.6,123.11Z" fill="none" stroke="#254898" stroke-miterlimit="10" stroke-width="1.2"/><path d="M350.66,164.8H365c-1.72-38.62-6.67-102.59-20.68-103-19.79-.57,2.28,92.73,4.52,98.4C349.19,161.19,349.84,162.81,350.66,164.8Z" fill="none" stroke="#254898" stroke-miterlimit="10" stroke-width="1.2"/><rect x="309.18" y="164.8" width="125.09" height="127.67" fill="#254898"/><polyline points="285.95 292.47 90.38 292.47 108.54 107.16 108.54 72.31 295.87 72.31 330.85 72.31 332.74 107.16" fill="#f7f9fb" stroke="#000" stroke-miterlimit="10" stroke-width="1.2"/><path d="M41.89,279.61l-2.17,5.64a5.29,5.29,0,0,0,3,6.85h0a5.29,5.29,0,0,0,6.85-3l2.33-5.91" fill="#254898"/><path d="M336,165.29h3.41S351,273.36,357.05,292.47H327.37Z"/><line y1="292.47" x2="452.91" y2="292.47" fill="none" stroke="#254898" stroke-miterlimit="10"/><polygon points="342.76 292.47 285.95 292.47 295.53 113.02 295.87 107.16 295.87 72.31 330.85 72.31 342.76 292.47" fill="#c5cfe4" stroke="#254898" stroke-miterlimit="10"/><polygon points="332.74 107.16 108.54 107.16 108.54 72.31 330.85 72.31 332.74 107.16" fill="#4070f4"/><line x1="308.47" y1="107.16" x2="308.47" y2="131.78" fill="none" stroke="#254898" stroke-miterlimit="10"/><line x1="308.47" y1="292.47" x2="308.47" y2="218.19" fill="none" stroke="#254898" stroke-miterlimit="10"/><line x1="321.94" y1="292.47" x2="321.94" y2="166.64" fill="none" stroke="#254898" stroke-miterlimit="10"/><path d="M257.39,90.38h-1.16A17.25,17.25,0,1,1,273.44,72" fill="none" stroke="#254898" stroke-linecap="round" stroke-linejoin="round"/><line x1="295.87" y1="72.31" x2="295.87" y2="107.16" fill="none" stroke="#000" stroke-miterlimit="10"/><circle cx="256.51" cy="90.28" r="2.1" fill="#254898"/><path d="M162,90.38h-1.15A17.25,17.25,0,1,1,178.1,72.1" fill="none" stroke="#254898" stroke-linecap="round" stroke-linejoin="round"/><circle cx="161.16" cy="90.28" r="2.1" fill="#254898"/><polyline points="138.7 187.29 174.24 174.01 174.24 187.29 209.77 174.01 209.77 187.29 245.31 174.01 245.31 187.29" fill="none" stroke="#254898" stroke-miterlimit="10" stroke-width="3"/><polyline points="132.33 223.97 167.86 210.69 167.86 223.97 203.4 210.69 203.4 223.97 238.94 210.69 238.94 223.97" fill="none" stroke="#254898" stroke-miterlimit="10" stroke-width="3"/><line x1="130.25" y1="193.73" x2="267.73" y2="193.73" stroke="#254898" stroke-miterlimit="10"/><line x1="130.25" y1="229.56" x2="238.94" y2="229.56" stroke="#254898" stroke-miterlimit="10"/><polygon points="273.31 283.59 250.58 283.59 252.7 263.13 275.42 263.13 273.31 283.59" fill="none" stroke="#254898" stroke-miterlimit="10"/><polyline points="256.67 273.42 256.67 273.42 260.86 277.6 269.33 269.12" fill="none" stroke="#254898" stroke-miterlimit="10"/><path d="M146.66,94,81.71,260.35l-46-18.08S99.37,79.76,101.33,76.14Z" stroke="#254898" stroke-miterlimit="10" stroke-width="1.2"/><path d="M137.48,76.39l2.38-6.08a9.39,9.39,0,0,0-5.3-12.16h0a9.4,9.4,0,0,0-12.16,5.31l-2.43,6" stroke="#254898" stroke-miterlimit="10" stroke-width="1.2"/><polygon points="40 278.54 35.67 242.27 81.71 260.35 53.86 283.98 40 278.54" fill="none" stroke="#254898" stroke-linecap="round" stroke-linejoin="round"/><path d="M124.91,150.1h0l19.35-49.27h0l5,1.94a3.52,3.52,0,0,1,2,4.56h0l-18.07,46h0Z" fill="#254898"/><line x1="123.98" y1="85.05" x2="62.08" y2="242.66" fill="none" stroke="#254898" stroke-linecap="round" stroke-linejoin="round"/><path d="M146.66,94,101.29,76.14h0l2.86-7.3a5.15,5.15,0,0,1,6.68-2.91h0l35.78,14a5.16,5.16,0,0,1,2.92,6.68h0L146.66,94Z" stroke="#254898" stroke-miterlimit="10" stroke-width="1.2"/><rect x="55.37" y="221.72" width="10.44" height="49.46" transform="translate(-190.96 212.76) rotate(-68.56)" fill="#254898"/><rect x="281.38" y="49.18" width="81.11" height="81.11" transform="translate(643.87 179.47) rotate(180)" fill="#ec6868"/><line x1="304.84" y1="72.64" x2="339.03" y2="106.83" fill="none" stroke="#fff" stroke-miterlimit="10" stroke-width="1.2"/><line x1="339.03" y1="72.64" x2="304.84" y2="106.83" fill="none" stroke="#fff" stroke-miterlimit="10" stroke-width="1.2"/></g></g></svg>