<?xml version="1.0" encoding="UTF-8"?>
<svg width="163px" height="106px" viewBox="0 0 163 106" version="1.1" xmlns="http://www.w3.org/2000/svg" xmlns:xlink="http://www.w3.org/1999/xlink">
    <!-- Generator: sketchtool 55.1 (78136) - https://sketchapp.com -->
    <title>B7ED280C-656D-47E0-B55B-68B79412F4A4</title>
    <desc>Created with sketchtool.</desc>
    <g id="⚙️-6.0-Settings" stroke="none" stroke-width="1" fill="none" fill-rule="evenodd">
        <g id="6.2.4-Register-2nd-Pass---Failed" transform="translate(-602.000000, -189.000000)">
            <g id="Group-51" transform="translate(602.000000, 190.000000)">
                <g id="Group-50">
                    <g id="Group-49">
                        <path d="M14.8697993,99.2129829 L14.0984956,101.212765 C13.7190553,102.176805 14.1929119,103.265788 15.1569529,103.645584 C15.1580177,103.645939 15.1590826,103.646294 15.1601474,103.647003 C16.1248983,104.023249 17.2124614,103.548683 17.5915468,102.584997 L18.4175126,100.484765" id="Fill-1" fill="#DFE6F2"></path>
                        <path d="M129.543216,58.5514321 C129.885742,56.1604969 130.863981,34.3623809 131.494015,27.4167427 C132.124049,20.4707495 133.073537,0.177261433 138.641264,0.177261433 C144.208636,0.177261433 147.175298,19.0985174 147.204049,20.8104355" id="Stroke-3" stroke="#0C152E"></path>
                        <path d="M131.603233,58.4536792 L131.945758,58.4536792 C134.454537,49.0163003 139.800775,31.4477543 147.088939,21.4119317 C147.166673,21.1038362 147.301909,20.9025802 147.299113,20.8134881 C147.299113,20.5256246 147.114496,19.7745529 146.953704,18.7242594 C139.064257,27.8943618 132.65956,48.124314 129.845526,58.5200546 C130.426577,58.4795904 131.010468,58.4536792 131.603233,58.4536792" id="Fill-5" fill="#0C152E"></path>
                        <path d="M159.219208,15.3204423 C159.184423,14.483828 158.478075,13.8339167 157.641461,13.8683468 C157.591768,13.8704765 157.542075,13.8750908 157.493092,13.8818348 C144.916546,14.8054116 135.522116,44.9565379 131.937133,58.4566608 L139.351659,58.4566608 C148.07843,46.9648382 159.976314,28.7229543 159.219208,15.3204423 Z" id="Stroke-7" stroke="#0C152E"></path>
                        <path d="M157.098886,43.6615782 C156.894081,43.4184382 156.530968,43.3875577 156.288183,43.5920082 C156.277889,43.600527 156.267951,43.6094007 156.258722,43.6182744 C154.405534,45.3649775 146.976456,52.3855099 140.588797,58.4593939 L148.71748,58.4593939 C152.083814,56.4454143 154.6792,54.8715713 155.010012,54.5922266 C156.017002,53.7666157 155.919391,54.0484451 156.307705,54.284486 C159.250941,56.6612232 162.119992,56.1028887 162.119992,56.1028887 C161.877917,49.7585338 158.318845,45.0859877 157.098886,43.6615782 Z" id="Stroke-9" stroke="#0C152E"></path>
                        <path d="M124.464751,58.4593939 L129.540519,58.4593939 C128.930362,44.7519809 127.175495,22.044841 122.203372,21.8978922 C115.17716,21.6937966 123.011945,54.81123 123.806321,56.82237 C123.944041,57.1790935 124.174403,57.7544655 124.464751,58.4593939 Z" id="Stroke-11" stroke="#0C152E"></path>
                        <polygon id="Fill-13" fill="#DFE6F2" points="34.6855618 78.2002976 34.0956369 83.2068505 45.638927 54.7303727 47.7249611 55.4672464 54.7227768 38.0594922 53.6753229 38.0594922 47.2621078 54.388202 44.3355549 53.2399427"></polygon>
                        <polygon id="Stroke-15" stroke="#0C152E" points="109.744846 103.776382 154.146812 103.776382 154.146812 58.4593584 109.744846 58.4593584"></polygon>
                        <path d="M7.09897613e-05,103.776382 L160.761709,103.776382" id="Stroke-17" stroke="#0C152E"></path>
                        <polygon id="Fill-18" fill="#C1CDE5" points="121.662217 103.776382 101.498285 103.776382 104.896565 40.0793993 105.020087 38.001884 105.020087 25.6297884 117.435842 25.6297884"></polygon>
                        <polygon id="Stroke-19" stroke="#0C152E" points="121.662217 103.776382 101.498285 103.776382 104.896565 40.0793993 105.020087 38.001884 105.020087 25.6297884 117.435842 25.6297884"></polygon>
                        <polygon id="Fill-20" fill="#DFE6F2" points="118.106162 38.0019904 38.5266403 38.0019904 38.5266403 25.6298949 117.435664 25.6298949"></polygon>
                        <path d="M109.491732,38.0019904 L109.491732,46.7404751" id="Stroke-21" stroke="#0C152E"></path>
                        <path d="M109.491732,103.776382 L109.491732,77.4090102" id="Stroke-22" stroke="#0C152E"></path>
                        <path d="M114.270692,103.776382 L114.270692,59.1124642" id="Stroke-23" stroke="#0C152E"></path>
                        <path d="M91.3591727,32.0432519 L90.947787,32.0432519 C87.5658348,32.042542 84.8252751,29.3005625 84.8259848,25.9193201 C84.8266949,22.5377229 87.5683195,19.7968082 90.9499167,19.797518 C94.1778212,19.798228 96.8512956,22.3048765 97.0589406,25.5263918" id="Stroke-24" stroke="#0C152E"></path>
                        <path d="M105.020194,25.6297529 L105.020194,38.0018485" id="Stroke-25" stroke="#0C152E"></path>
                        <path d="M91.0482375,31.2635003 C91.4596232,31.2635003 91.79363,31.5971522 91.79363,32.0088928 C91.79363,32.4202785 91.4596232,32.7539304 91.0482375,32.7539304 C90.6368519,32.7539304 90.3028451,32.4202785 90.3028451,32.0088928 C90.3028451,31.5971522 90.6368519,31.2635003 91.0482375,31.2635003" id="Fill-26" fill="#0C152E"></path>
                        <path d="M57.5135618,32.0432519 L57.1053706,32.0432519 C53.7234184,32.0436068 50.9821488,29.3023372 50.9817939,25.9207399 C50.9814389,22.5394976 53.7223536,19.797873 57.1039509,19.7975181 C60.3439235,19.7971631 63.0230771,22.3208491 63.2161693,25.5551427" id="Stroke-27" stroke="#0C152E"></path>
                        <path d="M57.2029816,31.2635003 C57.6143672,31.2635003 57.9483741,31.5971522 57.9483741,32.0088928 C57.9483741,32.4202785 57.6143672,32.7539304 57.2029816,32.7539304 C56.7915959,32.7539304 56.4575891,32.4202785 56.4575891,32.0088928 C56.4575891,31.5971522 56.7915959,31.2635003 57.2029816,31.2635003" id="Fill-28" fill="#0C152E"></path>
                        <polyline id="Stroke-29" stroke="#0C152E" points="101.498427 103.776382 32.0786048 103.776382 38.5266048 38.001884 38.5266048 25.6297884 105.020229 25.6297884 117.435629 25.6297884 118.106127 38.001884"></polyline>
                        <path d="M46.231798,68.7284532 L95.0301597,68.7284532" id="Stroke-30" stroke="#0C152E"></path>
                        <path d="M46.231798,81.4459495 L84.8104737,81.4459495" id="Stroke-31" stroke="#0C152E"></path>
                        <path d="M52.0582826,33.3150334 L29.0029379,92.3767399 L12.66003,85.9574908 C12.66003,85.9574908 35.2723986,28.2740505 35.9659686,26.9909106 L52.0582826,33.3150334 Z" id="Fill-32" fill="#FFFFFF"></path>
                        <path d="M52.0582826,33.3150334 L29.0029379,92.3767399 L12.66003,85.9574908 C12.66003,85.9574908 35.2723986,28.2740505 35.9659686,26.9909106 L52.0582826,33.3150334 Z" id="Stroke-33" stroke="#231F20" stroke-linecap="round" stroke-linejoin="round"></path>
                        <g id="Group-36" transform="translate(42.238908, 20.185939)">
                            <path d="M6.55970239,6.89392218 L7.40554539,4.73583345 C8.07462389,3.02462526 7.23268532,1.0947686 5.52360683,0.420010922 C3.81168874,-0.248357679 1.88112218,0.594290785 1.2077843,2.30478908 L0.344548805,4.44832491" id="Fill-34" fill="#FFFFFF"></path>
                            <path d="M6.55970239,6.89392218 L7.40554539,4.73583345 C8.07462389,3.02462526 7.23268532,1.0947686 5.52360683,0.420010922 C3.81168874,-0.248357679 1.88112218,0.594290785 1.2077843,2.30478908 L0.344548805,4.44832491" id="Stroke-35" stroke="#231F20" stroke-linecap="round" stroke-linejoin="round"></path>
                        </g>
                        <polygon id="Fill-37" fill="#FFFFFF" points="14.196284 98.8332587 12.6600655 85.9574908 29.0029734 92.3767399 19.1165843 100.763825"></polygon>
                        <polygon id="Stroke-38" stroke="#231F20" stroke-linecap="round" stroke-linejoin="round" points="14.196284 98.8332587 12.6600655 85.9574908 29.0029734 92.3767399 19.1165843 100.763825"></polygon>
                        <path d="M47.2612915,54.3902962 L44.3368683,53.2416819 L51.2044177,35.7533543 L52.963899,36.4444396 C53.6045816,36.6957433 53.9201311,37.419129 53.6684724,38.0594567 L47.2531276,54.3963304 L47.2612915,54.3902962 Z" id="Fill-39" fill="#FFFFFF"></path>
                        <path d="M47.2612915,54.3902962 L44.3368683,53.2416819 L51.2044177,35.7533543 L52.963899,36.4444396 C53.6045816,36.6957433 53.9201311,37.419129 53.6684724,38.0594567 L47.2531276,54.3963304 L47.2612915,54.3902962 Z" id="Stroke-40" stroke="#231F20" stroke-linecap="round" stroke-linejoin="round"></path>
                        <path d="M44.0078307,30.152901 L22.2846089,85.4624437" id="Stroke-41" stroke="#231F20" stroke-linecap="round" stroke-linejoin="round"></path>
                        <path d="M52.0579631,33.3152109 L35.9514512,26.9903782 L36.9683795,24.4003167 C37.3378812,23.4597024 38.3998881,22.9964942 39.3405024,23.3659959 L52.0405706,28.3533816 C52.981185,28.7228833 53.4443932,29.7848901 53.0748915,30.7255044 L52.0579631,33.3152109 Z" id="Fill-42" fill="#FFFFFF"></path>
                        <path d="M52.0579631,33.3152109 L35.9514512,26.9903782 L36.9683795,24.4003167 C37.3378812,23.4597024 38.3998881,22.9964942 39.3405024,23.3659959 L52.0405706,28.3533816 C52.981185,28.7228833 53.4443932,29.7848901 53.0748915,30.7255044 L52.0579631,33.3152109 Z" id="Stroke-43" stroke="#231F20" stroke-linecap="round" stroke-linejoin="round"></path>
                        <polygon id="Fill-44" fill="#DFE6F2" points="28.9994594 92.3769174 12.6572614 85.9590881 14.0117461 82.5096956 30.353944 88.9275249"></polygon>
                        <path d="M52.0582826,33.3150334 L29.0029379,92.3767399 L12.66003,85.9574908 C12.66003,85.9574908 35.2723986,28.2740505 35.9659686,26.9909106 L52.0582826,33.3150334 Z" id="Stroke-45" stroke="#231F20" stroke-linecap="round" stroke-linejoin="round"></path>
                        <polygon id="Fill-46" fill="#EC6868" points="98.3296928 43.7587986 127.117816 43.7587986 127.117816 14.9706758 98.3296928 14.9706758"></polygon>
                        <path d="M106.78003,23.421013 L118.666911,35.3078935" id="Stroke-47" stroke="#FFFFFF"></path>
                        <path d="M118.667017,23.421013 L106.780137,35.3078935" id="Stroke-48" stroke="#FFFFFF"></path>
                    </g>
                </g>
            </g>
        </g>
    </g>
</svg>