<svg xmlns="http://www.w3.org/2000/svg" viewBox="0 0 546.44 206.99"><title>No bookmarks</title><g id="Layer_2" data-name="Layer 2"><g id="Layer_1-2" data-name="Layer 1"><rect x="256.67" y="70.82" width="87.04" height="35.27" fill="#c5cfe4" stroke="#254898" stroke-miterlimit="10" stroke-width="1.2"/><rect x="343.72" y="70.82" width="166.7" height="35.27" fill="#dfe6f2" stroke="#254898" stroke-miterlimit="10" stroke-width="1.2"/><path d="M74.81,89.91H85.88C77.28,78.82,66,66.48,62.62,73,60.88,76.27,67.24,83.24,74.81,89.91Z" fill="#2bd67b"/><path d="M96.13,90.05c.53-3.69,2-37.31,3-48s2.44-42,11-42,14,32.23,13.74,35.88" fill="#2bd67b"/><path d="M111.17,90.05c13.53-17.59,31.93-45.33,30.74-66.69a2.35,2.35,0,0,0-2.65-2.22c-19.4,1.43-33.89,47.94-39.43,68.77Z" fill="#2bd67b"/><path d="M64.9,71.2c5.2,2.12,12.67,10.63,18.95,18.72h2C78.67,80.58,69.72,70.51,64.9,71.2Z"/><path d="M96.13,90.05c-.93-21.13-3.65-56.32-11.32-56.54-10.84-.32,1.87,53.29,3.1,56.4Z" fill="#2bd67b"/><path d="M99.31,89.9h.52C103.71,75.35,112,48.25,123.2,32.77l.35-.52c0-.43-.26-2.09-.51-3.71C110.87,42.69,100.94,74,96.6,90h0C97.49,89.94,98.39,89.9,99.31,89.9Z" fill="#254898"/><rect x="0.6" y="159.81" width="339.01" height="23.53" fill="none" stroke="#254898" stroke-miterlimit="10" stroke-width="1.2"/><rect x="339.61" y="159.81" width="206.23" height="23.53" fill="#254898" stroke="#254898" stroke-miterlimit="10" stroke-width="1.2"/><path d="M138.74,67.18a.9.9,0,0,0-1.3-.07c-2.86,2.7-14.32,13.53-24.17,22.9h12.54c5.19-3.1,9.19-5.54,9.7-6,1.56-1.28,1.41-.84,2-.48a11.74,11.74,0,0,0,9,2.81C146.11,76.58,140.62,69.37,138.74,67.18Z" fill="#2bd67b"/><rect x="65.59" y="89.91" width="68.49" height="69.91" fill="#254898" stroke="#254898" stroke-miterlimit="10" stroke-width="1.2"/><rect x="211.15" y="114.4" width="280.93" height="45.41" fill="#4070f4"/><line x1="306.75" y1="115.15" x2="306.75" y2="159.81" fill="#fff" stroke="#000" stroke-miterlimit="10" stroke-width="1.2"/><polygon points="492.08 120.93 252.62 120.93 247.74 114.4 492.08 114.4 492.08 120.93" fill="#254898"/><line x1="256.67" y1="82.4" x2="510.42" y2="82.4" fill="#fff" stroke="#254898" stroke-miterlimit="10" stroke-width="1.2"/><line x1="256.67" y1="94.78" x2="510.42" y2="94.78" fill="#fff" stroke="#254898" stroke-miterlimit="10" stroke-width="1.2"/><polygon points="256.67 105.75 256.67 71.17 522.3 71.17 522.3 62.52 256.67 62.52 247.74 62.52 247.74 71.17 247.74 105.75 247.74 105.75 247.74 114.4 247.74 114.4 256.67 114.4 522.3 114.4 522.3 105.75 256.67 105.75" fill="#4070f4"/><rect x="396.84" y="117.67" width="8.34" height="42.15" fill="#254898"/><path d="M362.87,81.87V207l22.36-12.69L401,207V81.87Z" fill="#2bd67b"/></g></g></svg>