<?xml version="1.0" encoding="UTF-8"?>
<svg width="285px" height="108px" viewBox="0 0 285 108" version="1.1" xmlns="http://www.w3.org/2000/svg" xmlns:xlink="http://www.w3.org/1999/xlink">
    <!-- Generator: sketchtool 55.1 (78136) - https://sketchapp.com -->
    <title>B6BE7094-7511-4D7A-9E18-EA7CA7FD7E5F</title>
    <desc>Created with sketchtool.</desc>
    <defs>
        <polygon id="path-1" points="0 107.992174 284.993217 107.992174 284.993217 0 0 0"></polygon>
    </defs>
    <g id="👫-9.0-Bookmarks" stroke="none" stroke-width="1" fill="none" fill-rule="evenodd">
        <g id="9.1.3-Bookmarks---No-bookmarks-yet" transform="translate(-540.000000, -354.000000)">
            <g id="Group-35" transform="translate(540.000000, 354.000000)">
                <path d="M38.979913,46.9087826 L44.7555652,46.9087826 C40.2665217,41.1226957 34.398,34.6828696 32.6167826,38.0710435 C31.712087,39.7917391 35.0282609,43.4298261 38.979913,46.9087826" id="Fill-1" fill="#2bd67b"></path>
                <path d="M50.1030261,46.9831826 C50.3779826,45.0579652 51.1647652,27.514487 51.6718957,21.9245739 C52.1785043,16.3341391 52.9433739,5.2173913e-05 57.4240696,5.2173913e-05 C61.9042435,5.2173913e-05 64.7273739,16.818313 64.5896348,18.718487" id="Fill-3" fill="#2bd67b"></path>
                <path d="M57.948,46.9831826 C65.0081739,37.8068348 74.6081739,23.3296174 73.9873043,12.1889217 C73.946087,11.4480522 73.3445217,10.9774435 72.6041739,11.0317043 C62.4834783,11.7762261 54.9224348,36.0407478 52.0351304,46.9085739 C52.2250435,46.9111826 57.948,46.9831826 57.948,46.9831826" id="Fill-5" fill="#2bd67b"></path>
                <path d="M33.8093739,37.1501217 C36.5239826,38.251513 40.4198087,42.6925565 43.6963304,46.9134261 L44.7554609,46.9087304 C40.991113,42.0414261 36.3225913,36.7901217 33.8093739,37.1501217" id="Fill-7" fill="#254898"></path>
                <path d="M50.1030261,46.9831826 C49.6162435,35.9593565 48.1986783,17.5988348 44.1948522,17.4814435 C38.5397217,17.3165739 45.1741565,45.2890957 45.8138087,46.9085739 L50.1030261,46.9831826 Z" id="Fill-9" fill="#2bd67b"></path>
                <path d="M51.760487,46.9041913 C51.8528348,46.9041913 51.9441391,46.9073217 52.0354435,46.908887 C54.0550957,39.3118435 58.3589217,25.1721913 64.224313,17.0951478 L64.4105739,16.8280174 C64.4064,16.6015826 64.2749217,15.7381043 64.1439652,14.8918435 C57.7944,22.272887 52.6109217,38.5949739 50.3455304,46.9605391 L50.3455304,46.9621043 C50.812487,46.9250609 51.2841391,46.9041913 51.760487,46.9041913" id="Fill-11" fill="#254898"></path>
                <mask id="mask-2" fill="white">
                    <use xlink:href="#path-1"></use>
                </mask>
                <g id="Clip-14"></g>
                <polygon id="Stroke-13" stroke="#254898" mask="url(#mask-2)" points="0.260347826 95.6587826 177.133043 95.6587826 177.133043 83.3817391 0.260347826 83.3817391"></polygon>
                <polygon id="Fill-15" fill="#254898" mask="url(#mask-2)" points="177.133565 95.6587826 284.73287 95.6587826 284.73287 83.3817391 177.133565 83.3817391"></polygon>
                <polygon id="Stroke-16" stroke="#254898" mask="url(#mask-2)" points="177.133565 95.6587826 284.73287 95.6587826 284.73287 83.3817391 177.133565 83.3817391"></polygon>
                <path d="M72.3314609,35.0488696 C72.1572,34.8448696 71.8493739,34.8297391 71.6542435,35.013913 C70.1652,36.4205217 64.1845043,42.0704348 59.0427652,46.9596522 L65.5858957,46.9596522 C68.2937217,45.3433043 70.3848522,44.0713043 70.6493739,43.845913 C71.4606783,43.1812174 71.3829391,43.4081739 71.6933739,43.598087 C74.0646783,45.5123478 76.3728522,45.0626087 76.3728522,45.0626087 C76.1772,39.9558261 73.3144174,36.1951304 72.3314609,35.0488696" id="Fill-17" fill="#2bd67b" mask="url(#mask-2)"></path>
                <polygon id="Stroke-18" stroke="#254898" mask="url(#mask-2)" points="34.1666087 83.3817391 69.9031304 83.3817391 69.9031304 46.9090435 34.1666087 46.9090435"></polygon>
                <polygon id="Fill-19" fill="#4070F4" mask="url(#mask-2)" points="110.11513 83.3817391 256.687826 83.3817391 256.687826 59.6890435 110.11513 59.6890435"></polygon>
                <g id="Group-22" mask="url(#mask-2)">
                    <g transform="translate(159.652174, 59.992174)">
                        <path d="M0.337095652,0.0838956522 L0.337095652,23.3894609" id="Fill-20" stroke="none" fill="#FFFFFF" fill-rule="evenodd"></path>
                        <path d="M0.337095652,0.0838956522 L0.337095652,23.3894609" id="Stroke-21" stroke="#254898" stroke-width="1" fill="none"></path>
                    </g>
                </g>
                <polygon id="Fill-23" fill="#254898" mask="url(#mask-2)" points="256.687774 63.0933913 131.74847 63.0933913 129.202383 59.6890435 256.687774 59.6890435"></polygon>
                <g id="Group-26" mask="url(#mask-2)">
                    <g transform="translate(133.565217, 42.253043)">
                        <path d="M0.298852174,0.739617391 L132.687026,0.739617391" id="Fill-24" stroke="none" fill="#FFFFFF" fill-rule="evenodd"></path>
                        <path d="M0.298852174,0.739617391 L132.687026,0.739617391" id="Stroke-25" stroke="#254898" stroke-width="1" fill="none"></path>
                    </g>
                </g>
                <g id="Group-29" mask="url(#mask-2)">
                    <g transform="translate(133.565217, 49.035652)">
                        <path d="M0.298852174,0.412017391 L132.687026,0.412017391" id="Fill-27" stroke="none" fill="#FFFFFF" fill-rule="evenodd"></path>
                        <path d="M0.298852174,0.412017391 L132.687026,0.412017391" id="Stroke-28" stroke="#254898" stroke-width="1" fill="none"></path>
                    </g>
                </g>
                <polygon id="Fill-30" fill="#4070F4" mask="url(#mask-2)" points="133.863548 55.1725043 133.863548 37.1333739 272.454678 37.1333739 272.454678 32.6166783 133.863548 32.6166783 129.20233 32.6166783 129.20233 37.1333739 129.20233 55.1725043 129.20233 59.6886783 133.863548 59.6886783 272.454678 59.6886783 272.454678 55.1725043"></polygon>
                <polygon id="Stroke-31" stroke="#254898" mask="url(#mask-2)" points="133.864174 55.353913 179.278435 55.353913 179.278435 36.9516522 133.864174 36.9516522"></polygon>
                <polygon id="Stroke-32" stroke="#254898" mask="url(#mask-2)" points="179.278435 55.353913 266.252348 55.353913 266.252348 36.9516522 179.278435 36.9516522"></polygon>
                <polygon id="Fill-33" fill="#254898" mask="url(#mask-2)" points="206.993739 83.3817391 211.342957 83.3817391 211.342957 61.3914783 206.993739 61.3914783"></polygon>
                <polygon id="Fill-34" fill="#2bd67b" mask="url(#mask-2)" points="189.273391 42.7129565 189.273391 107.991913 200.936348 101.375739 209.168348 107.991913 209.168348 42.7129565"></polygon>
            </g>
        </g>
    </g>
</svg>
