<?xml version="1.0" encoding="UTF-8"?>
<svg width="284px" height="142px" viewBox="0 0 284 142" version="1.1" xmlns="http://www.w3.org/2000/svg" xmlns:xlink="http://www.w3.org/1999/xlink">
    <!-- Generator: sketchtool 55.1 (78136) - https://sketchapp.com -->
    <title>87E3CB3A-B423-4B94-86F9-E759BBABA6B7</title>
    <desc>Created with sketchtool.</desc>
    <defs>
        <polygon id="path-1" points="0.33735941 0.0176900369 22.9259756 0.0176900369 22.9259756 19.5359923 0.33735941 19.5359923"></polygon>
        <polygon id="path-3" points="0 140.98231 283.058801 140.98231 283.058801 0.520295203 0 0.520295203"></polygon>
    </defs>
    <g id="💰-2.0-My-Wallet" stroke="none" stroke-width="1" fill="none" fill-rule="evenodd">
        <g id="2.1.2-Wallet---Empty" transform="translate(-541.000000, -618.000000)">
            <g id="Group-10" transform="translate(24.000000, 479.000000)">
                <g id="empty-wallet" transform="translate(517.000000, 139.000000)">
                    <g id="Group-54">
                        <path d="M80.9316066,20.0385974 C74.3509129,20.0385974 69.0163262,14.7040107 69.0163262,8.12331697 C69.0163262,7.75702915 69.0350568,7.39542399 69.0673151,7.03746089 C68.2416066,8.65870074 67.773341,10.492221 67.773341,12.4360439 C67.773341,19.0167376 73.1079277,24.3518446 79.6886214,24.3518446 C85.9035476,24.3518446 91.0045218,19.5932247 91.5534332,13.5213797 C89.5841159,17.3882137 85.5684775,20.0385974 80.9316066,20.0385974" id="Fill-1" fill="#254898"></path>
                        <g id="Group-5" transform="translate(68.678967, 0.502605)">
                            <mask id="mask-2" fill="white">
                                <use xlink:href="#path-1"></use>
                            </mask>
                            <g id="Clip-4"></g>
                            <path d="M12.2526399,19.5359923 C16.8895107,19.5359923 20.9051491,16.8856085 22.8744664,13.0187745 C22.9067247,12.6613317 22.9259756,12.2997266 22.9259756,11.9334387 C22.9259756,5.35274502 17.5908686,0.0176380074 11.0096546,0.0176380074 C6.37278376,0.0176380074 2.35766568,2.66802177 0.388348339,6.53485572 C0.356090037,6.89281882 0.33735941,7.25442399 0.33735941,7.62071181 C0.33735941,14.2014055 5.67194613,19.5359923 12.2526399,19.5359923" id="Fill-3" fill="#4070F4" mask="url(#mask-2)"></path>
                        </g>
                        <path d="M166.515121,127.359629 L218.251715,127.359629 C227.691431,127.068784 229.290818,130.046954 229.290818,130.046954 C231.467733,136.162503 237.252375,140.591776 244.126515,140.719769 C244.228493,140.72133 244.329951,140.72237 244.431408,140.72237 C253.160921,140.72237 260.319143,133.727001 260.482515,124.961588 C260.602704,118.535422 258.104246,112.420393 253.448124,107.742939 C242.394973,96.636197 191.493973,99.4301823 191.493973,99.4301823 C191.493973,99.4301823 177.200944,78.4419941 157.693515,66.2733299" id="Stroke-6" stroke="#254898" fill="#FFFFFF" stroke-linecap="round" stroke-linejoin="round"></path>
                        <path d="M159.701491,67.1690181 L159.824801,67.5498742 C178.556469,85.4209738 190.767277,112.350933 194.599771,127.359889 L198.824048,127.359889 C191.493609,99.4304424 160.576107,66.7559037 159.701491,67.1690181" id="Fill-8" fill="#DFE6F2"></path>
                        <path d="M74.6743804,68.4245424 C74.1473214,67.7044539 73.6868601,66.9401402 73.2872734,66.1456494 C61.5983214,75.553107 52.6362365,88.3799446 47.79541,103.014808 C59.5759339,87.4944022 74.139517,70.5920923 74.6743804,68.4245424" id="Fill-10" fill="#4070F4"></path>
                        <path d="M122.023273,49.7139465 C115.524266,49.4959428 109.211004,50.1421494 103.171417,51.5355 C104.32231,53.1947214 105.254679,55.0443708 105.937827,57.0605148 C108.46438,64.521548 108.996642,76.1132048 93.7821697,105.519249 C89.5953542,113.611921 84.9392325,121.814895 81.7170443,127.359681 L194.599771,127.359681 C188.594524,103.843378 162.025129,51.0563081 122.023273,49.7139465" id="Fill-12" fill="#4070F4"></path>
                        <path d="M97.3554531,5.89739004 C83.098324,5.89739004 71.5404863,17.4552277 71.5404863,31.7128771 C71.5404863,37.5136483 73.4541321,42.8669657 76.6841247,47.1776114 C80.9547077,43.2082793 87.2414347,41.7087886 93.0968369,43.8279509 C98.9480768,45.9476336 103.357579,50.3134306 105.610457,56.1714343 C115.817608,52.7276004 123.17042,43.0818476 123.17042,31.7128771 C123.17042,17.4552277 111.612582,5.89739004 97.3554531,5.89739004" id="Fill-14" fill="#4070F4"></path>
                        <path d="M89.6074251,42.8761749 C89.3748531,42.8824185 89.1433218,42.9047911 88.9123107,42.9209203 C89.1428015,42.9396509 89.3748531,42.9641048 89.6058642,42.992721 C89.6069048,42.9536989 89.6063845,42.915197 89.6074251,42.8761749" id="Fill-16" fill="#254898"></path>
                        <path d="M108.270986,65.9653151 C107.946322,65.9060015 107.622699,65.8378428 107.300636,65.7650015 C107.23768,73.5881601 104.20644,85.3712856 93.7818055,105.519197 C89.59499,113.611869 84.9388683,121.814843 81.7172004,127.359629 L92.6839827,127.359629 C94.7740085,116.853828 105.938503,83.1116435 105.938503,83.1116435 C105.938503,83.1116435 110.279846,71.2962598 108.270986,65.9653151" id="Fill-18" fill="#254898"></path>
                        <path d="M74.8847358,68.631828 L71.6963668,73.2546509 C74.34571,77.2770531 87.2864923,76.5163815 86.1267542,75.4346878 C79.2474111,73.1412266 74.8847358,68.631828 74.8847358,68.631828" id="Fill-20" fill="#DFE6F2"></path>
                        <path d="M81.7171483,127.359629 C84.9388162,121.814843 89.5954583,113.611869 93.7817535,105.519197 C108.996746,76.1131528 108.464484,64.5220162 105.937931,57.0604627 C103.801599,50.752924 99.2417314,46.0536177 93.097045,43.8283151 C84.7624362,40.8116435 75.5485284,45.1191675 72.5276945,53.4579387 C70.6343402,58.6837838 71.6213402,64.251983 74.6744325,68.4247506 C73.7842074,72.0283151 34.1106576,116.369954 32.9316686,127.359629 L81.7171483,127.359629 Z" id="Stroke-22" fill="#FFFFFF" stroke="#c5cfe4"></path>
                        <path d="M131.019177,30.6019948 C123.847948,20.2871424 109.672506,17.7392568 99.3576531,24.9110059 C93.1822694,29.2050022 89.7946273,36.0099432 89.6062804,42.9928251 C90.7738229,43.1385077 91.9439668,43.4106221 93.096941,43.8278989 C99.2416273,46.0537218 103.801494,50.753028 105.937827,57.0605668 C106.733358,59.4102199 107.330137,62.1709063 107.30048,65.7666664 C113.316653,67.1329616 119.864568,66.0627144 125.328188,62.2635188 C135.643041,55.0917697 138.190926,40.9163269 131.019177,30.6019948" id="Fill-24" fill="#FFFFFF"></path>
                        <path d="M93.097097,43.828107 C93.1064624,43.8312288 93.1147871,43.8353911 93.1246727,43.8390332 C92.8530786,36.3613506 96.2667354,28.9055203 102.86616,24.3170369 C105.184075,22.7051624 107.697621,21.5886089 110.281927,20.936679 C106.481691,21.2790332 102.714754,22.5766494 99.3578092,24.911214 C93.1824255,29.2052103 89.7942631,36.009631 89.6064365,42.9930332 C90.773979,43.1387159 91.9441229,43.4108303 93.097097,43.828107" id="Fill-26" fill="#DFE6F2"></path>
                        <path d="M107.262446,64.0429284 C107.290542,64.5954819 107.305631,65.1652052 107.300948,65.7614635 C110.764553,66.5471092 114.405059,66.5288989 117.913409,65.6433565 C114.28435,65.9706221 110.628236,65.4107845 107.262446,64.0429284" id="Fill-28" fill="#DFE6F2"></path>
                        <path d="M107.136431,54.3031063 C105.274814,48.8067077 101.300279,44.7109439 95.9459214,42.7712834 C94.0197886,42.0746081 92.0411059,41.8305897 90.1227775,41.9773129 C89.815283,43.290538 89.8517037,41.9398517 89.815283,43.290538 C90.8335007,43.41749 107.095327,46.2780731 107.300324,65.7646893 C108.085449,60.3442539 108.12187,57.2131173 107.136431,54.3031063" id="Fill-30" fill="#DFE6F2"></path>
                        <path d="M131.019177,30.6019948 C123.847948,20.2871424 109.672506,17.7392568 99.3576531,24.9110059 C93.1822694,29.2050022 89.7946273,36.0099432 89.6062804,42.9928251 C90.7738229,43.1385077 91.9439668,43.4106221 93.096941,43.8278989 C99.2416273,46.0537218 103.801494,50.753028 105.937827,57.0605668 C106.733358,59.4102199 107.330137,62.1709063 107.30048,65.7666664 C113.316653,67.1329616 119.864568,66.0627144 125.328188,62.2635188 C135.643041,55.0917697 138.190926,40.9163269 131.019177,30.6019948 Z" id="Stroke-32" stroke="#254898"></path>
                        <path d="M125.328448,62.2633107 C119.864308,66.0625063 113.316393,67.1327535 107.30074,65.7669786 C107.291895,66.8398273 107.226858,67.9875985 107.095223,69.2212185 C112.815349,70.240997 118.924135,69.0833402 124.071935,65.5042295 C128.447618,62.4615432 131.419544,58.157141 132.850876,53.4229749 C131.206223,56.860045 128.68019,59.9329085 125.328448,62.2633107" id="Fill-34" fill="#254898"></path>
                        <polyline id="Stroke-36" stroke="#254898" points="260.486834 127.359629 282.799173 127.359629 282.799173 139.602695 250.325469 139.602695"></polyline>
                        <polyline id="Stroke-38" stroke="#254898" points="238.879338 139.602851 50.4757627 139.602851 50.4757627 127.359785 220.142988 127.359785"></polyline>
                        <mask id="mask-4" fill="white">
                            <use xlink:href="#path-3"></use>
                        </mask>
                        <g id="Clip-41"></g>
                        <polygon id="Fill-40" fill="#254898" mask="url(#mask-4)" points="0.260147601 139.603007 50.4759188 139.603007 50.4759188 127.359941 0.260147601 127.359941"></polygon>
                        <polygon id="Stroke-42" stroke="#254898" mask="url(#mask-4)" points="0.260147601 139.603007 50.4759188 139.603007 50.4759188 127.359941 0.260147601 127.359941"></polygon>
                        <polygon id="Fill-43" fill="#FFFFFF" mask="url(#mask-4)" points="63.8610332 127.359421 121.602875 127.359421 121.602875 107.181332 63.8610332 107.181332"></polygon>
                        <polygon id="Stroke-44" stroke="#254898" mask="url(#mask-4)" points="63.8610332 127.359421 121.602875 127.359421 121.602875 107.181332 63.8610332 107.181332"></polygon>
                        <path d="M71.3986539,124.54069 C71.2363218,124.54069 71.1046871,124.409576 71.1046871,124.247764 L71.1046871,110.293446 C71.1046871,110.131635 71.2363218,110 71.3986539,110 L91.1469786,110 C91.3093107,110 91.4399048,110.131635 91.4399048,110.293446 L91.4399048,124.247764 C91.4399048,124.409576 91.3093107,124.54069 91.1469786,124.54069 L71.3986539,124.54069 Z" id="Fill-45" stroke="#254898" fill="#FFFFFF" mask="url(#mask-4)"></path>
                        <path d="M97.4246004,124.54069 C97.0411428,124.54069 96.7300063,124.230074 96.7300063,123.846616 L96.7300063,110.694074 C96.7300063,110.310616 97.0411428,110 97.4246004,110 L116.37115,110 C116.754608,110 117.065224,110.310616 117.065224,110.694074 L117.065224,123.846616 C117.065224,124.230074 116.754608,124.54069 116.37115,124.54069 L97.4246004,124.54069 Z" id="Fill-46" stroke="#254898" fill="#FFFFFF" mask="url(#mask-4)"></path>
                        <path d="M79.9865424,117.50196 C79.9865424,115.145023 79.0484502,113.773004 77.4849631,113.773004 C75.921476,113.773004 74.9828635,115.145023 74.9828635,117.50196 C74.9828635,119.859417 75.921476,121.230915 77.4849631,121.230915 C79.0484502,121.230915 79.9865424,119.859417 79.9865424,117.50196 M74.3335351,117.50196 C74.3335351,114.904126 75.4641365,113.159576 77.4849631,113.159576 C79.5052694,113.159576 80.6358708,114.904126 80.6358708,117.50196 C80.6358708,120.099794 79.5052694,121.844344 77.4849631,121.844344 C75.4641365,121.844344 74.3335351,120.099794 74.3335351,117.50196" id="Fill-47" fill="#000000" mask="url(#mask-4)"></path>
                        <path d="M87.5628731,117.50196 C87.5628731,115.145023 86.6247808,113.773004 85.0607734,113.773004 C83.4978066,113.773004 82.5591941,115.145023 82.5591941,117.50196 C82.5591941,119.859417 83.4978066,121.230915 85.0607734,121.230915 C86.6247808,121.230915 87.5628731,119.859417 87.5628731,117.50196 M81.9098657,117.50196 C81.9098657,114.904126 83.0404672,113.159576 85.0607734,113.159576 C87.0816,113.159576 88.2122015,114.904126 88.2122015,117.50196 C88.2122015,120.099794 87.0816,121.844344 85.0607734,121.844344 C83.0404672,121.844344 81.9098657,120.099794 81.9098657,117.50196" id="Fill-48" fill="#000000" mask="url(#mask-4)"></path>
                        <path d="M107.689713,117.50196 C107.689713,115.204336 106.775554,113.867698 105.251089,113.867698 C103.727665,113.867698 102.812986,115.204336 102.812986,117.50196 C102.812986,119.799583 103.727665,121.136222 105.251089,121.136222 C106.775554,121.136222 107.689713,119.799583 107.689713,117.50196 M102.179786,117.50196 C102.179786,114.970203 103.281772,113.269879 105.251089,113.269879 C107.220927,113.269879 108.322392,114.970203 108.322392,117.50196 C108.322392,120.034237 107.220927,121.734041 105.251089,121.734041 C103.281772,121.734041 102.179786,120.034237 102.179786,117.50196" id="Fill-49" fill="#000000" mask="url(#mask-4)"></path>
                        <polygon id="Fill-50" fill="#000000" mask="url(#mask-4)" points="111.61534 113.399068 111.61534 121.604644 110.994107 121.604644 110.994107 114.079094 109.09503 114.676913 108.942063 114.137367 111.087761 113.399068"></polygon>
                        <path d="M75.6997262,29.7941325 C75.6997262,20.4491103 80.6659439,12.2643465 88.1025232,7.73309557 C78.3828886,11.4370771 71.4754494,20.8393317 71.4754494,31.8591841 C71.4754494,37.6599554 73.3890952,43.0132727 76.6190878,47.3233982 C77.7621764,46.2609554 79.0530288,45.3821768 80.4380546,44.6959074 C77.4562428,40.4856786 75.6997262,35.3462026 75.6997262,29.7941325" id="Fill-51" fill="#254898" mask="url(#mask-4)"></path>
                        <path d="M66.1900827,127.359629 L52.6228649,127.359629 L52.6228649,111.99323 C52.6228649,109.335562 54.7768871,107.18154 57.434555,107.18154 L66.1900827,107.18154 L66.1900827,127.359629 Z" id="Fill-52" fill="#FFFFFF" mask="url(#mask-4)"></path>
                        <path d="M66.1900827,127.359629 L52.6228649,127.359629 L52.6228649,111.99323 C52.6228649,109.335562 54.7768871,107.18154 57.434555,107.18154 L66.1900827,107.18154 L66.1900827,127.359629 Z" id="Stroke-53" stroke="#254898" mask="url(#mask-4)"></path>
                    </g>
                </g>
            </g>
        </g>
    </g>
</svg>
