<svg width="195" height="97" viewBox="0 0 195 97" fill="none" xmlns="http://www.w3.org/2000/svg">
<g clip-path="url(#clip0)">
<path d="M34.6587 87.0054H0.214142V95.4033H34.6587V87.0054Z" fill="#1C1C1E"/>
<path d="M34.8728 95.6212H0V86.7915H34.8728V95.6212ZM0.428282 95.1858H34.4445V87.2198H0.428282V95.1858Z" fill="#9999A0"/>
<path d="M163.896 95.6177H34.4445V86.7915H155.484V87.2198H34.8728V95.1894H163.896V95.6177Z" fill="#9999A0"/>
<path d="M55.5517 13.3911C53.3837 13.3902 51.3049 12.5283 49.7723 10.995C48.2396 9.46169 47.3787 7.38248 47.3787 5.21452C47.3787 4.96469 47.3786 4.71486 47.4108 4.47217C46.8654 5.54532 46.5639 6.72568 46.5276 7.9289C46.4914 9.13212 46.7214 10.3285 47.2012 11.4325C47.681 12.5365 48.3988 13.5209 49.3032 14.3153C50.2076 15.1098 51.2763 15.6946 52.433 16.0281C53.5896 16.3615 54.8057 16.4354 55.9942 16.2443C57.1827 16.0532 58.3143 15.602 59.3082 14.9229C60.3021 14.2437 61.1336 13.3534 61.7435 12.3155C62.3534 11.2777 62.7264 10.1179 62.8361 8.91916C62.1532 10.2645 61.1112 11.3945 59.8254 12.1838C58.5396 12.9732 57.0604 13.391 55.5517 13.3911Z" fill="#254898"/>
<path d="M55.5517 13.3908C57.0604 13.3907 58.5396 12.9728 59.8254 12.1835C61.1111 11.3941 62.1532 10.2641 62.836 8.9188C62.8574 8.67254 62.8717 8.42628 62.8717 8.17288C62.8721 6.33583 62.2536 4.55221 61.116 3.1098C59.9784 1.66738 58.388 0.650291 56.6014 0.222619C54.8148 -0.205054 52.9363 -0.0183652 51.2688 0.752565C49.6014 1.52349 48.2423 2.83371 47.4108 4.47181C47.3894 4.7145 47.3787 4.96433 47.3787 5.21416C47.3787 7.38212 48.2396 9.46133 49.7723 10.9946C51.3049 12.5279 53.3837 13.3898 55.5517 13.3908Z" fill="#4070F4"/>
<path d="M114.258 87.0051H149.749C156.226 86.8089 157.322 88.8503 157.322 88.8503C158.074 90.9603 159.451 92.791 161.269 94.0988C163.088 95.4065 165.261 96.1291 167.501 96.1704H167.708C170.593 96.169 173.363 95.0359 175.422 93.0144C177.48 90.993 178.664 88.2446 178.718 85.3598C178.755 83.1667 178.346 80.989 177.517 78.9585C176.687 76.9279 175.455 75.0868 173.893 73.5464C166.312 65.9266 131.397 67.836 131.397 67.836C131.397 67.836 121.593 53.4422 108.198 45.0942" fill="#DFE6F2"/>
<path d="M107.556 44.3595L109.669 45.9798C122.517 58.2394 130.894 76.7126 133.524 87.0235H136.422C131.393 67.8472 108.155 44.074 107.556 44.3595Z" fill="#C5CFE4"/>
<path d="M51.2439 46.5793C50.8836 46.0855 50.5649 45.5626 50.291 45.0161C42.1551 51.5929 36.084 60.3723 32.8028 70.3061C40.8938 59.6598 50.887 48.0748 51.2439 46.5793Z" fill="#4070F4"/>
<path d="M83.7219 33.745C79.3757 33.5964 75.0288 34.0163 70.7914 34.9941C71.6041 36.1652 72.248 37.4447 72.7044 38.7951C74.4389 43.9131 74.803 51.8648 64.3672 72.0369C61.4941 77.5867 58.2998 83.2151 56.0906 87.0268H133.538C129.405 70.877 111.178 34.6658 83.7219 33.745Z" fill="#4070F4"/>
<path d="M66.8155 3.69043C63.5281 3.69109 60.3057 4.60658 57.5091 6.33444C54.7124 8.06231 52.4517 10.5344 50.9801 13.474C49.5084 16.4136 48.8838 19.7047 49.1763 22.9791C49.4687 26.2534 50.6666 29.3818 52.6358 32.0141C54.1197 30.6323 55.956 29.6866 57.9426 29.281C59.9293 28.8755 61.9893 29.0259 63.896 29.7157C65.8577 30.4153 67.6425 31.5356 69.1253 32.998C70.608 34.4605 71.7529 36.2296 72.4795 38.1814C76.4591 36.8397 79.8322 34.1271 81.9964 30.528C84.1607 26.929 84.9752 22.6778 84.2945 18.5337C83.6138 14.3895 81.4823 10.6223 78.2805 7.90462C75.0787 5.18695 71.0152 3.69585 66.8155 3.69757V3.69043Z" fill="#4070F4"/>
<path d="M61.5013 29.0552C61.3406 29.0552 61.1836 29.073 61.0266 29.0837L61.5013 29.1337V29.0552Z" fill="#254898"/>
<path d="M74.3033 44.8946C74.082 44.8517 73.8607 44.8053 73.6395 44.7554C73.5966 50.1089 71.5159 58.2034 64.36 72.0262C61.487 77.576 58.2927 83.2043 56.0835 87.016H63.6034C65.031 79.8102 72.6972 56.6794 72.6972 56.6794C72.6972 56.6794 75.6809 48.5492 74.3033 44.8946Z" fill="#254898"/>
<path d="M56.0906 87.0054C58.2998 83.2044 61.4941 77.5761 64.3672 72.0155C74.7994 51.8542 74.4425 43.9024 72.7044 38.7951C72.0282 36.7094 70.8825 34.8065 69.3554 33.2331C67.8284 31.6596 65.9607 30.4575 63.896 29.7191C61.6761 28.9134 59.2561 28.8423 56.9927 29.5164C54.7293 30.1904 52.7424 31.5738 51.3249 33.4627C49.9075 35.3516 49.1344 37.646 49.1199 40.0076C49.1053 42.3691 49.8499 44.6729 51.2439 46.5792C50.6336 49.0525 23.4056 79.4676 22.6097 87.0054H56.0906Z" fill="#DFE6F2"/>
<path d="M83.4507 73.1646H43.8418V87.0052H83.4507V73.1646Z" fill="black"/>
<path d="M83.6648 87.2194H43.6276V72.9434H83.6648V87.2194ZM44.0488 86.7911H83.2366V73.3788H44.0559L44.0488 86.7911Z" fill="#231F20"/>
<path d="M89.9106 20.6361C88.0336 17.9367 85.352 15.8993 82.2484 14.8144C79.1448 13.7295 75.7778 13.6527 72.628 14.5949C69.4781 15.5371 66.7063 17.4501 64.7082 20.061C62.7101 22.6719 61.5877 25.8473 61.5013 29.1339C62.3183 29.2363 63.1215 29.429 63.8961 29.7085C65.9618 30.4479 67.8303 31.6517 69.3574 33.2271C70.8845 34.8025 72.0296 36.7075 72.7044 38.7952C73.3572 40.7169 73.6735 42.7369 73.6395 44.7662C76.708 45.4652 79.9161 45.2198 82.8426 44.0622C85.7691 42.9047 88.277 40.889 90.037 38.2801C91.7971 35.6711 92.7268 32.5909 92.7043 29.4439C92.6817 26.2968 91.7078 23.2302 89.9106 20.6468V20.6361Z" fill="#DFE6F2"/>
<path d="M63.8961 29.7085H63.9139C63.7846 26.1386 64.8832 22.6323 67.0266 19.7745C69.1699 16.9168 72.2283 14.8803 75.6917 14.0049C71.8842 14.35 68.3361 16.0816 65.7214 18.8707C63.1066 21.6598 61.6074 25.3121 61.5084 29.1339C62.323 29.2368 63.1238 29.4295 63.8961 29.7085Z" fill="#C5CFE4"/>
<path d="M73.6109 43.5742C73.6323 43.9525 73.643 44.3451 73.6395 44.752C76.0376 45.2988 78.5309 45.2719 80.9167 44.6735C78.4286 44.8942 75.9238 44.5174 73.6109 43.5742Z" fill="#C5CFE4"/>
<path d="M73.5253 36.893C72.9358 35.0753 71.9372 33.4171 70.6063 32.046C69.2753 30.6749 67.6476 29.6274 65.8483 28.9841C64.5704 28.5229 63.209 28.3392 61.8546 28.4451C61.644 29.3445 61.669 28.4202 61.644 29.3445C62.3578 29.4338 73.4967 31.3967 73.6395 44.7627C74.1784 41.0366 74.2034 38.8881 73.5253 36.893Z" fill="#C5CFE4"/>
<path d="M86.0061 42.3642C84.2262 43.6047 82.2065 44.4593 80.0768 44.8729C77.947 45.2866 75.7543 45.2502 73.6395 44.7661C73.6395 45.5049 73.5895 46.2901 73.4967 47.136C77.2585 47.8076 81.1359 47.0749 84.3931 45.0768C87.6504 43.0788 90.0608 39.9545 91.1669 36.2969C90.0024 38.733 88.2238 40.824 86.0061 42.3642Z" fill="#254898"/>
<path d="M194.24 95.6177H171.748V95.1894H193.808V87.2198H178.718V86.7915H194.24V95.6177Z" fill="black"/>
<path d="M83.6648 87.2194H43.6276V72.9434H83.6648V87.2194ZM44.0488 86.7911H83.2366V73.3788H44.0559L44.0488 86.7911Z" fill="#9999A0"/>
<path d="M62.5577 75.5703H49.0097C48.8993 75.5703 48.8098 75.6598 48.8098 75.7702V85.3459C48.8098 85.4563 48.8993 85.5457 49.0097 85.5457H62.5577C62.668 85.5457 62.7575 85.4563 62.7575 85.3459V75.7702C62.7575 75.6598 62.668 75.5703 62.5577 75.5703Z" fill="#DFE6F2"/>
<path d="M62.5577 85.76H48.9954C48.8856 85.76 48.7803 85.7164 48.7027 85.6387C48.625 85.5611 48.5814 85.4558 48.5814 85.346V75.7739C48.5814 75.6641 48.625 75.5588 48.7027 75.4811C48.7803 75.4035 48.8856 75.3599 48.9954 75.3599H62.5577C62.6675 75.3599 62.7728 75.4035 62.8504 75.4811C62.9281 75.5588 62.9717 75.6641 62.9717 75.7739V85.346C62.9717 85.4558 62.9281 85.5611 62.8504 85.6387C62.7728 85.7164 62.6675 85.76 62.5577 85.76ZM62.5577 75.7667H49.024V85.3246H62.5434L62.5577 75.7667Z" fill="black"/>
<path d="M79.8603 75.5703H66.8619C66.5998 75.5703 66.3872 75.7828 66.3872 76.045V85.0711C66.3872 85.3332 66.5998 85.5457 66.8619 85.5457H79.8603C80.1224 85.5457 80.3349 85.3332 80.3349 85.0711V76.045C80.3349 75.7828 80.1224 75.5703 79.8603 75.5703Z" fill="#DFE6F2"/>
<path d="M79.8602 85.76H66.8655C66.7747 85.7604 66.6848 85.743 66.6008 85.7086C66.5168 85.6741 66.4404 85.6235 66.3761 85.5595C66.3118 85.4955 66.2607 85.4194 66.2259 85.3356C66.191 85.2518 66.1731 85.1619 66.1731 85.0711V76.0487C66.1731 75.9579 66.191 75.8681 66.2259 75.7843C66.2607 75.7005 66.3118 75.6244 66.3761 75.5604C66.4404 75.4963 66.5168 75.4457 66.6008 75.4113C66.6848 75.3769 66.7747 75.3594 66.8655 75.3599H79.8602C79.951 75.3594 80.0409 75.3769 80.1249 75.4113C80.2089 75.4457 80.2853 75.4963 80.3496 75.5604C80.4139 75.6244 80.465 75.7005 80.4998 75.7843C80.5347 75.8681 80.5526 75.9579 80.5526 76.0487V85.0711C80.5526 85.1619 80.5347 85.2518 80.4998 85.3356C80.465 85.4194 80.4139 85.4955 80.3496 85.5595C80.2853 85.6235 80.2089 85.6741 80.1249 85.7086C80.0409 85.743 79.951 85.7604 79.8602 85.76ZM66.8655 75.7882C66.796 75.7881 66.7294 75.8155 66.68 75.8642C66.6305 75.913 66.6023 75.9793 66.6014 76.0487V85.0711C66.6023 85.1406 66.6305 85.2068 66.68 85.2556C66.7294 85.3044 66.796 85.3317 66.8655 85.3317H79.8602C79.9296 85.3317 79.9963 85.3044 80.0457 85.2556C80.0951 85.2068 80.1234 85.1406 80.1243 85.0711V76.0487C80.1234 75.9793 80.0951 75.913 80.0457 75.8642C79.9963 75.8155 79.9296 75.7881 79.8602 75.7882H66.8655Z" fill="black"/>
<path d="M51.0262 80.2458C51.0262 78.4613 51.8007 77.2656 53.1855 77.2656C54.5702 77.2656 55.3483 78.4648 55.3483 80.2458C55.3483 82.0267 54.5738 83.2223 53.1855 83.2223C51.7971 83.2223 51.0262 82.0267 51.0262 80.2458ZM54.9021 80.2458C54.9021 78.629 54.2597 77.6868 53.1855 77.6868C52.1112 77.6868 51.4688 78.629 51.4688 80.2458C51.4688 81.8625 52.1148 82.8047 53.1855 82.8047C54.2562 82.8047 54.9021 81.8625 54.9021 80.2458Z" fill="black"/>
<path d="M56.2405 80.2458C56.2405 78.4613 57.015 77.2656 58.3998 77.2656C59.7846 77.2656 60.5626 78.4648 60.5626 80.2458C60.5626 82.0267 59.7881 83.2223 58.3998 83.2223C57.0114 83.2223 56.2405 82.0267 56.2405 80.2458ZM60.1165 80.2458C60.1165 78.629 59.4741 77.6868 58.3998 77.6868C57.3255 77.6868 56.6867 78.629 56.6867 80.2458C56.6867 81.8625 57.3291 82.8047 58.3998 82.8047C59.4705 82.8047 60.0986 81.8625 60.0986 80.2458H60.1165Z" fill="black"/>
<path d="M70.1276 80.2455C70.1276 78.5074 70.8806 77.3403 72.2333 77.3403C73.586 77.3403 74.339 78.5074 74.339 80.2455C74.339 81.9836 73.5824 83.1471 72.2333 83.1471C70.8842 83.1471 70.1276 81.9801 70.1276 80.2455ZM73.9072 80.2455C73.9072 78.668 73.279 77.7472 72.2333 77.7472C71.1876 77.7472 70.5594 78.6644 70.5594 80.2455C70.5594 81.8266 71.1876 82.7438 72.2333 82.7438C73.279 82.7438 73.9072 81.8195 73.9072 80.2455Z" fill="black"/>
<path d="M76.5839 77.4297V83.0509H76.1592V77.8972L74.8565 78.3077L74.7494 77.9508L76.2234 77.444L76.5839 77.4297Z" fill="black"/>
<path d="M51.9577 20.083C51.9562 17.0416 52.7383 14.0512 54.2287 11.4C55.719 8.74882 57.8672 6.52632 60.4662 4.94678C57.9042 5.9224 55.6037 7.4795 53.7459 9.49545C51.888 11.5114 50.5236 13.9311 49.76 16.5641C48.9964 19.1971 48.8545 21.9714 49.3455 24.6685C49.8365 27.3657 50.9469 29.912 52.5894 32.107C53.3708 31.3826 54.2532 30.7755 55.2091 30.3046C53.0902 27.3177 51.9538 23.7451 51.9577 20.083Z" fill="#254898"/>
<path d="M39.434 73.1646H45.4407V87.0052H36.1327V76.4659C36.1327 75.5903 36.4805 74.7506 37.0996 74.1315C37.7188 73.5124 38.5585 73.1646 39.434 73.1646Z" fill="#1C1C1E"/>
<path d="M45.6512 87.2196H35.9186V76.4662C35.9195 75.5341 36.2902 74.6405 36.9493 73.9814C37.6083 73.3223 38.502 72.9516 39.434 72.9507H45.6512V87.2196ZM36.3468 86.7914H45.223V73.379H39.434C38.6155 73.3799 37.8309 73.7055 37.2521 74.2842C36.6733 74.863 36.3478 75.6477 36.3468 76.4662V86.7914Z" fill="#9999A0"/>
<path d="M51.4045 46.7222L49.2167 49.895C51.0333 52.6539 59.9238 52.1328 59.1136 51.3905C56.2354 50.4127 53.6047 48.8196 51.4045 46.7222Z" fill="#C5CFE4"/>
</g>
<defs>
<clipPath id="clip0">
<rect width="194.24" height="96.1742" fill="white"/>
</clipPath>
</defs>
</svg>
