<svg xmlns="http://www.w3.org/2000/svg" viewBox="0 0 544.24 269.47"><title>No transactions</title><g id="Layer_2" data-name="Layer 2"><g id="Layer_1-2" data-name="Layer 1"><rect x="0.6" y="243.78" width="96.51" height="23.53" fill="#254898" stroke="#254898" stroke-miterlimit="10" stroke-width="1.2"/><polyline points="459.22 267.31 97.11 267.31 97.11 243.78 435.65 243.78" fill="none" stroke="#254898" stroke-miterlimit="10" stroke-width="1.2"/><path d="M155.65,37.51a22.9,22.9,0,0,1-22.9-22.9,20.41,20.41,0,0,1,.1-2.08A22.9,22.9,0,1,0,176.06,25,22.88,22.88,0,0,1,155.65,37.51Z" fill="#254898"/><path d="M155.65,37.51A22.88,22.88,0,0,0,176.06,25a20.6,20.6,0,0,0,.1-2.09,22.9,22.9,0,0,0-43.31-10.37,20.41,20.41,0,0,0-.1,2.08A22.9,22.9,0,0,0,155.65,37.51Z" fill="#4070f4"/><path d="M320.14,243.78h99.44c18.14-.56,21.21,5.17,21.21,5.17a30.9,30.9,0,0,0,28.52,20.51h.58a30.88,30.88,0,0,0,30.85-30.3,45.43,45.43,0,0,0-13.52-33.09c-21.24-21.35-119.07-16-119.07-16s-27.47-40.34-65-63.72" fill="#dfe6f2"/><path d="M301.36,124.29l5.92,4.54c36,34.35,59.47,86.11,66.84,115h8.12C368.15,190.1,303,123.49,301.36,124.29Z" fill="#c5cfe4"/><path d="M143.62,130.51a30.08,30.08,0,0,1-2.66-4.38A152.67,152.67,0,0,0,92,197C114.6,167.16,142.59,134.68,143.62,130.51Z" fill="#4070f4"/><path d="M234.63,94.55a140,140,0,0,0-36.24,3.5,42.09,42.09,0,0,1,5.32,10.62c4.86,14.34,5.88,36.62-23.36,93.14-8,15.55-17,31.32-23.19,42h217C362.58,198.58,311.51,97.13,234.63,94.55Z" fill="#4070f4"/><path d="M187.22,10.33a49.62,49.62,0,0,0-39.73,79.34A30.86,30.86,0,0,1,179,83.24,40,40,0,0,1,203.08,107a49.62,49.62,0,0,0-15.86-96.63Z" fill="#4070f4"/><path d="M172.32,81.41c-.44,0-.89,0-1.33.08l1.33.14Z" fill="#254898"/><path d="M208.2,125.78c-.63-.11-1.25-.24-1.87-.38-.12,15-6,37.68-26,76.41-8,15.55-17,31.32-23.19,42h21.08c4-20.19,25.47-85,25.47-85S212.06,136,208.2,125.78Z" fill="#254898"/><path d="M157.16,243.78c6.19-10.65,15.14-26.42,23.19-42,29.24-56.52,28.22-78.8,23.36-93.14A40.12,40.12,0,0,0,179,83.24a30.87,30.87,0,0,0-35.41,47.27c-1.71,6.93-78,92.15-80.23,113.27Z" fill="#dfe6f2"/><rect x="122.84" y="205" width="110.98" height="38.78" stroke="#231f20" stroke-miterlimit="10" stroke-width="1.2"/><path d="M251.92,57.82a43.72,43.72,0,0,0-79.6,23.81A30.35,30.35,0,0,1,179,83.24a40.12,40.12,0,0,1,24.68,25.43,49.15,49.15,0,0,1,2.62,16.73,43.71,43.71,0,0,0,45.59-67.58Z" fill="#dfe6f2"/><path d="M179,83.24l.05,0a43.75,43.75,0,0,1,33-44,43.7,43.7,0,0,0-39.74,42.39A30.35,30.35,0,0,1,179,83.24Z" fill="#c5cfe4"/><path d="M206.26,122.09c.05,1.06.08,2.16.07,3.3a43.84,43.84,0,0,0,20.4-.22A44,44,0,0,1,206.26,122.09Z" fill="#c5cfe4"/><path d="M206,103.37a35,35,0,0,0-21.5-22.16,26.85,26.85,0,0,0-11.2-1.53c-.59,2.52-.52-.07-.59,2.52,2,.25,33.22,5.75,33.61,43.2C207.84,115,207.91,109,206,103.37Z" fill="#c5cfe4"/><path d="M241,118.67a43.59,43.59,0,0,1-34.65,6.73c0,2.07-.14,4.27-.39,6.64a43.7,43.7,0,0,0,49.5-30.36A43.57,43.57,0,0,1,241,118.67Z" fill="#254898"/><polyline points="500.75 243.78 543.63 243.78 543.63 267.31 481.22 267.31" fill="none" stroke="#000" stroke-miterlimit="10" stroke-width="1.2"/><rect x="122.84" y="205" width="110.98" height="38.78" fill="none" stroke="#254898" stroke-miterlimit="10" stroke-width="1.2"/><rect x="136.76" y="211.74" width="39.08" height="27.95" rx="0.56" fill="#dfe6f2" stroke="#000" stroke-miterlimit="10" stroke-width="1.2"/><rect x="186.01" y="211.74" width="39.08" height="27.95" rx="1.33" fill="#dfe6f2" stroke="#000" stroke-miterlimit="10" stroke-width="1.2"/><path d="M143,224.84c0-5,2.17-8.35,6.06-8.35s6.05,3.35,6.05,8.35-2.17,8.34-6.05,8.34S143,229.83,143,224.84Zm10.86,0c0-4.53-1.8-7.17-4.8-7.17s-4.81,2.64-4.81,7.17S146,232,149,232,153.83,229.37,153.83,224.84Z"/><path d="M157.53,224.84c0-5,2.17-8.35,6.06-8.35s6,3.35,6,8.35-2.17,8.34-6,8.34S157.53,229.83,157.53,224.84Zm10.86,0c0-4.53-1.8-7.17-4.8-7.17s-4.81,2.64-4.81,7.17,1.8,7.16,4.81,7.16S168.39,229.37,168.39,224.84Z"/><path d="M196.49,224.84c0-4.87,2.12-8.14,5.9-8.14s5.9,3.27,5.9,8.14-2.11,8.13-5.9,8.13S196.49,229.7,196.49,224.84Zm10.59,0c0-4.42-1.76-7-4.69-7s-4.68,2.57-4.68,7,1.75,7,4.68,7S207.08,229.25,207.08,224.84Z"/><path d="M214.62,217v15.77h-1.19V218.26l-3.65,1.15-.29-1,4.12-1.42Z"/><path d="M145.59,56.26a49.6,49.6,0,0,1,23.84-42.4A49.62,49.62,0,0,0,147.36,90a30.89,30.89,0,0,1,7.34-5.06A49.39,49.39,0,0,1,145.59,56.26Z" fill="#254898"/><path d="M110.49,205h16.83a0,0,0,0,1,0,0v38.78a0,0,0,0,1,0,0H101.24a0,0,0,0,1,0,0V214.25A9.25,9.25,0,0,1,110.49,205Z" fill="#254898" stroke="#254898" stroke-miterlimit="10" stroke-width="1.2"/><path d="M144,130.91l-6.13,8.88c5.09,7.73,30,6.27,27.73,4.19A58.55,58.55,0,0,1,144,130.91Z" fill="#c5cfe4"/></g></g></svg>