<svg xmlns="http://www.w3.org/2000/svg" width="468" height="359" viewBox="0 0 468 359">
    <g fill="none" fill-rule="evenodd">
        <path stroke="#254898" stroke-linecap="round" stroke-linejoin="round" d="M346 300.81V212.3h-60.44l9.94 48.16-2.33 89.62L301 358l-50.17-.16 1.44-96.93-11.57-50.67-4 147.72h-23.9v.33H346v-.24h-37.95v-.15c.089-24.909 15.017-47.367 37.95-57.09z"/>
        <path fill="#FFD0D1" fill-rule="nonzero" d="M432.71 343.71l34.47-34.46h-47l-4.47 4.47a61.82 61.82 0 0 1 17 29.99zM371.39 358.05l-.18.18h46.99l.18-.18z"/>
        <path fill="#4070F4" fill-rule="nonzero" d="M53.69 200.47h-23.5l24.49 24.49h23.49z"/>
        <path stroke="#254898" d="M308.05 357.9c0-34.4 28.28-62.28 63.16-62.28 34.88 0 63.17 27.88 63.17 62.28v.15H308.05v-.15zM143.06 358.29V226.08L.28 358.29z"/>
        <path stroke="#254898" d="M197.27 290.25l1.85-31.25a29.8 29.8 0 1 0-1.85 31.28v-.03z"/>
        <path stroke="#254898" stroke-linejoin="round" d="M193.28 357.96l3.21-54.5h-53.34v54.83h69.76v-.33z"/>
        <path fill="#DFE6F2" fill-rule="nonzero" d="M284.65 180.16a12.41 12.41 0 0 1-4.54-.95c-.45-.18-.9-.37-1.33-.57l-1.23-5.17s-11.45-9.47-14.76-17.61c-2.55-6.32-5.2-12.86-9-18.06a12.32 12.32 0 1 1 19.9-14.52c5.58 7.66 9.1 16.36 11.93 23.34.67 1.67 1.45 3.6 2.22 5.37l1.38-.83c26.65-16 40.34-23 50.67-17.22a12.32 12.32 0 0 1-8.61 22.8c-6.18 1.58-22.87 11.62-29.36 15.53-8.84 5.32-13.11 7.89-17.27 7.89z"/>
        <path fill="#254898" fill-rule="nonzero" d="M251.12 342.21a55.58 55.58 0 0 1 3.92-22l3.77-48.58a55.17 55.17 0 0 0-3.39-23.77l-14.72-37.62v5.5l11.55 45.14-1.44 96.93.31-15.6z"/>
        <path fill="#254898" fill-rule="nonzero" stroke="#254898" d="M301.35 358.13l-8.23-8.21L295 293.6s-28.4.61-39.55 25.28l.16 38.82 45.74.43zM195.4 321.93s6.31-28.19 21.59-28.17c17.5 0 20.56 27.64 20.56 27.64l-.87 36.6-43.42.33 2.14-36.4z"/>
        <path fill="#4070F4" fill-rule="nonzero" d="M285.22 143.15c-5.8-19.69-20.47-33.9-37-38.09 18.913 5.835 31.724 23.429 31.47 43.22l5.57-4.92c-.01-.07-.02-.14-.04-.21z"/>
        <path fill="#254898" fill-rule="nonzero" d="M248.23 105.06a41.49 41.49 0 0 0-8.64-1.24c22.45 4.07 38.6 24.3 36.82 47.17l2.48-2 .81-.73c.245-19.784-12.564-37.367-31.47-43.2z"/>
        <path fill="#0C152E" fill-rule="nonzero" stroke="#254898" d="M277.55 173.47h-5.48c-24.13-.29-38.93-2.62-67.41-8.41l4.44-26.54 66.64 7.13 1.81 27.82z"/>
        <path stroke="#254898" d="M204.66 165.03l-11.38 192.93h43.4l4.02-147.72"/>
        <path fill="#05DD8F" fill-rule="nonzero" d="M256.73 107.45h.09z"/>
        <path stroke="#254898" d="M240.56 213.92l12.13 46.96-1.88 96.93 50.61.16-7.8-7.89 2.32-89.62-17.31-81.9-1.08-5.09"/>
        <circle cx="238.22" cy="79.48" r="16.65" fill="#DFE6F2" fill-rule="nonzero"/>
        <path fill="#C5CFE4" fill-rule="nonzero" d="M236.45 62.88a16.65 16.65 0 0 0 5.22 31.77 16.29 16.29 0 0 0 3.35 0 16.65 16.65 0 1 1-8.57-31.75v-.02z"/>
        <path fill="#DFE6F2" fill-rule="nonzero" d="M210.17 226.29a12.29 12.29 0 0 1-6.5-1.86c-3.25-2-6.52-5.13-13.44-22.61-1-2.64-6.3-16.11-6.9-21.45-1-8.68 6.27-33.91 12.5-53.55 2.19-6.301 8.999-9.714 15.358-7.7 6.36 2.016 9.96 8.727 8.122 15.14-5.36 16.9-11.11 38-11.45 43.46 1.24 5.09 8 22.78 10.85 27.36a12.32 12.32 0 0 1-8.54 21.21z"/>
        <path fill="#C5CFE4" fill-rule="nonzero" d="M336.4 132.91a12.43 12.43 0 0 0-9 12 12 12 0 0 0 8.88 11.65 10.19 10.19 0 0 0 1.81-.5c.51-.24 4.06-20 .6-22.39a7.18 7.18 0 0 0-2.29-.76z"/>
        <path fill="#DFE6F2" fill-rule="nonzero" d="M344.72 139.37V150a12.05 12.05 0 0 0 0-10.63z"/>
        <path fill="#C5CFE4" fill-rule="nonzero" d="M344.45 150.55c.1-.17.18-.36.27-.54v-10.64a12.08 12.08 0 0 0-5-5.2 15.49 15.49 0 0 0-6.84-1.93L329.81 157c.41-.14 1.14-.39 1.48-.52a12.05 12.05 0 0 0 13.16-5.93z"/>
        <path fill="#254898" fill-rule="nonzero" stroke="#254898" d="M427.08 70.3c-16.06 9.13-63.58-17.45-85.91 0l5.7-50.2c14.37-4.9 33.95 3.13 51.56 4.6 13.72 1.15 27.69-4.6 27.69-4.6l-13.46 26.38 14.42 23.82z"/>
        <path fill="#0C152E" fill-rule="nonzero" stroke="#254898" d="M307.16 357.97L349.56.06"/>
        <path fill="#DFE6F2" fill-rule="nonzero" d="M344.45 150.55c3.228-5.816 1.134-13.148-4.68-16.38-.44-.24-.89-.46-1.34-.65a11.61 11.61 0 0 0-.72 22.61 12 12 0 0 0 6.74-5.58z"/>
        <path fill="#254898" fill-rule="nonzero" d="M276.4 153.32l-61.3-6.2 1.21-4.4 60.09-1.32z"/>
        <path fill="#4070F4" fill-rule="nonzero" d="M276.41 151c1.25-1.05 1.23-.93 2.48-2 1.28-23.22-16-43.78-39.72-46.62-24.77-3-47.2 14.48-50 38.92l87.24 9.7z"/>
        <ellipse cx="237.227" cy="104.696" fill="#254898" fill-rule="nonzero" rx="1.82" ry="9.29" transform="rotate(-83.18 237.227 104.696)"/>
        <path fill="#C5CFE4" fill-rule="nonzero" d="M214.69 148.64l-23.5-5.61.39-1.45 24.34 2.7zM276.41 150.99l-.01 2.33 11.32-1.04-3.38-8.1z"/>
        <path fill="#4070F4" fill-rule="nonzero" d="M256.29 76.84c-1.118-9.128-8.87-15.987-18.065-15.987-9.196 0-16.947 6.86-18.065 15.987h36.13zM233.63 56.36a4.91 4.91 0 0 1 9.74 0 13.63 13.63 0 0 1-9.74 0z"/>
        <ellipse cx="238.22" cy="61.9" fill="#254898" fill-rule="nonzero" rx="5.37" ry="1.05"/>
    </g>
</svg>
