<svg xmlns="http://www.w3.org/2000/svg" viewBox="0 0 854.01 282.74"><title>404_1</title><g id="Layer_2" data-name="Layer 2"><g id="Layer_1-2" data-name="Layer 1"><polygon points="639.91 272.67 262.27 272.67 262.27 255.85 624.45 255.85 624.45 39.8 639.91 39.8 639.91 272.67" fill="#254898"/><rect x="234.01" y="0.6" width="390.45" height="255.25" fill="#f7f9fb"/><rect x="234.01" y="0.6" width="390.45" height="30.72" fill="none" stroke="#254898" stroke-miterlimit="10" stroke-width="1.2"/><circle cx="600.34" cy="14.88" r="8.26" fill="none" stroke="#254898" stroke-miterlimit="10" stroke-width="1.2"/><rect x="666.47" y="233.45" width="90.34" height="20.14" fill="#4070f4"/><rect x="778.39" y="184.25" width="41.99" height="20.14" fill="#4070f4"/><rect x="21.27" y="262.6" width="27.42" height="20.14" fill="#4070f4"/><rect y="262.6" width="10.19" height="20.14" fill="#4070f4"/><rect x="108.08" y="72.09" width="76.88" height="20.14" fill="#4070f4"/><polygon points="497.33 186.64 452.17 141.47 497.33 96.31 483.19 82.16 438.02 127.33 392.86 82.16 378.71 96.31 423.88 141.47 378.71 186.64 392.86 200.78 438.02 155.61 483.19 200.78 497.33 186.64" fill="#4070f4"/><rect x="828.23" y="184.25" width="25.79" height="20.14" fill="#4070f4"/></g></g></svg>