<svg xmlns="http://www.w3.org/2000/svg" viewBox="0 0 256.17 204.69"><title>Asset 14</title><g id="Layer_2" data-name="Layer 2"><g id="Layer_1-2" data-name="Layer 1"><rect x="130.28" y="22.3" width="106.8" height="103.12" fill="#dfe6f2"/><path d="M112.29,108.05V7.65A7.15,7.15,0,0,1,119.44.5H248.52a7.15,7.15,0,0,1,7.15,7.15V116.23A80.66,80.66,0,0,1,239,165.36l-29.81,38.83h-50.4L129,165.36a80.87,80.87,0,0,1-8.57-13.87c-.27-.55-.53-1.1-.78-1.66" fill="none" stroke="#254898" stroke-linejoin="round"/><rect x="141.51" y="91.4" width="38.71" height="11.24" fill="#ff4557"/><rect x="187.14" y="91.4" width="38.71" height="11.24" fill="#05dd8f"/><path d="M138.92,119.21c-5.63,1.11-14.15,3.14-19.39.78C106,113.89,80,102.13,79.42,101.25c-2.83-3.11-1.2-10.33.33-14.55,2.2-6.06,31,6.18,31,6.18l13.47,5.25s24-2.59,28.84-4c14.66-4.31,19.94-7.84,27.27-3.47a11.68,11.68,0,0,1-9.47,21.22C168.56,112.1,152.79,116.47,138.92,119.21Z" fill="#f7f9fb"/><path d="M153.06,94.12c-4.86,1.42-28.84,4-28.84,4l-13.47-5.25S82,80.64,79.75,86.7c-1.07,3-2.19,7.4-1.79,10.86a34.36,34.36,0,0,1,1.37-6.5c1.93-6.15,29,6,29,6l15.61,5.62s32.15-9.34,36.94-11" fill="#dfe6f2"/><polyline points="79.96 75.82 111.32 91.63 109.96 119.67 100.95 118.51" fill="#05dd8f"/><path d="M80,75.82h0l.08,0Z" fill="#05dd8f"/><path d="M106.65,115.49v-.17A42.46,42.46,0,0,0,91.22,82.53,44.6,44.6,0,0,0,80.55,77L101,118.51l5.7.74v-3.76Z" fill="#05dd8f"/><path d="M109.91,113.79c0,.06,0,.12,0,.17h0l.22,1.82,1.17-24.15L86.26,79a42.4,42.4,0,0,1,5,3.53A44.44,44.44,0,0,1,109.91,113.79Z" fill="#05dd8f"/><path d="M109.93,114s0-.11,0-.17A44.44,44.44,0,0,0,91.22,82.53a42.46,42.46,0,0,1,15.43,32.79v.17h0v3.76l3.31.42.19-3.89-.22-1.82Z" fill="#254898"/><path d="M80,75.86,86.26,79A42.14,42.14,0,0,0,80,75.86Z" fill="#05dd8f"/><path d="M91.22,82.53a42.4,42.4,0,0,0-5-3.53L80,75.86l-.08,0L80.55,77A44.6,44.6,0,0,1,91.22,82.53Z" fill="#05dd8f"/><line y1="180.15" x2="125.72" y2="180.15" fill="none" stroke="#254898" stroke-linejoin="round"/><rect x="141.51" y="32.84" width="84.33" height="3.84" fill="#fff"/><rect x="141.51" y="39.91" width="29.72" height="3.84" fill="#fff"/><circle cx="65.62" cy="47.13" r="16.14" fill="#fff" stroke="#0c152e" stroke-linejoin="round"/><path d="M39.21,134.75a113.46,113.46,0,0,0,52.44-.11l16-3.83V115.49H22.51v15.32Z" fill="#05dd8f"/><path d="M22.51,131.93V151.3H34.17A44.27,44.27,0,0,1,22.51,131.93Z" fill="#05dd8f"/><polygon points="48.8 115.49 22.51 115.49 22.51 130.81 33.23 133.34 35.2 128.08 48.8 115.49" fill="#101c3d"/><polyline points="22.67 127.01 14.19 180.15 72.02 180.15 73.14 172.93" fill="none" stroke="#254898" stroke-linejoin="round"/><path d="M107.61,115.49v-.17a42.56,42.56,0,0,0-85.11,0c0,.06,0,.11,0,.17Z" fill="#05dd8f"/><path d="M107.61,119.25l-5.7-.74L81.5,77a44.59,44.59,0,0,0-58.81,34.34c-.12,1.3-.19,2.62-.19,4,0,.06,0,.11,0,.17v10.16l4,34h81.08Z" fill="none"/><path d="M80.92,75.82h0l.08,0Z" fill="#05dd8f"/><path d="M107.61,115.49v-.17A42.46,42.46,0,0,0,92.18,82.53,44.48,44.48,0,0,0,81.5,77l20.41,41.49,5.7.74v-3.76Z" fill="#05dd8f"/><line x1="89.14" y1="180.15" x2="111.27" y2="180.15" fill="none" stroke="#254898" stroke-linejoin="round"/><path d="M22.5,115.32c0-1.34.07-2.66.19-4a44.84,44.84,0,0,0-.35,12.91,1.1,1.1,0,0,1,0,.18l.15,1.2V115.49C22.51,115.43,22.5,115.38,22.5,115.32Z" fill="#254898"/><polygon points="22.51 159.65 26.53 159.65 22.51 125.65 22.51 159.65" fill="#05dd8f"/><path d="M61.36,74.77A44.19,44.19,0,0,1,81.5,77l-.58-1.19a42.57,42.57,0,0,0-58.23,35.53A44.58,44.58,0,0,1,61.36,74.77Z" fill="#05dd8f"/><path d="M81,75.86,87.22,79A42.14,42.14,0,0,0,81,75.86Z" fill="#05dd8f"/><path d="M92.18,82.53a42.4,42.4,0,0,0-5-3.53L81,75.86l-.08,0L81.5,77A44.48,44.48,0,0,1,92.18,82.53Z" fill="#05dd8f"/><path d="M62.39,31.31A16.15,16.15,0,0,0,73.57,61.18,16.14,16.14,0,1,1,62.39,31.31Z" fill="#edf0f5"/><ellipse cx="64.61" cy="74.06" rx="9.01" ry="1.76" fill="#254898"/><circle cx="65.62" cy="47.13" r="16.14" fill="none" stroke="#0c152e" stroke-linejoin="round"/><line x1="111.27" y1="180.15" x2="107.04" y2="130.95" fill="none" stroke="#254898" stroke-linejoin="round"/><polygon points="54.46 110.25 48.8 115.49 52.54 115.49 54.46 110.25" fill="#254898"/><path d="M52.54,115.49H48.8L35.2,128.08l-2,5.26,6,1.41q2.9.67,5.82,1.2l1.59-4.31Z" fill="#254898"/><path d="M35.56,184.61a11.07,11.07,0,0,1-1.15-.06A11.69,11.69,0,0,1,23.86,173c-.67-2.76-4.26-10.37-6.43-15-5.17-11-7.87-17-7.87-22.07,0-4.27,1.69-9.69,10.31-24.73,4.45-7.78,8.83-14.71,9-15a11.68,11.68,0,1,1,19.74,12.5c-6.23,9.84-13.39,22.35-15.4,27.37,1,2.83,3.56,8.21,5.34,12,6.06,12.88,9.2,19.89,8.6,26A11.68,11.68,0,0,1,35.56,184.61Z" fill="#fff"/><path d="M45,92.6a11.41,11.41,0,0,0-2.81-1.28,11.66,11.66,0,0,1,3,15.65c-6.23,9.84-13.39,22.35-15.39,27.38,1,2.83,3.56,8.21,5.33,12,6.06,12.88,9.2,19.89,8.6,26a11.68,11.68,0,0,1-11.61,10.54,11.22,11.22,0,0,1-1.15-.06,11.57,11.57,0,0,1-2.3-.46,11.63,11.63,0,0,0,5.77,2.21,11.07,11.07,0,0,0,1.15.06,11.68,11.68,0,0,0,11.61-10.55c.6-6.1-2.54-13.11-8.6-26-1.78-3.77-4.31-9.15-5.34-12,2-5,9.17-17.53,15.4-27.37A11.68,11.68,0,0,0,45,92.6Z" fill="#edf0f5"/><polyline points="35.55 84.84 13.78 111.98 39.49 129.44 60.72 99.98" fill="#05dd8f"/></g></g></svg>