<svg xmlns="http://www.w3.org/2000/svg" viewBox="0 0 564.01 613.14"><title>404_2</title><g id="Layer_2" data-name="Layer 2"><g id="Layer_1-2" data-name="Layer 1"><polyline points="157.24 407.13 159.22 382.4 168.08 406.35" fill="none" stroke="#254898" stroke-miterlimit="10" stroke-width="1.3"/><path d="M343.2,84A42.57,42.57,0,0,0,337.77.35c-17.68-2-41.66,3-85.49,55.13C191,128.4,200,159.31,203,169.47c2.6,8.85,10.61,20.42,19.05,29.52l.61.43a65.21,65.21,0,0,1,38,17.86l19.7,18.81.35,4.6,8,5.67,74.06-50.8c-1.82-.94-26.68-24.29-28.48-25.24-15-8-33.43-18.32-42.48-24.42a254.35,254.35,0,0,1,19.87-28.5C325.83,99.46,337.7,88.28,343.2,84Z" fill="#dfe6f2"/><path d="M323,164.4s-39.4,39.77-50,64.73l14,12.68s62.59-65.61,61.82-65.61S323,164.4,323,164.4Z" fill="#c5cfe4"/><path d="M323.83,102.89l-91.55-.48A8.13,8.13,0,0,1,225,90.77h0l110.23-.31Z" fill="#c5cfe4"/><polygon points="138.36 524.79 245.16 406.35 267.1 406.35 165.63 524.79 138.36 524.79" fill="#254898"/><path d="M545.09,572.65l13.56-9-7-9-12.81,8.71c-2.94,7-6.51,13.92-6,20.92a8.86,8.86,0,0,1-3.79,8l-11.72,7.88,8.94,7.87,9-6.37a8.82,8.82,0,0,0,3.78-8C538.54,586.66,542.15,579.66,545.09,572.65Z" fill="#254898"/><path d="M432.42,71.87a16.17,16.17,0,0,1,7.26.51,18,18,0,0,1,5.57,2.79,17.8,17.8,0,0,1,4.3,4.51,16.41,16.41,0,0,1,2.58,6.82,16.1,16.1,0,0,1-7.28-.5A18,18,0,0,1,435,78.67,16.18,16.18,0,0,1,432.42,71.87Z" fill="#4070f4"/><path d="M441.15,84.42a44.55,44.55,0,0,0,2.05-10.56s-3.49-2.55-4.78-2.19-1.12,10.39-1.12,10.39Z" fill="#254898"/><path d="M454.15,63a17.93,17.93,0,0,0-6.23-.15,18.6,18.6,0,0,0-3.69,1,44.87,44.87,0,0,1,2.49,9.1,18.24,18.24,0,0,0,2.67-.18,17.65,17.65,0,0,0,5.91-2A16.28,16.28,0,0,0,460.8,66,16.28,16.28,0,0,0,454.15,63Z" fill="#4070f4"/><path d="M442,64.77a16.35,16.35,0,0,0-5.5,4.78,16.36,16.36,0,0,0,6.65,3,17.46,17.46,0,0,0,3.56.35,44.87,44.87,0,0,0-2.49-9.1A16.75,16.75,0,0,0,442,64.77Z" fill="#254898"/><path d="M375,41.41a42.82,42.82,0,1,1-10.21,8.42" fill="#dfe6f2"/><path d="M409.53,37.38a42.79,42.79,0,0,1-37.19,75.94,42.78,42.78,0,1,0,37.19-75.94Z" fill="#c5cfe4"/><polyline points="243.39 256.24 232.42 263.3 176.83 211.17" fill="#254898"/><path d="M285.92,401.51c.55,1.61,1.08,3.21,1.65,4.84h5.91Q289.61,403.92,285.92,401.51Z" fill="#4070f4"/><path d="M392.22,149c-47.55,6.13-98.89,38.81-117.19,102.58a53.77,53.77,0,0,1,44.18,41.22c9.3,7.83,27.11,20.72,53.69,35.67a408.35,408.35,0,0,0,47,23c2.6-13.88,4.28-34.75,1.65-60.61l107.76-.91c2.93,39.52.11,82.58-13.58,116.43h14.62C575.32,223.2,473.1,138.54,392.22,149Z" fill="#4070f4"/><path d="M285.92,401.51c.55,1.61,1.08,3.21,1.65,4.84h5.91Q289.61,403.92,285.92,401.51Z" fill="#4070f4"/><path d="M392.22,149c-47.55,6.13-98.89,38.81-117.19,102.58a53.77,53.77,0,0,1,44.18,41.22c9.3,7.83,27.11,20.72,53.69,35.67a408.35,408.35,0,0,0,47,23c2.6-13.88,4.28-34.75,1.65-60.61l107.76-.91c2.93,39.52.11,82.58-13.58,116.43h14.62C575.32,223.2,473.1,138.54,392.22,149Z" fill="#4070f4"/><line x1="503.5" y1="429.58" x2="532.91" y2="429.58" fill="none" stroke="#254898" stroke-miterlimit="10" stroke-width="1.3"/><line x1="214" y1="429.58" x2="333.65" y2="429.58" fill="none" stroke="#254898" stroke-miterlimit="10" stroke-width="1.3"/><line x1="10.34" y1="429.58" x2="171.78" y2="429.58" fill="none" stroke="#254898" stroke-miterlimit="10" stroke-width="1.3"/><path d="M280.32,236.09l-19.7-18.81c-24.2-23.1-59.35-23.37-83.79-6.12" fill="none" stroke="#254898" stroke-miterlimit="10" stroke-width="1.3"/><path d="M52.69,407.13,74.47,255.74c5-34.4,35.74-59.61,70.35-56.48a65.25,65.25,0,0,1,39.39,18l48.21,46" fill="none" stroke="#254898" stroke-miterlimit="10" stroke-width="1.3"/><ellipse cx="405.5" cy="151.91" rx="20.24" ry="3.79" fill="#254898"/><line x1="234.69" y1="406.35" x2="293.48" y2="406.35" fill="none" stroke="#254898" stroke-miterlimit="10" stroke-width="1.3"/><polyline points="86.64 524.79 48.76 524.79 0.96 406.35 192.55 406.35" fill="none" stroke="#254898" stroke-miterlimit="10" stroke-width="1.3"/><polyline points="515.73 406.35 541.35 406.35 498.16 524.79 129.21 524.79" fill="none" stroke="#254898" stroke-miterlimit="10" stroke-width="1.3"/><path d="M311.3,274.27l15.58-18.14a15.53,15.53,0,0,1,21.93-1.3h0a15.53,15.53,0,0,1,1.3,21.93l-21.33,23.18" fill="none" stroke="#254898" stroke-miterlimit="10" stroke-width="1.3"/><path d="M319.16,292.39c2.56,2.15,5.28,4.5,9.13,7.35l7-7.59c-11-3.45-16.86-25.43-16.86-25.43l-6.84,8A50.82,50.82,0,0,1,319.16,292.39Z" fill="#254898"/><path d="M438.65,66.74a43,43,0,0,0-83.32,0Z" fill="#4070f4"/><rect x="240.3" y="46.69" width="96.66" height="49.95" fill="#2bd67b"/><circle cx="240.69" cy="71.78" r="24.98" fill="#dfe6f2" stroke="#000" stroke-miterlimit="10" stroke-width="1.3"/><path d="M303.72,46.69h60.67a25,25,0,0,1,25,25v0a25,25,0,0,1-25,25H303.72a0,0,0,0,1,0,0v-50A0,0,0,0,1,303.72,46.69Z" fill="#2bd67b"/><circle cx="240.69" cy="71.78" r="6.99"/><rect x="539.87" y="553.74" width="21.71" height="4.41" transform="translate(701.57 -211.93) rotate(55.84)" fill="none" stroke="#254898" stroke-miterlimit="10" stroke-width="1.3"/><rect x="534.95" y="550.83" width="21.71" height="16.45" transform="translate(701.98 -206.49) rotate(55.84)" fill="none" stroke="#254898" stroke-miterlimit="10" stroke-width="1.3"/><path d="M526.26,608.07l9-6.37a8.82,8.82,0,0,0,3.78-8c-.52-7,3.09-14,6-21l-12.19-18c-7.12,1.23-14.29,1.24-21.58-2.38a8.72,8.72,0,0,0-8.78.59l-69.91,47.44a7.7,7.7,0,0,0-1.93,1.84" fill="none" stroke="#254898" stroke-miterlimit="10" stroke-width="1.3"/><rect x="539.82" y="550.74" width="28.91" height="4.42" rx="2.21" transform="translate(700.64 -216.17) rotate(55.84)" fill="none" stroke="#254898" stroke-miterlimit="10" stroke-width="1.3"/><path d="M516.44,406.34l14.71-.24a400.4,400.4,0,0,0,10.2-77.39l-10.66-.65C529.84,355.77,525.84,383.2,516.44,406.34Z" fill="#254898"/><path d="M417.55,320.65l3.89-52.75c-10.42,21.89-19.72,46.41-29.06,71,10.77,5.44,20,9.57,27.52,12.58A187.41,187.41,0,0,0,422.82,321Z" fill="#254898"/><circle cx="301.64" cy="71.33" r="24.98" fill="#dfe6f2" stroke="#000" stroke-miterlimit="10" stroke-width="1.3"/><circle cx="301.64" cy="71.33" r="6.99"/><path d="M386.27,603.63l1.57-1.57a30.2,30.2,0,0,1,42.7,0h0l1.57,1.57a30.2,30.2,0,0,0,42.7,0h0l1.57-1.57a30.2,30.2,0,0,1,42.7,0h0l1.57,1.57a30.2,30.2,0,0,0,42.7,0h0" fill="none" stroke="#254898" stroke-miterlimit="10" stroke-width="1.3"/><path d="M236.73,357l-64.95,72.63-117,130.84a30.18,30.18,0,0,0,34.71-5.73l1.57-1.56a30.13,30.13,0,0,1,20.76-8.83L213.49,430.16l46.29-50.74Z" fill="none" stroke="#254898" stroke-miterlimit="10" stroke-width="1.3"/><path d="M1,554.69l1.57-1.57a30.2,30.2,0,0,1,42.7,0h0l1.57,1.57a30.18,30.18,0,0,0,42.7,0h0l1.57-1.56a30.21,30.21,0,0,1,42.71,0h0l1.57,1.57" fill="none" stroke="#254898" stroke-miterlimit="10" stroke-width="1.3"/><path d="M529.31,289.92c3.77,50.85-2,107.56-28.15,143-13.89,18.77-33.14,30.23-54.22,32.28-28.71,2.8-71.73-11.87-127.87-43.59s-90.45-60.69-101.95-86.06c-11.2-24.71-6.16-52.2,12.83-70a53.79,53.79,0,0,1,89.26,27.3c9.3,7.83,27.11,20.72,53.69,35.67a408.35,408.35,0,0,0,47,23c2.6-13.88,4.28-34.75,1.65-60.61" fill="#dfe6f2"/><path d="M529.11,339.68c-37.3.39-74.87,1.7-109.21,12.57L423.33,321l106.39,7Z" fill="#c5cfe4"/><path d="M422.34,255.73l-4.79,64.92,123.79,8.11s3.73-76.47-30.63-120.83C500,194.13,427,201.07,422.34,255.73Z" fill="#4070f4"/></g></g></svg>