<svg width="220" height="240" viewBox="0 0 220 240" fill="none" xmlns="http://www.w3.org/2000/svg">
<g clip-path="url(#clip0)">
<mask id="path-1-inside-1" fill="white">
<path d="M61.3307 159.164L62.0609 149.795L65.5152 159.164"/>
</mask>
<path d="M62.0609 149.795L62.53 149.622L61.5624 149.756L62.0609 149.795ZM61.8292 159.203L62.5594 149.833L61.5624 149.756L60.8322 159.125L61.8292 159.203ZM61.5917 149.968L65.0461 159.337L65.9843 158.991L62.53 149.622L61.5917 149.968Z" fill="#254898" mask="url(#path-1-inside-1)"/>
<path d="M133.872 33.049C140.425 31.4255 145.589 25.8664 146.393 18.7503C147.424 9.61158 140.867 1.36877 131.753 0.335975C124.852 -0.446447 115.492 1.5057 98.3841 21.9034C74.4575 50.4305 77.9938 62.5228 79.1569 66.4975C80.1718 69.9598 83.2982 74.49 86.5925 78.05L86.8267 78.2182C92.1195 78.8168 97.3263 81.0741 101.639 85.2013L109.329 92.56L109.465 94.3635L112.572 96.5777L141.479 76.7042C140.769 76.3365 131.062 67.2017 130.363 66.8301C124.489 63.7121 117.315 59.6631 113.782 57.2767C115.433 54.4561 117.966 50.6379 121.538 46.1233C127.092 39.105 131.725 34.7312 133.872 33.049Z" fill="white"/>
<path d="M125.999 64.5107C125.999 64.5107 110.621 80.0691 106.483 89.8338L111.932 94.7943C111.932 94.7943 136.362 69.127 136.062 69.127C135.761 69.127 125.999 64.5107 125.999 64.5107Z" fill="#DFE6F2"/>
<path d="M126.311 40.4473L90.5777 40.2595C88.2514 40.2478 86.7291 37.8105 87.7323 35.7058L130.757 35.5845L126.311 40.4473Z" fill="#DFE6F2"/>
<path d="M53.9188 205.499L95.605 159.164H104.169L64.5589 205.499H53.9188Z" fill="#254898"/>
<path d="M212.674 224.223L217.966 220.717L215.5 217L210.222 220.596C209.075 223.323 207.685 226.046 207.888 228.78C207.982 230.016 207.436 231.217 206.409 231.914L201.838 234.996L205.328 238.075L208.849 235.583C209.875 234.887 210.418 233.69 210.328 232.45C210.117 229.703 211.526 226.965 212.674 224.223Z" fill="#254898"/>
<path d="M168.692 28.3119C169.817 28.1398 170.706 28.2806 171.53 28.5115C172.346 28.754 173.06 29.1296 173.704 29.6029C174.344 30.0802 174.914 30.6553 175.379 31.3673C175.839 32.091 176.23 32.9008 176.386 34.0354C175.258 34.2153 174.368 34.0745 173.548 33.8397C172.732 33.5972 172.018 33.2216 171.378 32.7404C170.738 32.2593 170.172 31.6842 169.703 30.9722C169.247 30.2523 168.852 29.4386 168.692 28.3119Z" fill="#4070F4"/>
<path d="M172.104 33.2216C172.077 33.2021 172.834 31.1639 172.904 29.0904C172.904 29.0904 171.542 28.0968 171.038 28.2337C170.535 28.3745 170.601 32.2984 170.601 32.2984L172.104 33.2216Z" fill="#254898"/>
<path d="M177.178 24.8263C176.347 24.6541 175.539 24.6502 174.746 24.7676C174.258 24.8419 173.778 24.971 173.306 25.147C173.751 26.2894 174.075 27.4826 174.278 28.7071C174.629 28.7071 174.973 28.6836 175.316 28.6366C176.105 28.5193 176.877 28.2806 177.627 27.8738C178.372 27.4552 179.102 26.9231 179.774 25.9999C178.864 25.3114 178.013 25.014 177.178 24.8263Z" fill="#4070F4"/>
<path d="M172.439 25.5343C171.694 25.9529 170.964 26.485 170.293 27.4043C171.202 28.0889 172.053 28.3863 172.884 28.5701C173.357 28.6679 173.821 28.7071 174.278 28.7071C174.075 27.4826 173.751 26.2894 173.306 25.147C173.013 25.2566 172.724 25.3818 172.439 25.5343Z" fill="#254898"/>
<path d="M146.3 16.3952C148.79 14.9164 151.698 14.0675 154.801 14.0675C164.024 14.0675 171.503 21.5631 171.503 30.8074C171.503 40.0517 164.024 47.5473 154.801 47.5473C145.578 47.5473 138.099 40.0517 138.099 30.8074C138.099 26.5393 139.692 22.6468 142.315 19.6892" fill="white"/>
<path d="M159.762 14.8191C164.079 17.8471 166.909 22.8585 166.909 28.5389C166.909 37.7832 159.43 45.2788 150.207 45.2788C148.478 45.2788 146.815 45.0167 145.246 44.5276C147.955 46.425 151.245 47.5478 154.801 47.5478C164.024 47.5478 171.503 40.0522 171.503 30.8079C171.503 23.2927 166.565 16.9355 159.762 14.8191Z" fill="#DFE6F2"/>
<path d="M94.9141 100.439L90.6284 103.201L68.9344 82.8076" fill="#254898"/>
<path d="M111.514 157.271C111.725 157.901 111.936 158.526 112.158 159.164H114.465C113.458 158.53 112.475 157.897 111.514 157.271Z" fill="#4070F4"/>
<path d="M153.002 58.4782C134.446 60.8802 114.407 73.665 107.26 98.6086C111.725 99.301 116.003 101.433 119.336 104.989C121.991 107.826 123.712 111.198 124.508 114.734C128.138 117.797 135.09 122.84 145.464 128.689C153.017 132.945 159.247 135.848 163.809 137.683C164.824 132.253 165.48 124.088 164.454 113.971L206.514 113.615C207.658 129.076 206.557 145.922 201.21 159.16H206.916C224.469 87.5139 184.575 54.3939 153.002 58.4782Z" fill="#4070F4"/>
<path d="M111.514 157.271C111.725 157.901 111.936 158.526 112.158 159.164H114.465C113.458 158.53 112.475 157.897 111.514 157.271Z" fill="#4070F4"/>
<path d="M153.002 58.4782C134.446 60.8802 114.407 73.665 107.26 98.6086C111.725 99.301 116.003 101.433 119.336 104.989C121.991 107.826 123.712 111.198 124.508 114.734C128.138 117.797 135.09 122.84 145.464 128.689C153.017 132.945 159.247 135.848 163.809 137.683C164.824 132.253 165.48 124.088 164.454 113.971L206.514 113.615C207.658 129.076 206.557 145.922 201.21 159.16H206.916C224.469 87.5139 184.575 54.3939 153.002 58.4782Z" fill="#4070F4"/>
<path d="M207.923 168.056H196.44V168.447H207.923V168.056Z" fill="#254898"/>
<path d="M130.144 168.056H83.4426V168.447H130.144V168.056Z" fill="#254898"/>
<path d="M66.9633 168.056H3.95001V168.447H66.9633V168.056Z" fill="#254898"/>
<path d="M109.192 92.6974L101.503 85.3387C97.0179 81.0471 91.4208 78.606 85.3122 78.2774C79.5355 77.9683 73.7588 79.631 69.0476 82.9641L68.8212 82.6433C73.6026 79.2593 79.4692 77.5654 85.3318 77.8822C91.5339 78.2148 97.2209 80.6951 101.772 85.0531L109.461 92.4118L109.192 92.6974Z" fill="#254898"/>
<path d="M20.6752 159.501L20.2888 159.446L29.4613 95.5376C32.3341 87.0523 39.2076 80.7381 47.8532 78.6099C56.5027 76.4856 65.5074 78.8955 71.9477 85.0571L90.765 103.065L90.4957 103.346L71.6784 85.3387C65.3357 79.2672 56.4637 76.8964 47.943 78.9894C39.4262 81.0824 32.6542 87.3026 29.836 95.6276L20.6752 159.501Z" fill="#254898"/>
<path d="M158.189 61.1071C162.552 61.1071 166.089 60.4433 166.089 59.6244C166.089 58.8056 162.552 58.1418 158.189 58.1418C153.826 58.1418 150.289 58.8056 150.289 59.6244C150.289 60.4433 153.826 61.1071 158.189 61.1071Z" fill="#254898"/>
<path d="M114.465 158.969H91.5183V159.359H114.465V158.969Z" fill="#254898"/>
<path d="M33.7315 205.695H18.8134L18.7666 205.573L0 158.969H75.0703V159.36H0.577674L19.0788 205.304H33.7315V205.695Z" fill="#254898"/>
<path d="M194.493 205.695H50.3435V205.304H194.219L210.937 159.36H201.214V158.969H211.491L194.493 205.695Z" fill="#254898"/>
<mask id="path-28-inside-2" fill="white">
<path d="M121.421 107.493L127.502 100.396C129.727 97.8888 133.56 97.658 136.062 99.8879C138.564 102.118 138.794 105.959 136.569 108.467L128.244 117.535"/>
</mask>
<path d="M127.502 100.396L127.128 100.065L127.122 100.071L127.502 100.396ZM136.569 108.467L136.937 108.805L136.943 108.799L136.569 108.467ZM121.8 107.818L127.882 100.722L127.122 100.071L121.041 107.168L121.8 107.818ZM127.876 100.728C129.918 98.4268 133.434 98.2159 135.729 100.261L136.394 99.5146C133.685 97.1 129.536 97.3508 127.128 100.065L127.876 100.728ZM135.729 100.261C138.026 102.308 138.236 105.834 136.195 108.135L136.943 108.799C139.351 106.085 139.102 101.927 136.394 99.5146L135.729 100.261ZM136.201 108.129L127.875 117.197L128.612 117.874L136.937 108.805L136.201 108.129Z" fill="#254898" mask="url(#path-28-inside-2)"/>
<path d="M124.489 114.582C125.488 115.423 126.55 116.342 128.052 117.457L130.781 114.488C126.483 113.138 124.2 104.539 124.2 104.539L121.53 107.661C123.009 109.86 123.927 112.094 124.489 114.582Z" fill="#254898"/>
<path d="M171.124 26.305C169.297 19.0481 162.607 13.6767 154.801 13.6767C146.991 13.6767 140.437 19.0481 138.607 26.305H171.124Z" fill="#4070F4"/>
<path d="M131.436 18.4612H93.708V38.0022H131.436V18.4612Z" fill="#2BD67B"/>
<path d="M93.8603 38.0487C99.2452 38.0487 103.611 33.6735 103.611 28.2763C103.611 22.8791 99.2452 18.5038 93.8603 18.5038C88.4754 18.5038 84.1101 22.8791 84.1101 28.2763C84.1101 33.6735 88.4754 38.0487 93.8603 38.0487Z" fill="white"/>
<path d="M93.8603 38.2448C88.3763 38.2448 83.9149 33.7732 83.9149 28.2806C83.9149 22.788 88.3763 18.3126 93.8603 18.3126C99.3443 18.3126 103.806 22.7841 103.806 28.2806C103.806 33.7772 99.3443 38.2448 93.8603 38.2448ZM93.8603 18.7038C88.591 18.7038 84.3052 22.9993 84.3052 28.2806C84.3052 33.562 88.591 37.8536 93.8603 37.8536C99.1296 37.8536 103.415 33.5581 103.415 28.2806C103.415 22.9993 99.1296 18.7038 93.8603 18.7038Z" fill="#0C152E"/>
<path d="M142.139 38.0022H118.462V18.4612H142.143C147.525 18.4612 151.893 22.835 151.893 28.2337C151.889 33.6285 147.525 38.0022 142.139 38.0022Z" fill="#2BD67B"/>
<path d="M93.8603 31.2069C92.2482 31.2069 90.9368 29.8924 90.9368 28.2767C90.9368 26.661 92.2482 25.3466 93.8603 25.3466C95.4723 25.3466 96.7838 26.661 96.7838 28.2767C96.7838 29.8924 95.4723 31.2069 93.8603 31.2069Z" fill="#0C152E"/>
<path d="M212.623 224.496L207.646 217.146L213.283 213.312L218.259 220.666L212.623 224.496ZM208.185 217.247L212.724 223.953L217.713 220.561L213.173 213.855L208.185 217.247Z" fill="#254898"/>
<path d="M205.433 238.24L205.207 237.919L208.728 235.427C209.676 234.781 210.211 233.647 210.125 232.469C209.945 230.052 210.991 227.626 212.006 225.287C212.155 224.938 212.307 224.594 212.451 224.246L207.822 217.408C204.473 217.971 201.874 217.67 199.403 216.441C198.365 215.925 197.127 216.007 196.171 216.656L168.884 235.212C168.61 235.399 168.372 235.626 168.177 235.888L167.865 235.654C168.087 235.356 168.357 235.098 168.665 234.887L195.952 216.332C197.026 215.604 198.411 215.51 199.575 216.089C201.995 217.294 204.559 217.576 207.877 217.001L208.002 216.981L212.888 224.203L212.849 224.301C212.689 224.68 212.525 225.06 212.361 225.443C211.366 227.743 210.34 230.122 210.511 232.442C210.609 233.76 210.012 235.028 208.95 235.751L205.433 238.24Z" fill="#254898"/>
<path d="M218.942 221.539C218.603 221.539 218.271 221.374 218.064 221.073L212.697 213.147C212.537 212.913 212.478 212.631 212.533 212.353C212.588 212.075 212.744 211.833 212.978 211.676C213.462 211.348 214.122 211.477 214.45 211.958L219.817 219.884C220.144 220.369 220.019 221.03 219.535 221.359C219.352 221.48 219.145 221.539 218.942 221.539ZM218.388 220.854C218.595 221.159 219.012 221.241 219.317 221.034C219.621 220.827 219.703 220.408 219.496 220.103L214.13 212.177C213.923 211.872 213.505 211.794 213.201 211.997C213.052 212.099 212.955 212.248 212.92 212.424C212.884 212.6 212.923 212.78 213.021 212.924L218.388 220.854Z" fill="#254898"/>
<path d="M201.487 159.16C204.668 159.109 207.233 159.066 207.233 159.066C207.233 159.066 210.679 145.511 211.214 128.791L207.053 128.536C206.721 139.377 205.16 150.108 201.487 159.16Z" fill="#254898"/>
<path d="M162.892 125.637L164.411 105.001C160.343 113.565 156.714 123.153 153.068 132.761C157.272 134.889 160.886 136.509 163.81 137.687C164.395 134.569 164.856 130.547 164.949 125.778L162.892 125.637Z" fill="#254898"/>
<path d="M117.646 37.8727C123.031 37.8727 127.397 33.4974 127.397 28.1002C127.397 22.7031 123.031 18.3278 117.646 18.3278C112.261 18.3278 107.896 22.7031 107.896 28.1002C107.896 33.4974 112.261 37.8727 117.646 37.8727Z" fill="white"/>
<path d="M117.646 38.0687C112.162 38.0687 107.701 33.5972 107.701 28.1046C107.701 22.612 112.162 18.1365 117.646 18.1365C123.13 18.1365 127.592 22.6081 127.592 28.1046C127.592 33.6011 123.13 38.0687 117.646 38.0687ZM117.646 18.5277C112.377 18.5277 108.091 22.8232 108.091 28.1046C108.091 33.3859 112.377 37.6775 117.646 37.6775C122.916 37.6775 127.201 33.382 127.201 28.1046C127.201 22.8232 122.916 18.5277 117.646 18.5277Z" fill="#0C152E"/>
<path d="M117.646 31.0348C116.034 31.0348 114.723 29.7203 114.723 28.1046C114.723 26.4889 116.034 25.1744 117.646 25.1744C119.258 25.1744 120.57 26.4889 120.57 28.1046C120.574 29.7164 119.262 31.0348 117.646 31.0348Z" fill="#0C152E"/>
<path d="M176.909 240C173.708 240 170.699 238.752 168.439 236.483L167.826 235.869C167.818 235.865 167.814 235.857 167.81 235.849C163.29 231.335 155.948 231.343 151.436 235.865L150.824 236.479C150.746 236.557 150.625 236.557 150.546 236.479C150.468 236.401 150.468 236.28 150.546 236.201L151.159 235.587C155.831 230.904 163.431 230.904 168.103 235.587C168.111 235.595 168.115 235.599 168.119 235.607L168.716 236.205C170.906 238.4 173.817 239.609 176.913 239.609C180.008 239.609 182.92 238.4 185.109 236.205L185.722 235.595C187.986 233.326 190.991 232.078 194.192 232.078C197.393 232.078 200.402 233.326 202.662 235.595C202.666 235.599 202.674 235.607 202.678 235.611L203.275 236.209C207.795 240.739 215.148 240.739 219.664 236.209C219.742 236.131 219.863 236.131 219.941 236.209C220.02 236.287 220.02 236.409 219.941 236.487C215.269 241.17 207.67 241.17 202.998 236.487L202.385 235.873C202.381 235.869 202.373 235.861 202.369 235.857C200.183 233.674 197.276 232.469 194.188 232.469C191.093 232.469 188.181 233.678 185.991 235.873L185.379 236.483C183.115 238.752 180.109 240 176.909 240Z" fill="#254898"/>
<path d="M35.2836 216.413L34.6713 217.023L34.6709 217.024C31.1621 220.537 25.9608 221.312 21.7042 219.356L67.1459 168.418L92.323 140.2L100.96 148.643L83.0547 168.314L83.0528 168.317L43.445 212.888C40.4811 212.974 37.5439 214.148 35.2838 216.413C35.2837 216.413 35.2836 216.413 35.2836 216.413Z" stroke="#254898" stroke-width="0.5"/>
<path d="M26.5144 220.846C23.4465 220.846 20.3786 219.677 18.0445 217.333L17.4317 216.719C17.4278 216.715 17.42 216.707 17.4161 216.703C15.2303 214.52 12.3263 213.316 9.23498 213.316C6.13974 213.316 3.22796 214.524 1.03826 216.719L0.425458 217.333C0.347394 217.412 0.226395 217.412 0.148331 217.333C0.0702667 217.255 0.0702667 217.134 0.148331 217.056L0.761133 216.441C3.02499 214.172 6.03436 212.924 9.23108 212.924C12.4317 212.924 15.4411 214.172 17.701 216.441C17.7049 216.445 17.7127 216.453 17.7166 216.457L18.3138 217.056C22.8337 221.586 30.1874 221.586 34.7034 217.056L35.3162 216.441C39.9883 211.759 47.5878 211.759 52.26 216.441C52.2678 216.449 52.2717 216.453 52.2756 216.461L52.8728 217.059C52.9508 217.138 52.9508 217.259 52.8728 217.337C52.7947 217.415 52.6737 217.415 52.5956 217.337L51.9828 216.723C51.975 216.719 51.9711 216.711 51.9672 216.703C47.4473 212.189 40.1054 212.197 35.5933 216.719L34.9805 217.333C32.6503 219.677 29.5824 220.846 26.5144 220.846Z" fill="#254898"/>
<path d="M206.514 113.619C207.986 133.508 205.745 155.698 195.523 169.546C190.105 176.89 182.588 181.373 174.364 182.175C163.158 183.266 146.366 177.531 124.454 165.122C102.537 152.709 89.1491 141.379 84.6604 131.454C80.2888 121.787 82.2561 111.033 89.6682 104.058C98.1187 96.1044 111.401 96.527 119.336 104.997C121.991 107.833 123.712 111.205 124.508 114.742C128.138 117.805 135.09 122.848 145.464 128.696C153.017 132.953 159.247 135.855 163.81 137.69C164.824 132.26 165.48 124.096 164.454 113.979" fill="white"/>
<path d="M206.436 133.082C191.874 133.239 177.213 133.747 163.81 138L165.152 125.786L206.678 128.513L206.436 133.082Z" fill="#DFE6F2"/>
<path d="M164.762 100.24L162.896 125.641L211.214 128.814C211.214 128.814 212.67 98.8981 199.254 81.544C195.078 76.1414 166.593 78.8603 164.762 100.24Z" fill="#4070F4"/>
</g>
<defs>
<clipPath id="clip0">
<rect width="220" height="240" fill="white"/>
</clipPath>
</defs>
</svg>
