<svg xmlns="http://www.w3.org/2000/svg" viewBox="0 0 327.65 226.89"><title>Asset 13</title><g id="Layer_2" data-name="Layer 2"><g id="Layer_1-2" data-name="Layer 1"><rect x="144.61" y="50.7" width="42.59" height="4.94" fill="#4070f4"/><rect x="222.83" y="50.7" width="42.59" height="4.94" fill="#c5cfe4"/><polyline points="301.61 112.16 318.93 112.16 318.93 58.35 91.11 58.35 91.11 99.66 117.72 99.66" fill="none" stroke="#254898" stroke-miterlimit="10"/><line x1="118.9" y1="112.16" x2="228.67" y2="112.16" fill="none" stroke="#254898" stroke-miterlimit="10"/><polygon points="259.71 67.38 259.71 81.13 237.72 103.12 132.35 103.12 132.35 67.38 259.71 67.38" fill="#edf0f5"/><polygon points="132.35 101.77 239.07 101.77 237.72 103.12 132.35 103.12 132.35 101.77" fill="#c5cfe4"/><polygon points="259.71 67.38 259.71 81.13 258.36 82.48 258.36 67.38 259.71 67.38" fill="#c5cfe4"/><polygon points="250.28 88.01 250.28 90.55 245.33 95.51 141.77 95.51 141.77 88.01 250.28 88.01" fill="#fff"/><path d="M146.14,110.49H310a26.25,26.25,0,0,1,26.25,26.25v0A26.25,26.25,0,0,1,310,163H146.14a0,0,0,0,1,0,0V110.49a0,0,0,0,1,0,0Z" transform="translate(-26.04 210.61) rotate(-45)" fill="none" stroke="#254898" stroke-miterlimit="10"/><circle cx="289.92" cy="88.83" r="14.3" fill="#254898"/><line x1="121.37" y1="149.66" x2="117.25" y2="100.43" fill="none" stroke="#254898" stroke-linejoin="round"/><circle cx="75.73" cy="16.64" r="16.14" fill="#fff" stroke="#fff" stroke-linejoin="round"/><path d="M131.27,88.33c-6.79,0-17-4.29-36-13.33-2.5-1.19-5.54-2.63-6.86-3.2a11.68,11.68,0,0,1,.21-22.68c4.42-1,6.54,0,16.69,4.79,5.3,2.52,18.32,8.72,24.33,10.58,3-2.69,8.18-8.73,11.46-12.58C151.24,40,157.93,32.12,166.75,32.12a11.68,11.68,0,0,1,3.1,23c-2.47,2-7.52,7.94-11,12C147.32,80.64,140.34,88.33,131.27,88.33ZM94,71.85Z" fill="#fff"/><path d="M49.31,104.26a113.46,113.46,0,0,0,52.44-.11l16-3.83V85H32.61v15.32Z" fill="#05dd8f"/><path d="M32.61,101.44v19.37H44.27A44.36,44.36,0,0,1,32.61,101.44Z" fill="#05dd8f"/><polyline points="37.04 96.52 28.56 149.66 82.13 149.66" fill="none" stroke="#254898" stroke-linejoin="round"/><path d="M82.77,52.87c5-1.4,7.46-.34,19.26,4.7,6.18,2.64,21.32,9.12,28.27,11,3.34-3.21,8.93-10.33,12.49-14.88,7.52-9.59,13.3-16.95,19.41-20.79-6.77,2.21-12.78,9.25-21.1,19-3.28,3.85-8.42,9.89-11.46,12.58-6-1.86-19-8.06-24.33-10.58C95.16,49.08,93,48.07,88.62,49.12A11.54,11.54,0,0,0,82.35,53Z" fill="#edf0f5"/><polyline points="91.02 45.33 122.39 61.14 121.03 89.18 112.02 88.02" fill="#05dd8f"/><path d="M117.71,85c0-.06,0-.11,0-.17a42.56,42.56,0,0,0-85.11,0V85Z" fill="#05dd8f"/><polygon points="58.91 85 32.61 85 32.61 100.32 43.34 102.85 45.31 97.59 58.91 85" fill="#254898"/><polygon points="64.57 79.76 58.91 85 62.65 85 64.57 79.76" fill="#254898"/><path d="M62.64,85H58.91L45.31,97.59l-2,5.26,6,1.41q2.91.67,5.83,1.2l1.58-4.31Z" fill="#254898"/><path d="M117.72,88.76,112,88,91.61,46.53A44.59,44.59,0,0,0,32.8,80.87c-.12,1.3-.19,2.62-.19,4V95.16l4,34h81.08Z" fill="none"/><path d="M91,45.33h0l.08,0Z" fill="#05dd8f"/><path d="M117.71,85c0-.06,0-.11,0-.17A42.5,42.5,0,0,0,102.29,52a44.48,44.48,0,0,0-10.68-5.51L112,88l5.7.74V85Z" fill="#05dd8f"/><path d="M121,83.3a1,1,0,0,1,0,.17h0l.21,1.82,1.18-24.15L97.33,48.51a44.15,44.15,0,0,1,5,3.53A44.47,44.47,0,0,1,121,83.3Z" fill="#05dd8f"/><path d="M32.61,84.83c0-1.34.07-2.66.19-4a44.14,44.14,0,0,0-.35,12.91,1.1,1.1,0,0,0,0,.18l.14,1.2V84.83Z" fill="#254898"/><path d="M121,83.47a1,1,0,0,0,0-.17A44.47,44.47,0,0,0,102.29,52a42.5,42.5,0,0,1,15.43,32.79c0,.06,0,.11,0,.17h0v3.76l3.31.42.18-3.89L121,83.47Z" fill="#254898"/><polygon points="32.61 129.16 36.64 129.16 32.61 95.16 32.61 129.16" fill="#05dd8f"/><path d="M71.47,44.28a44.19,44.19,0,0,1,20.14,2.25L91,45.34A42.57,42.57,0,0,0,32.8,80.87,44.58,44.58,0,0,1,71.47,44.28Z" fill="#05dd8f"/><path d="M91.11,45.37l6.22,3.14A43.14,43.14,0,0,0,91.11,45.37Z" fill="#05dd8f"/><path d="M102.29,52a44.15,44.15,0,0,0-5-3.53l-6.22-3.14-.08,0,.58,1.19A44.48,44.48,0,0,1,102.29,52Z" fill="#05dd8f"/><path d="M72.53.23a16.74,16.74,0,0,0,8.25,31.31,16.92,16.92,0,0,0,3.35-.34,16.74,16.74,0,1,1-11.6-31Z" fill="#edf0f5"/><ellipse cx="74.71" cy="43.57" rx="9.01" ry="1.76" fill="#254898"/><path d="M45.66,154.12a11.22,11.22,0,0,1-1.15-.06A11.67,11.67,0,0,1,34,142.52c-.68-2.76-4.26-10.37-6.44-15-5.16-11-7.86-17-7.86-22.07,0-4.27,1.68-9.69,10.3-24.73,4.46-7.78,8.84-14.71,9-15a11.68,11.68,0,1,1,19.73,12.5c-6.22,9.84-13.38,22.35-15.39,27.37,1,2.83,3.56,8.21,5.33,12,6.07,12.88,9.2,19.89,8.61,26A11.69,11.69,0,0,1,45.66,154.12Z" fill="#fff"/><path d="M55.11,62.11a11.09,11.09,0,0,0-2.81-1.28,11.67,11.67,0,0,1,3,15.65C49,86.32,41.88,98.83,39.87,103.86c1,2.83,3.56,8.21,5.34,12,6.06,12.88,9.2,19.89,8.6,26A11.68,11.68,0,0,1,42.2,152.37a11.07,11.07,0,0,1-1.15-.06,11.43,11.43,0,0,1-2.3-.46,11.59,11.59,0,0,0,5.76,2.21,11.22,11.22,0,0,0,1.15.06,11.69,11.69,0,0,0,11.62-10.55c.59-6.1-2.54-13.11-8.61-26-1.77-3.77-4.3-9.15-5.33-12,2-5,9.17-17.53,15.39-27.37A11.68,11.68,0,0,0,55.11,62.11Z" fill="#edf0f5"/><polyline points="45.65 54.35 23.89 81.49 49.59 98.95 70.83 69.49" fill="#05dd8f"/><line x1="54.84" y1="149.66" x2="173.82" y2="149.66" fill="none" stroke="#254898" stroke-linejoin="round"/><line x1="11.09" y1="149.66" x2="36.37" y2="149.66" fill="none" stroke="#254898" stroke-linejoin="round"/><path d="M316.12,88.07a26.13,26.13,0,0,1-7.69,18.56L192.55,222.52l-2.74-2.73L308.4,101.2a26.21,26.21,0,0,0,7.56-16A24.28,24.28,0,0,1,316.12,88.07Z" fill="#254898"/><line x1="82.13" y1="149.66" x2="87.23" y2="149.66" fill="#254898"/><polyline points="83.72 149.66 79.74 134.46 78.62 149.66" fill="#254898"/><rect width="327.65" height="226.89" fill="#020202" opacity="0"/></g></g></svg>