<svg width="189" height="131" viewBox="0 0 189 131" fill="none" xmlns="http://www.w3.org/2000/svg">
<g clip-path="url(#clip0)">
<path d="M107.983 29.2729H83.4161V32.1252H107.983V29.2729Z" fill="#4070F4"/>
<path d="M153.104 29.2729H128.536V32.1252H153.104V29.2729Z" fill="#9999A0"/>
<path d="M173.979 64.7579H183.97V33.6895H52.5555V57.5407H67.905" stroke="#9999A0" stroke-miterlimit="10"/>
<path d="M68.5857 64.7583H131.905" stroke="#9999A0" stroke-miterlimit="10"/>
<path d="M149.81 38.9033V46.8422L137.125 59.5386H76.3441V38.9033H149.81Z" fill="#254898"/>
<path d="M76.3441 58.7593H137.904L137.125 59.5392H76.3441V58.7593Z" fill="#1C1C1E"/>
<path d="M149.81 38.9033V46.8422L149.031 47.6216V38.9033H149.81Z" fill="#1C1C1E"/>
<path d="M144.37 50.8145V52.281L141.515 55.1447H81.7779V50.8145H144.37Z" fill="#0C152E"/>
<path d="M89.6545 107.046L156.49 40.1478C159.33 37.3055 163.181 35.7087 167.197 35.7087C171.213 35.7087 175.065 37.3055 177.904 40.1478C179.311 41.555 180.427 43.2258 181.189 45.0648C181.951 46.9039 182.343 48.8751 182.343 50.8659C182.344 52.8567 181.952 54.8281 181.191 56.6674C180.43 58.5068 179.315 60.178 177.908 61.5857L111.072 128.484L89.6545 107.046Z" stroke="#9999A0" stroke-miterlimit="10"/>
<path d="M167.236 59.5441C171.792 59.5441 175.485 55.8476 175.485 51.2877C175.485 46.7278 171.792 43.0312 167.236 43.0312C162.68 43.0312 158.987 46.7278 158.987 51.2877C158.987 55.8476 162.68 59.5441 167.236 59.5441Z" fill="#9999A0"/>
<path d="M70.0105 86.4099L67.6339 57.9858" stroke="#9999A0" stroke-linejoin="round"/>
<path d="M43.6837 18.9266C48.8255 18.9266 52.9938 14.7545 52.9938 9.60785C52.9938 4.46123 48.8255 0.289062 43.6837 0.289062C38.5419 0.289062 34.3736 4.46123 34.3736 9.60785C34.3736 14.7545 38.5419 18.9266 43.6837 18.9266Z" fill="white" stroke="white" stroke-linejoin="round"/>
<path d="M75.7211 50.9994C71.8044 50.9994 65.9149 48.5224 54.9551 43.303C53.513 42.6159 51.7594 41.7845 50.998 41.4554C49.5388 41.081 48.2471 40.2279 47.3292 39.0325C46.4113 37.837 45.92 36.3682 45.934 34.8605C45.9479 33.3528 46.4662 31.8933 47.4061 30.7151C48.346 29.5369 49.6533 28.7079 51.1191 28.3606C53.6687 27.7832 54.8916 28.3606 60.7465 31.1262C63.8037 32.5812 71.3141 36.1609 74.7809 37.2348C76.5114 35.6817 79.4994 32.1944 81.3914 29.9715C87.2405 23.095 91.0996 18.5453 96.1872 18.5453C97.8409 18.5125 99.4489 19.0896 100.705 20.1669C101.961 21.2441 102.777 22.7462 102.998 24.3869C103.219 26.0276 102.829 27.6923 101.903 29.0639C100.977 30.4356 99.5788 31.4183 97.9754 31.8248C96.5507 32.9796 93.6376 36.4092 91.6302 38.7533C84.9793 46.5594 80.953 50.9994 75.7211 50.9994Z" fill="white"/>
<path d="M28.4437 60.1969C38.3934 62.5403 48.7532 62.5185 58.693 60.1333L67.9223 57.922V49.0767H18.8106V57.922L28.4437 60.1969Z" fill="#05DD8F"/>
<path d="M18.8106 58.5688V69.7525H25.5365C22.3671 66.6687 20.0499 62.8156 18.8106 58.5688Z" fill="#05DD8F"/>
<path d="M21.366 55.728L16.4744 86.4096H47.3755" stroke="#9999A0" stroke-linejoin="round"/>
<path d="M47.7446 30.5257C50.6288 29.7174 52.0478 30.3294 58.8545 33.2394C62.4193 34.7636 71.1526 38.505 75.1616 39.5905C77.0882 37.7371 80.3127 33.6262 82.3663 30.9992C86.7041 25.4622 90.0382 21.2127 93.5626 18.9956C89.6575 20.2716 86.1907 24.3363 81.3914 29.9657C79.4994 32.1886 76.5345 35.6759 74.7809 37.229C71.3199 36.1551 63.821 32.5754 60.7465 31.1204C54.8916 28.3375 53.6457 27.7543 51.1191 28.3606C49.7012 28.6913 48.4308 29.4783 47.5024 30.6008L47.7446 30.5257Z" fill="#EDF0F5"/>
<path d="M52.5035 26.1724L70.5989 35.3006L69.8144 51.4901L64.6171 50.8204" fill="#05DD8F"/>
<path d="M67.8992 49.0767C67.8992 49.042 67.8992 49.0132 67.8992 48.9785C67.8004 42.5274 65.1707 36.3739 60.578 31.8468C55.9853 27.3197 49.7979 24.7822 43.352 24.7822C36.9061 24.7822 30.7188 27.3197 26.126 31.8468C21.5333 36.3739 18.9036 42.5274 18.8048 48.9785V49.0767H67.8992Z" fill="#05DD8F"/>
<path d="M33.9813 49.0767H18.8106V57.922L25 59.3828L26.1364 56.3458L33.9813 49.0767Z" fill="#254898"/>
<path d="M37.2462 46.0513L33.9814 49.0767H36.1387L37.2462 46.0513Z" fill="#22A961"/>
<path d="M36.1329 49.0767H33.9814L26.1364 56.3458L24.9827 59.3828L28.4437 60.1969C29.5628 60.4548 30.6838 60.6857 31.8067 60.8897L32.7181 58.4012L36.1329 49.0767Z" fill="#22A961"/>
<path d="M67.8993 49.0769C67.8993 49.0422 67.8993 49.0134 67.8993 48.9787C67.9056 45.3581 67.1114 41.7809 65.5735 38.5037C64.0357 35.2265 61.7924 32.3306 59.0045 30.0236C57.1042 28.6891 55.0317 27.6189 52.8439 26.8423L64.6055 50.809L67.8935 51.2363V49.0769H67.8993Z" fill="#05DD8F"/>
<path d="M69.7971 48.0951C69.7998 48.1277 69.7998 48.1606 69.7971 48.1932L69.9182 49.2441L70.5989 35.3005L56.1434 28.0083C57.1507 28.6201 58.1144 29.3011 59.0275 30.0464C61.9933 32.1239 64.4862 34.8062 66.3424 37.9169C68.1985 41.0277 69.3759 44.4964 69.7971 48.0951Z" fill="#05DD8F"/>
<path d="M18.8106 48.9784C18.8106 48.2048 18.851 47.4426 18.9202 46.6689C18.4882 49.1302 18.4201 51.6417 18.7183 54.1228C18.7155 54.1574 18.7155 54.1922 18.7183 54.2268L18.7991 54.9196V48.9784H18.8106Z" fill="#254898"/>
<path d="M69.797 48.1933C69.7998 48.1607 69.7998 48.1279 69.797 48.0952C69.3763 44.4906 68.1968 41.0162 66.3365 37.9011C64.4762 34.7861 61.9772 32.1012 59.0045 30.0234C61.7904 32.3274 64.033 35.2194 65.5718 38.4923C67.1105 41.7653 67.9072 45.3383 67.905 48.9555C67.905 48.9901 67.905 49.019 67.905 49.0536V51.2246L69.8143 51.4671L69.9182 49.2211L69.797 48.1933Z" fill="#22A961"/>
<path d="M18.8106 74.5735H21.1352L18.8106 54.9429V74.5735Z" fill="#05DD8F"/>
<path d="M41.2264 25.5661C45.1472 25.0925 49.1242 25.5373 52.8439 26.8652L52.492 26.1781C48.947 24.758 45.12 24.185 41.315 24.5045C37.51 24.824 33.8319 26.0273 30.5728 28.0187C27.3137 30.0102 24.5636 32.7349 22.5408 35.9765C20.518 39.218 19.2783 42.8871 18.9202 46.6922C19.8733 41.2377 22.5584 36.2363 26.5768 32.4305C30.5952 28.6247 35.7327 26.2174 41.2264 25.5661Z" fill="#05DD8F"/>
<path d="M52.5555 26.1953L56.1434 28.0083C54.9982 27.3081 53.7983 26.7018 52.5555 26.1953Z" fill="#05DD8F"/>
<path d="M59.0044 30.0234C58.0913 29.2781 57.1276 28.5971 56.1203 27.9853L52.5324 26.1724H52.4862L52.8208 26.8594C55.0157 27.6287 57.096 28.6931 59.0044 30.0234Z" fill="#05DD8F"/>
<path d="M41.8378 0.133044C39.9811 1.18444 38.5245 2.82165 37.6954 4.78905C36.8663 6.75644 36.7115 8.94326 37.255 11.008C37.7986 13.0728 39.0099 14.8993 40.6999 16.2023C42.39 17.5053 44.4635 18.2115 46.5967 18.2106C47.2458 18.2096 47.8931 18.1439 48.5291 18.0143C47.3146 18.6927 45.968 19.1005 44.5815 19.2098C43.1949 19.3191 41.8011 19.1273 40.4955 18.6475C39.1899 18.1677 38.0032 17.4112 37.0167 16.4299C36.0302 15.4486 35.2671 14.2655 34.7796 12.9617C34.2922 11.6578 34.0919 10.264 34.1925 8.87548C34.2931 7.48699 34.6921 6.13663 35.3624 4.91679C36.0326 3.69696 36.9582 2.63645 38.0758 1.80781C39.1934 0.979179 40.4767 0.401985 41.8378 0.115723V0.133044Z" fill="#EDF0F5"/>
<path d="M43.0954 26.1725C45.9657 26.1725 48.2926 25.7175 48.2926 25.1563C48.2926 24.5951 45.9657 24.1401 43.0954 24.1401C40.225 24.1401 37.8981 24.5951 37.8981 25.1563C37.8981 25.7175 40.225 26.1725 43.0954 26.1725Z" fill="#22A961"/>
<path d="M26.3383 88.9844C26.1167 88.9842 25.8953 88.9726 25.6749 88.9497C24.0208 88.7844 22.4863 88.0122 21.367 86.7821C20.2477 85.5519 19.6227 83.9507 19.6124 82.2868C19.2201 80.6933 17.1551 76.2995 15.8976 73.6263C12.9211 67.2752 11.3636 63.8109 11.3636 60.8837C11.3636 58.4183 12.3327 55.2889 17.305 46.6052C19.8777 42.1133 22.4043 38.1121 22.4966 37.9447C22.9621 37.1799 23.5751 36.5157 24.2999 35.9906C25.0247 35.4656 25.8467 35.0903 26.7179 34.8866C27.5892 34.683 28.4922 34.6551 29.3744 34.8045C30.2565 34.954 31.1001 35.2778 31.8558 35.757C32.6116 36.2363 33.2644 36.8614 33.7762 37.5959C34.288 38.3305 34.6486 39.1597 34.8368 40.0351C35.0249 40.9106 35.0371 41.8148 34.8724 42.6951C34.7077 43.5753 34.3695 44.4138 33.8775 45.1618C30.2896 50.8432 26.1595 58.0661 25 60.9645C25.5769 62.5985 27.0536 65.7047 28.0746 67.893C31.5759 75.3295 33.3814 79.3769 33.0411 82.9046C32.8753 84.5693 32.0977 86.113 30.8592 87.2363C29.6208 88.3596 28.0096 88.9826 26.3383 88.9844Z" fill="white"/>
<path d="M31.7894 35.8606C31.2861 35.5398 30.7406 35.2911 30.1685 35.1216C31.5474 36.1277 32.4931 37.6204 32.8143 39.2979C33.1356 40.9753 32.8084 42.7123 31.899 44.1575C28.2649 49.8388 24.1578 57.0617 22.9984 59.9659C23.5752 61.5999 25.0519 64.7061 26.0787 66.8944C29.5743 74.3309 31.3856 78.3783 31.0395 81.9061C30.8723 83.5681 30.0948 85.109 28.8575 86.23C27.6203 87.3511 26.0114 87.9726 24.3424 87.9743C24.1209 87.9742 23.8994 87.9627 23.6791 87.9396C23.2289 87.8969 22.7843 87.8079 22.3524 87.674C23.3244 88.392 24.4726 88.833 25.6749 88.95C25.8953 88.9729 26.1167 88.9845 26.3383 88.9847C28.0114 88.9826 29.6241 88.358 30.8628 87.2323C32.1016 86.1066 32.8779 84.5601 33.0411 82.8934C33.3814 79.3714 31.5759 75.324 28.0746 67.8817C27.0536 65.705 25.5942 62.5987 25 60.9532C26.1537 58.0664 30.2896 50.8319 33.8775 45.1505C34.8286 43.6407 35.1428 41.815 34.7514 40.0737C34.36 38.3323 33.2948 36.8173 31.7894 35.8606Z" fill="#EDF0F5"/>
<path d="M26.3325 31.3804L13.7806 47.0503L28.6052 57.1312L40.8572 40.1218" fill="#05DD8F"/>
<path d="M31.6336 86.4097H100.265" stroke="#9999A0" stroke-linejoin="round"/>
<path d="M6.39709 86.4097H20.9795" stroke="#9999A0" stroke-linejoin="round"/>
<path d="M182.349 50.8494C182.353 52.8402 181.963 54.812 181.201 56.6512C180.44 58.4904 179.322 60.1606 177.913 61.5655L111.07 128.477L109.489 126.901L177.896 58.4303C180.376 55.9502 181.917 52.6846 182.257 49.1924C182.32 49.7424 182.351 50.2958 182.349 50.8494Z" fill="#9999A0"/>
<path d="M48.2926 86.4094L45.9968 77.6333L45.3508 86.4094" fill="#9999A0"/>
</g>
<defs>
<clipPath id="clip0">
<rect width="189" height="131" fill="white"/>
</clipPath>
</defs>
</svg>
