<svg width="139" height="152" viewBox="0 0 139 152" fill="none" xmlns="http://www.w3.org/2000/svg">
<g clip-path="url(#clip0)">
<path d="M38.9095 100.946L38.5915 100.919L39.1387 94.0591L41.5736 100.681L41.2729 100.792L39.3432 95.5416L38.9095 100.946Z" fill="#9999A0"/>
<path d="M84.5815 20.8195C86.9714 20.2257 89.0776 18.8054 90.5316 16.8071C91.9855 14.8089 92.6947 12.36 92.5349 9.88891C92.3751 7.41783 91.3565 5.08197 89.6575 3.29005C87.9584 1.49813 85.687 0.364281 83.2408 0.0869068C78.886 -0.40891 72.9762 0.830633 62.1718 13.7541C47.0645 31.8316 49.2973 39.4944 50.0317 42.0156C50.6725 44.2096 52.6466 47.0804 54.7266 49.3364L54.8769 49.443C58.3927 49.8415 61.6795 51.3961 64.2272 53.8656L69.0847 58.5288L69.171 59.6717L71.1426 61.0748L89.3946 48.4811C88.9461 48.248 82.8169 42.4619 82.3758 42.2239C78.6667 40.2406 74.1369 37.6822 71.9066 36.1724C73.3762 33.7065 75.0124 31.345 76.8035 29.1046C80.3007 24.6571 83.226 21.8855 84.5815 20.8195Z" fill="#DFE6F2"/>
<path d="M79.6106 40.7559C79.6106 40.7559 69.9005 50.6152 67.2881 56.803L70.7384 59.9464C70.7384 59.9464 86.1637 43.6812 85.9739 43.6812C85.7841 43.6812 79.6106 40.7559 79.6106 40.7559Z" fill="#C5CFE4"/>
<path d="M79.8077 25.5074L57.2453 25.3884C56.9076 25.3866 56.5758 25.299 56.2808 25.1337C55.9858 24.9683 55.7371 24.7306 55.5578 24.4427C55.3786 24.1548 55.2746 23.826 55.2555 23.4868C55.2364 23.1476 55.3029 22.8091 55.4487 22.5026L82.6148 22.4258L79.8077 25.5074Z" fill="#C5CFE4"/>
<path d="M34.0988 130.1L60.4196 100.737H65.8267L40.8194 130.1H34.0988Z" fill="#9999A0"/>
<path d="M134.342 141.972L137.684 139.741L135.959 137.51L132.802 139.669C132.08 141.404 131.2 143.123 131.323 144.855C131.355 145.239 131.286 145.625 131.122 145.973C130.959 146.321 130.707 146.62 130.392 146.839L127.503 148.792L129.706 150.743L131.924 149.164C132.24 148.946 132.493 148.647 132.657 148.299C132.821 147.951 132.891 147.565 132.859 147.181C132.723 145.443 133.603 143.708 134.342 141.972Z" fill="#9999A0"/>
<path d="M106.567 17.817C107.166 17.723 107.779 17.7662 108.359 17.9434C109.354 18.2435 110.213 18.8837 110.789 19.7533C111.125 20.2612 111.343 20.8394 111.425 21.4441C110.826 21.5414 110.213 21.499 109.633 21.3202C109.139 21.1724 108.675 20.9373 108.263 20.626C107.848 20.3171 107.491 19.9379 107.206 19.5053C106.871 18.9972 106.653 18.4205 106.567 17.817Z" fill="#4070F4"/>
<path d="M108.711 20.9285C108.984 20.0795 109.154 19.2004 109.217 18.3104C109.217 18.3104 108.356 17.6782 108.039 17.7674C107.721 17.8567 107.76 20.3434 107.76 20.3434L108.711 20.9285Z" fill="#254898"/>
<path d="M111.915 15.6085C111.41 15.506 110.89 15.4935 110.38 15.5713C110.069 15.6223 109.764 15.7054 109.47 15.8192C109.753 16.5475 109.959 17.3037 110.084 18.0754C110.303 18.0768 110.523 18.0619 110.74 18.0307C111.251 17.9542 111.746 17.7862 112.199 17.5349C112.734 17.2472 113.197 16.8412 113.554 16.3473C113.07 15.9807 112.51 15.7282 111.915 15.6085Z" fill="#4070F4"/>
<path d="M108.933 16.0569C108.399 16.3451 107.936 16.75 107.578 17.242C108.061 17.6108 108.622 17.8651 109.217 17.9858C109.505 18.0449 109.799 18.074 110.094 18.0725C109.969 17.3009 109.763 16.5447 109.48 15.8164C109.293 15.8842 109.11 15.9646 108.933 16.0569Z" fill="#254898"/>
<path d="M92.4284 10.2656C94.7151 8.90401 97.4282 8.46035 100.026 9.02318C102.624 9.58602 104.915 11.1139 106.441 13.3017C107.968 15.4895 108.618 18.1761 108.261 20.8249C107.905 23.4737 106.568 25.8897 104.518 27.5904C102.468 29.291 99.8556 30.1511 97.2026 29.9988C94.5497 29.8465 92.0515 28.6931 90.2071 26.7689C88.3627 24.8447 87.3078 22.2914 87.2531 19.619C87.1984 16.9466 88.148 14.3518 89.9122 12.3529" fill="#DFE6F2"/>
<path d="M100.928 9.2666C102.99 10.7163 104.468 12.8593 105.097 15.3091C105.726 17.7589 105.463 20.354 104.357 22.6262C103.251 24.8985 101.374 26.6981 99.0642 27.7005C96.7548 28.7029 94.1653 28.842 91.763 28.0928C93.0105 28.9673 94.4314 29.56 95.9281 29.8303C97.4248 30.1005 98.9618 30.0419 100.434 29.6585C101.906 29.275 103.278 28.5758 104.456 27.6088C105.634 26.6418 106.591 25.4298 107.26 24.0561C107.928 22.6824 108.294 21.1794 108.331 19.6503C108.368 18.1211 108.076 16.602 107.474 15.1971C106.873 13.7922 105.977 12.5348 104.847 11.5112C103.717 10.4875 102.38 9.7218 100.928 9.2666Z" fill="#C5CFE4"/>
<path d="M59.9833 63.5238L57.2773 65.274L43.5797 52.3506" fill="#9999A0"/>
<path d="M70.4649 99.5376C70.5979 99.9368 70.731 100.333 70.8715 100.738H72.328C71.6922 100.336 71.0711 99.9359 70.4649 99.5376Z" fill="#4070F4"/>
<path d="M96.66 36.9332C84.9438 38.4528 72.291 46.5545 67.7785 62.3636C70.4029 62.7728 72.8444 63.9659 74.7863 65.788C76.7283 67.6102 78.081 69.9773 78.6692 72.5824C80.9611 74.5235 85.3504 77.719 91.8986 81.4253C95.6347 83.5726 99.5037 85.4771 103.482 87.1272C104.122 83.6887 104.534 78.5124 103.888 72.1014L130.446 71.8783C131.168 81.6732 130.473 92.3481 127.099 100.74H130.702C141.785 55.3329 116.598 34.345 96.66 36.9332Z" fill="#4070F4"/>
<path d="M70.4649 99.5376C70.5979 99.9368 70.731 100.333 70.8715 100.738H72.328C71.6922 100.336 71.0711 99.9359 70.4649 99.5376Z" fill="#4070F4"/>
<path d="M96.66 36.9332C84.9438 38.4528 72.291 46.5545 67.7785 62.3636C70.4029 62.7728 72.8444 63.9659 74.7863 65.788C76.7283 67.6102 78.081 69.9773 78.6692 72.5824C80.9611 74.5235 85.3504 77.719 91.8986 81.4253C95.6347 83.5726 99.5037 85.4771 103.482 87.1272C104.122 83.6887 104.534 78.5124 103.888 72.1014L130.446 71.8783C131.168 81.6732 130.473 92.3481 127.099 100.74H130.702C141.785 55.3329 116.598 34.345 96.66 36.9332Z" fill="#4070F4"/>
<path d="M131.338 106.335H124.087V106.658H131.338V106.335Z" fill="#9999A0"/>
<path d="M82.2279 106.335H52.7402V106.658H82.2279V106.335Z" fill="#9999A0"/>
<path d="M42.3351 106.335H2.54829V106.658H42.3351V106.335Z" fill="#9999A0"/>
<path d="M68.9738 58.6451L64.1188 53.982C61.3672 51.3022 57.7431 49.7168 53.9182 49.5196C50.2677 49.3292 46.6592 50.3768 43.6708 52.4945L43.486 52.2293C46.5349 50.0743 50.2143 49.0102 53.9355 49.2073C57.839 49.4038 61.5394 51.0174 64.3504 53.7489L69.208 58.4121L68.9738 58.6451Z" fill="#9999A0"/>
<path d="M13.1432 100.956L12.8277 100.909L18.1929 63.3852C19.4399 54.6762 27.1267 48.4661 35.7056 49.2544C39.3889 49.587 42.8479 51.1785 45.5069 53.7639L57.3882 65.1677L57.1664 65.4007L45.2851 53.9969C42.6779 51.461 39.2857 49.9002 35.6736 49.5742C27.2696 48.8107 19.7283 54.8993 18.5084 63.4398L13.1432 100.956Z" fill="#9999A0"/>
<path d="M99.9354 38.5995C102.69 38.5995 104.924 38.1788 104.924 37.6599C104.924 37.1409 102.69 36.7202 99.9354 36.7202C97.1804 36.7202 94.9471 37.1409 94.9471 37.6599C94.9471 38.1788 97.1804 38.5995 99.9354 38.5995Z" fill="#254898"/>
<path d="M72.328 100.577H57.8393V100.899H72.328V100.577Z" fill="#9999A0"/>
<path d="M21.3524 130.261H11.9084L0 100.577H47.4539V100.899H0.475648L12.1253 129.939H21.3524V130.261Z" fill="#9999A0"/>
<path d="M122.882 130.261H31.8413V129.939H122.658L133.186 100.899H127.101V100.577H133.645L122.882 130.261Z" fill="#9999A0"/>
<path d="M81.1461 74.4672L80.8996 74.249L86.1565 68.5024C86.7769 67.7667 87.0864 66.8158 87.0186 65.8534C86.9508 64.891 86.5111 63.9936 85.7936 63.3532C85.0762 62.7129 84.138 62.3805 83.18 62.4273C82.222 62.4741 81.3203 62.8964 80.6679 63.6037L76.8405 68.0958L76.5941 67.8851L80.4363 63.3855C80.7801 62.9779 81.2015 62.6435 81.6756 62.4019C82.1497 62.1603 82.667 62.0165 83.1972 61.9787C83.7273 61.941 84.2596 62.0103 84.7628 62.1823C85.266 62.3544 85.7299 62.6258 86.1274 62.9807C86.5249 63.3356 86.8478 63.7668 87.0774 64.249C87.3069 64.7312 87.4384 65.2546 87.464 65.7886C87.4897 66.3226 87.409 66.8564 87.2268 67.3586C87.0446 67.8608 86.7645 68.3213 86.4029 68.7131L81.1461 74.4672Z" fill="#254898"/>
<path d="M78.6569 72.4861C79.2853 73.0191 79.9581 73.6017 80.9045 74.3083L82.6297 72.4266C79.9138 71.5664 78.4745 66.1123 78.4745 66.1123L76.7887 68.0956C77.684 69.4259 78.3181 70.9162 78.6569 72.4861Z" fill="#254898"/>
<path d="M108.103 16.5455C107.519 14.2528 106.193 12.2207 104.334 10.7695C102.476 9.31841 100.19 8.53076 97.8368 8.53076C95.4839 8.53076 93.198 9.31841 91.3393 10.7695C89.4806 12.2207 88.1548 14.2528 87.5709 16.5455H108.103Z" fill="#4070F4"/>
<path d="M83.0436 11.5747H59.2218V23.9577H83.0436V11.5747Z" fill="#2BD67B"/>
<path d="M59.3181 23.9878C62.7182 23.9878 65.4745 21.2151 65.4745 17.7949C65.4745 14.3747 62.7182 11.6021 59.3181 11.6021C55.918 11.6021 53.1616 14.3747 53.1616 17.7949C53.1616 21.2151 55.918 23.9878 59.3181 23.9878Z" fill="#DFE6F2"/>
<path d="M59.318 24.1489C58.0687 24.1489 56.8475 23.7763 55.8087 23.0781C54.77 22.3799 53.9604 21.3875 53.4823 20.2265C53.0042 19.0654 52.8791 17.7879 53.1228 16.5553C53.3665 15.3228 53.9681 14.1906 54.8515 13.302C55.7349 12.4133 56.8604 11.8082 58.0857 11.563C59.311 11.3178 60.5811 11.4437 61.7353 11.9246C62.8895 12.4055 63.876 13.2199 64.5701 14.2648C65.2642 15.3097 65.6347 16.5382 65.6347 17.7949C65.6334 19.4797 64.9674 21.0951 63.7831 22.2864C62.5988 23.4777 60.9929 24.1476 59.318 24.1489ZM59.318 11.7657C58.132 11.7657 56.9726 12.1195 55.9865 12.7824C55.0003 13.4453 54.2318 14.3874 53.778 15.4897C53.3243 16.592 53.2057 17.8049 53.4372 18.975C53.6688 20.1451 54.2401 21.2199 55.079 22.0633C55.9178 22.9068 56.9864 23.4811 58.1498 23.7135C59.3131 23.946 60.5188 23.8262 61.6144 23.3693C62.71 22.9124 63.6463 22.1389 64.3049 21.1466C64.9635 20.1544 65.3148 18.988 65.3143 17.7949C65.3123 16.196 64.6799 14.6633 63.5557 13.5329C62.4316 12.4026 60.9075 11.767 59.318 11.7657Z" fill="black"/>
<path d="M74.8517 11.5747H89.8037C91.4378 11.5747 93.0049 12.2277 94.1604 13.39C95.3158 14.5523 95.965 16.1287 95.965 17.7724C95.965 19.4161 95.3158 20.9926 94.1604 22.1549C93.0049 23.3171 91.4378 23.9701 89.8037 23.9701H74.8517V11.5747Z" fill="#2BD67B"/>
<path d="M59.318 19.5285C60.2694 19.5285 61.0407 18.7526 61.0407 17.7955C61.0407 16.8384 60.2694 16.0625 59.318 16.0625C58.3665 16.0625 57.5953 16.8384 57.5953 17.7955C57.5953 18.7526 58.3665 19.5285 59.318 19.5285Z" fill="black"/>
<path d="M136.738 140.581L133.553 135.871L134.717 135.075L137.901 139.798L136.738 140.581ZM133.997 135.945L136.821 140.135L137.455 139.701L134.63 135.526L133.997 135.945Z" fill="#9999A0"/>
<path d="M134.295 142.19L131.111 137.48L134.729 135L137.913 139.711L134.295 142.19ZM131.555 137.554L134.379 141.741L137.47 139.634L134.645 135.444L131.555 137.554Z" fill="#9999A0"/>
<path d="M129.788 150.877L129.603 150.614L131.821 149.035C132.113 148.831 132.347 148.554 132.498 148.23C132.65 147.907 132.715 147.549 132.686 147.193C132.573 145.651 133.236 144.112 133.879 142.622C133.97 142.411 134.061 142.198 134.15 141.984L131.254 137.688C129.142 138.04 127.498 137.847 125.938 137.068C125.622 136.91 125.27 136.839 124.918 136.863C124.566 136.886 124.227 137.003 123.935 137.202L106.705 148.961C106.537 149.075 106.39 149.218 106.269 149.382L106.01 149.189C106.154 148.996 106.328 148.828 106.525 148.693L123.755 136.932C124.094 136.702 124.488 136.566 124.897 136.539C125.306 136.511 125.714 136.593 126.081 136.776C127.602 137.537 129.211 137.713 131.301 137.351L131.402 137.331L134.515 141.945L134.48 142.027C134.379 142.274 134.276 142.508 134.172 142.748C133.546 144.201 132.898 145.703 133.006 147.166C133.039 147.578 132.964 147.992 132.788 148.366C132.612 148.74 132.341 149.062 132.003 149.298L129.788 150.877Z" fill="#9999A0"/>
<path d="M138.285 140.302C138.241 140.306 138.197 140.306 138.152 140.302C138.061 140.284 137.975 140.249 137.897 140.198C137.82 140.147 137.753 140.081 137.701 140.004L134.313 134.981C134.254 134.904 134.211 134.816 134.188 134.722C134.164 134.628 134.16 134.531 134.175 134.435C134.19 134.339 134.225 134.248 134.277 134.166C134.329 134.084 134.396 134.014 134.476 133.959C134.556 133.905 134.646 133.867 134.74 133.849C134.835 133.831 134.932 133.832 135.026 133.853C135.12 133.874 135.209 133.914 135.287 133.971C135.366 134.028 135.431 134.1 135.481 134.183L138.877 139.196C138.93 139.273 138.968 139.36 138.987 139.452C139.007 139.544 139.008 139.639 138.99 139.731C138.973 139.824 138.937 139.912 138.886 139.99C138.834 140.068 138.767 140.135 138.69 140.188C138.57 140.267 138.429 140.307 138.285 140.302ZM134.894 134.183C134.818 134.183 134.743 134.206 134.68 134.25C134.598 134.309 134.543 134.398 134.526 134.498C134.509 134.597 134.531 134.7 134.589 134.783L137.975 139.806C138.033 139.89 138.121 139.949 138.221 139.969C138.271 139.979 138.322 139.979 138.372 139.968C138.421 139.957 138.468 139.937 138.51 139.907C138.552 139.879 138.588 139.842 138.616 139.8C138.644 139.758 138.663 139.71 138.672 139.66C138.682 139.61 138.682 139.559 138.672 139.509C138.661 139.459 138.642 139.412 138.613 139.369L135.224 134.347C135.167 134.262 135.078 134.203 134.978 134.183H134.894Z" fill="#9999A0"/>
<path d="M127.274 100.735L130.902 100.675C132.358 94.3752 133.2 87.9471 133.415 81.4824L130.788 81.3237C130.579 88.1982 129.593 94.9984 127.274 100.735Z" fill="#254898"/>
<path d="M102.905 79.4996L103.864 66.4199C101.296 71.8491 99.0037 77.9253 96.7019 84.0214C99.3561 85.37 101.631 86.3939 103.484 87.1401C103.927 84.6484 104.167 82.1247 104.204 79.5938L102.905 79.4996Z" fill="#254898"/>
<path d="M74.3392 23.8764C77.7393 23.8764 80.4956 21.1038 80.4956 17.6836C80.4956 14.2634 77.7393 11.4907 74.3392 11.4907C70.9391 11.4907 68.1827 14.2634 68.1827 17.6836C68.1827 21.1038 70.9391 23.8764 74.3392 23.8764Z" fill="#DFE6F2"/>
<path d="M74.3367 24.0376C73.0874 24.0376 71.8661 23.6649 70.8274 22.9668C69.7886 22.2686 68.979 21.2762 68.5009 20.1152C68.0228 18.9541 67.8977 17.6765 68.1414 16.444C68.3852 15.2114 68.9868 14.0793 69.8702 13.1906C70.7535 12.302 71.8791 11.6969 73.1044 11.4517C74.3297 11.2065 75.5997 11.3323 76.7539 11.8133C77.9081 12.2942 78.8947 13.1086 79.5887 14.1535C80.2828 15.1984 80.6533 16.4269 80.6533 17.6836C80.652 19.3684 79.9861 20.9838 78.8017 22.1751C77.6174 23.3664 76.0115 24.0363 74.3367 24.0376ZM74.3367 11.6544C73.1506 11.6544 71.9912 12.0082 71.0051 12.6711C70.019 13.3339 69.2504 14.2761 68.7967 15.3784C68.3429 16.4807 68.2243 17.6936 68.4558 18.8637C68.6874 20.0338 69.2587 21.1086 70.0976 21.952C70.9364 22.7955 72.0051 23.3697 73.1684 23.6022C74.3317 23.8346 75.5374 23.7148 76.633 23.2579C77.7287 22.801 78.665 22.0275 79.3235 21.0353C79.9821 20.0431 80.3334 18.8767 80.3329 17.6836C80.3309 16.0847 79.6985 14.5519 78.5743 13.4216C77.4502 12.2912 75.9261 11.6557 74.3367 11.6544Z" fill="black"/>
<path d="M74.3391 19.4162C75.2905 19.4162 76.0618 18.6403 76.0618 17.6832C76.0618 16.7261 75.2905 15.9502 74.3391 15.9502C73.3876 15.9502 72.6164 16.7261 72.6164 17.6832C72.6164 18.6403 73.3876 19.4162 74.3391 19.4162Z" fill="black"/>
<path d="M111.755 152C110.757 152.004 109.768 151.809 108.845 151.426C107.923 151.043 107.085 150.48 106.38 149.769L105.946 149.333C104.577 147.979 102.732 147.225 100.812 147.233C98.8925 147.241 97.0539 148.012 95.6963 149.377L95.3094 149.766L95.0827 149.541L95.4696 149.152C96.1752 148.441 97.0131 147.878 97.9354 147.493C98.8577 147.109 99.8463 146.911 100.845 146.911C101.843 146.911 102.832 147.109 103.754 147.493C104.676 147.878 105.514 148.441 106.22 149.152L106.607 149.541C107.972 150.914 109.824 151.685 111.755 151.685C113.686 151.685 115.538 150.914 116.903 149.541L117.29 149.154C118.717 147.722 120.65 146.917 122.665 146.917C124.681 146.917 126.614 147.722 128.04 149.154L128.427 149.543C129.794 150.915 131.645 151.686 133.576 151.686C135.506 151.686 137.358 150.915 138.724 149.543L138.951 149.771C137.524 151.204 135.591 152.008 133.576 152.008C131.56 152.008 129.627 151.204 128.201 149.771L127.767 149.335C126.396 147.984 124.551 147.231 122.632 147.24C120.713 147.249 118.875 148.018 117.517 149.382L117.13 149.769C116.425 150.48 115.587 151.043 114.665 151.426C113.742 151.809 112.753 152.004 111.755 152Z" fill="#9999A0"/>
<path d="M16.7857 139.867C15.6188 139.868 14.4675 139.597 13.4216 139.077L13.2319 138.982L13.3724 138.826L58.3223 88.2529L64.2371 94.049L52.7229 106.744L27.6295 135.098H27.558C25.6771 135.131 23.8829 135.899 22.5551 137.24L22.1681 137.629C21.4615 138.34 20.6223 138.904 19.6987 139.288C18.7751 139.672 17.7851 139.869 16.7857 139.867ZM13.7544 138.876C15.1056 139.498 16.6138 139.689 18.0762 139.423C19.5385 139.157 20.8848 138.447 21.934 137.388L22.3308 137.014C23.7008 135.633 25.5455 134.835 27.4841 134.783L52.4938 106.534L63.7984 94.0689L58.3494 88.724L13.7544 138.876Z" fill="#9999A0"/>
<path d="M16.7857 139.867C15.7877 139.871 14.7989 139.675 13.8763 139.292C12.9538 138.909 12.1158 138.347 11.4106 137.636L10.9769 137.197C9.60608 135.847 7.76116 135.094 5.84233 135.103C3.9235 135.112 2.08549 135.881 0.72703 137.244L0.340106 137.634L0.113373 137.406L0.520013 137.014C1.94704 135.583 3.87995 134.779 5.89508 134.779C7.9102 134.779 9.84311 135.583 11.2701 137.014L11.6571 137.406C13.0227 138.779 14.8745 139.55 16.8054 139.55C18.7362 139.55 20.5881 138.779 21.9537 137.406L22.3308 137.014C23.7565 135.58 25.6899 134.775 27.7059 134.775C29.7218 134.775 31.6552 135.58 33.0809 137.014L33.4678 137.406L33.2411 137.634L32.8049 137.192C31.435 135.84 29.5898 135.086 27.6703 135.095C25.7509 135.104 23.9126 135.874 22.5551 137.239L22.1681 137.629C21.4629 138.342 20.624 138.907 19.7 139.291C18.7761 139.675 17.7855 139.871 16.7857 139.867Z" fill="#9999A0"/>
<path d="M130.448 71.8758C131.377 84.4795 129.955 98.5408 123.508 107.327C120.087 111.98 115.343 114.821 110.148 115.329C103.073 116.023 92.4703 112.387 78.6347 104.523C64.799 96.6592 56.3408 89.4649 53.5067 83.1755C50.7464 77.0497 51.9885 70.2347 56.6686 65.8219C58.3707 64.2143 60.4647 63.0875 62.7387 62.5555C65.0128 62.0235 67.3862 62.1052 69.6187 62.7924C71.8513 63.4795 73.8638 64.7477 75.4527 66.4685C77.0415 68.1894 78.1502 70.3019 78.6667 72.5923C80.9587 74.5309 85.3479 77.7264 91.8961 81.4327C95.6323 83.58 99.5012 85.4845 103.479 87.1346C104.12 83.6961 104.532 78.5198 103.886 72.1088" fill="#DFE6F2"/>
<path d="M130.399 84.2094C121.206 84.3061 111.947 84.6309 103.484 87.3256L104.329 79.5859L130.549 81.3213L130.399 84.2094Z" fill="#C5CFE4"/>
<path d="M104.085 63.3971L102.905 79.4988L133.413 81.5068C133.413 81.5068 134.332 62.5493 125.862 51.5521C123.227 48.126 105.241 49.849 104.085 63.3971Z" fill="#4070F4"/>
</g>
<defs>
<clipPath id="clip0">
<rect width="139" height="152" fill="white"/>
</clipPath>
</defs>
</svg>
