<svg xmlns="http://www.w3.org/2000/svg" width="309" height="224" viewBox="0 0 309 224">
    <g fill="none" fill-rule="evenodd">
        <path fill="#4070F4" fill-rule="nonzero" d="M133.52 50.7h42.59v4.94h-42.59z"/>
        <path fill="#C5CFE4" fill-rule="nonzero" d="M211.73 50.7h42.59v4.94h-42.59z"/>
        <path stroke="#101C3D" stroke-linejoin="round" d="M107.81 112.16h200.02V58.35H80.01v41.31h26.95"/>
        <path fill="#FFF" stroke="#0C152E" stroke-linejoin="round" d="M121.26 67.39h127.35v35.74H121.26z"/>
        <path fill="#EDF0F5" fill-rule="nonzero" d="M130.68 88.02h108.51v7.49H130.68z"/>
        <path fill="#EDF0F5" fill-rule="nonzero" stroke="#101C3D" stroke-linejoin="round" d="M144.298 185.429L260.214 69.513c10.25-10.251 26.872-10.251 37.123 0a26.25 26.25 0 0 1 .007 37.13L181.428 222.559l-37.13-37.13z"/>
        <circle cx="278.83" cy="88.83" r="14.3" stroke="#101C3D" stroke-linejoin="round"/>
        <circle cx="64.63" cy="16.64" r="16.14" fill="#FFF" fill-rule="nonzero" stroke="#0C152E" stroke-linejoin="round"/>
        <path fill="#05DD8F" fill-rule="nonzero" d="M38.22 104.26a113.46 113.46 0 0 0 52.44-.11l16-3.83V85H21.52v15.32l16.7 3.94zM21.52 101.44v19.37h11.66a44.27 44.27 0 0 1-11.66-19.37z"/>
        <path fill="#101C3D" fill-rule="nonzero" d="M47.81 85H21.52v15.32l10.72 2.53 1.98-5.26zM53.47 79.76L47.81 85h3.74z"/>
        <path fill="#101C3D" fill-rule="nonzero" d="M51.55 85h-3.74L34.22 97.59l-2 5.26 6 1.41c1.93.45 3.88.85 5.83 1.2l1.58-4.31L51.55 85z"/>
        <path stroke="#101C3D" stroke-linejoin="round" d="M21.68 96.52l-8.48 53.14h57.83l1.12-7.22"/>
        <path fill="#FFF" fill-rule="nonzero" stroke="#101C3D" stroke-linejoin="round" d="M120.18 88.33c-6.79 0-17-4.29-36-13.33-2.49-1.19-5.53-2.63-6.85-3.2a11.68 11.68 0 0 1 .21-22.68c4.42-1 6.53 0 16.68 4.79 5.31 2.52 18.33 8.72 24.34 10.58 3-2.69 8.17-8.73 11.45-12.58 10.13-11.91 16.83-19.79 25.65-19.79a11.68 11.68 0 0 1 3.09 23c-2.46 2-7.51 7.94-10.95 12-11.57 13.52-18.56 21.21-27.62 21.21z"/>
        <path fill="#EDF0F5" fill-rule="nonzero" d="M71.68 52.87c5-1.4 7.45-.34 19.26 4.7 6.17 2.64 21.31 9.12 28.26 11 3.35-3.21 8.93-10.33 12.5-14.88 7.52-9.59 13.3-16.95 19.41-20.79-6.77 2.21-12.78 9.25-21.11 19-3.28 3.85-8.41 9.89-11.45 12.58-6-1.86-19-8.06-24.34-10.58-10.15-4.82-12.21-5.83-16.68-4.78A11.54 11.54 0 0 0 71.26 53c.14 0 .27-.09.42-.13z"/>
        <path stroke="#101C3D" stroke-linejoin="round" d="M120.18 88.33c-6.79 0-17-4.29-36-13.33-2.49-1.19-5.53-2.63-6.85-3.2a11.68 11.68 0 0 1 .21-22.68c4.42-1 6.53 0 16.68 4.79 5.31 2.52 18.33 8.72 24.34 10.58 3-2.69 8.17-8.73 11.45-12.58 10.13-11.91 16.83-19.79 25.65-19.79a11.68 11.68 0 0 1 3.09 23c-2.46 2-7.51 7.94-10.95 12-11.57 13.52-18.56 21.21-27.62 21.21z"/>
        <path fill="#05DD8F" fill-rule="nonzero" d="M79.93 45.33l31.36 15.81-1.36 28.04-9.01-1.16"/>
        <path fill="#05DD8F" fill-rule="nonzero" d="M106.62 85v-.17c-.356-23.248-19.304-41.908-42.555-41.908-23.25 0-42.199 18.66-42.555 41.908V85h85.11z"/>
        <path d="M106.63 88.76l-5.71-.76-20.4-41.47a44.59 44.59 0 0 0-58.81 34.34c-.12 1.3-.19 2.62-.19 4v10.29l4 34h81.08l.03-40.4z"/>
        <path fill="#05DD8F" fill-rule="nonzero" d="M79.93 45.33h.08zM106.62 85v-.17A42.47 42.47 0 0 0 91.19 52a44.23 44.23 0 0 0-10.67-5.51L100.92 88l5.71.74V85h-.01z"/>
        <path fill="#05DD8F" fill-rule="nonzero" d="M109.88 83.3v.17l.21 1.82 1.17-24.15-25.03-12.63a42.4 42.4 0 0 1 5 3.53 44.44 44.44 0 0 1 18.65 31.26z"/>
        <path fill="#254898" fill-rule="nonzero" d="M21.52 84.83c0-1.34.07-2.66.19-4a44.48 44.48 0 0 0-.36 12.91v.18l.14 1.2V84.83h.03z"/>
        <path fill="#101C3D" fill-rule="nonzero" d="M109.9 83.47v-.17A44.44 44.44 0 0 0 91.19 52a42.47 42.47 0 0 1 15.44 32.79V88.72l3.3.42.19-3.89-.21-1.82-.01.04z"/>
        <path fill="#05DD8F" fill-rule="nonzero" d="M21.52 129.16h4.03l-4.03-34zM60.38 44.28a44.21 44.21 0 0 1 20.14 2.25l-.59-1.19a42.56 42.56 0 0 0-58.22 35.53c3.387-19.403 19.11-34.28 38.67-36.59zM80 45.37l6.22 3.14A42.14 42.14 0 0 0 80 45.37z"/>
        <path fill="#05DD8F" fill-rule="nonzero" d="M91.19 52a42.4 42.4 0 0 0-5-3.53L80 45.37h-.08l.59 1.19A44.23 44.23 0 0 1 91.19 52z"/>
        <path stroke="#101C3D" stroke-linejoin="round" d="M110.28 149.66l-3.32-50"/>
        <path fill="#EDF0F5" fill-rule="nonzero" d="M61.4.82A16.14 16.14 0 0 0 69.35 31a16.31 16.31 0 0 0 3.23-.32A16.14 16.14 0 1 1 61.4.82z"/>
        <ellipse cx="63.62" cy="43.57" fill="#101C3D" fill-rule="nonzero" rx="9.01" ry="1.76"/>
        <path fill="#FFF" fill-rule="nonzero" stroke="#101C3D" stroke-linejoin="round" d="M34.57 154.12c-.384 0-.768-.02-1.15-.06a11.67 11.67 0 0 1-10.54-11.54c-.68-2.76-4.26-10.37-6.44-15-5.17-11-7.87-17-7.87-22.07 0-4.27 1.69-9.69 10.31-24.73 4.45-7.78 8.84-14.71 9-15a11.682 11.682 0 1 1 19.74 12.5c-6.23 9.84-13.39 22.35-15.39 27.37 1 2.83 3.56 8.21 5.33 12 6.06 12.88 9.2 19.89 8.6 26a11.68 11.68 0 0 1-11.59 10.53z"/>
        <path fill="#EDF0F5" fill-rule="nonzero" d="M44 62.11a11.25 11.25 0 0 0-2.81-1.28 11.66 11.66 0 0 1 3 15.65c-6.23 9.84-13.38 22.35-15.39 27.38 1 2.83 3.56 8.21 5.33 12 6.07 12.88 9.2 19.89 8.61 26a11.69 11.69 0 0 1-12.79 10.45 11.72 11.72 0 0 1-2.3-.46 11.63 11.63 0 0 0 5.77 2.21c.382.04.766.06 1.15.06a11.68 11.68 0 0 0 11.61-10.55c.6-6.1-2.54-13.11-8.6-26-1.77-3.77-4.3-9.15-5.33-12 2-5 9.16-17.53 15.39-27.37 3.43-5.45 1.8-12.647-3.64-16.09z"/>
        <path stroke="#101C3D" stroke-linejoin="round" d="M34.57 154.12c-.384 0-.768-.02-1.15-.06a11.67 11.67 0 0 1-10.54-11.54c-.68-2.76-4.26-10.37-6.44-15-5.17-11-7.87-17-7.87-22.07 0-4.27 1.69-9.69 10.31-24.73 4.45-7.78 8.84-14.71 9-15a11.682 11.682 0 1 1 19.74 12.5c-6.23 9.84-13.39 22.35-15.39 27.37 1 2.83 3.56 8.21 5.33 12 6.06 12.88 9.2 19.89 8.6 26a11.68 11.68 0 0 1-11.59 10.53z"/>
        <path fill="#05DD8F" fill-rule="nonzero" d="M34.56 54.35L12.79 81.49 38.5 98.95l21.24-29.46"/>
        <circle cx="64.63" cy="16.64" r="16.14" stroke="#0C152E" stroke-linejoin="round"/>
        <path stroke="#101C3D" stroke-linejoin="round" d="M43.74 149.66h118.98M0 149.66h25.28"/>
    </g>
</svg>
