<?xml version="1.0" encoding="UTF-8"?>
<svg width="530px" height="372px" viewBox="0 0 530 372" version="1.1" xmlns="http://www.w3.org/2000/svg" xmlns:xlink="http://www.w3.org/1999/xlink">
    <!-- Generator: sketchtool 55.2 (78181) - https://sketchapp.com -->
    <title>D744D526-0EC2-48F7-A030-96FC2119CEEA</title>
    <desc>Created with sketchtool.</desc>
    <g id="💰-2.0-My-Wallet" stroke="none" stroke-width="1" fill="none" fill-rule="evenodd">
        <g id="2.1.3-Wallet---Onboarding-1" transform="translate(-722.000000, -136.000000)">
            <g id="2.1-Dashboard-1/2---Time-to-get-some-Lisk-[Dark]" transform="translate(721.000000, 136.000000)">
                <g>
                    <path d="M289.75,129.04 L411.72,129.04" id="Path" stroke="#254898" fill="#0C152E" fill-rule="nonzero" stroke-linecap="round" stroke-linejoin="round"></path>
                    <path d="M225.14,170.95 L347.12,170.95" id="Path" stroke="#254898" fill="#0C152E" fill-rule="nonzero" stroke-linecap="round" stroke-linejoin="round"></path>
                    <path d="M320.18,212.87 L530.14,212.87" id="Path" stroke="#254898" fill="#0C152E" fill-rule="nonzero" stroke-linecap="round" stroke-linejoin="round"></path>
                    <path d="M139.293059,115.158119 L145.183059,115.158119 C185.676577,115.158119 218.503059,147.984601 218.503059,188.478119 L218.503059,194.478119 L67.3930595,194.478119 L67.3930595,187.008119 C67.3930595,147.304368 99.5793088,115.118119 139.283059,115.118119 L139.293059,115.158119 Z" id="Path" stroke="#254898" transform="translate(142.948059, 154.798119) rotate(11.620000) translate(-142.948059, -154.798119) "></path>
                    <circle id="Oval" fill="#FFFFFF" fill-rule="nonzero" cx="136.12" cy="182.78" r="35.93"></circle>
                    <path d="M163,159 C169.2519,175.229097 162.979054,193.605819 148.108751,202.624906 C133.238448,211.643993 114.042893,208.714282 102.54,195.67 C107.689075,209.098118 120.349197,218.16225 134.720263,218.709761 C149.09133,219.257272 162.404405,211.182669 168.560244,198.185248 C174.716083,185.187826 172.528613,169.771855 163,159 Z" id="Path" fill="#C5CFE4" fill-rule="nonzero"></path>
                    <circle id="Oval" fill="#4070F4" fill-rule="nonzero" cx="124.41" cy="163.59" r="10.81"></circle>
                    <circle id="Oval" fill="#F5F9FB" fill-rule="nonzero" cx="47.28" cy="38.32" r="38.23"></circle>
                    <circle id="Oval" stroke="#254898" stroke-linecap="round" cx="47.28" cy="38.32" r="33.08"></circle>
                    <rect id="Rectangle" fill="#4070F4" fill-rule="nonzero" transform="translate(48.649970, 38.319765) rotate(-45.000000) translate(-48.649970, -38.319765) " x="41.63497" y="31.3047648" width="14.03" height="14.03"></rect>
                    <path d="M47.28,76.56 C33.4725759,76.7833039 20.617349,69.5449869 13.6483697,57.6232357 C6.67939039,45.7014845 6.67939039,30.9485155 13.6483697,19.0267643 C20.617349,7.10501312 33.4725759,-0.133303903 47.28,0.09 C47.74,0.09 48.19,0.09 48.64,0.09 L48.64,0.09 C48.64,0.09 0.38,-3.67 1,38.32 C1.62,80.31 48.64,76.56 48.64,76.56 L48.64,76.56 C48.19,76.54 47.74,76.56 47.28,76.56 Z" id="Path" fill="#254898" fill-rule="nonzero"></path>
                    <polyline id="Path" stroke="#254898" points="84.61 197.08 5.67 180.85 27.62 74.07"></polyline>
                    <polyline id="Path" stroke="#254898" points="14.76 63.37 13.17 71.1 44.5 77.54 48.23 59.4"></polyline>
                    <rect id="Rectangle" fill="#3D71FF" fill-rule="nonzero" transform="translate(20.808946, 112.652373) rotate(11.620000) translate(-20.808946, -112.652373) " x="13.303946" y="97.6423725" width="15.01" height="30.02"></rect>
                    <path d="M36.48,171.89 C39.4730247,217.776308 72.7682118,256.001239 117.809907,265.261755 C162.851602,274.522271 208.526646,252.533522 229.38,211.55 L36.48,171.89 Z" id="Path" fill="#05DD8F" fill-rule="nonzero"></path>
                    <path d="M202.58,206 C184.126173,242.156971 146.116377,264.061586 105.58,261.9 C109.598181,263.259457 113.695852,264.371538 117.85,265.23 C162.892318,274.47831 208.56166,252.488912 229.42,211.51 L202.58,206 Z" id="Path" fill="#254898" fill-rule="nonzero"></path>
                    <polyline id="Path" stroke="#254898" points="205.68 224.65 290.92 242.18 273.84 325.27"></polyline>
                    <polyline id="Path" stroke="#254898" points="248.77 336 251.91 320.77 286.13 327.8 283 343.04"></polyline>
                    <rect id="Rectangle" fill="#3D71FF" fill-rule="nonzero" transform="translate(282.055400, 285.228499) rotate(11.620000) translate(-282.055400, -285.228499) " x="274.5504" y="270.218499" width="15.01" height="30.02"></rect>
                    <circle id="Oval" stroke="#254898" fill="#0C152E" fill-rule="nonzero" cx="205.76" cy="224.27" r="6.12"></circle>
                </g>
            </g>
        </g>
    </g>
</svg>
