<svg width="123" height="148" viewBox="0 0 123 148" fill="none" xmlns="http://www.w3.org/2000/svg">
<path d="M0.250605 6.14808L11.0637 0.25H118.25V133.419H0.769003L0.250605 6.14808Z" fill="#C5CFE4" stroke="#0C152E" stroke-width="0.5"/>
<rect x="0.25" y="6.25" width="110.48" height="127.187" fill="white" stroke="#0C152E" stroke-width="0.5"/>
<path fill-rule="evenodd" clip-rule="evenodd" d="M95 137H123V109H95V137Z" fill="#FF4557"/>
<path fill-rule="evenodd" clip-rule="evenodd" d="M109.708 123.002L116.002 116.707L115.295 116L109.001 122.295L102.707 116L102 116.707L108.294 123.002L102 129.297L102.707 130.004L109.001 123.709L115.295 130.004L116.002 129.297L109.708 123.002Z" fill="white"/>
<g clip-path="url(#clip0)">
<path d="M32.5002 49.6267V42.8205L15.339 49.2423L14.8013 47.797L34.0366 40.6064V47.4126L52.2323 40.6064V47.4126L70.4331 40.6064V48.5196H68.8968V42.8205L50.6959 49.6267V42.8205L32.5002 49.6267Z" fill="#4070F4"/>
<path d="M47.4335 68.4206V61.6196L29.2327 68.4206V61.6196L12.0765 68.0362L11.5388 66.5961L30.769 59.4004V66.2066L48.9699 59.4004V66.2066L67.1707 59.4004V67.3136H65.6343V61.6196L47.4335 68.4206Z" fill="#4070F4"/>
<path d="M81.1466 51.5645H10.74V52.077H81.1466V51.5645Z" fill="#0C152E"/>
<path d="M66.4026 69.9268H10.74V70.4393H66.4026V69.9268Z" fill="#0C152E"/>
</g>
<g clip-path="url(#clip1)">
<path d="M47.3963 134.484L45.8975 137.627C45.161 139.144 45.7854 140.967 47.2841 141.707L47.2898 141.708C48.7946 142.443 50.6041 141.811 51.3402 140.299L52.9437 136.997" fill="#4070F4"/>
<path d="M115.792 32.3723L71.0225 125.214L45.5579 112.7C45.5579 112.7 89.4344 22.0348 90.7149 20.0394L115.792 32.3723Z" fill="white"/>
<path d="M70.9996 125.501C70.9653 125.498 70.9315 125.49 70.8981 125.475L45.4339 112.955C45.29 112.886 45.2349 112.713 45.304 112.568C47.0949 108.863 89.2008 21.8642 90.4805 19.8803C90.5592 19.7591 90.718 19.7139 90.8452 19.7762L115.922 32.1091C116.066 32.1786 116.121 32.351 116.052 32.4962L71.2823 125.344C71.2482 125.411 71.1922 125.464 71.1152 125.493C71.08 125.501 71.0396 125.504 70.9996 125.501ZM45.9421 112.567L70.8922 124.832L115.407 32.5083L90.8284 20.4181C88.0547 25.5566 48.4913 107.289 45.9421 112.567Z" fill="#231F20"/>
<path d="M111.352 21.8354L112.991 18.4432C114.287 15.7536 113.184 12.5129 110.524 11.1991C107.858 9.89627 104.641 11.0124 103.334 13.701L101.668 17.0679" fill="white"/>
<path d="M111.329 22.1219C111.295 22.1192 111.261 22.1107 111.227 22.0965C111.084 22.027 111.028 21.8545 111.097 21.7094L112.737 18.3172C113.963 15.7785 112.916 12.6987 110.4 11.4601C107.882 10.233 104.826 11.2923 103.594 13.8305L101.927 17.1974C101.858 17.3426 101.681 17.398 101.543 17.329C101.399 17.2595 101.344 17.087 101.413 16.9419L103.08 13.575C104.449 10.7523 107.844 9.56926 110.648 10.9411C113.446 12.3239 114.61 15.7433 113.245 18.5723L111.606 21.9645C111.557 22.0707 111.443 22.1311 111.329 22.1219Z" fill="#231F20"/>
<path d="M46.3606 133.782L45.5581 112.699L71.0228 125.214L54.0266 137.548L46.3606 133.782Z" fill="white"/>
<path d="M54.0035 137.835C53.9693 137.832 53.9355 137.823 53.9021 137.809L46.236 134.043C46.1422 133.995 46.0805 133.904 46.0779 133.793L45.2697 112.71C45.2661 112.611 45.3144 112.511 45.3989 112.459C45.484 112.403 45.5939 112.394 45.6821 112.442L71.1467 124.956C71.2353 124.998 71.297 125.09 71.3063 125.189C71.3156 125.288 71.2673 125.389 71.188 125.446L54.1918 137.78C54.1368 137.822 54.0721 137.84 54.0035 137.835ZM46.6394 133.601L53.9957 137.214L70.467 125.261L45.8653 113.169L46.6394 133.601Z" fill="#231F20"/>
<path d="M105.335 65.9389L100.777 63.6967L114.099 36.2104L116.843 37.5599C117.838 38.0509 118.252 39.2663 117.764 40.2703L105.322 65.9495L105.335 65.9389Z" fill="white"/>
<path d="M105.299 66.2371C105.236 66.2321 105.175 66.204 105.127 66.1596L100.658 63.965C100.592 63.9307 100.539 63.8744 100.511 63.7968C100.488 63.7254 100.488 63.6443 100.522 63.5775L113.844 36.0911C113.879 36.0243 113.935 35.9709 114.012 35.9423C114.082 35.919 114.163 35.9196 114.229 35.9539L116.972 37.3034C117.526 37.5736 117.936 38.0469 118.137 38.6308C118.337 39.2148 118.298 39.8433 118.029 40.4013L105.617 65.996C105.6 66.0757 105.554 66.1473 105.475 66.1932L105.463 66.2038C105.415 66.229 105.356 66.2417 105.299 66.2371ZM101.161 63.5706L105.193 65.5506L117.504 40.1449C117.704 39.7263 117.736 39.2536 117.587 38.8187C117.438 38.3837 117.127 38.0285 116.712 37.8215L114.229 36.6029L101.161 63.5706Z" fill="#231F20"/>
<path d="M61.0903 113.42C61.056 113.417 61.0222 113.409 60.9889 113.395C60.845 113.325 60.7898 113.153 60.8589 113.008L102.994 26.0802C103.063 25.935 103.234 25.8792 103.378 25.9486C103.522 26.0181 103.577 26.1906 103.508 26.3357L61.373 113.263C61.3129 113.368 61.1988 113.429 61.0903 113.42Z" fill="#231F20"/>
<path d="M115.792 32.3727L90.6922 20.038L92.6678 15.9657C93.3839 14.4873 95.1521 13.8696 96.6173 14.5953L116.407 24.3205C117.873 25.0405 118.484 26.822 117.762 28.2999L115.792 32.3727Z" fill="white"/>
<path d="M115.769 32.6597C115.735 32.6569 115.701 32.6484 115.667 32.6342L90.5678 20.2995C90.4239 20.23 90.3687 20.0575 90.4378 19.9124L92.4134 15.8401C93.1981 14.2223 95.1437 13.5434 96.7476 14.3324L116.538 24.0576C118.141 24.8465 118.812 26.8068 118.028 28.4246L116.052 32.4969C115.991 32.6079 115.883 32.6688 115.769 32.6597ZM91.0764 19.9055L115.662 31.9847L117.507 28.1743C117.823 27.5274 117.864 26.8005 117.631 26.1212C117.398 25.4419 116.919 24.8936 116.277 24.5815L96.493 14.8568C95.8516 14.5389 95.1305 14.4986 94.4563 14.7344C93.7821 14.9702 93.2375 15.454 92.9271 16.1014L91.0764 19.9055Z" fill="#231F20"/>
<path d="M48.1787 107.277L45.5515 112.698L71.0148 125.211L73.642 119.79L48.1787 107.277Z" fill="#4070F4"/>
</g>
<defs>
<clipPath id="clip0">
<rect width="70.4066" height="29.8333" fill="white" transform="translate(10.74 40.6064)"/>
</clipPath>
<clipPath id="clip1">
<rect width="68.1886" height="136.015" fill="white" transform="translate(53.8066 6) rotate(4.57392)"/>
</clipPath>
</defs>
</svg>
