<svg width="227" height="257" viewBox="0 0 227 257" fill="none" xmlns="http://www.w3.org/2000/svg">
<g clip-path="url(#clip0)">
<path d="M74.4034 95.0392L75.2631 91.5288C75.2631 91.5288 73.6298 90.5525 67.9775 90.5884C68.1065 90.5884 67.4904 90.5884 67.5477 90.976C70.1263 91.757 72.4784 93.151 74.4034 95.0392Z" fill="#1C1C1E"/>
<path d="M69.1309 121.454L69.4174 120.076C68.4949 120.453 67.534 120.727 66.5519 120.895C66.5519 121.11 66.6164 121.239 66.6808 121.246C67.4823 121.269 68.2804 121.36 69.0664 121.519" fill="#DFE6F2"/>
<path d="M69.4246 120.048C70.584 119.574 71.6734 118.944 72.6626 118.174L69.4246 120.048Z" fill="#4070F4"/>
<path d="M76.4165 113.896L72.6913 118.153C74.1927 116.985 75.4572 115.54 76.4165 113.896Z" fill="#4070F4"/>
<path d="M80.7363 100.221L80.6288 99.6902L80.7506 94.4932L78.7447 104.643L78.4868 104.083C78.549 104.653 78.5825 105.226 78.5871 105.799C78.5994 108.636 77.8576 111.426 76.438 113.881L76.8678 113.415L74.9837 122.596C77.0756 123.019 78.7304 123.371 78.7304 123.371L79.1173 117.793C81.3816 112.226 81.9451 106.11 80.7363 100.221Z" fill="#1C1C1E"/>
<path d="M75.7409 86.7278L74.0496 94.9761L74.7511 95.1205L76.4423 86.8722L75.7409 86.7278Z" fill="#9999A0"/>
<path d="M57.067 211.663L50.4261 210.306L69.0664 119.983L69.7685 120.127L51.2715 209.739L56.5082 210.816L76.5669 112.913L77.269 113.056L57.067 211.663Z" fill="#9999A0"/>
<path d="M81.7636 87.5022L78.2463 105.383L78.9489 105.522L82.4661 87.641L81.7636 87.5022Z" fill="#9999A0"/>
<path d="M51.845 205.165L49.8284 215.009L55.7722 216.232L57.7889 206.388L51.845 205.165Z" fill="#4070F4"/>
<path d="M56.0426 216.652L49.4017 215.288L51.5509 204.736L58.1917 206.107L56.0426 216.652ZM50.2542 214.728L55.491 215.805L57.3679 206.667L52.124 205.583L50.2542 214.728Z" fill="#4070F4"/>
<path d="M32.0509 246.606C29.303 247.321 26.7249 248.578 24.4677 250.304C22.2105 252.029 20.3195 254.189 18.9053 256.655H23.92C26.0619 252.92 29.2774 249.919 33.147 248.042C32.7471 247.591 32.3807 247.111 32.0509 246.606Z" fill="#9999A0"/>
<path d="M139.501 18.9217C144.716 18.9217 148.943 14.6859 148.943 9.46083C148.943 4.23576 144.716 0 139.501 0C134.286 0 130.059 4.23576 130.059 9.46083C130.059 14.6859 134.286 18.9217 139.501 18.9217Z" fill="#4070F4"/>
<path d="M146.78 30.0622C154.099 30.0622 160.033 24.1167 160.033 16.7825C160.033 9.44842 154.099 3.50293 146.78 3.50293C139.46 3.50293 133.526 9.44842 133.526 16.7825C133.526 24.1167 139.46 30.0622 146.78 30.0622Z" fill="white"/>
<path d="M0.616088 256.814L0 256.455C3.00085 251.224 7.49492 247.012 12.9041 244.362C18.3133 241.711 24.3902 240.743 30.3531 241.581L30.26 242.299C24.4376 241.48 18.5037 242.424 13.2211 245.01C7.9385 247.597 3.54871 251.707 0.616088 256.814Z" fill="#9999A0"/>
<path d="M114.678 85.1259L103.603 85.1475L103.696 83.4604L114.822 83.4748L114.678 85.1259Z" fill="#1C1C1E"/>
<path d="M188.437 155.013C182.248 129.889 179.618 85.1261 179.618 85.1261H192.098L191.969 83.4751H178.329L178.487 85.0974L185.593 163.483C186.952 164.001 188.412 164.196 189.859 164.053C191.306 163.91 192.7 163.432 193.932 162.657C192.671 160.404 189.433 159.111 188.437 155.013Z" fill="#1C1C1E"/>
<path d="M188.781 164.488C187.63 164.488 186.49 164.269 185.421 163.842L185.686 163.174C188.931 164.466 192.685 163.612 195.716 160.884C197.6 159.229 198.992 157.084 199.738 154.687C200.484 152.289 200.555 149.731 199.942 147.296C195.959 132.667 194.104 114.111 194.025 113.329C193.445 110.652 193.309 108.089 192.893 101.894C192.628 97.6806 192.263 91.9022 191.589 83.2812L192.306 83.231C192.979 91.8448 193.344 97.6304 193.609 101.851C193.996 108.003 194.161 110.551 194.734 113.221C194.813 114.04 196.661 132.531 200.63 147.11C201.277 149.672 201.205 152.364 200.423 154.888C199.64 157.412 198.177 159.671 196.196 161.416C194.186 163.319 191.546 164.413 188.781 164.488Z" fill="#9999A0"/>
<path d="M148.692 4.70203C145.722 5.30794 143.05 6.91545 141.119 9.25662C139.189 11.5978 138.118 14.5312 138.084 17.5678C138.051 20.6044 139.057 23.5608 140.935 25.9442C142.813 28.3276 145.45 29.9939 148.406 30.6655C146.486 30.9026 144.539 30.716 142.699 30.1188C140.859 29.5216 139.173 28.5283 137.757 27.2085C136.341 25.8887 135.23 24.2744 134.503 22.479C133.776 20.6835 133.45 18.7504 133.548 16.8152C133.645 14.8801 134.164 12.9898 135.068 11.277C135.973 9.56413 137.24 8.07031 138.781 6.90031C140.323 5.73031 142.101 4.91247 143.991 4.5042C145.882 4.09592 147.838 4.10709 149.724 4.53693C149.377 4.5674 149.032 4.62257 148.692 4.70203Z" fill="#DFE6F2"/>
<path d="M146.78 31.1179C144.087 31.1179 141.456 30.318 139.218 28.8194C136.979 27.3207 135.235 25.1907 134.204 22.6986C133.174 20.2065 132.905 17.4642 133.43 14.8186C133.955 12.173 135.251 9.74284 137.155 7.83545C139.058 5.92807 141.484 4.62913 144.124 4.10289C146.764 3.57664 149.501 3.84673 151.988 4.879C154.475 5.91127 156.601 7.65935 158.097 9.90219C159.593 12.145 160.391 14.7819 160.391 17.4794C160.391 21.0965 158.957 24.5655 156.404 27.1232C153.852 29.681 150.389 31.1179 146.78 31.1179ZM146.78 4.55865C144.229 4.55865 141.736 5.31643 139.616 6.73618C137.495 8.15592 135.842 10.1739 134.866 12.5348C133.89 14.8958 133.635 17.4937 134.132 20C134.63 22.5064 135.858 24.8087 137.661 26.6157C139.465 28.4227 141.763 29.6532 144.264 30.1518C146.765 30.6503 149.358 30.3945 151.714 29.4165C154.07 28.4386 156.084 26.7825 157.501 24.6577C158.918 22.5329 159.674 20.0348 159.674 17.4794C159.674 14.0526 158.316 10.7661 155.898 8.34303C153.479 5.91993 150.199 4.55865 146.78 4.55865Z" fill="#0C152E"/>
<path d="M141.851 256.663L141.134 256.634L146.421 141.181L147.138 141.188L151.816 256.634L151.099 256.663L146.758 149.507L141.851 256.663Z" fill="#9999A0"/>
<path d="M96.7331 256.849L96.1457 256.447L99.7204 251.178L114.499 83.1519H178.651L178.68 83.4749L193.509 247.431L192.8 247.496L177.992 83.8697H115.151L100.415 251.43L96.7331 256.849Z" fill="#9999A0"/>
<path d="M122.021 43.5645C115.42 47.8596 109.996 53.7406 106.243 60.6723C102.489 67.604 100.525 75.3662 100.53 83.2526H122.021V43.5645Z" fill="#FFD0D1"/>
<path d="M122.38 83.6112H100.172V83.2523C100.153 75.3032 102.126 67.4766 105.909 60.4898C109.693 53.503 115.167 47.5797 121.828 43.2627L122.387 42.9038L122.38 83.6112ZM100.888 82.8934H121.663V44.2318C115.305 48.478 110.085 54.2243 106.462 60.9657C102.84 67.7071 100.926 75.237 100.888 82.8934Z" fill="#FFD0D1"/>
<path d="M128.182 40.1621V57.562H167.232L167.282 40.1119C161.137 37.3311 154.47 35.8971 147.727 35.9058C140.984 35.9145 134.321 37.3656 128.182 40.1621Z" fill="#FFD0D1"/>
<path d="M167.59 57.9207H127.824V39.9322L128.039 39.8389C134.224 37.0183 140.939 35.5546 147.734 35.5459C154.529 35.5373 161.248 36.9838 167.44 39.7887L167.655 39.882L167.59 57.9207ZM128.54 57.2029H166.874L166.924 40.3414C160.882 37.6449 154.341 36.2556 147.727 36.2643C141.113 36.2729 134.575 37.6793 128.54 40.3917V57.2029Z" fill="#FFD0D1"/>
<path d="M195.042 83.2529C195.043 75.3365 193.063 67.5461 189.282 60.595C185.501 53.6439 180.041 47.754 173.4 43.4644V83.2601L195.042 83.2529Z" fill="#FFD0D1"/>
<path d="M195.4 83.6116H173.021V42.8037L173.572 43.1554C180.276 47.4655 185.788 53.3984 189.599 60.4065C193.41 67.4145 195.398 75.2717 195.379 83.2527L195.4 83.6116ZM173.737 82.8938H194.677C194.639 75.2075 192.711 67.649 189.062 60.8879C185.413 54.1267 180.157 48.3714 173.758 44.1317L173.737 82.8938Z" fill="#FFD0D1"/>
<path d="M190.823 196.517C192.255 194.851 194.641 194.866 196.418 196.416C200.336 199.847 200.608 204.764 200.494 204.937C200.379 205.109 195.436 205.497 191.503 202.065C190.687 201.414 190.159 200.468 190.031 199.43C189.904 198.393 190.188 197.347 190.823 196.517Z" fill="#2BD67B"/>
<path d="M226.384 214.512C224.808 211.641 221.369 210.88 218.267 212.574C211.469 216.314 209.506 223.399 209.621 223.686C209.735 223.973 216.784 226.112 223.626 222.401C226.692 220.721 227.817 217.175 226.384 214.512Z" fill="#2BD67B"/>
<path d="M204.735 186.546H204.018V244.819H204.735V186.546Z" fill="#9999A0"/>
<path d="M215.729 220.249L204.207 225.708L204.514 226.357L216.035 220.898L215.729 220.249Z" fill="#9999A0"/>
<path d="M196.917 200.945L196.41 201.452L204.122 209.186L204.629 208.678L196.917 200.945Z" fill="#9999A0"/>
<path d="M213.031 182.972C212.805 182.724 212.531 182.524 212.225 182.386C211.92 182.247 211.59 182.172 211.255 182.166C210.92 182.159 210.587 182.22 210.277 182.347C209.966 182.473 209.684 182.661 209.449 182.9C208.667 183.587 208.032 184.427 207.582 185.367C207.133 186.307 206.878 187.329 206.834 188.37C207.869 188.476 208.915 188.369 209.907 188.054C210.899 187.739 211.815 187.224 212.601 186.539C213.13 186.123 213.472 185.514 213.553 184.845C213.634 184.176 213.446 183.502 213.031 182.972Z" fill="#2BD67B"/>
<path d="M209.039 185.715L204.09 190.674L204.597 191.181L209.546 186.222L209.039 185.715Z" fill="#9999A0"/>
<path d="M103.309 132.014C101.278 132.053 99.2498 131.857 97.2632 131.432C91.3101 129.81 85.1492 126.882 79.1961 124.046C77.8385 123.463 76.4176 123.042 74.9622 122.79L75.084 122.072C76.5963 122.337 78.0726 122.777 79.4826 123.386C85.4286 126.214 91.5536 129.128 97.4566 130.729C101.827 131.552 106.318 131.479 110.66 130.514L110.824 131.231C108.356 131.771 105.836 132.033 103.309 132.014ZM69.0378 121.893L67.4474 121.706C66.2797 121.584 65.3627 121.484 64.7538 121.39L64.8684 120.672C65.4558 120.766 66.4158 120.866 67.5262 120.988L69.1309 121.161L69.0378 121.893ZM101.203 101.988L100.924 101.88C97.7217 100.617 93.667 98.6857 90.9805 97.408C87.7043 95.8321 84.3247 94.4819 80.8652 93.3667L81.0873 92.6489C84.5771 93.7717 87.9856 95.134 91.2886 96.726C93.8819 97.9607 97.7718 99.8055 100.902 101.033C102.736 97.7741 103.052 92.4192 103.338 83.3818H104.055C103.718 92.7709 103.424 98.255 101.361 101.636L101.203 101.988ZM75.0052 91.8449C71.742 91.1751 68.4133 90.8789 65.0833 90.962V90.2442C68.4686 90.1587 71.8526 90.4598 75.17 91.1414L75.0052 91.8449Z" fill="#9999A0"/>
<path d="M58.4281 253.447L58.1129 252.801C59.7292 252.003 61.1409 250.844 62.239 249.413C63.337 247.981 64.0921 246.316 64.4457 244.546L69.5965 219.645L35.8263 212.697L30.697 237.576C30.332 239.377 30.3864 241.238 30.8561 243.015C31.3257 244.791 32.1979 246.436 33.4049 247.819L32.8676 248.293C31.5895 246.824 30.6663 245.079 30.1694 243.194C29.6724 241.31 29.6152 239.336 30.0021 237.425L35.2102 211.85L70.3845 219.085L65.1263 244.69C64.7527 246.566 63.9545 248.33 62.7933 249.849C61.6321 251.367 60.1387 252.598 58.4281 253.447Z" fill="#9999A0"/>
<path d="M90.0134 64.9192L78.1931 62.4858C77.9885 63.4877 78.0416 64.5253 78.3474 65.501C78.6532 66.4767 79.2016 67.3584 79.9411 68.0633L76.044 87.1644L82.0401 88.3918L85.9014 69.4774C86.9305 69.1547 87.8546 68.5617 88.5777 67.7602C89.3008 66.9586 89.7966 65.9777 90.0134 64.9192Z" fill="#4070F4"/>
<path d="M82.2908 88.8156L75.5926 87.4374L79.5399 68.1856C78.8073 67.442 78.2685 66.5293 77.9712 65.5278C77.6738 64.5263 77.627 63.4669 77.8349 62.443L77.9065 62.0913L90.4361 64.6683L90.3644 65.02C90.1401 66.11 89.6363 67.1227 88.9027 67.9585C88.1692 68.7942 87.2311 69.4241 86.1808 69.7863L82.2908 88.8156ZM76.438 86.8847L81.732 87.9686L85.5575 69.1977L85.7653 69.1331C86.6821 68.8543 87.513 68.3462 88.1797 67.6568C88.8465 66.9674 89.3271 66.1192 89.5764 65.1923L78.4725 62.9096C78.3472 63.8027 78.4365 64.7129 78.733 65.5644C79.0296 66.4159 79.5248 67.1841 80.1775 67.8051L80.3208 67.9415L76.438 86.8847Z" fill="#4070F4"/>
<path d="M52.5105 215.803L46.2535 246.319L46.955 246.463L53.2119 215.948L52.5105 215.803Z" fill="#9999A0"/>
<path d="M147.439 38.9277C151.086 38.9277 154.044 38.2046 154.044 37.3125C154.044 36.4204 151.086 35.6973 147.439 35.6973C143.791 35.6973 140.834 36.4204 140.834 37.3125C140.834 38.2046 143.791 38.9277 147.439 38.9277Z" fill="#1C1C1E"/>
<path d="M225.051 256.993H182.95L183.265 256.454C185.368 252.807 188.392 249.778 192.033 247.673C195.674 245.567 199.804 244.458 204.008 244.458C208.212 244.458 212.342 245.567 215.983 247.673C219.624 249.778 222.648 252.807 224.751 256.454L225.051 256.993ZM184.218 256.275H223.819C221.74 252.884 218.828 250.084 215.362 248.141C211.896 246.199 207.99 245.179 204.018 245.179C200.047 245.179 196.141 246.199 192.675 248.141C189.209 250.084 186.297 252.884 184.218 256.275Z" fill="#9999A0"/>
<path d="M153.857 5.57781C151.868 4.318 149.579 3.61187 147.227 3.53203C144.874 3.45218 142.543 4.0015 140.473 5.1235C138.403 6.2455 136.668 7.8997 135.447 9.91606C134.226 11.9324 133.563 14.2382 133.526 16.5963C135.569 17.4858 137.786 17.8983 140.011 17.8027C142.235 17.707 144.409 17.1057 146.368 16.0442C148.326 14.9828 150.018 13.4889 151.316 11.6756C152.614 9.86236 153.483 7.77718 153.857 5.57781Z" fill="#4070F4"/>
<path d="M144.1 3.76852C144.987 3.58675 145.889 3.49774 146.794 3.50293C146.679 3.36654 146.579 3.23733 146.464 3.10813C145.099 2.98334 143.723 3.06074 142.381 3.33783C137.101 4.42173 132.674 9.0373 131.162 13.9831C131.708 14.9986 132.437 15.904 133.312 16.6533C133.863 10.3007 138.24 4.97445 144.1 3.76852Z" fill="#1C1C1E"/>
<path d="M158.256 13.5389C158.701 13.5365 159.145 13.4908 159.581 13.4025C158.726 10.1624 156.678 7.36684 153.85 5.57764C153.583 7.13247 153.066 8.63335 152.317 10.0213C152.9 11.0883 153.76 11.978 154.805 12.597C155.85 13.216 157.042 13.5414 158.256 13.5389Z" fill="#4070F4"/>
<path d="M64.3669 121.39C57.2031 121.39 52.9048 115.561 52.9048 105.799C52.9048 97.0202 59.08 90.2153 64.3669 90.2153C72.0895 90.2153 78.4868 96.6757 78.9166 104.909L78.3149 104.945H78.9095C78.9095 105.081 78.9095 105.225 78.9095 105.368C78.9095 105.512 78.9095 105.656 78.9095 105.799C78.9453 114.399 72.4047 121.39 64.3669 121.39ZM64.3669 90.9331C58.3995 90.9331 53.6212 99.066 53.6212 105.799C53.6212 119.222 61.1432 120.672 64.3669 120.672C72.0107 120.672 78.2289 114.004 78.2289 105.799C78.2289 105.663 78.2289 105.534 78.2289 105.397C78.2289 105.261 78.2289 105.096 78.2289 104.945C77.8063 97.0848 71.7457 90.9331 64.3884 90.9331H64.3669Z" fill="#9999A0"/>
<path d="M128.54 83.8264H121.67V43.2698L121.835 43.1621C123.818 41.881 125.892 40.7462 128.039 39.7668L128.54 39.5371V83.8264ZM122.387 83.1086H127.824V40.6569C125.949 41.5378 124.132 42.5401 122.387 43.6574V83.1086Z" fill="#9999A0"/>
<path d="M173.751 83.8264H166.874V39.5371L167.383 39.7668C169.53 40.7462 171.604 41.881 173.587 43.1621L173.751 43.2698V83.8264ZM167.59 83.1086H173.035V43.6287C171.288 42.5099 169.469 41.5075 167.59 40.6282V83.1086Z" fill="#9999A0"/>
<path d="M167.59 83.8268H127.831V57.1743H167.59V83.8268ZM128.548 83.109H166.874V57.8921H128.548V83.109Z" fill="#9999A0"/>
<path d="M61.4441 256.993H23.2896L23.5976 256.455C25.5051 253.156 28.2419 250.417 31.5351 248.508C36.5126 245.631 42.4265 244.852 47.9771 246.342C53.5277 247.832 58.2607 251.469 61.136 256.455L61.4441 256.993ZM24.5432 256.275H60.1976C58.32 253.23 55.6966 250.716 52.5764 248.972C49.4562 247.228 45.943 246.313 42.3704 246.313C38.7978 246.313 35.2846 247.228 32.1644 248.972C29.0442 250.716 26.4208 253.23 24.5432 256.275Z" fill="#9999A0"/>
<path d="M218.518 256.979H-11.1039C-11.1989 256.979 -11.29 256.941 -11.3572 256.873C-11.4244 256.806 -11.4621 256.715 -11.4621 256.62C-11.4621 256.524 -11.4244 256.433 -11.3572 256.366C-11.29 256.299 -11.1989 256.261 -11.1039 256.261H218.518C218.613 256.261 218.704 256.299 218.771 256.366C218.839 256.433 218.876 256.524 218.876 256.62C218.876 256.715 218.839 256.806 218.771 256.873C218.704 256.941 218.613 256.979 218.518 256.979Z" fill="#9999A0"/>
</g>
<defs>
<clipPath id="clip0">
<rect width="227" height="257" fill="white"/>
</clipPath>
</defs>
</svg>
