<svg width="102" height="86" viewBox="0 0 102 86" fill="none" xmlns="http://www.w3.org/2000/svg">
<g id="tx-pending-light">
<path id="Fill 1" fill-rule="evenodd" clip-rule="evenodd" d="M25.7236 79.1001H81.4238V77.0281L23.584 76.874L25.7236 79.1001Z" fill="#DFE6F2"/>
<g id="Group 4">
<path id="Stroke 2" d="M1 85.534H101.018" stroke="#101C3D" stroke-width="0.794393" stroke-linecap="round"/>
</g>
<path id="Stroke 5" fill-rule="evenodd" clip-rule="evenodd" d="M23.584 76.8741H91.7207V68.2144H23.584V76.8741Z" stroke="#101C3D" stroke-width="0.794393" stroke-linecap="round"/>
<path id="Stroke 6" d="M67.723 68.2146V76.5035" stroke="#0C152E" stroke-width="0.794393" stroke-linecap="round"/>
<path id="Stroke 7" d="M56.5872 68.2146V76.5035" stroke="#0C152E" stroke-width="0.794393" stroke-linecap="round"/>
<path id="Stroke 8" d="M79.5345 68.2146V76.5035" stroke="#0C152E" stroke-width="0.794393" stroke-linecap="round"/>
<g id="Group 25">
<path id="Stroke 9" fill-rule="evenodd" clip-rule="evenodd" d="M13.2871 85.5338H81.4238V76.874H13.2871V85.5338Z" stroke="#101C3D" stroke-width="0.794393" stroke-linecap="round"/>
<path id="Stroke 11" d="M28.3597 77.2451V85.534" stroke="#0C152E" stroke-width="0.794393" stroke-linecap="round"/>
<path id="Stroke 12" d="M39.1146 77.2451V85.534" stroke="#0C152E" stroke-width="0.794393" stroke-linecap="round"/>
<path id="Fill 13" fill-rule="evenodd" clip-rule="evenodd" d="M59.3078 60.1431C43.3016 60.1431 30.3258 47.1665 30.3258 31.1593C30.3258 15.1522 43.3016 2.17513 59.3078 2.17513C59.6536 2.17513 59.998 2.18364 60.3406 2.19573V2.17513C60.3406 2.17513 23.7573 -0.675322 24.2321 31.1593C24.7073 62.994 60.3406 60.1431 60.3406 60.1431V60.1229C59.998 60.1346 59.6536 60.1431 59.3078 60.1431" fill="#DFE6F2"/>
<path id="Stroke 14" fill-rule="evenodd" clip-rule="evenodd" d="M59.3078 60.1431C43.3016 60.1431 30.3258 47.1665 30.3258 31.1593C30.3258 15.1522 43.3016 2.17513 59.3078 2.17513C59.6536 2.17513 59.998 2.18364 60.3406 2.19573V2.17513C60.3406 2.17513 23.7573 -0.675322 24.2321 31.1593C24.7073 62.994 60.3406 60.1431 60.3406 60.1431V60.1229C59.998 60.1346 59.6536 60.1431 59.3078 60.1431Z" stroke="#101C3D" stroke-width="0.794393"/>
<path id="Stroke 15" fill-rule="evenodd" clip-rule="evenodd" d="M88.2896 31.1592C88.2896 47.1664 75.3139 60.143 59.3077 60.143C43.3019 60.143 30.3262 47.1664 30.3262 31.1592C30.3262 15.1521 43.3019 2.17505 59.3077 2.17505C75.3139 2.17505 88.2896 15.1521 88.2896 31.1592Z" stroke="#0C152E" stroke-width="0.794393"/>
<path id="Fill 16" fill-rule="evenodd" clip-rule="evenodd" d="M59.3075 6.08301C58.9568 6.08301 58.6079 6.09241 58.2607 6.10675C71.6235 6.65543 82.2885 17.6613 82.2885 31.1593C82.2885 44.6577 71.6235 55.6631 58.2607 56.2122C58.6079 56.2261 58.9568 56.2355 59.3075 56.2355C73.1557 56.2355 84.3815 45.0084 84.3815 31.1593C84.3815 17.3101 73.1557 6.08301 59.3075 6.08301" fill="#DFE6F2"/>
<path id="Stroke 17" fill-rule="evenodd" clip-rule="evenodd" d="M84.3819 31.1593C84.3819 45.0084 73.1561 56.2351 59.3079 56.2351C45.4596 56.2351 34.2334 45.0084 34.2334 31.1593C34.2334 17.3102 45.4596 6.0835 59.3079 6.0835C73.1561 6.0835 84.3819 17.3102 84.3819 31.1593Z" stroke="#101C3D" stroke-width="0.794393" stroke-linecap="round"/>
<path id="Stroke 18" fill-rule="evenodd" clip-rule="evenodd" d="M88.2896 31.1592C88.2896 47.1664 75.3139 60.143 59.3077 60.143C43.3019 60.143 30.3262 47.1664 30.3262 31.1592C30.3262 15.1521 43.3019 2.17505 59.3077 2.17505C75.3139 2.17505 88.2896 15.1521 88.2896 31.1592Z" stroke="#101C3D" stroke-width="0.794393" stroke-linecap="round"/>
<path id="Oval" fill-rule="evenodd" clip-rule="evenodd" d="M59.2754 36.0857C62.0368 36.0857 64.2754 33.8471 64.2754 31.0857C64.2754 28.3243 62.0368 26.0857 59.2754 26.0857C56.514 26.0857 54.2754 28.3243 54.2754 31.0857C54.2754 33.8471 56.514 36.0857 59.2754 36.0857Z" fill="#4070F4"/>
<path id="Stroke 20" d="M25.9092 41.5538H32.2313" stroke="#101C3D" stroke-width="0.794393" stroke-linecap="round"/>
<path id="Stroke 21" d="M27.1543 18.1151H33.4693" stroke="#101C3D" stroke-width="0.794393" stroke-linecap="round"/>
<path id="Stroke 22" d="M31.4805 50.4842H37.6938" stroke="#101C3D" stroke-width="0.794393" stroke-linecap="round"/>
</g>
<g id="Group 474">
<path id="Fill 47" fill-rule="evenodd" clip-rule="evenodd" d="M73.8691 23.4487H97.3179V0H73.8691V23.4487Z" fill="#254898"/>
<g id="i-awaiting/outlined">
<path id="Union" fill-rule="evenodd" clip-rule="evenodd" d="M79.5498 6.10255C79.5498 5.79741 79.7972 5.55005 80.1023 5.55005H90.8973C91.2024 5.55005 91.4498 5.79741 91.4498 6.10255C91.4498 6.40769 91.2024 6.65505 90.8973 6.65505H89.7388C89.6349 8.3267 88.7984 9.85084 87.4839 10.8383C87.2819 10.9901 87.0685 11.1292 86.8448 11.2542C86.685 11.3435 86.5199 11.4256 86.3498 11.5C86.5199 11.5745 86.685 11.6566 86.8448 11.7459C87.0685 11.8709 87.2819 12.01 87.4839 12.1618C88.7984 13.1493 89.6349 14.6734 89.7388 16.3451H90.8973C91.2024 16.3451 91.4498 16.5924 91.4498 16.8976C91.4498 17.2027 91.2024 17.4501 90.8973 17.4501H80.1023C79.7972 17.4501 79.5498 17.2027 79.5498 16.8976C79.5498 16.5924 79.7972 16.3451 80.1023 16.3451H81.2608C81.3647 14.6734 82.2012 13.1493 83.5157 12.1618C83.7177 12.01 83.9311 11.8709 84.1548 11.7459C84.3146 11.6566 84.4797 11.5745 84.6498 11.5C84.4797 11.4256 84.3146 11.3435 84.1548 11.2542C83.9311 11.1292 83.7177 10.9901 83.5157 10.8383C82.2012 9.85084 81.3647 8.3267 81.2608 6.65505H80.1023C79.7972 6.65505 79.5498 6.40769 79.5498 6.10255ZM82.3685 6.65505H88.6312C88.5018 8.32776 87.4614 9.80762 85.9069 10.4877L85.4998 10.6658L85.0927 10.4877C83.5382 9.80762 82.4978 8.32776 82.3685 6.65505ZM85.4998 12.3343L85.0927 12.5124C83.5382 13.1925 82.4978 14.6723 82.3685 16.345H88.6312C88.5018 14.6723 87.4614 13.1925 85.9069 12.5124L85.4998 12.3343Z" fill="white"/>
</g>
</g>
</g>
</svg>
