<?xml version="1.0" encoding="UTF-8"?>
<svg width="67px" height="75px" viewBox="0 0 67 75" version="1.1" xmlns="http://www.w3.org/2000/svg" xmlns:xlink="http://www.w3.org/1999/xlink">
    <!-- Generator: sketchtool 53.2 (72643) - https://sketchapp.com -->
    <title>C8FEA2C2-5EAE-4DD8-B4A8-0AB3951B375B</title>
    <desc>Created with sketchtool.</desc>
    <g id="Lisk-Hub---Internal-Iterations" stroke="none" stroke-width="1" fill="none" fill-rule="evenodd">
        <g id="4.2.7-Transaction---Failed" transform="translate(-650.000000, -224.000000)">
            <g id="Group-7" transform="translate(651.000000, 224.000000)">
                <path d="M57.7791,51.0907 L57.7791,23.2877 C57.7791,22.8657 57.5541,22.4767 57.1881,22.2657 L33.1111,8.3637 C32.7451,8.1527 32.2951,8.1527 31.9291,8.3637 L7.8511,22.2657 C7.4861,22.4767 7.2611,22.8657 7.2611,23.2877 L7.2611,51.0907 C7.2611,51.5127 7.4861,51.9027 7.8511,52.1137 L31.9291,66.0157 C32.2951,66.2267 32.7451,66.2267 33.1111,66.0157 L57.1881,52.1137 C57.5541,51.9027 57.7791,51.5127 57.7791,51.0907" id="Fill-1" fill="#DFE6F2"></path>
                <path d="M64.5398,54.6171 L64.5398,19.7621 C64.5398,19.1061 64.1898,18.5011 63.6228,18.1741 L33.4368,0.7461 C32.8698,0.4181 32.1698,0.4181 31.6028,0.7461 L1.4168,18.1741 C0.8498,18.5011 0.4998,19.1061 0.4998,19.7621 L0.4998,54.6171 C0.4998,55.2721 0.8498,55.8781 1.4168,56.2061 L31.6028,73.6341 C32.1698,73.9611 32.8698,73.9611 33.4368,73.6341 L63.6228,56.2061 C64.1898,55.8781 64.5398,55.2721 64.5398,54.6171 Z" id="Stroke-3" stroke="#EC6868" stroke-linecap="round"></path>
                <g transform="translate(23.000000, 28.000000)">
                    <path d="M18.4923,18.4934 L0.5003,0.4994 L18.4923,18.4934 Z" id="Fill-1" fill="#008BFF"></path>
                    <path d="M0.5001,0.4999 L18.4931,18.4929" id="Stroke-2" stroke="#EC6868" stroke-width="2"></path>
                    <path d="M0.5004,18.4934 L18.4924,0.4994 L0.5004,18.4934 Z" id="Fill-4" fill="#008BFF"></path>
                    <path d="M0.5001,18.4931 L18.4931,0.5001" id="Stroke-5" stroke="#EC6868" stroke-width="2"></path>
                </g>
            </g>
        </g>
    </g>
</svg>