<?xml version="1.0" encoding="UTF-8"?>
<svg width="201px" height="106px" viewBox="0 0 201 106" version="1.1" xmlns="http://www.w3.org/2000/svg" xmlns:xlink="http://www.w3.org/1999/xlink">
    <!-- Generator: sketchtool 55.1 (78136) - https://sketchapp.com -->
    <title>838E645D-64F1-4773-980E-10F643235739</title>
    <desc>Created with sketchtool.</desc>
    <g id="🌟-5.0-Delegates" stroke="none" stroke-width="1" fill="none" fill-rule="evenodd">
        <g id="5.3.5-First-Voting---Failed" transform="translate(-583.000000, -190.000000)">
            <g id="voting-failed" transform="translate(583.000000, 190.000000)">
                <polygon id="Fill-1" fill="#DFE6F2" points="81.6841416 104.703927 143.889206 104.703927 143.889206 47.2725322 81.6841416 47.2725322"></polygon>
                <g id="Group-5" transform="translate(81.566524, 46.848026)" stroke="#254898">
                    <polygon id="Stroke-2" points="0.117618026 57.8563519 62.3226824 57.8563519 62.3226824 0.424957082 0.117618026 0.424957082"></polygon>
                    <polygon id="Stroke-4" fill="#254898" points="62.3226824 57.8563519 104.776931 57.8563519 104.776931 0.424957082 62.3226824 0.424957082"></polygon>
                </g>
                <polygon id="Fill-6" fill="#FFFFFF" points="150.16023 38.8343176 138.817075 47.2068283 160.582268 47.2068283 171.925423 38.8343176"></polygon>
                <polygon id="Stroke-7" stroke="#231F20" points="150.16023 38.8343176 138.817075 47.2068283 160.582268 47.2068283 171.925423 38.8343176"></polygon>
                <polygon id="Fill-8" fill="#FFFFFF" points="144.290414 35.8639893 132.94771 47.2066931 154.712903 47.2066931 166.055607 35.8639893"></polygon>
                <polygon id="Stroke-9" stroke="#231F20" points="144.290414 35.8639893 132.94771 47.2066931 154.712903 47.2066931 166.055607 35.8639893"></polygon>
                <polygon id="Fill-10" fill="#C5CFE4" points="128.60765 83.9920236 85.8996888 83.9920236 85.8996888 79.5558863 124.867758 79.5558863 124.867758 47.2726674 128.60765 47.2726674"></polygon>
                <polygon id="Fill-11" fill="#FFFFFF" points="13.0736266 79.5557511 124.867983 79.5557511 124.867983 3.51502146 13.0736266 3.51502146"></polygon>
                <polygon id="Stroke-12" stroke="#231F20" points="13.0736266 79.5557511 124.867983 79.5557511 124.867983 3.51502146 13.0736266 3.51502146"></polygon>
                <polygon id="Fill-13" fill="#ffffff" points="7.54512876 79.5557511 13.0736266 79.5557511 13.0736266 3.51502146 7.54512876 3.51502146"></polygon>
                <polygon id="Stroke-14" stroke="#254898" points="7.54512876 79.5557511 13.0736266 79.5557511 13.0736266 3.51502146 7.54512876 3.51502146"></polygon>
                <polygon id="Fill-15" fill="#FFFFFF" points="51.3941202 100.25382 85.8994635 100.25382 85.8994635 79.5557511 51.3941202 79.5557511"></polygon>
                <polygon id="Stroke-16" stroke="#231F20" points="51.3941202 100.25382 85.8994635 100.25382 85.8994635 79.5557511 51.3941202 79.5557511"></polygon>
                <polygon id="Fill-17" fill="#254898" points="44.7912876 100.25382 51.3936695 100.25382 51.3936695 79.5557511 44.7912876 79.5557511"></polygon>
                <polygon id="Stroke-18" stroke="#254898" points="44.7912876 100.25382 51.3936695 100.25382 51.3936695 79.5557511 44.7912876 79.5557511"></polygon>
                <polygon id="Fill-19" fill="#FFFFFF" points="42.8485622 104.755751 94.4445708 104.755751 94.4445708 100.25427 42.8485622 100.25427"></polygon>
                <polygon id="Stroke-20" stroke="#231F20" points="42.8485622 104.755751 94.4450215 104.755751 94.4450215 100.25382 42.8485622 100.25382"></polygon>
                <polygon id="Fill-22" fill="#254898" points="32.4391416 104.755751 42.8485622 104.755751 42.8485622 100.25427 32.4391416 100.25427"></polygon>
                <polygon id="Stroke-23" stroke="#254898" points="32.4391416 104.755751 42.8485622 104.755751 42.8485622 100.25382 32.4391416 100.25382"></polygon>
                <polygon id="Fill-25" fill="#254898" points="32.4391416 68.1963734 124.5 68 124.560858 3.80362661 32.5 4"></polygon>
                <polygon id="Fill-26" fill="#FFFFFF" points="37.4286695 65.1090129 129.209936 65.1090129 129.209936 6.86015021 37.4286695 6.86015021"></polygon>
                <polygon id="Stroke-27" stroke="#231F20" points="37.4286695 65.1090129 129.209936 65.1090129 129.209936 6.86015021 37.4286695 6.86015021"></polygon>
                <polygon id="Fill-28" fill="#FFFFFF" points="37.4291202 6.86015021 129.210386 6.86015021 129.210386 0.675965665 37.4291202 0.675965665"></polygon>
                <g id="Group-52" transform="translate(0.000000, 0.431717)">
                    <polygon id="Stroke-29" stroke="#231F20" points="37.4286695 6.42843348 129.209936 6.42843348 129.209936 0.244248927 37.4286695 0.244248927"></polygon>
                    <path d="M43.5974871,3.53890558 C43.5974871,4.3306867 42.9553197,4.97240343 42.1635386,4.97240343 C41.3722082,4.97240343 40.7304914,4.3306867 40.7304914,3.53890558 C40.7304914,2.74712446 41.3722082,2.10540773 42.1635386,2.10540773 C42.9553197,2.10540773 43.5974871,2.74712446 43.5974871,3.53890558" id="Fill-31" fill="#254898"></path>
                    <polygon id="Fill-32" fill="#FFFFFF" points="47.8047425 28.9489056 61.2843991 28.9489056 61.2843991 15.4692489 47.8047425 15.4692489"></polygon>
                    <polygon id="Stroke-33" stroke="#EC6868" fill="#EC6868" points="47.8047425 28.9489056 61.2843991 28.9489056 61.2843991 15.4692489 47.8047425 15.4692489"></polygon>
                    <polygon id="Fill-34" fill="#FFFFFF" points="47.8047425 55.7545494 61.2843991 55.7545494 61.2843991 42.2748927 47.8047425 42.2748927"></polygon>
                    <polygon id="Stroke-35" stroke="#231F20" points="47.8047425 55.7545494 61.2843991 55.7545494 61.2843991 42.2748927 47.8047425 42.2748927"></polygon>
                    <path d="M80.2100858,29.7596137 C78.0609657,29.7596137 76.1231974,28.8601288 74.7482833,27.41897 C75.6567811,25.3013948 77.7599356,23.8178755 80.2100858,23.8178755 C82.6602361,23.8178755 84.7633906,25.3013948 85.6723391,27.41897 C84.2974249,28.8601288 82.3596567,29.7596137 80.2100858,29.7596137" id="Fill-37" fill="#DFE6F2"></path>
                    <path d="M72.6596395,22.2091674 C72.6596395,26.3789742 76.0403691,29.7597039 80.210176,29.7597039 C84.3804335,29.7597039 87.7611631,26.3789742 87.7611631,22.2091674 C87.7611631,18.0389099 84.3804335,14.6586309 80.210176,14.6586309 C76.0403691,14.6586309 72.6596395,18.0389099 72.6596395,22.2091674 Z" id="Stroke-38" stroke="#254898"></path>
                    <path d="M78.3877275,21.2458262 C78.3877275,22.2521137 79.2038433,23.0682296 80.2101309,23.0682296 C81.2168691,23.0682296 82.032985,22.2521137 82.032985,21.2458262 C82.032985,20.2395386 81.2168691,19.4234227 80.2101309,19.4234227 C79.2038433,19.4234227 78.3877275,20.2395386 78.3877275,21.2458262" id="Fill-39" fill="#DFE6F2"></path>
                    <path d="M78.3877275,21.2458262 C78.3877275,22.2521137 79.2038433,23.0682296 80.2101309,23.0682296 C81.2168691,23.0682296 82.032985,22.2521137 82.032985,21.2458262 C82.032985,20.2395386 81.2168691,19.4234227 80.2101309,19.4234227 C79.2038433,19.4234227 78.3877275,20.2395386 78.3877275,21.2458262 Z" id="Stroke-40" stroke="#DFE6F2"></path>
                    <path d="M80.2100858,56.5654378 C78.0609657,56.5654378 76.1231974,55.6659528 74.7482833,54.224794 C75.6567811,52.1072189 77.7599356,50.6236996 80.2100858,50.6236996 C82.6602361,50.6236996 84.7633906,52.1072189 85.6723391,54.224794 C84.2974249,55.6659528 82.3596567,56.5654378 80.2100858,56.5654378" id="Fill-41" fill="#EDF0F5"></path>
                    <path d="M72.6596395,49.0147661 C72.6596395,53.1850236 76.0403691,56.5653026 80.210176,56.5653026 C84.3804335,56.5653026 87.7611631,53.1850236 87.7611631,49.0147661 C87.7611631,44.8449592 84.3804335,41.4642296 80.210176,41.4642296 C76.0403691,41.4642296 72.6596395,44.8449592 72.6596395,49.0147661 Z" id="Stroke-42" stroke="#254898"></path>
                    <path d="M78.3877275,48.0516502 C78.3877275,49.0579378 79.2038433,49.8740536 80.2101309,49.8740536 C81.2168691,49.8740536 82.032985,49.0579378 82.032985,48.0516502 C82.032985,47.0453627 81.2168691,46.2292468 80.2101309,46.2292468 C79.2038433,46.2292468 78.3877275,47.0453627 78.3877275,48.0516502" id="Fill-43" fill="#DFE6F2"></path>
                    <path d="M78.3877275,48.0516502 C78.3877275,49.0579378 79.2038433,49.8740536 80.2101309,49.8740536 C81.2168691,49.8740536 82.032985,49.0579378 82.032985,48.0516502 C82.032985,47.0453627 81.2168691,46.2292468 80.2101309,46.2292468 C79.2038433,46.2292468 78.3877275,47.0453627 78.3877275,48.0516502 Z" id="Stroke-44" stroke="#DFE6F2"></path>
                    <path d="M97.6685665,20.0118283 L108.697172,20.0118283" id="Stroke-45" stroke="#254898"></path>
                    <path d="M97.6685665,24.4062361 L119.915047,24.4062361" id="Stroke-46" stroke="#254898"></path>
                    <path d="M97.6685665,46.8176524 L108.697172,46.8176524" id="Stroke-47" stroke="#254898"></path>
                    <path d="M97.6685665,51.2120601 L119.915047,51.2120601" id="Stroke-48" stroke="#254898"></path>
                    <path d="M138.81712,82.5866009 C126.811519,82.5866009 117.079867,92.3187039 117.079867,104.323854 L160.554373,104.323854 C160.554373,92.3187039 150.822721,82.5866009 138.81712,82.5866009" id="Fill-49" fill="#4070F4"></path>
                    <path d="M127.745433,96.041427 L127.341206,97.0810622 L118.309854,97.0810622 L118.844768,95.7291309 L126.036142,95.7291309 C128.886464,89.0289592 134.757901,84.2278004 141.867258,82.7992597 C142.112858,82.8217918 143.046142,82.9817704 143.766721,83.1525644 C136.5,85.0682833 130.56421,89.2903326 127.745433,96.041427 Z" id="Fill-50" fill="#221F1F"></path>
                    <path d="M-9.01287558e-05,104.324034 L200.167313,104.324034" id="Stroke-51" stroke="#254898"></path>
                    <path d="M54.5,22.0682833 L58.5,18.0682833 L54.5,22.0682833 L58.5,26.0682833 L54.5,22.0682833 Z M54.5,22.0682833 L50.5,26.0682833 L54.5,22.0682833 L50.5,18.0682833 L54.5,22.0682833 Z" id="Combined-Shape" stroke="#FFFFFF"></path>
                </g>
            </g>
        </g>
    </g>
</svg>
