<svg xmlns="http://www.w3.org/2000/svg" viewBox="0 0 444.18 232.16"><title>Voting submitted</title><g id="Layer_2" data-name="Layer 2"><g id="Layer_1-2" data-name="Layer 1"><polyline points="181.26 175.87 277.09 175.41 277.09 104 319.3 104 319.3 231.44 181.26 231.44" fill="none" stroke="#254898" stroke-miterlimit="10" stroke-width="1.2"/><rect x="319.3" y="104" width="94.21" height="127.44" fill="#254898"/><polygon points="333.21 85.28 308.04 103.85 356.34 103.85 381.51 85.28 333.21 85.28" fill="#f7f9fb" stroke="#254898" stroke-miterlimit="10" stroke-width="1.2"/><polygon points="320.19 78.68 295.02 103.85 343.31 103.85 368.49 78.68 320.19 78.68" fill="#f7f9fb" stroke="#254898" stroke-miterlimit="10" stroke-width="1.2"/><rect x="29.01" y="6.9" width="248.08" height="168.74" fill="none" stroke="#254898" stroke-miterlimit="10" stroke-width="1.2"/><rect x="71.98" y="6.9" width="205.1" height="142.97" fill="#254898"/><rect x="16.74" y="6.9" width="12.27" height="168.74" transform="translate(45.75 182.54) rotate(180)" fill="none" stroke="#254898" stroke-miterlimit="10" stroke-width="1.2"/><rect x="114.05" y="175.64" width="76.57" height="45.93" fill="none" stroke="#254898" stroke-miterlimit="10" stroke-width="1.2"/><rect x="99.39" y="175.64" width="14.65" height="45.93" transform="translate(213.44 397.21) rotate(180)" fill="#254898"/><rect x="95.08" y="221.57" width="114.49" height="9.99" fill="none" stroke="#254898" stroke-miterlimit="10" stroke-width="1.2"/><rect x="71.98" y="221.57" width="23.1" height="9.99" fill="#254898"/><rect x="83.06" y="14.32" width="203.67" height="129.26" fill="#f7f9fb" stroke="#000" stroke-miterlimit="10" stroke-width="1.2"/><rect x="83.06" y="0.6" width="203.67" height="13.72" fill="#f7f9fb" stroke="#000" stroke-miterlimit="10" stroke-width="1.2"/><circle cx="93.56" cy="7.91" r="3.18" fill="#254898"/><rect x="106.08" y="93.87" width="29.91" height="29.91" fill="none" stroke="#231f20" stroke-miterlimit="10" stroke-width="1.2"/><path d="M178,66.1a16.69,16.69,0,0,1-12.12-5.2,13.19,13.19,0,0,1,24.24,0A16.69,16.69,0,0,1,178,66.1Z" fill="#c5cfe4"/><circle cx="177.99" cy="49.34" r="16.76" fill="none" stroke="#000" stroke-miterlimit="10" stroke-width="1.2"/><circle cx="177.99" cy="47.2" r="4.04" fill="#c5cfe4" stroke="#c5cfe4" stroke-miterlimit="10" stroke-width="1.2"/><path d="M178,125.58a16.72,16.72,0,0,1-12.12-5.19,13.18,13.18,0,0,1,24.24,0A16.72,16.72,0,0,1,178,125.58Z" fill="#c5cfe4"/><circle cx="177.99" cy="108.82" r="16.76" fill="none" stroke="#000" stroke-miterlimit="10" stroke-width="1.2"/><circle cx="177.99" cy="106.69" r="4.04" fill="#c5cfe4" stroke="#c5cfe4" stroke-miterlimit="10" stroke-width="1.2"/><line x1="216.73" y1="44.47" x2="241.2" y2="44.47" fill="none" stroke="#000" stroke-miterlimit="10" stroke-width="1.2"/><line x1="216.73" y1="54.22" x2="266.1" y2="54.22" fill="none" stroke="#000" stroke-miterlimit="10" stroke-width="1.2"/><line x1="216.73" y1="103.95" x2="241.2" y2="103.95" fill="none" stroke="#000" stroke-miterlimit="10" stroke-width="1.2"/><line x1="216.73" y1="113.7" x2="266.1" y2="113.7" fill="none" stroke="#000" stroke-miterlimit="10" stroke-width="1.2"/><rect x="106.08" y="34.38" width="29.91" height="29.91" transform="translate(242.07 98.68) rotate(180)" fill="#2bd67b"/><polyline points="111.96 50.62 117.51 55.65 129.13 42.49" fill="none" stroke="#fff" stroke-miterlimit="10" stroke-width="1.2"/><path d="M308.14,182.71A48.24,48.24,0,0,0,259.9,231h96.48A48.24,48.24,0,0,0,308.14,182.71Z" fill="#4070f4"/><path d="M265.58,208.51H278a8.7,8.7,0,0,0,8.7-8.7v-12" fill="none" stroke="#000" stroke-miterlimit="10" stroke-width="1.2"/><line y1="231.56" x2="444.18" y2="231.56" fill="none" stroke="#254898" stroke-miterlimit="10" stroke-width="1.2"/></g></g></svg>