<svg width="200" height="138" viewBox="0 0 200 138" fill="none" xmlns="http://www.w3.org/2000/svg">
<path d="M96.2242 38.2024C90.6131 38.2024 86.0391 33.6283 86.0391 28.0172C86.0391 22.4061 90.6131 17.832 96.2242 17.832H98.3168V38.2024H96.2242Z" fill="#0C152E" stroke="#0C152E" stroke-miterlimit="10"/>
<path d="M98.5758 38.2024C92.9647 38.2024 88.3906 33.6283 88.3906 28.0172C88.3906 22.4061 92.9647 17.832 98.5758 17.832C104.187 17.832 108.761 22.4061 108.761 28.0172C108.761 33.6283 104.187 38.2024 98.5758 38.2024Z" fill="#DFE6F2" stroke="#0C152E" stroke-miterlimit="10"/>
<path d="M139.466 73.8704C133.855 73.8704 129.281 69.2963 129.281 63.6852C129.281 58.0741 133.855 53.5 139.466 53.5H141.559V73.8704H139.466Z" fill="#0C152E" stroke="#0C152E" stroke-miterlimit="10"/>
<path d="M141.818 73.8704C136.207 73.8704 131.633 69.2963 131.633 63.6852C131.633 58.0741 136.207 53.5 141.818 53.5C147.429 53.5 152.003 58.0741 152.003 63.6852C152.003 69.2963 147.429 73.8704 141.818 73.8704Z" fill="#DFE6F2" stroke="#0C152E" stroke-miterlimit="10"/>
<path d="M62.7985 119.351C57.1874 119.351 52.6133 114.777 52.6133 109.166C52.6133 103.555 57.1874 98.9805 62.7985 98.9805H64.8911V119.351H62.7985Z" fill="#0C152E" stroke="#0C152E" stroke-miterlimit="10"/>
<path d="M65.15 119.351C59.5389 119.351 54.9648 114.777 54.9648 109.166C54.9648 103.555 59.5389 98.9805 65.15 98.9805C70.7611 98.9805 75.3352 103.555 75.3352 109.166C75.3352 114.777 70.7611 119.351 65.15 119.351Z" fill="#DFE6F2" stroke="#0C152E" stroke-miterlimit="10"/>
<path d="M34.7242 60.6672C29.1131 60.6672 24.5391 56.0932 24.5391 50.4821C24.5391 44.8709 29.1131 40.2969 34.7242 40.2969H36.8168V60.6672H34.7242Z" fill="#0C152E" stroke="#0C152E" stroke-miterlimit="10"/>
<path d="M37.0758 60.6672C31.4647 60.6672 26.8906 56.0932 26.8906 50.4821C26.8906 44.8709 31.4647 40.2969 37.0758 40.2969C42.6869 40.2969 47.261 44.8709 47.261 50.4821C47.261 56.0932 42.6869 60.6672 37.0758 60.6672Z" fill="#DFE6F2" stroke="#0C152E" stroke-miterlimit="10"/>
<path d="M153.798 106.999C148.187 106.999 143.613 102.425 143.613 96.8141C143.613 91.203 148.187 86.6289 153.798 86.6289H155.891V106.999H153.798Z" fill="#0C152E" stroke="#0C152E" stroke-miterlimit="10"/>
<path d="M156.13 106.999C150.519 106.999 145.945 102.425 145.945 96.8141C145.945 91.203 150.519 86.6289 156.13 86.6289C161.742 86.6289 166.316 91.203 166.316 96.8141C166.316 102.425 161.76 106.999 156.13 106.999Z" fill="#DFE6F2" stroke="#0C152E" stroke-miterlimit="10"/>
<path d="M47.2617 46.9073L87.058 32.4258" stroke="#0C152E" stroke-miterlimit="10"/>
<path d="M46.7969 53.5L129.278 63.6852" stroke="#0C152E" stroke-miterlimit="10"/>
<path d="M107.188 33.4414L131.632 58.5896" stroke="#0C152E" stroke-miterlimit="10"/>
<path d="M70.4297 100.462L96.226 38.2031" stroke="#0C152E" stroke-miterlimit="10"/>
<path d="M153.797 86.6286L145.945 72.9805" stroke="#0C152E" stroke-miterlimit="10"/>
<path d="M143.614 98.9805L75.3359 109.166" stroke="#0C152E" stroke-miterlimit="10"/>
<path d="M58.7611 99.8122L41.4648 59.6641" stroke="#0C152E" stroke-miterlimit="10"/>
<path d="M144.76 92.0926L46.7969 53.5" stroke="#0C152E" stroke-miterlimit="10"/>
<path d="M176.261 25.4414H142.613V59.0896H176.261V25.4414Z" fill="#70778B"/>
<path d="M149.445 32.2734L169.427 52.2549" stroke="white" stroke-width="2.5329" stroke-miterlimit="10"/>
<path d="M169.427 32.2734L149.445 52.2549" stroke="white" stroke-width="2.5329" stroke-miterlimit="10"/>
</svg>
