<svg width="200" height="138" viewBox="0 0 200 138" fill="none" xmlns="http://www.w3.org/2000/svg">
<path d="M71.5391 104.074H165.724" stroke="#000D2B" stroke-miterlimit="10"/>
<path d="M71.5391 113.777H134.039" stroke="#000D2B" stroke-miterlimit="10"/>
<path d="M71.5391 72H165.724" stroke="#000D2B" stroke-miterlimit="10"/>
<path d="M71.5391 81.6836H134.039" stroke="#000D2B" stroke-miterlimit="10"/>
<path d="M71.5391 39.9062H165.724" stroke="#000D2B" stroke-miterlimit="10"/>
<path d="M71.5391 49.6094H134.039" stroke="#000D2B" stroke-miterlimit="10"/>
<path d="M54.0009 61.7578H27.4453V88.3134H54.0009V61.7578Z" fill="#0C152E" stroke="#0C152E" stroke-miterlimit="10"/>
<path d="M57.8329 61.7578H31.2773V88.3134H57.8329V61.7578Z" fill="#DFE6F2" stroke="#0C152E" stroke-miterlimit="10"/>
<path d="M51.1543 75.0293L44.5547 68.4297L37.9551 75.0293L44.5547 81.6289L51.1543 75.0293Z" stroke="#0C152E" stroke-miterlimit="10"/>
<path d="M54.0009 27.8711H27.4453V54.4267H54.0009V27.8711Z" fill="#0C152E" stroke="#0C152E" stroke-miterlimit="10"/>
<path d="M57.8329 27.8711H31.2773V54.4267H57.8329V27.8711Z" fill="#DFE6F2" stroke="#0C152E" stroke-miterlimit="10"/>
<path d="M51.1543 41.1426L44.5547 34.543L37.9551 41.1426L44.5547 47.7422L51.1543 41.1426Z" stroke="#0C152E" stroke-miterlimit="10"/>
<path d="M54.0009 95.6484H27.4453V122.204H54.0009V95.6484Z" fill="#0C152E" stroke="#0C152E" stroke-miterlimit="10"/>
<path d="M57.8329 95.6484H31.2773V122.204H57.8329V95.6484Z" fill="#DFE6F2" stroke="#0C152E" stroke-miterlimit="10"/>
<path d="M51.1543 108.92L44.5547 102.32L37.9551 108.92L44.5547 115.52L51.1543 108.92Z" stroke="#0C152E" stroke-miterlimit="10"/>
<path d="M168.075 15.7031H126.668V57.1105H168.075V15.7031Z" fill="#70778B"/>
<path d="M135.074 24.1289L159.667 48.703" stroke="white" stroke-width="3.1181" stroke-miterlimit="10"/>
<path d="M159.667 24.1289L135.074 48.703" stroke="white" stroke-width="3.1181" stroke-miterlimit="10"/>
</svg>
