<svg width="200" height="146" viewBox="0 0 200 146" fill="none" xmlns="http://www.w3.org/2000/svg">
<path d="M154.944 27.3164H115.185C113.074 27.3164 111.352 29.0386 111.352 31.1497V70.909C111.352 73.0201 113.074 74.7423 115.185 74.7423H154.944C157.055 74.7423 158.777 73.0201 158.777 70.909V31.1497C158.777 29.0386 157.055 27.3164 154.944 27.3164Z" fill="#0C152E" stroke="#0C152E" stroke-miterlimit="10"/>
<path d="M91.7214 74.9619H48.1843C46.6843 74.9619 45.351 74.1842 44.6102 72.8879C43.8695 71.5916 43.8695 70.0545 44.6102 68.7583L66.3695 31.0545C67.1102 29.7582 68.4621 28.9805 69.9436 28.9805H76.388L91.7214 74.9619Z" fill="#0C152E"/>
<path d="M72.8316 31.1454C73.5723 29.8491 74.9057 29.0898 76.4057 29.0898C77.8872 29.0898 79.2205 29.8676 79.9797 31.1454L101.646 68.6824C102.387 69.9787 102.387 71.5158 101.646 72.7936C100.906 74.0898 99.5723 74.8491 98.0723 74.8491H54.739C53.2575 74.8491 51.9242 74.0713 51.1649 72.7936C50.4242 71.4973 50.4242 69.9602 51.1649 68.6824L72.8316 31.1454Z" fill="#DFE6F2" stroke="#0C152E" stroke-miterlimit="10"/>
<path d="M161.11 74.8513H121.351C119.184 74.8513 117.406 73.092 117.406 70.9068V31.1476C117.406 28.9809 119.166 27.2031 121.351 27.2031H161.11C163.277 27.2031 165.054 28.9624 165.054 31.1476V70.9068C165.054 73.0735 163.277 74.8513 161.11 74.8513Z" fill="#DFE6F2" stroke="#0C152E" stroke-miterlimit="10"/>
<path d="M135.741 130.406C122.611 130.406 111.926 119.721 111.926 106.591C111.926 93.4615 122.592 82.7578 135.741 82.7578H140.648V130.406H135.741Z" fill="#0C152E" stroke="#0C152E" stroke-miterlimit="10"/>
<path d="M141.221 130.407C128.091 130.407 117.406 119.722 117.406 106.592C117.406 93.4625 128.091 82.7773 141.221 82.7773C154.351 82.7773 165.036 93.4625 165.036 106.592C165.036 119.722 154.351 130.407 141.221 130.407Z" fill="#DFE6F2" stroke="#0C152E" stroke-miterlimit="10"/>
<path d="M82.4255 82.8672H59.4625C58.0922 82.8672 56.8329 83.5894 56.1477 84.7746L44.6662 104.663C43.981 105.849 43.981 107.312 44.6662 108.497L56.1477 128.386C56.8329 129.571 58.0922 130.293 59.4625 130.293H82.4255C83.7959 130.293 85.0551 129.571 85.7403 128.386L97.2218 108.497C97.907 107.312 97.907 105.849 97.2218 104.663L85.7403 84.7746C85.0551 83.6079 83.7959 82.8672 82.4255 82.8672Z" fill="#0C152E" stroke="#0C152E" stroke-miterlimit="10"/>
<path d="M82.4265 130.406H59.4635C58.0561 130.406 56.7598 129.647 56.0561 128.443L44.5747 108.554C43.8709 107.332 43.8709 105.832 44.5747 104.61L56.0561 84.7208C56.7598 83.4985 58.0561 82.7578 59.4635 82.7578H82.4265C83.8339 82.7578 85.1302 83.5171 85.8339 84.7208L97.3154 104.61C98.0191 105.832 98.0191 107.332 97.3154 108.554L85.8339 128.443C85.1302 129.647 83.8339 130.406 82.4265 130.406ZM59.4635 82.98C58.1487 82.98 56.908 83.6837 56.2413 84.8319L44.7598 104.721C44.0932 105.869 44.0932 107.295 44.7598 108.443L56.2413 128.332C56.908 129.48 58.1302 130.184 59.4635 130.184H82.4265C83.7413 130.184 84.9821 129.48 85.6487 128.332L97.1302 108.443C97.7969 107.295 97.7969 105.869 97.1302 104.721L85.6487 84.8319C84.9821 83.6837 83.7598 82.98 82.4265 82.98H59.4635Z" fill="#0C152E" stroke="#0C152E" stroke-miterlimit="10"/>
<path d="M88.9812 130.406H66.0182C64.6108 130.406 63.3145 129.647 62.6108 128.443L51.1293 108.554C50.4256 107.332 50.4256 105.832 51.1293 104.61L62.6108 84.7208C63.3145 83.4985 64.6108 82.7578 66.0182 82.7578H88.9812C90.3886 82.7578 91.6849 83.5171 92.3886 84.7208L103.87 104.61C104.574 105.832 104.574 107.332 103.87 108.554L92.3886 128.443C91.6849 129.647 90.3886 130.406 88.9812 130.406Z" fill="#DFE6F2" stroke="#0C152E" stroke-miterlimit="10"/>
<path d="M178.593 7.14844H147.074V38.667H178.593V7.14844Z" fill="#70778B"/>
<path d="M153.48 13.5547L172.203 32.2769" stroke="white" stroke-width="2.3734" stroke-miterlimit="10"/>
<path d="M172.203 13.5547L153.48 32.2769" stroke="white" stroke-width="2.3734" stroke-miterlimit="10"/>
</svg>
