<svg width="200" height="128" viewBox="0 0 200 128" fill="none" xmlns="http://www.w3.org/2000/svg">
<path d="M162.852 108.371H54.5V20.5195" stroke="#000D2B" stroke-miterlimit="10"/>
<path d="M54.5 108.37L69.1667 82.2587L80.5926 85.1105L98.4259 63.2216L113.722 64.4439L124.574 74.8328L142.37 36.7031" stroke="#000D2B" stroke-miterlimit="10"/>
<path d="M69.1654 84.5924C70.454 84.5924 71.4987 83.5478 71.4987 82.2591C71.4987 80.9704 70.454 79.9258 69.1654 79.9258C67.8767 79.9258 66.832 80.9704 66.832 82.2591C66.832 83.5478 67.8767 84.5924 69.1654 84.5924Z" fill="#4070F4"/>
<path d="M80.2552 86.9284C81.5439 86.9284 82.5885 85.8837 82.5885 84.595C82.5885 83.3064 81.5439 82.2617 80.2552 82.2617C78.9665 82.2617 77.9219 83.3064 77.9219 84.595C77.9219 85.8837 78.9665 86.9284 80.2552 86.9284Z" fill="#4070F4"/>
<path d="M98.4232 65.5573C99.7118 65.5573 100.757 64.5126 100.757 63.224C100.757 61.9353 99.7118 60.8906 98.4232 60.8906C97.1345 60.8906 96.0898 61.9353 96.0898 63.224C96.0898 64.5126 97.1345 65.5573 98.4232 65.5573Z" fill="#4070F4"/>
<path d="M113.22 66.78C114.509 66.78 115.553 65.7353 115.553 64.4466C115.553 63.1579 114.509 62.1133 113.22 62.1133C111.931 62.1133 110.887 63.1579 110.887 64.4466C110.887 65.7353 111.931 66.78 113.22 66.78Z" fill="#4070F4"/>
<path d="M124.275 76.5378C125.563 76.5378 126.608 75.4931 126.608 74.2044C126.608 72.9158 125.563 71.8711 124.275 71.8711C122.986 71.8711 121.941 72.9158 121.941 74.2044C121.941 75.4931 122.986 76.5378 124.275 76.5378Z" fill="#4070F4"/>
<path d="M142.368 39.0378C143.657 39.0378 144.702 37.9931 144.702 36.7044C144.702 35.4158 143.657 34.3711 142.368 34.3711C141.08 34.3711 140.035 35.4158 140.035 36.7044C140.035 37.9931 141.08 39.0378 142.368 39.0378Z" fill="#4070F4"/>
<path d="M48.1094 26.9084L54.4983 20.5195L60.8872 26.9084H48.1094Z" fill="#0C152E"/>
<path d="M54.4983 108.371H37.6094" stroke="#000D2B" stroke-miterlimit="10"/>
<path d="M165.07 11.5547H131.422V45.2028H165.07V11.5547Z" fill="#70778B"/>
<path d="M138.254 18.3867L158.217 38.3682" stroke="white" stroke-width="2.5329" stroke-miterlimit="10"/>
<path d="M158.217 18.3867L138.254 38.3682" stroke="white" stroke-width="2.5329" stroke-miterlimit="10"/>
</svg>
