<svg width="100" height="100" viewBox="0 0 100 100" fill="none" xmlns="http://www.w3.org/2000/svg">
<path d="M37.668 74.9766H84.7513" stroke="#000D2B" stroke-miterlimit="10"/>
<path d="M37.668 81.9961H68.9087" stroke="#000D2B" stroke-miterlimit="10"/>
<path d="M37.668 51.7188H84.7513" stroke="#000D2B" stroke-miterlimit="10"/>
<path d="M37.668 58.75H68.9087" stroke="#000D2B" stroke-miterlimit="10"/>
<path d="M37.668 28.4766H84.7513" stroke="#000D2B" stroke-miterlimit="10"/>
<path d="M37.668 35.5078H68.9087" stroke="#000D2B" stroke-miterlimit="10"/>
<path d="M33.0318 33.8047H12.8281V38.5953H33.0318V33.8047Z" fill="#C5CFE4"/>
<path d="M18.6892 33.8047H12.8281V38.5953H18.6892V33.8047Z" fill="#F7F9FB"/>
<path d="M27.1134 33.8047H18.6875V38.5953H27.1134V33.8047Z" fill="#DFE6F2"/>
<path d="M33.0318 33.8047H12.8281V38.5953H33.0318V33.8047Z" stroke="#221F20" stroke-miterlimit="10"/>
<path d="M32.2154 29H12.0117V33.7907H32.2154V29Z" fill="#C5CFE4"/>
<path d="M17.8728 29H12.0117V33.7907H17.8728V29Z" fill="#F7F9FB"/>
<path d="M26.3009 29H17.875V33.7907H26.3009V29Z" fill="#DFE6F2"/>
<path d="M32.2154 29H12.0117V33.7907H32.2154V29Z" stroke="#221F20" stroke-miterlimit="10"/>
<path d="M31.567 24.2109H11.3633V29.0016H31.567V24.2109Z" fill="#C5CFE4"/>
<path d="M17.2244 24.2109H11.3633V29.0016H17.2244V24.2109Z" fill="#F7F9FB"/>
<path d="M25.6408 24.2109H17.2148V29.0016H25.6408V24.2109Z" fill="#DFE6F2"/>
<path d="M31.567 24.2109H11.3633V29.0016H31.567V24.2109Z" stroke="#221F20" stroke-miterlimit="10"/>
<path d="M12.8281 36.1933V33.8047H25.3929L12.8281 36.1933Z" fill="black" stroke="#221F20" stroke-miterlimit="10"/>
<path d="M12.0117 30.3688V29H24.5765L12.0117 30.3688Z" fill="black" stroke="#221F20" stroke-miterlimit="10"/>
<path d="M32.2701 55.5039H12.0664V60.2946H32.2701V55.5039Z" fill="#C5CFE4"/>
<path d="M17.9275 55.5039H12.0664V60.2946H17.9275V55.5039Z" fill="#F7F9FB"/>
<path d="M26.3517 55.5039H17.9258V60.2946H26.3517V55.5039Z" fill="#DFE6F2"/>
<path d="M32.2701 55.5039H12.0664V60.2946H32.2701V55.5039Z" stroke="#221F20" stroke-miterlimit="10"/>
<path d="M31.9459 50.7148H11.7422V55.5055H31.9459V50.7148Z" fill="#C5CFE4"/>
<path d="M17.6033 50.7148H11.7422V55.5055H17.6033V50.7148Z" fill="#F7F9FB"/>
<path d="M26.0275 50.7148H17.6016V55.5055H26.0275V50.7148Z" fill="#DFE6F2"/>
<path d="M31.9459 50.7148H11.7422V55.5055H31.9459V50.7148Z" stroke="#221F20" stroke-miterlimit="10"/>
<path d="M12.0664 56.7116V55.5039H24.622L12.0664 56.7116Z" fill="black" stroke="#221F20" stroke-miterlimit="10"/>
<path d="M31.1139 80.1133H10.9102V84.9039H31.1139V80.1133Z" fill="#C5CFE4"/>
<path d="M16.7713 80.1133H10.9102V84.9039H16.7713V80.1133Z" fill="#F7F9FB"/>
<path d="M25.1955 80.1133H16.7695V84.9039H25.1955V80.1133Z" fill="#DFE6F2"/>
<path d="M31.1139 80.1133H10.9102V84.9039H31.1139V80.1133Z" stroke="#221F20" stroke-miterlimit="10"/>
<path d="M30.7975 75.3242H10.5938V80.1149H30.7975V75.3242Z" fill="#C5CFE4"/>
<path d="M16.4549 75.3242H10.5938V80.1149H16.4549V75.3242Z" fill="#F7F9FB"/>
<path d="M24.8791 75.3242H16.4531V80.1149H24.8791V75.3242Z" fill="#DFE6F2"/>
<path d="M30.7975 75.3242H10.5938V80.1149H30.7975V75.3242Z" stroke="#221F20" stroke-miterlimit="10"/>
<path d="M10.9102 81.321V80.1133H23.475L10.9102 81.321Z" fill="black" stroke="#221F20" stroke-miterlimit="10"/>
<path d="M32.2701 70.5195H12.0664V75.3102H32.2701V70.5195Z" fill="#C5CFE4"/>
<path d="M17.9275 70.5195H12.0664V75.3102H17.9275V70.5195Z" fill="#F7F9FB"/>
<path d="M26.3556 70.5195H17.9297V75.3102H26.3556V70.5195Z" fill="#DFE6F2"/>
<path d="M32.2701 70.5195H12.0664V75.3102H32.2701V70.5195Z" stroke="#221F20" stroke-miterlimit="10"/>
<path d="M90.6863 8.375H68.8438V40.0309H90.6863V8.375Z" fill="#70778B"/>
<path d="M73.2773 14.8164L86.2403 33.6033" stroke="white" stroke-width="3.2887" stroke-miterlimit="10"/>
<path d="M86.2403 14.8164L73.2773 33.6033" stroke="white" stroke-width="3.2887" stroke-miterlimit="10"/>
</svg>
