<svg width="200" height="128" viewBox="0 0 200 128" fill="none" xmlns="http://www.w3.org/2000/svg">
<path d="M182.262 98.168H135.762V105.779H182.262V98.168Z" fill="#C5CFE4"/>
<path d="M149.243 98.168H135.762V105.779H149.243V98.168Z" fill="#F7F9FB"/>
<path d="M168.651 98.168H149.262V105.779H168.651V98.168Z" fill="#DFE6F2"/>
<path d="M182.262 98.168H135.762V105.779H182.262V98.168Z" stroke="#221F20" stroke-miterlimit="10"/>
<path d="M180.391 90.5547H133.891V98.1658H180.391V90.5547Z" fill="#C5CFE4"/>
<path d="M147.372 90.5547H133.891V98.1658H147.372V90.5547Z" fill="#F7F9FB"/>
<path d="M166.76 90.5547H147.371V98.1658H166.76V90.5547Z" fill="#DFE6F2"/>
<path d="M180.391 90.5547H133.891V98.1658H180.391V90.5547Z" stroke="#221F20" stroke-miterlimit="10"/>
<path d="M178.891 82.9453H132.391V90.5564H178.891V82.9453Z" fill="#C5CFE4"/>
<path d="M145.872 82.9453H132.391V90.5564H145.872V82.9453Z" fill="#F7F9FB"/>
<path d="M165.26 82.9453H145.871V90.5564H165.26V82.9453Z" fill="#DFE6F2"/>
<path d="M178.891 82.9453H132.391V90.5564H178.891V82.9453Z" stroke="#221F20" stroke-miterlimit="10"/>
<path d="M135.762 101.983V98.168H164.688L135.762 101.983Z" fill="black" stroke="#221F20" stroke-miterlimit="10"/>
<path d="M133.891 92.7214V90.5547H162.798L133.891 92.7214Z" fill="black" stroke="#221F20" stroke-miterlimit="10"/>
<path d="M124.187 98.1641H77.6875V105.775H124.187V98.1641Z" fill="#C5CFE4"/>
<path d="M91.169 98.1641H77.6875V105.775H91.169V98.1641Z" fill="#F7F9FB"/>
<path d="M110.557 98.1641H91.168V105.775H110.557V98.1641Z" fill="#DFE6F2"/>
<path d="M124.187 98.1641H77.6875V105.775H124.187V98.1641Z" stroke="#221F20" stroke-miterlimit="10"/>
<path d="M123.445 90.5547H76.9453V98.1658H123.445V90.5547Z" fill="#C5CFE4"/>
<path d="M90.4268 90.5547H76.9453V98.1658H90.4268V90.5547Z" fill="#F7F9FB"/>
<path d="M109.815 90.5547H90.4258V98.1658H109.815V90.5547Z" fill="#DFE6F2"/>
<path d="M123.445 90.5547H76.9453V98.1658H123.445V90.5547Z" stroke="#221F20" stroke-miterlimit="10"/>
<path d="M77.6875 100.071V98.1641H106.595L77.6875 100.071Z" fill="black" stroke="#221F20" stroke-miterlimit="10"/>
<path d="M14.8711 105.797H188.649" stroke="#221F20" stroke-miterlimit="10"/>
<path d="M68.7422 98.1641H22.2422V105.775H68.7422V98.1641Z" fill="#C5CFE4"/>
<path d="M35.7237 98.1641H22.2422V105.775H35.7237V98.1641Z" fill="#F7F9FB"/>
<path d="M55.1115 98.1641H35.7227V105.775H55.1115V98.1641Z" fill="#DFE6F2"/>
<path d="M68.7422 98.1641H22.2422V105.775H68.7422V98.1641Z" stroke="#221F20" stroke-miterlimit="10"/>
<path d="M68.0195 90.5547H21.5195V98.1658H68.0195V90.5547Z" fill="#C5CFE4"/>
<path d="M35.001 90.5547H21.5195V98.1658H35.001V90.5547Z" fill="#F7F9FB"/>
<path d="M54.3889 90.5547H35V98.1658H54.3889V90.5547Z" fill="#DFE6F2"/>
<path d="M68.0195 90.5547H21.5195V98.1658H68.0195V90.5547Z" stroke="#221F20" stroke-miterlimit="10"/>
<path d="M22.2422 100.071V98.1641H51.1496L22.2422 100.071Z" fill="black" stroke="#221F20" stroke-miterlimit="10"/>
<path d="M71.3906 82.9453H24.8906V90.5564H71.3906V82.9453Z" fill="#C5CFE4"/>
<path d="M38.3721 82.9453H24.8906V90.5564H38.3721V82.9453Z" fill="#F7F9FB"/>
<path d="M57.7795 82.9453H38.3906V90.5564H57.7795V82.9453Z" fill="#DFE6F2"/>
<path d="M71.3906 82.9453H24.8906V90.5564H71.3906V82.9453Z" stroke="#221F20" stroke-miterlimit="10"/>
<path d="M97.8161 64.4996L114.983 34.7773H80.668L97.8161 64.4996Z" fill="#F7F9FB" stroke="#221F20" stroke-miterlimit="10"/>
<path d="M131.481 15.4805H104.926V42.036H131.481V15.4805Z" fill="#70778B"/>
<path d="M110.316 20.8867L126.094 36.646" stroke="white" stroke-width="2" stroke-miterlimit="10"/>
<path d="M126.094 20.8867L110.316 36.646" stroke="white" stroke-width="2" stroke-miterlimit="10"/>
</svg>
