<svg width="200" height="154" viewBox="0 0 200 154" fill="none" xmlns="http://www.w3.org/2000/svg">
<path d="M142.521 125.129H64.4844V137.907H142.521V125.129Z" fill="#C5CFE4"/>
<path d="M87.114 125.129H64.4844V137.907H87.114V125.129Z" fill="#F7F9FB"/>
<path d="M119.65 125.129H87.1133V137.907H119.65V125.129Z" fill="#DFE6F2"/>
<path d="M142.521 125.129H64.4844V137.907H142.521V125.129Z" stroke="#221F20" stroke-miterlimit="10"/>
<path d="M139.369 112.332H61.332V125.11H139.369V112.332Z" fill="#C5CFE4"/>
<path d="M83.9617 112.332H61.332V125.11H83.9617V112.332Z" fill="#F7F9FB"/>
<path d="M116.498 112.332H83.9609V125.11H116.498V112.332Z" fill="#DFE6F2"/>
<path d="M139.369 112.332H61.332V125.11H139.369V112.332Z" stroke="#221F20" stroke-miterlimit="10"/>
<path d="M136.834 99.5547H58.7969V112.332H136.834V99.5547Z" fill="#C5CFE4"/>
<path d="M81.4265 99.5547H58.7969V112.332H81.4265V99.5547Z" fill="#F7F9FB"/>
<path d="M113.982 99.5547H81.4453V112.332H113.982V99.5547Z" fill="#DFE6F2"/>
<path d="M136.834 99.5547H58.7969V112.332H136.834V99.5547Z" stroke="#221F20" stroke-miterlimit="10"/>
<path d="M64.4844 131.518V125.129H113.003L64.4844 131.518Z" fill="black" stroke="#221F20" stroke-miterlimit="10"/>
<path d="M61.332 115.962V112.332H109.851L61.332 115.962Z" fill="black" stroke="#221F20" stroke-miterlimit="10"/>
<path d="M154.814 137.906H50.7031" stroke="#0C152E" stroke-miterlimit="10"/>
<path d="M97.5009 32.4453C78.9638 32.4453 63.9453 47.4638 63.9453 66.0009C63.9453 84.5379 78.9638 99.5564 97.5009 99.5564H102.519V32.4453H97.5009Z" fill="#000D2B" stroke="#0C152E" stroke-miterlimit="10" stroke-linecap="round" stroke-linejoin="round"/>
<path d="M102.501 99.5564C121.033 99.5564 136.056 84.5331 136.056 66.0009C136.056 47.4686 121.033 32.4453 102.501 32.4453C83.9686 32.4453 68.9453 47.4686 68.9453 66.0009C68.9453 84.5331 83.9686 99.5564 102.501 99.5564Z" fill="white" stroke="#0C152E" stroke-miterlimit="10" stroke-linecap="round" stroke-linejoin="round"/>
<path d="M102.503 92.1693C116.954 92.1693 128.669 80.4541 128.669 66.0026C128.669 51.5512 116.954 39.8359 102.503 39.8359C88.0512 39.8359 76.3359 51.5512 76.3359 66.0026C76.3359 80.4541 88.0512 92.1693 102.503 92.1693Z" fill="#DFE6F2"/>
<path d="M102.502 39.8359C102.039 39.8359 101.576 39.8545 101.113 39.873C114.928 40.5952 125.91 52.0211 125.91 66.0026C125.91 79.9841 114.928 91.4285 101.113 92.1322C101.576 92.1508 102.039 92.1693 102.502 92.1693C116.965 92.1693 128.669 80.447 128.669 66.0026C128.669 51.5582 116.965 39.8359 102.502 39.8359Z" fill="#C5CFE4"/>
<path d="M109.25 66.0079L102.52 59.2773L95.789 66.0079L102.52 72.7384L109.25 66.0079Z" stroke="#000D2B" stroke-miterlimit="10"/>
<path d="M162.796 16.8711H122.277V57.3896H162.796V16.8711Z" fill="#70778B"/>
<path d="M130.5 25.0938L154.556 49.1493" stroke="white" stroke-width="3.0506" stroke-miterlimit="10"/>
<path d="M154.556 25.0938L130.5 49.1493" stroke="white" stroke-width="3.0506" stroke-miterlimit="10"/>
</svg>
