<svg width="200" height="158" viewBox="0 0 200 158" fill="none" xmlns="http://www.w3.org/2000/svg">
<path d="M131.09 127.867H67.6641V138.256H131.09V127.867Z" fill="#C5CFE4"/>
<path d="M86.053 127.867H67.6641V138.256H86.053V127.867Z" fill="#F7F9FB"/>
<path d="M112.499 127.867H86.0547V138.256H112.499V127.867Z" fill="#DFE6F2"/>
<path d="M131.09 127.867H67.6641V138.256H131.09V127.867Z" stroke="#221F20" stroke-miterlimit="10"/>
<path d="M128.535 117.48H65.1094V127.869H128.535V117.48Z" fill="#C5CFE4"/>
<path d="M83.4983 117.48H65.1094V127.869H83.4983V117.48Z" fill="#F7F9FB"/>
<path d="M109.944 117.48H83.5V127.869H109.944V117.48Z" fill="#DFE6F2"/>
<path d="M128.535 117.48H65.1094V127.869H128.535V117.48Z" stroke="#221F20" stroke-miterlimit="10"/>
<path d="M126.481 107.09H63.0547V117.479H126.481V107.09Z" fill="#C5CFE4"/>
<path d="M81.4436 107.09H63.0547V117.479H81.4436V107.09Z" fill="#F7F9FB"/>
<path d="M107.89 107.09H81.4453V117.479H107.89V107.09Z" fill="#DFE6F2"/>
<path d="M126.481 107.09H63.0547V117.479H126.481V107.09Z" stroke="#221F20" stroke-miterlimit="10"/>
<path d="M67.6641 133.071V127.867H107.109L67.6641 133.071Z" fill="black" stroke="#221F20" stroke-miterlimit="10"/>
<path d="M65.1094 120.425V117.48H104.554L65.1094 120.425Z" fill="black" stroke="#221F20" stroke-miterlimit="10"/>
<path d="M128.793 96.7031H65.3672V107.092H128.793V96.7031Z" fill="#C5CFE4"/>
<path d="M83.7561 96.7031H65.3672V107.092H83.7561V96.7031Z" fill="#F7F9FB"/>
<path d="M110.202 96.7031H83.7578V107.092H110.202V96.7031Z" fill="#DFE6F2"/>
<path d="M128.793 96.7031H65.3672V107.092H128.793V96.7031Z" stroke="#221F20" stroke-miterlimit="10"/>
<path d="M126.238 86.332H62.8125V96.7209H126.238V86.332Z" fill="#C5CFE4"/>
<path d="M81.2014 86.332H62.8125V96.7209H81.2014V86.332Z" fill="#F7F9FB"/>
<path d="M107.648 86.332H81.2031V96.7209H107.648V86.332Z" fill="#DFE6F2"/>
<path d="M126.238 86.332H62.8125V96.7209H126.238V86.332Z" stroke="#221F20" stroke-miterlimit="10"/>
<path d="M65.3672 101.907V96.7031H104.793L65.3672 101.907Z" fill="black" stroke="#221F20" stroke-miterlimit="10"/>
<path d="M94.7227 34.999C80.556 35.036 69.0931 46.5731 69.1486 60.7397C69.1857 74.9064 80.7227 86.3694 94.8894 86.3138L98.7227 86.2953L98.5561 34.9805L94.7227 34.999Z" fill="#C5CFE4" stroke="#0C152E" stroke-width="0.7646" stroke-miterlimit="10" stroke-linecap="round" stroke-linejoin="round"/>
<path d="M98.651 86.3138C112.826 86.3138 124.318 74.8224 124.318 60.6471C124.318 46.4718 112.826 34.9805 98.651 34.9805C84.4757 34.9805 72.9844 46.4718 72.9844 60.6471C72.9844 74.8224 84.4757 86.3138 98.651 86.3138Z" fill="white" stroke="#0C152E" stroke-width="0.7646" stroke-miterlimit="10" stroke-linecap="round" stroke-linejoin="round"/>
<path d="M98.6474 80.6659C109.703 80.6659 118.666 71.7033 118.666 60.6474C118.666 49.5915 109.703 40.6289 98.6474 40.6289C87.5915 40.6289 78.6289 49.5915 78.6289 60.6474C78.6289 71.7033 87.5915 80.6659 98.6474 80.6659Z" fill="#DFE6F2"/>
<path d="M98.5751 40.6486C98.2232 40.6486 97.8714 40.6671 97.5195 40.6856C108.075 41.2041 116.501 49.9078 116.538 60.6115C116.575 71.3152 108.205 80.0745 97.6492 80.6486C98.001 80.6671 98.3529 80.6671 98.7047 80.6671C109.76 80.63 118.686 71.6486 118.649 60.593C118.631 49.5374 109.631 40.6115 98.5751 40.6486Z" fill="#C5CFE4"/>
<path d="M102.297 64.2895L102.273 57.0117L94.9957 57.0353L95.0192 64.3131L102.297 64.2895Z" stroke="#000D2B" stroke-width="0.7646" stroke-miterlimit="10"/>
<path d="M165.13 35.4453H138.574V62.0009H165.13V35.4453Z" fill="#70778B"/>
<path d="M143.98 40.8516L159.74 56.6108" stroke="white" stroke-width="2" stroke-miterlimit="10"/>
<path d="M159.74 40.8516L143.98 56.6108" stroke="white" stroke-width="2" stroke-miterlimit="10"/>
<path d="M126.482 84.6289L120.797 107.092H128.778V96.703H126.223L126.482 84.6289Z" fill="#000D2B"/>
<path d="M155.935 129.956L131.871 78.0156L123.368 81.9549L147.432 133.895L155.935 129.956Z" fill="#C5CFE4"/>
<path d="M138.851 93.0678L131.875 78.0117L123.372 81.951L130.348 97.0071L138.851 93.0678Z" fill="#F7F9FB"/>
<path d="M148.894 114.73L138.859 93.0703L130.357 97.0096L140.392 118.67L148.894 114.73Z" fill="#DFE6F2"/>
<path d="M155.935 129.956L131.871 78.0156L123.368 81.9549L147.432 133.895L155.935 129.956Z" stroke="#221F20" stroke-width="0.9025" stroke-miterlimit="10"/>
<path d="M164.35 128.887H107.109V138.257H164.35V128.887Z" fill="#C5CFE4"/>
<path d="M123.702 128.887H107.109V138.257H123.702V128.887Z" fill="#F7F9FB"/>
<path d="M147.573 128.887H123.703V138.257H147.573V128.887Z" fill="#DFE6F2"/>
<path d="M164.35 128.887H107.109V138.257H164.35V128.887Z" stroke="#221F20" stroke-width="0.9025" stroke-miterlimit="10"/>
<path d="M171.481 138.258H21.7031" stroke="#000D2B" stroke-miterlimit="10"/>
<path d="M90.4643 128.461H30.668V138.257H90.4643V128.461Z" fill="#C5CFE4"/>
<path d="M48.0013 128.461H30.668V138.257H48.0013V128.461Z" fill="#F7F9FB"/>
<path d="M72.9259 128.461H48V138.257H72.9259V128.461Z" fill="#DFE6F2"/>
<path d="M90.4643 128.461H30.668V138.257H90.4643V128.461Z" stroke="#221F20" stroke-miterlimit="10"/>
<path d="M89.5189 118.684H29.7227V128.48H89.5189V118.684Z" fill="#C5CFE4"/>
<path d="M47.056 118.684H29.7227V128.48H47.056V118.684Z" fill="#F7F9FB"/>
<path d="M71.9806 118.684H47.0547V128.48H71.9806V118.684Z" fill="#DFE6F2"/>
<path d="M89.5189 118.684H29.7227V128.48H89.5189V118.684Z" stroke="#221F20" stroke-miterlimit="10"/>
<path d="M30.668 130.924V128.461H67.8346L30.668 130.924Z" fill="black" stroke="#221F20" stroke-miterlimit="10"/>
</svg>
