<svg width="200" height="168" viewBox="0 0 200 168" fill="none" xmlns="http://www.w3.org/2000/svg">
<path d="M69.2251 93.1641C53.3547 93.1641 40.4844 106.034 40.4844 121.905C40.4844 137.775 53.3547 150.646 69.2251 150.646H73.5214V93.1641H69.2251Z" fill="#000D2B" stroke="#0C152E" stroke-miterlimit="10" stroke-linecap="round" stroke-linejoin="round"/>
<path d="M73.522 150.646C89.3951 150.646 102.263 137.778 102.263 121.905C102.263 106.032 89.3951 93.1641 73.522 93.1641C57.6489 93.1641 44.7812 106.032 44.7812 121.905C44.7812 137.778 57.6489 150.646 73.522 150.646Z" fill="white" stroke="#0C152E" stroke-miterlimit="10" stroke-linecap="round" stroke-linejoin="round"/>
<path d="M73.5197 144.332C85.9052 144.332 95.9456 134.292 95.9456 121.906C95.9456 109.521 85.9052 99.4805 73.5197 99.4805C61.1342 99.4805 51.0938 109.521 51.0938 121.906C51.0938 134.292 61.1342 144.332 73.5197 144.332Z" fill="#DFE6F2"/>
<path d="M73.5211 99.4805C73.1322 99.4805 72.7248 99.499 72.3359 99.5175C84.1693 100.129 93.5767 109.925 93.5767 121.906C93.5767 133.888 84.1878 143.684 72.3545 144.295C72.7433 144.314 73.1322 144.332 73.5396 144.332C85.9285 144.332 95.9656 134.295 95.9656 121.906C95.9656 109.518 85.91 99.4805 73.5211 99.4805Z" fill="#C5CFE4"/>
<path d="M78.8364 124.129L75.7539 116.586L68.2112 119.668L71.2936 127.211L78.8364 124.129Z" stroke="#000D2B" stroke-miterlimit="10"/>
<path d="M37.6862 106.758H6.51953" stroke="#000D2B" stroke-miterlimit="10" stroke-linecap="round" stroke-linejoin="round"/>
<path d="M37.6858 106.758H32.2969" stroke="#000D2B" stroke-miterlimit="10" stroke-linecap="round" stroke-linejoin="round"/>
<path d="M26.5178 115.219H11.1289" stroke="#000D2B" stroke-miterlimit="10" stroke-linecap="round" stroke-linejoin="round"/>
<path d="M34.0194 125.98H8.44531" stroke="#000D2B" stroke-miterlimit="10" stroke-linecap="round" stroke-linejoin="round"/>
<path d="M37.6863 135.219H22.0938" stroke="#000D2B" stroke-miterlimit="10" stroke-linecap="round" stroke-linejoin="round"/>
<path d="M121.077 25.832C105.206 25.832 92.3359 38.7024 92.3359 54.5728C92.3359 70.4431 105.206 83.3135 121.077 83.3135H125.373V25.832H121.077Z" fill="#000D2B" stroke="#0C152E" stroke-miterlimit="10" stroke-linecap="round" stroke-linejoin="round"/>
<path d="M125.374 83.3135C141.247 83.3135 154.114 70.4458 154.114 54.5728C154.114 38.6997 141.247 25.832 125.374 25.832C109.5 25.832 96.6328 38.6997 96.6328 54.5728C96.6328 70.4458 109.5 83.3135 125.374 83.3135Z" fill="white" stroke="#000D2B" stroke-miterlimit="10" stroke-linecap="round" stroke-linejoin="round"/>
<path d="M125.371 77.0003C137.757 77.0003 147.797 66.9599 147.797 54.5744C147.797 42.1889 137.757 32.1484 125.371 32.1484C112.986 32.1484 102.945 42.1889 102.945 54.5744C102.945 66.9599 112.986 77.0003 125.371 77.0003Z" fill="#DEE4EF" stroke="#F7F9FB" stroke-miterlimit="10"/>
<path d="M125.373 32.1641C124.984 32.1641 124.576 32.1826 124.188 32.2011C136.021 32.8122 145.428 42.6085 145.428 54.59C145.428 66.5715 136.021 76.3678 124.188 76.9789C124.576 76.9974 124.965 77.0159 125.373 77.0159C137.762 77.0159 147.799 66.9789 147.799 54.59C147.799 42.2011 137.762 32.1641 125.373 32.1641Z" fill="#C5CFE4"/>
<path d="M129.607 52.5838L122.211 49.1641L118.791 56.5601L126.187 59.9799L129.607 52.5838Z" stroke="#000D2B" stroke-miterlimit="10"/>
<path d="M158.633 37.5742H173.54" stroke="#000D2B" stroke-miterlimit="10"/>
<path d="M161.133 46.9609H182.744" stroke="#000D2B" stroke-miterlimit="10"/>
<path d="M195.411 56.4062H161.133" stroke="#000D2B" stroke-miterlimit="10"/>
<path d="M158.633 67.0742H177.022" stroke="#000D2B" stroke-miterlimit="10"/>
<path d="M119.095 86.9805H92.5391V113.536H119.095V86.9805Z" fill="#70778B"/>
<path d="M97.9453 92.3867L113.705 108.146" stroke="white" stroke-width="2" stroke-miterlimit="10"/>
<path d="M113.705 92.3867L97.9453 108.146" stroke="white" stroke-width="2" stroke-miterlimit="10"/>
</svg>
