<svg width="200" height="122" viewBox="0 0 200 122" fill="none" xmlns="http://www.w3.org/2000/svg">
<mask id="mask0_4912_301698" style="mask-type:luminance" maskUnits="userSpaceOnUse" x="49" y="19" width="96" height="96">
<path d="M96.7597 114.758C70.5004 114.758 49.2227 93.4799 49.2227 67.2206C49.2227 40.9799 70.5004 19.6836 96.7597 19.6836C123 19.6836 144.297 40.9614 144.297 67.2206C144.278 93.4799 123 114.758 96.7597 114.758Z" fill="white"/>
</mask>
<g mask="url(#mask0_4912_301698)">
<mask id="mask1_4912_301698" style="mask-type:luminance" maskUnits="userSpaceOnUse" x="49" y="13" width="96" height="110">
<path d="M144.278 13.6836H49.2227V122.332H144.278V13.6836Z" fill="white"/>
</mask>
<g mask="url(#mask1_4912_301698)">
<path d="M144.278 4.98047H49.2227V122.351H144.278V4.98047Z" fill="white"/>
</g>
<mask id="mask2_4912_301698" style="mask-type:luminance" maskUnits="userSpaceOnUse" x="49" y="13" width="96" height="110">
<path d="M144.278 13.6836H49.2227V122.332H144.278V13.6836Z" fill="white"/>
</mask>
<g mask="url(#mask2_4912_301698)">
<path d="M120.962 87.6484L151.018 113.685L137.203 135.371L119.203 105.111L120.962 87.6484Z" fill="#4070F4"/>
</g>
<mask id="mask3_4912_301698" style="mask-type:luminance" maskUnits="userSpaceOnUse" x="49" y="13" width="96" height="110">
<path d="M144.278 13.6836H49.2227V122.332H144.278V13.6836Z" fill="white"/>
</mask>
<g mask="url(#mask3_4912_301698)">
<path d="M144.519 113.349C144.519 113.349 133.797 98.1453 125.871 91.5156L141.39 122.738L144.519 113.349Z" fill="#0C152E"/>
</g>
<mask id="mask4_4912_301698" style="mask-type:luminance" maskUnits="userSpaceOnUse" x="49" y="13" width="96" height="110">
<path d="M144.278 13.6836H49.2227V122.332H144.278V13.6836Z" fill="white"/>
</mask>
<g mask="url(#mask4_4912_301698)">
<path d="M51.5372 139.776C50.9075 136.665 50.5742 133.424 50.5742 130.128C50.5742 103.294 72.3335 81.5352 99.1668 81.5352C126 81.5352 140.167 102.609 145.074 137.517C127.63 143.331 99.0001 147.202 51.5372 139.776Z" fill="#4070F4"/>
</g>
<mask id="mask5_4912_301698" style="mask-type:luminance" maskUnits="userSpaceOnUse" x="49" y="13" width="96" height="110">
<path d="M144.278 13.6836H49.2227V122.332H144.278V13.6836Z" fill="white"/>
</mask>
<g mask="url(#mask5_4912_301698)">
<path d="M92.8711 82.4226C92.8711 82.8485 95.6304 83.1633 99.0192 83.1078C102.408 83.0522 105.149 82.6633 105.13 82.2189C105.13 81.793 102.371 81.4782 98.9822 81.5337C95.6118 81.5893 92.8711 81.9967 92.8711 82.4226Z" fill="#0C152E"/>
</g>
<mask id="mask6_4912_301698" style="mask-type:luminance" maskUnits="userSpaceOnUse" x="49" y="13" width="96" height="110">
<path d="M144.278 13.6836H49.2227V122.332H144.278V13.6836Z" fill="white"/>
</mask>
<g mask="url(#mask6_4912_301698)">
<path d="M54.2038 112.703C52.6668 120.37 48.0186 134.573 49.7594 143.87C51.3149 152.148 57.5927 158.944 65.7223 161.166C74.0742 163.462 81.7223 164.592 88.5742 164.592C102.833 164.592 113.574 159.685 119.704 150.092C124.148 143.148 122.111 133.925 115.167 129.481C108.296 125.092 99.1853 127.036 94.6853 133.814C93.2779 134.666 87.7779 135.462 78.5557 133.592C78.389 129.092 79.0927 124.74 80.1112 120.944" fill="white"/>
</g>
<mask id="mask7_4912_301698" style="mask-type:luminance" maskUnits="userSpaceOnUse" x="49" y="13" width="96" height="110">
<path d="M144.278 13.6836H49.2227V122.332H144.278V13.6836Z" fill="white"/>
</mask>
<g mask="url(#mask7_4912_301698)">
<path d="M88.5735 164.852C81.6661 164.852 73.9439 163.704 65.6476 161.426C57.4068 159.167 51.0735 152.297 49.4809 143.908C48.1105 136.648 50.555 126.685 52.5179 118.667C53.055 116.445 53.5735 114.352 53.9254 112.648L54.4624 112.76C54.1105 114.482 53.592 116.593 53.055 118.815C51.2031 126.352 48.6846 136.667 50.0179 143.815C51.555 152 57.7402 158.704 65.7772 160.908C74.0365 163.167 81.7031 164.315 88.555 164.315C102.759 164.315 113.444 159.334 119.462 149.926C121.574 146.63 122.259 142.704 121.425 138.889C120.592 135.074 118.296 131.797 114.999 129.704C108.296 125.426 99.2957 127.334 94.9068 133.963L94.8698 134.019L94.8142 134.056C93.2402 135 87.6105 135.723 78.4809 133.852L78.2772 133.815V133.593C78.1291 129.574 78.6476 125.297 79.8513 120.852L80.3883 121C79.2217 125.297 78.7031 129.463 78.8328 133.352C87.518 135.093 92.9994 134.445 94.4994 133.611C99.055 126.778 108.388 124.815 115.314 129.26C118.74 131.445 121.092 134.834 121.981 138.797C122.851 142.76 122.129 146.834 119.944 150.241C113.833 159.797 102.981 164.852 88.5735 164.852Z" fill="#0E152C"/>
</g>
<mask id="mask8_4912_301698" style="mask-type:luminance" maskUnits="userSpaceOnUse" x="49" y="13" width="96" height="110">
<path d="M144.278 13.6836H49.2227V122.332H144.278V13.6836Z" fill="white"/>
</mask>
<g mask="url(#mask8_4912_301698)">
<path d="M85.7208 108.926V134.592L76.2578 134.426L85.7208 108.926Z" fill="#0C152E"/>
</g>
<mask id="mask9_4912_301698" style="mask-type:luminance" maskUnits="userSpaceOnUse" x="49" y="13" width="96" height="110">
<path d="M144.278 13.6836H49.2227V122.332H144.278V13.6836Z" fill="white"/>
</mask>
<g mask="url(#mask9_4912_301698)">
<path d="M85.8699 107.907L79.944 133C79.944 133 49.5551 129.74 49.7588 128C50.2774 123.685 53.407 108 60.444 100.777" fill="#4070F4"/>
</g>
<mask id="mask10_4912_301698" style="mask-type:luminance" maskUnits="userSpaceOnUse" x="49" y="13" width="96" height="110">
<path d="M144.278 13.6836H49.2227V122.332H144.278V13.6836Z" fill="white"/>
</mask>
<g mask="url(#mask10_4912_301698)">
<path d="M105.985 49.8128C111.466 49.8128 115.91 45.3688 115.91 39.8869C115.91 34.4049 111.466 29.9609 105.985 29.9609C100.503 29.9609 96.0586 34.4049 96.0586 39.8869C96.0586 45.3688 100.503 49.8128 105.985 49.8128Z" fill="#0C152E"/>
<path d="M96.6688 70.0369C107.193 70.0369 115.724 61.5054 115.724 50.9813C115.724 40.4572 107.193 31.9258 96.6688 31.9258C86.1447 31.9258 77.6133 40.4572 77.6133 50.9813C77.6133 61.5054 86.1447 70.0369 96.6688 70.0369Z" fill="#0C152E"/>
<path d="M99.4469 70.9446C108.386 70.9446 115.632 63.6982 115.632 54.7594C115.632 45.8206 108.386 38.5742 99.4469 38.5742C90.5081 38.5742 83.2617 45.8206 83.2617 54.7594C83.2617 63.6982 90.5081 70.9446 99.4469 70.9446Z" fill="white"/>
<path d="M102.67 70.6077C97.0773 69.9596 91.9662 66.4226 89.6143 60.867C86.1143 52.6448 89.9477 43.1448 98.1699 39.6448C99.1884 39.2189 100.225 38.8855 101.281 38.6818C98.5958 38.367 95.7995 38.7374 93.1328 39.867C84.9106 43.367 81.0773 52.867 84.5773 61.0892C87.6143 68.2929 95.281 72.1263 102.67 70.6077Z" fill="#DFE6F2"/>
<path d="M93.0586 39.7569C95.6512 38.6643 98.4846 38.2384 101.281 38.5717L102.077 38.6643L101.299 38.831C100.244 39.0532 99.2068 39.368 98.2253 39.7939C90.0772 43.2569 86.2623 52.7013 89.7253 60.8495C91.9846 66.1458 96.9475 69.8495 102.688 70.5161L103.485 70.6087L102.707 70.7754C95.1512 72.3124 87.4846 68.2754 84.4475 61.1828C80.9105 52.868 84.7809 43.2754 93.0586 39.7569ZM100.466 38.7384C97.9846 38.5717 95.4661 38.9976 93.1512 39.9791C85.0031 43.4421 81.1883 52.8865 84.6512 61.0347C87.5216 67.7939 94.6698 71.7198 101.836 70.6273C96.3364 69.7198 91.6512 66.0717 89.4661 60.9235C85.9475 52.6458 89.8179 43.0532 98.0957 39.5347C98.8735 39.2198 99.6698 38.9421 100.466 38.7384Z" fill="#DFE6F2"/>
<path d="M99.3002 70.9637C90.3187 70.9637 83.0039 63.6489 83.0039 54.6674C83.0039 45.6859 90.3187 38.3711 99.3002 38.3711C108.282 38.3711 115.597 45.6859 115.597 54.6674C115.597 63.6489 108.282 70.9637 99.3002 70.9637ZM99.3002 38.6118C90.4484 38.6118 83.2446 45.8155 83.2446 54.6674C83.2446 63.5192 90.4484 70.7229 99.3002 70.7229C108.152 70.7229 115.356 63.5192 115.356 54.6674C115.356 45.8155 108.152 38.6118 99.3002 38.6118Z" fill="#0E152C"/>
<path d="M100.705 43.4809C104.51 43.4809 107.594 40.3966 107.594 36.592C107.594 32.7874 104.51 29.7031 100.705 29.7031C96.9007 29.7031 93.8164 32.7874 93.8164 36.592C93.8164 40.3966 96.9007 43.4809 100.705 43.4809Z" fill="#0C152E"/>
</g>
<mask id="mask11_4912_301698" style="mask-type:luminance" maskUnits="userSpaceOnUse" x="49" y="13" width="96" height="110">
<path d="M144.278 13.6836H49.2227V122.332H144.278V13.6836Z" fill="white"/>
</mask>
<g mask="url(#mask11_4912_301698)">
<path d="M94.3901 93.3135L87.0938 124.184L98.7789 134.98L109.464 124.221L102.964 92.332L94.3901 93.3135Z" fill="#C5CFE4" stroke="#000D2B" stroke-miterlimit="10"/>
</g>
<mask id="mask12_4912_301698" style="mask-type:luminance" maskUnits="userSpaceOnUse" x="49" y="13" width="96" height="110">
<path d="M144.278 13.6836H49.2227V122.332H144.278V13.6836Z" fill="white"/>
</mask>
<g mask="url(#mask12_4912_301698)">
<path d="M94.0567 94.6836L93.5938 96.7021L103.501 94.6836H94.0567Z" fill="#0C152E"/>
</g>
<mask id="mask13_4912_301698" style="mask-type:luminance" maskUnits="userSpaceOnUse" x="49" y="13" width="96" height="110">
<path d="M144.278 13.6836H49.2227V122.332H144.278V13.6836Z" fill="white"/>
</mask>
<g mask="url(#mask13_4912_301698)">
<path d="M90.7773 86.0156C90.7773 86.0156 93.8329 86.7934 98.6292 86.7193C103.425 86.6453 106.759 86.0156 106.759 86.0156L103.481 94.6823H94.0366L90.7773 86.0156Z" fill="#C5CFE4" stroke="#000D2B" stroke-miterlimit="10"/>
</g>
<mask id="mask14_4912_301698" style="mask-type:luminance" maskUnits="userSpaceOnUse" x="49" y="13" width="96" height="110">
<path d="M144.278 13.6836H49.2227V122.332H144.278V13.6836Z" fill="white"/>
</mask>
<g mask="url(#mask14_4912_301698)">
<path d="M93.1484 98.5725L94.0558 94.6836" stroke="#000D2B" stroke-miterlimit="10"/>
</g>
</g>
<path d="M96.7597 114.777C123.014 114.777 144.297 93.4941 144.297 67.2402C144.297 40.9862 123.014 19.7031 96.7597 19.7031C70.5057 19.7031 49.2227 40.9862 49.2227 67.2402C49.2227 93.4941 70.5057 114.777 96.7597 114.777Z" stroke="#0C152E" stroke-miterlimit="10"/>
<path d="M152.407 10.332H125.852V36.8876H152.407V10.332Z" fill="#70778B"/>
<path d="M131.242 15.7383L147.02 31.4975" stroke="white" stroke-width="2" stroke-miterlimit="10"/>
<path d="M147.02 15.7383L131.242 31.4975" stroke="white" stroke-width="2" stroke-miterlimit="10"/>
</svg>
