<svg width="200" height="160" viewBox="0 0 200 160" fill="none" xmlns="http://www.w3.org/2000/svg">
<path d="M127.611 57.6836V92.4614H54.3516V76.9799L127.611 57.6836Z" fill="#0C152E"/>
<path d="M127.61 57.6836H123.314L49.6289 77.1836H54.5548L127.61 57.6836Z" fill="#4070F4"/>
<path d="M91.7581 90.4615C106.588 90.4615 118.61 78.4395 118.61 63.6097C118.61 48.7798 106.588 36.7578 91.7581 36.7578C76.9282 36.7578 64.9062 48.7798 64.9062 63.6097C64.9062 78.4395 76.9282 90.4615 91.7581 90.4615Z" fill="#0C152E" stroke="black" stroke-width="0.5" stroke-miterlimit="10"/>
<path d="M95.8323 90.4615C110.662 90.4615 122.684 78.4395 122.684 63.6097C122.684 48.7798 110.662 36.7578 95.8323 36.7578C81.0025 36.7578 68.9805 48.7798 68.9805 63.6097C68.9805 78.4395 81.0025 90.4615 95.8323 90.4615Z" fill="#F7F9FB" stroke="black" stroke-width="0.5" stroke-miterlimit="10"/>
<path d="M95.8349 84.1308C107.167 84.1308 116.353 74.9443 116.353 63.6123C116.353 52.2802 107.167 43.0938 95.8349 43.0938C84.5029 43.0938 75.3164 52.2802 75.3164 63.6123C75.3164 74.9443 84.5029 84.1308 95.8349 84.1308Z" fill="#C6CEE1"/>
<path d="M94.6295 43.0742C83.6665 43.5187 74.9258 52.5372 74.9258 63.5927C74.9258 74.6483 83.685 83.6853 94.6295 84.1298C105.592 83.6853 114.333 74.6668 114.333 63.6113C114.333 52.5557 105.592 43.5187 94.6295 43.0742Z" fill="#DFE5F0"/>
<path d="M100.223 68.476L101.266 59.2383L92.0279 58.1952L90.9848 67.433L100.223 68.476Z" stroke="#0C152E" stroke-miterlimit="10"/>
<path d="M146.814 77.1836H49.6289V139.869H146.814V77.1836Z" fill="#0C152E"/>
<path d="M146.813 77.1836H58.5352V139.869H146.813V77.1836Z" fill="#4070F4"/>
<path d="M132.593 113.611C135.405 113.611 137.685 111.331 137.685 108.518C137.685 105.706 135.405 103.426 132.593 103.426C129.78 103.426 127.5 105.706 127.5 108.518C127.5 111.331 129.78 113.611 132.593 113.611Z" fill="#0C152E"/>
<path d="M163.129 139.871H30.1289" stroke="black" stroke-miterlimit="10"/>
<path d="M140.39 15.1484H107.945V47.5929H140.39V15.1484Z" fill="#70778B"/>
<path d="M114.539 21.7422L133.798 41.0014" stroke="white" stroke-width="2.4421" stroke-miterlimit="10"/>
<path d="M133.798 21.7422L114.539 41.0014" stroke="white" stroke-width="2.4421" stroke-miterlimit="10"/>
</svg>
