<?xml version="1.0" encoding="UTF-8"?>
<svg width="21px" height="25px" viewBox="0 0 21 25" version="1.1" xmlns="http://www.w3.org/2000/svg" xmlns:xlink="http://www.w3.org/1999/xlink">
    <!-- Generator: sketchtool 55.2 (78181) - https://sketchapp.com -->
    <title>CBAE6AAD-BB54-4058-AF9C-F997959CDB09</title>
    <desc>Created with sketchtool.</desc>
    <defs>
        <polygon id="path-1" points="0 0.435807692 11.1062708 0.435807692 11.1062708 19.3503462 0 19.3503462"></polygon>
    </defs>
    <g id="Lisk-Hub---Internal-Iterations" stroke="none" stroke-width="1" fill="none" fill-rule="evenodd">
        <g id="Help-Center---Main-page" transform="translate(-554.000000, -486.000000)">
            <g id="Group-14" transform="translate(554.000000, 486.593062)">
                <g id="Group-3" transform="translate(0.000000, 4.367631)">
                    <mask id="mask-2" fill="white">
                        <use xlink:href="#path-1"></use>
                    </mask>
                    <g id="Clip-2"></g>
                    <path d="M7.94621951,19.3212692 L11.0834756,15.8424231 C11.1346646,15.7856538 11.0939939,15.6963462 11.017561,15.6963462 L7.5682622,15.6963462 C7.54301829,15.6963462 7.51917683,15.6852692 7.50164634,15.6665769 L4.57195122,12.4196538 C4.54670732,12.3919615 4.5425,12.3504231 4.56213415,12.3171923 L9.45384146,4.02403846 C9.47067073,3.99703846 9.47067073,3.96311538 9.45384146,3.93542308 L7.41539634,0.479423077 C7.38103659,0.421269231 7.29618902,0.421269231 7.26182927,0.479423077 L0.0126219512,12.7692692 C-0.00771341463,12.8018077 -0.00280487805,12.8433462 0.0224390244,12.8717308 L5.84185976,19.3212692 C5.85868902,19.3399615 5.88323171,19.3503462 5.90847561,19.3503462 L7.87960366,19.3503462 C7.90484756,19.3503462 7.92939024,19.3399615 7.94621951,19.3212692" id="Fill-1" fill="#0C152E" mask="url(#mask-2)"></path>
                </g>
                <path d="M10.0951067,0.0436153846 L8.05666159,3.50030769 C8.03983232,3.52730769 8.03983232,3.56123077 8.05666159,3.58823077 L10.1715396,7.17507692 L10.1715396,7.17507692 L15.7812957,16.6832308 C15.8016311,16.7164615 15.7974238,16.7573077 15.7714787,16.7856923 L12.8158384,20.0637692 L9.65123476,23.5723846 C9.60074695,23.6284615 9.64141768,23.7184615 9.71785061,23.7184615 L14.4356555,23.7184615 C14.4616006,23.7184615 14.4854421,23.7073846 14.5015701,23.6886923 L20.3216921,17.2391538 C20.346936,17.2107692 20.3511433,17.1692308 20.3322104,17.1366923 L10.2486738,0.0436153846 C10.214314,-0.0145384615 10.1294665,-0.0145384615 10.0951067,0.0436153846" id="Fill-4" fill="#0C152E"></path>
            </g>
        </g>
    </g>
</svg>